<svg xmlns="http://www.w3.org/2000/svg" viewBox="0 0 800 1218"><defs><style>.cls-1{fill:#f2f0eb;}.cls-2{fill:#3e95a3;}</style></defs><title>1c</title><g id="Layer_2" data-name="Layer 2"><rect class="cls-1" width="800" height="1218"/></g><g id="Layer_1" data-name="Layer 1"><path class="cls-2" d="M60.91,55a23.87,23.87,0,0,1-9.24,1.5L49.51,48a9.94,9.94,0,0,0,1.8.12,19.7,19.7,0,0,0,9.42-2.64,141.27,141.27,0,0,0,13-8.4q.84-.48,2.52-1.68h2.88v80.16H69.31V50.17A33.7,33.7,0,0,1,60.91,55Z"/><rect class="cls-2" x="73" y="248" width="6" height="363"/><path class="cls-2" d="M727,604h-6V90.54A37.58,37.58,0,0,0,683.46,53H151V47H683.46A43.59,43.59,0,0,1,727,90.54Z"/><circle class="cls-2" cx="75.07" cy="169.42" r="13.42"/><circle class="cls-2" cx="63.52" cy="187.2" r="11.59"/><circle class="cls-2" cx="86.62" cy="187.2" r="11.59"/><path class="cls-2" d="M89.66,209H60.47a21.29,21.29,0,0,0,11.59-18.94V181h6v9.06A21.28,21.28,0,0,0,89.66,209Z"/><path class="cls-2" d="M739.16,1160.38a23.87,23.87,0,0,1,9.24-1.5l2.16,8.52a9.94,9.94,0,0,0-1.8-.12,19.7,19.7,0,0,0-9.42,2.64,141.27,141.27,0,0,0-13,8.4q-.84.48-2.52,1.68h-2.88v-80.16h9.84v65.4A33.7,33.7,0,0,1,739.16,1160.38Z"/><rect class="cls-2" x="721" y="604" width="6" height="363"/><path class="cls-2" d="M649,1168H116.54A43.59,43.59,0,0,1,73,1124.46V611h6v513.46A37.58,37.58,0,0,0,116.54,1162H649Z"/><circle class="cls-2" cx="724.5" cy="1045.5" r="13.5"/><circle class="cls-2" cx="736.5" cy="1028.5" r="11.5"/><circle class="cls-2" cx="713.5" cy="1028.5" r="11.5"/><path class="cls-2" d="M710.45,1006h29.1A21.26,21.26,0,0,0,728,1024.91V1034h-6v-9.09A21.26,21.26,0,0,0,710.45,1006Z"/><circle class="cls-2" cx="401.5" cy="570.04" r="40.46"/><circle class="cls-2" cx="365.53" cy="623.99" r="34.47"/><circle class="cls-2" cx="434.47" cy="623.99" r="34.47"/><path class="cls-2" d="M443.59,688.42H356.41A63.7,63.7,0,0,0,391,631.75V604.5h18v27.25a63.7,63.7,0,0,0,34.6,56.67Z"/></g></svg>