<svg xmlns="http://www.w3.org/2000/svg" viewBox="0 0 800 1218"><defs><style>.cls-1{fill:#f2f0eb;}.cls-2{fill:#f4622f;}</style></defs><title>1d</title><g id="Layer_2" data-name="Layer 2"><rect class="cls-1" width="800" height="1218"/></g><g id="Layer_1" data-name="Layer 1"><rect class="cls-2" x="73" y="244" width="6" height="367"/><path class="cls-2" d="M727,605h-6V87.54A37.58,37.58,0,0,0,683.46,50H148V44H683.46A43.59,43.59,0,0,1,727,87.54Z"/><path class="cls-2" d="M61.74,52a23.87,23.87,0,0,1-9.24,1.5L50.34,45a9.94,9.94,0,0,0,1.8.12,19.7,19.7,0,0,0,9.42-2.64,141.27,141.27,0,0,0,13-8.4q.84-.48,2.52-1.68H80v80.16H70.14V47.17A33.7,33.7,0,0,1,61.74,52Z"/><path class="cls-2" d="M76.5,211.57c0-11.14-17-32-26-32,9,0,26-21,26-32.11,0,11.14,17,32.07,26,32.07C93.48,179.5,76.5,200.43,76.5,211.57Z"/><rect class="cls-2" x="721" y="605" width="6" height="367"/><path class="cls-2" d="M652,1172H116.54A43.59,43.59,0,0,1,73,1128.46V611h6v517.46A37.58,37.58,0,0,0,116.54,1166H652Z"/><path class="cls-2" d="M738.5,1163.88a23.87,23.87,0,0,1,9.24-1.5l2.16,8.52a9.94,9.94,0,0,0-1.8-.12,19.7,19.7,0,0,0-9.42,2.64,141.27,141.27,0,0,0-13,8.4q-.84.48-2.52,1.68h-2.88v-80.16h9.84v65.4A33.7,33.7,0,0,1,738.5,1163.88Z"/><path class="cls-2" d="M723.74,1004.34c0,11.13,17,32,26,32-9,0-26,21-26,32.1,0-11.13-17-32.06-26-32.06C706.75,1036.41,723.74,1015.47,723.74,1004.34Z"/><path class="cls-2" d="M400,709c0-34.71-53-99.92-81.13-99.88C347,609.08,400,543.71,400,509c0,34.71,53,100,81.13,100C453,609,400,674.29,400,709Z"/></g></svg>