<svg xmlns="http://www.w3.org/2000/svg" viewBox="0 0 800 1274"><defs><style>.cls-1{fill:#f2f0eb;}.cls-2{fill:#d8491d;}</style></defs><title>1d</title><g id="Layer_2" data-name="Layer 2"><rect class="cls-1" width="800" height="1274"/></g><g id="Layer_1" data-name="Layer 1"><rect class="cls-2" x="73" y="273" width="6" height="367"/><path class="cls-2" d="M727,634h-6V116.54A37.58,37.58,0,0,0,683.46,79H148V73H683.46A43.59,43.59,0,0,1,727,116.54Z"/><path class="cls-2" d="M61.74,81a23.87,23.87,0,0,1-9.24,1.5L50.34,74a9.94,9.94,0,0,0,1.8.12,19.7,19.7,0,0,0,9.42-2.64,141.27,141.27,0,0,0,13-8.4q.84-.48,2.52-1.68H80v80.16H70.14V76.17A33.7,33.7,0,0,1,61.74,81Z"/><path class="cls-2" d="M76.5,240.57c0-11.13-17-32-26-32,9,0,26-21,26-32.1,0,11.13,17,32.06,26,32.06C93.48,208.5,76.5,229.44,76.5,240.57Z"/><rect class="cls-2" x="721" y="634" width="6" height="367"/><path class="cls-2" d="M652,1201H116.54A43.59,43.59,0,0,1,73,1157.46V640h6v517.46A37.58,37.58,0,0,0,116.54,1195H652Z"/><path class="cls-2" d="M738.5,1192.88a23.87,23.87,0,0,1,9.24-1.5l2.16,8.52a9.94,9.94,0,0,0-1.8-.12,19.7,19.7,0,0,0-9.42,2.64,141.27,141.27,0,0,0-13,8.4q-.84.48-2.52,1.68h-2.88v-80.16h9.84v65.4A33.7,33.7,0,0,1,738.5,1192.88Z"/><path class="cls-2" d="M723.74,1033.34c0,11.13,17,32,26,32-9,0-26,21-26,32.1,0-11.13-17-32.06-26-32.06C706.75,1065.41,723.74,1044.47,723.74,1033.34Z"/><path class="cls-2" d="M400,738c0-34.71-53-99.92-81.13-99.88C347,638.08,400,572.71,400,538c0,34.71,53,100,81.13,100C453,638,400,703.29,400,738Z"/></g></svg>