<svg xmlns="http://www.w3.org/2000/svg" viewBox="0 0 800 1218"><defs><style>.cls-1{fill:#f2f0eb;}.cls-2{fill:#f4622f;}</style></defs><title>1h</title><g id="Layer_2" data-name="Layer 2"><rect class="cls-1" width="800" height="1218"/></g><g id="Layer_1" data-name="Layer 1"><path class="cls-2" d="M98,165.37a11.37,11.37,0,0,0-21.66-4.82,11.37,11.37,0,0,0-21.66,4.82c0,8.83,21.66,41.69,21.66,41.69S98,177,98,165.37Z"/><rect class="cls-2" x="73" y="245" width="6" height="367"/><path class="cls-2" d="M727,606h-6V88.54A37.58,37.58,0,0,0,683.46,51H148V45H683.46A43.59,43.59,0,0,1,727,88.54Z"/><path class="cls-2" d="M59.22,53A23.87,23.87,0,0,1,50,54.53L47.82,46a9.94,9.94,0,0,0,1.8.12A19.7,19.7,0,0,0,59,43.49a141.27,141.27,0,0,0,13-8.4q.84-.48,2.52-1.68h2.88v80.16H67.62V48.17A33.7,33.7,0,0,1,59.22,53Z"/><path class="cls-2" d="M702.08,1052.16a11.37,11.37,0,0,0,21.66,4.82,11.37,11.37,0,0,0,21.66-4.82c0-8.83-21.66-41.69-21.66-41.69S702.08,1040.57,702.08,1052.16Z"/><rect class="cls-2" x="720.98" y="606" width="6" height="367"/><path class="cls-2" d="M652,1173H116.52A43.59,43.59,0,0,1,73,1129.46V612h6v517.46A37.58,37.58,0,0,0,116.52,1167H652Z"/><path class="cls-2" d="M740.84,1164.5a23.87,23.87,0,0,1,9.24-1.5l2.16,8.52a9.94,9.94,0,0,0-1.8-.12A19.7,19.7,0,0,0,741,1174a141.27,141.27,0,0,0-13,8.4q-.84.48-2.52,1.68H722.6V1104h9.84v65.4A33.7,33.7,0,0,1,740.84,1164.5Z"/><path class="cls-2" d="M464.81,563.64A34,34,0,0,0,400,549.22a34,34,0,0,0-64.82,14.42c0,34.67,64.8,124.74,64.8,124.74S464.81,598.31,464.81,563.64Z"/></g></svg>