<svg xmlns="http://www.w3.org/2000/svg" viewBox="0 0 800 1274"><defs><style>.cls-1{fill:#f2f0eb;}.cls-2{fill:#d8491d;}</style></defs><title>1h</title><g id="Layer_2" data-name="Layer 2"><rect class="cls-1" width="800" height="1274"/></g><g id="Layer_1" data-name="Layer 1"><path class="cls-2" d="M98,193.37a11.37,11.37,0,0,0-21.66-4.82,11.37,11.37,0,0,0-21.66,4.82c0,8.83,21.66,41.69,21.66,41.69S98,205,98,193.37Z"/><rect class="cls-2" x="73" y="273" width="6" height="367"/><path class="cls-2" d="M727,634h-6V116.54A37.58,37.58,0,0,0,683.46,79H148V73H683.46A43.59,43.59,0,0,1,727,116.54Z"/><path class="cls-2" d="M59.22,81A23.87,23.87,0,0,1,50,82.53L47.82,74a9.94,9.94,0,0,0,1.8.12A19.7,19.7,0,0,0,59,71.49a141.27,141.27,0,0,0,13-8.4q.84-.48,2.52-1.68h2.88v80.16H67.62V76.17A33.7,33.7,0,0,1,59.22,81Z"/><path class="cls-2" d="M702.08,1080.16a11.37,11.37,0,0,0,21.66,4.82,11.37,11.37,0,0,0,21.66-4.82c0-8.83-21.66-41.69-21.66-41.69S702.08,1068.57,702.08,1080.16Z"/><rect class="cls-2" x="720.98" y="634" width="6" height="367"/><path class="cls-2" d="M652,1201H116.52A43.59,43.59,0,0,1,73,1157.46V640h6v517.46A37.58,37.58,0,0,0,116.52,1195H652Z"/><path class="cls-2" d="M740.84,1192.5a23.87,23.87,0,0,1,9.24-1.5l2.16,8.52a9.94,9.94,0,0,0-1.8-.12A19.7,19.7,0,0,0,741,1202a141.27,141.27,0,0,0-13,8.4q-.84.48-2.52,1.68H722.6V1132h9.84v65.4A33.7,33.7,0,0,1,740.84,1192.5Z"/><path class="cls-2" d="M464.81,591.64A34,34,0,0,0,400,577.22a34,34,0,0,0-64.82,14.42c0,34.67,64.8,124.74,64.8,124.74S464.81,626.31,464.81,591.64Z"/></g></svg>