<svg xmlns="http://www.w3.org/2000/svg" viewBox="0 0 800 1218"><defs><style>.cls-1{fill:#f2f0eb;}.cls-2{fill:#3e95a3;}</style></defs><title>1s</title><g id="Layer_2" data-name="Layer 2"><rect class="cls-1" width="800" height="1218"/></g><g id="Layer_1" data-name="Layer 1"><polygon class="cls-2" points="95.75 178.07 75.07 184.66 54.39 178.07 75.07 154 95.75 178.07"/><circle class="cls-2" cx="63.52" cy="185.2" r="11.59"/><circle class="cls-2" cx="86.62" cy="185.2" r="11.59"/><path class="cls-2" d="M89.66,207H60.47a21.27,21.27,0,0,0,11.59-18.94V179h6v9.06A21.28,21.28,0,0,0,89.66,207Z"/><polygon class="cls-2" points="461.05 601.71 399 621.48 336.95 601.71 399 529.5 461.05 601.71"/><circle class="cls-2" cx="364.35" cy="623.09" r="34.76"/><circle class="cls-2" cx="433.65" cy="623.09" r="34.76"/><path class="cls-2" d="M442.79,688.5H355.21A63.84,63.84,0,0,0,390,631.67V604.5H408v27.17a63.84,63.84,0,0,0,34.76,56.83Z"/><polygon class="cls-2" points="704.08 1044.18 724.76 1037.59 745.45 1044.18 724.76 1068.25 704.08 1044.18"/><circle class="cls-2" cx="736.5" cy="1037.5" r="11.5"/><circle class="cls-2" cx="713.5" cy="1037.5" r="11.5"/><path class="cls-2" d="M710.45,1015h29.09A21.27,21.27,0,0,0,728,1033.91V1043h-6v-9.09A21.26,21.26,0,0,0,710.45,1015Z"/><path class="cls-2" d="M58.39,55a23.87,23.87,0,0,1-9.24,1.5L47,48a9.94,9.94,0,0,0,1.8.12,19.7,19.7,0,0,0,9.42-2.64,141.27,141.27,0,0,0,13-8.4q.84-.48,2.52-1.68h2.88v80.16H66.79V50.17A33.7,33.7,0,0,1,58.39,55Z"/><rect class="cls-2" x="73" y="248" width="6" height="363"/><path class="cls-2" d="M727,604h-6V90.54A37.58,37.58,0,0,0,683.46,53H151V47H683.46A43.59,43.59,0,0,1,727,90.54Z"/><path class="cls-2" d="M741.68,1160.38a23.87,23.87,0,0,1,9.24-1.5l2.16,8.52a9.94,9.94,0,0,0-1.8-.12,19.7,19.7,0,0,0-9.42,2.64,141.27,141.27,0,0,0-13,8.4q-.84.48-2.52,1.68h-2.88v-80.16h9.84v65.4A33.7,33.7,0,0,1,741.68,1160.38Z"/><rect class="cls-2" x="721" y="604" width="6" height="363"/><path class="cls-2" d="M649,1168H116.54A43.59,43.59,0,0,1,73,1124.46V611h6v513.46A37.58,37.58,0,0,0,116.54,1162H649Z"/></g></svg>