<svg xmlns="http://www.w3.org/2000/svg" viewBox="0 0 800 1274"><defs><style>.cls-1{fill:#f2f0eb;}.cls-2{fill:#3e95a3;}</style></defs><title>2c</title><g id="Layer_2" data-name="Layer 2"><rect class="cls-1" width="800" height="1274"/></g><g id="Layer_1" data-name="Layer 1"><path class="cls-2" d="M56.59,123q4.92-7.08,16.08-15.48l3.24-2.4q5.16-3.72,8.28-6.48a27,27,0,0,0,5.28-6.36,15.33,15.33,0,0,0,2.16-8,12.1,12.1,0,0,0-3.78-9.36q-3.78-3.48-10.26-3.48a17.63,17.63,0,0,0-11.7,4,18.54,18.54,0,0,0-6.18,10.8l-8.28-4.32q3.12-9.48,9.78-14.4t16.5-4.92q11.16,0,17.46,5.94t6.3,15.9A25,25,0,0,1,99,95.85a28.6,28.6,0,0,1-6.42,8.4q-3.9,3.48-10.62,8.4-5,3.72-8,6.12a59.47,59.47,0,0,0-7.26,6.84,22.52,22.52,0,0,0-4,6.84h42.72v9.12H51.67v-3.12A26.56,26.56,0,0,1,56.59,123Z"/><rect class="cls-2" x="73" y="274" width="6" height="366"/><path class="cls-2" d="M727,633h-6V116.54A37.58,37.58,0,0,0,683.46,79H151V73H683.46A43.59,43.59,0,0,1,727,116.54Z"/><circle class="cls-2" cx="75.07" cy="195.42" r="13.42"/><circle class="cls-2" cx="63.52" cy="213.2" r="11.59"/><circle class="cls-2" cx="86.62" cy="213.2" r="11.59"/><path class="cls-2" d="M89.66,235H60.47a21.29,21.29,0,0,0,11.59-18.94V207h6v9.06A21.28,21.28,0,0,0,89.66,235Z"/><path class="cls-2" d="M743.48,1151.44q-4.92,7.08-16.08,15.48l-3.24,2.4q-5.16,3.72-8.28,6.48a27,27,0,0,0-5.28,6.36,15.33,15.33,0,0,0-2.16,8,12.1,12.1,0,0,0,3.78,9.36Q716,1203,722.48,1203a17.63,17.63,0,0,0,11.7-4,18.54,18.54,0,0,0,6.18-10.8l8.28,4.32q-3.12,9.48-9.78,14.4t-16.5,4.92q-11.16,0-17.46-5.94t-6.3-15.9a25,25,0,0,1,2.52-11.52,28.6,28.6,0,0,1,6.42-8.4q3.9-3.48,10.62-8.4,5-3.72,8-6.12a59.47,59.47,0,0,0,7.26-6.84,22.52,22.52,0,0,0,4-6.84H694.76v-9.12H748.4V1136A26.56,26.56,0,0,1,743.48,1151.44Z"/><rect class="cls-2" x="721" y="633" width="6" height="367"/><path class="cls-2" d="M649,1201H116.54A43.59,43.59,0,0,1,73,1157.46V640h6v517.46A37.58,37.58,0,0,0,116.54,1195H649Z"/><circle class="cls-2" cx="724.5" cy="1078.5" r="13.5"/><circle class="cls-2" cx="736.5" cy="1061.5" r="11.5"/><circle class="cls-2" cx="713.5" cy="1061.5" r="11.5"/><path class="cls-2" d="M710.45,1039h29.1A21.26,21.26,0,0,0,728,1057.91V1067h-6v-9.09A21.26,21.26,0,0,0,710.45,1039Z"/><circle class="cls-2" cx="401.5" cy="209.54" r="40.46"/><circle class="cls-2" cx="365.53" cy="263.49" r="34.47"/><circle class="cls-2" cx="434.47" cy="263.49" r="34.47"/><path class="cls-2" d="M443.59,327.92H356.41A63.7,63.7,0,0,0,391,271.25V244h18v27.25a63.7,63.7,0,0,0,34.6,56.67Z"/><circle class="cls-2" cx="401.5" cy="989.54" r="40.46"/><circle class="cls-2" cx="365.53" cy="1043.49" r="34.47"/><circle class="cls-2" cx="434.47" cy="1043.49" r="34.47"/><path class="cls-2" d="M443.59,1107.92H356.41a63.7,63.7,0,0,0,34.6-56.67V1024h18v27.25a63.7,63.7,0,0,0,34.6,56.67Z"/></g></svg>