<svg xmlns="http://www.w3.org/2000/svg" viewBox="0 0 800 1218"><defs><style>.cls-1{fill:#f2f0eb;}.cls-2{fill:#f4622f;}</style></defs><title>2d</title><g id="Layer_2" data-name="Layer 2"><rect class="cls-1" width="800" height="1218"/></g><g id="Layer_1" data-name="Layer 1"><rect class="cls-2" x="73" y="244" width="6" height="367"/><path class="cls-2" d="M727,605h-6V87.54A37.58,37.58,0,0,0,683.46,50H148V44H683.46A43.59,43.59,0,0,1,727,87.54Z"/><path class="cls-2" d="M57.42,94q4.92-7.08,16.08-15.48l3.24-2.4Q81.9,72.37,85,69.61a27,27,0,0,0,5.28-6.36,15.33,15.33,0,0,0,2.16-8,12.1,12.1,0,0,0-3.78-9.36q-3.78-3.48-10.26-3.48a17.63,17.63,0,0,0-11.7,4,18.54,18.54,0,0,0-6.18,10.8l-8.28-4.32q3.12-9.48,9.78-14.4t16.5-4.92q11.16,0,17.46,5.94t6.3,15.9a25,25,0,0,1-2.52,11.52,28.6,28.6,0,0,1-6.42,8.4q-3.9,3.48-10.62,8.4-5,3.72-8,6.12a59.47,59.47,0,0,0-7.26,6.84,22.52,22.52,0,0,0-4,6.84h42.72v9.12H52.5v-3.12A26.56,26.56,0,0,1,57.42,94Z"/><path class="cls-2" d="M76.5,211.57c0-11.14-17-32-26-32,9,0,26-21,26-32.11,0,11.14,17,32.07,26,32.07C93.48,179.5,76.5,200.43,76.5,211.57Z"/><rect class="cls-2" x="721" y="605" width="6" height="367"/><path class="cls-2" d="M652,1172H116.54A43.59,43.59,0,0,1,73,1128.46V611h6v517.46A37.58,37.58,0,0,0,116.54,1166H652Z"/><path class="cls-2" d="M742.82,1121.94q-4.92,7.08-16.08,15.48l-3.24,2.4q-5.16,3.72-8.28,6.48a27,27,0,0,0-5.28,6.36,15.33,15.33,0,0,0-2.16,8,12.1,12.1,0,0,0,3.78,9.36q3.78,3.48,10.26,3.48a17.63,17.63,0,0,0,11.7-4,18.54,18.54,0,0,0,6.18-10.8l8.28,4.32q-3.12,9.48-9.78,14.4t-16.5,4.92q-11.16,0-17.46-5.94t-6.3-15.9a25,25,0,0,1,2.52-11.52,28.6,28.6,0,0,1,6.42-8.4q3.9-3.48,10.62-8.4,5-3.72,8-6.12a59.47,59.47,0,0,0,7.26-6.84,22.52,22.52,0,0,0,4-6.84H694.1v-9.12h53.64v3.12A26.56,26.56,0,0,1,742.82,1121.94Z"/><path class="cls-2" d="M723.74,1004.34c0,11.13,17,32,26,32-9,0-26,21-26,32.1,0-11.13-17-32.06-26-32.06C706.75,1036.41,723.74,1015.47,723.74,1004.34Z"/><path class="cls-2" d="M400,319c0-34.71-53-99.92-81.13-99.88C347,219.08,400,153.71,400,119c0,34.71,53,100,81.13,100C453,219,400,284.29,400,319Z"/><path class="cls-2" d="M400,1099c0-34.71-53-99.92-81.13-99.88C347,999.08,400,933.71,400,899c0,34.71,53,100,81.13,100C453,999,400,1064.29,400,1099Z"/></g></svg>