<svg xmlns="http://www.w3.org/2000/svg" viewBox="0 0 800 1218"><defs><style>.cls-1{fill:#f2f0eb;}.cls-2{fill:#f4622f;}</style></defs><title>2h</title><g id="Layer_2" data-name="Layer 2"><rect class="cls-1" width="800" height="1218"/></g><g id="Layer_1" data-name="Layer 1"><path class="cls-2" d="M98,165.37a11.37,11.37,0,0,0-21.66-4.82,11.37,11.37,0,0,0-21.66,4.82c0,8.83,21.66,41.69,21.66,41.69S98,177,98,165.37Z"/><rect class="cls-2" x="73" y="245" width="6" height="367"/><path class="cls-2" d="M727,606h-6V88.54A37.58,37.58,0,0,0,683.46,51H148V45H683.46A43.59,43.59,0,0,1,727,88.54Z"/><path class="cls-2" d="M54.9,95Q59.82,87.89,71,79.49l3.24-2.4q5.16-3.72,8.28-6.48a27,27,0,0,0,5.28-6.36,15.33,15.33,0,0,0,2.16-8,12.1,12.1,0,0,0-3.78-9.36q-3.78-3.48-10.26-3.48a17.63,17.63,0,0,0-11.7,4A18.54,18.54,0,0,0,58,58.13l-8.28-4.32q3.12-9.48,9.78-14.4T76,34.49q11.16,0,17.46,5.94t6.3,15.9a25,25,0,0,1-2.52,11.52,28.6,28.6,0,0,1-6.42,8.4q-3.9,3.48-10.62,8.4-5,3.72-8,6.12a59.47,59.47,0,0,0-7.26,6.84,22.52,22.52,0,0,0-4,6.84h42.72v9.12H50v-3.12A26.56,26.56,0,0,1,54.9,95Z"/><path class="cls-2" d="M702.08,1052.16a11.37,11.37,0,0,0,21.66,4.82,11.37,11.37,0,0,0,21.66-4.82c0-8.83-21.66-41.69-21.66-41.69S702.08,1040.57,702.08,1052.16Z"/><rect class="cls-2" x="720.98" y="606" width="6" height="367"/><path class="cls-2" d="M652,1173H116.52A43.59,43.59,0,0,1,73,1129.46V612h6v517.46A37.58,37.58,0,0,0,116.52,1167H652Z"/><path class="cls-2" d="M745.16,1122.56q-4.92,7.08-16.08,15.48l-3.24,2.4q-5.16,3.72-8.28,6.48a27,27,0,0,0-5.28,6.36,15.33,15.33,0,0,0-2.16,8,12.1,12.1,0,0,0,3.78,9.36q3.78,3.48,10.26,3.48a17.63,17.63,0,0,0,11.7-4,18.54,18.54,0,0,0,6.18-10.8l8.28,4.32q-3.12,9.48-9.78,14.4T724,1183q-11.16,0-17.46-5.94t-6.3-15.9a25,25,0,0,1,2.52-11.52,28.6,28.6,0,0,1,6.42-8.4q3.9-3.48,10.62-8.4,5-3.72,8-6.12a59.47,59.47,0,0,0,7.26-6.84,22.52,22.52,0,0,0,4-6.84H696.44V1104h53.64v3.12A26.56,26.56,0,0,1,745.16,1122.56Z"/><path class="cls-2" d="M464.81,179.64A34,34,0,0,0,400,165.22a34,34,0,0,0-64.82,14.42c0,34.67,64.8,124.74,64.8,124.74S464.81,214.31,464.81,179.64Z"/><path class="cls-2" d="M464.81,947.64A34,34,0,0,0,400,933.22a34,34,0,0,0-64.82,14.42c0,34.67,64.8,124.74,64.8,124.74S464.81,982.31,464.81,947.64Z"/></g></svg>