<svg xmlns="http://www.w3.org/2000/svg" viewBox="0 0 800 1267"><defs><style>.cls-1{fill:#f2f0eb;}.cls-2{fill:#3e95a3;}</style></defs><title>3c</title><g id="Layer_2" data-name="Layer 2"><rect class="cls-1" width="800" height="1267"/></g><g id="Layer_1" data-name="Layer 1"><path class="cls-2" d="M61.15,139.41a37,37,0,0,1-12-8.76l5.52-6.84a42.14,42.14,0,0,0,10,7.5,25.28,25.28,0,0,0,11.64,2.46q8.52,0,14-4a12.93,12.93,0,0,0,5.52-11.16,14,14,0,0,0-2.58-8.4,16.81,16.81,0,0,0-6.72-5.52A20.17,20.17,0,0,0,78,102.81h-14V93.93H77.83q6.36,0,10.14-3.6a11.38,11.38,0,0,0,3.78-8.52,9.1,9.1,0,0,0-4.32-8.1,19.37,19.37,0,0,0-10.8-2.82,26,26,0,0,0-8.28,1.5,22.28,22.28,0,0,0-7.8,4.5l-4.68-7.44a33,33,0,0,1,9.78-5.7,31,31,0,0,1,10.86-2,33.37,33.37,0,0,1,12.78,2.34,20.48,20.48,0,0,1,8.94,6.72A16.59,16.59,0,0,1,101.47,81a19.1,19.1,0,0,1-2.58,9.66,15.57,15.57,0,0,1-7.62,6.66,21.27,21.27,0,0,1,10.32,8.76,24.87,24.87,0,0,1,4.08,13.68,20.72,20.72,0,0,1-3.6,12.06,24,24,0,0,1-10,8.16,34.34,34.34,0,0,1-14.46,2.94A37.82,37.82,0,0,1,61.15,139.41Z"/><rect class="cls-2" x="73" y="274" width="6" height="363"/><path class="cls-2" d="M727,630h-6V116.54A37.58,37.58,0,0,0,683.46,79H151V73H683.46A43.59,43.59,0,0,1,727,116.54Z"/><circle class="cls-2" cx="75.07" cy="195.42" r="13.42"/><circle class="cls-2" cx="63.52" cy="213.2" r="11.59"/><circle class="cls-2" cx="86.62" cy="213.2" r="11.59"/><path class="cls-2" d="M89.66,235H60.47a21.29,21.29,0,0,0,11.59-18.94V207h6v9.06A21.28,21.28,0,0,0,89.66,235Z"/><path class="cls-2" d="M738.92,1128a37,37,0,0,1,12,8.76l-5.52,6.84a42.14,42.14,0,0,0-10-7.5,25.28,25.28,0,0,0-11.64-2.46q-8.52,0-14,4a12.93,12.93,0,0,0-5.52,11.16,14,14,0,0,0,2.58,8.4,16.81,16.81,0,0,0,6.72,5.52,20.17,20.17,0,0,0,8.58,1.92h14v8.88H722.24q-6.36,0-10.14,3.6a11.38,11.38,0,0,0-3.78,8.52,9.1,9.1,0,0,0,4.32,8.1,19.37,19.37,0,0,0,10.8,2.82,26,26,0,0,0,8.28-1.5,22.28,22.28,0,0,0,7.8-4.5l4.68,7.44a33,33,0,0,1-9.78,5.7,31,31,0,0,1-10.86,2,33.37,33.37,0,0,1-12.78-2.34,20.48,20.48,0,0,1-8.94-6.72,16.59,16.59,0,0,1-3.24-10.14,19.1,19.1,0,0,1,2.58-9.66,15.57,15.57,0,0,1,7.62-6.66,21.27,21.27,0,0,1-10.32-8.76,24.87,24.87,0,0,1-4.08-13.68,20.72,20.72,0,0,1,3.6-12.06,24,24,0,0,1,10-8.16,34.34,34.34,0,0,1,14.46-2.94A37.82,37.82,0,0,1,738.92,1128Z"/><rect class="cls-2" x="721" y="630" width="6" height="363"/><path class="cls-2" d="M649,1194H116.54A43.59,43.59,0,0,1,73,1150.46V637h6v513.46A37.58,37.58,0,0,0,116.54,1188H649Z"/><circle class="cls-2" cx="724.5" cy="1071.5" r="13.5"/><circle class="cls-2" cx="736.5" cy="1054.5" r="11.5"/><circle class="cls-2" cx="713.5" cy="1054.5" r="11.5"/><path class="cls-2" d="M710.45,1032h29.1A21.26,21.26,0,0,0,728,1050.91V1060h-6v-9.09A21.26,21.26,0,0,0,710.45,1032Z"/><circle class="cls-2" cx="401.5" cy="596.04" r="40.46"/><circle class="cls-2" cx="365.53" cy="649.99" r="34.47"/><circle class="cls-2" cx="434.47" cy="649.99" r="34.47"/><path class="cls-2" d="M443.59,714.42H356.41A63.7,63.7,0,0,0,391,657.75V630.5h18v27.25a63.7,63.7,0,0,0,34.6,56.67Z"/><circle class="cls-2" cx="401.5" cy="209.54" r="40.46"/><circle class="cls-2" cx="365.53" cy="263.49" r="34.47"/><circle class="cls-2" cx="434.47" cy="263.49" r="34.47"/><path class="cls-2" d="M443.59,327.92H356.41A63.7,63.7,0,0,0,391,271.25V244h18v27.25a63.7,63.7,0,0,0,34.6,56.67Z"/><circle class="cls-2" cx="401.5" cy="982.54" r="40.46"/><circle class="cls-2" cx="365.53" cy="1036.49" r="34.47"/><circle class="cls-2" cx="434.47" cy="1036.49" r="34.47"/><path class="cls-2" d="M443.59,1100.92H356.41a63.7,63.7,0,0,0,34.6-56.67V1017h18v27.25a63.7,63.7,0,0,0,34.6,56.67Z"/></g></svg>