<svg xmlns="http://www.w3.org/2000/svg" viewBox="0 0 800 1274"><defs><style>.cls-1{fill:#f2f0eb;}.cls-2{fill:#d8491d;}</style></defs><title>3d</title><g id="Layer_2" data-name="Layer 2"><rect class="cls-1" width="800" height="1274"/></g><g id="Layer_1" data-name="Layer 1"><rect class="cls-2" x="73" y="273" width="6" height="367"/><path class="cls-2" d="M727,634h-6V116.54A37.58,37.58,0,0,0,683.46,79H148V73H683.46A43.59,43.59,0,0,1,727,116.54Z"/><path class="cls-2" d="M61.8,139.41a37,37,0,0,1-12-8.76l5.52-6.84a42.14,42.14,0,0,0,10,7.5,25.28,25.28,0,0,0,11.64,2.46q8.52,0,14-4a12.93,12.93,0,0,0,5.52-11.16,14,14,0,0,0-2.58-8.4,16.81,16.81,0,0,0-6.72-5.52,20.17,20.17,0,0,0-8.58-1.92h-14V93.93H78.48q6.36,0,10.14-3.6a11.38,11.38,0,0,0,3.78-8.52,9.1,9.1,0,0,0-4.32-8.1,19.37,19.37,0,0,0-10.8-2.82A26,26,0,0,0,69,72.39a22.28,22.28,0,0,0-7.8,4.5l-4.68-7.44a33,33,0,0,1,9.78-5.7,31,31,0,0,1,10.86-2,33.37,33.37,0,0,1,12.78,2.34,20.48,20.48,0,0,1,8.94,6.72A16.59,16.59,0,0,1,102.12,81a19.1,19.1,0,0,1-2.58,9.66,15.57,15.57,0,0,1-7.62,6.66,21.27,21.27,0,0,1,10.32,8.76,24.87,24.87,0,0,1,4.08,13.68,20.72,20.72,0,0,1-3.6,12.06,24,24,0,0,1-10,8.16,34.34,34.34,0,0,1-14.46,2.94A37.82,37.82,0,0,1,61.8,139.41Z"/><path class="cls-2" d="M76.5,240.57c0-11.14-17-32-26-32,9,0,26-21,26-32.11,0,11.14,17,32.07,26,32.07C93.49,208.5,76.5,229.43,76.5,240.57Z"/><rect class="cls-2" x="721" y="634" width="6" height="367"/><path class="cls-2" d="M652,1201H116.54A43.59,43.59,0,0,1,73,1157.46V640h6v517.46A37.58,37.58,0,0,0,116.54,1195H652Z"/><path class="cls-2" d="M736.58,1134.5a37,37,0,0,1,12,8.76l-5.52,6.84a42.14,42.14,0,0,0-10-7.5,25.28,25.28,0,0,0-11.64-2.46q-8.52,0-14,4a12.93,12.93,0,0,0-5.52,11.16,14,14,0,0,0,2.58,8.4,16.81,16.81,0,0,0,6.72,5.52,20.17,20.17,0,0,0,8.58,1.92h14V1180H719.9q-6.36,0-10.14,3.6a11.38,11.38,0,0,0-3.78,8.52,9.1,9.1,0,0,0,4.32,8.1,19.37,19.37,0,0,0,10.8,2.82,26,26,0,0,0,8.28-1.5,22.28,22.28,0,0,0,7.8-4.5l4.68,7.44a33,33,0,0,1-9.78,5.7,31,31,0,0,1-10.86,2,33.37,33.37,0,0,1-12.78-2.34,20.48,20.48,0,0,1-8.94-6.72,16.59,16.59,0,0,1-3.24-10.14,19.1,19.1,0,0,1,2.58-9.66,15.57,15.57,0,0,1,7.62-6.66,21.27,21.27,0,0,1-10.32-8.76,24.87,24.87,0,0,1-4.08-13.68,20.72,20.72,0,0,1,3.6-12.06,24,24,0,0,1,10-8.16,34.34,34.34,0,0,1,14.46-2.94A37.82,37.82,0,0,1,736.58,1134.5Z"/><path class="cls-2" d="M723.74,1033.34c0,11.13,17,32,26,32-9,0-26,21-26,32.1,0-11.13-17-32.06-26-32.06C706.75,1065.41,723.74,1044.47,723.74,1033.34Z"/><path class="cls-2" d="M400,348c0-34.71-53-99.92-81.13-99.88C347,248.08,400,182.71,400,148c0,34.71,53,100,81.13,100C453,248,400,313.29,400,348Z"/><path class="cls-2" d="M400,738c0-34.71-53-99.92-81.13-99.88C347,638.08,400,572.71,400,538c0,34.71,53,100,81.13,100C453,638,400,703.29,400,738Z"/><path class="cls-2" d="M400,1128c0-34.71-53-99.92-81.13-99.88C347,1028.08,400,962.71,400,928c0,34.71,53,100,81.13,100C453,1028,400,1093.29,400,1128Z"/></g></svg>