<svg xmlns="http://www.w3.org/2000/svg" viewBox="0 0 800 1218"><defs><style>.cls-1{fill:#f2f0eb;}.cls-2{fill:#f4622f;}</style></defs><title>3h</title><g id="Layer_2" data-name="Layer 2"><rect class="cls-1" width="800" height="1218"/></g><g id="Layer_1" data-name="Layer 1"><path class="cls-2" d="M98,165.37a11.37,11.37,0,0,0-21.66-4.82,11.37,11.37,0,0,0-21.66,4.82c0,8.83,21.66,41.69,21.66,41.69S98,177,98,165.37Z"/><rect class="cls-2" x="73" y="245" width="6" height="367"/><path class="cls-2" d="M727,606h-6V88.54A37.58,37.58,0,0,0,683.46,51H148V45H683.46A43.59,43.59,0,0,1,727,88.54Z"/><path class="cls-2" d="M63.48,111.41a37,37,0,0,1-12-8.76L57,95.81a42.14,42.14,0,0,0,10,7.5,25.28,25.28,0,0,0,11.64,2.46q8.52,0,14-4a12.93,12.93,0,0,0,5.52-11.16,14,14,0,0,0-2.58-8.4,16.81,16.81,0,0,0-6.72-5.52,20.17,20.17,0,0,0-8.58-1.92h-14V65.93H80.16q6.36,0,10.14-3.6a11.38,11.38,0,0,0,3.78-8.52,9.1,9.1,0,0,0-4.32-8.1A19.37,19.37,0,0,0,79,42.89a26,26,0,0,0-8.28,1.5,22.28,22.28,0,0,0-7.8,4.5L58.2,41.45A33,33,0,0,1,68,35.75a31,31,0,0,1,10.86-2,33.37,33.37,0,0,1,12.78,2.34,20.48,20.48,0,0,1,8.94,6.72A16.59,16.59,0,0,1,103.8,53a19.1,19.1,0,0,1-2.58,9.66,15.57,15.57,0,0,1-7.62,6.66,21.27,21.27,0,0,1,10.32,8.76A24.87,24.87,0,0,1,108,91.73a20.72,20.72,0,0,1-3.6,12.06,24,24,0,0,1-10,8.16,34.34,34.34,0,0,1-14.46,2.94A37.82,37.82,0,0,1,63.48,111.41Z"/><path class="cls-2" d="M702.08,1052.16a11.37,11.37,0,0,0,21.66,4.82,11.37,11.37,0,0,0,21.66-4.82c0-8.83-21.66-41.69-21.66-41.69S702.08,1040.57,702.08,1052.16Z"/><rect class="cls-2" x="720.98" y="606" width="6" height="367"/><path class="cls-2" d="M652,1173H116.52A43.59,43.59,0,0,1,73,1129.46V612h6v517.46A37.58,37.58,0,0,0,116.52,1167H652Z"/><path class="cls-2" d="M736.58,1106.12a37,37,0,0,1,12,8.76l-5.52,6.84a42.14,42.14,0,0,0-10-7.5,25.28,25.28,0,0,0-11.64-2.46q-8.52,0-14,4a12.93,12.93,0,0,0-5.52,11.16,14,14,0,0,0,2.58,8.4,16.81,16.81,0,0,0,6.72,5.52,20.17,20.17,0,0,0,8.58,1.92h14v8.88H719.9q-6.36,0-10.14,3.6a11.38,11.38,0,0,0-3.78,8.52,9.1,9.1,0,0,0,4.32,8.1,19.37,19.37,0,0,0,10.8,2.82,26,26,0,0,0,8.28-1.5,22.28,22.28,0,0,0,7.8-4.5l4.68,7.44a33,33,0,0,1-9.78,5.7,31,31,0,0,1-10.86,2,33.37,33.37,0,0,1-12.78-2.34,20.48,20.48,0,0,1-8.94-6.72,16.59,16.59,0,0,1-3.24-10.14,19.1,19.1,0,0,1,2.58-9.66,15.57,15.57,0,0,1,7.62-6.66,21.27,21.27,0,0,1-10.32-8.76,24.87,24.87,0,0,1-4.08-13.68,20.72,20.72,0,0,1,3.6-12.06,24,24,0,0,1,10-8.16,34.34,34.34,0,0,1,14.46-2.94A37.82,37.82,0,0,1,736.58,1106.12Z"/><path class="cls-2" d="M464.81,179.64A34,34,0,0,0,400,165.22a34,34,0,0,0-64.82,14.42c0,34.67,64.8,124.74,64.8,124.74S464.81,214.31,464.81,179.64Z"/><path class="cls-2" d="M464.81,563.64A34,34,0,0,0,400,549.22a34,34,0,0,0-64.82,14.42c0,34.67,64.8,124.74,64.8,124.74S464.81,598.31,464.81,563.64Z"/><path class="cls-2" d="M464.81,947.64A34,34,0,0,0,400,933.22a34,34,0,0,0-64.82,14.42c0,34.67,64.8,124.74,64.8,124.74S464.81,982.31,464.81,947.64Z"/></g></svg>