<svg xmlns="http://www.w3.org/2000/svg" viewBox="0 0 800 1218"><defs><style>.cls-1{fill:#f2f0eb;}.cls-2{fill:#3e95a3;}</style></defs><title>3s</title><g id="Layer_2" data-name="Layer 2"><rect class="cls-1" width="800" height="1218"/></g><g id="Layer_1" data-name="Layer 1"><polygon class="cls-2" points="96.75 178.07 76.07 184.66 55.39 178.07 76.07 154 96.75 178.07"/><circle class="cls-2" cx="64.52" cy="185.2" r="11.59"/><circle class="cls-2" cx="87.62" cy="185.2" r="11.59"/><path class="cls-2" d="M90.66,207H61.47a21.27,21.27,0,0,0,11.59-18.94V179h6v9.06A21.28,21.28,0,0,0,90.66,207Z"/><polygon class="cls-2" points="462.05 602.21 400 621.98 337.95 602.21 400 530 462.05 602.21"/><circle class="cls-2" cx="365.35" cy="623.59" r="34.76"/><circle class="cls-2" cx="434.65" cy="623.59" r="34.76"/><path class="cls-2" d="M443.79,689H356.21A63.84,63.84,0,0,0,391,632.17V605H409v27.17A63.84,63.84,0,0,0,443.79,689Z"/><polygon class="cls-2" points="462.05 215.21 400 234.98 337.95 215.21 400 143 462.05 215.21"/><circle class="cls-2" cx="365.35" cy="236.59" r="34.76"/><circle class="cls-2" cx="434.65" cy="236.59" r="34.76"/><path class="cls-2" d="M443.79,302H356.21A63.84,63.84,0,0,0,391,245.17V218H409v27.17A63.84,63.84,0,0,0,443.79,302Z"/><polygon class="cls-2" points="462.05 989.21 400 1008.98 337.95 989.21 400 917 462.05 989.21"/><circle class="cls-2" cx="365.35" cy="1010.59" r="34.76"/><circle class="cls-2" cx="434.65" cy="1010.59" r="34.76"/><path class="cls-2" d="M443.79,1076H356.21A63.84,63.84,0,0,0,391,1019.17V992H409v27.17A63.84,63.84,0,0,0,443.79,1076Z"/><polygon class="cls-2" points="705.08 1044.18 725.76 1037.59 746.45 1044.18 725.76 1068.25 705.08 1044.18"/><circle class="cls-2" cx="737.5" cy="1037.5" r="11.5"/><circle class="cls-2" cx="714.5" cy="1037.5" r="11.5"/><path class="cls-2" d="M711.45,1015h29.09A21.27,21.27,0,0,0,729,1033.91V1043h-6v-9.09A21.26,21.26,0,0,0,711.45,1015Z"/><path class="cls-2" d="M59.63,113.41a37,37,0,0,1-12-8.76l5.52-6.84a42.14,42.14,0,0,0,10,7.5,25.28,25.28,0,0,0,11.64,2.46q8.52,0,14-4a12.93,12.93,0,0,0,5.52-11.16,14,14,0,0,0-2.58-8.4A16.81,16.81,0,0,0,85,78.73a20.17,20.17,0,0,0-8.58-1.92h-14V67.93H76.31q6.36,0,10.14-3.6a11.38,11.38,0,0,0,3.78-8.52,9.1,9.1,0,0,0-4.32-8.1,19.37,19.37,0,0,0-10.8-2.82,26,26,0,0,0-8.28,1.5,22.28,22.28,0,0,0-7.8,4.5l-4.68-7.44a33,33,0,0,1,9.78-5.7,31,31,0,0,1,10.86-2,33.37,33.37,0,0,1,12.78,2.34,20.48,20.48,0,0,1,8.94,6.72A16.59,16.59,0,0,1,100,55a19.1,19.1,0,0,1-2.58,9.66,15.57,15.57,0,0,1-7.62,6.66,21.27,21.27,0,0,1,10.32,8.76,24.87,24.87,0,0,1,4.08,13.68,20.72,20.72,0,0,1-3.6,12.06,24,24,0,0,1-10,8.16,34.34,34.34,0,0,1-14.46,2.94A37.82,37.82,0,0,1,59.63,113.41Z"/><rect class="cls-2" x="74" y="248" width="6" height="363"/><path class="cls-2" d="M728,604h-6V90.54A37.58,37.58,0,0,0,684.46,53H152V47H684.46A43.59,43.59,0,0,1,728,90.54Z"/><path class="cls-2" d="M742.44,1102a37,37,0,0,1,12,8.76l-5.52,6.84a42.14,42.14,0,0,0-10-7.5,25.28,25.28,0,0,0-11.64-2.46q-8.52,0-14,4a12.93,12.93,0,0,0-5.52,11.16,14,14,0,0,0,2.58,8.4,16.81,16.81,0,0,0,6.72,5.52,20.17,20.17,0,0,0,8.58,1.92h14v8.88H725.76q-6.36,0-10.14,3.6a11.38,11.38,0,0,0-3.78,8.52,9.1,9.1,0,0,0,4.32,8.1,19.37,19.37,0,0,0,10.8,2.82,26,26,0,0,0,8.28-1.5,22.28,22.28,0,0,0,7.8-4.5l4.68,7.44a33,33,0,0,1-9.78,5.7,31,31,0,0,1-10.86,2,33.37,33.37,0,0,1-12.78-2.34,20.48,20.48,0,0,1-8.94-6.72,16.59,16.59,0,0,1-3.24-10.14,19.1,19.1,0,0,1,2.58-9.66,15.57,15.57,0,0,1,7.62-6.66,21.27,21.27,0,0,1-10.32-8.76,24.87,24.87,0,0,1-4.08-13.68,20.72,20.72,0,0,1,3.6-12.06,24,24,0,0,1,10-8.16,34.34,34.34,0,0,1,14.46-2.94A37.82,37.82,0,0,1,742.44,1102Z"/><rect class="cls-2" x="722" y="604" width="6" height="363"/><path class="cls-2" d="M650,1168H117.54A43.59,43.59,0,0,1,74,1124.46V611h6v513.46A37.58,37.58,0,0,0,117.54,1162H650Z"/></g></svg>