<svg xmlns="http://www.w3.org/2000/svg" viewBox="0 0 800 1267"><defs><style>.cls-1{fill:#f2f0eb;}.cls-2{fill:#3e95a3;}</style></defs><title>4c</title><g id="Layer_2" data-name="Layer 2"><rect class="cls-1" width="800" height="1267"/></g><g id="Layer_1" data-name="Layer 1"><path class="cls-2" d="M87.31,126.81h-37v-7.32L74.59,63.21H85.15l-23.4,54.48H87.31v-26h9.84v26h9.72v9.12H97.15v15H87.31Z"/><rect class="cls-2" x="73" y="274" width="6" height="363"/><path class="cls-2" d="M727,630h-6V116.54A37.58,37.58,0,0,0,683.46,79H151V73H683.46A43.59,43.59,0,0,1,727,116.54Z"/><circle class="cls-2" cx="75.07" cy="195.42" r="13.42"/><circle class="cls-2" cx="63.52" cy="213.2" r="11.59"/><circle class="cls-2" cx="86.62" cy="213.2" r="11.59"/><path class="cls-2" d="M89.66,235H60.47a21.29,21.29,0,0,0,11.59-18.94V207h6v9.06A21.28,21.28,0,0,0,89.66,235Z"/><path class="cls-2" d="M712.76,1140.6h37v7.32l-24.24,56.28H714.92l23.4-54.48H712.76v26h-9.84v-26H693.2v-9.12h9.72v-15h9.84Z"/><rect class="cls-2" x="721" y="630" width="6" height="363"/><path class="cls-2" d="M649,1194H116.54A43.59,43.59,0,0,1,73,1150.46V637h6v513.46A37.58,37.58,0,0,0,116.54,1188H649Z"/><circle class="cls-2" cx="724.5" cy="1071.5" r="13.5"/><circle class="cls-2" cx="736.5" cy="1054.5" r="11.5"/><circle class="cls-2" cx="713.5" cy="1054.5" r="11.5"/><path class="cls-2" d="M710.45,1032h29.1A21.26,21.26,0,0,0,728,1050.91V1060h-6v-9.09A21.26,21.26,0,0,0,710.45,1032Z"/><circle class="cls-2" cx="239.5" cy="209.54" r="40.46"/><circle class="cls-2" cx="203.53" cy="263.49" r="34.47"/><circle class="cls-2" cx="272.47" cy="263.49" r="34.47"/><path class="cls-2" d="M281.59,327.92H194.41A63.7,63.7,0,0,0,229,271.25V244h18v27.25a63.7,63.7,0,0,0,34.6,56.67Z"/><circle class="cls-2" cx="563.5" cy="209.54" r="40.46"/><circle class="cls-2" cx="527.53" cy="263.49" r="34.47"/><circle class="cls-2" cx="596.47" cy="263.49" r="34.47"/><path class="cls-2" d="M605.59,327.92H518.41A63.7,63.7,0,0,0,553,271.25V244h18v27.25a63.7,63.7,0,0,0,34.6,56.67Z"/><circle class="cls-2" cx="239.5" cy="982.54" r="40.46"/><circle class="cls-2" cx="203.53" cy="1036.49" r="34.47"/><circle class="cls-2" cx="272.47" cy="1036.49" r="34.47"/><path class="cls-2" d="M281.59,1100.92H194.41a63.7,63.7,0,0,0,34.6-56.67V1017h18v27.25a63.7,63.7,0,0,0,34.6,56.67Z"/><circle class="cls-2" cx="563.5" cy="982.54" r="40.46"/><circle class="cls-2" cx="527.53" cy="1036.49" r="34.47"/><circle class="cls-2" cx="596.47" cy="1036.49" r="34.47"/><path class="cls-2" d="M605.59,1100.92H518.41a63.7,63.7,0,0,0,34.6-56.67V1017h18v27.25a63.7,63.7,0,0,0,34.6,56.67Z"/></g></svg>