<svg xmlns="http://www.w3.org/2000/svg" viewBox="0 0 800 1274"><defs><style>.cls-1{fill:#f2f0eb;}.cls-2{fill:#d8491d;}</style></defs><title>4d</title><g id="Layer_2" data-name="Layer 2"><rect class="cls-1" width="800" height="1274"/></g><g id="Layer_1" data-name="Layer 1"><rect class="cls-2" x="73" y="273" width="6" height="367"/><path class="cls-2" d="M727,634h-6V116.54A37.58,37.58,0,0,0,683.46,79H148V73H683.46A43.59,43.59,0,0,1,727,116.54Z"/><path class="cls-2" d="M87.36,126.81h-37v-7.32L74.64,63.21H85.2L61.8,117.69H87.36v-26H97.2v26h9.72v9.12H97.2v15H87.36Z"/><path class="cls-2" d="M76.5,240.57c0-11.14-17-32-26-32,9,0,26-21,26-32.11,0,11.14,17,32.07,26,32.07C93.49,208.5,76.5,229.43,76.5,240.57Z"/><rect class="cls-2" x="721" y="634" width="6" height="367"/><path class="cls-2" d="M652,1201H116.54A43.59,43.59,0,0,1,73,1157.46V640h6v517.46A37.58,37.58,0,0,0,116.54,1195H652Z"/><path class="cls-2" d="M712.82,1147.1h37v7.32l-24.24,56.28H715l23.4-54.48H712.82v26H703v-26h-9.72v-9.12H703v-15h9.84Z"/><path class="cls-2" d="M723.74,1033.34c0,11.13,17,32,26,32-9,0-26,21-26,32.1,0-11.13-17-32.06-26-32.06C706.75,1065.41,723.74,1044.47,723.74,1033.34Z"/><path class="cls-2" d="M238,348c0-34.71-53-99.92-81.13-99.88C185,248.08,238,182.71,238,148c0,34.71,53,100,81.13,100C291,248,238,313.29,238,348Z"/><path class="cls-2" d="M562,348c0-34.71-53-99.92-81.13-99.88C509,248.08,562,182.71,562,148c0,34.71,53,100,81.13,100C615,248,562,313.29,562,348Z"/><path class="cls-2" d="M238,1128c0-34.71-53-99.92-81.13-99.88C185,1028.08,238,962.71,238,928c0,34.71,53,100,81.13,100C291,1028,238,1093.29,238,1128Z"/><path class="cls-2" d="M562,1128c0-34.71-53-99.92-81.13-99.88C509,1028.08,562,962.71,562,928c0,34.71,53,100,81.13,100C615,1028,562,1093.29,562,1128Z"/></g></svg>