<svg xmlns="http://www.w3.org/2000/svg" viewBox="0 0 800 1218"><defs><style>.cls-1{fill:#f2f0eb;}.cls-2{fill:#3e95a3;}</style></defs><title>4s</title><g id="Layer_2" data-name="Layer 2"><rect class="cls-1" width="800" height="1218"/></g><g id="Layer_1" data-name="Layer 1"><polygon class="cls-2" points="95.75 178.07 75.07 184.66 54.39 178.07 75.07 154 95.75 178.07"/><circle class="cls-2" cx="63.52" cy="185.2" r="11.59"/><circle class="cls-2" cx="86.62" cy="185.2" r="11.59"/><path class="cls-2" d="M89.66,207H60.47a21.27,21.27,0,0,0,11.59-18.94V179h6v9.06A21.28,21.28,0,0,0,89.66,207Z"/><polygon class="cls-2" points="300.05 215.21 238 234.98 175.95 215.21 238 143 300.05 215.21"/><circle class="cls-2" cx="203.35" cy="236.59" r="34.76"/><circle class="cls-2" cx="272.65" cy="236.59" r="34.76"/><path class="cls-2" d="M281.79,302H194.21A63.84,63.84,0,0,0,229,245.17V218H247v27.17A63.84,63.84,0,0,0,281.79,302Z"/><polygon class="cls-2" points="624.04 215.21 562 234.98 499.95 215.21 562 143 624.04 215.21"/><circle class="cls-2" cx="527.35" cy="236.59" r="34.76"/><circle class="cls-2" cx="596.65" cy="236.59" r="34.76"/><path class="cls-2" d="M605.79,302H518.21A63.84,63.84,0,0,0,553,245.17V218H571v27.17A63.84,63.84,0,0,0,605.79,302Z"/><polygon class="cls-2" points="300.05 989.21 238 1008.98 175.95 989.21 238 917 300.05 989.21"/><circle class="cls-2" cx="203.35" cy="1010.59" r="34.76"/><circle class="cls-2" cx="272.65" cy="1010.59" r="34.76"/><path class="cls-2" d="M281.79,1076H194.21A63.84,63.84,0,0,0,229,1019.17V992H247v27.17A63.84,63.84,0,0,0,281.79,1076Z"/><polygon class="cls-2" points="624.04 989.21 562 1008.98 499.95 989.21 562 917 624.04 989.21"/><circle class="cls-2" cx="527.35" cy="1010.59" r="34.76"/><circle class="cls-2" cx="596.65" cy="1010.59" r="34.76"/><path class="cls-2" d="M605.79,1076H518.21A63.84,63.84,0,0,0,553,1019.17V992H571v27.17A63.84,63.84,0,0,0,605.79,1076Z"/><polygon class="cls-2" points="704.08 1044.18 724.76 1037.59 745.45 1044.18 724.76 1068.25 704.08 1044.18"/><circle class="cls-2" cx="736.5" cy="1037.5" r="11.5"/><circle class="cls-2" cx="713.5" cy="1037.5" r="11.5"/><path class="cls-2" d="M710.45,1015h29.09A21.27,21.27,0,0,0,728,1033.91V1043h-6v-9.09A21.26,21.26,0,0,0,710.45,1015Z"/><path class="cls-2" d="M84.79,100.81h-37V93.49L72.07,37.21H82.63L59.23,91.69H84.79v-26h9.84v26h9.72v9.12H94.63v15H84.79Z"/><rect class="cls-2" x="73" y="248" width="6" height="363"/><path class="cls-2" d="M727,604h-6V90.54A37.58,37.58,0,0,0,683.46,53H151V47H683.46A43.59,43.59,0,0,1,727,90.54Z"/><path class="cls-2" d="M715.28,1114.6h37v7.32L728,1178.2H717.44l23.4-54.48H715.28v26h-9.84v-26h-9.72v-9.12h9.72v-15h9.84Z"/><rect class="cls-2" x="721" y="604" width="6" height="363"/><path class="cls-2" d="M649,1168H116.54A43.59,43.59,0,0,1,73,1124.46V611h6v513.46A37.58,37.58,0,0,0,116.54,1162H649Z"/></g></svg>