<svg xmlns="http://www.w3.org/2000/svg" viewBox="0 0 800 1274"><defs><style>.cls-1{fill:#f2f0eb;}.cls-2{fill:#3e95a3;}</style></defs><title>4s</title><g id="Layer_2" data-name="Layer 2"><rect class="cls-1" width="800" height="1274"/></g><g id="Layer_1" data-name="Layer 1"><polygon class="cls-2" points="95.75 204.07 75.07 210.66 54.39 204.07 75.07 180 95.75 204.07"/><circle class="cls-2" cx="63.52" cy="211.2" r="11.59"/><circle class="cls-2" cx="86.62" cy="211.2" r="11.59"/><path class="cls-2" d="M89.66,233H60.47a21.27,21.27,0,0,0,11.59-18.94V205h6v9.06A21.28,21.28,0,0,0,89.66,233Z"/><polygon class="cls-2" points="300.05 241.21 238 260.98 175.95 241.21 238 169 300.05 241.21"/><circle class="cls-2" cx="203.35" cy="262.59" r="34.76"/><circle class="cls-2" cx="272.65" cy="262.59" r="34.76"/><path class="cls-2" d="M281.79,328H194.21A63.84,63.84,0,0,0,229,271.17V244H247v27.17A63.84,63.84,0,0,0,281.79,328Z"/><polygon class="cls-2" points="624.04 241.21 562 260.98 499.95 241.21 562 169 624.04 241.21"/><circle class="cls-2" cx="527.35" cy="262.59" r="34.76"/><circle class="cls-2" cx="596.65" cy="262.59" r="34.76"/><path class="cls-2" d="M605.79,328H518.21A63.84,63.84,0,0,0,553,271.17V244H571v27.17A63.84,63.84,0,0,0,605.79,328Z"/><polygon class="cls-2" points="300.05 1022.21 238 1041.98 175.95 1022.21 238 950 300.05 1022.21"/><circle class="cls-2" cx="203.35" cy="1043.59" r="34.76"/><circle class="cls-2" cx="272.65" cy="1043.59" r="34.76"/><path class="cls-2" d="M281.79,1109H194.21A63.84,63.84,0,0,0,229,1052.17V1025H247v27.17A63.84,63.84,0,0,0,281.79,1109Z"/><polygon class="cls-2" points="624.04 1022.21 562 1041.98 499.95 1022.21 562 950 624.04 1022.21"/><circle class="cls-2" cx="527.35" cy="1043.59" r="34.76"/><circle class="cls-2" cx="596.65" cy="1043.59" r="34.76"/><path class="cls-2" d="M605.79,1109H518.21A63.84,63.84,0,0,0,553,1052.17V1025H571v27.17A63.84,63.84,0,0,0,605.79,1109Z"/><polygon class="cls-2" points="704.08 1077.18 724.76 1070.59 745.45 1077.18 724.76 1101.25 704.08 1077.18"/><circle class="cls-2" cx="736.5" cy="1070.5" r="11.5"/><circle class="cls-2" cx="713.5" cy="1070.5" r="11.5"/><path class="cls-2" d="M710.45,1048h29.09A21.27,21.27,0,0,0,728,1066.91V1076h-6v-9.09A21.26,21.26,0,0,0,710.45,1048Z"/><path class="cls-2" d="M84.79,126.81h-37v-7.32L72.07,63.21H82.63l-23.4,54.48H84.79v-26h9.84v26h9.72v9.12H94.63v15H84.79Z"/><rect class="cls-2" x="73" y="274" width="6" height="367"/><path class="cls-2" d="M727,634h-6V116.54A37.58,37.58,0,0,0,683.46,79H151V73H683.46A43.59,43.59,0,0,1,727,116.54Z"/><path class="cls-2" d="M715.28,1147.6h37v7.32L728,1211.2H717.44l23.4-54.48H715.28v26h-9.84v-26h-9.72v-9.12h9.72v-15h9.84Z"/><rect class="cls-2" x="721" y="634" width="6" height="366"/><path class="cls-2" d="M649,1201H116.54A43.59,43.59,0,0,1,73,1157.46V641h6v516.46A37.58,37.58,0,0,0,116.54,1195H649Z"/></g></svg>