<svg xmlns="http://www.w3.org/2000/svg" viewBox="0 0 800 1218"><defs><style>.cls-1{fill:#f2f0eb;}.cls-2{fill:#3e95a3;}</style></defs><title>5c</title><g id="Layer_2" data-name="Layer 2"><rect class="cls-1" width="800" height="1218"/></g><g id="Layer_1" data-name="Layer 1"><path class="cls-2" d="M62.11,113.53q-6.48-2.64-9.6-6.48l4.56-7a30.93,30.93,0,0,0,8.64,5.4,27.22,27.22,0,0,0,9.72,1.56q8.52,0,13.68-5.16T94.27,88q0-8.16-5.4-12.06T72.07,72q-12,0-16.8,2.76v-36l41.64-.24v9.24l-31.8-.12V63.13a33.3,33.3,0,0,1,6.12-.48h4.2a33.4,33.4,0,0,1,15.12,3.24,23.71,23.71,0,0,1,10,9.18,26.32,26.32,0,0,1,3.54,13.74,27,27,0,0,1-3.66,13.92,26.72,26.72,0,0,1-10,9.84,27.68,27.68,0,0,1-14,3.6A37.84,37.84,0,0,1,62.11,113.53Z"/><rect class="cls-2" x="73" y="248" width="6" height="363"/><path class="cls-2" d="M727,604h-6V90.54A37.58,37.58,0,0,0,683.46,53H151V47H683.46A43.59,43.59,0,0,1,727,90.54Z"/><circle class="cls-2" cx="75.07" cy="169.42" r="13.42"/><circle class="cls-2" cx="63.52" cy="187.2" r="11.59"/><circle class="cls-2" cx="86.62" cy="187.2" r="11.59"/><path class="cls-2" d="M89.66,209H60.47a21.29,21.29,0,0,0,11.59-18.94V181h6v9.06A21.28,21.28,0,0,0,89.66,209Z"/><path class="cls-2" d="M738,1101.88q6.48,2.64,9.6,6.48l-4.56,7a30.93,30.93,0,0,0-8.64-5.4,27.22,27.22,0,0,0-9.72-1.56q-8.52,0-13.68,5.16t-5.16,13.92q0,8.16,5.4,12.06t16.8,3.9q12,0,16.8-2.76v36l-41.64.24v-9.24l31.8.12v-15.48a33.3,33.3,0,0,1-6.12.48h-4.2a33.4,33.4,0,0,1-15.12-3.24,23.71,23.71,0,0,1-10-9.18A26.32,26.32,0,0,1,696,1126.6a27,27,0,0,1,3.66-13.92,26.72,26.72,0,0,1,10-9.84,27.68,27.68,0,0,1,14-3.6A37.84,37.84,0,0,1,738,1101.88Z"/><rect class="cls-2" x="721" y="604" width="6" height="363"/><path class="cls-2" d="M649,1168H116.54A43.59,43.59,0,0,1,73,1124.46V611h6v513.46A37.58,37.58,0,0,0,116.54,1162H649Z"/><circle class="cls-2" cx="724.5" cy="1045.5" r="13.5"/><circle class="cls-2" cx="736.5" cy="1028.5" r="11.5"/><circle class="cls-2" cx="713.5" cy="1028.5" r="11.5"/><path class="cls-2" d="M710.45,1006h29.1A21.26,21.26,0,0,0,728,1024.91V1034h-6v-9.09A21.26,21.26,0,0,0,710.45,1006Z"/><circle class="cls-2" cx="239.5" cy="183.54" r="40.46"/><circle class="cls-2" cx="203.53" cy="237.49" r="34.47"/><circle class="cls-2" cx="272.47" cy="237.49" r="34.47"/><path class="cls-2" d="M281.59,301.92H194.41A63.7,63.7,0,0,0,229,245.25V218h18v27.25a63.7,63.7,0,0,0,34.6,56.67Z"/><circle class="cls-2" cx="563.5" cy="183.54" r="40.46"/><circle class="cls-2" cx="527.53" cy="237.49" r="34.47"/><circle class="cls-2" cx="596.47" cy="237.49" r="34.47"/><path class="cls-2" d="M605.59,301.92H518.41A63.7,63.7,0,0,0,553,245.25V218h18v27.25a63.7,63.7,0,0,0,34.6,56.67Z"/><circle class="cls-2" cx="401.5" cy="570.04" r="40.46"/><circle class="cls-2" cx="365.53" cy="623.99" r="34.47"/><circle class="cls-2" cx="434.47" cy="623.99" r="34.47"/><path class="cls-2" d="M443.59,688.42H356.41A63.7,63.7,0,0,0,391,631.75V604.5h18v27.25a63.7,63.7,0,0,0,34.6,56.67Z"/><circle class="cls-2" cx="239.5" cy="956.54" r="40.46"/><circle class="cls-2" cx="203.53" cy="1010.49" r="34.47"/><circle class="cls-2" cx="272.47" cy="1010.49" r="34.47"/><path class="cls-2" d="M281.59,1074.92H194.41a63.7,63.7,0,0,0,34.6-56.67V991h18v27.25a63.7,63.7,0,0,0,34.6,56.67Z"/><circle class="cls-2" cx="563.5" cy="956.54" r="40.46"/><circle class="cls-2" cx="527.53" cy="1010.49" r="34.47"/><circle class="cls-2" cx="596.47" cy="1010.49" r="34.47"/><path class="cls-2" d="M605.59,1074.92H518.41a63.7,63.7,0,0,0,34.6-56.67V991h18v27.25a63.7,63.7,0,0,0,34.6,56.67Z"/></g></svg>