<svg xmlns="http://www.w3.org/2000/svg" viewBox="0 0 800 1274"><defs><style>.cls-1{fill:#f2f0eb;}.cls-2{fill:#d8491d;}</style></defs><title>5d</title><g id="Layer_2" data-name="Layer 2"><rect class="cls-1" width="800" height="1274"/></g><g id="Layer_1" data-name="Layer 1"><rect class="cls-2" x="73" y="273" width="6" height="367"/><path class="cls-2" d="M727,634h-6V116.54A37.58,37.58,0,0,0,683.46,79H148V73H683.46A43.59,43.59,0,0,1,727,116.54Z"/><path class="cls-2" d="M63.54,139.53q-6.48-2.64-9.6-6.48l4.56-7a30.93,30.93,0,0,0,8.64,5.4,27.22,27.22,0,0,0,9.72,1.56q8.52,0,13.68-5.16T95.7,114q0-8.16-5.4-12.06T73.5,98q-12,0-16.8,2.76v-36l41.64-.24v9.24l-31.8-.12V89.13a33.3,33.3,0,0,1,6.12-.48h4.2A33.4,33.4,0,0,1,92,91.89a23.71,23.71,0,0,1,10,9.18,26.32,26.32,0,0,1,3.54,13.74,27,27,0,0,1-3.66,13.92,26.72,26.72,0,0,1-10,9.84,27.68,27.68,0,0,1-14,3.6A37.84,37.84,0,0,1,63.54,139.53Z"/><path class="cls-2" d="M76.5,240.57c0-11.13-17-32-26-32,9,0,26-21,26-32.1,0,11.13,17,32.06,26,32.06C93.48,208.5,76.5,229.44,76.5,240.57Z"/><rect class="cls-2" x="721" y="634" width="6" height="367"/><path class="cls-2" d="M652,1201H116.54A43.59,43.59,0,0,1,73,1157.46V640h6v517.46A37.58,37.58,0,0,0,116.54,1195H652Z"/><path class="cls-2" d="M736.7,1134.38q6.48,2.64,9.6,6.48l-4.56,7a30.93,30.93,0,0,0-8.64-5.4,27.22,27.22,0,0,0-9.72-1.56q-8.52,0-13.68,5.16t-5.16,13.92q0,8.16,5.4,12.06t16.8,3.9q12,0,16.8-2.76v36l-41.64.24v-9.24l31.8.12v-15.48a33.3,33.3,0,0,1-6.12.48h-4.2a33.4,33.4,0,0,1-15.12-3.24,23.71,23.71,0,0,1-10-9.18,26.32,26.32,0,0,1-3.54-13.74,27,27,0,0,1,3.66-13.92,26.72,26.72,0,0,1,10-9.84,27.68,27.68,0,0,1,14-3.6A37.84,37.84,0,0,1,736.7,1134.38Z"/><path class="cls-2" d="M723.74,1033.34c0,11.13,17,32,26,32-9,0-26,21-26,32.1,0-11.13-17-32.06-26-32.06C706.75,1065.41,723.74,1044.47,723.74,1033.34Z"/><path class="cls-2" d="M238,348c0-34.71-53-99.92-81.13-99.88C185,248.08,238,182.71,238,148c0,34.71,53,100,81.13,100C291,248,238,313.29,238,348Z"/><path class="cls-2" d="M400,738c0-34.71-53-99.92-81.13-99.88C347,638.08,400,572.71,400,538c0,34.71,53,100,81.13,100C453,638,400,703.29,400,738Z"/><path class="cls-2" d="M562,348c0-34.71-53-99.92-81.13-99.88C509,248.08,562,182.71,562,148c0,34.71,53,100,81.13,100C615,248,562,313.29,562,348Z"/><path class="cls-2" d="M238,1128c0-34.71-53-99.92-81.13-99.88C185,1028.08,238,962.71,238,928c0,34.71,53,100,81.13,100C291,1028,238,1093.29,238,1128Z"/><path class="cls-2" d="M562,1128c0-34.71-53-99.92-81.13-99.88C509,1028.08,562,962.71,562,928c0,34.71,53,100,81.13,100C615,1028,562,1093.29,562,1128Z"/></g></svg>