<svg xmlns="http://www.w3.org/2000/svg" viewBox="0 0 800 1274"><defs><style>.cls-1{fill:#f2f0eb;}.cls-2{fill:#d8491d;}</style></defs><title>5h</title><g id="Layer_2" data-name="Layer 2"><rect class="cls-1" width="800" height="1274"/></g><g id="Layer_1" data-name="Layer 1"><path class="cls-2" d="M98,193.37a11.37,11.37,0,0,0-21.66-4.82,11.37,11.37,0,0,0-21.66,4.82c0,8.83,21.66,41.69,21.66,41.69S98,205,98,193.37Z"/><rect class="cls-2" x="73" y="273" width="6" height="367"/><path class="cls-2" d="M727,634h-6V116.54A37.58,37.58,0,0,0,683.46,79H148V73H683.46A43.59,43.59,0,0,1,727,116.54Z"/><path class="cls-2" d="M63.36,139.53q-6.48-2.64-9.6-6.48l4.56-7a30.93,30.93,0,0,0,8.64,5.4,27.22,27.22,0,0,0,9.72,1.56q8.52,0,13.68-5.16T95.52,114q0-8.16-5.4-12.06T73.32,98q-12,0-16.8,2.76v-36l41.64-.24v9.24l-31.8-.12V89.13a33.3,33.3,0,0,1,6.12-.48h4.2A33.4,33.4,0,0,1,91.8,91.89a23.71,23.71,0,0,1,10,9.18,26.32,26.32,0,0,1,3.54,13.74,27,27,0,0,1-3.66,13.92,26.72,26.72,0,0,1-10,9.84,27.68,27.68,0,0,1-14,3.6A37.84,37.84,0,0,1,63.36,139.53Z"/><path class="cls-2" d="M702.08,1080.16a11.37,11.37,0,0,0,21.66,4.82,11.37,11.37,0,0,0,21.66-4.82c0-8.83-21.66-41.69-21.66-41.69S702.08,1068.57,702.08,1080.16Z"/><rect class="cls-2" x="720.98" y="634" width="6" height="367"/><path class="cls-2" d="M652,1201H116.52A43.59,43.59,0,0,1,73,1157.46V640h6v517.46A37.58,37.58,0,0,0,116.52,1195H652Z"/><path class="cls-2" d="M736.7,1134q6.48,2.64,9.6,6.48l-4.56,7a30.93,30.93,0,0,0-8.64-5.4,27.22,27.22,0,0,0-9.72-1.56q-8.52,0-13.68,5.16t-5.16,13.92q0,8.16,5.4,12.06t16.8,3.9q12,0,16.8-2.76v36l-41.64.24v-9.24l31.8.12V1184.4a33.3,33.3,0,0,1-6.12.48h-4.2a33.4,33.4,0,0,1-15.12-3.24,23.71,23.71,0,0,1-10-9.18,26.32,26.32,0,0,1-3.54-13.74,27,27,0,0,1,3.66-13.92,26.72,26.72,0,0,1,10-9.84,27.68,27.68,0,0,1,14-3.6A37.84,37.84,0,0,1,736.7,1134Z"/><path class="cls-2" d="M302.81,207.64A34,34,0,0,0,238,193.22a34,34,0,0,0-64.82,14.42c0,34.67,64.8,124.74,64.8,124.74S302.81,242.31,302.81,207.64Z"/><path class="cls-2" d="M464.8,591.64A34,34,0,0,0,400,577.22a34,34,0,0,0-64.81,14.42c0,34.67,64.8,124.74,64.8,124.74S464.8,626.31,464.8,591.64Z"/><path class="cls-2" d="M626.81,207.64A34,34,0,0,0,562,193.22a34,34,0,0,0-64.82,14.42c0,34.67,64.8,124.74,64.8,124.74S626.81,242.31,626.81,207.64Z"/><path class="cls-2" d="M302.81,975.64A34,34,0,0,0,238,961.22a34,34,0,0,0-64.82,14.42c0,34.67,64.8,124.74,64.8,124.74S302.81,1010.31,302.81,975.64Z"/><path class="cls-2" d="M626.81,975.64A34,34,0,0,0,562,961.22a34,34,0,0,0-64.82,14.42c0,34.67,64.8,124.74,64.8,124.74S626.81,1010.31,626.81,975.64Z"/></g></svg>