<svg xmlns="http://www.w3.org/2000/svg" viewBox="0 0 800 1218"><defs><style>.cls-1{fill:#f2f0eb;}.cls-2{fill:#3e95a3;}</style></defs><title>5s</title><g id="Layer_2" data-name="Layer 2"><rect class="cls-1" width="800" height="1218"/></g><g id="Layer_1" data-name="Layer 1"><polygon class="cls-2" points="96.75 178.07 76.07 184.66 55.39 178.07 76.07 154 96.75 178.07"/><circle class="cls-2" cx="64.52" cy="185.2" r="11.59"/><circle class="cls-2" cx="87.62" cy="185.2" r="11.59"/><path class="cls-2" d="M90.66,207H61.47a21.27,21.27,0,0,0,11.59-18.94V179h6v9.06A21.28,21.28,0,0,0,90.66,207Z"/><polygon class="cls-2" points="301.05 215.21 239 234.98 176.95 215.21 239 143 301.05 215.21"/><circle class="cls-2" cx="204.35" cy="236.59" r="34.76"/><circle class="cls-2" cx="273.65" cy="236.59" r="34.76"/><path class="cls-2" d="M282.79,302H195.21A63.84,63.84,0,0,0,230,245.17V218H248v27.17A63.84,63.84,0,0,0,282.79,302Z"/><polygon class="cls-2" points="625.04 215.21 563 234.98 500.95 215.21 563 143 625.04 215.21"/><circle class="cls-2" cx="528.35" cy="236.59" r="34.76"/><circle class="cls-2" cx="597.65" cy="236.59" r="34.76"/><path class="cls-2" d="M606.79,302H519.21A63.84,63.84,0,0,0,554,245.17V218H572v27.17A63.84,63.84,0,0,0,606.79,302Z"/><polygon class="cls-2" points="462.05 601.71 400 621.48 337.95 601.71 400 529.5 462.05 601.71"/><circle class="cls-2" cx="365.35" cy="623.09" r="34.76"/><circle class="cls-2" cx="434.65" cy="623.09" r="34.76"/><path class="cls-2" d="M443.79,688.5H356.21A63.84,63.84,0,0,0,391,631.67V604.5H409v27.17a63.84,63.84,0,0,0,34.76,56.83Z"/><polygon class="cls-2" points="301.05 989.21 239 1008.98 176.95 989.21 239 917 301.05 989.21"/><circle class="cls-2" cx="204.35" cy="1010.59" r="34.76"/><circle class="cls-2" cx="273.65" cy="1010.59" r="34.76"/><path class="cls-2" d="M282.79,1076H195.21A63.84,63.84,0,0,0,230,1019.17V992H248v27.17A63.84,63.84,0,0,0,282.79,1076Z"/><polygon class="cls-2" points="625.04 989.21 563 1008.98 500.95 989.21 563 917 625.04 989.21"/><circle class="cls-2" cx="528.35" cy="1010.59" r="34.76"/><circle class="cls-2" cx="597.65" cy="1010.59" r="34.76"/><path class="cls-2" d="M606.79,1076H519.21A63.84,63.84,0,0,0,554,1019.17V992H572v27.17A63.84,63.84,0,0,0,606.79,1076Z"/><polygon class="cls-2" points="705.08 1044.18 725.76 1037.59 746.45 1044.18 725.76 1068.25 705.08 1044.18"/><circle class="cls-2" cx="737.5" cy="1037.5" r="11.5"/><circle class="cls-2" cx="714.5" cy="1037.5" r="11.5"/><path class="cls-2" d="M711.45,1015h29.09A21.27,21.27,0,0,0,729,1033.91V1043h-6v-9.09A21.26,21.26,0,0,0,711.45,1015Z"/><path class="cls-2" d="M60.59,113.53q-6.48-2.64-9.6-6.48l4.56-7a30.93,30.93,0,0,0,8.64,5.4,27.22,27.22,0,0,0,9.72,1.56q8.52,0,13.68-5.16T92.75,88q0-8.16-5.4-12.06T70.55,72q-12,0-16.8,2.76v-36l41.64-.24v9.24l-31.8-.12V63.13a33.3,33.3,0,0,1,6.12-.48h4.2A33.4,33.4,0,0,1,89,65.89a23.71,23.71,0,0,1,10,9.18,26.32,26.32,0,0,1,3.54,13.74,27,27,0,0,1-3.66,13.92,26.72,26.72,0,0,1-10,9.84,27.68,27.68,0,0,1-14,3.6A37.84,37.84,0,0,1,60.59,113.53Z"/><rect class="cls-2" x="74" y="248" width="6" height="363"/><path class="cls-2" d="M728,604h-6V90.54A37.58,37.58,0,0,0,684.46,53H152V47H684.46A43.59,43.59,0,0,1,728,90.54Z"/><path class="cls-2" d="M741.48,1101.88q6.48,2.64,9.6,6.48l-4.56,7a30.93,30.93,0,0,0-8.64-5.4,27.22,27.22,0,0,0-9.72-1.56q-8.52,0-13.68,5.16t-5.16,13.92q0,8.16,5.4,12.06t16.8,3.9q12,0,16.8-2.76v36l-41.64.24v-9.24l31.8.12v-15.48a33.3,33.3,0,0,1-6.12.48h-4.2a33.4,33.4,0,0,1-15.12-3.24,23.71,23.71,0,0,1-10-9.18,26.32,26.32,0,0,1-3.54-13.74,27,27,0,0,1,3.66-13.92,26.72,26.72,0,0,1,10-9.84,27.68,27.68,0,0,1,14-3.6A37.84,37.84,0,0,1,741.48,1101.88Z"/><rect class="cls-2" x="722" y="604" width="6" height="363"/><path class="cls-2" d="M650,1168H117.54A43.59,43.59,0,0,1,74,1124.46V611h6v513.46A37.58,37.58,0,0,0,117.54,1162H650Z"/></g></svg>