<svg xmlns="http://www.w3.org/2000/svg" viewBox="0 0 800 1218"><defs><style>.cls-1{fill:#f2f0eb;}.cls-2{fill:#3e95a3;}</style></defs><title>6c</title><g id="Layer_2" data-name="Layer 2"><rect class="cls-1" width="800" height="1218"/></g><g id="Layer_1" data-name="Layer 1"><path class="cls-2" d="M64.75,113.41a28.27,28.27,0,0,1-10.44-11.7,38.54,38.54,0,0,1-3.72-17.34,44.5,44.5,0,0,1,5.58-22,49,49,0,0,1,16-17,43.32,43.32,0,0,1,13-6,48.08,48.08,0,0,1,14.34-1.68v8.88A37.23,37.23,0,0,0,88,48a41.26,41.26,0,0,0-11,4.86,36.49,36.49,0,0,0-9.54,9.06,35,35,0,0,0-5.82,11.82,21.2,21.2,0,0,1,8.22-8,21.59,21.59,0,0,1,10.86-3.24,27.16,27.16,0,0,1,13.92,3.78,28.19,28.19,0,0,1,10.26,10.2,26.63,26.63,0,0,1,3.78,13.74,26.22,26.22,0,0,1-3.84,13.8,27.74,27.74,0,0,1-10.38,10,30.06,30.06,0,0,1-29.7-.54ZM89.59,106a19.14,19.14,0,0,0,6.72-6.78,18,18,0,0,0,0-18.36,19.14,19.14,0,0,0-6.72-6.78,17.2,17.2,0,0,0-9-2.52,18.48,18.48,0,0,0-9.48,2.52,18.84,18.84,0,0,0-6.84,6.78,18.16,18.16,0,0,0-2.52,9.42,17.2,17.2,0,0,0,2.52,9A19,19,0,0,0,71.11,106a18,18,0,0,0,9.24,2.52A17.62,17.62,0,0,0,89.59,106Z"/><rect class="cls-2" x="73" y="248" width="6" height="363"/><path class="cls-2" d="M727,604h-6V90.54A37.58,37.58,0,0,0,683.46,53H151V47H683.46A43.59,43.59,0,0,1,727,90.54Z"/><circle class="cls-2" cx="75.07" cy="169.42" r="13.42"/><circle class="cls-2" cx="63.52" cy="187.2" r="11.59"/><circle class="cls-2" cx="86.62" cy="187.2" r="11.59"/><path class="cls-2" d="M89.66,209H60.47a21.29,21.29,0,0,0,11.59-18.94V181h6v9.06A21.28,21.28,0,0,0,89.66,209Z"/><path class="cls-2" d="M735.32,1102a28.27,28.27,0,0,1,10.44,11.7,38.54,38.54,0,0,1,3.72,17.34,44.5,44.5,0,0,1-5.58,22,49,49,0,0,1-16,17,43.32,43.32,0,0,1-13,6,48.08,48.08,0,0,1-14.34,1.68v-8.88a37.23,37.23,0,0,0,11.52-1.38,41.26,41.26,0,0,0,11-4.86,36.49,36.49,0,0,0,9.54-9.06,35,35,0,0,0,5.82-11.82,21.2,21.2,0,0,1-8.22,8,21.59,21.59,0,0,1-10.86,3.24,27.16,27.16,0,0,1-13.92-3.78,28.19,28.19,0,0,1-10.26-10.2,26.63,26.63,0,0,1-3.78-13.74,26.22,26.22,0,0,1,3.84-13.8,27.74,27.74,0,0,1,10.38-10,30.06,30.06,0,0,1,29.7.54Zm-24.84,7.44a19.14,19.14,0,0,0-6.72,6.78,18,18,0,0,0,0,18.36,19.14,19.14,0,0,0,6.72,6.78,17.2,17.2,0,0,0,9,2.52,18.48,18.48,0,0,0,9.48-2.52,18.84,18.84,0,0,0,6.84-6.78,18.16,18.16,0,0,0,2.52-9.42,17.2,17.2,0,0,0-2.52-9,19,19,0,0,0-6.84-6.72,18,18,0,0,0-9.24-2.52A17.62,17.62,0,0,0,710.48,1109.44Z"/><rect class="cls-2" x="721" y="604" width="6" height="363"/><path class="cls-2" d="M649,1168H116.54A43.59,43.59,0,0,1,73,1124.46V611h6v513.46A37.58,37.58,0,0,0,116.54,1162H649Z"/><circle class="cls-2" cx="724.5" cy="1045.5" r="13.5"/><circle class="cls-2" cx="736.5" cy="1028.5" r="11.5"/><circle class="cls-2" cx="713.5" cy="1028.5" r="11.5"/><path class="cls-2" d="M710.45,1006h29.1A21.26,21.26,0,0,0,728,1024.91V1034h-6v-9.09A21.26,21.26,0,0,0,710.45,1006Z"/><circle class="cls-2" cx="239.5" cy="183.54" r="40.46"/><circle class="cls-2" cx="203.53" cy="237.49" r="34.47"/><circle class="cls-2" cx="272.47" cy="237.49" r="34.47"/><path class="cls-2" d="M281.59,301.92H194.41A63.7,63.7,0,0,0,229,245.25V218h18v27.25a63.7,63.7,0,0,0,34.6,56.67Z"/><circle class="cls-2" cx="563.5" cy="183.54" r="40.46"/><circle class="cls-2" cx="527.53" cy="237.49" r="34.47"/><circle class="cls-2" cx="596.47" cy="237.49" r="34.47"/><path class="cls-2" d="M605.59,301.92H518.41A63.7,63.7,0,0,0,553,245.25V218h18v27.25a63.7,63.7,0,0,0,34.6,56.67Z"/><circle class="cls-2" cx="239.5" cy="570.04" r="40.46"/><circle class="cls-2" cx="203.53" cy="623.99" r="34.47"/><circle class="cls-2" cx="272.47" cy="623.99" r="34.47"/><path class="cls-2" d="M281.59,688.42H194.41A63.7,63.7,0,0,0,229,631.75V604.5h18v27.25a63.7,63.7,0,0,0,34.6,56.67Z"/><circle class="cls-2" cx="563.5" cy="570.04" r="40.46"/><circle class="cls-2" cx="527.53" cy="623.99" r="34.47"/><circle class="cls-2" cx="596.47" cy="623.99" r="34.47"/><path class="cls-2" d="M605.59,688.42H518.41A63.7,63.7,0,0,0,553,631.75V604.5h18v27.25a63.7,63.7,0,0,0,34.6,56.67Z"/><circle class="cls-2" cx="239.5" cy="956.54" r="40.46"/><circle class="cls-2" cx="203.53" cy="1010.49" r="34.47"/><circle class="cls-2" cx="272.47" cy="1010.49" r="34.47"/><path class="cls-2" d="M281.59,1074.92H194.41a63.7,63.7,0,0,0,34.6-56.67V991h18v27.25a63.7,63.7,0,0,0,34.6,56.67Z"/><circle class="cls-2" cx="563.5" cy="956.54" r="40.46"/><circle class="cls-2" cx="527.53" cy="1010.49" r="34.47"/><circle class="cls-2" cx="596.47" cy="1010.49" r="34.47"/><path class="cls-2" d="M605.59,1074.92H518.41a63.7,63.7,0,0,0,34.6-56.67V991h18v27.25a63.7,63.7,0,0,0,34.6,56.67Z"/></g></svg>