<svg xmlns="http://www.w3.org/2000/svg" viewBox="0 0 800 1218"><defs><style>.cls-1{fill:#f2f0eb;}.cls-2{fill:#f4622f;}</style></defs><title>6d</title><g id="Layer_2" data-name="Layer 2"><rect class="cls-1" width="800" height="1218"/></g><g id="Layer_1" data-name="Layer 1"><rect class="cls-2" x="73" y="244" width="6" height="367"/><path class="cls-2" d="M727,605h-6V87.54A37.58,37.58,0,0,0,683.46,50H148V44H683.46A43.59,43.59,0,0,1,727,87.54Z"/><path class="cls-2" d="M68.58,110.41a28.27,28.27,0,0,1-10.44-11.7,38.54,38.54,0,0,1-3.72-17.34,44.5,44.5,0,0,1,5.58-22,49,49,0,0,1,16-17,43.32,43.32,0,0,1,13-6,48.08,48.08,0,0,1,14.34-1.68v8.88A37.23,37.23,0,0,0,91.86,45a41.26,41.26,0,0,0-11,4.86,36.49,36.49,0,0,0-9.54,9.06,35,35,0,0,0-5.82,11.82,21.2,21.2,0,0,1,8.22-8,21.59,21.59,0,0,1,10.86-3.24,27.16,27.16,0,0,1,13.92,3.78,28.19,28.19,0,0,1,10.26,10.2,26.63,26.63,0,0,1,3.78,13.74,26.22,26.22,0,0,1-3.84,13.8,27.74,27.74,0,0,1-10.38,10,30.06,30.06,0,0,1-29.7-.54ZM93.42,103a19.14,19.14,0,0,0,6.72-6.78,18,18,0,0,0,0-18.36,19.14,19.14,0,0,0-6.72-6.78,17.2,17.2,0,0,0-9-2.52,18.48,18.48,0,0,0-9.48,2.52,18.84,18.84,0,0,0-6.84,6.78,18.16,18.16,0,0,0-2.52,9.42,17.2,17.2,0,0,0,2.52,9A19,19,0,0,0,74.94,103a18,18,0,0,0,9.24,2.52A17.62,17.62,0,0,0,93.42,103Z"/><path class="cls-2" d="M76.5,211.57c0-11.14-17-32-26-32,9,0,26-21,26-32.11,0,11.14,17,32.07,26,32.07C93.48,179.5,76.5,200.43,76.5,211.57Z"/><rect class="cls-2" x="721" y="605" width="6" height="367"/><path class="cls-2" d="M652,1172H116.54A43.59,43.59,0,0,1,73,1128.46V611h6v517.46A37.58,37.58,0,0,0,116.54,1166H652Z"/><path class="cls-2" d="M731.66,1105.5a28.27,28.27,0,0,1,10.44,11.7,38.54,38.54,0,0,1,3.72,17.34,44.5,44.5,0,0,1-5.58,22,49,49,0,0,1-16,17,43.32,43.32,0,0,1-13,6,48.08,48.08,0,0,1-14.34,1.68v-8.88a37.23,37.23,0,0,0,11.52-1.38,41.26,41.26,0,0,0,11-4.86A36.49,36.49,0,0,0,729,1157a35,35,0,0,0,5.82-11.82,21.2,21.2,0,0,1-8.22,8,21.59,21.59,0,0,1-10.86,3.24,27.16,27.16,0,0,1-13.92-3.78,28.19,28.19,0,0,1-10.26-10.2,26.63,26.63,0,0,1-3.78-13.74,26.22,26.22,0,0,1,3.84-13.8A27.74,27.74,0,0,1,702,1105a30.06,30.06,0,0,1,29.7.54Zm-24.84,7.44a19.14,19.14,0,0,0-6.72,6.78,18,18,0,0,0,0,18.36,19.14,19.14,0,0,0,6.72,6.78,17.2,17.2,0,0,0,9,2.52,18.48,18.48,0,0,0,9.48-2.52,18.84,18.84,0,0,0,6.84-6.78,18.16,18.16,0,0,0,2.52-9.42,17.2,17.2,0,0,0-2.52-9,19,19,0,0,0-6.84-6.72,18,18,0,0,0-9.24-2.52A17.62,17.62,0,0,0,706.82,1112.94Z"/><path class="cls-2" d="M723.74,1004.34c0,11.13,17,32,26,32-9,0-26,21-26,32.1,0-11.13-17-32.06-26-32.06C706.75,1036.41,723.74,1015.47,723.74,1004.34Z"/><path class="cls-2" d="M238,319c0-34.71-53-99.92-81.13-99.88C185,219.08,238,153.71,238,119c0,34.71,53,100,81.13,100C291,219,238,284.29,238,319Z"/><path class="cls-2" d="M562,319c0-34.71-53-99.92-81.13-99.88C509,219.08,562,153.71,562,119c0,34.71,53,100,81.13,100C615,219,562,284.29,562,319Z"/><path class="cls-2" d="M238,709c0-34.71-53-99.92-81.13-99.88C185,609.08,238,543.71,238,509c0,34.71,53,100,81.13,100C291,609,238,674.29,238,709Z"/><path class="cls-2" d="M562,709c0-34.71-53-99.92-81.13-99.88C509,609.08,562,543.71,562,509c0,34.71,53,100,81.13,100C615,609,562,674.29,562,709Z"/><path class="cls-2" d="M238,1099c0-34.71-53-99.92-81.13-99.88C185,999.08,238,933.71,238,899c0,34.71,53,100,81.13,100C291,999,238,1064.29,238,1099Z"/><path class="cls-2" d="M562,1099c0-34.71-53-99.92-81.13-99.88C509,999.08,562,933.71,562,899c0,34.71,53,100,81.13,100C615,999,562,1064.29,562,1099Z"/></g></svg>