<svg xmlns="http://www.w3.org/2000/svg" viewBox="0 0 800 1218"><defs><style>.cls-1{fill:#f2f0eb;}.cls-2{fill:#f4622f;}</style></defs><title>6h</title><g id="Layer_2" data-name="Layer 2"><rect class="cls-1" width="800" height="1218"/></g><g id="Layer_1" data-name="Layer 1"><path class="cls-2" d="M98,165.37a11.37,11.37,0,0,0-21.66-4.82,11.37,11.37,0,0,0-21.66,4.82c0,8.83,21.66,41.69,21.66,41.69S98,177,98,165.37Z"/><rect class="cls-2" x="73" y="245" width="6" height="367"/><path class="cls-2" d="M727,606h-6V88.54A37.58,37.58,0,0,0,683.46,51H148V45H683.46A43.59,43.59,0,0,1,727,88.54Z"/><path class="cls-2" d="M64.38,111.41a28.27,28.27,0,0,1-10.44-11.7,38.54,38.54,0,0,1-3.72-17.34,44.5,44.5,0,0,1,5.58-22,49,49,0,0,1,16-17,43.32,43.32,0,0,1,13-6,48.08,48.08,0,0,1,14.34-1.68v8.88A37.23,37.23,0,0,0,87.66,46a41.26,41.26,0,0,0-11,4.86,36.49,36.49,0,0,0-9.54,9.06,35,35,0,0,0-5.82,11.82,21.2,21.2,0,0,1,8.22-8,21.59,21.59,0,0,1,10.86-3.24,27.16,27.16,0,0,1,13.92,3.78,28.19,28.19,0,0,1,10.26,10.2,26.63,26.63,0,0,1,3.78,13.74,26.22,26.22,0,0,1-3.84,13.8,27.74,27.74,0,0,1-10.38,10,30.06,30.06,0,0,1-29.7-.54ZM89.22,104a19.14,19.14,0,0,0,6.72-6.78,18,18,0,0,0,0-18.36,19.14,19.14,0,0,0-6.72-6.78,17.2,17.2,0,0,0-9-2.52,18.48,18.48,0,0,0-9.48,2.52,18.84,18.84,0,0,0-6.84,6.78,18.16,18.16,0,0,0-2.52,9.42,17.2,17.2,0,0,0,2.52,9A19,19,0,0,0,70.74,104,18,18,0,0,0,80,106.49,17.62,17.62,0,0,0,89.22,104Z"/><path class="cls-2" d="M702.08,1052.16a11.37,11.37,0,0,0,21.66,4.82,11.37,11.37,0,0,0,21.66-4.82c0-8.83-21.66-41.69-21.66-41.69S702.08,1040.57,702.08,1052.16Z"/><rect class="cls-2" x="720.98" y="606" width="6" height="367"/><path class="cls-2" d="M652,1173H116.52A43.59,43.59,0,0,1,73,1129.46V612h6v517.46A37.58,37.58,0,0,0,116.52,1167H652Z"/><path class="cls-2" d="M735.68,1106.12a28.27,28.27,0,0,1,10.44,11.7,38.54,38.54,0,0,1,3.72,17.34,44.5,44.5,0,0,1-5.58,22,49,49,0,0,1-16,17,43.32,43.32,0,0,1-13,6,48.08,48.08,0,0,1-14.34,1.68V1173a37.23,37.23,0,0,0,11.52-1.38,41.26,41.26,0,0,0,11-4.86,36.49,36.49,0,0,0,9.54-9.06,35,35,0,0,0,5.82-11.82,21.2,21.2,0,0,1-8.22,8,21.59,21.59,0,0,1-10.86,3.24,27.16,27.16,0,0,1-13.92-3.78,28.19,28.19,0,0,1-10.26-10.2,26.63,26.63,0,0,1-3.78-13.74,26.22,26.22,0,0,1,3.84-13.8,27.74,27.74,0,0,1,10.38-10,30.06,30.06,0,0,1,29.7.54Zm-24.84,7.44a19.14,19.14,0,0,0-6.72,6.78,18,18,0,0,0,0,18.36,19.14,19.14,0,0,0,6.72,6.78,17.2,17.2,0,0,0,9,2.52,18.48,18.48,0,0,0,9.48-2.52,18.84,18.84,0,0,0,6.84-6.78,18.16,18.16,0,0,0,2.52-9.42,17.2,17.2,0,0,0-2.52-9,19,19,0,0,0-6.84-6.72,18,18,0,0,0-9.24-2.52A17.62,17.62,0,0,0,710.84,1113.56Z"/><path class="cls-2" d="M302.81,179.64A34,34,0,0,0,238,165.22a34,34,0,0,0-64.82,14.42c0,34.67,64.8,124.74,64.8,124.74S302.81,214.31,302.81,179.64Z"/><path class="cls-2" d="M626.81,179.64A34,34,0,0,0,562,165.22a34,34,0,0,0-64.82,14.42c0,34.67,64.8,124.74,64.8,124.74S626.81,214.31,626.81,179.64Z"/><path class="cls-2" d="M302.81,563.64A34,34,0,0,0,238,549.22a34,34,0,0,0-64.82,14.42c0,34.67,64.8,124.74,64.8,124.74S302.81,598.31,302.81,563.64Z"/><path class="cls-2" d="M626.81,563.64A34,34,0,0,0,562,549.22a34,34,0,0,0-64.82,14.42c0,34.67,64.8,124.74,64.8,124.74S626.81,598.31,626.81,563.64Z"/><path class="cls-2" d="M302.81,947.64A34,34,0,0,0,238,933.22a34,34,0,0,0-64.82,14.42c0,34.67,64.8,124.74,64.8,124.74S302.81,982.31,302.81,947.64Z"/><path class="cls-2" d="M626.81,947.64A34,34,0,0,0,562,933.22a34,34,0,0,0-64.82,14.42c0,34.67,64.8,124.74,64.8,124.74S626.81,982.31,626.81,947.64Z"/></g></svg>