<svg xmlns="http://www.w3.org/2000/svg" viewBox="0 0 800 1267"><defs><style>.cls-1{fill:#f2f0eb;}.cls-2{fill:#3e95a3;}</style></defs><title>6s</title><g id="Layer_2" data-name="Layer 2"><rect class="cls-1" width="800" height="1267"/></g><g id="Layer_1" data-name="Layer 1"><polygon class="cls-2" points="95.75 204.07 75.07 210.66 54.39 204.07 75.07 180 95.75 204.07"/><circle class="cls-2" cx="63.52" cy="211.2" r="11.59"/><circle class="cls-2" cx="86.62" cy="211.2" r="11.59"/><path class="cls-2" d="M89.66,233H60.47a21.27,21.27,0,0,0,11.59-18.94V205h6v9.06A21.28,21.28,0,0,0,89.66,233Z"/><polygon class="cls-2" points="300.05 241.21 238 260.98 175.95 241.21 238 169 300.05 241.21"/><circle class="cls-2" cx="203.35" cy="262.59" r="34.76"/><circle class="cls-2" cx="272.65" cy="262.59" r="34.76"/><path class="cls-2" d="M281.79,328H194.21A63.84,63.84,0,0,0,229,271.17V244H247v27.17A63.84,63.84,0,0,0,281.79,328Z"/><polygon class="cls-2" points="624.04 241.21 562 260.98 499.95 241.21 562 169 624.04 241.21"/><circle class="cls-2" cx="527.35" cy="262.59" r="34.76"/><circle class="cls-2" cx="596.65" cy="262.59" r="34.76"/><path class="cls-2" d="M605.79,328H518.21A63.84,63.84,0,0,0,553,271.17V244H571v27.17A63.84,63.84,0,0,0,605.79,328Z"/><polygon class="cls-2" points="300.05 627.71 238 647.48 175.95 627.71 238 555.5 300.05 627.71"/><circle class="cls-2" cx="203.35" cy="649.09" r="34.76"/><circle class="cls-2" cx="272.65" cy="649.09" r="34.76"/><path class="cls-2" d="M281.79,714.5H194.21A63.84,63.84,0,0,0,229,657.67V630.5H247v27.17a63.84,63.84,0,0,0,34.76,56.83Z"/><polygon class="cls-2" points="624.04 627.71 562 647.48 499.95 627.71 562 555.5 624.04 627.71"/><circle class="cls-2" cx="527.35" cy="649.09" r="34.76"/><circle class="cls-2" cx="596.65" cy="649.09" r="34.76"/><path class="cls-2" d="M605.79,714.5H518.21A63.84,63.84,0,0,0,553,657.67V630.5H571v27.17a63.84,63.84,0,0,0,34.76,56.83Z"/><polygon class="cls-2" points="300.05 1015.21 238 1034.98 175.95 1015.21 238 943 300.05 1015.21"/><circle class="cls-2" cx="203.35" cy="1036.59" r="34.76"/><circle class="cls-2" cx="272.65" cy="1036.59" r="34.76"/><path class="cls-2" d="M281.79,1102H194.21A63.84,63.84,0,0,0,229,1045.17V1018H247v27.17A63.84,63.84,0,0,0,281.79,1102Z"/><polygon class="cls-2" points="624.04 1015.21 562 1034.98 499.95 1015.21 562 943 624.04 1015.21"/><circle class="cls-2" cx="527.35" cy="1036.59" r="34.76"/><circle class="cls-2" cx="596.65" cy="1036.59" r="34.76"/><path class="cls-2" d="M605.79,1102H518.21A63.84,63.84,0,0,0,553,1045.17V1018H571v27.17A63.84,63.84,0,0,0,605.79,1102Z"/><polygon class="cls-2" points="704.08 1070.18 724.76 1063.59 745.45 1070.18 724.76 1094.25 704.08 1070.18"/><circle class="cls-2" cx="736.5" cy="1063.5" r="11.5"/><circle class="cls-2" cx="713.5" cy="1063.5" r="11.5"/><path class="cls-2" d="M710.45,1041h29.09A21.27,21.27,0,0,0,728,1059.91V1069h-6v-9.09A21.26,21.26,0,0,0,710.45,1041Z"/><path class="cls-2" d="M63.55,139.41a28.27,28.27,0,0,1-10.44-11.7,38.54,38.54,0,0,1-3.72-17.34,44.5,44.5,0,0,1,5.58-22,49,49,0,0,1,16-17,43.32,43.32,0,0,1,13-6,48.08,48.08,0,0,1,14.34-1.68v8.88A37.23,37.23,0,0,0,86.83,74a41.26,41.26,0,0,0-11,4.86,36.49,36.49,0,0,0-9.54,9.06,35,35,0,0,0-5.82,11.82,21.2,21.2,0,0,1,8.22-8,21.59,21.59,0,0,1,10.86-3.24,27.16,27.16,0,0,1,13.92,3.78,28.19,28.19,0,0,1,10.26,10.2,26.63,26.63,0,0,1,3.78,13.74,26.22,26.22,0,0,1-3.84,13.8,27.74,27.74,0,0,1-10.38,10,30.06,30.06,0,0,1-29.7-.54ZM88.39,132a19.14,19.14,0,0,0,6.72-6.78,18,18,0,0,0,0-18.36,19.14,19.14,0,0,0-6.72-6.78,17.2,17.2,0,0,0-9-2.52,18.48,18.48,0,0,0-9.48,2.52,18.84,18.84,0,0,0-6.84,6.78,18.16,18.16,0,0,0-2.52,9.42,17.2,17.2,0,0,0,2.52,9A19,19,0,0,0,69.91,132a18,18,0,0,0,9.24,2.52A17.62,17.62,0,0,0,88.39,132Z"/><rect class="cls-2" x="73" y="274" width="6" height="363"/><path class="cls-2" d="M727,630h-6V116.54A37.58,37.58,0,0,0,683.46,79H151V73H683.46A43.59,43.59,0,0,1,727,116.54Z"/><path class="cls-2" d="M736.52,1128A28.27,28.27,0,0,1,747,1139.7a38.54,38.54,0,0,1,3.72,17.34,44.5,44.5,0,0,1-5.58,22,49,49,0,0,1-16,17,43.32,43.32,0,0,1-13,6,48.08,48.08,0,0,1-14.34,1.68v-8.88a37.23,37.23,0,0,0,11.52-1.38,41.26,41.26,0,0,0,11-4.86,36.49,36.49,0,0,0,9.54-9.06,35,35,0,0,0,5.82-11.82,21.2,21.2,0,0,1-8.22,8,21.59,21.59,0,0,1-10.86,3.24,27.16,27.16,0,0,1-13.92-3.78,28.19,28.19,0,0,1-10.26-10.2,26.63,26.63,0,0,1-3.78-13.74,26.22,26.22,0,0,1,3.84-13.8,27.74,27.74,0,0,1,10.38-10,30.06,30.06,0,0,1,29.7.54Zm-24.84,7.44a19.14,19.14,0,0,0-6.72,6.78,18,18,0,0,0,0,18.36,19.14,19.14,0,0,0,6.72,6.78,17.2,17.2,0,0,0,9,2.52,18.48,18.48,0,0,0,9.48-2.52,18.84,18.84,0,0,0,6.84-6.78,18.16,18.16,0,0,0,2.52-9.42,17.2,17.2,0,0,0-2.52-9,19,19,0,0,0-6.84-6.72,18,18,0,0,0-9.24-2.52A17.62,17.62,0,0,0,711.68,1135.44Z"/><rect class="cls-2" x="721" y="630" width="6" height="363"/><path class="cls-2" d="M649,1194H116.54A43.59,43.59,0,0,1,73,1150.46V637h6v513.46A37.58,37.58,0,0,0,116.54,1188H649Z"/></g></svg>