<svg xmlns="http://www.w3.org/2000/svg" viewBox="0 0 800 1274"><defs><style>.cls-1{fill:#f2f0eb;}.cls-2{fill:#d8491d;}</style></defs><title>7d</title><g id="Layer_2" data-name="Layer 2"><rect class="cls-1" width="800" height="1274"/></g><g id="Layer_1" data-name="Layer 1"><rect class="cls-2" x="73" y="273" width="6" height="367"/><path class="cls-2" d="M727,634h-6V116.54A37.58,37.58,0,0,0,683.46,79H148V73H683.46A43.59,43.59,0,0,1,727,116.54Z"/><path class="cls-2" d="M90.42,74.85l-38-.24V64.53h52.08v3l-30,74H62.82Z"/><path class="cls-2" d="M76.5,240.57c0-11.13-17-32-26-32,9,0,26-21,26-32.1,0,11.13,17,32.06,26,32.06C93.49,208.5,76.5,229.44,76.5,240.57Z"/><rect class="cls-2" x="721" y="634" width="6" height="367"/><path class="cls-2" d="M652,1201H116.54A43.59,43.59,0,0,1,73,1157.46V640h6v517.46A37.58,37.58,0,0,0,116.54,1195H652Z"/><path class="cls-2" d="M709.82,1199.06l38,.24v10.08H695.78v-3l30-74h11.64Z"/><path class="cls-2" d="M723.74,1033.34c0,11.13,17,32,26,32-9,0-26,21-26,32.1,0-11.13-17-32.06-26-32.06C706.75,1065.41,723.74,1044.47,723.74,1033.34Z"/><path class="cls-2" d="M238,348c0-34.71-53-99.92-81.13-99.88C185,248.08,238,182.71,238,148c0,34.71,53,100,81.13,100C291,248,238,313.29,238,348Z"/><path class="cls-2" d="M400,543c0-34.71-53-99.92-81.13-99.88C347,443.08,400,377.71,400,343c0,34.71,53,100,81.13,100C453,443,400,508.29,400,543Z"/><path class="cls-2" d="M562,348c0-34.71-53-99.92-81.13-99.88C509,248.08,562,182.71,562,148c0,34.71,53,100,81.13,100C615,248,562,313.29,562,348Z"/><path class="cls-2" d="M238,738c0-34.71-53-99.92-81.13-99.88C185,638.08,238,572.71,238,538c0,34.71,53,100,81.13,100C291,638,238,703.29,238,738Z"/><path class="cls-2" d="M562,738c0-34.71-53-99.92-81.13-99.88C509,638.08,562,572.71,562,538c0,34.71,53,100,81.13,100C615,638,562,703.29,562,738Z"/><path class="cls-2" d="M238,1128c0-34.71-53-99.92-81.13-99.88C185,1028.08,238,962.71,238,928c0,34.71,53,100,81.13,100C291,1028,238,1093.29,238,1128Z"/><path class="cls-2" d="M562,1128c0-34.71-53-99.92-81.13-99.88C509,1028.08,562,962.71,562,928c0,34.71,53,100,81.13,100C615,1028,562,1093.29,562,1128Z"/></g></svg>