<svg xmlns="http://www.w3.org/2000/svg" viewBox="0 0 800 1218"><defs><style>.cls-1{fill:#f2f0eb;}.cls-2{fill:#f4622f;}</style></defs><title>7d</title><g id="Layer_2" data-name="Layer 2"><rect class="cls-1" width="800" height="1218"/></g><g id="Layer_1" data-name="Layer 1"><rect class="cls-2" x="73" y="244" width="6" height="367"/><path class="cls-2" d="M727,605h-6V87.54A37.58,37.58,0,0,0,683.46,50H148V44H683.46A43.59,43.59,0,0,1,727,87.54Z"/><path class="cls-2" d="M90.42,45.85l-38-.24V35.53h52.08v3l-30,74H62.82Z"/><path class="cls-2" d="M76.5,211.57c0-11.14-17-32-26-32,9,0,26-21,26-32.11,0,11.14,17,32.07,26,32.07C93.49,179.5,76.5,200.43,76.5,211.57Z"/><rect class="cls-2" x="721" y="605" width="6" height="367"/><path class="cls-2" d="M652,1172H116.54A43.59,43.59,0,0,1,73,1128.46V611h6v517.46A37.58,37.58,0,0,0,116.54,1166H652Z"/><path class="cls-2" d="M709.82,1170.06l38,.24v10.08H695.78v-3l30-74h11.64Z"/><path class="cls-2" d="M723.74,1004.34c0,11.13,17,32,26,32-9,0-26,21-26,32.1,0-11.13-17-32.06-26-32.06C706.75,1036.41,723.74,1015.47,723.74,1004.34Z"/><path class="cls-2" d="M238,319c0-34.71-53-99.92-81.13-99.88C185,219.08,238,153.71,238,119c0,34.71,53,100,81.13,100C291,219,238,284.29,238,319Z"/><path class="cls-2" d="M400,514c0-34.71-53-99.92-81.13-99.88C347,414.08,400,348.71,400,314c0,34.71,53,100,81.13,100C453,414,400,479.29,400,514Z"/><path class="cls-2" d="M562,319c0-34.71-53-99.92-81.13-99.88C509,219.08,562,153.71,562,119c0,34.71,53,100,81.13,100C615,219,562,284.29,562,319Z"/><path class="cls-2" d="M238,709c0-34.71-53-99.92-81.13-99.88C185,609.08,238,543.71,238,509c0,34.71,53,100,81.13,100C291,609,238,674.29,238,709Z"/><path class="cls-2" d="M562,709c0-34.71-53-99.92-81.13-99.88C509,609.08,562,543.71,562,509c0,34.71,53,100,81.13,100C615,609,562,674.29,562,709Z"/><path class="cls-2" d="M238,1099c0-34.71-53-99.92-81.13-99.88C185,999.08,238,933.71,238,899c0,34.71,53,100,81.13,100C291,999,238,1064.29,238,1099Z"/><path class="cls-2" d="M562,1099c0-34.71-53-99.92-81.13-99.88C509,999.08,562,933.71,562,899c0,34.71,53,100,81.13,100C615,999,562,1064.29,562,1099Z"/></g></svg>