<svg xmlns="http://www.w3.org/2000/svg" viewBox="0 0 800 1274"><defs><style>.cls-1{fill:#f2f0eb;}.cls-2{fill:#d8491d;}</style></defs><title>7h</title><g id="Layer_2" data-name="Layer 2"><rect class="cls-1" width="800" height="1274"/></g><g id="Layer_1" data-name="Layer 1"><path class="cls-2" d="M98,193.37a11.37,11.37,0,0,0-21.66-4.82,11.37,11.37,0,0,0-21.66,4.82c0,8.83,21.66,41.69,21.66,41.69S98,205,98,193.37Z"/><rect class="cls-2" x="73" y="273" width="6" height="367"/><path class="cls-2" d="M727,634h-6V116.54A37.58,37.58,0,0,0,683.46,79H148V73H683.46A43.59,43.59,0,0,1,727,116.54Z"/><path class="cls-2" d="M90.24,74.85l-38-.24V64.53h52.08v3l-30,74H62.64Z"/><path class="cls-2" d="M702.08,1080.16a11.37,11.37,0,0,0,21.66,4.82,11.37,11.37,0,0,0,21.66-4.82c0-8.83-21.66-41.69-21.66-41.69S702.08,1068.57,702.08,1080.16Z"/><rect class="cls-2" x="720.98" y="634" width="6" height="367"/><path class="cls-2" d="M652,1201H116.52A43.59,43.59,0,0,1,73,1157.46V640h6v517.46A37.58,37.58,0,0,0,116.52,1195H652Z"/><path class="cls-2" d="M709.82,1198.68l38,.24V1209H695.78v-3l30-74h11.64Z"/><path class="cls-2" d="M302.81,207.64A34,34,0,0,0,238,193.22a34,34,0,0,0-64.82,14.42c0,34.67,64.8,124.74,64.8,124.74S302.81,242.31,302.81,207.64Z"/><path class="cls-2" d="M464.8,399.64A34,34,0,0,0,400,385.22a34,34,0,0,0-64.81,14.42c0,34.67,64.8,124.74,64.8,124.74S464.8,434.31,464.8,399.64Z"/><path class="cls-2" d="M626.81,207.64A34,34,0,0,0,562,193.22a34,34,0,0,0-64.82,14.42c0,34.67,64.8,124.74,64.8,124.74S626.81,242.31,626.81,207.64Z"/><path class="cls-2" d="M302.81,591.64A34,34,0,0,0,238,577.22a34,34,0,0,0-64.82,14.42c0,34.67,64.8,124.74,64.8,124.74S302.81,626.31,302.81,591.64Z"/><path class="cls-2" d="M626.81,591.64A34,34,0,0,0,562,577.22a34,34,0,0,0-64.82,14.42c0,34.67,64.8,124.74,64.8,124.74S626.81,626.31,626.81,591.64Z"/><path class="cls-2" d="M302.81,975.64A34,34,0,0,0,238,961.22a34,34,0,0,0-64.82,14.42c0,34.67,64.8,124.74,64.8,124.74S302.81,1010.31,302.81,975.64Z"/><path class="cls-2" d="M626.81,975.64A34,34,0,0,0,562,961.22a34,34,0,0,0-64.82,14.42c0,34.67,64.8,124.74,64.8,124.74S626.81,1010.31,626.81,975.64Z"/></g></svg>