<svg xmlns="http://www.w3.org/2000/svg" viewBox="0 0 800 1267"><defs><style>.cls-1{fill:#f2f0eb;}.cls-2{fill:#3e95a3;}</style></defs><title>7s</title><g id="Layer_2" data-name="Layer 2"><rect class="cls-1" width="800" height="1267"/></g><g id="Layer_1" data-name="Layer 1"><polygon class="cls-2" points="95.75 204.07 75.07 210.66 54.39 204.07 75.07 180 95.75 204.07"/><circle class="cls-2" cx="63.52" cy="211.2" r="11.59"/><circle class="cls-2" cx="86.62" cy="211.2" r="11.59"/><path class="cls-2" d="M89.66,233H60.47a21.27,21.27,0,0,0,11.59-18.94V205h6v9.06A21.28,21.28,0,0,0,89.66,233Z"/><polygon class="cls-2" points="300.05 241.21 238 260.98 175.95 241.21 238 169 300.05 241.21"/><circle class="cls-2" cx="203.35" cy="262.59" r="34.76"/><circle class="cls-2" cx="272.65" cy="262.59" r="34.76"/><path class="cls-2" d="M281.79,328H194.21A63.84,63.84,0,0,0,229,271.17V244H247v27.17A63.84,63.84,0,0,0,281.79,328Z"/><polygon class="cls-2" points="624.04 241.21 562 260.98 499.95 241.21 562 169 624.04 241.21"/><circle class="cls-2" cx="527.35" cy="262.59" r="34.76"/><circle class="cls-2" cx="596.65" cy="262.59" r="34.76"/><path class="cls-2" d="M605.79,328H518.21A63.84,63.84,0,0,0,553,271.17V244H571v27.17A63.84,63.84,0,0,0,605.79,328Z"/><polygon class="cls-2" points="462.05 434.45 400 454.23 337.95 434.45 400 362.25 462.05 434.45"/><circle class="cls-2" cx="365.35" cy="455.84" r="34.76"/><circle class="cls-2" cx="434.65" cy="455.84" r="34.76"/><path class="cls-2" d="M443.79,521.25H356.21A63.84,63.84,0,0,0,391,464.42V437.25H409v27.17a63.84,63.84,0,0,0,34.76,56.83Z"/><polygon class="cls-2" points="300.05 627.71 238 647.48 175.95 627.71 238 555.5 300.05 627.71"/><circle class="cls-2" cx="203.35" cy="649.09" r="34.76"/><circle class="cls-2" cx="272.65" cy="649.09" r="34.76"/><path class="cls-2" d="M281.79,714.5H194.21A63.84,63.84,0,0,0,229,657.67V630.5H247v27.17a63.84,63.84,0,0,0,34.76,56.83Z"/><polygon class="cls-2" points="624.04 627.71 562 647.48 499.95 627.71 562 555.5 624.04 627.71"/><circle class="cls-2" cx="527.35" cy="649.09" r="34.76"/><circle class="cls-2" cx="596.65" cy="649.09" r="34.76"/><path class="cls-2" d="M605.79,714.5H518.21A63.84,63.84,0,0,0,553,657.67V630.5H571v27.17a63.84,63.84,0,0,0,34.76,56.83Z"/><polygon class="cls-2" points="300.05 1015.21 238 1034.98 175.95 1015.21 238 943 300.05 1015.21"/><circle class="cls-2" cx="203.35" cy="1036.59" r="34.76"/><circle class="cls-2" cx="272.65" cy="1036.59" r="34.76"/><path class="cls-2" d="M281.79,1102H194.21A63.84,63.84,0,0,0,229,1045.17V1018H247v27.17A63.84,63.84,0,0,0,281.79,1102Z"/><polygon class="cls-2" points="624.04 1015.21 562 1034.98 499.95 1015.21 562 943 624.04 1015.21"/><circle class="cls-2" cx="527.35" cy="1036.59" r="34.76"/><circle class="cls-2" cx="596.65" cy="1036.59" r="34.76"/><path class="cls-2" d="M605.79,1102H518.21A63.84,63.84,0,0,0,553,1045.17V1018H571v27.17A63.84,63.84,0,0,0,605.79,1102Z"/><polygon class="cls-2" points="704.08 1070.18 724.76 1063.59 745.45 1070.18 724.76 1094.25 704.08 1070.18"/><circle class="cls-2" cx="736.5" cy="1063.5" r="11.5"/><circle class="cls-2" cx="713.5" cy="1063.5" r="11.5"/><path class="cls-2" d="M710.45,1041h29.09A21.27,21.27,0,0,0,728,1059.91V1069h-6v-9.09A21.26,21.26,0,0,0,710.45,1041Z"/><path class="cls-2" d="M85.39,74.85l-38-.24V64.53H99.43v3l-30,74H57.79Z"/><rect class="cls-2" x="73" y="274" width="6" height="363"/><path class="cls-2" d="M727,630h-6V116.54A37.58,37.58,0,0,0,683.46,79H151V73H683.46A43.59,43.59,0,0,1,727,116.54Z"/><path class="cls-2" d="M714.68,1192.56l38,.24v10.08H700.64v-3l30-74h11.64Z"/><rect class="cls-2" x="721" y="630" width="6" height="363"/><path class="cls-2" d="M649,1194H116.54A43.59,43.59,0,0,1,73,1150.46V637h6v513.46A37.58,37.58,0,0,0,116.54,1188H649Z"/></g></svg>