<svg xmlns="http://www.w3.org/2000/svg" viewBox="0 0 800 1218"><defs><style>.cls-1{fill:#f2f0eb;}.cls-2{fill:#3e95a3;}</style></defs><title>8c</title><g id="Layer_2" data-name="Layer 2"><rect class="cls-1" width="800" height="1218"/></g><g id="Layer_1" data-name="Layer 1"><path class="cls-2" d="M63.91,114.43A22.61,22.61,0,0,1,50.59,93.25,21.58,21.58,0,0,1,54,81.31a39.81,39.81,0,0,1,9.24-9.78q-8.4-5.64-8.4-15.24a17.62,17.62,0,0,1,3.06-10.14,21,21,0,0,1,8.34-7.08,25.88,25.88,0,0,1,11.52-2.58,26.54,26.54,0,0,1,11.7,2.58,22,22,0,0,1,8.52,7,16.34,16.34,0,0,1,3.18,9.72,17.44,17.44,0,0,1-2.64,9.48,27,27,0,0,1-6.6,7.2A26.12,26.12,0,0,1,101.71,81a21.46,21.46,0,0,1,3.72,12.48,22.39,22.39,0,0,1-3.6,12.72,23.31,23.31,0,0,1-9.78,8.28,32.72,32.72,0,0,1-14,2.88A32.84,32.84,0,0,1,63.91,114.43Zm27-10.32A14.08,14.08,0,0,0,95.59,93,12.26,12.26,0,0,0,93,84.91a18,18,0,0,0-7.14-5,89.09,89.09,0,0,0-11.46-3.66l-1.92-.48-2.28,1.92a44.32,44.32,0,0,0-7.68,8,12.86,12.86,0,0,0-2,7.2q0,7.2,4.74,11.28t12.9,4.08Q86.23,108.25,90.91,104.11Zm-2-41.1a10.69,10.69,0,0,0,2.22-6.72,9.54,9.54,0,0,0-3.72-7.56A14.25,14.25,0,0,0,78,45.61a13.91,13.91,0,0,0-9.48,3.24,10,10,0,0,0-3.72,7.8A8.19,8.19,0,0,0,67,62.89a16.5,16.5,0,0,0,6.6,3.48l7.68,2.52,1,.24A32.87,32.87,0,0,0,88.93,63Z"/><rect class="cls-2" x="73" y="248" width="6" height="363"/><path class="cls-2" d="M727,604h-6V90.54A37.58,37.58,0,0,0,683.46,53H151V47H683.46A43.59,43.59,0,0,1,727,90.54Z"/><circle class="cls-2" cx="75.07" cy="169.42" r="13.42"/><circle class="cls-2" cx="63.52" cy="187.2" r="11.59"/><circle class="cls-2" cx="86.62" cy="187.2" r="11.59"/><path class="cls-2" d="M89.66,209H60.47a21.29,21.29,0,0,0,11.59-18.94V181h6v9.06A21.28,21.28,0,0,0,89.66,209Z"/><path class="cls-2" d="M736.16,1101a22.61,22.61,0,0,1,13.32,21.18,21.58,21.58,0,0,1-3.36,11.94,39.81,39.81,0,0,1-9.24,9.78q8.4,5.64,8.4,15.24a17.62,17.62,0,0,1-3.06,10.14,21,21,0,0,1-8.34,7.08,25.88,25.88,0,0,1-11.52,2.58,26.54,26.54,0,0,1-11.7-2.58,22,22,0,0,1-8.52-7,16.34,16.34,0,0,1-3.18-9.72,17.44,17.44,0,0,1,2.64-9.48,27,27,0,0,1,6.6-7.2,26.12,26.12,0,0,1-9.84-8.52,21.46,21.46,0,0,1-3.72-12.48,22.39,22.39,0,0,1,3.6-12.72,23.31,23.31,0,0,1,9.78-8.28,35.47,35.47,0,0,1,28.14.06Zm-27,10.32a14.08,14.08,0,0,0-4.68,11.1,12.26,12.26,0,0,0,2.64,8.1,18,18,0,0,0,7.14,5,89.09,89.09,0,0,0,11.46,3.66l1.92.48,2.28-1.92a44.32,44.32,0,0,0,7.68-8,12.86,12.86,0,0,0,2-7.2q0-7.2-4.74-11.28t-12.9-4.08Q713.84,1107.16,709.16,1111.3Zm2,41.1a10.69,10.69,0,0,0-2.22,6.72,9.54,9.54,0,0,0,3.72,7.56,14.25,14.25,0,0,0,9.48,3.12,13.91,13.91,0,0,0,9.48-3.24,10,10,0,0,0,3.72-7.8,8.19,8.19,0,0,0-2.28-6.24,16.5,16.5,0,0,0-6.6-3.48l-7.68-2.52-1-.24A32.87,32.87,0,0,0,711.14,1152.4Z"/><rect class="cls-2" x="721" y="604" width="6" height="363"/><path class="cls-2" d="M649,1168H116.54A43.59,43.59,0,0,1,73,1124.46V611h6v513.46A37.58,37.58,0,0,0,116.54,1162H649Z"/><circle class="cls-2" cx="724.5" cy="1045.5" r="13.5"/><circle class="cls-2" cx="736.5" cy="1028.5" r="11.5"/><circle class="cls-2" cx="713.5" cy="1028.5" r="11.5"/><path class="cls-2" d="M710.45,1006h29.1A21.26,21.26,0,0,0,728,1024.91V1034h-6v-9.09A21.26,21.26,0,0,0,710.45,1006Z"/><circle class="cls-2" cx="239.5" cy="183.54" r="40.46"/><circle class="cls-2" cx="203.53" cy="237.49" r="34.47"/><circle class="cls-2" cx="272.47" cy="237.49" r="34.47"/><path class="cls-2" d="M281.59,301.92H194.41A63.7,63.7,0,0,0,229,245.25V218h18v27.25a63.7,63.7,0,0,0,34.6,56.67Z"/><circle class="cls-2" cx="563.5" cy="183.54" r="40.46"/><circle class="cls-2" cx="527.53" cy="237.49" r="34.47"/><circle class="cls-2" cx="596.47" cy="237.49" r="34.47"/><path class="cls-2" d="M605.59,301.92H518.41A63.7,63.7,0,0,0,553,245.25V218h18v27.25a63.7,63.7,0,0,0,34.6,56.67Z"/><circle class="cls-2" cx="239.5" cy="570.04" r="40.46"/><circle class="cls-2" cx="203.53" cy="623.99" r="34.47"/><circle class="cls-2" cx="272.47" cy="623.99" r="34.47"/><path class="cls-2" d="M281.59,688.42H194.41A63.7,63.7,0,0,0,229,631.75V604.5h18v27.25a63.7,63.7,0,0,0,34.6,56.67Z"/><circle class="cls-2" cx="401.5" cy="376.79" r="40.46"/><circle class="cls-2" cx="365.53" cy="430.74" r="34.47"/><circle class="cls-2" cx="434.47" cy="430.74" r="34.47"/><path class="cls-2" d="M443.59,495.17H356.41A63.7,63.7,0,0,0,391,438.5V411.25h18V438.5a63.7,63.7,0,0,0,34.6,56.67Z"/><circle class="cls-2" cx="401.5" cy="763.29" r="40.46"/><circle class="cls-2" cx="365.53" cy="817.24" r="34.47"/><circle class="cls-2" cx="434.47" cy="817.24" r="34.47"/><path class="cls-2" d="M443.59,881.67H356.41A63.7,63.7,0,0,0,391,825V797.75h18V825a63.7,63.7,0,0,0,34.6,56.67Z"/><circle class="cls-2" cx="563.5" cy="570.04" r="40.46"/><circle class="cls-2" cx="527.53" cy="623.99" r="34.47"/><circle class="cls-2" cx="596.47" cy="623.99" r="34.47"/><path class="cls-2" d="M605.59,688.42H518.41A63.7,63.7,0,0,0,553,631.75V604.5h18v27.25a63.7,63.7,0,0,0,34.6,56.67Z"/><circle class="cls-2" cx="239.5" cy="956.54" r="40.46"/><circle class="cls-2" cx="203.53" cy="1010.49" r="34.47"/><circle class="cls-2" cx="272.47" cy="1010.49" r="34.47"/><path class="cls-2" d="M281.59,1074.92H194.41a63.7,63.7,0,0,0,34.6-56.67V991h18v27.25a63.7,63.7,0,0,0,34.6,56.67Z"/><circle class="cls-2" cx="563.5" cy="956.54" r="40.46"/><circle class="cls-2" cx="527.53" cy="1010.49" r="34.47"/><circle class="cls-2" cx="596.47" cy="1010.49" r="34.47"/><path class="cls-2" d="M605.59,1074.92H518.41a63.7,63.7,0,0,0,34.6-56.67V991h18v27.25a63.7,63.7,0,0,0,34.6,56.67Z"/></g></svg>