<svg xmlns="http://www.w3.org/2000/svg" viewBox="0 0 800 1218"><defs><style>.cls-1{fill:#f2f0eb;}.cls-2{fill:#f4622f;}</style></defs><title>8d</title><g id="Layer_2" data-name="Layer 2"><rect class="cls-1" width="800" height="1218"/></g><g id="Layer_1" data-name="Layer 1"><rect class="cls-2" x="73" y="244" width="6" height="367"/><path class="cls-2" d="M727,605h-6V87.54A37.58,37.58,0,0,0,683.46,50H148V44H683.46A43.59,43.59,0,0,1,727,87.54Z"/><path class="cls-2" d="M65.34,111.43A22.61,22.61,0,0,1,52,90.25a21.58,21.58,0,0,1,3.36-11.94,39.81,39.81,0,0,1,9.24-9.78q-8.4-5.64-8.4-15.24a17.62,17.62,0,0,1,3.06-10.14,21,21,0,0,1,8.34-7.08,25.88,25.88,0,0,1,11.52-2.58,26.54,26.54,0,0,1,11.7,2.58,22,22,0,0,1,8.52,7,16.34,16.34,0,0,1,3.18,9.72,17.44,17.44,0,0,1-2.64,9.48,27,27,0,0,1-6.6,7.2A26.12,26.12,0,0,1,103.14,78a21.46,21.46,0,0,1,3.72,12.48,22.39,22.39,0,0,1-3.6,12.72,23.31,23.31,0,0,1-9.78,8.28,32.72,32.72,0,0,1-14,2.88A32.84,32.84,0,0,1,65.34,111.43Zm27-10.32A14.08,14.08,0,0,0,97,90a12.26,12.26,0,0,0-2.64-8.1,18,18,0,0,0-7.14-5,89.09,89.09,0,0,0-11.46-3.66l-1.92-.48-2.28,1.92a44.32,44.32,0,0,0-7.68,8,12.86,12.86,0,0,0-2,7.2q0,7.2,4.74,11.28t12.9,4.08Q87.66,105.25,92.34,101.11Zm-2-41.1a10.69,10.69,0,0,0,2.22-6.72,9.54,9.54,0,0,0-3.72-7.56,14.25,14.25,0,0,0-9.48-3.12,13.91,13.91,0,0,0-9.48,3.24,10,10,0,0,0-3.72,7.8,8.19,8.19,0,0,0,2.28,6.24,16.5,16.5,0,0,0,6.6,3.48l7.68,2.52,1,.24A32.87,32.87,0,0,0,90.36,60Z"/><path class="cls-2" d="M76.5,211.57c0-11.14-17-32-26-32,9,0,26-21,26-32.11,0,11.14,17,32.07,26,32.07C93.49,179.5,76.5,200.43,76.5,211.57Z"/><rect class="cls-2" x="721" y="605" width="6" height="367"/><path class="cls-2" d="M652,1172H116.54A43.59,43.59,0,0,1,73,1128.46V611h6v517.46A37.58,37.58,0,0,0,116.54,1166H652Z"/><path class="cls-2" d="M734.9,1104.48a22.61,22.61,0,0,1,13.32,21.18,21.58,21.58,0,0,1-3.36,11.94,39.81,39.81,0,0,1-9.24,9.78q8.4,5.64,8.4,15.24a17.62,17.62,0,0,1-3.06,10.14,21,21,0,0,1-8.34,7.08,25.88,25.88,0,0,1-11.52,2.58,26.54,26.54,0,0,1-11.7-2.58,22,22,0,0,1-8.52-7,16.34,16.34,0,0,1-3.18-9.72,17.44,17.44,0,0,1,2.64-9.48,27,27,0,0,1,6.6-7.2,26.12,26.12,0,0,1-9.84-8.52,21.46,21.46,0,0,1-3.72-12.48,22.39,22.39,0,0,1,3.6-12.72,23.31,23.31,0,0,1,9.78-8.28,35.47,35.47,0,0,1,28.14.06Zm-27,10.32a14.08,14.08,0,0,0-4.68,11.1,12.26,12.26,0,0,0,2.64,8.1,18,18,0,0,0,7.14,5,89.09,89.09,0,0,0,11.46,3.66l1.92.48,2.28-1.92a44.32,44.32,0,0,0,7.68-8,12.86,12.86,0,0,0,2-7.2q0-7.2-4.74-11.28t-12.9-4.08Q712.58,1110.66,707.9,1114.8Zm2,41.1a10.69,10.69,0,0,0-2.22,6.72,9.54,9.54,0,0,0,3.72,7.56,14.25,14.25,0,0,0,9.48,3.12,13.91,13.91,0,0,0,9.48-3.24,10,10,0,0,0,3.72-7.8,8.19,8.19,0,0,0-2.28-6.24,16.5,16.5,0,0,0-6.6-3.48L717.5,1150l-1-.24A32.87,32.87,0,0,0,709.88,1155.9Z"/><path class="cls-2" d="M723.74,1004.34c0,11.13,17,32,26,32-9,0-26,21-26,32.1,0-11.13-17-32.06-26-32.06C706.75,1036.41,723.74,1015.47,723.74,1004.34Z"/><path class="cls-2" d="M238,319c0-34.71-53-99.92-81.13-99.88C185,219.08,238,153.71,238,119c0,34.71,53,100,81.13,100C291,219,238,284.29,238,319Z"/><path class="cls-2" d="M400,904c0-34.71-53-99.92-81.13-99.88C347,804.08,400,738.71,400,704c0,34.71,53,100,81.13,100C453,804,400,869.29,400,904Z"/><path class="cls-2" d="M400,514c0-34.71-53-99.92-81.13-99.88C347,414.08,400,348.71,400,314c0,34.71,53,100,81.13,100C453,414,400,479.29,400,514Z"/><path class="cls-2" d="M562,319c0-34.71-53-99.92-81.13-99.88C509,219.08,562,153.71,562,119c0,34.71,53,100,81.13,100C615,219,562,284.29,562,319Z"/><path class="cls-2" d="M238,709c0-34.71-53-99.92-81.13-99.88C185,609.08,238,543.71,238,509c0,34.71,53,100,81.13,100C291,609,238,674.29,238,709Z"/><path class="cls-2" d="M562,709c0-34.71-53-99.92-81.13-99.88C509,609.08,562,543.71,562,509c0,34.71,53,100,81.13,100C615,609,562,674.29,562,709Z"/><path class="cls-2" d="M238,1099c0-34.71-53-99.92-81.13-99.88C185,999.08,238,933.71,238,899c0,34.71,53,100,81.13,100C291,999,238,1064.29,238,1099Z"/><path class="cls-2" d="M562,1099c0-34.71-53-99.92-81.13-99.88C509,999.08,562,933.71,562,899c0,34.71,53,100,81.13,100C615,999,562,1064.29,562,1099Z"/></g></svg>