<svg xmlns="http://www.w3.org/2000/svg" viewBox="0 0 800 1218"><defs><style>.cls-1{fill:#f2f0eb;}.cls-2{fill:#f4622f;}</style></defs><title>8h</title><g id="Layer_2" data-name="Layer 2"><rect class="cls-1" width="800" height="1218"/></g><g id="Layer_1" data-name="Layer 1"><path class="cls-2" d="M98,165.37a11.37,11.37,0,0,0-21.66-4.82,11.37,11.37,0,0,0-21.66,4.82c0,8.83,21.66,41.69,21.66,41.69S98,177,98,165.37Z"/><rect class="cls-2" x="73" y="245" width="6" height="367"/><path class="cls-2" d="M727,606h-6V88.54A37.58,37.58,0,0,0,683.46,51H148V45H683.46A43.59,43.59,0,0,1,727,88.54Z"/><path class="cls-2" d="M65.16,112.43A22.61,22.61,0,0,1,51.84,91.25,21.58,21.58,0,0,1,55.2,79.31a39.81,39.81,0,0,1,9.24-9.78Q56,63.89,56,54.29A17.62,17.62,0,0,1,59.1,44.15a21,21,0,0,1,8.34-7.08A25.88,25.88,0,0,1,79,34.49a26.54,26.54,0,0,1,11.7,2.58,22,22,0,0,1,8.52,7,16.34,16.34,0,0,1,3.18,9.72,17.44,17.44,0,0,1-2.64,9.48,27,27,0,0,1-6.6,7.2A26.12,26.12,0,0,1,103,79a21.46,21.46,0,0,1,3.72,12.48,22.39,22.39,0,0,1-3.6,12.72,23.31,23.31,0,0,1-9.78,8.28,32.72,32.72,0,0,1-14,2.88A32.84,32.84,0,0,1,65.16,112.43Zm27-10.32A14.08,14.08,0,0,0,96.84,91a12.26,12.26,0,0,0-2.64-8.1,18,18,0,0,0-7.14-5A89.09,89.09,0,0,0,75.6,74.21l-1.92-.48L71.4,75.65a44.32,44.32,0,0,0-7.68,8,12.86,12.86,0,0,0-2,7.2q0,7.2,4.74,11.28t12.9,4.08Q87.48,106.25,92.16,102.11Zm-2-41.1a10.69,10.69,0,0,0,2.22-6.72,9.54,9.54,0,0,0-3.72-7.56,14.25,14.25,0,0,0-9.48-3.12,13.91,13.91,0,0,0-9.48,3.24A10,10,0,0,0,66,54.65a8.19,8.19,0,0,0,2.28,6.24,16.5,16.5,0,0,0,6.6,3.48l7.68,2.52,1,.24A32.87,32.87,0,0,0,90.18,61Z"/><path class="cls-2" d="M702.08,1052.16a11.37,11.37,0,0,0,21.66,4.82,11.37,11.37,0,0,0,21.66-4.82c0-8.83-21.66-41.69-21.66-41.69S702.08,1040.57,702.08,1052.16Z"/><rect class="cls-2" x="720.98" y="606" width="6" height="367"/><path class="cls-2" d="M652,1173H116.52A43.59,43.59,0,0,1,73,1129.46V612h6v517.46A37.58,37.58,0,0,0,116.52,1167H652Z"/><path class="cls-2" d="M734.9,1105.1a22.61,22.61,0,0,1,13.32,21.18,21.58,21.58,0,0,1-3.36,11.94,39.81,39.81,0,0,1-9.24,9.78q8.4,5.64,8.4,15.24a17.62,17.62,0,0,1-3.06,10.14,21,21,0,0,1-8.34,7.08A25.88,25.88,0,0,1,721.1,1183a26.54,26.54,0,0,1-11.7-2.58,22,22,0,0,1-8.52-7,16.34,16.34,0,0,1-3.18-9.72,17.44,17.44,0,0,1,2.64-9.48,27,27,0,0,1,6.6-7.2,26.12,26.12,0,0,1-9.84-8.52,21.46,21.46,0,0,1-3.72-12.48,22.39,22.39,0,0,1,3.6-12.72,23.31,23.31,0,0,1,9.78-8.28,35.47,35.47,0,0,1,28.14.06Zm-27,10.32a14.08,14.08,0,0,0-4.68,11.1,12.26,12.26,0,0,0,2.64,8.1,18,18,0,0,0,7.14,5,89.09,89.09,0,0,0,11.46,3.66l1.92.48,2.28-1.92a44.32,44.32,0,0,0,7.68-8,12.86,12.86,0,0,0,2-7.2q0-7.2-4.74-11.28t-12.9-4.08Q712.58,1111.28,707.9,1115.42Zm2,41.1a10.69,10.69,0,0,0-2.22,6.72,9.54,9.54,0,0,0,3.72,7.56,14.25,14.25,0,0,0,9.48,3.12,13.91,13.91,0,0,0,9.48-3.24,10,10,0,0,0,3.72-7.8,8.19,8.19,0,0,0-2.28-6.24,16.5,16.5,0,0,0-6.6-3.48l-7.68-2.52-1-.24A32.87,32.87,0,0,0,709.88,1156.52Z"/><path class="cls-2" d="M302.81,179.64A34,34,0,0,0,238,165.22a34,34,0,0,0-64.82,14.42c0,34.67,64.8,124.74,64.8,124.74S302.81,214.31,302.81,179.64Z"/><path class="cls-2" d="M464.8,371.64A34,34,0,0,0,400,357.22a34,34,0,0,0-64.81,14.42c0,34.67,64.8,124.74,64.8,124.74S464.8,406.31,464.8,371.64Z"/><path class="cls-2" d="M464.8,755.64A34,34,0,0,0,400,741.22a34,34,0,0,0-64.81,14.42c0,34.67,64.8,124.74,64.8,124.74S464.8,790.31,464.8,755.64Z"/><path class="cls-2" d="M626.81,179.64A34,34,0,0,0,562,165.22a34,34,0,0,0-64.82,14.42c0,34.67,64.8,124.74,64.8,124.74S626.81,214.31,626.81,179.64Z"/><path class="cls-2" d="M302.81,563.64A34,34,0,0,0,238,549.22a34,34,0,0,0-64.82,14.42c0,34.67,64.8,124.74,64.8,124.74S302.81,598.31,302.81,563.64Z"/><path class="cls-2" d="M626.81,563.64A34,34,0,0,0,562,549.22a34,34,0,0,0-64.82,14.42c0,34.67,64.8,124.74,64.8,124.74S626.81,598.31,626.81,563.64Z"/><path class="cls-2" d="M302.81,947.64A34,34,0,0,0,238,933.22a34,34,0,0,0-64.82,14.42c0,34.67,64.8,124.74,64.8,124.74S302.81,982.31,302.81,947.64Z"/><path class="cls-2" d="M626.81,947.64A34,34,0,0,0,562,933.22a34,34,0,0,0-64.82,14.42c0,34.67,64.8,124.74,64.8,124.74S626.81,982.31,626.81,947.64Z"/></g></svg>