<svg xmlns="http://www.w3.org/2000/svg" viewBox="0 0 800 1218"><defs><style>.cls-1{fill:#f2f0eb;}.cls-2{fill:#3e95a3;}</style></defs><title>8s</title><g id="Layer_2" data-name="Layer 2"><rect class="cls-1" width="800" height="1218"/></g><g id="Layer_1" data-name="Layer 1"><polygon class="cls-2" points="95.75 178.07 75.07 184.66 54.39 178.07 75.07 154 95.75 178.07"/><circle class="cls-2" cx="63.52" cy="185.2" r="11.59"/><circle class="cls-2" cx="86.62" cy="185.2" r="11.59"/><path class="cls-2" d="M89.66,207H60.47a21.27,21.27,0,0,0,11.59-18.94V179h6v9.06A21.28,21.28,0,0,0,89.66,207Z"/><polygon class="cls-2" points="300.05 215.21 238 234.98 175.95 215.21 238 143 300.05 215.21"/><circle class="cls-2" cx="203.35" cy="236.59" r="34.76"/><circle class="cls-2" cx="272.65" cy="236.59" r="34.76"/><path class="cls-2" d="M281.79,302H194.21A63.84,63.84,0,0,0,229,245.17V218H247v27.17A63.84,63.84,0,0,0,281.79,302Z"/><polygon class="cls-2" points="624.04 215.21 562 234.98 499.95 215.21 562 143 624.04 215.21"/><circle class="cls-2" cx="527.35" cy="236.59" r="34.76"/><circle class="cls-2" cx="596.65" cy="236.59" r="34.76"/><path class="cls-2" d="M605.79,302H518.21A63.84,63.84,0,0,0,553,245.17V218H571v27.17A63.84,63.84,0,0,0,605.79,302Z"/><polygon class="cls-2" points="462.05 408.45 400 428.23 337.95 408.45 400 336.25 462.05 408.45"/><circle class="cls-2" cx="365.35" cy="429.84" r="34.76"/><circle class="cls-2" cx="434.65" cy="429.84" r="34.76"/><path class="cls-2" d="M443.79,495.25H356.21A63.84,63.84,0,0,0,391,438.42V411.25H409v27.17a63.84,63.84,0,0,0,34.76,56.83Z"/><polygon class="cls-2" points="462.05 795.46 400 815.23 337.95 795.46 400 723.25 462.05 795.46"/><circle class="cls-2" cx="365.35" cy="816.84" r="34.76"/><circle class="cls-2" cx="434.65" cy="816.84" r="34.76"/><path class="cls-2" d="M443.79,882.25H356.21A63.84,63.84,0,0,0,391,825.42V798.25H409v27.17a63.84,63.84,0,0,0,34.76,56.83Z"/><polygon class="cls-2" points="300.05 601.71 238 621.48 175.95 601.71 238 529.5 300.05 601.71"/><circle class="cls-2" cx="203.35" cy="623.09" r="34.76"/><circle class="cls-2" cx="272.65" cy="623.09" r="34.76"/><path class="cls-2" d="M281.79,688.5H194.21A63.84,63.84,0,0,0,229,631.67V604.5H247v27.17a63.84,63.84,0,0,0,34.76,56.83Z"/><polygon class="cls-2" points="624.04 601.71 562 621.48 499.95 601.71 562 529.5 624.04 601.71"/><circle class="cls-2" cx="527.35" cy="623.09" r="34.76"/><circle class="cls-2" cx="596.65" cy="623.09" r="34.76"/><path class="cls-2" d="M605.79,688.5H518.21A63.84,63.84,0,0,0,553,631.67V604.5H571v27.17a63.84,63.84,0,0,0,34.76,56.83Z"/><polygon class="cls-2" points="300.05 989.21 238 1008.98 175.95 989.21 238 917 300.05 989.21"/><circle class="cls-2" cx="203.35" cy="1010.59" r="34.76"/><circle class="cls-2" cx="272.65" cy="1010.59" r="34.76"/><path class="cls-2" d="M281.79,1076H194.21A63.84,63.84,0,0,0,229,1019.17V992H247v27.17A63.84,63.84,0,0,0,281.79,1076Z"/><polygon class="cls-2" points="624.04 989.21 562 1008.98 499.95 989.21 562 917 624.04 989.21"/><circle class="cls-2" cx="527.35" cy="1010.59" r="34.76"/><circle class="cls-2" cx="596.65" cy="1010.59" r="34.76"/><path class="cls-2" d="M605.79,1076H518.21A63.84,63.84,0,0,0,553,1019.17V992H571v27.17A63.84,63.84,0,0,0,605.79,1076Z"/><polygon class="cls-2" points="704.08 1044.18 724.76 1037.59 745.45 1044.18 724.76 1068.25 704.08 1044.18"/><circle class="cls-2" cx="736.5" cy="1037.5" r="11.5"/><circle class="cls-2" cx="713.5" cy="1037.5" r="11.5"/><path class="cls-2" d="M710.45,1015h29.09A21.27,21.27,0,0,0,728,1033.91V1043h-6v-9.09A21.26,21.26,0,0,0,710.45,1015Z"/><path class="cls-2" d="M62.71,114.43A22.61,22.61,0,0,1,49.39,93.25a21.58,21.58,0,0,1,3.36-11.94A39.81,39.81,0,0,1,62,71.53q-8.4-5.64-8.4-15.24a17.62,17.62,0,0,1,3.06-10.14A21,21,0,0,1,65,39.07a25.88,25.88,0,0,1,11.52-2.58,26.54,26.54,0,0,1,11.7,2.58,22,22,0,0,1,8.52,7,16.34,16.34,0,0,1,3.18,9.72,17.44,17.44,0,0,1-2.64,9.48,27,27,0,0,1-6.6,7.2A26.12,26.12,0,0,1,100.51,81a21.46,21.46,0,0,1,3.72,12.48,22.39,22.39,0,0,1-3.6,12.72,23.31,23.31,0,0,1-9.78,8.28,32.72,32.72,0,0,1-14,2.88A32.84,32.84,0,0,1,62.71,114.43Zm27-10.32A14.08,14.08,0,0,0,94.39,93a12.26,12.26,0,0,0-2.64-8.1,18,18,0,0,0-7.14-5,89.09,89.09,0,0,0-11.46-3.66l-1.92-.48L69,77.65a44.32,44.32,0,0,0-7.68,8,12.86,12.86,0,0,0-2,7.2q0,7.2,4.74,11.28t12.9,4.08Q85,108.25,89.71,104.11Zm-2-41.1A10.69,10.69,0,0,0,90,56.29a9.54,9.54,0,0,0-3.72-7.56,14.25,14.25,0,0,0-9.48-3.12,13.91,13.91,0,0,0-9.48,3.24,10,10,0,0,0-3.72,7.8,8.19,8.19,0,0,0,2.28,6.24,16.5,16.5,0,0,0,6.6,3.48l7.68,2.52,1,.24A32.87,32.87,0,0,0,87.73,63Z"/><rect class="cls-2" x="73" y="248" width="6" height="363"/><path class="cls-2" d="M727,604h-6V90.54A37.58,37.58,0,0,0,683.46,53H151V47H683.46A43.59,43.59,0,0,1,727,90.54Z"/><path class="cls-2" d="M737.36,1101a22.61,22.61,0,0,1,13.32,21.18,21.58,21.58,0,0,1-3.36,11.94,39.81,39.81,0,0,1-9.24,9.78q8.4,5.64,8.4,15.24a17.62,17.62,0,0,1-3.06,10.14,21,21,0,0,1-8.34,7.08,25.88,25.88,0,0,1-11.52,2.58,26.54,26.54,0,0,1-11.7-2.58,22,22,0,0,1-8.52-7,16.34,16.34,0,0,1-3.18-9.72,17.44,17.44,0,0,1,2.64-9.48,27,27,0,0,1,6.6-7.2,26.12,26.12,0,0,1-9.84-8.52,21.46,21.46,0,0,1-3.72-12.48,22.39,22.39,0,0,1,3.6-12.72,23.31,23.31,0,0,1,9.78-8.28,35.47,35.47,0,0,1,28.14.06Zm-27,10.32a14.08,14.08,0,0,0-4.68,11.1,12.26,12.26,0,0,0,2.64,8.1,18,18,0,0,0,7.14,5,89.09,89.09,0,0,0,11.46,3.66l1.92.48,2.28-1.92a44.32,44.32,0,0,0,7.68-8,12.86,12.86,0,0,0,2-7.2q0-7.2-4.74-11.28t-12.9-4.08Q715,1107.16,710.36,1111.3Zm2,41.1a10.69,10.69,0,0,0-2.22,6.72,9.54,9.54,0,0,0,3.72,7.56,14.25,14.25,0,0,0,9.48,3.12,13.91,13.91,0,0,0,9.48-3.24,10,10,0,0,0,3.72-7.8,8.19,8.19,0,0,0-2.28-6.24,16.5,16.5,0,0,0-6.6-3.48l-7.68-2.52-1-.24A32.87,32.87,0,0,0,712.34,1152.4Z"/><rect class="cls-2" x="721" y="604" width="6" height="363"/><path class="cls-2" d="M649,1168H116.54A43.59,43.59,0,0,1,73,1124.46V611h6v513.46A37.58,37.58,0,0,0,116.54,1162H649Z"/></g></svg>