<svg xmlns="http://www.w3.org/2000/svg" viewBox="0 0 800 1267"><defs><style>.cls-1{fill:#f2f0eb;}.cls-2{fill:#3e95a3;}</style></defs><title>8s</title><g id="Layer_2" data-name="Layer 2"><rect class="cls-1" width="800" height="1267"/></g><g id="Layer_1" data-name="Layer 1"><polygon class="cls-2" points="95.75 204.07 75.07 210.66 54.39 204.07 75.07 180 95.75 204.07"/><circle class="cls-2" cx="63.52" cy="211.2" r="11.59"/><circle class="cls-2" cx="86.62" cy="211.2" r="11.59"/><path class="cls-2" d="M89.66,233H60.47a21.27,21.27,0,0,0,11.59-18.94V205h6v9.06A21.28,21.28,0,0,0,89.66,233Z"/><polygon class="cls-2" points="300.05 241.21 238 260.98 175.95 241.21 238 169 300.05 241.21"/><circle class="cls-2" cx="203.35" cy="262.59" r="34.76"/><circle class="cls-2" cx="272.65" cy="262.59" r="34.76"/><path class="cls-2" d="M281.79,328H194.21A63.84,63.84,0,0,0,229,271.17V244H247v27.17A63.84,63.84,0,0,0,281.79,328Z"/><polygon class="cls-2" points="624.04 241.21 562 260.98 499.95 241.21 562 169 624.04 241.21"/><circle class="cls-2" cx="527.35" cy="262.59" r="34.76"/><circle class="cls-2" cx="596.65" cy="262.59" r="34.76"/><path class="cls-2" d="M605.79,328H518.21A63.84,63.84,0,0,0,553,271.17V244H571v27.17A63.84,63.84,0,0,0,605.79,328Z"/><polygon class="cls-2" points="462.05 434.45 400 454.23 337.95 434.45 400 362.25 462.05 434.45"/><circle class="cls-2" cx="365.35" cy="455.84" r="34.76"/><circle class="cls-2" cx="434.65" cy="455.84" r="34.76"/><path class="cls-2" d="M443.79,521.25H356.21A63.84,63.84,0,0,0,391,464.42V437.25H409v27.17a63.84,63.84,0,0,0,34.76,56.83Z"/><polygon class="cls-2" points="462.05 821.46 400 841.23 337.95 821.46 400 749.25 462.05 821.46"/><circle class="cls-2" cx="365.35" cy="842.84" r="34.76"/><circle class="cls-2" cx="434.65" cy="842.84" r="34.76"/><path class="cls-2" d="M443.79,908.25H356.21A63.84,63.84,0,0,0,391,851.42V824.25H409v27.17a63.84,63.84,0,0,0,34.76,56.83Z"/><polygon class="cls-2" points="300.05 627.71 238 647.48 175.95 627.71 238 555.5 300.05 627.71"/><circle class="cls-2" cx="203.35" cy="649.09" r="34.76"/><circle class="cls-2" cx="272.65" cy="649.09" r="34.76"/><path class="cls-2" d="M281.79,714.5H194.21A63.84,63.84,0,0,0,229,657.67V630.5H247v27.17a63.84,63.84,0,0,0,34.76,56.83Z"/><polygon class="cls-2" points="624.04 627.71 562 647.48 499.95 627.71 562 555.5 624.04 627.71"/><circle class="cls-2" cx="527.35" cy="649.09" r="34.76"/><circle class="cls-2" cx="596.65" cy="649.09" r="34.76"/><path class="cls-2" d="M605.79,714.5H518.21A63.84,63.84,0,0,0,553,657.67V630.5H571v27.17a63.84,63.84,0,0,0,34.76,56.83Z"/><polygon class="cls-2" points="300.05 1015.21 238 1034.98 175.95 1015.21 238 943 300.05 1015.21"/><circle class="cls-2" cx="203.35" cy="1036.59" r="34.76"/><circle class="cls-2" cx="272.65" cy="1036.59" r="34.76"/><path class="cls-2" d="M281.79,1102H194.21A63.84,63.84,0,0,0,229,1045.17V1018H247v27.17A63.84,63.84,0,0,0,281.79,1102Z"/><polygon class="cls-2" points="624.04 1015.21 562 1034.98 499.95 1015.21 562 943 624.04 1015.21"/><circle class="cls-2" cx="527.35" cy="1036.59" r="34.76"/><circle class="cls-2" cx="596.65" cy="1036.59" r="34.76"/><path class="cls-2" d="M605.79,1102H518.21A63.84,63.84,0,0,0,553,1045.17V1018H571v27.17A63.84,63.84,0,0,0,605.79,1102Z"/><polygon class="cls-2" points="704.08 1070.18 724.76 1063.59 745.45 1070.18 724.76 1094.25 704.08 1070.18"/><circle class="cls-2" cx="736.5" cy="1063.5" r="11.5"/><circle class="cls-2" cx="713.5" cy="1063.5" r="11.5"/><path class="cls-2" d="M710.45,1041h29.09A21.27,21.27,0,0,0,728,1059.91V1069h-6v-9.09A21.26,21.26,0,0,0,710.45,1041Z"/><path class="cls-2" d="M62.71,140.43a22.61,22.61,0,0,1-13.32-21.18,21.58,21.58,0,0,1,3.36-11.94A39.81,39.81,0,0,1,62,97.53q-8.4-5.64-8.4-15.24a17.62,17.62,0,0,1,3.06-10.14A21,21,0,0,1,65,65.07a25.88,25.88,0,0,1,11.52-2.58,26.54,26.54,0,0,1,11.7,2.58,22,22,0,0,1,8.52,7,16.34,16.34,0,0,1,3.18,9.72,17.44,17.44,0,0,1-2.64,9.48,27,27,0,0,1-6.6,7.2,26.12,26.12,0,0,1,9.84,8.52,21.46,21.46,0,0,1,3.72,12.48,22.39,22.39,0,0,1-3.6,12.72,23.31,23.31,0,0,1-9.78,8.28,32.72,32.72,0,0,1-14,2.88A32.84,32.84,0,0,1,62.71,140.43Zm27-10.32A14.08,14.08,0,0,0,94.39,119a12.26,12.26,0,0,0-2.64-8.1,18,18,0,0,0-7.14-5,89.09,89.09,0,0,0-11.46-3.66l-1.92-.48L69,103.65a44.32,44.32,0,0,0-7.68,8,12.86,12.86,0,0,0-2,7.2q0,7.2,4.74,11.28t12.9,4.08Q85,134.25,89.71,130.11Zm-2-41.1A10.69,10.69,0,0,0,90,82.29a9.54,9.54,0,0,0-3.72-7.56,14.25,14.25,0,0,0-9.48-3.12,13.91,13.91,0,0,0-9.48,3.24,10,10,0,0,0-3.72,7.8,8.19,8.19,0,0,0,2.28,6.24,16.5,16.5,0,0,0,6.6,3.48l7.68,2.52,1,.24A32.87,32.87,0,0,0,87.73,89Z"/><rect class="cls-2" x="73" y="274" width="6" height="363"/><path class="cls-2" d="M727,630h-6V116.54A37.58,37.58,0,0,0,683.46,79H151V73H683.46A43.59,43.59,0,0,1,727,116.54Z"/><path class="cls-2" d="M737.36,1127a22.61,22.61,0,0,1,13.32,21.18,21.58,21.58,0,0,1-3.36,11.94,39.81,39.81,0,0,1-9.24,9.78q8.4,5.64,8.4,15.24a17.62,17.62,0,0,1-3.06,10.14,21,21,0,0,1-8.34,7.08,25.88,25.88,0,0,1-11.52,2.58,26.54,26.54,0,0,1-11.7-2.58,22,22,0,0,1-8.52-7,16.34,16.34,0,0,1-3.18-9.72,17.44,17.44,0,0,1,2.64-9.48,27,27,0,0,1,6.6-7.2,26.12,26.12,0,0,1-9.84-8.52,21.46,21.46,0,0,1-3.72-12.48,22.39,22.39,0,0,1,3.6-12.72,23.31,23.31,0,0,1,9.78-8.28,35.47,35.47,0,0,1,28.14.06Zm-27,10.32a14.08,14.08,0,0,0-4.68,11.1,12.26,12.26,0,0,0,2.64,8.1,18,18,0,0,0,7.14,5,89.09,89.09,0,0,0,11.46,3.66l1.92.48,2.28-1.92a44.32,44.32,0,0,0,7.68-8,12.86,12.86,0,0,0,2-7.2q0-7.2-4.74-11.28t-12.9-4.08Q715,1133.16,710.36,1137.3Zm2,41.1a10.69,10.69,0,0,0-2.22,6.72,9.54,9.54,0,0,0,3.72,7.56,14.25,14.25,0,0,0,9.48,3.12,13.91,13.91,0,0,0,9.48-3.24,10,10,0,0,0,3.72-7.8,8.19,8.19,0,0,0-2.28-6.24,16.5,16.5,0,0,0-6.6-3.48l-7.68-2.52-1-.24A32.87,32.87,0,0,0,712.34,1178.4Z"/><rect class="cls-2" x="721" y="630" width="6" height="363"/><path class="cls-2" d="M649,1194H116.54A43.59,43.59,0,0,1,73,1150.46V637h6v513.46A37.58,37.58,0,0,0,116.54,1188H649Z"/></g></svg>