<svg xmlns="http://www.w3.org/2000/svg" viewBox="0 0 800 1218"><defs><style>.cls-1{fill:#f2f0eb;}.cls-2{fill:#3e95a3;}</style></defs><title>9s</title><g id="Layer_2" data-name="Layer 2"><rect class="cls-1" width="800" height="1218"/></g><g id="Layer_1" data-name="Layer 1"><polygon class="cls-2" points="95.75 178.07 75.07 184.66 54.39 178.07 75.07 154 95.75 178.07"/><circle class="cls-2" cx="63.52" cy="185.2" r="11.59"/><circle class="cls-2" cx="86.62" cy="185.2" r="11.59"/><path class="cls-2" d="M89.66,207H60.47a21.27,21.27,0,0,0,11.59-18.94V179h6v9.06A21.28,21.28,0,0,0,89.66,207Z"/><polygon class="cls-2" points="300.05 215.21 238 234.98 175.95 215.21 238 143 300.05 215.21"/><circle class="cls-2" cx="203.35" cy="236.59" r="34.76"/><circle class="cls-2" cx="272.65" cy="236.59" r="34.76"/><path class="cls-2" d="M281.79,302H194.21A63.84,63.84,0,0,0,229,245.17V218H247v27.17A63.84,63.84,0,0,0,281.79,302Z"/><polygon class="cls-2" points="624.04 215.21 562 234.98 499.95 215.21 562 143 624.04 215.21"/><circle class="cls-2" cx="527.35" cy="236.59" r="34.76"/><circle class="cls-2" cx="596.65" cy="236.59" r="34.76"/><path class="cls-2" d="M605.79,302H518.21A63.84,63.84,0,0,0,553,245.17V218H571v27.17A63.84,63.84,0,0,0,605.79,302Z"/><polygon class="cls-2" points="300.05 477.2 238 496.98 175.95 477.2 238 405 300.05 477.2"/><circle class="cls-2" cx="203.35" cy="498.59" r="34.76"/><circle class="cls-2" cx="272.65" cy="498.59" r="34.76"/><path class="cls-2" d="M281.79,564H194.21A63.84,63.84,0,0,0,229,507.17V480H247v27.17A63.84,63.84,0,0,0,281.79,564Z"/><polygon class="cls-2" points="624.04 477.2 562 496.98 499.95 477.2 562 405 624.04 477.2"/><circle class="cls-2" cx="527.35" cy="498.59" r="34.76"/><circle class="cls-2" cx="596.65" cy="498.59" r="34.76"/><path class="cls-2" d="M605.79,564H518.21A63.84,63.84,0,0,0,553,507.17V480H571v27.17A63.84,63.84,0,0,0,605.79,564Z"/><polygon class="cls-2" points="462.05 601.71 400 621.48 337.95 601.71 400 529.5 462.05 601.71"/><circle class="cls-2" cx="365.35" cy="623.09" r="34.76"/><circle class="cls-2" cx="434.65" cy="623.09" r="34.76"/><path class="cls-2" d="M443.79,688.5H356.21A63.84,63.84,0,0,0,391,631.67V604.5H409v27.17a63.84,63.84,0,0,0,34.76,56.83Z"/><polygon class="cls-2" points="300.05 733.21 238 752.98 175.95 733.21 238 661 300.05 733.21"/><circle class="cls-2" cx="203.35" cy="754.59" r="34.76"/><circle class="cls-2" cx="272.65" cy="754.59" r="34.76"/><path class="cls-2" d="M281.79,820H194.21A63.84,63.84,0,0,0,229,763.17V736H247v27.17A63.84,63.84,0,0,0,281.79,820Z"/><polygon class="cls-2" points="624.04 733.21 562 752.98 499.95 733.21 562 661 624.04 733.21"/><circle class="cls-2" cx="527.35" cy="754.59" r="34.76"/><circle class="cls-2" cx="596.65" cy="754.59" r="34.76"/><path class="cls-2" d="M605.79,820H518.21A63.84,63.84,0,0,0,553,763.17V736H571v27.17A63.84,63.84,0,0,0,605.79,820Z"/><polygon class="cls-2" points="300.05 989.21 238 1008.98 175.95 989.21 238 917 300.05 989.21"/><circle class="cls-2" cx="203.35" cy="1010.59" r="34.76"/><circle class="cls-2" cx="272.65" cy="1010.59" r="34.76"/><path class="cls-2" d="M281.79,1076H194.21A63.84,63.84,0,0,0,229,1019.17V992H247v27.17A63.84,63.84,0,0,0,281.79,1076Z"/><polygon class="cls-2" points="624.04 989.21 562 1008.98 499.95 989.21 562 917 624.04 989.21"/><circle class="cls-2" cx="527.35" cy="1010.59" r="34.76"/><circle class="cls-2" cx="596.65" cy="1010.59" r="34.76"/><path class="cls-2" d="M605.79,1076H518.21A63.84,63.84,0,0,0,553,1019.17V992H571v27.17A63.84,63.84,0,0,0,605.79,1076Z"/><polygon class="cls-2" points="704.08 1044.18 724.76 1037.59 745.45 1044.18 724.76 1068.25 704.08 1044.18"/><circle class="cls-2" cx="736.5" cy="1037.5" r="11.5"/><circle class="cls-2" cx="713.5" cy="1037.5" r="11.5"/><path class="cls-2" d="M710.45,1015h29.09A21.27,21.27,0,0,0,728,1033.91V1043h-6v-9.09A21.26,21.26,0,0,0,710.45,1015Z"/><path class="cls-2" d="M92.47,40.93a28.27,28.27,0,0,1,10.44,11.7A38.54,38.54,0,0,1,106.63,70a44.5,44.5,0,0,1-5.58,22,49,49,0,0,1-16,17,43.32,43.32,0,0,1-13,6,48.08,48.08,0,0,1-14.34,1.68v-8.88a37.23,37.23,0,0,0,11.52-1.38,41.26,41.26,0,0,0,11-4.86,36.49,36.49,0,0,0,9.54-9.06,35,35,0,0,0,5.82-11.82,21.2,21.2,0,0,1-8.22,8,21.59,21.59,0,0,1-10.86,3.24,27.16,27.16,0,0,1-13.92-3.78A28.19,28.19,0,0,1,52.33,78a26.63,26.63,0,0,1-3.78-13.74,26.22,26.22,0,0,1,3.84-13.8,27.74,27.74,0,0,1,10.38-10,30.06,30.06,0,0,1,29.7.54ZM67.63,48.37a19.14,19.14,0,0,0-6.72,6.78,18,18,0,0,0,0,18.36,19.14,19.14,0,0,0,6.72,6.78,17.2,17.2,0,0,0,9,2.52,18.48,18.48,0,0,0,9.48-2.52A18.84,18.84,0,0,0,93,73.51a18.16,18.16,0,0,0,2.52-9.42,17.2,17.2,0,0,0-2.52-9,19,19,0,0,0-6.84-6.72,18,18,0,0,0-9.24-2.52A17.62,17.62,0,0,0,67.63,48.37Z"/><rect class="cls-2" x="73" y="248" width="6" height="363"/><path class="cls-2" d="M727,604h-6V90.54A37.58,37.58,0,0,0,683.46,53H151V47H683.46A43.59,43.59,0,0,1,727,90.54Z"/><path class="cls-2" d="M707.6,1174.48a28.27,28.27,0,0,1-10.44-11.7,38.54,38.54,0,0,1-3.72-17.34,44.5,44.5,0,0,1,5.58-22,49,49,0,0,1,16-17,43.32,43.32,0,0,1,13-6,48.08,48.08,0,0,1,14.34-1.68v8.88a37.23,37.23,0,0,0-11.52,1.38,41.26,41.26,0,0,0-11,4.86,36.49,36.49,0,0,0-9.54,9.06,35,35,0,0,0-5.82,11.82,21.2,21.2,0,0,1,8.22-8,21.59,21.59,0,0,1,10.86-3.24,27.16,27.16,0,0,1,13.92,3.78,28.19,28.19,0,0,1,10.26,10.2,26.63,26.63,0,0,1,3.78,13.74,26.22,26.22,0,0,1-3.84,13.8,27.74,27.74,0,0,1-10.38,10,30.06,30.06,0,0,1-29.7-.54Zm24.84-7.44a19.14,19.14,0,0,0,6.72-6.78,18,18,0,0,0,0-18.36,19.14,19.14,0,0,0-6.72-6.78,17.2,17.2,0,0,0-9-2.52,18.48,18.48,0,0,0-9.48,2.52,18.84,18.84,0,0,0-6.84,6.78,18.16,18.16,0,0,0-2.52,9.42,17.2,17.2,0,0,0,2.52,9A19,19,0,0,0,714,1167a18,18,0,0,0,9.24,2.52A17.62,17.62,0,0,0,732.44,1167Z"/><rect class="cls-2" x="721" y="604" width="6" height="363"/><path class="cls-2" d="M649,1168H116.54A43.59,43.59,0,0,1,73,1124.46V611h6v513.46A37.58,37.58,0,0,0,116.54,1162H649Z"/></g></svg>