<svg xmlns="http://www.w3.org/2000/svg" viewBox="0 0 800 1218"><defs><style>.cls-1{fill:#f2f0eb;}.cls-2{fill:#3e95a3;}.cls-3{fill:#d39c53;}.cls-4{fill:#27282b;}</style></defs><title>Ac</title><g id="Layer_2" data-name="Layer 2"><rect class="cls-1" width="800" height="1218"/></g><g id="Layer_1" data-name="Layer 1"><circle class="cls-2" cx="400" cy="458" r="154"/><circle class="cls-2" cx="269.1" cy="658.19" r="130.9"/><circle class="cls-2" cx="531.29" cy="660.78" r="130.9"/><path class="cls-2" d="M564.15,904.59h-336a241.64,241.64,0,0,0,133.35-216V588.9h69.3v99.67a241.64,241.64,0,0,0,133.35,216Z"/><path class="cls-3" d="M228.15,905H400V304.41A154,154,0,0,0,262.53,527.87a130.9,130.9,0,1,0,88,233.26A241.68,241.68,0,0,1,228.15,905Z"/><circle class="cls-1" cx="400" cy="604" r="133"/><rect class="cls-2" x="77" y="608" width="45" height="6"/><rect class="cls-2" x="679" y="608" width="45" height="6"/><rect class="cls-2" x="397" y="50" width="6" height="228"/><rect class="cls-2" x="397" y="930" width="6" height="242"/><circle class="cls-2" cx="400" cy="164" r="14"/><circle class="cls-2" cx="400" cy="1051" r="14"/><circle class="cls-4" cx="399.94" cy="556.74" r="49.74"/><circle class="cls-4" cx="357.65" cy="621.41" r="42.28"/><circle class="cls-2" cx="442.35" cy="622.25" r="42.28"/><path class="cls-4" d="M453,701H344.43a78.06,78.06,0,0,0,43.07-69.78V599h22.39v32.19A78.06,78.06,0,0,0,453,701Z"/><path class="cls-4" d="M484.63,622.25A42.29,42.29,0,0,0,443.91,580,49.75,49.75,0,0,0,400,507V701h53a78,78,0,0,1-40.11-48.47,42.27,42.27,0,0,0,71.78-30.28Z"/><path class="cls-2" d="M37.15,114.19a10.58,10.58,0,0,1-3.72-6.06l7.08-3.84a5,5,0,0,0,1.26,2.46,2.88,2.88,0,0,0,2.1.9,2.69,2.69,0,0,0,2-.9,9,9,0,0,0,1.56-2.58l30-71.28h4.08l35.16,82.68H106.27l-11-26.52H64l-8.52,20.4a10.69,10.69,0,0,1-4.44,5.16,12,12,0,0,1-6.36,1.92A11.62,11.62,0,0,1,37.15,114.19Zm54-34L79.63,49.69l-.24-1.8-.12,1.8L67.63,80.17Z"/><rect class="cls-2" x="73" y="248" width="6" height="363"/><path class="cls-2" d="M727,604h-6V90.54A37.58,37.58,0,0,0,683.46,53H151V47H683.46A43.59,43.59,0,0,1,727,90.54Z"/><circle class="cls-2" cx="75.07" cy="169.42" r="13.42"/><circle class="cls-2" cx="63.52" cy="187.2" r="11.59"/><circle class="cls-2" cx="86.62" cy="187.2" r="11.59"/><path class="cls-2" d="M89.66,209H60.47a21.29,21.29,0,0,0,11.59-18.94V181h6v9.06A21.28,21.28,0,0,0,89.66,209Z"/><path class="cls-2" d="M762.68,1101.22a10.58,10.58,0,0,1,3.72,6.06l-7.08,3.84a5,5,0,0,0-1.26-2.46,2.88,2.88,0,0,0-2.1-.9,2.69,2.69,0,0,0-2,.9,9,9,0,0,0-1.56,2.58l-30,71.28h-4.08l-35.16-82.68h10.44l11,26.52h31.2l8.52-20.4a10.69,10.69,0,0,1,4.44-5.16,12,12,0,0,1,6.36-1.92A11.62,11.62,0,0,1,762.68,1101.22Zm-54,34,11.52,30.48.24,1.8.12-1.8,11.64-30.48Z"/><rect class="cls-2" x="721" y="604" width="6" height="363"/><path class="cls-2" d="M649,1168H116.54A43.59,43.59,0,0,1,73,1124.46V611h6v513.46A37.58,37.58,0,0,0,116.54,1162H649Z"/><circle class="cls-2" cx="724.5" cy="1045.5" r="13.5"/><circle class="cls-2" cx="736.5" cy="1028.5" r="11.5"/><circle class="cls-2" cx="713.5" cy="1028.5" r="11.5"/><path class="cls-2" d="M710.45,1006h29.1A21.26,21.26,0,0,0,728,1024.91V1034h-6v-9.09A21.26,21.26,0,0,0,710.45,1006Z"/></g></svg>