<svg xmlns="http://www.w3.org/2000/svg" viewBox="0 0 800 1274"><defs><style>.cls-1{fill:#f2f0eb;}.cls-2{fill:#d8491d;}.cls-3{fill:#d39c53;}.cls-4{fill:#27282b;}</style></defs><title>Ad</title><g id="Layer_2" data-name="Layer 2"><rect class="cls-1" width="800" height="1274"/></g><g id="Layer_1" data-name="Layer 1"><path class="cls-2" d="M392.13,938.77,400,959l7.87-20.23A609.55,609.55,0,0,1,662.37,637a609.55,609.55,0,0,1-254.5-301.77L400,315l-7.87,20.23A609.55,609.55,0,0,1,137.63,637,609.55,609.55,0,0,1,392.13,938.77Z"/><path class="cls-3" d="M392.13,938.77,400,959V315l-7.87,20.23A609.55,609.55,0,0,1,137.63,637,609.55,609.55,0,0,1,392.13,938.77Z"/><circle class="cls-1" cx="400" cy="637" r="133"/><path class="cls-4" d="M397.42,735.88l2.58,6.63,2.58-6.63A199.76,199.76,0,0,1,486,637a199.76,199.76,0,0,1-83.39-98.88L400,531.49l-2.58,6.63A199.76,199.76,0,0,1,314,637,199.76,199.76,0,0,1,397.42,735.88Z"/><path class="cls-4" d="M400,742.51l2.58-6.63A199.76,199.76,0,0,1,486,637a199.76,199.76,0,0,1-83.39-98.88L400,531.49Z"/><rect class="cls-2" x="77" y="634" width="45" height="6"/><rect class="cls-2" x="679" y="634" width="45" height="6"/><rect class="cls-2" x="397" y="76" width="6" height="220"/><rect class="cls-2" x="397" y="978" width="6" height="220"/><circle class="cls-2" cx="400" cy="186" r="14"/><circle class="cls-2" cx="400" cy="1088" r="14"/><rect class="cls-2" x="73" y="273" width="6" height="367"/><path class="cls-2" d="M727,634h-6V116.54A37.58,37.58,0,0,0,683.46,79H148V73H683.46A43.59,43.59,0,0,1,727,116.54Z"/><path class="cls-2" d="M38.58,140.19a10.58,10.58,0,0,1-3.72-6.06l7.08-3.84a5,5,0,0,0,1.26,2.46,2.88,2.88,0,0,0,2.1.9,2.69,2.69,0,0,0,2-.9,9,9,0,0,0,1.56-2.58l30-71.28H83l35.16,82.68H107.7l-11-26.52H65.46l-8.52,20.4a10.69,10.69,0,0,1-4.44,5.16,12,12,0,0,1-6.36,1.92A11.62,11.62,0,0,1,38.58,140.19Zm54-34L81.06,75.69l-.24-1.8-.12,1.8L69.06,106.17Z"/><path class="cls-2" d="M76.5,240.57c0-11.14-17-32-26-32,9,0,26-21,26-32.11,0,11.14,17,32.07,26,32.07C93.49,208.5,76.5,229.43,76.5,240.57Z"/><rect class="cls-2" x="721" y="634" width="6" height="367"/><path class="cls-2" d="M652,1201H116.54A43.59,43.59,0,0,1,73,1157.46V640h6v517.46A37.58,37.58,0,0,0,116.54,1195H652Z"/><path class="cls-2" d="M761.66,1133.72a10.58,10.58,0,0,1,3.72,6.06l-7.08,3.84a5,5,0,0,0-1.26-2.46,2.88,2.88,0,0,0-2.1-.9,2.69,2.69,0,0,0-2,.9,9,9,0,0,0-1.56,2.58l-30,71.28h-4.08l-35.16-82.68h10.44l11,26.52h31.2l8.52-20.4a10.69,10.69,0,0,1,4.44-5.16,12,12,0,0,1,6.36-1.92A11.62,11.62,0,0,1,761.66,1133.72Zm-54,34,11.52,30.48.24,1.8.12-1.8,11.64-30.48Z"/><path class="cls-2" d="M723.74,1033.34c0,11.13,17,32,26,32-9,0-26,21-26,32.1,0-11.13-17-32.06-26-32.06C706.75,1065.41,723.74,1044.47,723.74,1033.34Z"/></g></svg>