<svg xmlns="http://www.w3.org/2000/svg" viewBox="0 0 800 1218"><defs><style>.cls-1{fill:#f2f0eb;}.cls-2{fill:#f4622f;}.cls-3{fill:#d39c53;}.cls-4{fill:#27282b;}</style></defs><title>Ad</title><g id="Layer_2" data-name="Layer 2"><rect class="cls-1" width="800" height="1218"/></g><g id="Layer_1" data-name="Layer 1"><path class="cls-2" d="M392.13,909.77,400,930l7.87-20.23A609.55,609.55,0,0,1,662.37,608a609.55,609.55,0,0,1-254.5-301.77L400,286l-7.87,20.23A609.55,609.55,0,0,1,137.63,608,609.55,609.55,0,0,1,392.13,909.77Z"/><path class="cls-3" d="M392.13,909.77,400,930V286l-7.87,20.23A609.55,609.55,0,0,1,137.63,608,609.55,609.55,0,0,1,392.13,909.77Z"/><circle class="cls-1" cx="400" cy="608" r="133"/><path class="cls-4" d="M397.42,706.88l2.58,6.63,2.58-6.63A199.76,199.76,0,0,1,486,608a199.76,199.76,0,0,1-83.39-98.88L400,502.49l-2.58,6.63A199.76,199.76,0,0,1,314,608,199.76,199.76,0,0,1,397.42,706.88Z"/><path class="cls-4" d="M400,713.51l2.58-6.63A199.76,199.76,0,0,1,486,608a199.76,199.76,0,0,1-83.39-98.88L400,502.49Z"/><rect class="cls-2" x="77" y="605" width="45" height="6"/><rect class="cls-2" x="679" y="605" width="45" height="6"/><rect class="cls-2" x="397" y="47" width="6" height="220"/><rect class="cls-2" x="397" y="949" width="6" height="220"/><circle class="cls-2" cx="400" cy="157" r="14"/><circle class="cls-2" cx="400" cy="1059" r="14"/><rect class="cls-2" x="73" y="244" width="6" height="367"/><path class="cls-2" d="M727,605h-6V87.54A37.58,37.58,0,0,0,683.46,50H148V44H683.46A43.59,43.59,0,0,1,727,87.54Z"/><path class="cls-2" d="M38.58,111.19a10.58,10.58,0,0,1-3.72-6.06l7.08-3.84a5,5,0,0,0,1.26,2.46,2.88,2.88,0,0,0,2.1.9,2.69,2.69,0,0,0,2-.9,9,9,0,0,0,1.56-2.58l30-71.28H83l35.16,82.68H107.7l-11-26.52H65.46l-8.52,20.4a10.69,10.69,0,0,1-4.44,5.16,12,12,0,0,1-6.36,1.92A11.62,11.62,0,0,1,38.58,111.19Zm54-34L81.06,46.69l-.24-1.8-.12,1.8L69.06,77.17Z"/><path class="cls-2" d="M76.5,211.57c0-11.14-17-32-26-32,9,0,26-21,26-32.11,0,11.14,17,32.07,26,32.07C93.49,179.5,76.5,200.43,76.5,211.57Z"/><rect class="cls-2" x="721" y="605" width="6" height="367"/><path class="cls-2" d="M652,1172H116.54A43.59,43.59,0,0,1,73,1128.46V611h6v517.46A37.58,37.58,0,0,0,116.54,1166H652Z"/><path class="cls-2" d="M761.66,1104.72a10.58,10.58,0,0,1,3.72,6.06l-7.08,3.84a5,5,0,0,0-1.26-2.46,2.88,2.88,0,0,0-2.1-.9,2.69,2.69,0,0,0-2,.9,9,9,0,0,0-1.56,2.58l-30,71.28h-4.08l-35.16-82.68h10.44l11,26.52h31.2l8.52-20.4a10.69,10.69,0,0,1,4.44-5.16,12,12,0,0,1,6.36-1.92A11.62,11.62,0,0,1,761.66,1104.72Zm-54,34,11.52,30.48.24,1.8.12-1.8,11.64-30.48Z"/><path class="cls-2" d="M723.74,1004.34c0,11.13,17,32,26,32-9,0-26,21-26,32.1,0-11.13-17-32.06-26-32.06C706.75,1036.41,723.74,1015.47,723.74,1004.34Z"/></g></svg>