<svg xmlns="http://www.w3.org/2000/svg" viewBox="0 0 800 1218"><defs><style>.cls-1{fill:#f2f0eb;}.cls-2{fill:#f4622f;}.cls-3{fill:#d39c53;}.cls-4{fill:#27282b;}</style></defs><title>Ah</title><g id="Layer_2" data-name="Layer 2"><rect class="cls-1" width="800" height="1218"/></g><g id="Layer_1" data-name="Layer 1"><path class="cls-2" d="M663,424.93a138,138,0,0,0-263-58.51v.12l0-.12a138,138,0,0,0-263,58.51c0,140.71,263,506.19,263,506.19l0-.19v.19S663,565.64,663,424.93Z"/><path class="cls-3" d="M399,366.42v.12l0-.12a138,138,0,0,0-263,58.51c0,140.71,263,506.19,263,506.19l0-.19V366.42Z"/><circle class="cls-1" cx="400" cy="576" r="133"/><rect class="cls-2" x="77" y="606" width="45" height="6"/><rect class="cls-2" x="679" y="606" width="45" height="6"/><rect class="cls-2" x="397" y="48" width="6" height="220"/><rect class="cls-2" x="397" y="950" width="6" height="220"/><circle class="cls-2" cx="400" cy="158" r="14"/><circle class="cls-2" cx="400" cy="1060" r="14"/><path class="cls-4" d="M473.74,534.38A38.69,38.69,0,0,0,400,518a38.7,38.7,0,0,0-73.75,16.4c0,39.46,73.74,142,73.74,142v0S473.74,573.84,473.74,534.38Z"/><path class="cls-4" d="M473.74,534.38A38.69,38.69,0,0,0,400,518s0,158.35,0,158.35v0S473.74,573.84,473.74,534.38Z"/><path class="cls-2" d="M98,165.37a11.37,11.37,0,0,0-21.66-4.82,11.37,11.37,0,0,0-21.66,4.82c0,8.83,21.66,41.69,21.66,41.69S98,177,98,165.37Z"/><rect class="cls-2" x="73" y="245" width="6" height="367"/><path class="cls-2" d="M727,606h-6V88.54A37.58,37.58,0,0,0,683.46,51H148V45H683.46A43.59,43.59,0,0,1,727,88.54Z"/><path class="cls-2" d="M38.4,112.19a10.58,10.58,0,0,1-3.72-6.06l7.08-3.84A5,5,0,0,0,43,104.75a2.88,2.88,0,0,0,2.1.9,2.69,2.69,0,0,0,2-.9,9,9,0,0,0,1.56-2.58l30-71.28H82.8L118,113.57H107.52l-11-26.52H65.28l-8.52,20.4a10.69,10.69,0,0,1-4.44,5.16A12,12,0,0,1,46,114.53,11.62,11.62,0,0,1,38.4,112.19Zm54-34L80.88,47.69l-.24-1.8-.12,1.8L68.88,78.17Z"/><path class="cls-2" d="M702.08,1052.16a11.37,11.37,0,0,0,21.66,4.82,11.37,11.37,0,0,0,21.66-4.82c0-8.83-21.66-41.69-21.66-41.69S702.08,1040.57,702.08,1052.16Z"/><rect class="cls-2" x="720.98" y="606" width="6" height="367"/><path class="cls-2" d="M652,1173H116.52A43.59,43.59,0,0,1,73,1129.46V612h6v517.46A37.58,37.58,0,0,0,116.52,1167H652Z"/><path class="cls-2" d="M761.66,1105.34a10.58,10.58,0,0,1,3.72,6.06l-7.08,3.84a5,5,0,0,0-1.26-2.46,2.88,2.88,0,0,0-2.1-.9,2.69,2.69,0,0,0-2,.9,9,9,0,0,0-1.56,2.58l-30,71.28h-4.08L682.1,1104h10.44l11,26.52h31.2l8.52-20.4a10.69,10.69,0,0,1,4.44-5.16,12,12,0,0,1,6.36-1.92A11.62,11.62,0,0,1,761.66,1105.34Zm-54,34,11.52,30.48.24,1.8.12-1.8,11.64-30.48Z"/></g></svg>