<svg xmlns="http://www.w3.org/2000/svg" viewBox="0 0 800 1274"><defs><style>.cls-1{fill:#f2f0eb;}.cls-2{fill:#3e95a3;}.cls-3{fill:#d39c53;}.cls-4{fill:#27282b;}</style></defs><title>As</title><g id="Layer_2" data-name="Layer 2"><rect class="cls-1" width="800" height="1274"/></g><g id="Layer_1" data-name="Layer 1"><polygon class="cls-2" points="633.03 602.47 398.75 677.13 164.47 602.47 398.75 329.83 633.03 602.47"/><circle class="cls-2" cx="267.92" cy="683.23" r="131.23"/><circle class="cls-2" cx="529.59" cy="683.23" r="131.23"/><path class="cls-2" d="M564.09,930.2H233.42A241.07,241.07,0,0,0,364.65,715.61V613h68.2V715.61A241.06,241.06,0,0,0,564.09,930.2Z"/><path class="cls-3" d="M233.42,930.2H399V330.12l-.25-.29L172.34,593.32q-4.12,4.36-7.84,9.11A131.24,131.24,0,0,0,355.67,780.81,241.06,241.06,0,0,1,233.42,930.2Z"/><circle class="cls-1" cx="400" cy="613.2" r="133"/><rect class="cls-2" x="77" y="633.2" width="45" height="6"/><rect class="cls-2" x="679" y="633.2" width="45" height="6"/><rect class="cls-2" x="397" y="75.2" width="6" height="228"/><rect class="cls-2" x="397" y="955.2" width="6" height="244"/><circle class="cls-2" cx="400" cy="189.2" r="14"/><circle class="cls-2" cx="400" cy="1078.2" r="14"/><polygon class="cls-4" points="474.14 604.49 400 628.12 325.86 604.49 400 518.2 474.14 604.49"/><circle class="cls-4" cx="358.59" cy="630.04" r="41.53"/><circle class="cls-4" cx="441.41" cy="630.04" r="41.53"/><path class="cls-4" d="M452.32,708.2H347.68a76.28,76.28,0,0,0,41.53-67.91V607.83h21.58v32.46a76.28,76.28,0,0,0,41.53,67.91Z"/><path class="cls-2" d="M37.08,140.19a10.58,10.58,0,0,1-3.72-6.06l7.08-3.84a5,5,0,0,0,1.26,2.46,2.88,2.88,0,0,0,2.1.9,2.69,2.69,0,0,0,2-.9,9,9,0,0,0,1.56-2.58l30-71.28h4.08l35.16,82.68H106.2l-11-26.52H64l-8.52,20.4A10.69,10.69,0,0,1,51,140.61a12,12,0,0,1-6.36,1.92A11.62,11.62,0,0,1,37.08,140.19Zm54-34L79.56,75.69l-.24-1.8-.12,1.8L67.56,106.17Z"/><path class="cls-2" d="M727,634h-6V116.54A37.58,37.58,0,0,0,683.46,79H146V73H683.46A43.59,43.59,0,0,1,727,116.54Z"/><rect class="cls-2" x="-108.5" y="453" width="368" height="6" transform="translate(-380.7 530.31) rotate(-89.85)"/><polygon class="cls-2" points="95.68 206.07 75 212.66 54.32 206.07 75 182 95.68 206.07"/><circle class="cls-2" cx="63.45" cy="213.2" r="11.59"/><circle class="cls-2" cx="86.55" cy="213.2" r="11.59"/><path class="cls-2" d="M89.6,235H60.4A21.27,21.27,0,0,0,72,216.06V207h6v9.06A21.27,21.27,0,0,0,89.6,235Z"/><path class="cls-2" d="M761.68,1134.22a10.58,10.58,0,0,1,3.72,6.06l-7.08,3.84a5,5,0,0,0-1.26-2.46,2.88,2.88,0,0,0-2.1-.9,2.69,2.69,0,0,0-2,.9,9,9,0,0,0-1.56,2.58l-30,71.28h-4.08l-35.16-82.68h10.44l11,26.52h31.2l8.52-20.4a10.69,10.69,0,0,1,4.44-5.16,12,12,0,0,1,6.36-1.92A11.62,11.62,0,0,1,761.68,1134.22Zm-54,34,11.52,30.48.24,1.8.12-1.8,11.64-30.48Z"/><path class="cls-2" d="M653,1201H115.54A43.59,43.59,0,0,1,72,1157.46V640h6v517.46A37.58,37.58,0,0,0,115.54,1195H653Z"/><rect class="cls-2" x="539.5" y="815" width="368" height="6" transform="translate(-96.38 1539.37) rotate(-89.85)"/><polygon class="cls-2" points="703.08 1068.34 723.76 1061.75 744.44 1068.34 723.76 1092.41 703.08 1068.34"/><circle class="cls-2" cx="735.5" cy="1061.5" r="11.5"/><circle class="cls-2" cx="712.5" cy="1061.5" r="11.5"/><path class="cls-2" d="M709.45,1039h29.1A21.26,21.26,0,0,0,727,1057.91V1067h-6v-9.09A21.26,21.26,0,0,0,709.45,1039Z"/></g></svg>