<svg xmlns="http://www.w3.org/2000/svg" viewBox="0 0 800 1218"><defs><style>.cls-1{fill:#f2f0eb;}.cls-2{fill:#3e95a3;}.cls-3{fill:#d39c53;}.cls-4{fill:#27282b;}</style></defs><title>As</title><g id="Layer_2" data-name="Layer 2"><rect class="cls-1" width="800" height="1218"/></g><g id="Layer_1" data-name="Layer 1"><polygon class="cls-2" points="633.03 575.27 398.75 649.93 164.47 575.27 398.75 302.63 633.03 575.27"/><circle class="cls-2" cx="267.92" cy="656.03" r="131.23"/><circle class="cls-2" cx="529.59" cy="656.03" r="131.23"/><path class="cls-2" d="M564.09,903H233.42A241.07,241.07,0,0,0,364.65,688.41V585.82h68.2V688.41A241.06,241.06,0,0,0,564.09,903Z"/><path class="cls-3" d="M233.42,903H399V302.92l-.25-.29L172.34,566.11q-4.12,4.38-7.84,9.12A131.23,131.23,0,0,0,355.67,753.6,241.08,241.08,0,0,1,233.42,903Z"/><circle class="cls-1" cx="400" cy="586" r="133"/><rect class="cls-2" x="77" y="606" width="45" height="6"/><rect class="cls-2" x="679" y="606" width="45" height="6"/><rect class="cls-2" x="397" y="48" width="6" height="228"/><rect class="cls-2" x="397" y="928" width="6" height="242"/><circle class="cls-2" cx="400" cy="162" r="14"/><circle class="cls-2" cx="400" cy="1049" r="14"/><polygon class="cls-4" points="474.14 577.28 400 600.91 325.86 577.28 400 491 474.14 577.28"/><circle class="cls-4" cx="358.59" cy="602.84" r="41.53"/><circle class="cls-4" cx="441.41" cy="602.84" r="41.53"/><path class="cls-4" d="M452.32,681H347.68a76.29,76.29,0,0,0,41.53-67.91V580.62h21.58v32.47A76.29,76.29,0,0,0,452.32,681Z"/><path class="cls-2" d="M37.08,112.19a10.58,10.58,0,0,1-3.72-6.06l7.08-3.84a5,5,0,0,0,1.26,2.46,2.88,2.88,0,0,0,2.1.9,2.69,2.69,0,0,0,2-.9,9,9,0,0,0,1.56-2.58l30-71.28h4.08l35.16,82.68H106.2l-11-26.52H64l-8.52,20.4A10.69,10.69,0,0,1,51,112.61a12,12,0,0,1-6.36,1.92A11.62,11.62,0,0,1,37.08,112.19Zm54-34L79.56,47.69l-.24-1.8-.12,1.8L67.56,78.17Z"/><path class="cls-2" d="M727,604h-6V88.54A37.58,37.58,0,0,0,683.46,51H146V45H683.46A43.59,43.59,0,0,1,727,88.54Z"/><rect class="cls-2" x="-107.5" y="424" width="366" height="6" transform="translate(-351.7 501.39) rotate(-89.85)"/><polygon class="cls-2" points="95.68 178.07 75 184.66 54.32 178.07 75 154 95.68 178.07"/><circle class="cls-2" cx="63.45" cy="185.2" r="11.59"/><circle class="cls-2" cx="86.55" cy="185.2" r="11.59"/><path class="cls-2" d="M89.6,207H60.4A21.27,21.27,0,0,0,72,188.06V179h6v9.06A21.27,21.27,0,0,0,89.6,207Z"/><path class="cls-2" d="M761.68,1102.22a10.58,10.58,0,0,1,3.72,6.06l-7.08,3.84a5,5,0,0,0-1.26-2.46,2.88,2.88,0,0,0-2.1-.9,2.69,2.69,0,0,0-2,.9,9,9,0,0,0-1.56,2.58l-30,71.28h-4.08l-35.16-82.68h10.44l11,26.52h31.2l8.52-20.4a10.69,10.69,0,0,1,4.44-5.16,12,12,0,0,1,6.36-1.92A11.62,11.62,0,0,1,761.68,1102.22Zm-54,34,11.52,30.48.24,1.8.12-1.8,11.64-30.48Z"/><path class="cls-2" d="M653,1169H115.54A43.59,43.59,0,0,1,72,1125.46V610h6v515.46A37.58,37.58,0,0,0,115.54,1163H653Z"/><rect class="cls-2" x="540.5" y="784" width="366" height="6" transform="translate(-65.38 1508.45) rotate(-89.85)"/><polygon class="cls-2" points="703.08 1036.34 723.76 1029.75 744.44 1036.34 723.76 1060.41 703.08 1036.34"/><circle class="cls-2" cx="735.5" cy="1029.5" r="11.5"/><circle class="cls-2" cx="712.5" cy="1029.5" r="11.5"/><path class="cls-2" d="M709.45,1007h29.1A21.26,21.26,0,0,0,727,1025.91V1035h-6v-9.09A21.26,21.26,0,0,0,709.45,1007Z"/></g></svg>