<svg xmlns="http://www.w3.org/2000/svg" viewBox="0 0 800 1267"><defs><style>.cls-1{fill:#f2f0eb;}.cls-2{fill:#3e95a3;}.cls-3{fill:#d39c53;}.cls-4{fill:#27282b;}</style></defs><title>Jc</title><g id="Layer_2" data-name="Layer 2"><rect class="cls-1" width="800" height="1267"/></g><g id="Layer_1" data-name="Layer 1"><circle class="cls-2" cx="343" cy="225" r="122"/><circle class="cls-2" cx="238" cy="387" r="105"/><circle class="cls-2" cx="448" cy="387" r="105"/><path class="cls-2" d="M431.34,534.54c16.18,19.78,2.13,49.46-23.43,49.46H210.17l43.83-.11s-4-13.89-8-23.35a193.16,193.16,0,0,0,70-148.81V330h55v82.15C371,451.78,402.65,499.47,431.34,534.54Z"/><path class="cls-1" d="M682.61,457.33l11.48-17.43-20-6.15a45.34,45.34,0,0,0-28.64.66L250.66,576l14.59,47.22L660.09,481.64C669.31,471.73,677.22,465.51,682.61,457.33Z"/><path class="cls-2" d="M609,473.82l-2-5.64,77.65-28.06-11.37-3.5a42.57,42.57,0,0,0-26.75.62L567.43,465.6l-2-5.65,79.08-28.36a48.59,48.59,0,0,1,30.55-.7L695,437a3,3,0,0,1,.14,5.69Z"/><rect class="cls-2" x="244.04" y="535" width="225.3" height="6" transform="translate(-160.66 151.97) rotate(-19.73)"/><path class="cls-2" d="M577.75,507.84l-2-5.65,83.35-30a42.55,42.55,0,0,0,21-16.54l11.49-17.43,5,3.3L685.11,459a48.61,48.61,0,0,1-24,18.89Z"/><rect class="cls-2" x="262.5" y="600.08" width="83.04" height="6" transform="translate(-186.05 138.36) rotate(-19.77)"/><rect class="cls-2" x="255.35" y="573.56" width="121.24" height="6" transform="translate(-176.83 141.35) rotate(-19.83)"/><path class="cls-1" d="M549.43,527H388a27.06,27.06,0,0,1-26.23-20.38L338,413.47,337.72,259H562.23Z"/><path class="cls-3" d="M337.71,337H369a25.43,25.43,0,0,1,21,11.14l10.55,15.51L384.7,421.72A9.72,9.72,0,0,0,394.08,434H408v93H388.07a27.08,27.08,0,0,1-26.22-20.33L338,413.85Z"/><path class="cls-4" d="M472.64,352.82A22.43,22.43,0,0,0,454.08,343H416v-6h38.08a28.41,28.41,0,0,1,23.52,12.45Z"/><path class="cls-4" d="M389.09,352.82A22.42,22.42,0,0,0,370.53,343H333v-6h37.53a28.4,28.4,0,0,1,23.52,12.45Z"/><polygon class="cls-3" points="470 556.99 408 647.85 408 527 470 527 470 556.99"/><path class="cls-4" d="M423.63,482H395.8A10.84,10.84,0,0,1,385,471.16V471h47.61Z"/><path class="cls-4" d="M405.94,464H385.31a10.32,10.32,0,1,1,20.63,0Z"/><path class="cls-4" d="M426.58,464H405.94a10.32,10.32,0,0,1,20.64,0Z"/><polygon class="cls-4" points="421.58 455.15 439.76 464 422.07 464 421.58 455.15"/><polygon class="cls-4" points="400.42 454.86 419.12 464 401.43 464 400.42 454.86"/><polygon class="cls-1" points="473.13 385 440.63 385 431.97 372 465.55 372 473.13 385"/><polygon class="cls-1" points="382 387 360.58 387 352.01 372 378.79 368.79 382 374.15 382 387"/><path class="cls-4" d="M385.56,374h-36.3l-12.1-11H376a11.5,11.5,0,0,1,8.65,3.93l12,13.67Z"/><path class="cls-4" d="M379.1,393H365.3a10.83,10.83,0,0,1-9.7-6h29.55A6.05,6.05,0,0,1,379.1,393Z"/><path class="cls-4" d="M350,374h19a0,0,0,0,1,0,0v19a0,0,0,0,1,0,0H359a9,9,0,0,1-9-9V374A0,0,0,0,1,350,374Z"/><polygon class="cls-1" points="460 387 438.58 387 430.01 372 456.79 368.79 460 374.15 460 387"/><path class="cls-4" d="M462.65,374h-35.2l-12.1-11h38.79a11.5,11.5,0,0,1,8.65,3.93l12,13.67Z"/><path class="cls-4" d="M457.28,393H443.49a10.83,10.83,0,0,1-9.7-6h29.55A6.06,6.06,0,0,1,457.28,393Z"/><path class="cls-4" d="M428,374h19a0,0,0,0,1,0,0v19a0,0,0,0,1,0,0H437a9,9,0,0,1-9-9V374A0,0,0,0,1,428,374Z"/><path class="cls-3" d="M475.73,420.68a23.92,23.92,0,1,1-43.45-20Z"/><path class="cls-4" d="M408,438H394.3a13.94,13.94,0,0,1-13.38-17.84l10.44-35.78L379.65,371.7l4.41-4.07,14,15.17-11.39,39A7.95,7.95,0,0,0,394.3,432H408Z"/><polygon class="cls-4" points="427 437 416.83 437 407.36 425.16 412.05 421.42 419.72 431 427 431 427 437"/><rect class="cls-4" x="382" y="461" width="59" height="6"/><rect class="cls-4" x="463.44" y="367" width="6" height="18.95" transform="translate(-131.66 416.21) rotate(-42.71)"/><path class="cls-4" d="M517.85,437h-9.26a3,3,0,0,1-2.9-2.21l-4-14.56,5.79-1.57L510.88,431h7A10.16,10.16,0,0,0,528,420.85V412h6v8.85A16.16,16.16,0,0,1,517.85,437Z"/><rect class="cls-4" x="515.35" y="403.36" width="15.85" height="6" transform="translate(-114.9 584.37) rotate(-53.42)"/><path class="cls-2" d="M58.47,138.69A20,20,0,0,1,51,129.63a26.88,26.88,0,0,1-2-11.46l9.36.72q-.36,6.48,3.24,10.38t10.8,3.9q7.67,0,10.86-4.44a18.13,18.13,0,0,0,3.18-10.8V70.17a13.5,13.5,0,0,1-4.92.84,31,31,0,0,1-11-2.64,16.72,16.72,0,0,0-5.4-1.32c-2.16,0-5.49.92-10,2.76l-4.08-8a85,85,0,0,1,8.76-3.3,19.35,19.35,0,0,1,5.28-.78,15.28,15.28,0,0,1,4.5.72q2.34.72,6.42,2.28a14.87,14.87,0,0,0,5.76,1.2,8.4,8.4,0,0,0,3.42-1,7.11,7.11,0,0,0,2.82-2.1h8.28v59.52a27.86,27.86,0,0,1-2.52,11.82,20.21,20.21,0,0,1-8,8.82c-3.65,2.24-8.22,3.36-13.74,3.36S62,141.09,58.47,138.69Z"/><rect class="cls-2" x="73" y="274" width="6" height="363"/><path class="cls-2" d="M727,630h-6V116.54A37.58,37.58,0,0,0,683.46,79H151V73H683.46A43.59,43.59,0,0,1,727,116.54Z"/><circle class="cls-2" cx="75.07" cy="195.42" r="13.42"/><circle class="cls-2" cx="63.52" cy="213.2" r="11.59"/><circle class="cls-2" cx="86.62" cy="213.2" r="11.59"/><path class="cls-2" d="M89.66,235H60.47a21.29,21.29,0,0,0,11.59-18.94V207h6v9.06A21.28,21.28,0,0,0,89.66,235Z"/><polygon class="cls-4" points="570.75 320 318.45 320 306.39 266.25 593.78 245.41 570.75 320"/><path class="cls-4" d="M327.23,265.15l82.82-117.49a28.79,28.79,0,0,1,30.84-11.25l50.24,13.23a28.76,28.76,0,0,1,19.26,16.82l34,82.24Z"/><circle class="cls-1" cx="461.05" cy="210.78" r="13.79"/><circle class="cls-1" cx="448.99" cy="229.74" r="12.07"/><circle class="cls-1" cx="473.12" cy="228.79" r="12.07"/><path class="cls-1" d="M476.47,252.15H446.7c7.25-4.15,11.81-11.62,10.91-19.77v-9.54h6.89v9.54a22.17,22.17,0,0,0,12,19.33Z"/><rect class="cls-1" x="301.47" y="251.73" width="300.52" height="6" transform="translate(-19.8 38.84) rotate(-4.82)"/><rect class="cls-1" x="305.01" y="267.94" width="300.52" height="6" transform="translate(-21.15 39.19) rotate(-4.82)"/><path class="cls-4" d="M541.09,403A14.91,14.91,0,0,1,528,395.2l-15.62-28.77A3.09,3.09,0,0,1,512,365V346.35a23.73,23.73,0,0,0-10.61-19.81l-34.07-23.06,3.36-5,34.06,23A29.76,29.76,0,0,1,518,346.35v17.89l15.25,28.1a8.92,8.92,0,0,0,13.87,2.31l4.07,4.41A14.88,14.88,0,0,1,541.09,403Z"/><path class="cls-4" d="M523.09,403A14.91,14.91,0,0,1,510,395.2l-15.62-28.77A3.09,3.09,0,0,1,494,365V353.35a23.73,23.73,0,0,0-10.61-19.81l-34.07-23.06,3.36-5,34.06,23A29.76,29.76,0,0,1,500,353.35v10.89l15.25,28.1a8.92,8.92,0,0,0,13.87,2.31l4.07,4.41A14.88,14.88,0,0,1,523.09,403Z"/><path class="cls-4" d="M559.09,403A14.91,14.91,0,0,1,546,395.2l-15.62-28.77A3.09,3.09,0,0,1,530,365V340.35a23.73,23.73,0,0,0-10.61-19.81l-34.07-23.06,3.36-5,34.06,23A29.76,29.76,0,0,1,536,340.35v23.89l15.25,28.1a8.94,8.94,0,0,0,7.84,4.66,8.83,8.83,0,0,0,6.4-2.71l4.31,4.17A14.77,14.77,0,0,1,559.09,403Z"/><path class="cls-4" d="M577.09,403A14.91,14.91,0,0,1,564,395.2l-15.62-28.77A3.09,3.09,0,0,1,548,365V336.35a23.73,23.73,0,0,0-10.61-19.81l-34.07-23.06,3.36-5,34.06,23A29.76,29.76,0,0,1,554,336.35v27.89l15.25,28.1A8.92,8.92,0,0,0,586,388.09a7.1,7.1,0,0,0-7.09-7.09H573v-6h5.91A13.1,13.1,0,0,1,592,388.09,14.93,14.93,0,0,1,577.09,403Z"/><path class="cls-1" d="M118.07,621.92l15.23-23.1A46.54,46.54,0,0,1,161,578.89L196,570.05a30.48,30.48,0,0,1,37,22.07l11.57,45.72A8.39,8.39,0,1,1,228.29,642L142.23,660.7Z"/><path class="cls-2" d="M235.26,650.94a11.4,11.4,0,0,1-11-8.6l-11.1-43.88,5.81-1.47,11.11,43.88a5.37,5.37,0,0,0,2.47,3.31,5.3,5.3,0,0,0,4.08.59,5.4,5.4,0,0,0,3.91-6.55L228.94,592.5a27.49,27.49,0,0,0-33.38-19.9l-34.94,8.84a43.46,43.46,0,0,0-26,18.65l-15.24,23.13-5-3.31,15.23-23.09a49.35,49.35,0,0,1,29.49-21.19l34.94-8.84A33.46,33.46,0,0,1,234.75,591l11.57,45.72a11.4,11.4,0,0,1-8.25,13.84A11.21,11.21,0,0,1,235.26,650.94Z"/><path class="cls-2" d="M219.48,656.94a11.43,11.43,0,0,1-11-8.6l-11.28-44.6,5.81-1.47,11.29,44.59a5.39,5.39,0,0,0,10.46-2.64l-8.05-31.81,5.81-1.47,8.05,31.8a11.41,11.41,0,0,1-8.25,13.85A11.65,11.65,0,0,1,219.48,656.94Z"/><path class="cls-2" d="M203.18,661.06a11.4,11.4,0,0,1-11-8.61l-11.29-44.59,5.82-1.47L198,651a5.39,5.39,0,1,0,10.46-2.64l-7.75-30.65,5.81-1.47,7.76,30.64a11.44,11.44,0,0,1-11.07,14.2Z"/><path class="cls-2" d="M186.93,665.17a11.42,11.42,0,0,1-11.05-8.6L164.6,612l5.81-1.48,11.29,44.6a5.4,5.4,0,1,0,10.46-2.65l-8.64-34.13,5.82-1.47L198,651a11.41,11.41,0,0,1-8.25,13.84A11.17,11.17,0,0,1,186.93,665.17Z"/><rect class="cls-2" x="138.09" y="652.17" width="29.28" height="6" transform="translate(-192.77 77.93) rotate(-17.78)"/><path class="cls-4" d="M254.14,653.14l-2-5.65,6.55-2.35a12.82,12.82,0,0,0,7.74-16.41L243.86,566a12.83,12.83,0,0,0-16.41-7.73l-6.55,2.35-2-5.65,6.54-2.35A18.83,18.83,0,0,1,249.51,564L272,626.7a18.83,18.83,0,0,1-11.36,24.09Z"/><path class="cls-4" d="M526.16,497.08l-4.32-4.16,9.69-10.08A51.59,51.59,0,0,0,546,446.91V398.33h6v48.58A57.55,57.55,0,0,1,535.85,487Z"/><path class="cls-4" d="M544.16,503.75l-4.32-4.16,9.69-10.08A51.6,51.6,0,0,0,564,453.58V398h6v55.58a57.55,57.55,0,0,1-16.15,40.09Z"/><path class="cls-4" d="M507.12,491.79l-4.24-4.24,9.94-9.94A51.5,51.5,0,0,0,528,441V398h6v43a57.47,57.47,0,0,1-16.94,40.89Z"/><circle class="cls-2" cx="456" cy="1041" r="122"/><circle class="cls-2" cx="561" cy="879" r="105"/><circle class="cls-2" cx="351" cy="879" r="105"/><path class="cls-2" d="M367.66,731.46C351.48,711.68,365.53,682,391.09,682H545s7,19,10.09,21.77A193.14,193.14,0,0,0,483,854.27V936H428V853.85C428,814.22,396.35,766.53,367.66,731.46Z"/><path class="cls-1" d="M116.16,808.49l-11.49,17.43,20,6.14a45.24,45.24,0,0,0,28.65-.66L548.11,689.79l-14.59-47.22L138.68,784.18C129.45,794.09,121.55,800.3,116.16,808.49Z"/><path class="cls-2" d="M137.94,837.05a48.19,48.19,0,0,1-14.2-2.12l-19.95-6.14a3,3,0,0,1-.14-5.69l86.1-31.1,2,5.64L114.13,825.7l11.38,3.5a42.61,42.61,0,0,0,26.74-.62l79.09-28.36,2,5.64-79.08,28.37A48.46,48.46,0,0,1,137.94,837.05Z"/><rect class="cls-2" x="329.43" y="724.82" width="225.3" height="6" transform="translate(-219.72 191.93) rotate(-19.73)"/><path class="cls-2" d="M107.18,827.57l-5-3.3,11.48-17.43a48.61,48.61,0,0,1,24-18.89L221,758l2,5.65-83.35,30a42.55,42.55,0,0,0-21,16.54Z"/><rect class="cls-2" x="453.22" y="659.74" width="83.04" height="6" transform="translate(-194.99 206.38) rotate(-19.77)"/><rect class="cls-2" x="422.17" y="686.25" width="121.24" height="6" transform="translate(-205.16 204.61) rotate(-19.83)"/><path class="cls-1" d="M249.57,739H411a27.06,27.06,0,0,1,26.23,20.38L461,852.53l.28,154.47H236.77Z"/><path class="cls-3" d="M461.29,929H430.05a25.43,25.43,0,0,1-21-11.14l-10.55-15.51,15.84-58.07A9.72,9.72,0,0,0,404.92,832H391V739h19.93a27.08,27.08,0,0,1,26.22,20.33L461,852.15Z"/><path class="cls-4" d="M383,929H344.69a28.4,28.4,0,0,1-23.52-12.45l5-3.37A22.42,22.42,0,0,0,344.69,923H383Z"/><path class="cls-4" d="M466,929H428.23a28.41,28.41,0,0,1-23.52-12.45l5-3.37A22.43,22.43,0,0,0,428.23,923H466Z"/><polygon class="cls-3" points="329 709.01 391 618.15 391 739 329 739 329 709.01"/><path class="cls-4" d="M375.33,784h27.83A10.84,10.84,0,0,1,414,794.84V795H366.4Z"/><path class="cls-4" d="M392.82,802h20.64a10.32,10.32,0,1,1-20.64,0Z"/><path class="cls-4" d="M372.18,802h20.64a10.32,10.32,0,1,1-20.64,0Z"/><polygon class="cls-4" points="377.19 810.85 359 802 376.69 802 377.19 810.85"/><polygon class="cls-4" points="398.35 811.14 379.64 802 397.33 802 398.35 811.14"/><polygon class="cls-1" points="325.63 881 358.13 881 366.8 894 333.22 894 325.63 881"/><polygon class="cls-1" points="417 879 438.42 879 446.99 894 420.21 897.21 417 891.85 417 879"/><path class="cls-4" d="M413.2,892h36.3l12.1,11H422.82a11.47,11.47,0,0,1-8.65-3.93l-12-13.67Z"/><path class="cls-4" d="M419.67,873h13.79a10.85,10.85,0,0,1,9.71,6H413.61A6.06,6.06,0,0,1,419.67,873Z"/><path class="cls-4" d="M430,873h19a0,0,0,0,1,0,0v19a0,0,0,0,1,0,0H439a9,9,0,0,1-9-9V873A0,0,0,0,1,430,873Z" transform="translate(879 1765) rotate(180)"/><polygon class="cls-1" points="339 879 360.42 879 368.99 894 342.21 897.21 339 891.85 339 879"/><path class="cls-4" d="M336.11,892h35.2l12.1,11H344.63a11.48,11.48,0,0,1-8.65-3.93L324,885.4Z"/><path class="cls-4" d="M341.48,873h13.79a10.85,10.85,0,0,1,9.71,6H335.42A6.06,6.06,0,0,1,341.48,873Z"/><path class="cls-4" d="M352,873h19a0,0,0,0,1,0,0v19a0,0,0,0,1,0,0H361a9,9,0,0,1-9-9V873A0,0,0,0,1,352,873Z" transform="translate(723 1765) rotate(180)"/><path class="cls-3" d="M323,845.13a23.92,23.92,0,1,1,43.45,20Z"/><path class="cls-4" d="M414.7,898.37l-14-15.17,11.38-39A7.95,7.95,0,0,0,404.46,834H391v-6h13.46a13.93,13.93,0,0,1,13.38,17.84l-10.43,35.78,11.7,12.68Z"/><polygon class="cls-4" points="386.72 844.59 379.05 835 372 835 372 829 381.93 829 391.4 840.84 386.72 844.59"/><rect class="cls-4" x="358" y="799" width="59" height="6"/><rect class="cls-4" x="329.33" y="879.86" width="6" height="18.95" transform="translate(-515.09 461.26) rotate(-42.71)"/><path class="cls-4" d="M271,854h-6v-8.85A16.16,16.16,0,0,1,281.15,829h9.26a3,3,0,0,1,2.9,2.21l4,14.56-5.79,1.57L288.12,835h-7A10.16,10.16,0,0,0,271,845.15Z"/><rect class="cls-4" x="267.56" y="856.45" width="15.85" height="6" transform="translate(-578.84 568.45) rotate(-53.42)"/><path class="cls-2" d="M740.3,1133.13a20.07,20.07,0,0,1,7.44,9.06,27.19,27.19,0,0,1,2,11.46l-9.36-.72q.36-6.48-3.24-10.38t-10.8-3.9q-7.68,0-10.86,4.44a18.06,18.06,0,0,0-3.18,10.8v47.76a13.5,13.5,0,0,1,4.92-.84q4.44,0,11,2.64a16.61,16.61,0,0,0,5.4,1.32q3.24,0,10-2.76l4.08,8a86.78,86.78,0,0,1-8.76,3.3,19.41,19.41,0,0,1-5.28.78,15.28,15.28,0,0,1-4.5-.72q-2.34-.72-6.42-2.28a14.87,14.87,0,0,0-5.76-1.2,8.36,8.36,0,0,0-3.42,1,7,7,0,0,0-2.82,2.1h-8.28v-59.52a27.86,27.86,0,0,1,2.52-11.82,20.15,20.15,0,0,1,8-8.82q5.46-3.36,13.74-3.36T740.3,1133.13Z"/><rect class="cls-2" x="721" y="630" width="6" height="369"/><path class="cls-2" d="M648,1199H115.54a43.15,43.15,0,0,1-31.08-13.19A41.08,41.08,0,0,1,73,1155.39V636h6v519.59a35.15,35.15,0,0,0,9.79,26.08A37.15,37.15,0,0,0,115.54,1193H648Z"/><circle class="cls-2" cx="723.5" cy="1076.5" r="13.5"/><circle class="cls-2" cx="735.5" cy="1058.5" r="11.5"/><circle class="cls-2" cx="712.5" cy="1058.5" r="11.5"/><path class="cls-2" d="M709.45,1037h29.1A21.26,21.26,0,0,0,727,1055.91V1065h-6v-9.09A21.26,21.26,0,0,0,709.45,1037Z"/><polygon class="cls-4" points="232.83 948 483.29 948 495.27 1001.36 209.96 1022.05 232.83 948"/><path class="cls-4" d="M474.58,1002.25l-82.22,116.64a28.57,28.57,0,0,1-30.61,11.17l-49.88-13.13a28.55,28.55,0,0,1-19.12-16.7L259,1018.58Z"/><circle class="cls-1" cx="341.44" cy="1056.35" r="13.61"/><circle class="cls-1" cx="353.96" cy="1037.3" r="11.98"/><circle class="cls-1" cx="330" cy="1038.39" r="11.98"/><path class="cls-1" d="M326.73,1015.52h29.46c-7.27,4.16-11.85,11.65-10.94,19.83v9.57h-6.54v-9.57a22.21,22.21,0,0,0-12-19.39Z"/><rect class="cls-1" x="201.81" y="1009.6" width="298.35" height="6" transform="translate(-83.81 33.06) rotate(-4.82)"/><rect class="cls-1" x="198.29" y="993.5" width="298.35" height="6" transform="translate(-82.47 32.7) rotate(-4.82)"/><path class="cls-4" d="M328.32,967.3l-34.06-23A29.73,29.73,0,0,1,281,919.46V901.58l-15.25-28.1a8.92,8.92,0,0,0-13.87-2.31l-4.07-4.41A14.92,14.92,0,0,1,271,870.61l15.62,28.78a3,3,0,0,1,.36,1.43v18.64a23.75,23.75,0,0,0,10.61,19.82l34.07,23.05Z"/><path class="cls-4" d="M346.32,960.3l-34.06-23A29.73,29.73,0,0,1,299,912.46V901.58l-15.25-28.1a8.92,8.92,0,0,0-13.87-2.31l-4.07-4.41A14.92,14.92,0,0,1,289,870.61l15.62,28.78a3,3,0,0,1,.36,1.43v11.64a23.75,23.75,0,0,0,10.61,19.82l34.07,23.05Z"/><path class="cls-4" d="M310.32,973.3l-34.06-23A29.73,29.73,0,0,1,263,925.46V901.58l-15.25-28.1a8.92,8.92,0,0,0-14.24-2l-4.31-4.17A14.92,14.92,0,0,1,253,870.61l15.62,28.78a3,3,0,0,1,.36,1.43v24.64a23.75,23.75,0,0,0,10.61,19.82l34.07,23.05Z"/><path class="cls-4" d="M292.32,977.48l-34.06-23A29.76,29.76,0,0,1,245,929.65V901.76l-15.25-28.1A8.92,8.92,0,0,0,213,877.91a7.1,7.1,0,0,0,7.09,7.09H226v6h-5.91A13.1,13.1,0,0,1,207,877.91a14.91,14.91,0,0,1,28-7.11l15.62,28.77A3,3,0,0,1,251,901v28.65a23.73,23.73,0,0,0,10.61,19.81l34.07,23.06Z"/><path class="cls-1" d="M680.69,643.9,665.47,667a46.62,46.62,0,0,1-27.73,19.94l-34.94,8.84a30.48,30.48,0,0,1-37-22.07L554.2,628a8.4,8.4,0,0,1,16.28-4.12l86.06-18.74Z"/><path class="cls-2" d="M596.41,700.07A33.55,33.55,0,0,1,564,674.79l-11.57-45.72a11.41,11.41,0,0,1,8.25-13.84,11.39,11.39,0,0,1,13.84,8.25l11.11,43.88-5.82,1.47L568.72,625a5.4,5.4,0,1,0-10.46,2.65l11.57,45.72a27.47,27.47,0,0,0,33.38,19.89l34.94-8.84a43.39,43.39,0,0,0,25.94-18.65l15.24-23.12,5,3.3L669.12,669a49.37,49.37,0,0,1-29.5,21.19L604.68,699A33.83,33.83,0,0,1,596.41,700.07Z"/><path class="cls-2" d="M595.8,663.55,584.52,619a5.4,5.4,0,0,0-10.46,2.65l8.05,31.81-5.82,1.47-8-31.81a11.39,11.39,0,1,1,22.09-5.59l11.29,44.6Z"/><path class="cls-2" d="M612.08,659.43l-11.29-44.59a5.39,5.39,0,0,0-10.46,2.64l7.76,30.65-5.82,1.47L584.52,619a11.39,11.39,0,0,1,22.09-5.59L617.89,658Z"/><path class="cls-2" d="M628.35,655.31l-11.28-44.59a5.39,5.39,0,1,0-10.46,2.64l8.64,34.14L609.43,649l-8.64-34.13a11.39,11.39,0,1,1,22.09-5.59l11.29,44.59Z"/><rect class="cls-2" x="631.4" y="607.65" width="29.28" height="6" transform="translate(-155.61 226.45) rotate(-17.78)"/><path class="cls-4" d="M567,714.34a18.87,18.87,0,0,1-17.71-12.48l-22.54-62.74A18.83,18.83,0,0,1,538.08,615l6.54-2.35,2,5.65-6.54,2.34a12.84,12.84,0,0,0-7.74,16.42l22.53,62.74a12.84,12.84,0,0,0,16.42,7.74l6.54-2.35,2,5.65-6.54,2.35A19.06,19.06,0,0,1,567,714.34Z"/><path class="cls-4" d="M253,867h-6V818.9a57.53,57.53,0,0,1,16.15-40.08l9.69-10.08,4.32,4.16L267.47,783A51.58,51.58,0,0,0,253,818.9Z"/><path class="cls-4" d="M235,868h-6V812.23a57.53,57.53,0,0,1,16.15-40.08l9.69-10.08,4.32,4.16-9.69,10.08A51.58,51.58,0,0,0,235,812.23Z"/><path class="cls-4" d="M271,868h-6V824.86A57.45,57.45,0,0,1,281.94,784l9.94-9.94,4.24,4.24-9.94,9.94A51.5,51.5,0,0,0,271,824.86Z"/><rect class="cls-4" x="120.03" y="632" width="559.95" height="6" transform="translate(-193.42 175.57) rotate(-20.05)"/><circle class="cls-1" cx="400" cy="635" r="68"/><circle class="cls-4" cx="400" cy="635" r="57.12"/><circle class="cls-1" cx="400" cy="617.71" r="18.21"/><circle class="cls-1" cx="384.53" cy="641.37" r="15.47"/><circle class="cls-1" cx="415.47" cy="641.37" r="15.47"/><path class="cls-1" d="M419.41,670.5H379.68A28.56,28.56,0,0,0,395.45,645V633.18h8.19V645A28.57,28.57,0,0,0,419.4,670.5Z"/></g></svg>