<svg xmlns="http://www.w3.org/2000/svg" viewBox="0 0 800 1274"><defs><style>.cls-1{fill:#f2f0eb;}.cls-2{fill:#3e95a3;}.cls-3{fill:#d39c53;}.cls-4{fill:#27282b;}</style></defs><title>Jc</title><g id="Layer_2" data-name="Layer 2"><rect class="cls-1" width="800" height="1274"/></g><g id="Layer_1" data-name="Layer 1"><circle class="cls-2" cx="343" cy="228" r="122"/><circle class="cls-2" cx="238" cy="390" r="105"/><circle class="cls-2" cx="448" cy="390" r="105"/><path class="cls-2" d="M431.34,537.54c16.18,19.78,2.13,49.46-23.43,49.46H210.17l43.83-.11s-4-13.89-8-23.35a193.16,193.16,0,0,0,70-148.81V333h55v82.15C371,454.78,402.65,502.47,431.34,537.54Z"/><path class="cls-1" d="M682.61,460.33l11.48-17.43-20-6.15a45.34,45.34,0,0,0-28.64.66L250.66,579l14.59,47.22L660.09,484.64C669.31,474.73,677.22,468.51,682.61,460.33Z"/><path class="cls-2" d="M609,476.82l-2-5.64,77.65-28.06-11.37-3.5a42.57,42.57,0,0,0-26.75.62L567.43,468.6l-2-5.65,79.08-28.36a48.59,48.59,0,0,1,30.55-.7L695,440a3,3,0,0,1,.14,5.69Z"/><rect class="cls-2" x="244.04" y="538" width="225.3" height="6" transform="translate(-161.67 152.14) rotate(-19.73)"/><path class="cls-2" d="M577.75,510.84l-2-5.65,83.35-30a42.55,42.55,0,0,0,21-16.54l11.49-17.43,5,3.3L685.11,462a48.61,48.61,0,0,1-24,18.89Z"/><rect class="cls-2" x="262.5" y="603.08" width="83.04" height="6" transform="translate(-187.07 138.54) rotate(-19.77)"/><rect class="cls-2" x="255.35" y="576.56" width="121.24" height="6" transform="translate(-177.85 141.53) rotate(-19.83)"/><path class="cls-1" d="M549.43,530H388a27.06,27.06,0,0,1-26.23-20.38L338,416.47,337.72,262H562.23Z"/><path class="cls-3" d="M337.71,340H369a25.43,25.43,0,0,1,21,11.14l10.55,15.51L384.7,424.72A9.72,9.72,0,0,0,394.08,437H408v93H388.07a27.08,27.08,0,0,1-26.22-20.33L338,416.85Z"/><path class="cls-4" d="M472.64,355.82A22.43,22.43,0,0,0,454.08,346H416v-6h38.08a28.41,28.41,0,0,1,23.52,12.45Z"/><path class="cls-4" d="M389.09,355.82A22.42,22.42,0,0,0,370.53,346H333v-6h37.53a28.4,28.4,0,0,1,23.52,12.45Z"/><polygon class="cls-3" points="470 559.99 408 650.85 408 530 470 530 470 559.99"/><path class="cls-4" d="M423.63,485H395.8A10.84,10.84,0,0,1,385,474.16V474h47.61Z"/><path class="cls-4" d="M405.94,467H385.31a10.32,10.32,0,1,1,20.63,0Z"/><path class="cls-4" d="M426.58,467H405.94a10.32,10.32,0,0,1,20.64,0Z"/><polygon class="cls-4" points="421.58 458.15 439.76 467 422.07 467 421.58 458.15"/><polygon class="cls-4" points="400.42 457.86 419.12 467 401.43 467 400.42 457.86"/><polygon class="cls-1" points="473.13 388 440.63 388 431.97 375 465.55 375 473.13 388"/><polygon class="cls-1" points="382 390 360.58 390 352.01 375 378.79 371.79 382 377.15 382 390"/><path class="cls-4" d="M385.56,377h-36.3l-12.1-11H376a11.5,11.5,0,0,1,8.65,3.93l12,13.67Z"/><path class="cls-4" d="M379.1,396H365.3a10.83,10.83,0,0,1-9.7-6h29.55A6.05,6.05,0,0,1,379.1,396Z"/><path class="cls-4" d="M350,377h19a0,0,0,0,1,0,0v19a0,0,0,0,1,0,0H359a9,9,0,0,1-9-9V377A0,0,0,0,1,350,377Z"/><polygon class="cls-1" points="460 390 438.58 390 430.01 375 456.79 371.79 460 377.15 460 390"/><path class="cls-4" d="M462.65,377h-35.2l-12.1-11h38.79a11.5,11.5,0,0,1,8.65,3.93l12,13.67Z"/><path class="cls-4" d="M457.28,396H443.49a10.83,10.83,0,0,1-9.7-6h29.55A6.06,6.06,0,0,1,457.28,396Z"/><path class="cls-4" d="M428,377h19a0,0,0,0,1,0,0v19a0,0,0,0,1,0,0H437a9,9,0,0,1-9-9V377A0,0,0,0,1,428,377Z"/><path class="cls-3" d="M475.73,423.68a23.92,23.92,0,1,1-43.45-20Z"/><path class="cls-4" d="M408,441H394.3a13.94,13.94,0,0,1-13.38-17.84l10.44-35.78L379.65,374.7l4.41-4.07,14,15.17-11.39,39A7.95,7.95,0,0,0,394.3,435H408Z"/><polygon class="cls-4" points="427 440 416.83 440 407.36 428.16 412.05 424.42 419.72 434 427 434 427 440"/><rect class="cls-4" x="382" y="464" width="59" height="6"/><rect class="cls-4" x="463.44" y="370" width="6" height="18.95" transform="translate(-133.7 417.01) rotate(-42.71)"/><path class="cls-4" d="M517.85,440h-9.26a3,3,0,0,1-2.9-2.21l-4-14.56,5.79-1.57L510.88,434h7A10.16,10.16,0,0,0,528,423.85V415h6v8.85A16.16,16.16,0,0,1,517.85,440Z"/><rect class="cls-4" x="515.35" y="406.36" width="15.85" height="6" transform="translate(-117.31 585.58) rotate(-53.42)"/><path class="cls-2" d="M58.47,138.69A20,20,0,0,1,51,129.63a26.88,26.88,0,0,1-2-11.46l9.36.72q-.36,6.48,3.24,10.38t10.8,3.9q7.67,0,10.86-4.44a18.13,18.13,0,0,0,3.18-10.8V70.17a13.5,13.5,0,0,1-4.92.84,31,31,0,0,1-11-2.64,16.72,16.72,0,0,0-5.4-1.32c-2.16,0-5.49.92-10,2.76l-4.08-8a85,85,0,0,1,8.76-3.3,19.35,19.35,0,0,1,5.28-.78,15.28,15.28,0,0,1,4.5.72q2.34.72,6.42,2.28a14.87,14.87,0,0,0,5.76,1.2,8.4,8.4,0,0,0,3.42-1,7.11,7.11,0,0,0,2.82-2.1h8.28v59.52a27.86,27.86,0,0,1-2.52,11.82,20.21,20.21,0,0,1-8,8.82c-3.65,2.24-8.22,3.36-13.74,3.36S62,141.09,58.47,138.69Z"/><rect class="cls-2" x="73" y="274" width="6" height="366"/><path class="cls-2" d="M727,633h-6V116.54A37.58,37.58,0,0,0,683.46,79H151V73H683.46A43.59,43.59,0,0,1,727,116.54Z"/><circle class="cls-2" cx="75.07" cy="195.42" r="13.42"/><circle class="cls-2" cx="63.52" cy="213.2" r="11.59"/><circle class="cls-2" cx="86.62" cy="213.2" r="11.59"/><path class="cls-2" d="M89.66,235H60.47a21.29,21.29,0,0,0,11.59-18.94V207h6v9.06A21.28,21.28,0,0,0,89.66,235Z"/><polygon class="cls-4" points="570.75 323 318.45 323 306.39 269.25 593.78 248.41 570.75 323"/><path class="cls-4" d="M327.23,268.15l82.82-117.49a28.79,28.79,0,0,1,30.84-11.25l50.24,13.23a28.76,28.76,0,0,1,19.26,16.82l34,82.24Z"/><circle class="cls-1" cx="461.05" cy="213.78" r="13.79"/><circle class="cls-1" cx="448.99" cy="232.74" r="12.07"/><circle class="cls-1" cx="473.12" cy="231.79" r="12.07"/><path class="cls-1" d="M476.47,255.15H446.7c7.25-4.15,11.81-11.62,10.91-19.77v-9.54h6.89v9.54a22.17,22.17,0,0,0,12,19.33Z"/><rect class="cls-1" x="301.47" y="254.73" width="300.52" height="6" transform="translate(-20.05 38.85) rotate(-4.82)"/><rect class="cls-1" x="305.01" y="270.94" width="300.52" height="6" transform="translate(-21.4 39.21) rotate(-4.82)"/><path class="cls-4" d="M541.09,406A14.91,14.91,0,0,1,528,398.2l-15.62-28.77A3.09,3.09,0,0,1,512,368V349.35a23.73,23.73,0,0,0-10.61-19.81l-34.07-23.06,3.36-5,34.06,23A29.76,29.76,0,0,1,518,349.35v17.89l15.25,28.1a8.92,8.92,0,0,0,13.87,2.31l4.07,4.41A14.88,14.88,0,0,1,541.09,406Z"/><path class="cls-4" d="M523.09,406A14.91,14.91,0,0,1,510,398.2l-15.62-28.77A3.09,3.09,0,0,1,494,368V356.35a23.73,23.73,0,0,0-10.61-19.81l-34.07-23.06,3.36-5,34.06,23A29.76,29.76,0,0,1,500,356.35v10.89l15.25,28.1a8.92,8.92,0,0,0,13.87,2.31l4.07,4.41A14.88,14.88,0,0,1,523.09,406Z"/><path class="cls-4" d="M559.09,406A14.91,14.91,0,0,1,546,398.2l-15.62-28.77A3.09,3.09,0,0,1,530,368V343.35a23.73,23.73,0,0,0-10.61-19.81l-34.07-23.06,3.36-5,34.06,23A29.76,29.76,0,0,1,536,343.35v23.89l15.25,28.1a8.94,8.94,0,0,0,7.84,4.66,8.83,8.83,0,0,0,6.4-2.71l4.31,4.17A14.77,14.77,0,0,1,559.09,406Z"/><path class="cls-4" d="M577.09,406A14.91,14.91,0,0,1,564,398.2l-15.62-28.77A3.09,3.09,0,0,1,548,368V339.35a23.73,23.73,0,0,0-10.61-19.81l-34.07-23.06,3.36-5,34.06,23A29.76,29.76,0,0,1,554,339.35v27.89l15.25,28.1A8.92,8.92,0,0,0,586,391.09a7.1,7.1,0,0,0-7.09-7.09H573v-6h5.91A13.1,13.1,0,0,1,592,391.09,14.93,14.93,0,0,1,577.09,406Z"/><path class="cls-1" d="M118.07,624.92l15.23-23.1A46.54,46.54,0,0,1,161,581.89L196,573.05a30.48,30.48,0,0,1,37,22.07l11.57,45.72A8.39,8.39,0,1,1,228.29,645L142.23,663.7Z"/><path class="cls-2" d="M235.26,653.94a11.4,11.4,0,0,1-11-8.6l-11.1-43.88,5.81-1.47,11.11,43.88a5.37,5.37,0,0,0,2.47,3.31,5.3,5.3,0,0,0,4.08.59,5.4,5.4,0,0,0,3.91-6.55L228.94,595.5a27.49,27.49,0,0,0-33.38-19.9l-34.94,8.84a43.46,43.46,0,0,0-26,18.65l-15.24,23.13-5-3.31,15.23-23.09a49.35,49.35,0,0,1,29.49-21.19l34.94-8.84A33.46,33.46,0,0,1,234.75,594l11.57,45.72a11.4,11.4,0,0,1-8.25,13.84A11.21,11.21,0,0,1,235.26,653.94Z"/><path class="cls-2" d="M219.48,659.94a11.43,11.43,0,0,1-11-8.6l-11.28-44.6,5.81-1.47,11.29,44.59a5.39,5.39,0,0,0,10.46-2.64l-8.05-31.81,5.81-1.47,8.05,31.8a11.41,11.41,0,0,1-8.25,13.85A11.65,11.65,0,0,1,219.48,659.94Z"/><path class="cls-2" d="M203.18,664.06a11.4,11.4,0,0,1-11-8.61l-11.29-44.59,5.82-1.47L198,654a5.39,5.39,0,1,0,10.46-2.64l-7.75-30.65,5.81-1.47,7.76,30.64a11.44,11.44,0,0,1-11.07,14.2Z"/><path class="cls-2" d="M186.93,668.17a11.42,11.42,0,0,1-11.05-8.6L164.6,615l5.81-1.48,11.29,44.6a5.4,5.4,0,1,0,10.46-2.65l-8.64-34.13,5.82-1.47L198,654a11.41,11.41,0,0,1-8.25,13.84A11.17,11.17,0,0,1,186.93,668.17Z"/><rect class="cls-2" x="138.09" y="655.17" width="29.28" height="6" transform="translate(-193.69 78.08) rotate(-17.78)"/><path class="cls-4" d="M254.14,656.14l-2-5.65,6.55-2.35a12.82,12.82,0,0,0,7.74-16.41L243.86,569a12.83,12.83,0,0,0-16.41-7.73l-6.55,2.35-2-5.65,6.54-2.35A18.83,18.83,0,0,1,249.51,567L272,629.7a18.83,18.83,0,0,1-11.36,24.09Z"/><path class="cls-4" d="M526.16,500.08l-4.32-4.16,9.69-10.08A51.59,51.59,0,0,0,546,449.91V401.33h6v48.58A57.55,57.55,0,0,1,535.85,490Z"/><path class="cls-4" d="M544.16,506.75l-4.32-4.16,9.69-10.08A51.6,51.6,0,0,0,564,456.58V401h6v55.58a57.55,57.55,0,0,1-16.15,40.09Z"/><path class="cls-4" d="M507.12,494.79l-4.24-4.24,9.94-9.94A51.5,51.5,0,0,0,528,444V401h6v43a57.47,57.47,0,0,1-16.94,40.89Z"/><circle class="cls-2" cx="456" cy="1044" r="122"/><circle class="cls-2" cx="561" cy="882" r="105"/><circle class="cls-2" cx="351" cy="882" r="105"/><path class="cls-2" d="M367.66,734.46C351.48,714.68,365.53,685,391.09,685H545s7,19,10.09,21.77A193.14,193.14,0,0,0,483,857.27V939H428V856.85C428,817.22,396.35,769.53,367.66,734.46Z"/><path class="cls-1" d="M116.16,811.49l-11.49,17.43,20,6.14a45.24,45.24,0,0,0,28.65-.66L548.11,692.79l-14.59-47.22L138.68,787.18C129.45,797.09,121.55,803.3,116.16,811.49Z"/><path class="cls-2" d="M137.94,840.05a48.19,48.19,0,0,1-14.2-2.12l-19.95-6.14a3,3,0,0,1-.14-5.69l86.1-31.1,2,5.64L114.13,828.7l11.38,3.5a42.61,42.61,0,0,0,26.74-.62l79.09-28.36,2,5.64-79.08,28.37A48.46,48.46,0,0,1,137.94,840.05Z"/><rect class="cls-2" x="329.43" y="727.82" width="225.3" height="6" transform="translate(-220.73 192.1) rotate(-19.73)"/><path class="cls-2" d="M107.18,830.57l-5-3.3,11.48-17.43a48.61,48.61,0,0,1,24-18.89L221,761l2,5.65-83.35,30a42.55,42.55,0,0,0-21,16.54Z"/><rect class="cls-2" x="453.22" y="662.74" width="83.04" height="6" transform="translate(-196.01 206.56) rotate(-19.77)"/><rect class="cls-2" x="422.17" y="689.25" width="121.24" height="6" transform="translate(-206.18 204.79) rotate(-19.83)"/><path class="cls-1" d="M249.57,742H411a27.06,27.06,0,0,1,26.23,20.38L461,855.53l.28,154.47H236.77Z"/><path class="cls-3" d="M461.29,932H430.05a25.43,25.43,0,0,1-21-11.14l-10.55-15.51,15.84-58.07A9.72,9.72,0,0,0,404.92,835H391V742h19.93a27.08,27.08,0,0,1,26.22,20.33L461,855.15Z"/><path class="cls-4" d="M383,932H344.69a28.4,28.4,0,0,1-23.52-12.45l5-3.37A22.42,22.42,0,0,0,344.69,926H383Z"/><path class="cls-4" d="M466,932H428.23a28.41,28.41,0,0,1-23.52-12.45l5-3.37A22.43,22.43,0,0,0,428.23,926H466Z"/><polygon class="cls-3" points="329 712.01 391 621.15 391 742 329 742 329 712.01"/><path class="cls-4" d="M375.33,787h27.83A10.84,10.84,0,0,1,414,797.84V798H366.4Z"/><path class="cls-4" d="M392.82,805h20.64a10.32,10.32,0,1,1-20.64,0Z"/><path class="cls-4" d="M372.18,805h20.64a10.32,10.32,0,1,1-20.64,0Z"/><polygon class="cls-4" points="377.19 813.85 359 805 376.69 805 377.19 813.85"/><polygon class="cls-4" points="398.35 814.14 379.64 805 397.33 805 398.35 814.14"/><polygon class="cls-1" points="325.63 884 358.13 884 366.8 897 333.22 897 325.63 884"/><polygon class="cls-1" points="417 882 438.42 882 446.99 897 420.21 900.21 417 894.85 417 882"/><path class="cls-4" d="M413.2,895h36.3l12.1,11H422.82a11.47,11.47,0,0,1-8.65-3.93l-12-13.67Z"/><path class="cls-4" d="M419.67,876h13.79a10.85,10.85,0,0,1,9.71,6H413.61A6.06,6.06,0,0,1,419.67,876Z"/><path class="cls-4" d="M430,876h19a0,0,0,0,1,0,0v19a0,0,0,0,1,0,0H439a9,9,0,0,1-9-9V876A0,0,0,0,1,430,876Z" transform="translate(879 1771) rotate(180)"/><polygon class="cls-1" points="339 882 360.42 882 368.99 897 342.21 900.21 339 894.85 339 882"/><path class="cls-4" d="M336.11,895h35.2l12.1,11H344.63a11.48,11.48,0,0,1-8.65-3.93L324,888.4Z"/><path class="cls-4" d="M341.48,876h13.79a10.85,10.85,0,0,1,9.71,6H335.42A6.06,6.06,0,0,1,341.48,876Z"/><path class="cls-4" d="M352,876h19a0,0,0,0,1,0,0v19a0,0,0,0,1,0,0H361a9,9,0,0,1-9-9V876A0,0,0,0,1,352,876Z" transform="translate(723 1771) rotate(180)"/><path class="cls-3" d="M323,848.13a23.92,23.92,0,1,1,43.45,20Z"/><path class="cls-4" d="M414.7,901.37l-14-15.17,11.38-39A7.95,7.95,0,0,0,404.46,837H391v-6h13.46a13.93,13.93,0,0,1,13.38,17.84l-10.43,35.78,11.7,12.68Z"/><polygon class="cls-4" points="386.72 847.59 379.05 838 372 838 372 832 381.93 832 391.4 843.84 386.72 847.59"/><rect class="cls-4" x="358" y="802" width="59" height="6"/><rect class="cls-4" x="329.33" y="882.86" width="6" height="18.95" transform="translate(-517.12 462.05) rotate(-42.71)"/><path class="cls-4" d="M271,857h-6v-8.85A16.16,16.16,0,0,1,281.15,832h9.26a3,3,0,0,1,2.9,2.21l4,14.56-5.79,1.57L288.12,838h-7A10.16,10.16,0,0,0,271,848.15Z"/><rect class="cls-4" x="267.56" y="859.45" width="15.85" height="6" transform="translate(-581.25 569.66) rotate(-53.42)"/><path class="cls-2" d="M740.3,1135.13a20.07,20.07,0,0,1,7.44,9.06,27.19,27.19,0,0,1,2,11.46l-9.36-.72q.36-6.48-3.24-10.38t-10.8-3.9q-7.68,0-10.86,4.44a18.06,18.06,0,0,0-3.18,10.8v47.76a13.5,13.5,0,0,1,4.92-.84q4.44,0,11,2.64a16.61,16.61,0,0,0,5.4,1.32q3.24,0,10-2.76l4.08,8a86.78,86.78,0,0,1-8.76,3.3,19.41,19.41,0,0,1-5.28.78,15.28,15.28,0,0,1-4.5-.72q-2.34-.72-6.42-2.28a14.87,14.87,0,0,0-5.76-1.2,8.36,8.36,0,0,0-3.42,1,7,7,0,0,0-2.82,2.1h-8.28v-59.52a27.86,27.86,0,0,1,2.52-11.82,20.15,20.15,0,0,1,8-8.82q5.46-3.36,13.74-3.36T740.3,1135.13Z"/><rect class="cls-2" x="721" y="633" width="6" height="368"/><path class="cls-2" d="M648,1201H115.54a43.15,43.15,0,0,1-31.08-13.19A41.08,41.08,0,0,1,73,1157.39V639h6v518.59a35.15,35.15,0,0,0,9.79,26.08A37.15,37.15,0,0,0,115.54,1195H648Z"/><circle class="cls-2" cx="723.5" cy="1078.5" r="13.5"/><circle class="cls-2" cx="735.5" cy="1060.5" r="11.5"/><circle class="cls-2" cx="712.5" cy="1060.5" r="11.5"/><path class="cls-2" d="M709.45,1039h29.1A21.26,21.26,0,0,0,727,1057.91V1067h-6v-9.09A21.26,21.26,0,0,0,709.45,1039Z"/><polygon class="cls-4" points="232.83 951 483.29 951 495.27 1004.36 209.96 1025.05 232.83 951"/><path class="cls-4" d="M474.58,1005.25l-82.22,116.64a28.57,28.57,0,0,1-30.61,11.17l-49.88-13.13a28.55,28.55,0,0,1-19.12-16.7L259,1021.58Z"/><circle class="cls-1" cx="341.44" cy="1059.35" r="13.61"/><circle class="cls-1" cx="353.96" cy="1040.3" r="11.98"/><circle class="cls-1" cx="330" cy="1041.39" r="11.98"/><path class="cls-1" d="M326.73,1018.52h29.46c-7.27,4.16-11.85,11.65-10.94,19.83v9.57h-6.54v-9.57a22.21,22.21,0,0,0-12-19.39Z"/><rect class="cls-1" x="201.81" y="1012.6" width="298.35" height="6" transform="translate(-84.06 33.07) rotate(-4.82)"/><rect class="cls-1" x="198.29" y="996.5" width="298.35" height="6" transform="translate(-82.72 32.71) rotate(-4.82)"/><path class="cls-4" d="M328.32,970.3l-34.06-23A29.73,29.73,0,0,1,281,922.46V904.58l-15.25-28.1a8.92,8.92,0,0,0-13.87-2.31l-4.07-4.41A14.92,14.92,0,0,1,271,873.61l15.62,28.78a3,3,0,0,1,.36,1.43v18.64a23.75,23.75,0,0,0,10.61,19.82l34.07,23.05Z"/><path class="cls-4" d="M346.32,963.3l-34.06-23A29.73,29.73,0,0,1,299,915.46V904.58l-15.25-28.1a8.92,8.92,0,0,0-13.87-2.31l-4.07-4.41A14.92,14.92,0,0,1,289,873.61l15.62,28.78a3,3,0,0,1,.36,1.43v11.64a23.75,23.75,0,0,0,10.61,19.82l34.07,23.05Z"/><path class="cls-4" d="M310.32,976.3l-34.06-23A29.73,29.73,0,0,1,263,928.46V904.58l-15.25-28.1a8.92,8.92,0,0,0-14.24-2l-4.31-4.17A14.92,14.92,0,0,1,253,873.61l15.62,28.78a3,3,0,0,1,.36,1.43v24.64a23.75,23.75,0,0,0,10.61,19.82l34.07,23.05Z"/><path class="cls-4" d="M292.32,980.48l-34.06-23A29.76,29.76,0,0,1,245,932.65V904.76l-15.25-28.1A8.92,8.92,0,0,0,213,880.91a7.1,7.1,0,0,0,7.09,7.09H226v6h-5.91A13.1,13.1,0,0,1,207,880.91a14.91,14.91,0,0,1,28-7.11l15.62,28.77A3,3,0,0,1,251,904v28.65a23.73,23.73,0,0,0,10.61,19.81l34.07,23.06Z"/><path class="cls-1" d="M680.69,646.9,665.47,670a46.62,46.62,0,0,1-27.73,19.94l-34.94,8.84a30.48,30.48,0,0,1-37-22.07L554.2,631a8.4,8.4,0,0,1,16.28-4.12l86.06-18.74Z"/><path class="cls-2" d="M596.41,703.07A33.55,33.55,0,0,1,564,677.79l-11.57-45.72a11.41,11.41,0,0,1,8.25-13.84,11.39,11.39,0,0,1,13.84,8.25l11.11,43.88-5.82,1.47L568.72,628a5.4,5.4,0,1,0-10.46,2.65l11.57,45.72a27.47,27.47,0,0,0,33.38,19.89l34.94-8.84a43.39,43.39,0,0,0,25.94-18.65l15.24-23.12,5,3.3L669.12,672a49.37,49.37,0,0,1-29.5,21.19L604.68,702A33.83,33.83,0,0,1,596.41,703.07Z"/><path class="cls-2" d="M595.8,666.55,584.52,622a5.4,5.4,0,0,0-10.46,2.65l8.05,31.81-5.82,1.47-8-31.81a11.39,11.39,0,1,1,22.09-5.59l11.29,44.6Z"/><path class="cls-2" d="M612.08,662.43l-11.29-44.59a5.39,5.39,0,0,0-10.46,2.64l7.76,30.65-5.82,1.47L584.52,622a11.39,11.39,0,0,1,22.09-5.59L617.89,661Z"/><path class="cls-2" d="M628.35,658.31l-11.28-44.59a5.39,5.39,0,1,0-10.46,2.64l8.64,34.14L609.43,652l-8.64-34.13a11.39,11.39,0,1,1,22.09-5.59l11.29,44.59Z"/><rect class="cls-2" x="631.4" y="610.65" width="29.28" height="6" transform="translate(-156.53 226.59) rotate(-17.78)"/><path class="cls-4" d="M567,717.34a18.87,18.87,0,0,1-17.71-12.48l-22.54-62.74A18.83,18.83,0,0,1,538.08,618l6.54-2.35,2,5.65-6.54,2.34a12.84,12.84,0,0,0-7.74,16.42l22.53,62.74a12.84,12.84,0,0,0,16.42,7.74l6.54-2.35,2,5.65-6.54,2.35A19.06,19.06,0,0,1,567,717.34Z"/><path class="cls-4" d="M253,870h-6V821.9a57.53,57.53,0,0,1,16.15-40.08l9.69-10.08,4.32,4.16L267.47,786A51.58,51.58,0,0,0,253,821.9Z"/><path class="cls-4" d="M235,871h-6V815.23a57.53,57.53,0,0,1,16.15-40.08l9.69-10.08,4.32,4.16-9.69,10.08A51.58,51.58,0,0,0,235,815.23Z"/><path class="cls-4" d="M271,871h-6V827.86A57.45,57.45,0,0,1,281.94,787l9.94-9.94,4.24,4.24-9.94,9.94A51.5,51.5,0,0,0,271,827.86Z"/><rect class="cls-4" x="120.03" y="635" width="559.95" height="6" transform="translate(-194.45 175.75) rotate(-20.05)"/><circle class="cls-1" cx="400" cy="638" r="68"/><circle class="cls-4" cx="400" cy="638" r="57.12"/><circle class="cls-1" cx="400" cy="620.71" r="18.21"/><circle class="cls-1" cx="384.53" cy="644.37" r="15.47"/><circle class="cls-1" cx="415.47" cy="644.37" r="15.47"/><path class="cls-1" d="M419.41,673.5H379.68A28.56,28.56,0,0,0,395.45,648V636.18h8.19V648A28.57,28.57,0,0,0,419.4,673.5Z"/></g></svg>