<svg xmlns="http://www.w3.org/2000/svg" viewBox="0 0 800 1218"><defs><style>.cls-1{fill:#f2f0eb;}.cls-2{fill:#f4622f;}.cls-3{fill:#d39c53;}.cls-4{fill:#27282b;}</style></defs><title>Jd</title><g id="Layer_2" data-name="Layer 2"><rect class="cls-1" width="800" height="1218"/></g><g id="Layer_1" data-name="Layer 1"><path class="cls-2" d="M356.36,96l-6.47-16.62L343.43,96a500.68,500.68,0,0,1-209,247.86,500.68,500.68,0,0,1,209,247.86l6.46,16.62,6.47-16.62a500.53,500.53,0,0,1,209-247.86A500.66,500.66,0,0,1,356.36,96Z"/><path class="cls-1" d="M564.58,501H388a27.06,27.06,0,0,1-26.23-20.38L338,387.47,337.72,268l239.65-35Z"/><path class="cls-3" d="M337.71,311H369a25.43,25.43,0,0,1,21,11.14l10.55,15.51L384.7,395.72A9.72,9.72,0,0,0,394.08,408H408v93H388.07a27.08,27.08,0,0,1-26.22-20.33L338,387.85Z"/><path class="cls-4" d="M472.64,326.82A22.43,22.43,0,0,0,454.08,317H416v-6h38.08a28.41,28.41,0,0,1,23.52,12.45Z"/><path class="cls-4" d="M389.09,326.82A22.42,22.42,0,0,0,370.53,317H333v-6h37.53a28.4,28.4,0,0,1,23.52,12.45Z"/><polygon class="cls-3" points="470 530.99 408 621.85 408 501 470 501 470 530.99"/><path class="cls-4" d="M423.63,456H395.8A10.84,10.84,0,0,1,385,445.16V445h47.61Z"/><path class="cls-4" d="M405.94,438H385.31a10.32,10.32,0,1,1,20.63,0Z"/><path class="cls-4" d="M426.58,438H405.94a10.32,10.32,0,0,1,20.64,0Z"/><polygon class="cls-4" points="421.58 429.15 439.76 438 422.07 438 421.58 429.15"/><polygon class="cls-4" points="400.42 428.86 419.12 438 401.43 438 400.42 428.86"/><polygon class="cls-1" points="473.13 359 440.63 359 431.97 346 465.55 346 473.13 359"/><polygon class="cls-1" points="382 361 360.58 361 352.01 346 378.79 342.79 382 348.15 382 361"/><path class="cls-4" d="M385.56,348h-36.3l-12.1-11H376a11.5,11.5,0,0,1,8.65,3.93l12,13.67Z"/><path class="cls-4" d="M379.1,367H365.3a10.83,10.83,0,0,1-9.7-6h29.55A6.05,6.05,0,0,1,379.1,367Z"/><path class="cls-4" d="M350,348h19a0,0,0,0,1,0,0v19a0,0,0,0,1,0,0H359a9,9,0,0,1-9-9V348A0,0,0,0,1,350,348Z"/><polygon class="cls-1" points="460 361 438.58 361 430.01 346 456.79 342.79 460 348.15 460 361"/><path class="cls-4" d="M462.65,348h-35.2l-12.1-11h38.79a11.5,11.5,0,0,1,8.65,3.93l12,13.67Z"/><path class="cls-4" d="M457.28,367H443.49a10.83,10.83,0,0,1-9.7-6h29.55A6.06,6.06,0,0,1,457.28,367Z"/><path class="cls-4" d="M428,348h19a0,0,0,0,1,0,0v19a0,0,0,0,1,0,0H437a9,9,0,0,1-9-9V348A0,0,0,0,1,428,348Z"/><path class="cls-3" d="M475.73,394.68a23.92,23.92,0,1,1-43.45-20Z"/><path class="cls-4" d="M408,412H394.3a13.95,13.95,0,0,1-13.38-17.85l10.44-35.77L379.65,345.7l4.41-4.07,14,15.17-11.39,39A7.95,7.95,0,0,0,394.3,406H408Z"/><polygon class="cls-4" points="427 411 416.83 411 407.36 399.16 412.05 395.42 419.72 405 427 405 427 411"/><rect class="cls-4" x="382" y="435" width="59" height="6"/><rect class="cls-4" x="463.44" y="341" width="6" height="18.95" transform="matrix(0.73, -0.68, 0.68, 0.73, -114.02, 409.33)"/><path class="cls-4" d="M517.85,408h-9.26a3,3,0,0,1-2.9-2.21l-4-14.56,5.79-1.57L510.88,402h7A10.16,10.16,0,0,0,528,391.85V383h6v8.85A16.16,16.16,0,0,1,517.85,408Z"/><rect class="cls-4" x="516.35" y="376.36" width="10.85" height="6" transform="translate(-93.37 573.7) rotate(-53.55)"/><path class="cls-4" d="M453.33,132c0-10.41-15.89-30-24.33-29.95,8.44,0,24.33-19.62,24.33-30,0,10.4,15.88,30,24.33,30C469.21,102,453.33,121.6,453.33,132Z"/><path class="cls-4" d="M571.31,286.4H335.38a142.86,142.86,0,0,1,81.33-128.93,64.55,64.55,0,0,0,24.44-20.32l12.2-16.77,12.2,16.77A64.55,64.55,0,0,0,490,157.47,142.86,142.86,0,0,1,571.31,286.4Z"/><path class="cls-4" d="M339.68,256.91H567a14.67,14.67,0,0,1,14.67,14.67V293.5a0,0,0,0,1,0,0H325a0,0,0,0,1,0,0V271.58A14.67,14.67,0,0,1,339.68,256.91Z"/><rect class="cls-1" x="319" y="250.63" width="267.61" height="6"/><path class="cls-1" d="M467.27,256.63H438.33V242.16a14.47,14.47,0,1,1,28.94,0Zm-22.94-6h16.94v-8.47a8.47,8.47,0,1,0-16.94,0Z"/><path class="cls-1" d="M426.86,256.63H397.92V242.16a14.47,14.47,0,0,1,28.94,0Zm-22.94-6h16.94v-8.47a8.47,8.47,0,0,0-16.94,0Z"/><path class="cls-1" d="M507.69,256.63H478.75V242.16a14.47,14.47,0,1,1,28.94,0Zm-22.94-6h16.94v-8.47a8.47,8.47,0,1,0-16.94,0Z"/><path class="cls-1" d="M386.44,256.63H357.51V242.16a14.47,14.47,0,1,1,28.93,0Zm-22.93-6h16.93v-8.47a8.47,8.47,0,1,0-16.93,0Z"/><path class="cls-1" d="M548.1,256.63H519.16V242.16a14.47,14.47,0,0,1,28.94,0Zm-22.94-6H542.1v-8.47a8.47,8.47,0,0,0-16.94,0Z"/><path class="cls-4" d="M558.76,396.49A46.8,46.8,0,0,1,514,349.67V286h6v63.67a40.79,40.79,0,0,0,39,40.82Z"/><path class="cls-4" d="M576.76,396.49A46.8,46.8,0,0,1,532,349.67V286h6v63.67a40.79,40.79,0,0,0,39,40.82Z"/><path class="cls-4" d="M594.76,396.49A46.8,46.8,0,0,1,550,349.67V286h6v63.67a40.79,40.79,0,0,0,39,40.82Z"/><path class="cls-4" d="M529.24,478.49l-.27-6a40.79,40.79,0,0,0,39-40.82V393h6v38.67A46.8,46.8,0,0,1,529.24,478.49Z"/><path class="cls-4" d="M511.24,478.49l-.27-6a40.79,40.79,0,0,0,39-40.82V394h6v37.67A46.8,46.8,0,0,1,511.24,478.49Z"/><path class="cls-4" d="M493.24,478.49l-.27-6a40.79,40.79,0,0,0,39-40.82V385h6v46.67A46.8,46.8,0,0,1,493.24,478.49Z"/><rect class="cls-4" x="568" y="286" width="6" height="97"/><path class="cls-4" d="M348.43,444H347v-6h1.43a20.73,20.73,0,0,0,16.38-7.94,35.56,35.56,0,0,1,28.08-13.61H408v6H392.89a29.59,29.59,0,0,0-23.37,11.33A26.73,26.73,0,0,1,348.43,444Z"/><path class="cls-4" d="M469,444h-1.43a26.73,26.73,0,0,1-21.09-10.22,29.59,29.59,0,0,0-23.37-11.33H408v-6h15.11a35.56,35.56,0,0,1,28.08,13.61A20.73,20.73,0,0,0,467.57,438H469Z"/><rect class="cls-2" x="73" y="244" width="6" height="367"/><path class="cls-2" d="M727,605h-6V87.54A37.58,37.58,0,0,0,683.46,50H148V44H683.46A43.59,43.59,0,0,1,727,87.54Z"/><path class="cls-2" d="M59.46,109.69A20.07,20.07,0,0,1,52,100.63a27.19,27.19,0,0,1-2-11.46l9.36.72q-.36,6.48,3.24,10.38t10.8,3.9q7.68,0,10.86-4.44a18.06,18.06,0,0,0,3.18-10.8V41.17a13.5,13.5,0,0,1-4.92.84q-4.44,0-11-2.64a16.61,16.61,0,0,0-5.4-1.32q-3.24,0-10,2.76l-4.08-8a86.78,86.78,0,0,1,8.76-3.3,19.41,19.41,0,0,1,5.28-.78,15.28,15.28,0,0,1,4.5.72Q73,30.13,77,31.69a14.87,14.87,0,0,0,5.76,1.2,8.36,8.36,0,0,0,3.42-1A7,7,0,0,0,89,29.77h8.28V89.29a27.86,27.86,0,0,1-2.52,11.82,20.15,20.15,0,0,1-8,8.82q-5.46,3.36-13.74,3.36T59.46,109.69Z"/><path class="cls-2" d="M76.5,211.57c0-11.14-17-32-26-32,9,0,26-21,26-32.11,0,11.14,17,32.07,26,32.07C93.49,179.5,76.5,200.43,76.5,211.57Z"/><path class="cls-1" d="M226.62,162.51s43.07,27,50.39,127.68c-42.46,9.1-56.6,35.19-33.33,189.91l-28.56,7.09C199.79,431.79,122.4,287.39,226.62,162.51Z"/><path class="cls-2" d="M212.23,488c-2.24-8.07-5.84-18.15-10-29.81-12.25-34.3-29-81.27-31.75-133.62-1.49-28.73,1.55-56.14,9-81.47,8.74-29.59,23.82-57.35,44.82-82.51a3,3,0,0,1,3.89-.62C230,161.1,272.65,188.88,280,290a3,3,0,0,1-2.37,3.15c-33.12,7.1-40.22,35.72-31.64,127.6l-6,.56c-4.64-49.72-4.45-79.28.64-98.83,5-19.27,15.29-30,33.17-34.59-6.65-83.37-38.23-114.36-46.7-121.25C141.8,271.23,184.73,391.4,207.88,456.16c4.2,11.78,7.84,21.94,10.13,30.23Z"/><rect class="cls-4" x="208.38" y="471.02" width="47.97" height="46.6" transform="translate(-136.04 91.06) rotate(-17.24)"/><path class="cls-2" d="M256.92,637.46,233,622.83a50,50,0,0,1-22.41-29.12l-14-48.39a20,20,0,0,1,13.67-24.76l59.2-17.08a11.5,11.5,0,1,1,6.38,22.1l-43.83,12.64-1.66-5.76,43.83-12.65a5.5,5.5,0,0,0-3.05-10.57L212,526.32a14,14,0,0,0-9.57,17.34l14,48.38a44,44,0,0,0,19.76,25.66l23.91,14.65Z"/><path class="cls-2" d="M238.71,554l-1.66-5.76,44.42-12.82a5.5,5.5,0,0,0-3.05-10.57l-31.93,9.21-1.66-5.76,31.93-9.21A11.49,11.49,0,0,1,290,535.7a11.48,11.48,0,0,1-6.88,5.49Z"/><path class="cls-2" d="M243.42,570.34l-1.66-5.77,44.42-12.81a5.5,5.5,0,0,0-3.05-10.57l-31,8.93-1.66-5.76,31-8.94a11.5,11.5,0,1,1,6.37,22.1Z"/><path class="cls-2" d="M248.14,586.67l-1.67-5.77,44.42-12.81a5.5,5.5,0,1,0-3.05-10.57L254,567.29l-1.66-5.77,33.85-9.76a11.5,11.5,0,1,1,6.38,22.09Z"/><rect class="cls-2" x="294.09" y="583.07" width="6" height="29.17" transform="translate(-306.68 313.21) rotate(-38.34)"/><path class="cls-2" d="M215.44,457c-33.11-98.18-25.73-149.29-25.4-151.42l5.92.92-3-.46,3,.46c-.07.51-7.41,52,25.17,148.58Z"/><path class="cls-2" d="M443.4,1120.34l6.47,16.62,6.46-16.62a500.68,500.68,0,0,1,209-247.86,500.63,500.63,0,0,1-209-247.86L449.87,608l-6.47,16.61a499.35,499.35,0,0,1-29,61.69A500.67,500.67,0,0,1,234.37,872.48,500.66,500.66,0,0,1,443.4,1120.34Z"/><path class="cls-1" d="M235.42,715H412a27.06,27.06,0,0,1,26.23,20.38L462,828.53,462.28,948,222.63,983Z"/><path class="cls-3" d="M462.29,905H431.05a25.43,25.43,0,0,1-21-11.14l-10.55-15.51,15.84-58.07A9.72,9.72,0,0,0,405.92,808H392V715h19.93a27.08,27.08,0,0,1,26.22,20.33L462,828.15Z"/><path class="cls-4" d="M384,905H345.68a28.4,28.4,0,0,1-23.52-12.45l5-3.37A22.43,22.43,0,0,0,345.68,899H384Z"/><path class="cls-4" d="M467,905H429.23a28.4,28.4,0,0,1-23.52-12.45l5-3.37A22.42,22.42,0,0,0,429.23,899H467Z"/><polygon class="cls-3" points="330 685.01 392 594.15 392 715 330 715 330 685.01"/><path class="cls-4" d="M376.33,760h27.83A10.84,10.84,0,0,1,415,770.84V771H367.4Z"/><path class="cls-4" d="M393.82,778h20.63a10.32,10.32,0,1,1-20.63,0Z"/><path class="cls-4" d="M373.18,778h20.64a10.32,10.32,0,1,1-20.64,0Z"/><polygon class="cls-4" points="378.18 786.85 360 778 377.69 778 378.18 786.85"/><polygon class="cls-4" points="399.35 787.14 380.64 778 398.33 778 399.35 787.14"/><polygon class="cls-1" points="326.63 857 359.13 857 367.79 870 334.21 870 326.63 857"/><polygon class="cls-1" points="418 855 439.42 855 447.99 870 421.21 873.21 418 867.85 418 855"/><path class="cls-4" d="M414.2,868h36.3l12.1,11H423.81a11.5,11.5,0,0,1-8.65-3.93l-12-13.67Z"/><path class="cls-4" d="M420.66,849h13.8a10.83,10.83,0,0,1,9.7,6H414.61A6.05,6.05,0,0,1,420.66,849Z"/><path class="cls-4" d="M431,849h19a0,0,0,0,1,0,0v19a0,0,0,0,1,0,0H440a9,9,0,0,1-9-9V849A0,0,0,0,1,431,849Z" transform="translate(881 1717) rotate(180)"/><polygon class="cls-1" points="340 855 361.42 855 369.99 870 343.21 873.21 340 867.85 340 855"/><path class="cls-4" d="M337.11,868h35.2l12.1,11H345.62a11.5,11.5,0,0,1-8.65-3.93L325,861.4Z"/><path class="cls-4" d="M342.48,849h13.79a10.83,10.83,0,0,1,9.7,6H336.42A6.06,6.06,0,0,1,342.48,849Z"/><path class="cls-4" d="M353,849h19a0,0,0,0,1,0,0v19a0,0,0,0,1,0,0H362a9,9,0,0,1-9-9V849A0,0,0,0,1,353,849Z" transform="translate(725 1717) rotate(180)"/><path class="cls-3" d="M324,821.63a23.92,23.92,0,0,1,43.45,20Z"/><path class="cls-4" d="M415.7,874.37l-14-15.17,11.39-39A7.95,7.95,0,0,0,405.46,810H392v-6h13.46a13.95,13.95,0,0,1,13.38,17.85L408.4,857.62l11.71,12.68Z"/><polygon class="cls-4" points="387.71 820.59 380.04 811 373 811 373 805 382.93 805 392.4 816.84 387.71 820.59"/><rect class="cls-4" x="359" y="775" width="59" height="6"/><rect class="cls-4" x="330.32" y="856.36" width="6" height="18.95" transform="translate(-498.89 455.73) rotate(-42.71)"/><path class="cls-4" d="M272,833h-6v-8.85A16.16,16.16,0,0,1,282.15,808h9.26a3,3,0,0,1,2.9,2.21l4,14.56-5.79,1.57L289.12,814h-7A10.16,10.16,0,0,0,272,824.15Z"/><rect class="cls-4" x="272.56" y="833.95" width="10.85" height="6" transform="translate(-560.4 563.33) rotate(-53.55)"/><path class="cls-4" d="M346.43,1084.31c0,10.4,15.89,30,24.33,30-8.44,0-24.33,19.61-24.33,30,0-10.41-15.88-30-24.33-30C330.55,1114.29,346.43,1094.71,346.43,1084.31Z"/><path class="cls-4" d="M228.45,930H464.38a142.86,142.86,0,0,1-81.33,128.93,64.55,64.55,0,0,0-24.44,20.32L346.41,1096l-12.2-16.77a64.55,64.55,0,0,0-24.44-20.32A142.86,142.86,0,0,1,228.45,930Z"/><path class="cls-4" d="M232.76,923H460.24A14.76,14.76,0,0,1,475,937.76V960a0,0,0,0,1,0,0H218a0,0,0,0,1,0,0V937.76A14.76,14.76,0,0,1,232.76,923Z" transform="translate(693 1883) rotate(180)"/><rect class="cls-1" x="213" y="960" width="268" height="6"/><path class="cls-1" d="M346.5,989A14.51,14.51,0,0,1,332,974.5V960h29v14.5A14.51,14.51,0,0,1,346.5,989ZM338,966v8.5a8.5,8.5,0,0,0,17,0V966Z"/><path class="cls-1" d="M387.5,989A14.51,14.51,0,0,1,373,974.5V960h29v14.5A14.51,14.51,0,0,1,387.5,989ZM379,966v8.5a8.5,8.5,0,0,0,17,0V966Z"/><path class="cls-1" d="M306.5,989A14.51,14.51,0,0,1,292,974.5V960h29v14.5A14.51,14.51,0,0,1,306.5,989ZM298,966v8.5a8.5,8.5,0,0,0,17,0V966Z"/><path class="cls-1" d="M427.5,989A14.51,14.51,0,0,1,413,974.5V960h29v14.5A14.51,14.51,0,0,1,427.5,989ZM419,966v8.5a8.5,8.5,0,0,0,17,0V966Z"/><path class="cls-1" d="M266.5,989A14.51,14.51,0,0,1,252,974.5V960h29v14.5A14.51,14.51,0,0,1,266.5,989ZM258,966v8.5a8.5,8.5,0,0,0,17,0V966Z"/><path class="cls-4" d="M286,930h-6V866.65a40.8,40.8,0,0,0-39-40.83,3,3,0,0,1,.14-6h.13A46.8,46.8,0,0,1,286,866.65Z"/><path class="cls-4" d="M268,930h-6V866.65a40.8,40.8,0,0,0-39-40.83,3,3,0,0,1,.14-6h.13A46.8,46.8,0,0,1,268,866.65Z"/><path class="cls-4" d="M250,930h-6V866.65a40.8,40.8,0,0,0-39-40.83,3,3,0,0,1,.14-6h.13A46.8,46.8,0,0,1,250,866.65Z"/><path class="cls-4" d="M232,823h-6V784.65a46.8,46.8,0,0,1,44.76-46.83,3,3,0,0,1,.27,6,40.8,40.8,0,0,0-39,40.83Z"/><path class="cls-4" d="M250,822h-6V784.65a46.8,46.8,0,0,1,44.76-46.83,3,3,0,0,1,.27,6,40.8,40.8,0,0,0-39,40.83Z"/><path class="cls-4" d="M268,831h-6V784.65a46.8,46.8,0,0,1,44.76-46.83,3,3,0,0,1,.27,6,40.8,40.8,0,0,0-39,40.83Z"/><rect class="cls-4" x="226" y="833" width="6" height="97"/><path class="cls-4" d="M406.88,800H391v-6h15.88a29.59,29.59,0,0,0,23.37-11.33l.36-.45A26.7,26.7,0,0,1,451.69,772H453v6h-1.31a20.7,20.7,0,0,0-16.37,7.94l-.36.45A35.56,35.56,0,0,1,406.88,800Z"/><path class="cls-4" d="M392,800H376.63a35.54,35.54,0,0,1-28.07-13.61l-.36-.45A20.71,20.71,0,0,0,331.83,778H330v-6h1.83a26.73,26.73,0,0,1,21.09,10.22l.35.45A29.58,29.58,0,0,0,376.63,794H392Z"/><rect class="cls-2" x="721" y="605" width="6" height="367"/><path class="cls-2" d="M652,1172H116.54A43.59,43.59,0,0,1,73,1128.46V611h6v517.46A37.58,37.58,0,0,0,116.54,1166H652Z"/><path class="cls-2" d="M740.3,1106.63a20,20,0,0,1,7.44,9.06,27.16,27.16,0,0,1,2,11.46l-9.36-.72c.24-4.32-.84-7.79-3.24-10.38s-6-3.9-10.8-3.9q-7.68,0-10.86,4.44a18,18,0,0,0-3.18,10.8v47.76a13.29,13.29,0,0,1,4.92-.84q4.44,0,11,2.64a16.61,16.61,0,0,0,5.4,1.32q3.24,0,10-2.76l4.08,8a89.37,89.37,0,0,1-8.76,3.3,19.41,19.41,0,0,1-5.28.78,15.28,15.28,0,0,1-4.5-.72c-1.56-.48-3.7-1.25-6.42-2.28a14.87,14.87,0,0,0-5.76-1.2,8.36,8.36,0,0,0-3.42,1,7,7,0,0,0-2.82,2.1h-8.28V1127a27.83,27.83,0,0,1,2.52-11.82,20,20,0,0,1,8-8.82q5.46-3.36,13.74-3.36T740.3,1106.63Z"/><path class="cls-2" d="M723.26,1004.75c0,11.13,17,32,26,32-9,0-26,21-26,32.1,0-11.13-17-32.07-26-32.07C706.27,1036.81,723.26,1015.88,723.26,1004.75Z"/><path class="cls-1" d="M573.14,1053.81s-43.07-27-50.39-127.69c42.46-9.1,56.6-35.19,33.33-189.91l28.56-7.09C600,784.52,677.36,928.93,573.14,1053.81Z"/><path class="cls-2" d="M573.14,1056.81a3,3,0,0,1-1.59-.46c-1.81-1.13-44.44-28.92-51.79-130a3,3,0,0,1,2.37-3.15c33.12-7.1,40.22-35.72,31.64-127.6l6-.56c4.64,49.73,4.45,79.28-.64,98.84-5,19.26-15.29,30-33.17,34.59,4,49.61,16.84,80.24,27,97.27,8.22,13.73,16,21,19.65,24C658,945.09,615,824.91,591.88,760.15c-4.2-11.77-7.84-21.94-10.13-30.23l5.78-1.6c2.24,8.08,5.84,18.15,10,29.81,12.25,34.3,29,81.28,31.75,133.63,1.49,28.72-1.55,56.13-9,81.46-8.74,29.59-23.82,57.35-44.82,82.51A3,3,0,0,1,573.14,1056.81Z"/><rect class="cls-4" x="543.41" y="698.69" width="47.97" height="46.6" transform="translate(1323.24 1243.43) rotate(162.76)"/><path class="cls-2" d="M527,713.29a11.5,11.5,0,0,1-3.19-22.55l43.83-12.65,1.67,5.76L525.51,696.5a5.5,5.5,0,1,0,3,10.57L587.77,690a14,14,0,0,0,9.57-17.33l-14-48.39a44,44,0,0,0-19.76-25.65L539.71,584l3.13-5.12,23.89,14.63a50,50,0,0,1,22.41,29.13l14,48.38a20,20,0,0,1-13.67,24.76l-59.2,17.08A11.39,11.39,0,0,1,527,713.29Z"/><path class="cls-2" d="M519.82,697.68a11.5,11.5,0,0,1-3.19-22.55l44.42-12.82,1.66,5.77-44.42,12.81a5.5,5.5,0,1,0,3.05,10.57l31.93-9.21,1.66,5.76L523,697.23A11.68,11.68,0,0,1,519.82,697.68Z"/><path class="cls-2" d="M515.09,681.35A11.5,11.5,0,0,1,505,664.28a11.38,11.38,0,0,1,6.88-5.49L556.33,646l1.67,5.76-44.42,12.82a5.5,5.5,0,0,0-1.14,10.1,5.52,5.52,0,0,0,4.19.47l31-8.94,1.66,5.77-31,8.93A11.36,11.36,0,0,1,515.09,681.35Z"/><path class="cls-2" d="M510.39,665a11.5,11.5,0,0,1-3.19-22.55l44.42-12.82,1.67,5.77-44.42,12.81a5.5,5.5,0,1,0,3.05,10.57L545.77,649l1.66,5.76-33.85,9.77A11.7,11.7,0,0,1,510.39,665Z"/><rect class="cls-2" x="499.67" y="604.08" width="6" height="29.17" transform="translate(-275.37 445.26) rotate(-38.34)"/><path class="cls-2" d="M609.72,910.77l-5.93-.92,3,.46-3-.45c.08-.51,7.42-52-25.16-148.59l5.69-1.92C617.43,857.53,610.05,908.65,609.72,910.77Z"/><rect class="cls-4" x="139.03" y="605" width="559.95" height="6" transform="translate(-183.02 180.45) rotate(-20.05)"/><circle class="cls-1" cx="419" cy="608" r="68"/><circle class="cls-4" cx="419" cy="608" r="57.12"/><path class="cls-1" d="M418.14,641l.86,2.21.86-2.21a66.53,66.53,0,0,1,27.8-33,66.53,66.53,0,0,1-27.8-33l-.86-2.21-.86,2.21a66.53,66.53,0,0,1-27.8,33A66.53,66.53,0,0,1,418.14,641Z"/></g></svg>