<svg xmlns="http://www.w3.org/2000/svg" viewBox="0 0 800 1218"><defs><style>.cls-1{fill:#f2f0eb;}.cls-2{fill:#f4622f;}.cls-3{fill:#d39c53;}.cls-4{fill:#27282b;}</style></defs><title>cards</title><g id="Layer_2" data-name="Layer 2"><rect class="cls-1" width="800" height="1218"/></g><g id="Layer_1" data-name="Layer 1"><path class="cls-2" d="M98,165.37a11.37,11.37,0,0,0-21.66-4.82,11.37,11.37,0,0,0-21.66,4.82c0,8.83,21.66,41.69,21.66,41.69S98,177,98,165.37Z"/><rect class="cls-2" x="73" y="245" width="6" height="367"/><path class="cls-2" d="M727,606h-6V88.54A37.58,37.58,0,0,0,683.46,51H148V45H683.46A43.59,43.59,0,0,1,727,88.54Z"/><path class="cls-2" d="M551.09,182.19a103.13,103.13,0,0,0-196.55-43.74A103.12,103.12,0,0,0,158,182.19c0,80.08,196.54,378.34,196.54,378.34S551.09,287.36,551.09,182.19Z"/><path class="cls-1" d="M514.21,502H388a27.06,27.06,0,0,1-26.23-20.38L338,388.47,337.72,234H527Z"/><path class="cls-3" d="M337.71,312H369a25.43,25.43,0,0,1,21,11.14l10.55,15.51L384.7,396.72A9.72,9.72,0,0,0,394.08,409H408v93H388.07a27.08,27.08,0,0,1-26.22-20.33L338,388.85Z"/><path class="cls-4" d="M472.64,327.82A22.43,22.43,0,0,0,454.08,318H416v-6h38.08a28.41,28.41,0,0,1,23.52,12.45Z"/><path class="cls-4" d="M389.09,327.82A22.42,22.42,0,0,0,370.53,318H333v-6h37.53a28.4,28.4,0,0,1,23.52,12.45Z"/><polygon class="cls-3" points="470 531.99 408 622.85 408 502 470 502 470 531.99"/><path class="cls-4" d="M423.63,457H395.8A10.84,10.84,0,0,1,385,446.16V446h47.61Z"/><path class="cls-4" d="M405.94,439H385.31a10.32,10.32,0,1,1,20.63,0Z"/><path class="cls-4" d="M426.58,439H405.94a10.32,10.32,0,0,1,20.64,0Z"/><polygon class="cls-4" points="421.58 430.15 439.76 439 422.07 439 421.58 430.15"/><polygon class="cls-4" points="400.42 429.86 419.12 439 401.43 439 400.42 429.86"/><polygon class="cls-1" points="473.13 360 440.63 360 431.97 347 465.55 347 473.13 360"/><polygon class="cls-1" points="382 362 360.58 362 352.01 347 378.79 343.79 382 349.15 382 362"/><path class="cls-4" d="M385.56,349h-36.3l-12.1-11H376a11.5,11.5,0,0,1,8.65,3.93l12,13.67Z"/><path class="cls-4" d="M379.1,368H365.3a10.83,10.83,0,0,1-9.7-6h29.55A6.05,6.05,0,0,1,379.1,368Z"/><path class="cls-4" d="M350,349h19a0,0,0,0,1,0,0v19a0,0,0,0,1,0,0H359a9,9,0,0,1-9-9V349A0,0,0,0,1,350,349Z"/><polygon class="cls-1" points="460 362 438.58 362 430.01 347 456.79 343.79 460 349.15 460 362"/><path class="cls-4" d="M462.65,349h-35.2l-12.1-11h38.79a11.5,11.5,0,0,1,8.65,3.93l12,13.67Z"/><path class="cls-4" d="M457.28,368H443.49a10.83,10.83,0,0,1-9.7-6h29.55A6.06,6.06,0,0,1,457.28,368Z"/><path class="cls-4" d="M428,349h19a0,0,0,0,1,0,0v19a0,0,0,0,1,0,0H437a9,9,0,0,1-9-9V349A0,0,0,0,1,428,349Z"/><path class="cls-3" d="M475.73,395.68a23.92,23.92,0,1,1-43.45-20Z"/><path class="cls-4" d="M408,413H394.3a13.95,13.95,0,0,1-13.38-17.85l10.44-35.77L379.65,346.7l4.41-4.07,14,15.17-11.39,39A7.95,7.95,0,0,0,394.3,407H408Z"/><polygon class="cls-4" points="427 412 416.83 412 407.36 400.16 412.05 396.42 419.72 406 427 406 427 412"/><rect class="cls-4" x="382" y="436" width="59" height="6"/><rect class="cls-4" x="463.44" y="342" width="6" height="18.95" transform="matrix(0.73, -0.68, 0.68, 0.73, -114.7, 409.59)"/><path class="cls-4" d="M321,252l-32.17-35.39a27,27,0,0,1,1.44-37.81l8.37-7.91a67.85,67.85,0,0,1,61.7-16.8L408,165l55.86-24.52A120.79,120.79,0,0,1,588.14,157l10.38,8.35a30.83,30.83,0,0,1,4.34,43.79L567,252Z"/><rect class="cls-4" x="320.73" y="251.67" width="245.95" height="36.33"/><rect class="cls-1" x="315" y="250.98" width="259" height="6"/><rect class="cls-1" x="278" y="188" width="339" height="6"/><path class="cls-1" d="M357.07,211a9,9,0,0,0-17.1-3.81,9,9,0,0,0-17.1,3.81c0,7,17.1,32.91,17.1,32.91S357.07,220.13,357.07,211Z"/><path class="cls-1" d="M425,211a9,9,0,0,0-17.1-3.81,9,9,0,0,0-17.1,3.81c0,7,17.1,32.91,17.1,32.91S425,220.13,425,211Z"/><path class="cls-1" d="M493,211a9,9,0,0,0-17.1-3.81,9,9,0,0,0-17.1,3.81c0,7,17.1,32.91,17.1,32.91S493,220.13,493,211Z"/><path class="cls-1" d="M560.9,211a9,9,0,0,0-17.1-3.81A9,9,0,0,0,526.7,211c0,7,17.1,32.91,17.1,32.91S560.9,220.13,560.9,211Z"/><rect class="cls-4" x="528" y="324" width="6" height="111"/><rect class="cls-4" x="546" y="278" width="6" height="157"/><rect class="cls-4" x="564" y="278" width="6" height="151"/><path class="cls-4" d="M517.85,409h-9.26a3,3,0,0,1-2.9-2.21l-4-14.56,5.79-1.57L510.88,403h7A10.16,10.16,0,0,0,528,392.85V384h6v8.85A16.16,16.16,0,0,1,517.85,409Z"/><rect class="cls-4" x="514.59" y="373.79" width="19.85" height="6" transform="translate(-91.6 570.4) rotate(-53.14)"/><path class="cls-4" d="M497.78,348.1a18.24,18.24,0,0,1-18.21-18.22A16.9,16.9,0,0,1,496.45,313H501v6h-4.55a10.89,10.89,0,0,0-10.88,10.88,12.22,12.22,0,1,0,24.43,0V312.05a24.47,24.47,0,0,0-9.22-19.19l-9.5-7.6,3.75-4.68,9.5,7.6A30.41,30.41,0,0,1,516,312.05v17.83a18.21,18.21,0,0,1-18.22,18.22Z"/><path class="cls-4" d="M582.21,480.1A18.21,18.21,0,0,1,564,461.88V429h6v32.88a12.22,12.22,0,1,0,24.43,0A10.89,10.89,0,0,0,583.55,451H579v-6h4.55a16.9,16.9,0,0,1,16.88,16.88,18.24,18.24,0,0,1-18.2,18.22Z"/><path class="cls-4" d="M515.78,347.67a18.2,18.2,0,0,1-9.76-2.83l3.22-5.06A12.22,12.22,0,0,0,528,329.46V310.28a36.25,36.25,0,0,0-6.1-20.16l-4-6,5-3.33,4,6A42.2,42.2,0,0,1,534,310.28v19.18a18.21,18.21,0,0,1-18.22,18.21Z"/><path class="cls-4" d="M546.22,479.59A18.21,18.21,0,0,1,528,461.37V425h6v36.37a12.22,12.22,0,0,0,18.76,10.32l3.22,5.07a18.19,18.19,0,0,1-9.75,2.83Z"/><path class="cls-4" d="M564.22,479.59A18.21,18.21,0,0,1,546,461.37V425h6v36.37a12.22,12.22,0,0,0,18.76,10.32l3.22,5.07a18.19,18.19,0,0,1-9.75,2.83Z"/><rect class="cls-4" x="178.84" y="325.78" width="6" height="184.2" transform="translate(-181.49 142.78) rotate(-29.35)"/><rect class="cls-4" x="283.46" y="567.04" width="6" height="71.77" transform="translate(-260.91 220.86) rotate(-29.67)"/><path class="cls-4" d="M128.21,389.65l-2.93-5.24a23.43,23.43,0,0,0,11.82-23.75l-3-22a3,3,0,0,1,4.87-2.73L156.15,350a23.42,23.42,0,0,0,26.43,2.31l2.93,5.24a29.38,29.38,0,0,1-33.16-2.91l-11.29-9.24,2,14.46A29.38,29.38,0,0,1,128.21,389.65Z"/><path class="cls-2" d="M270,609.12,256.61,609a58.47,58.47,0,0,1-47.41-25.06l-15.34-22.08a34.13,34.13,0,0,1,8.55-47.48L269.12,468a3,3,0,0,1,2.24-.49,3,3,0,0,1,1.93,1.24,20.15,20.15,0,0,1-5,28L220.55,530,217.13,525l47.69-33.13a14.15,14.15,0,0,0,5-17l-64,44.45a28.1,28.1,0,0,0-7.05,39.12l15.34,22.08A52.44,52.44,0,0,0,256.66,603l13.37.12Z"/><path class="cls-2" d="M230.33,544l-3.42-4.93,44.56-31a14.12,14.12,0,0,0,5-17L231.4,522.41,228,517.49l47.79-33.21a3,3,0,0,1,4.17.76,20.13,20.13,0,0,1-5.05,28Z"/><path class="cls-2" d="M240.11,558.09l-3.42-4.92L275,526.55a14.17,14.17,0,0,0,5-17L241.44,536.3,238,531.37l41.27-28.67a3,3,0,0,1,2.24-.49,3,3,0,0,1,1.93,1.24,20.16,20.16,0,0,1-5,28Z"/><path class="cls-2" d="M249.89,572.17l-3.43-4.93L278.52,545a14.18,14.18,0,0,0,5-17l-34.8,24.18-3.42-4.93,37.52-26.07a3,3,0,0,1,4.18.75,20.17,20.17,0,0,1-5.05,28Z"/><path class="cls-2" d="M315.63,611l-6-.24,1.09-26.35a3,3,0,0,1,.07-.51,60.75,60.75,0,0,0-7.5-44.66.75.75,0,0,1-.07-.12l-7.47-13.59,5.25-2.89,7.45,13.53a66.71,66.71,0,0,1,8.25,48.75Z"/><path class="cls-2" d="M701.78,1052.15a11.37,11.37,0,0,0,21.66,4.82,11.37,11.37,0,0,0,21.66-4.82c0-8.83-21.66-41.69-21.66-41.69S701.78,1040.56,701.78,1052.15Z"/><rect class="cls-2" x="721" y="606" width="6" height="367"/><path class="cls-2" d="M652,1173H116.54A43.59,43.59,0,0,1,73,1129.46V612h6v517.46A37.58,37.58,0,0,0,116.54,1167H652Z"/><path class="cls-2" d="M248.67,1035.33a103.12,103.12,0,0,0,196.54,43.74,103.13,103.13,0,0,0,196.55-43.74C641.76,955.25,445.21,657,445.21,657S248.67,930.16,248.67,1035.33Z"/><path class="cls-1" d="M285.79,716H412a27.06,27.06,0,0,1,26.23,20.38L462,829.53,462.28,984H273Z"/><path class="cls-3" d="M462.29,906H431.05a25.43,25.43,0,0,1-21-11.14l-10.55-15.51,15.84-58.07A9.72,9.72,0,0,0,405.92,809H392V716h19.93a27.08,27.08,0,0,1,26.22,20.33L462,829.15Z"/><path class="cls-4" d="M384,906H345.68a28.4,28.4,0,0,1-23.52-12.45l5-3.37A22.43,22.43,0,0,0,345.68,900H384Z"/><path class="cls-4" d="M467,906H429.23a28.4,28.4,0,0,1-23.52-12.45l5-3.37A22.42,22.42,0,0,0,429.23,900H467Z"/><polygon class="cls-3" points="330 686.01 392 595.15 392 716 330 716 330 686.01"/><path class="cls-4" d="M376.33,761h27.83A10.84,10.84,0,0,1,415,771.84V772H367.4Z"/><path class="cls-4" d="M393.82,779h20.63a10.32,10.32,0,1,1-20.63,0Z"/><path class="cls-4" d="M373.18,779h20.64a10.32,10.32,0,1,1-20.64,0Z"/><polygon class="cls-4" points="378.18 787.85 360 779 377.69 779 378.18 787.85"/><polygon class="cls-4" points="399.35 788.14 380.64 779 398.33 779 399.35 788.14"/><polygon class="cls-1" points="326.63 858 359.13 858 367.79 871 334.21 871 326.63 858"/><polygon class="cls-1" points="418 856 439.42 856 447.99 871 421.21 874.21 418 868.85 418 856"/><path class="cls-4" d="M414.2,869h36.3l12.1,11H423.81a11.5,11.5,0,0,1-8.65-3.93l-12-13.67Z"/><path class="cls-4" d="M420.66,850h13.8a10.83,10.83,0,0,1,9.7,6H414.61A6.05,6.05,0,0,1,420.66,850Z"/><path class="cls-4" d="M431,850h19a0,0,0,0,1,0,0v19a0,0,0,0,1,0,0H440a9,9,0,0,1-9-9V850A0,0,0,0,1,431,850Z" transform="translate(881 1719) rotate(180)"/><polygon class="cls-1" points="340 856 361.42 856 369.99 871 343.21 874.21 340 868.85 340 856"/><path class="cls-4" d="M337.11,869h35.2l12.1,11H345.62a11.5,11.5,0,0,1-8.65-3.93L325,862.4Z"/><path class="cls-4" d="M342.48,850h13.79a10.83,10.83,0,0,1,9.7,6H336.42A6.06,6.06,0,0,1,342.48,850Z"/><path class="cls-4" d="M353,850h19a0,0,0,0,1,0,0v19a0,0,0,0,1,0,0H362a9,9,0,0,1-9-9V850A0,0,0,0,1,353,850Z" transform="translate(725 1719) rotate(180)"/><path class="cls-3" d="M324,821.84a23.92,23.92,0,0,1,43.45,20Z"/><path class="cls-4" d="M415.7,875.37l-14-15.17,11.39-39A7.95,7.95,0,0,0,405.46,811H392v-6h13.46a13.95,13.95,0,0,1,13.38,17.85L408.4,858.62l11.71,12.68Z"/><polygon class="cls-4" points="387.71 821.59 380.04 812 373 812 373 806 382.93 806 392.4 817.84 387.71 821.59"/><rect class="cls-4" x="359" y="776" width="59" height="6"/><rect class="cls-4" x="330.32" y="856.57" width="6" height="18.95" transform="matrix(0.73, -0.68, 0.68, 0.73, -499.03, 455.77)"/><path class="cls-2" d="M740.3,1106.83a20.07,20.07,0,0,1,7.44,9.06,27.19,27.19,0,0,1,2,11.46l-9.36-.72q.36-6.48-3.24-10.38t-10.8-3.9q-7.68,0-10.86,4.44a18.06,18.06,0,0,0-3.18,10.8v47.76a13.5,13.5,0,0,1,4.92-.84q4.44,0,11,2.64a16.61,16.61,0,0,0,5.4,1.32q3.24,0,10-2.76l4.08,8a86.78,86.78,0,0,1-8.76,3.3,19.41,19.41,0,0,1-5.28.78,15.28,15.28,0,0,1-4.5-.72q-2.34-.72-6.42-2.28a14.87,14.87,0,0,0-5.76-1.2,8.36,8.36,0,0,0-3.42,1,7,7,0,0,0-2.82,2.1h-8.28v-59.52a27.86,27.86,0,0,1,2.52-11.82,20.15,20.15,0,0,1,8-8.82q5.46-3.36,13.74-3.36T740.3,1106.83Z"/><path class="cls-4" d="M478.76,966l32.17,35.39a27,27,0,0,1-1.44,37.81l-8.37,7.91a67.85,67.85,0,0,1-61.7,16.8L391.76,1053l-55.86,24.52A120.79,120.79,0,0,1,211.62,1061l-10.39-8.35a30.83,30.83,0,0,1-4.33-43.79L232.76,966Z"/><rect class="cls-4" x="233" y="930" width="246" height="36" transform="translate(712 1896) rotate(180)"/><rect class="cls-1" x="212" y="961" width="274" height="6"/><rect class="cls-1" x="183" y="1024" width="340" height="6"/><path class="cls-1" d="M442.69,1006.54a9,9,0,0,0,17.1,3.81,9,9,0,0,0,17.1-3.81c0-7-17.1-32.91-17.1-32.91S442.69,997.39,442.69,1006.54Z"/><path class="cls-1" d="M374.74,1006.54a9,9,0,0,0,17.1,3.81,9,9,0,0,0,17.1-3.81c0-7-17.1-32.91-17.1-32.91S374.74,997.39,374.74,1006.54Z"/><path class="cls-1" d="M306.8,1006.54a9,9,0,0,0,17.1,3.81,9,9,0,0,0,17.1-3.81c0-7-17.1-32.91-17.1-32.91S306.8,997.39,306.8,1006.54Z"/><path class="cls-1" d="M238.86,1006.54a9,9,0,0,0,17.1,3.81,9,9,0,0,0,17.1-3.81c0-7-17.1-32.91-17.1-32.91S238.86,997.39,238.86,1006.54Z"/><rect class="cls-4" x="269" y="783" width="6" height="111"/><rect class="cls-4" x="251" y="783" width="6" height="175"/><rect class="cls-4" x="233" y="789" width="6" height="160"/><path class="cls-4" d="M275,834h-6v-8.85A16.16,16.16,0,0,1,285.15,809h9.26a3,3,0,0,1,2.9,2.21l4,14.56-5.79,1.57L292.12,815h-7A10.16,10.16,0,0,0,275,825.15Z"/><rect class="cls-4" x="268.33" y="837.73" width="19.85" height="6" transform="translate(-561.32 559) rotate(-53.14)"/><path class="cls-4" d="M308,937.42l-9.5-7.6A30.41,30.41,0,0,1,287,906V888.12a18.22,18.22,0,1,1,36.43,0A16.9,16.9,0,0,1,306.55,905H302v-6h4.55a10.89,10.89,0,0,0,10.88-10.88,12.22,12.22,0,1,0-24.43,0V906a24.47,24.47,0,0,0,9.22,19.19l9.5,7.6Z"/><path class="cls-4" d="M239,789h-6V756.12a12.22,12.22,0,1,0-24.43,0A10.89,10.89,0,0,0,219.45,767H224v6h-4.55a16.9,16.9,0,0,1-16.88-16.88,18.22,18.22,0,1,1,36.43,0Z"/><path class="cls-4" d="M280.09,936.69l-8-12A18.2,18.2,0,0,1,269,914.54V878.73a8.88,8.88,0,0,1,8.89-8.89h9.34a18.19,18.19,0,0,1,9.75,2.83l-3.22,5.06a12.16,12.16,0,0,0-6.54-1.89h-9.33a2.9,2.9,0,0,0-2.89,2.89v35.81a12.22,12.22,0,0,0,2.05,6.78l8,12Z"/><path class="cls-4" d="M275,793h-6V756.15a12.22,12.22,0,0,0-18.76-10.32L247,740.76a18.22,18.22,0,0,1,28,15.39Z"/><path class="cls-4" d="M257,793h-6V756.15a12.22,12.22,0,0,0-18.76-10.32L229,740.76a18.22,18.22,0,0,1,28,15.39Z"/><rect class="cls-4" x="614.92" y="707.54" width="6" height="184.2" transform="translate(-312.64 405.54) rotate(-29.35)"/><rect class="cls-4" x="510.3" y="578.7" width="6" height="71.77" transform="translate(-236.93 334.69) rotate(-29.67)"/><path class="cls-4" d="M662.72,882.29a3,3,0,0,1-1.9-.68l-17.21-14.08a23.42,23.42,0,0,0-26.43-2.31L614.25,860a29.38,29.38,0,0,1,33.16,2.91l11.29,9.24-2-14.46a29.38,29.38,0,0,1,14.83-29.8l2.93,5.23a23.44,23.44,0,0,0-11.82,23.75l3,22a3,3,0,0,1-1.51,3A3,3,0,0,1,662.72,882.29Z"/><path class="cls-2" d="M528.93,750.5a3.17,3.17,0,0,1-.53,0,3,3,0,0,1-1.93-1.24l-1.81-2.61a16.94,16.94,0,0,1,4.25-23.6l50.3-35,3.42,4.93-50.3,34.94a11,11,0,0,0-2.75,15.26l.1.14,69-47.92a22.35,22.35,0,0,0,5.6-31.1L582.6,633.13a42.15,42.15,0,0,0-34.2-18.08L530,614.88l.06-6,18.43.17a48.17,48.17,0,0,1,39.07,20.66l21.66,31.17a28.36,28.36,0,0,1-7.11,39.45L530.64,750A3,3,0,0,1,528.93,750.5Z"/><path class="cls-2" d="M522.29,733.77a3,3,0,0,1-2.47-1.29,20.13,20.13,0,0,1,5-28l44.56-31,3.42,4.93-44.56,31a14.15,14.15,0,0,0-5,17l45.07-31.31,3.42,4.92L524,733.24A3,3,0,0,1,522.29,733.77Z"/><path class="cls-2" d="M518.76,715.35a3.08,3.08,0,0,1-.53,0,3,3,0,0,1-1.94-1.24,20.17,20.17,0,0,1,5.05-28l38.31-26.61,3.42,4.92L524.77,691a14.17,14.17,0,0,0-5,17l38.55-26.78,3.42,4.93-41.27,28.67A3,3,0,0,1,518.76,715.35Z"/><path class="cls-2" d="M515.24,696.94a3.29,3.29,0,0,1-.54-.05,3,3,0,0,1-1.93-1.24,20.17,20.17,0,0,1,5.05-28l32-22.27,3.43,4.93-32.06,22.27a14.18,14.18,0,0,0-5,17l34.8-24.18,3.42,4.93L517,696.4A3,3,0,0,1,515.24,696.94Z"/><path class="cls-2" d="M498.75,694.86l-7.45-13.53a66.66,66.66,0,0,1-8.25-48.75l1.08-26.09,6,.25L489,633.09a3,3,0,0,1-.07.51,60.75,60.75,0,0,0,7.5,44.66.75.75,0,0,1,.07.12L504,692Z"/><rect class="cls-4" x="139.03" y="606" width="559.95" height="6" transform="translate(-183.36 180.51) rotate(-20.05)"/><circle class="cls-1" cx="419" cy="609" r="68"/><circle class="cls-4" cx="419" cy="609" r="57.12"/><path class="cls-1" d="M447.87,593.33A15.15,15.15,0,0,0,419,586.9a15.15,15.15,0,0,0-28.87,6.43c0,11.76,28.87,55.56,28.87,55.56S447.87,608.77,447.87,593.33Z"/><path class="cls-2" d="M62.24,110.17a20.07,20.07,0,0,1-7.44-9.06,27.19,27.19,0,0,1-2-11.46l9.36.72q-.36,6.48,3.24,10.38t10.8,3.9q7.68,0,10.86-4.44a18.06,18.06,0,0,0,3.18-10.8V41.65a13.5,13.5,0,0,1-4.92.84q-4.44,0-11-2.64a16.61,16.61,0,0,0-5.4-1.32q-3.24,0-10,2.76l-4.08-8A86.78,86.78,0,0,1,63.62,30a19.41,19.41,0,0,1,5.28-.78,15.28,15.28,0,0,1,4.5.72q2.34.72,6.42,2.28a14.87,14.87,0,0,0,5.76,1.2,8.36,8.36,0,0,0,3.42-1,7,7,0,0,0,2.82-2.1h8.28V89.77a27.86,27.86,0,0,1-2.52,11.82,20.15,20.15,0,0,1-8,8.82q-5.46,3.36-13.74,3.36T62.24,110.17Z"/></g></svg>