<svg xmlns="http://www.w3.org/2000/svg" viewBox="0 0 800 1218"><defs><style>.cls-1{fill:#f2f0eb;}.cls-2{fill:#3e95a3;}.cls-3{fill:#27282b;}.cls-4{fill:#d39c53;}</style></defs><title>Js</title><g id="Layer_2" data-name="Layer 2"><rect class="cls-1" width="800" height="1218"/></g><g id="Layer_1" data-name="Layer 1"><polygon class="cls-2" points="223.51 895.35 436.96 827.32 650.42 895.35 436.96 1143.75 223.51 895.35"/><circle class="cls-2" cx="556.5" cy="820.5" r="119.5"/><circle class="cls-2" cx="317.5" cy="821.5" r="119.5"/><path class="cls-2" d="M374,597H587.3A219.48,219.48,0,0,0,468,792.28V886H406V792.53a219.8,219.8,0,0,0-35.45-119.77Z"/><path class="cls-2" d="M740.39,1107.57a20.07,20.07,0,0,1,7.44,9.06,27.19,27.19,0,0,1,2,11.46l-9.36-.72q.36-6.48-3.24-10.38t-10.8-3.9q-7.68,0-10.86,4.44a18.06,18.06,0,0,0-3.18,10.8v47.76a13.5,13.5,0,0,1,4.92-.84q4.44,0,11,2.64a16.61,16.61,0,0,0,5.4,1.32q3.24,0,10-2.76l4.08,8a86.78,86.78,0,0,1-8.76,3.3,19.41,19.41,0,0,1-5.28.78,15.28,15.28,0,0,1-4.5-.72q-2.34-.72-6.42-2.28a14.87,14.87,0,0,0-5.76-1.2,8.36,8.36,0,0,0-3.42,1,7,7,0,0,0-2.82,2.1h-8.28V1128a27.86,27.86,0,0,1,2.52-11.82,20.15,20.15,0,0,1,8-8.82q5.46-3.36,13.74-3.36T740.39,1107.57Z"/><path class="cls-2" d="M653,1173H115.54A43.59,43.59,0,0,1,72,1129.46V610h6v519.46A37.58,37.58,0,0,0,115.54,1167H653Z"/><rect class="cls-2" x="538.5" y="786" width="370" height="6" transform="translate(-67.38 1510.44) rotate(-89.85)"/><polygon class="cls-2" points="703.17 1040.18 723.85 1033.59 744.53 1040.18 723.85 1064.25 703.17 1040.18"/><circle class="cls-2" cx="735.5" cy="1033.5" r="11.5"/><circle class="cls-2" cx="712.5" cy="1033.5" r="11.5"/><path class="cls-2" d="M709.45,1011h29.1A21.26,21.26,0,0,0,727,1029.91V1039h-6v-9.09A21.26,21.26,0,0,0,709.45,1011Z"/><polygon class="cls-3" points="153.87 842.95 529.62 619.75 545 645.72 169.25 868.92 153.87 842.95"/><path class="cls-3" d="M164.42,808.11A31.28,31.28,0,0,1,165.51,838l11.33,10.84,52.9-31.33L225.84,803A31.3,31.3,0,0,1,210,744.72l.16-.09-8.42-31.4-102.92,61,23.5,22.49A31.29,31.29,0,0,1,164.42,808.11Z"/><polygon class="cls-3" points="122.27 852.12 140.4 868.26 145.84 891.9 110.91 885.72 122.27 852.12"/><circle class="cls-3" cx="147" cy="879" r="13"/><circle class="cls-3" cx="134" cy="857" r="13"/><path class="cls-3" d="M153.57,841.49l16.63,28.08a23.78,23.78,0,0,0-24.82-.35l-8.71,5.16-3.43-5.79,8.71-5.16a23.81,23.81,0,0,0,11.62-21.94Z"/><rect class="cls-3" x="158.56" y="833.02" width="6" height="45.83" transform="translate(-413.62 201.8) rotate(-30.64)"/><rect class="cls-1" x="94.48" y="752.93" width="127.44" height="6" transform="translate(-363.08 186.08) rotate(-30.63)"/><path class="cls-1" d="M649,605.91l-10.41,27.58a49.62,49.62,0,0,1-24.15,27.22l-34.25,17.38a32.49,32.49,0,0,1-43.67-14.26L513.81,619a8.94,8.94,0,1,1,16-8.1l2.67-12.61,34.5-19.16,47.9-7.89L650,591.92Z"/><path class="cls-2" d="M566.85,684.7a35.49,35.49,0,0,1-31.7-19.42l-22.74-44.81a11.95,11.95,0,0,1,21.3-10.82l21.83,43-5.35,2.71-21.83-43a5.94,5.94,0,1,0-10.6,5.38l22.74,44.82a29.54,29.54,0,0,0,39.64,12.95l34.24-17.39a46.47,46.47,0,0,0,22.7-25.57L647.5,605l5.61,2.12L642.7,634.65a52.41,52.41,0,0,1-25.6,28.83l-34.25,17.39A35.29,35.29,0,0,1,566.85,684.7Z"/><path class="cls-2" d="M565.57,646.15l-22.19-43.72a6,6,0,0,0-3.46-3,5.95,5.95,0,0,0-7.14,8.35L548.6,639l-5.35,2.71-15.82-31.18a11.94,11.94,0,0,1,14.36-16.76,11.84,11.84,0,0,1,6.94,6l22.19,43.71Z"/><path class="cls-2" d="M581.52,638.05l-22.19-43.71a5.94,5.94,0,1,0-10.6,5.38l15.25,30-5.35,2.71-15.25-30a11.94,11.94,0,0,1,21.3-10.81l22.19,43.72Z"/><path class="cls-2" d="M597.47,630l-22.18-43.72a5.95,5.95,0,1,0-10.61,5.38l17,33.46-5.35,2.72-17-33.46a11.95,11.95,0,0,1,21.31-10.82l22.18,43.72Z"/><rect class="cls-2" x="589.61" y="576.47" width="31.2" height="6" transform="translate(-210.29 387.08) rotate(-30.48)"/><rect class="cls-1" x="257" y="571" width="118" height="146" transform="translate(632 1288) rotate(180)"/><path class="cls-1" d="M255,701.22,419,717a27.08,27.08,0,0,1,26.25,20.38L469,830.53,469.28,985H244.59L214,826.22l1.47-11.3A39.86,39.86,0,0,1,255,780.22S255,701.22,255,701.22Z"/><path class="cls-4" d="M469.29,907H438.05a25.43,25.43,0,0,1-21-11.14l-10.55-15.51,15.84-58.07A9.72,9.72,0,0,0,412.92,810H399V717h19.93a27.08,27.08,0,0,1,26.22,20.33L469,830.15Z"/><path class="cls-3" d="M391,907H352.6a28.4,28.4,0,0,1-23.52-12.45l5-3.37A22.42,22.42,0,0,0,352.6,901H391Z"/><path class="cls-3" d="M474,907H436.14a28.43,28.43,0,0,1-23.52-12.45l5-3.37A22.45,22.45,0,0,0,436.14,901H474Z"/><polygon class="cls-4" points="337 687.01 399 596.15 399 717 337 717 337 687.01"/><path class="cls-3" d="M383.33,762h27.83A10.84,10.84,0,0,1,422,772.84V773H374.4Z"/><path class="cls-3" d="M400.73,780h20.64a10.32,10.32,0,1,1-20.64,0Z"/><path class="cls-3" d="M380.09,780h20.64a10.32,10.32,0,1,1-20.64,0Z"/><polygon class="cls-3" points="385.1 788.85 366.92 780 384.61 780 385.1 788.85"/><polygon class="cls-3" points="406.26 789.14 387.56 780 405.25 780 406.26 789.14"/><polygon class="cls-1" points="333.54 859 366.04 859 374.71 872 341.13 872 333.54 859"/><polygon class="cls-1" points="425 857 446.42 857 454.99 872 428.21 875.21 425 869.85 425 857"/><path class="cls-3" d="M421.11,870h36.3l12.1,11H430.73a11.48,11.48,0,0,1-8.65-3.93l-12-13.67Z"/><path class="cls-3" d="M427.58,851h13.79a10.85,10.85,0,0,1,9.71,6H421.52A6.07,6.07,0,0,1,427.58,851Z"/><path class="cls-3" d="M438,851h19a0,0,0,0,1,0,0v19a0,0,0,0,1,0,0H447a9,9,0,0,1-9-9V851A0,0,0,0,1,438,851Z" transform="translate(895 1721) rotate(180)"/><polygon class="cls-1" points="347 857 368.42 857 376.99 872 350.21 875.21 347 869.85 347 857"/><path class="cls-3" d="M344,870h35.2l12.1,11H352.54a11.48,11.48,0,0,1-8.65-3.93l-12-13.67Z"/><path class="cls-3" d="M349.39,851h13.79a10.85,10.85,0,0,1,9.71,6H343.33A6.07,6.07,0,0,1,349.39,851Z"/><path class="cls-3" d="M360,851h19a0,0,0,0,1,0,0v19a0,0,0,0,1,0,0H369a9,9,0,0,1-9-9V851A0,0,0,0,1,360,851Z" transform="translate(739 1721) rotate(180)"/><path class="cls-4" d="M330.94,823.35a23.92,23.92,0,0,1,43.45,20Z"/><path class="cls-3" d="M422.62,876.37l-14-15.17,11.39-39A7.95,7.95,0,0,0,412.37,812H399v-6h13.37a13.94,13.94,0,0,1,13.39,17.84l-10.44,35.78L427,872.3Z"/><polygon class="cls-3" points="394.63 822.59 386.96 813 380 813 380 807 389.85 807 399.31 818.84 394.63 822.59"/><rect class="cls-3" x="366" y="777" width="59" height="6"/><rect class="cls-3" x="337.24" y="858.08" width="6" height="18.95" transform="translate(-498.23 460.88) rotate(-42.71)"/><rect class="cls-3" x="118.88" y="606.25" width="559.95" height="6" transform="translate(-184.67 173.62) rotate(-20.05)"/><circle class="cls-1" cx="399" cy="609" r="68"/><circle class="cls-3" cx="398.85" cy="609.25" r="57.12"/><polygon class="cls-1" points="371.25 612.5 398.85 603.7 426.45 612.5 398.85 644.61 371.25 612.5"/><circle class="cls-1" cx="414.5" cy="602.5" r="15.5"/><circle class="cls-1" cx="383.5" cy="602.5" r="15.5"/><path class="cls-1" d="M379.61,574h38.78A28.18,28.18,0,0,0,403,599.11V611h-8V599.11A28.18,28.18,0,0,0,379.61,574Z"/><path class="cls-3" d="M290.1,959.78,265.48,830.1l0-.17c-1.49-11.27,4.32-30.64,18-44.34l7.45-7.46,4.25,4.25-7.46,7.45c-11.86,11.86-17.61,29.24-16.33,39.24L296,958.66Z"/><path class="cls-3" d="M272.1,959.78,247.48,830.1l0-.17c-1.49-11.27,4.32-30.64,18-44.34l7.45-7.46,4.25,4.25-7.46,7.45c-11.86,11.86-17.61,29.24-16.33,39.24L278,958.66Z"/><path class="cls-3" d="M254.1,959.78,229.48,830.1l0-.17c-1.49-11.27,4.32-30.64,18-44.34l7.45-7.46,4.25,4.25-7.46,7.45c-11.86,11.86-17.61,29.24-16.33,39.24L260,958.66Z"/><path class="cls-3" d="M236.1,959.78,211.48,830.1l0-.17c-1.49-11.27,4.32-30.64,18-44.34l7.45-7.46,4.25,4.25-7.46,7.45c-11.86,11.86-17.61,29.24-16.33,39.24L242,958.66Z"/><path class="cls-3" d="M291.34,828.34,288,816h-7a10.15,10.15,0,0,0-10.15,10.15h-6a16.24,16.24,0,0,1,6.56-13A16.06,16.06,0,0,1,281,810h9.26a3,3,0,0,1,2.9,2.21l4,14.56Z"/><rect class="cls-3" x="267.65" y="837.89" width="15.85" height="6" transform="translate(-563.9 561.02) rotate(-53.42)"/><path class="cls-3" d="M452.16,964.37l24.68,112.93-93.61,11.51a134.18,134.18,0,0,1-90.69-21.46l-115.7-77,57.39-70.56Z"/><polygon class="cls-3" points="491.19 954.15 473.3 988.2 216.48 927.12 219.34 903.74 491.19 954.15"/><rect class="cls-1" x="341.04" y="822.53" width="6" height="272.9" transform="translate(-669.74 1060.24) rotate(-75.97)"/><rect class="cls-1" x="335.35" y="838.06" width="6" height="275.24" transform="translate(-690.3 1066.91) rotate(-75.94)"/><path class="cls-3" d="M280.85,978.25s-52.05,75.6-145,105.35C159.4,1029.07,213.93,982,280.85,978.25Z"/><path class="cls-1" d="M130.48,1088.46l2.62-6a186.31,186.31,0,0,1,57.16-72.92c27-20.61,58.24-32.44,90.42-34.23l6.11-.34-3.47,5c-.54.78-13.49,19.43-38.08,42-22.7,20.84-59.94,48.94-108.48,64.47Zm144-106.7c-63,6.28-111.1,51.56-133,96.79C214.49,1053,261.19,998.75,274.48,981.76Z"/><path class="cls-1" d="M280.85,978.25s-52.05,75.6-145,105.35Z"/><rect class="cls-1" x="275.87" y="969.97" width="25.86" height="6" transform="translate(-463.44 291.64) rotate(-31.3)"/><path class="cls-1" d="M452,1082.86a53.62,53.62,0,0,1-45-24.37l-2.55-3.88-17.31,3.6A54.12,54.12,0,0,1,336,1041.48l-6.3-7-13,2.16a53.73,53.73,0,0,1-48.81-16.93l-11.31-12.44,4.44-4,11.31,12.43a47.79,47.79,0,0,0,43.39,15.06L332,1028l8.5,9.45a48.13,48.13,0,0,0,45.44,14.87l21.32-4.44,4.79,7.3a47.7,47.7,0,0,0,45.82,21.31l18.64-2.23.72,6-18.64,2.24A55.89,55.89,0,0,1,452,1082.86Z"/><path class="cls-1" d="M198.17,999.75c-8.86,0-17.53-2.1-23.5-8.44L179,987.2c14.38,15.28,51.6-.75,52-.92l2.4,5.5C232.32,992.26,214.91,999.75,198.17,999.75Z"/><circle class="cls-1" cx="430" cy="989" r="8"/><circle class="cls-1" cx="388" cy="979" r="8"/><circle class="cls-1" cx="346" cy="969" r="8"/><circle class="cls-1" cx="304" cy="959" r="8"/><circle class="cls-1" cx="262" cy="949" r="8"/><polygon class="cls-2" points="575.34 322.9 361.88 390.93 148.43 322.9 361.89 74.5 575.34 322.9"/><circle class="cls-2" cx="242.29" cy="397.36" r="119.57"/><circle class="cls-2" cx="481.09" cy="396.49" r="119.57"/><path class="cls-2" d="M425,621.5H211.25A219.64,219.64,0,0,0,330.82,426V332.52H393V426a219.44,219.44,0,0,0,35.52,119.76Z"/><path class="cls-2" d="M58.47,110.69A20,20,0,0,1,51,101.63a26.88,26.88,0,0,1-2-11.46l9.36.72q-.36,6.48,3.24,10.38t10.8,3.9q7.67,0,10.86-4.44a18.13,18.13,0,0,0,3.18-10.8V42.17a13.5,13.5,0,0,1-4.92.84,31,31,0,0,1-11-2.64,16.72,16.72,0,0,0-5.4-1.32c-2.16,0-5.49.92-10,2.76l-4.08-8a85,85,0,0,1,8.76-3.3,19.35,19.35,0,0,1,5.28-.78,15.28,15.28,0,0,1,4.5.72q2.34.72,6.42,2.28a14.87,14.87,0,0,0,5.76,1.2,8.4,8.4,0,0,0,3.42-1,7.11,7.11,0,0,0,2.82-2.1h8.28V90.29a27.86,27.86,0,0,1-2.52,11.82,20.21,20.21,0,0,1-8,8.82c-3.65,2.24-8.22,3.36-13.74,3.36S62,113.09,58.47,110.69Z"/><path class="cls-2" d="M727,604h-6V88.54A37.58,37.58,0,0,0,683.46,51H146V45H683.46A43.59,43.59,0,0,1,727,88.54Z"/><rect class="cls-2" x="-107.5" y="424" width="366" height="6" transform="translate(-351.7 501.39) rotate(-89.85)"/><polygon class="cls-2" points="95.68 178.07 75 184.66 54.32 178.07 75 154 95.68 178.07"/><circle class="cls-2" cx="63.45" cy="185.2" r="11.59"/><circle class="cls-2" cx="86.55" cy="185.2" r="11.59"/><path class="cls-2" d="M89.6,207H60.4A21.27,21.27,0,0,0,72,188.06V179h6v9.06A21.27,21.27,0,0,0,89.6,207Z"/><polygon class="cls-3" points="644.99 375.31 269.23 598.5 253.85 572.53 629.6 349.34 644.99 375.31"/><path class="cls-3" d="M634.43,410.14a31.28,31.28,0,0,1-1.09-29.88L622,369.42l-52.9,31.34L573,415.3a31.3,31.3,0,0,1,15.82,58.23l-.17.09,8.42,31.4L700,444.07l-23.5-22.49A31.31,31.31,0,0,1,634.43,410.14Z"/><polygon class="cls-3" points="676.58 366.13 658.45 350 653.01 326.35 687.95 332.53 676.58 366.13"/><circle class="cls-3" cx="651.36" cy="339.19" r="12.95"/><circle class="cls-3" cx="664.52" cy="361.41" r="12.95"/><path class="cls-3" d="M645.28,376.76l-16.63-28.08a23.78,23.78,0,0,0,24.82.36l8.71-5.16,3.43,5.79-8.71,5.16a23.79,23.79,0,0,0-11.62,21.93Z"/><rect class="cls-3" x="634.29" y="339.4" width="6" height="45.83" transform="translate(-95.68 375.34) rotate(-30.64)"/><rect class="cls-1" x="576.93" y="459.32" width="127.44" height="6" transform="translate(-146.16 390.93) rotate(-30.63)"/><path class="cls-1" d="M149.82,612.35l10.41-27.58a49.64,49.64,0,0,1,24.15-27.23l34.25-17.38a32.48,32.48,0,0,1,43.67,14.27L285,599.24a8.94,8.94,0,1,1-16,8.1L266.42,620l-34.5,19.17L184,647l-35.17-20.66Z"/><path class="cls-2" d="M275.81,615.14a12,12,0,0,1-10.67-6.54l-21.83-43,5.35-2.71,21.83,43a5.94,5.94,0,1,0,10.6-5.38l-22.74-44.82a29.52,29.52,0,0,0-39.64-12.94l-34.24,17.38a46.5,46.5,0,0,0-22.7,25.57L151.35,613.3l-5.61-2.11,10.41-27.58a52.39,52.39,0,0,1,25.6-28.84L216,537.39A35.52,35.52,0,0,1,263.7,553l22.74,44.82a12,12,0,0,1-10.63,17.35Z"/><path class="cls-2" d="M260.79,625.07a12,12,0,0,1-10.67-6.53l-22.19-43.72,5.35-2.71,22.19,43.71a5.94,5.94,0,1,0,10.6-5.38l-15.82-31.18,5.35-2.72,15.82,31.18a12,12,0,0,1-5.24,16.06A11.84,11.84,0,0,1,260.79,625.07Z"/><path class="cls-2" d="M244.84,633.17a12,12,0,0,1-10.67-6.54L212,582.92l5.35-2.72,22.19,43.72a5.94,5.94,0,0,0,10.6-5.38l-15.24-30,5.34-2.72,15.25,30a11.94,11.94,0,0,1-10.63,17.35Z"/><path class="cls-2" d="M228.88,641.27a12,12,0,0,1-10.67-6.54L196,591l5.35-2.71L223.56,632a5.95,5.95,0,1,0,10.61-5.38l-17-33.46,5.35-2.71,17,33.46a12,12,0,0,1-10.64,17.35Z"/><rect class="cls-2" x="178.04" y="635.79" width="31.2" height="6" transform="translate(-297.26 186.5) rotate(-30.48)"/><polygon class="cls-1" points="424 599 542 557 542 501 424 501 424 599"/><path class="cls-1" d="M544,517,380.15,501.22a27.08,27.08,0,0,1-26.23-20.39l-23.75-93.15-.28-154.46H554.4L585,392l-1.47,11.29A39.86,39.86,0,0,1,544,438Z"/><path class="cls-4" d="M329.89,311.22h31.24a25.43,25.43,0,0,1,21,11.13l10.55,15.51-15.84,58.08a9.73,9.73,0,0,0,9.38,12.28h13.92v93H380.24A27.06,27.06,0,0,1,354,480.88l-23.86-92.81Z"/><path class="cls-3" d="M464.81,327a22.42,22.42,0,0,0-18.56-9.82H408.17v-6h38.08a28.42,28.42,0,0,1,23.52,12.44Z"/><path class="cls-3" d="M381.27,327a22.45,22.45,0,0,0-18.56-9.82H325.17v-6h37.54a28.44,28.44,0,0,1,23.52,12.44Z"/><polygon class="cls-4" points="462.17 531.21 400.17 622.06 400.17 501.22 462.17 501.22 462.17 531.21"/><path class="cls-3" d="M415.81,456.22H388a10.84,10.84,0,0,1-10.84-10.85v-.15h47.6Z"/><path class="cls-3" d="M398.12,438.22H377.48a10.32,10.32,0,1,1,20.64,0Z"/><path class="cls-3" d="M418.76,438.22H398.12a10.32,10.32,0,1,1,20.64,0Z"/><polygon class="cls-3" points="413.75 429.37 431.94 438.22 414.24 438.22 413.75 429.37"/><polygon class="cls-3" points="392.59 429.07 411.3 438.22 393.61 438.22 392.59 429.07"/><polygon class="cls-1" points="465.31 359.22 432.81 359.22 424.14 346.22 457.72 346.22 465.31 359.22"/><polygon class="cls-1" points="374.17 361.22 352.75 361.22 344.18 346.22 370.96 343.01 374.17 348.36 374.17 361.22"/><path class="cls-3" d="M377.74,348.22h-36.3l-12.1-11h38.78a11.49,11.49,0,0,1,8.65,3.92l12,13.68Z"/><path class="cls-3" d="M371.27,367.22H357.48a10.87,10.87,0,0,1-9.71-6h29.56A6.06,6.06,0,0,1,371.27,367.22Z"/><path class="cls-3" d="M342.17,348.22h19a0,0,0,0,1,0,0v19a0,0,0,0,1,0,0h-10a9,9,0,0,1-9-9v-10A0,0,0,0,1,342.17,348.22Z"/><polygon class="cls-1" points="452.17 361.22 430.75 361.22 422.18 346.22 448.96 343.01 452.17 348.36 452.17 361.22"/><path class="cls-3" d="M454.83,348.22h-35.2l-12.1-11h38.78a11.51,11.51,0,0,1,8.65,3.92l12,13.68Z"/><path class="cls-3" d="M449.46,367.22H435.67a10.87,10.87,0,0,1-9.71-6h29.56A6.07,6.07,0,0,1,449.46,367.22Z"/><path class="cls-3" d="M420.17,348.22h19a0,0,0,0,1,0,0v19a0,0,0,0,1,0,0h-10a9,9,0,0,1-9-9v-10A0,0,0,0,1,420.17,348.22Z"/><path class="cls-4" d="M467.91,394.9a23.92,23.92,0,1,1-43.45-20Z"/><path class="cls-3" d="M400.17,412.22H386.48a13.95,13.95,0,0,1-13.39-17.85l10.44-35.78-11.7-12.68,4.41-4.07,14,15.18-11.39,39a8,8,0,0,0,7.63,10.17h13.69Z"/><polygon class="cls-3" points="419.17 411.22 409.01 411.22 399.54 399.38 404.22 395.63 411.89 405.22 419.17 405.22 419.17 411.22"/><rect class="cls-3" x="374.17" y="435.22" width="59" height="6"/><rect class="cls-3" x="455.61" y="341.22" width="6" height="18.95" transform="translate(-116.25 404.05) rotate(-42.71)"/><rect class="cls-3" x="120.03" y="606" width="559.95" height="6" transform="translate(-184.51 174) rotate(-20.05)"/><circle class="cls-1" cx="400" cy="609" r="68"/><circle class="cls-3" cx="400" cy="609" r="57.12"/><polygon class="cls-1" points="427.6 605.75 400 614.55 372.4 605.75 400 573.64 427.6 605.75"/><circle class="cls-1" cx="384.59" cy="615.27" r="15.46"/><circle class="cls-1" cx="415.41" cy="615.27" r="15.46"/><path class="cls-1" d="M419.48,644.36h-39A28.4,28.4,0,0,0,396,619.08V607h8v12.08a28.4,28.4,0,0,0,15.46,25.28Z"/><path class="cls-3" d="M507.92,440.12l-4.25-4.24,7.46-7.46c11.86-11.86,17.61-29.23,16.33-39.23l-24.6-129.6,5.89-1.12,24.62,129.69,0,.16c1.49,11.27-4.32,30.64-18,44.34Z"/><path class="cls-3" d="M525.92,440.12l-4.25-4.24,7.46-7.46c11.86-11.86,17.61-29.23,16.33-39.23l-24.6-129.6,5.89-1.12,24.62,129.69,0,.16c1.49,11.27-4.32,30.64-18,44.34Z"/><path class="cls-3" d="M543.92,440.12l-4.25-4.24,7.46-7.46c11.86-11.86,17.61-29.23,16.33-39.23l-24.6-129.6,5.89-1.12,24.62,129.69,0,.16c1.49,11.27-4.32,30.64-18,44.34Z"/><path class="cls-3" d="M561.92,440.12l-4.25-4.24,7.46-7.46c11.86-11.86,17.61-29.23,16.33-39.23l-24.6-129.6,5.89-1.12,24.62,129.69,0,.16c1.49,11.27-4.32,30.64-18,44.34Z"/><path class="cls-3" d="M517.85,408h-9.26a3,3,0,0,1-2.9-2.21l-4-14.56,5.79-1.57L510.88,402h7A10.15,10.15,0,0,0,528,391.85h6a16.24,16.24,0,0,1-6.56,13A16.06,16.06,0,0,1,517.85,408Z"/><rect class="cls-3" x="515.35" y="374.36" width="15.85" height="6" transform="translate(-91.61 572.65) rotate(-53.42)"/><path class="cls-3" d="M346.69,266.88,322,154l93.61-11.51a134.18,134.18,0,0,1,90.69,21.46l115.71,77-57.4,70.57Z"/><polygon class="cls-3" points="307.67 277.11 325.55 243.06 582.37 304.13 579.51 327.51 307.67 277.11"/><rect class="cls-1" x="451.81" y="135.83" width="6" height="272.9" transform="translate(80.38 647.49) rotate(-75.97)"/><rect class="cls-1" x="457.5" y="117.95" width="6" height="275.24" transform="translate(100.73 640.2) rotate(-75.94)"/><path class="cls-3" d="M518,253s52-75.6,145-105.34C639.45,202.19,584.92,249.28,518,253Z"/><path class="cls-1" d="M512.06,256.33l3.47-5c.54-.78,13.49-19.44,38.09-42,22.69-20.84,59.93-48.94,108.47-64.47l6.28-2-2.62,6.06a186.38,186.38,0,0,1-57.16,72.92c-27,20.6-58.24,32.44-90.42,34.23ZM657.39,152.7c-73,25.61-119.73,79.8-133,96.8C587.38,243.22,635.47,197.93,657.39,152.7Z"/><path class="cls-1" d="M518,253s52-75.6,145-105.34Z"/><rect class="cls-1" x="497.12" y="255.28" width="25.86" height="6" transform="translate(-59.95 302.57) rotate(-31.3)"/><path class="cls-1" d="M537.78,228l-11.31-12.44a47.78,47.78,0,0,0-43.39-15.05l-16.21,2.7-8.5-9.44a48.15,48.15,0,0,0-45.44-14.88l-21.32,4.44-4.79-7.3A47.69,47.69,0,0,0,341,154.74L322.36,157l-.72-6,18.64-2.23a53.66,53.66,0,0,1,51.56,24l2.55,3.89L411.7,173a54.14,54.14,0,0,1,51.13,16.73l6.3,7,13-2.16a53.76,53.76,0,0,1,48.81,16.93L542.22,224Z"/><path class="cls-1" d="M567.83,245l-2.4-5.5c1.69-.74,41.5-17.86,58.75.47l-4.36,4.12C605.46,228.8,568.21,244.81,567.83,245Z"/><circle class="cls-1" cx="369" cy="242" r="8"/><circle class="cls-1" cx="411" cy="252" r="8"/><circle class="cls-1" cx="453" cy="262" r="8"/><circle class="cls-1" cx="495" cy="272" r="8"/><circle class="cls-1" cx="537" cy="282" r="8"/></g></svg>