<svg xmlns="http://www.w3.org/2000/svg" viewBox="0 0 800 1267"><defs><style>.cls-1{fill:#f2f0eb;}.cls-2{fill:#3e95a3;}.cls-3{fill:#d39c53;}.cls-4{fill:#27282b;}</style></defs><title>Kc</title><g id="Layer_2" data-name="Layer 2"><rect class="cls-1" width="800" height="1267"/></g><g id="Layer_1" data-name="Layer 1"><path class="cls-2" d="M49.38,65.83a3.4,3.4,0,0,0-3-1.38,4.63,4.63,0,0,0-4.2,2l-6.6-4.92a11.23,11.23,0,0,1,4-4.26,12.72,12.72,0,0,1,7.14-1.86q6.36,0,9.9,3.78A13.73,13.73,0,0,1,60.18,69V93.49l3.6-.12a17.29,17.29,0,0,0,7-1.44,19.91,19.91,0,0,0,3.42-1.86,12.18,12.18,0,0,0,2.34-2.22,102.12,102.12,0,0,0,7.8-12q3.84-6.48,9.6-18.72h10.8Q94.26,76.69,91.62,81.37q-3.84,6.72-6.24,10.08a29.2,29.2,0,0,1-3.3,4.14q-1.5,1.5-2.46,2.34l21.84,31a6.34,6.34,0,0,0,1.68,1.74,3.8,3.8,0,0,0,1.92.42,2.47,2.47,0,0,0,2.16-1.44l7.44,5.28a11.46,11.46,0,0,1-4.44,4.08,11.23,11.23,0,0,1-5.16,1.44A13.34,13.34,0,0,1,99.12,139a11,11,0,0,1-4.38-3.66L71.22,102a31.76,31.76,0,0,1-4.8,1,44.92,44.92,0,0,1-6,.12v36.36H50.34V69A5.43,5.43,0,0,0,49.38,65.83Z"/><rect class="cls-2" x="73" y="271" width="6" height="367"/><path class="cls-2" d="M727,632h-6V114.54A37.58,37.58,0,0,0,683.46,77H148V71H683.46A43.59,43.59,0,0,1,727,114.54Z"/><circle class="cls-2" cx="75.5" cy="193.5" r="13.5"/><circle class="cls-2" cx="63.5" cy="211.5" r="11.5"/><circle class="cls-2" cx="86.5" cy="211.5" r="11.5"/><path class="cls-2" d="M89.55,233H60.45A21.26,21.26,0,0,0,72,214.09V205h6v9.09A21.26,21.26,0,0,0,89.55,233Z"/><circle class="cls-2" cx="329" cy="225" r="122"/><circle class="cls-2" cx="224" cy="387" r="105"/><circle class="cls-2" cx="434" cy="387" r="105"/><path class="cls-2" d="M417.34,534.54c16.18,19.78,2.13,49.46-23.43,49.46H196.17l.21-.11A193.12,193.12,0,0,0,302,411.73V330h55v82.15C357,451.78,388.65,499.47,417.34,534.54Z"/><path class="cls-1" d="M540.46,565,443,560l-21-17-12-14H388a27.06,27.06,0,0,1-26.23-20.38L338,415.47,337.72,261H553.25Z"/><path class="cls-3" d="M337.71,339H369a25.43,25.43,0,0,1,21,11.14l10.55,15.51L384.7,423.72A9.72,9.72,0,0,0,394.08,436H408v91l-12,15-12,6-15-1-8,3-11-4-18,1a35.7,35.7,0,0,0,6-19.81Z"/><path class="cls-4" d="M472.64,354.82A22.43,22.43,0,0,0,454.08,345H416v-6h38.08a28.41,28.41,0,0,1,23.52,12.45Z"/><path class="cls-4" d="M389.09,354.82A22.42,22.42,0,0,0,370.53,345H333v-6h37.53a28.4,28.4,0,0,1,23.52,12.45Z"/><polygon class="cls-3" points="470 548 470 558.99 408 649.84 408 530.49 419.51 541.99 444 549 451 547 463 549 466 547 470 548"/><path class="cls-4" d="M423.63,484H395.8A10.84,10.84,0,0,1,385,473.16V473h47.61Z"/><polygon class="cls-1" points="473.13 387 440.63 387 431.97 374 465.55 374 473.13 387"/><polygon class="cls-1" points="382 389 360.58 389 352.01 374 378.79 370.79 382 376.15 382 389"/><path class="cls-4" d="M385.56,376h-36.3l-12.1-11H376a11.5,11.5,0,0,1,8.65,3.93l12,13.67Z"/><path class="cls-4" d="M379.1,395H365.3a10.83,10.83,0,0,1-9.7-6h29.55A6.05,6.05,0,0,1,379.1,395Z"/><path class="cls-4" d="M350,376h19a0,0,0,0,1,0,0v19a0,0,0,0,1,0,0H359a9,9,0,0,1-9-9V376A0,0,0,0,1,350,376Z"/><polygon class="cls-1" points="460 389 438.58 389 430.01 374 456.79 370.79 460 376.15 460 389"/><path class="cls-4" d="M462.65,376h-35.2l-12.1-11h38.79a11.5,11.5,0,0,1,8.65,3.93l12,13.67Z"/><path class="cls-4" d="M457.28,395H443.49a10.83,10.83,0,0,1-9.7-6h29.55A6.06,6.06,0,0,1,457.28,395Z"/><path class="cls-4" d="M428,376h19a0,0,0,0,1,0,0v19a0,0,0,0,1,0,0H437a9,9,0,0,1-9-9V376A0,0,0,0,1,428,376Z"/><path class="cls-3" d="M475.73,422.68a23.92,23.92,0,1,1-43.45-20Z"/><path class="cls-4" d="M408,440H394.3a13.94,13.94,0,0,1-13.38-17.84l10.44-35.78L379.65,373.7l4.41-4.07,14,15.17-11.39,39A7.95,7.95,0,0,0,394.3,434H408Z"/><polygon class="cls-4" points="427 439 416.83 439 407.36 427.16 412.05 423.42 419.72 433 427 433 427 439"/><rect class="cls-4" x="463.44" y="369" width="6" height="18.95" transform="translate(-133.02 416.74) rotate(-42.71)"/><path class="cls-1" d="M507,289,536.57,314A60.47,60.47,0,0,1,557,359.26V466.1a23.9,23.9,0,0,0,7,16.9c4.48,4.48,19,7,19,7H531L520,353Z"/><path class="cls-4" d="M542,493H526.9A26.9,26.9,0,0,1,500,466.1V381.26a57.49,57.49,0,0,0-19.42-43.06l-29.51-24.91,3.86-4.58,29.57,25a63.52,63.52,0,0,1,21.5,47.6V466.1A20.89,20.89,0,0,0,526.9,487H542Z"/><path class="cls-4" d="M563,493H544.9A26.9,26.9,0,0,1,518,466.1V374.26a57.49,57.49,0,0,0-19.42-43.06l-29.51-24.91,3.86-4.58,29.57,25a63.52,63.52,0,0,1,21.5,47.6V466.1A20.89,20.89,0,0,0,544.9,487H563Z"/><path class="cls-4" d="M577,493H562.9A26.9,26.9,0,0,1,536,466.1V366.26a57.49,57.49,0,0,0-19.42-43.06l-29.51-24.91,3.86-4.58,29.57,25a63.52,63.52,0,0,1,21.5,47.6V466.1A20.89,20.89,0,0,0,562.9,487H577Z"/><path class="cls-4" d="M583,493h-2.1A26.9,26.9,0,0,1,554,466.1V357.26a57.49,57.49,0,0,0-19.42-43.06l-29.51-24.91,3.86-4.58,29.57,25a63.52,63.52,0,0,1,21.5,47.6V466.1A20.89,20.89,0,0,0,580.9,487H583Z"/><path class="cls-4" d="M338.6,287.91H551a18.23,18.23,0,0,1,18.23,18.23V325a0,0,0,0,1,0,0H320.38a0,0,0,0,1,0,0V306.14A18.23,18.23,0,0,1,338.6,287.91Z"/><polygon class="cls-4" points="556.19 297.48 333.42 297.48 312 197.19 577.61 197.19 556.19 297.48"/><rect class="cls-1" x="319.18" y="284.91" width="256.04" height="6"/><polygon class="cls-4" points="369.83 221.11 319.5 221.11 344.67 164.88 369.83 221.11"/><polygon class="cls-4" points="436.59 221.11 386.26 221.11 411.42 164.88 436.59 221.11"/><polygon class="cls-4" points="503.35 221.11 453.01 221.11 478.18 164.88 503.35 221.11"/><polygon class="cls-4" points="570.11 221.11 519.77 221.11 544.94 164.88 570.11 221.11"/><circle class="cls-4" cx="344.3" cy="164.88" r="10.77"/><circle class="cls-4" cx="411.3" cy="164.88" r="10.77"/><circle class="cls-4" cx="478.3" cy="164.88" r="10.77"/><circle class="cls-4" cx="545.3" cy="164.88" r="10.77"/><path class="cls-1" d="M370,290.91H343.7V276.54a13.17,13.17,0,0,1,26.34,0Zm-20.34-6H364v-8.37a7.17,7.17,0,0,0-14.34,0Z"/><path class="cls-1" d="M414,290.91H387.67V276.54a13.17,13.17,0,0,1,26.33,0Zm-20.33-6H408v-8.37a7.17,7.17,0,0,0-14.33,0Z"/><path class="cls-1" d="M458,290.91H431.63V276.54a13.17,13.17,0,0,1,26.34,0Zm-20.34-6H452v-8.37a7.17,7.17,0,0,0-14.34,0Z"/><path class="cls-1" d="M545.91,290.91H519.57V276.54a13.17,13.17,0,0,1,26.34,0Zm-20.34-6h14.34v-8.37a7.17,7.17,0,0,0-14.34,0Z"/><path class="cls-1" d="M501.94,290.91H475.6V276.54a13.17,13.17,0,0,1,26.34,0Zm-20.34-6h14.34v-8.37a7.17,7.17,0,0,0-14.34,0Z"/><rect class="cls-1" x="312" y="209.74" width="268" height="6"/><circle class="cls-4" cx="234.97" cy="512.75" r="76.66"/><path class="cls-1" d="M236.91,546.42l-8.19-6L212,542.38s-5.3-3.89-14.18.08l4,8.94a17.61,17.61,0,0,0-23.27-8.9L184.09,555a17.62,17.62,0,0,0-23.28-8.89l34.09,76.23a32,32,0,0,0,42.25,16.15l25.24-11.28A56.94,56.94,0,0,0,295,586.33L262.61,602,254,581.44Z"/><path class="cls-2" d="M221.8,603.55,199,552.62a14.64,14.64,0,0,0-16.44-8.32l23.06,51.6-5.47,2.45L174.53,541l2.74-1.23a20.64,20.64,0,0,1,27.24,10.41l22.77,50.93Z"/><path class="cls-2" d="M237.88,596.36l-19.57-43.78a14.65,14.65,0,0,0-16.45-8.33L221.6,588.4l-5.48,2.45L193.81,541l2.74-1.23a20.61,20.61,0,0,1,27.24,10.41l19.57,43.78Z"/><path class="cls-2" d="M257.36,596.91l-19.77-44.38a14.67,14.67,0,0,0-16.45-8.32L239,584.08l-5.48,2.45-20.4-45.63,2.74-1.22a20.64,20.64,0,0,1,27.24,10.41l19.77,44.37Z"/><path class="cls-2" d="M219.12,634.23a35.05,35.05,0,0,1-32-20.7L156.87,544.6l2.72-1.22a20.64,20.64,0,0,1,27.24,10.41l24.36,54.5-5.47,2.45-24.37-54.5a14.64,14.64,0,0,0-16.47-8.32l27.74,63.17a29,29,0,0,0,38.28,14.62l2.45,5.48A34.87,34.87,0,0,1,219.12,634.23Z"/><rect class="cls-2" x="231.27" y="620.33" width="22.48" height="6" transform="translate(-253.16 174.26) rotate(-26.57)"/><path class="cls-4" d="M216.69,372h36.55a26.72,26.72,0,0,0-14.5,23.76v3.89H231.2v-3.89A26.71,26.71,0,0,0,216.69,372Z"/><path class="cls-4" d="M253.24,439.86H216.69A26.72,26.72,0,0,0,231.2,416.1V399.65h7.54V416.1a26.73,26.73,0,0,0,14.5,23.76Z"/><path class="cls-4" d="M207.32,417.93V381.37a26.71,26.71,0,0,0,23.76,14.51H235v7.54h-3.89a26.71,26.71,0,0,0-23.76,14.51Z"/><path class="cls-4" d="M262.61,381.37v36.56a26.71,26.71,0,0,0-23.76-14.51H235v-7.54h3.88a26.71,26.71,0,0,0,23.76-14.51Z"/><rect class="cls-4" x="222.4" y="412.98" width="25.13" height="6"/><rect class="cls-1" x="204.81" y="433.09" width="59.06" height="6"/><rect class="cls-2" x="147" y="505.98" width="170.91" height="6"/><path class="cls-2" d="M198.9,511.49l-3.27-5,9.27-6a31.77,31.77,0,0,0,14.5-26.72v-7.56l-14.22-3.05-11.86,5.65a21,21,0,0,0-11.9,18.85v4.59l-24.31-10.64,2.4-5.49,16.28,7.12a27,27,0,0,1,15-19.85l13.7-6.52,21,4.49v12.41a37.75,37.75,0,0,1-17.23,31.75Z"/><path class="cls-2" d="M271,511.49l-9.27-6a37.75,37.75,0,0,1-17.23-31.75V461.31l21-4.49,13.69,6.52a27,27,0,0,1,14.95,19.85l16.28-7.12,2.4,5.49-24.3,10.64v-4.59a21,21,0,0,0-11.91-18.85l-11.85-5.65-14.23,3.05v7.56A31.77,31.77,0,0,0,265,500.44l9.27,6Z"/><path class="cls-4" d="M440.75,551.8A36.42,36.42,0,0,1,405,515.55V493h6v22.55a30.39,30.39,0,0,0,29.8,30.25,8.2,8.2,0,0,0,4.53-1.38l3.34,5A14.21,14.21,0,0,1,440.75,551.8Z"/><path class="cls-4" d="M458.75,551.8A36.42,36.42,0,0,1,423,515.55V493h6v22.55a30.39,30.39,0,0,0,29.8,30.25,8.15,8.15,0,0,0,5-1.74l3.7,4.72A14.12,14.12,0,0,1,458.75,551.8Z"/><path class="cls-4" d="M477.76,551.8h-.23A36.24,36.24,0,0,1,442,515.72V493h6v22.72a30.21,30.21,0,0,0,29.63,30.08,8.25,8.25,0,0,0,8.37-8.25h6a14.24,14.24,0,0,1-14.24,14.25Z"/><path class="cls-4" d="M484.75,549.94A36.22,36.22,0,0,1,460,515.55V493h6v22.55a30.22,30.22,0,0,0,20.65,28.7Z"/><path class="cls-4" d="M375.29,551.8a14.22,14.22,0,0,1-8-2.4l3.34-5a8.24,8.24,0,0,0,4.58,1.38A30.38,30.38,0,0,0,405,515.55V493h6v22.55a36.41,36.41,0,0,1-35.7,36.25Z"/><path class="cls-4" d="M357.29,551.8a14.13,14.13,0,0,1-8.82-3l3.7-4.72a8.18,8.18,0,0,0,5.08,1.74A30.38,30.38,0,0,0,387,515.55V493h6v22.55a36.41,36.41,0,0,1-35.7,36.25Z"/><path class="cls-4" d="M338.24,551.8A14.24,14.24,0,0,1,324,537.55h6a8.17,8.17,0,0,0,2.46,5.88,8.3,8.3,0,0,0,5.92,2.37A30.21,30.21,0,0,0,368,515.72V493h6v22.72a36.24,36.24,0,0,1-35.53,36.08Z"/><path class="cls-4" d="M331.25,549.94l-1.9-5.69A30.22,30.22,0,0,0,350,515.55V493h6v22.55A36.22,36.22,0,0,1,331.25,549.94Z"/><path class="cls-4" d="M466,482h-6a25,25,0,0,0-25-25H381a25,25,0,0,0-25,25h-6a31,31,0,0,1,31-31h54A31,31,0,0,1,466,482Z"/><path class="cls-2" d="M750.36,1204a3.4,3.4,0,0,0,3,1.38,4.63,4.63,0,0,0,4.2-2l6.6,4.92a11.23,11.23,0,0,1-4,4.26,12.72,12.72,0,0,1-7.14,1.86q-6.36,0-9.9-3.78a13.73,13.73,0,0,1-3.54-9.78v-24.48l-3.6.12a17.29,17.29,0,0,0-7,1.44,19.91,19.91,0,0,0-3.42,1.86,12.18,12.18,0,0,0-2.34,2.22,102.12,102.12,0,0,0-7.8,12q-3.84,6.48-9.6,18.72H695q10.44-19.56,13.08-24.24,3.84-6.72,6.24-10.08a29.2,29.2,0,0,1,3.3-4.14q1.5-1.5,2.46-2.34l-21.84-31a6.34,6.34,0,0,0-1.68-1.74,3.8,3.8,0,0,0-1.92-.42,2.47,2.47,0,0,0-2.16,1.44l-7.44-5.28a11.46,11.46,0,0,1,4.44-4.08,11.23,11.23,0,0,1,5.16-1.44,13.34,13.34,0,0,1,5.94,1.38,11,11,0,0,1,4.38,3.66l23.52,33.36a31.76,31.76,0,0,1,4.8-1,44.92,44.92,0,0,1,6-.12v-36.36H749.4v70.44A5.43,5.43,0,0,0,750.36,1204Z"/><rect class="cls-2" x="721" y="632" width="6" height="367"/><path class="cls-2" d="M652,1199H116.54A43.59,43.59,0,0,1,73,1155.46V638h6v517.46A37.58,37.58,0,0,0,116.54,1193H652Z"/><circle class="cls-2" cx="724.5" cy="1076.5" r="13.5"/><circle class="cls-2" cx="736.5" cy="1058.5" r="11.5"/><circle class="cls-2" cx="713.5" cy="1058.5" r="11.5"/><path class="cls-2" d="M710.45,1037h29.1A21.26,21.26,0,0,0,728,1055.91V1065h-6v-9.09A21.26,21.26,0,0,0,710.45,1037Z"/><circle class="cls-2" cx="471" cy="1045" r="122"/><circle class="cls-2" cx="576" cy="883" r="105"/><circle class="cls-2" cx="366" cy="883" r="105"/><path class="cls-2" d="M382.66,735.46C366.48,715.68,380.53,686,406.09,686H603.83l-.21.11A193.12,193.12,0,0,0,498,858.27V940H443V857.85C443,818.22,411.35,770.53,382.66,735.46Z"/><path class="cls-1" d="M259.54,705,357,710l21,17,12,14h22a27.06,27.06,0,0,1,26.23,20.38L462,854.53l.28,154.47H246.75Z"/><path class="cls-3" d="M462.25,931H431a25.43,25.43,0,0,1-21-11.14l-10.54-15.51,15.83-58.08A9.71,9.71,0,0,0,405.91,834H392V743l12-15,12-6,15,1,8-3,11,4,18-1a35.7,35.7,0,0,0-6,19.8Z"/><path class="cls-4" d="M384,931H345.66a28.41,28.41,0,0,1-23.52-12.45l5-3.37A22.43,22.43,0,0,0,345.66,925H384Z"/><path class="cls-4" d="M467,931H429.21a28.4,28.4,0,0,1-23.52-12.45l5-3.37A22.42,22.42,0,0,0,429.21,925H467Z"/><polygon class="cls-3" points="330 721.82 330 710.83 392 619.98 392 739.33 380.49 727.83 356 720.82 349 722.82 337 720.82 334 722.82 330 721.82"/><path class="cls-4" d="M376.33,786h27.83A10.84,10.84,0,0,1,415,796.84V797H367.4Z"/><polygon class="cls-1" points="326.61 883 359.11 883 367.77 896 334.19 896 326.61 883"/><polygon class="cls-1" points="418 881 439.42 881 447.99 896 421.21 899.21 418 893.85 418 881"/><path class="cls-4" d="M414.18,894h36.3l12.1,11H423.79a11.5,11.5,0,0,1-8.65-3.93l-12-13.67Z"/><path class="cls-4" d="M420.64,875h13.8a10.83,10.83,0,0,1,9.7,6H414.59A6.05,6.05,0,0,1,420.64,875Z"/><path class="cls-4" d="M431,875h19a0,0,0,0,1,0,0v19a0,0,0,0,1,0,0H440a9,9,0,0,1-9-9V875A0,0,0,0,1,431,875Z" transform="translate(881 1769) rotate(180)"/><polygon class="cls-1" points="340 881 361.42 881 369.99 896 343.21 899.21 340 893.85 340 881"/><path class="cls-4" d="M337.09,894h35.2l12.1,11H345.6a11.5,11.5,0,0,1-8.65-3.93L325,887.4Z"/><path class="cls-4" d="M342.46,875h13.79a10.85,10.85,0,0,1,9.71,6H336.4A6.06,6.06,0,0,1,342.46,875Z"/><path class="cls-4" d="M353,875h19a0,0,0,0,1,0,0v19a0,0,0,0,1,0,0H362a9,9,0,0,1-9-9V875A0,0,0,0,1,353,875Z" transform="translate(725 1769) rotate(180)"/><path class="cls-3" d="M324,847.13a23.92,23.92,0,0,1,43.45,20Z"/><path class="cls-4" d="M415.68,900.37l-14-15.17,11.39-39A7.95,7.95,0,0,0,405.44,836H392v-6h13.44a13.94,13.94,0,0,1,13.38,17.84l-10.44,35.78,11.71,12.68Z"/><polygon class="cls-4" points="387.69 846.59 380.02 837 373 837 373 831 382.91 831 392.38 842.84 387.69 846.59"/><rect class="cls-4" x="330.3" y="881.86" width="6" height="18.95" transform="translate(-516.2 462.48) rotate(-42.71)"/><path class="cls-1" d="M293,981l-29.57-25A60.47,60.47,0,0,1,243,910.74V803.9a23.9,23.9,0,0,0-7-16.9c-4.48-4.48-19-7-19-7h52l11,137Z"/><path class="cls-4" d="M345.07,961.29,315.5,936.34a63.52,63.52,0,0,1-21.5-47.6V803.9A20.89,20.89,0,0,0,273.1,783H258v-6h15.1A26.9,26.9,0,0,1,300,803.9v84.84a57.49,57.49,0,0,0,19.42,43.06l29.51,24.91Z"/><path class="cls-4" d="M327.07,968.29,297.5,943.34a63.52,63.52,0,0,1-21.5-47.6V803.9A20.89,20.89,0,0,0,255.1,783H237v-6h18.1A26.9,26.9,0,0,1,282,803.9v91.84a57.49,57.49,0,0,0,19.42,43.06l29.51,24.91Z"/><path class="cls-4" d="M309.07,976.29,279.5,951.34a63.52,63.52,0,0,1-21.5-47.6V803.9A20.89,20.89,0,0,0,237.1,783H223v-6h14.1A26.9,26.9,0,0,1,264,803.9v99.84a57.49,57.49,0,0,0,19.42,43.06l29.51,24.91Z"/><path class="cls-4" d="M291.07,985.29,261.5,960.34a63.52,63.52,0,0,1-21.5-47.6V803.9A20.89,20.89,0,0,0,219.1,783H217v-6h2.1A26.9,26.9,0,0,1,246,803.9V912.74a57.49,57.49,0,0,0,19.42,43.06l29.51,24.91Z"/><path class="cls-4" d="M248.21,945H460.79A18.21,18.21,0,0,1,479,963.21V982a0,0,0,0,1,0,0H230a0,0,0,0,1,0,0V963.21A18.21,18.21,0,0,1,248.21,945Z" transform="translate(709 1927) rotate(180)"/><polygon class="cls-4" points="243.88 972 465.99 972 487.35 1072 222.53 1072 243.88 972"/><rect class="cls-1" x="225" y="979" width="256" height="6"/><polygon class="cls-4" points="429.91 1049 480.24 1049 455.07 1105.23 429.91 1049"/><polygon class="cls-4" points="363.15 1049 413.48 1049 388.32 1105.23 363.15 1049"/><polygon class="cls-4" points="296.39 1049 346.73 1049 321.56 1105.23 296.39 1049"/><polygon class="cls-4" points="229.63 1049 279.97 1049 254.8 1105.23 229.63 1049"/><circle class="cls-4" cx="455" cy="1105" r="11"/><circle class="cls-4" cx="388" cy="1105" r="11"/><circle class="cls-4" cx="321" cy="1105" r="11"/><circle class="cls-4" cx="254" cy="1105" r="11"/><path class="cls-1" d="M443,1007a13,13,0,0,1-13-13V979h26v15A13,13,0,0,1,443,1007Zm-7-22v9a7,7,0,0,0,14,0v-9Z"/><path class="cls-1" d="M399,1007a13,13,0,0,1-13-13V979h26v15A13,13,0,0,1,399,1007Zm-7-22v9a7,7,0,0,0,14,0v-9Z"/><path class="cls-1" d="M355,1007a13,13,0,0,1-13-13V979h26v15A13,13,0,0,1,355,1007Zm-7-22v9a7,7,0,0,0,14,0v-9Z"/><path class="cls-1" d="M267,1007a13,13,0,0,1-13-13V979h26v15A13,13,0,0,1,267,1007Zm-7-22v9a7,7,0,0,0,14,0v-9Z"/><path class="cls-1" d="M311,1007a13,13,0,0,1-13-13V979h26v15A13,13,0,0,1,311,1007Zm-7-22v9a7,7,0,0,0,14,0v-9Z"/><rect class="cls-1" x="220" y="1054" width="268" height="6"/><circle class="cls-4" cx="564.5" cy="757.5" r="76.5"/><path class="cls-1" d="M562.83,723.4l8.19,6,16.76-1.93s5.3,3.89,14.18-.08l-4-8.94a17.61,17.61,0,0,0,23.27,8.89l-5.59-12.5a17.62,17.62,0,0,0,23.28,8.89l-34.09-76.24a32,32,0,0,0-42.25-16.14L537.35,642.6a56.94,56.94,0,0,0-32.6,40.89l32.38-15.64,8.6,20.53Z"/><path class="cls-2" d="M614.06,731.86a20.77,20.77,0,0,1-7.37-1.37,20.5,20.5,0,0,1-11.46-10.84l-22.77-50.93,5.48-2.45,22.77,50.93a14.62,14.62,0,0,0,16.45,8.32l-23.07-51.6,5.47-2.45,25.65,57.36-2.74,1.22A20.47,20.47,0,0,1,614.06,731.86Z"/><path class="cls-2" d="M594.8,731.89A20.65,20.65,0,0,1,576,719.69l-19.57-43.78,5.48-2.45,19.57,43.78a14.64,14.64,0,0,0,16.45,8.32l-19.74-44.14,5.48-2.45,22.31,49.9-2.74,1.23A20.66,20.66,0,0,1,594.8,731.89Z"/><path class="cls-2" d="M575.53,731.93a20.67,20.67,0,0,1-18.86-12.2L536.9,675.35l5.48-2.44,19.77,44.38a14.65,14.65,0,0,0,16.45,8.31l-17.83-39.86,5.48-2.45,20.4,45.62-2.74,1.23A20.45,20.45,0,0,1,575.53,731.93Z"/><path class="cls-2" d="M631.74,728.24A20.64,20.64,0,0,1,612.91,716l-24.36-54.5,5.47-2.45,24.37,54.5a14.63,14.63,0,0,0,16.47,8.32l-27.74-63.18a29,29,0,0,0-38.28-14.61l-2.45-5.48a35,35,0,0,1,46.22,17.66l30.26,68.93-2.72,1.22A20.62,20.62,0,0,1,631.74,728.24Z"/><rect class="cls-2" x="545.99" y="643.49" width="22.48" height="6" transform="translate(-230.29 317.45) rotate(-26.57)"/><path class="cls-4" d="M584.39,898H545.61l.44-.22a26.7,26.7,0,0,0,15-24V870h8v3.8a26.7,26.7,0,0,0,15,24Z"/><path class="cls-4" d="M545.61,830h38.78l-.27.13A26.72,26.72,0,0,0,569,854.2V870h-8V854.2a26.72,26.72,0,0,0-15.12-24.07Z"/><path class="cls-4" d="M593,850.61v38.78l-.22-.44a26.7,26.7,0,0,0-24-15H565v-8h3.8a26.7,26.7,0,0,0,24-15Z"/><path class="cls-4" d="M537,889.39V850.61l.22.44a26.7,26.7,0,0,0,24,15H565v8h-3.8a26.7,26.7,0,0,0-24,15Z"/><rect class="cls-4" x="552" y="851" width="25" height="6"/><rect class="cls-1" x="536" y="831" width="59" height="6"/><rect class="cls-2" x="482" y="758" width="171" height="6"/><path class="cls-2" d="M595,813l-21-4.49V796.1a37.73,37.73,0,0,1,17.23-31.75l9.27-6,3.27,5-9.27,6A31.75,31.75,0,0,0,580,796.1v7.56l14.22,3,11.86-5.64A21,21,0,0,0,618,782.21v-4.59l24.31,10.63-2.4,5.5-16.28-7.12a27,27,0,0,1-15,19.85Z"/><path class="cls-2" d="M534,813l-13.7-6.52a27,27,0,0,1-15-19.85l-16.28,7.12-2.4-5.5L511,777.62v4.59a21,21,0,0,0,11.9,18.85l11.86,5.64,14.22-3V796.1a31.75,31.75,0,0,0-14.5-26.72l-9.27-6,3.27-5,9.27,6A37.73,37.73,0,0,1,555,796.1v12.41Z"/><path class="cls-4" d="M395,777h-6V754.27A30.4,30.4,0,0,0,359.2,724a8.13,8.13,0,0,0-4.53,1.39l-3.34-5a14.14,14.14,0,0,1,7.92-2.41A36.44,36.44,0,0,1,395,754.27Z"/><path class="cls-4" d="M377,777h-6V754.27A30.4,30.4,0,0,0,341.2,724a8.16,8.16,0,0,0-5,1.75l-3.7-4.72a14.13,14.13,0,0,1,8.78-3A36.44,36.44,0,0,1,377,754.27Z"/><path class="cls-4" d="M358,777h-6V754.1A30.21,30.21,0,0,0,322.38,724a8.25,8.25,0,0,0-8.38,8.24h-6A14.24,14.24,0,0,1,322.47,718,36.24,36.24,0,0,1,358,754.1Z"/><path class="cls-4" d="M340,777h-6V754.27a30.22,30.22,0,0,0-20.65-28.7l1.9-5.69A36.22,36.22,0,0,1,340,754.27Z"/><path class="cls-4" d="M395,777h-6V754.27A36.43,36.43,0,0,1,424.7,718a14.26,14.26,0,0,1,8,2.41l-3.34,5a8.18,8.18,0,0,0-4.58-1.39A30.39,30.39,0,0,0,395,754.27Z"/><path class="cls-4" d="M413,777h-6V754.27A36.43,36.43,0,0,1,442.7,718a14.14,14.14,0,0,1,8.83,3l-3.7,4.72a8.19,8.19,0,0,0-5.08-1.75A30.39,30.39,0,0,0,413,754.27Z"/><path class="cls-4" d="M432,777h-6V754.1A36.24,36.24,0,0,1,461.53,718,14.24,14.24,0,0,1,476,732.26h-6a8.17,8.17,0,0,0-2.46-5.87,8,8,0,0,0-5.91-2.37A30.21,30.21,0,0,0,432,754.1Z"/><path class="cls-4" d="M450,777h-6V754.27a36.22,36.22,0,0,1,24.75-34.39l1.9,5.69A30.22,30.22,0,0,0,450,754.27Z"/><path class="cls-4" d="M418.74,819h-54a31,31,0,0,1-31-31h6a25,25,0,0,0,25,25h54a25,25,0,0,0,25-25h6A31,31,0,0,1,418.74,819Z"/><rect class="cls-4" x="120.03" y="633" width="559.95" height="6" transform="translate(-193.77 175.63) rotate(-20.05)"/><circle class="cls-1" cx="400" cy="636" r="68"/><circle class="cls-4" cx="400" cy="636" r="57.12"/><circle class="cls-1" cx="400" cy="618.71" r="18.21"/><circle class="cls-1" cx="384.53" cy="642.37" r="15.47"/><circle class="cls-1" cx="415.47" cy="642.37" r="15.47"/><path class="cls-1" d="M419.41,671.5H379.68A28.56,28.56,0,0,0,395.45,646V634.18h8.19V646A28.57,28.57,0,0,0,419.4,671.5Z"/></g></svg>