<svg xmlns="http://www.w3.org/2000/svg" viewBox="0 0 800 1218"><defs><style>.cls-1{fill:#f2f0eb;}.cls-2{fill:#3e95a3;}.cls-3{fill:#d39c53;}.cls-4{fill:#27282b;}</style></defs><title>Kc</title><g id="Layer_2" data-name="Layer 2"><rect class="cls-1" width="800" height="1218"/></g><g id="Layer_1" data-name="Layer 1"><path class="cls-2" d="M49.38,39.83a3.4,3.4,0,0,0-3-1.38,4.63,4.63,0,0,0-4.2,2l-6.6-4.92a11.23,11.23,0,0,1,4-4.26,12.72,12.72,0,0,1,7.14-1.86q6.36,0,9.9,3.78A13.73,13.73,0,0,1,60.18,43V67.49l3.6-.12a17.29,17.29,0,0,0,7-1.44,19.91,19.91,0,0,0,3.42-1.86,12.18,12.18,0,0,0,2.34-2.22,102.12,102.12,0,0,0,7.8-12q3.84-6.48,9.6-18.72h10.8Q94.26,50.69,91.62,55.37q-3.84,6.72-6.24,10.08a29.2,29.2,0,0,1-3.3,4.14q-1.5,1.5-2.46,2.34l21.84,31a6.34,6.34,0,0,0,1.68,1.74,3.8,3.8,0,0,0,1.92.42,2.47,2.47,0,0,0,2.16-1.44l7.44,5.28a11.46,11.46,0,0,1-4.44,4.08,11.23,11.23,0,0,1-5.16,1.44A13.34,13.34,0,0,1,99.12,113a11,11,0,0,1-4.38-3.66L71.22,76a31.76,31.76,0,0,1-4.8,1,44.92,44.92,0,0,1-6,.12v36.36H50.34V43A5.43,5.43,0,0,0,49.38,39.83Z"/><rect class="cls-2" x="73" y="245" width="6" height="367"/><path class="cls-2" d="M727,606h-6V88.54A37.58,37.58,0,0,0,683.46,51H148V45H683.46A43.59,43.59,0,0,1,727,88.54Z"/><circle class="cls-2" cx="75.5" cy="167.5" r="13.5"/><circle class="cls-2" cx="63.5" cy="185.5" r="11.5"/><circle class="cls-2" cx="86.5" cy="185.5" r="11.5"/><path class="cls-2" d="M89.55,207H60.45A21.26,21.26,0,0,0,72,188.09V179h6v9.09A21.26,21.26,0,0,0,89.55,207Z"/><circle class="cls-2" cx="329" cy="199" r="122"/><circle class="cls-2" cx="224" cy="361" r="105"/><circle class="cls-2" cx="434" cy="361" r="105"/><path class="cls-2" d="M417.34,508.54c16.18,19.78,2.13,49.46-23.43,49.46H196.17l.21-.11A193.12,193.12,0,0,0,302,385.73V304h55v82.15C357,425.78,388.65,473.47,417.34,508.54Z"/><path class="cls-1" d="M540.46,539,443,534l-21-17-12-14H388a27.06,27.06,0,0,1-26.23-20.38L338,389.47,337.72,235H553.25Z"/><path class="cls-3" d="M337.71,313H369a25.43,25.43,0,0,1,21,11.14l10.55,15.51L384.7,397.72A9.72,9.72,0,0,0,394.08,410H408v91l-12,15-12,6-15-1-8,3-11-4-18,1a35.7,35.7,0,0,0,6-19.81Z"/><path class="cls-4" d="M472.64,328.82A22.43,22.43,0,0,0,454.08,319H416v-6h38.08a28.41,28.41,0,0,1,23.52,12.45Z"/><path class="cls-4" d="M389.09,328.82A22.42,22.42,0,0,0,370.53,319H333v-6h37.53a28.4,28.4,0,0,1,23.52,12.45Z"/><polygon class="cls-3" points="470 522 470 532.99 408 623.84 408 504.49 419.51 515.99 444 523 451 521 463 523 466 521 470 522"/><path class="cls-4" d="M423.63,458H395.8A10.84,10.84,0,0,1,385,447.16V447h47.61Z"/><polygon class="cls-1" points="473.13 361 440.63 361 431.97 348 465.55 348 473.13 361"/><polygon class="cls-1" points="382 363 360.58 363 352.01 348 378.79 344.79 382 350.15 382 363"/><path class="cls-4" d="M385.56,350h-36.3l-12.1-11H376a11.5,11.5,0,0,1,8.65,3.93l12,13.67Z"/><path class="cls-4" d="M379.1,369H365.3a10.83,10.83,0,0,1-9.7-6h29.55A6.05,6.05,0,0,1,379.1,369Z"/><path class="cls-4" d="M350,350h19a0,0,0,0,1,0,0v19a0,0,0,0,1,0,0H359a9,9,0,0,1-9-9V350A0,0,0,0,1,350,350Z"/><polygon class="cls-1" points="460 363 438.58 363 430.01 348 456.79 344.79 460 350.15 460 363"/><path class="cls-4" d="M462.65,350h-35.2l-12.1-11h38.79a11.5,11.5,0,0,1,8.65,3.93l12,13.67Z"/><path class="cls-4" d="M457.28,369H443.49a10.83,10.83,0,0,1-9.7-6h29.55A6.06,6.06,0,0,1,457.28,369Z"/><path class="cls-4" d="M428,350h19a0,0,0,0,1,0,0v19a0,0,0,0,1,0,0H437a9,9,0,0,1-9-9V350A0,0,0,0,1,428,350Z"/><path class="cls-3" d="M475.73,396.68a23.92,23.92,0,1,1-43.45-20Z"/><path class="cls-4" d="M408,414H394.3a13.94,13.94,0,0,1-13.38-17.84l10.44-35.78L379.65,347.7l4.41-4.07,14,15.17-11.39,39A7.95,7.95,0,0,0,394.3,408H408Z"/><polygon class="cls-4" points="427 413 416.83 413 407.36 401.16 412.05 397.42 419.72 407 427 407 427 413"/><rect class="cls-4" x="463.44" y="343" width="6" height="18.95" transform="translate(-115.38 409.85) rotate(-42.71)"/><path class="cls-1" d="M507,263,536.57,288A60.47,60.47,0,0,1,557,333.26V440.1a23.9,23.9,0,0,0,7,16.9c4.48,4.48,19,7,19,7H531L520,327Z"/><path class="cls-4" d="M542,467H526.9A26.9,26.9,0,0,1,500,440.1V355.26a57.49,57.49,0,0,0-19.42-43.06l-29.51-24.91,3.86-4.58,29.57,25a63.52,63.52,0,0,1,21.5,47.6V440.1A20.89,20.89,0,0,0,526.9,461H542Z"/><path class="cls-4" d="M563,467H544.9A26.9,26.9,0,0,1,518,440.1V348.26a57.49,57.49,0,0,0-19.42-43.06l-29.51-24.91,3.86-4.58,29.57,25a63.52,63.52,0,0,1,21.5,47.6V440.1A20.89,20.89,0,0,0,544.9,461H563Z"/><path class="cls-4" d="M577,467H562.9A26.9,26.9,0,0,1,536,440.1V340.26a57.49,57.49,0,0,0-19.42-43.06l-29.51-24.91,3.86-4.58,29.57,25a63.52,63.52,0,0,1,21.5,47.6V440.1A20.89,20.89,0,0,0,562.9,461H577Z"/><path class="cls-4" d="M583,467h-2.1A26.9,26.9,0,0,1,554,440.1V331.26a57.49,57.49,0,0,0-19.42-43.06l-29.51-24.91,3.86-4.58,29.57,25a63.52,63.52,0,0,1,21.5,47.6V440.1A20.89,20.89,0,0,0,580.9,461H583Z"/><path class="cls-4" d="M338.6,261.91H551a18.23,18.23,0,0,1,18.23,18.23V299a0,0,0,0,1,0,0H320.38a0,0,0,0,1,0,0V280.14A18.23,18.23,0,0,1,338.6,261.91Z"/><polygon class="cls-4" points="556.19 271.48 333.42 271.48 312 171.19 577.61 171.19 556.19 271.48"/><rect class="cls-1" x="319.18" y="258.91" width="256.04" height="6"/><polygon class="cls-4" points="369.83 195.11 319.5 195.11 344.67 138.88 369.83 195.11"/><polygon class="cls-4" points="436.59 195.11 386.26 195.11 411.42 138.88 436.59 195.11"/><polygon class="cls-4" points="503.35 195.11 453.01 195.11 478.18 138.88 503.35 195.11"/><polygon class="cls-4" points="570.11 195.11 519.77 195.11 544.94 138.88 570.11 195.11"/><circle class="cls-4" cx="344.3" cy="138.88" r="10.77"/><circle class="cls-4" cx="411.3" cy="138.88" r="10.77"/><circle class="cls-4" cx="478.3" cy="138.88" r="10.77"/><circle class="cls-4" cx="545.3" cy="138.88" r="10.77"/><path class="cls-1" d="M370,264.91H343.7V250.54a13.17,13.17,0,0,1,26.34,0Zm-20.34-6H364v-8.37a7.17,7.17,0,0,0-14.34,0Z"/><path class="cls-1" d="M414,264.91H387.67V250.54a13.17,13.17,0,0,1,26.33,0Zm-20.33-6H408v-8.37a7.17,7.17,0,0,0-14.33,0Z"/><path class="cls-1" d="M458,264.91H431.63V250.54a13.17,13.17,0,0,1,26.34,0Zm-20.34-6H452v-8.37a7.17,7.17,0,0,0-14.34,0Z"/><path class="cls-1" d="M545.91,264.91H519.57V250.54a13.17,13.17,0,0,1,26.34,0Zm-20.34-6h14.34v-8.37a7.17,7.17,0,0,0-14.34,0Z"/><path class="cls-1" d="M501.94,264.91H475.6V250.54a13.17,13.17,0,0,1,26.34,0Zm-20.34-6h14.34v-8.37a7.17,7.17,0,0,0-14.34,0Z"/><rect class="cls-1" x="312" y="183.74" width="268" height="6"/><circle class="cls-4" cx="234.97" cy="486.75" r="76.66"/><path class="cls-1" d="M236.91,520.42l-8.19-6L212,516.38s-5.3-3.89-14.18.08l4,8.94a17.61,17.61,0,0,0-23.27-8.9L184.09,529a17.62,17.62,0,0,0-23.28-8.89l34.09,76.23a32,32,0,0,0,42.25,16.15l25.24-11.28A56.94,56.94,0,0,0,295,560.33L262.61,576,254,555.44Z"/><path class="cls-2" d="M221.8,577.55,199,526.62a14.64,14.64,0,0,0-16.44-8.32l23.06,51.6-5.47,2.45L174.53,515l2.74-1.23a20.64,20.64,0,0,1,27.24,10.41l22.77,50.93Z"/><path class="cls-2" d="M237.88,570.36l-19.57-43.78a14.65,14.65,0,0,0-16.45-8.33L221.6,562.4l-5.48,2.45L193.81,515l2.74-1.23a20.61,20.61,0,0,1,27.24,10.41l19.57,43.78Z"/><path class="cls-2" d="M257.36,570.91l-19.77-44.38a14.67,14.67,0,0,0-16.45-8.32L239,558.08l-5.48,2.45-20.4-45.63,2.74-1.22a20.64,20.64,0,0,1,27.24,10.41l19.77,44.37Z"/><path class="cls-2" d="M219.12,608.23a35.05,35.05,0,0,1-32-20.7L156.87,518.6l2.72-1.22a20.64,20.64,0,0,1,27.24,10.41l24.36,54.5-5.47,2.45-24.37-54.5a14.64,14.64,0,0,0-16.47-8.32l27.74,63.17a29,29,0,0,0,38.28,14.62l2.45,5.48A34.87,34.87,0,0,1,219.12,608.23Z"/><rect class="cls-2" x="231.27" y="594.33" width="22.48" height="6" transform="translate(-241.53 171.51) rotate(-26.57)"/><path class="cls-4" d="M216.69,346h36.55a26.72,26.72,0,0,0-14.5,23.76v3.89H231.2v-3.89A26.71,26.71,0,0,0,216.69,346Z"/><path class="cls-4" d="M253.24,413.86H216.69A26.72,26.72,0,0,0,231.2,390.1V373.65h7.54V390.1a26.73,26.73,0,0,0,14.5,23.76Z"/><path class="cls-4" d="M207.32,391.93V355.37a26.71,26.71,0,0,0,23.76,14.51H235v7.54h-3.89a26.71,26.71,0,0,0-23.76,14.51Z"/><path class="cls-4" d="M262.61,355.37v36.56a26.71,26.71,0,0,0-23.76-14.51H235v-7.54h3.88a26.71,26.71,0,0,0,23.76-14.51Z"/><rect class="cls-4" x="222.4" y="386.98" width="25.13" height="6"/><rect class="cls-1" x="204.81" y="407.09" width="59.06" height="6"/><rect class="cls-2" x="147" y="479.98" width="170.91" height="6"/><path class="cls-2" d="M198.9,485.49l-3.27-5,9.27-6a31.77,31.77,0,0,0,14.5-26.72v-7.56l-14.22-3.05-11.86,5.65a21,21,0,0,0-11.9,18.85v4.59l-24.31-10.64,2.4-5.49,16.28,7.12a27,27,0,0,1,15-19.85l13.7-6.52,21,4.49v12.41a37.75,37.75,0,0,1-17.23,31.75Z"/><path class="cls-2" d="M271,485.49l-9.27-6a37.75,37.75,0,0,1-17.23-31.75V435.31l21-4.49,13.69,6.52a27,27,0,0,1,14.95,19.85l16.28-7.12,2.4,5.49-24.3,10.64v-4.59a21,21,0,0,0-11.91-18.85l-11.85-5.65-14.23,3.05v7.56A31.77,31.77,0,0,0,265,474.44l9.27,6Z"/><path class="cls-4" d="M440.75,525.8A36.42,36.42,0,0,1,405,489.55V467h6v22.55a30.39,30.39,0,0,0,29.8,30.25,8.2,8.2,0,0,0,4.53-1.38l3.34,5A14.21,14.21,0,0,1,440.75,525.8Z"/><path class="cls-4" d="M458.75,525.8A36.42,36.42,0,0,1,423,489.55V467h6v22.55a30.39,30.39,0,0,0,29.8,30.25,8.15,8.15,0,0,0,5-1.74l3.7,4.72A14.12,14.12,0,0,1,458.75,525.8Z"/><path class="cls-4" d="M477.76,525.8h-.23A36.24,36.24,0,0,1,442,489.72V467h6v22.72a30.21,30.21,0,0,0,29.63,30.08,8.25,8.25,0,0,0,8.37-8.25h6a14.24,14.24,0,0,1-14.24,14.25Z"/><path class="cls-4" d="M484.75,523.94A36.22,36.22,0,0,1,460,489.55V467h6v22.55a30.22,30.22,0,0,0,20.65,28.7Z"/><path class="cls-4" d="M375.29,525.8a14.22,14.22,0,0,1-8-2.4l3.34-5a8.24,8.24,0,0,0,4.58,1.38A30.38,30.38,0,0,0,405,489.55V467h6v22.55a36.41,36.41,0,0,1-35.7,36.25Z"/><path class="cls-4" d="M357.29,525.8a14.13,14.13,0,0,1-8.82-3l3.7-4.72a8.18,8.18,0,0,0,5.08,1.74A30.38,30.38,0,0,0,387,489.55V467h6v22.55a36.41,36.41,0,0,1-35.7,36.25Z"/><path class="cls-4" d="M338.24,525.8A14.24,14.24,0,0,1,324,511.55h6a8.17,8.17,0,0,0,2.46,5.88,8.3,8.3,0,0,0,5.92,2.37A30.21,30.21,0,0,0,368,489.72V467h6v22.72a36.24,36.24,0,0,1-35.53,36.08Z"/><path class="cls-4" d="M331.25,523.94l-1.9-5.69A30.22,30.22,0,0,0,350,489.55V467h6v22.55A36.22,36.22,0,0,1,331.25,523.94Z"/><path class="cls-4" d="M466,456h-6a25,25,0,0,0-25-25H381a25,25,0,0,0-25,25h-6a31,31,0,0,1,31-31h54A31,31,0,0,1,466,456Z"/><path class="cls-2" d="M750.36,1178a3.4,3.4,0,0,0,3,1.38,4.63,4.63,0,0,0,4.2-2l6.6,4.92a11.23,11.23,0,0,1-4,4.26,12.72,12.72,0,0,1-7.14,1.86q-6.36,0-9.9-3.78a13.73,13.73,0,0,1-3.54-9.78v-24.48l-3.6.12a17.29,17.29,0,0,0-7,1.44,19.91,19.91,0,0,0-3.42,1.86,12.18,12.18,0,0,0-2.34,2.22,102.12,102.12,0,0,0-7.8,12q-3.84,6.48-9.6,18.72H695q10.44-19.56,13.08-24.24,3.84-6.72,6.24-10.08a29.2,29.2,0,0,1,3.3-4.14q1.5-1.5,2.46-2.34l-21.84-31a6.34,6.34,0,0,0-1.68-1.74,3.8,3.8,0,0,0-1.92-.42,2.47,2.47,0,0,0-2.16,1.44l-7.44-5.28a11.46,11.46,0,0,1,4.44-4.08,11.23,11.23,0,0,1,5.16-1.44,13.34,13.34,0,0,1,5.94,1.38,11,11,0,0,1,4.38,3.66l23.52,33.36a31.76,31.76,0,0,1,4.8-1,44.92,44.92,0,0,1,6-.12v-36.36H749.4v70.44A5.43,5.43,0,0,0,750.36,1178Z"/><rect class="cls-2" x="721" y="606" width="6" height="367"/><path class="cls-2" d="M652,1173H116.54A43.59,43.59,0,0,1,73,1129.46V612h6v517.46A37.58,37.58,0,0,0,116.54,1167H652Z"/><circle class="cls-2" cx="724.5" cy="1050.5" r="13.5"/><circle class="cls-2" cx="736.5" cy="1032.5" r="11.5"/><circle class="cls-2" cx="713.5" cy="1032.5" r="11.5"/><path class="cls-2" d="M710.45,1011h29.1A21.26,21.26,0,0,0,728,1029.91V1039h-6v-9.09A21.26,21.26,0,0,0,710.45,1011Z"/><circle class="cls-2" cx="471" cy="1019" r="122"/><circle class="cls-2" cx="576" cy="857" r="105"/><circle class="cls-2" cx="366" cy="857" r="105"/><path class="cls-2" d="M382.66,709.46C366.48,689.68,380.53,660,406.09,660H603.83l-.21.11A193.12,193.12,0,0,0,498,832.27V914H443V831.85C443,792.22,411.35,744.53,382.66,709.46Z"/><path class="cls-1" d="M259.54,679,357,684l21,17,12,14h22a27.06,27.06,0,0,1,26.23,20.38L462,828.53,462.28,983H246.75Z"/><path class="cls-3" d="M462.25,905H431a25.43,25.43,0,0,1-21-11.14l-10.54-15.51,15.83-58.08A9.71,9.71,0,0,0,405.91,808H392V717l12-15,12-6,15,1,8-3,11,4,18-1a35.7,35.7,0,0,0-6,19.8Z"/><path class="cls-4" d="M384,905H345.66a28.41,28.41,0,0,1-23.52-12.45l5-3.37A22.43,22.43,0,0,0,345.66,899H384Z"/><path class="cls-4" d="M467,905H429.21a28.4,28.4,0,0,1-23.52-12.45l5-3.37A22.42,22.42,0,0,0,429.21,899H467Z"/><polygon class="cls-3" points="330 695.82 330 684.83 392 593.98 392 713.33 380.49 701.83 356 694.82 349 696.82 337 694.82 334 696.82 330 695.82"/><path class="cls-4" d="M376.33,760h27.83A10.84,10.84,0,0,1,415,770.84V771H367.4Z"/><polygon class="cls-1" points="326.61 857 359.11 857 367.77 870 334.19 870 326.61 857"/><polygon class="cls-1" points="418 855 439.42 855 447.99 870 421.21 873.21 418 867.85 418 855"/><path class="cls-4" d="M414.18,868h36.3l12.1,11H423.79a11.5,11.5,0,0,1-8.65-3.93l-12-13.67Z"/><path class="cls-4" d="M420.64,849h13.8a10.83,10.83,0,0,1,9.7,6H414.59A6.05,6.05,0,0,1,420.64,849Z"/><path class="cls-4" d="M431,849h19a0,0,0,0,1,0,0v19a0,0,0,0,1,0,0H440a9,9,0,0,1-9-9V849A0,0,0,0,1,431,849Z" transform="translate(881 1717) rotate(180)"/><polygon class="cls-1" points="340 855 361.42 855 369.99 870 343.21 873.21 340 867.85 340 855"/><path class="cls-4" d="M337.09,868h35.2l12.1,11H345.6a11.5,11.5,0,0,1-8.65-3.93L325,861.4Z"/><path class="cls-4" d="M342.46,849h13.79a10.85,10.85,0,0,1,9.71,6H336.4A6.06,6.06,0,0,1,342.46,849Z"/><path class="cls-4" d="M353,849h19a0,0,0,0,1,0,0v19a0,0,0,0,1,0,0H362a9,9,0,0,1-9-9V849A0,0,0,0,1,353,849Z" transform="translate(725 1717) rotate(180)"/><path class="cls-3" d="M324,821.13a23.92,23.92,0,0,1,43.45,20Z"/><path class="cls-4" d="M415.68,874.37l-14-15.17,11.39-39A7.95,7.95,0,0,0,405.44,810H392v-6h13.44a13.94,13.94,0,0,1,13.38,17.84l-10.44,35.78,11.71,12.68Z"/><polygon class="cls-4" points="387.69 820.59 380.02 811 373 811 373 805 382.91 805 392.38 816.84 387.69 820.59"/><rect class="cls-4" x="330.3" y="855.86" width="6" height="18.95" transform="translate(-498.56 455.58) rotate(-42.71)"/><path class="cls-1" d="M293,955l-29.57-25A60.47,60.47,0,0,1,243,884.74V777.9a23.9,23.9,0,0,0-7-16.9c-4.48-4.48-19-7-19-7h52l11,137Z"/><path class="cls-4" d="M345.07,935.29,315.5,910.34a63.52,63.52,0,0,1-21.5-47.6V777.9A20.89,20.89,0,0,0,273.1,757H258v-6h15.1A26.9,26.9,0,0,1,300,777.9v84.84a57.49,57.49,0,0,0,19.42,43.06l29.51,24.91Z"/><path class="cls-4" d="M327.07,942.29,297.5,917.34a63.52,63.52,0,0,1-21.5-47.6V777.9A20.89,20.89,0,0,0,255.1,757H237v-6h18.1A26.9,26.9,0,0,1,282,777.9v91.84a57.49,57.49,0,0,0,19.42,43.06l29.51,24.91Z"/><path class="cls-4" d="M309.07,950.29,279.5,925.34a63.52,63.52,0,0,1-21.5-47.6V777.9A20.89,20.89,0,0,0,237.1,757H223v-6h14.1A26.9,26.9,0,0,1,264,777.9v99.84a57.49,57.49,0,0,0,19.42,43.06l29.51,24.91Z"/><path class="cls-4" d="M291.07,959.29,261.5,934.34a63.52,63.52,0,0,1-21.5-47.6V777.9A20.89,20.89,0,0,0,219.1,757H217v-6h2.1A26.9,26.9,0,0,1,246,777.9V886.74a57.49,57.49,0,0,0,19.42,43.06l29.51,24.91Z"/><path class="cls-4" d="M248.21,919H460.79A18.21,18.21,0,0,1,479,937.21V956a0,0,0,0,1,0,0H230a0,0,0,0,1,0,0V937.21A18.21,18.21,0,0,1,248.21,919Z" transform="translate(709 1875) rotate(180)"/><polygon class="cls-4" points="243.88 946 465.99 946 487.35 1046 222.53 1046 243.88 946"/><rect class="cls-1" x="225" y="953" width="256" height="6"/><polygon class="cls-4" points="429.91 1023 480.24 1023 455.07 1079.23 429.91 1023"/><polygon class="cls-4" points="363.15 1023 413.48 1023 388.32 1079.23 363.15 1023"/><polygon class="cls-4" points="296.39 1023 346.73 1023 321.56 1079.23 296.39 1023"/><polygon class="cls-4" points="229.63 1023 279.97 1023 254.8 1079.23 229.63 1023"/><circle class="cls-4" cx="455" cy="1079" r="11"/><circle class="cls-4" cx="388" cy="1079" r="11"/><circle class="cls-4" cx="321" cy="1079" r="11"/><circle class="cls-4" cx="254" cy="1079" r="11"/><path class="cls-1" d="M443,981a13,13,0,0,1-13-13V953h26v15A13,13,0,0,1,443,981Zm-7-22v9a7,7,0,0,0,14,0v-9Z"/><path class="cls-1" d="M399,981a13,13,0,0,1-13-13V953h26v15A13,13,0,0,1,399,981Zm-7-22v9a7,7,0,0,0,14,0v-9Z"/><path class="cls-1" d="M355,981a13,13,0,0,1-13-13V953h26v15A13,13,0,0,1,355,981Zm-7-22v9a7,7,0,0,0,14,0v-9Z"/><path class="cls-1" d="M267,981a13,13,0,0,1-13-13V953h26v15A13,13,0,0,1,267,981Zm-7-22v9a7,7,0,0,0,14,0v-9Z"/><path class="cls-1" d="M311,981a13,13,0,0,1-13-13V953h26v15A13,13,0,0,1,311,981Zm-7-22v9a7,7,0,0,0,14,0v-9Z"/><rect class="cls-1" x="220" y="1028" width="268" height="6"/><circle class="cls-4" cx="564.5" cy="731.5" r="76.5"/><path class="cls-1" d="M562.83,697.4l8.19,6,16.76-1.93s5.3,3.89,14.18-.08l-4-8.94a17.61,17.61,0,0,0,23.27,8.89l-5.59-12.5a17.62,17.62,0,0,0,23.28,8.89l-34.09-76.24a32,32,0,0,0-42.25-16.14L537.35,616.6a56.94,56.94,0,0,0-32.6,40.89l32.38-15.64,8.6,20.53Z"/><path class="cls-2" d="M614.06,705.86a20.77,20.77,0,0,1-7.37-1.37,20.5,20.5,0,0,1-11.46-10.84l-22.77-50.93,5.48-2.45,22.77,50.93a14.62,14.62,0,0,0,16.45,8.32l-23.07-51.6,5.47-2.45,25.65,57.36-2.74,1.22A20.47,20.47,0,0,1,614.06,705.86Z"/><path class="cls-2" d="M594.8,705.89A20.65,20.65,0,0,1,576,693.69l-19.57-43.78,5.48-2.45,19.57,43.78a14.64,14.64,0,0,0,16.45,8.32l-19.74-44.14,5.48-2.45,22.31,49.9-2.74,1.23A20.66,20.66,0,0,1,594.8,705.89Z"/><path class="cls-2" d="M575.53,705.93a20.67,20.67,0,0,1-18.86-12.2L536.9,649.35l5.48-2.44,19.77,44.38a14.65,14.65,0,0,0,16.45,8.31l-17.83-39.86,5.48-2.45,20.4,45.62-2.74,1.23A20.45,20.45,0,0,1,575.53,705.93Z"/><path class="cls-2" d="M631.74,702.24A20.64,20.64,0,0,1,612.91,690l-24.36-54.5,5.47-2.45,24.37,54.5a14.63,14.63,0,0,0,16.47,8.32l-27.74-63.18a29,29,0,0,0-38.28-14.61l-2.45-5.48a35,35,0,0,1,46.22,17.66l30.26,68.93-2.72,1.22A20.62,20.62,0,0,1,631.74,702.24Z"/><rect class="cls-2" x="545.99" y="617.49" width="22.48" height="6" transform="translate(-218.66 314.71) rotate(-26.57)"/><path class="cls-4" d="M584.39,872H545.61l.44-.22a26.7,26.7,0,0,0,15-24V844h8v3.8a26.7,26.7,0,0,0,15,24Z"/><path class="cls-4" d="M545.61,804h38.78l-.27.13A26.72,26.72,0,0,0,569,828.2V844h-8V828.2a26.72,26.72,0,0,0-15.12-24.07Z"/><path class="cls-4" d="M593,824.61v38.78l-.22-.44a26.7,26.7,0,0,0-24-15H565v-8h3.8a26.7,26.7,0,0,0,24-15Z"/><path class="cls-4" d="M537,863.39V824.61l.22.44a26.7,26.7,0,0,0,24,15H565v8h-3.8a26.7,26.7,0,0,0-24,15Z"/><rect class="cls-4" x="552" y="825" width="25" height="6"/><rect class="cls-1" x="536" y="805" width="59" height="6"/><rect class="cls-2" x="482" y="732" width="171" height="6"/><path class="cls-2" d="M595,787l-21-4.49V770.1a37.73,37.73,0,0,1,17.23-31.75l9.27-6,3.27,5-9.27,6A31.75,31.75,0,0,0,580,770.1v7.56l14.22,3,11.86-5.64A21,21,0,0,0,618,756.21v-4.59l24.31,10.63-2.4,5.5-16.28-7.12a27,27,0,0,1-15,19.85Z"/><path class="cls-2" d="M534,787l-13.7-6.52a27,27,0,0,1-15-19.85l-16.28,7.12-2.4-5.5L511,751.62v4.59a21,21,0,0,0,11.9,18.85l11.86,5.64,14.22-3V770.1a31.75,31.75,0,0,0-14.5-26.72l-9.27-6,3.27-5,9.27,6A37.73,37.73,0,0,1,555,770.1v12.41Z"/><path class="cls-4" d="M395,751h-6V728.27A30.4,30.4,0,0,0,359.2,698a8.13,8.13,0,0,0-4.53,1.39l-3.34-5a14.14,14.14,0,0,1,7.92-2.41A36.44,36.44,0,0,1,395,728.27Z"/><path class="cls-4" d="M377,751h-6V728.27A30.4,30.4,0,0,0,341.2,698a8.16,8.16,0,0,0-5,1.75l-3.7-4.72a14.13,14.13,0,0,1,8.78-3A36.44,36.44,0,0,1,377,728.27Z"/><path class="cls-4" d="M358,751h-6V728.1A30.21,30.21,0,0,0,322.38,698a8.25,8.25,0,0,0-8.38,8.24h-6A14.24,14.24,0,0,1,322.47,692,36.24,36.24,0,0,1,358,728.1Z"/><path class="cls-4" d="M340,751h-6V728.27a30.22,30.22,0,0,0-20.65-28.7l1.9-5.69A36.22,36.22,0,0,1,340,728.27Z"/><path class="cls-4" d="M395,751h-6V728.27A36.43,36.43,0,0,1,424.7,692a14.26,14.26,0,0,1,8,2.41l-3.34,5a8.18,8.18,0,0,0-4.58-1.39A30.39,30.39,0,0,0,395,728.27Z"/><path class="cls-4" d="M413,751h-6V728.27A36.43,36.43,0,0,1,442.7,692a14.14,14.14,0,0,1,8.83,3l-3.7,4.72a8.19,8.19,0,0,0-5.08-1.75A30.39,30.39,0,0,0,413,728.27Z"/><path class="cls-4" d="M432,751h-6V728.1A36.24,36.24,0,0,1,461.53,692,14.24,14.24,0,0,1,476,706.26h-6a8.17,8.17,0,0,0-2.46-5.87,8,8,0,0,0-5.91-2.37A30.21,30.21,0,0,0,432,728.1Z"/><path class="cls-4" d="M450,751h-6V728.27a36.22,36.22,0,0,1,24.75-34.39l1.9,5.69A30.22,30.22,0,0,0,450,728.27Z"/><path class="cls-4" d="M418.74,793h-54a31,31,0,0,1-31-31h6a25,25,0,0,0,25,25h54a25,25,0,0,0,25-25h6A31,31,0,0,1,418.74,793Z"/><rect class="cls-4" x="120.03" y="607" width="559.95" height="6" transform="translate(-184.85 174.06) rotate(-20.05)"/><circle class="cls-1" cx="400" cy="610" r="68"/><circle class="cls-4" cx="400" cy="610" r="57.12"/><circle class="cls-1" cx="400" cy="592.71" r="18.21"/><circle class="cls-1" cx="384.53" cy="616.37" r="15.47"/><circle class="cls-1" cx="415.47" cy="616.37" r="15.47"/><path class="cls-1" d="M419.41,645.5H379.68A28.56,28.56,0,0,0,395.45,620V608.18h8.19V620A28.57,28.57,0,0,0,419.4,645.5Z"/></g></svg>