<svg xmlns="http://www.w3.org/2000/svg" viewBox="0 0 800 1218"><defs><style>.cls-1{fill:#f2f0eb;}.cls-2{fill:#f4622f;}.cls-3{fill:#27282b;}.cls-4{fill:#d39c53;}</style></defs><title>Kd</title><g id="Layer_2" data-name="Layer 2"><rect class="cls-1" width="800" height="1218"/></g><g id="Layer_1" data-name="Layer 1"><path class="cls-2" d="M344.38,96l-6.47-16.62L331.45,96a500.68,500.68,0,0,1-209,247.86,500.68,500.68,0,0,1,209,247.86l6.46,16.62,6.47-16.62a500.53,500.53,0,0,1,209-247.86A500.71,500.71,0,0,1,344.38,96Z"/><path class="cls-2" d="M135.68,629.06l-5.92-1,4.67-27.62a50,50,0,0,1,18.66-31.67l39.68-31a20,20,0,0,1,28.07,3.45l37.94,48.56a11.5,11.5,0,0,1-18.12,14.16l-28.09-36,4.73-3.7,28.08,36a5.5,5.5,0,0,0,8.67-6.77l-37.93-48.56a14,14,0,0,0-19.66-2.41l-39.68,31a44,44,0,0,0-16.43,27.91Z"/><path class="cls-2" d="M237.94,620.88a11.47,11.47,0,0,1-9.07-4.42L200.4,580l4.73-3.7,28.47,36.44a5.5,5.5,0,0,0,9.79-2.72,5.41,5.41,0,0,0-1.13-4L221.8,579.81l4.73-3.7L247,602.3a11.5,11.5,0,0,1-9.05,18.58Z"/><path class="cls-2" d="M224.55,631.34a11.48,11.48,0,0,1-9.08-4.41L187,590.49l4.73-3.69,28.46,36.43a5.5,5.5,0,0,0,7.72.95,5.51,5.51,0,0,0,1-7.72L209,591.06l4.73-3.69,19.85,25.4a11.49,11.49,0,0,1-9,18.57Z"/><path class="cls-2" d="M211.15,641.81a11.51,11.51,0,0,1-9.08-4.42L173.61,601l4.73-3.69L206.8,633.7a5.51,5.51,0,0,0,9.8-2.72,5.44,5.44,0,0,0-1.13-4.05l-21.69-27.77,4.73-3.69,21.69,27.76a11.49,11.49,0,0,1-9,18.58Z"/><path class="cls-1" d="M252.83,530.19l27.09,34.67,6.15-6.14A1028.94,1028.94,0,0,1,612.77,339L679,311l-67.69,16.31A749.19,749.19,0,0,0,252.83,530.19Z"/><path class="cls-2" d="M302.85,546.49l-4.15-4.33A1028.09,1028.09,0,0,1,611.6,336.21L644,322.52l-32,7.71A745.46,745.46,0,0,0,255,532.29l-4.28-4.21A751.42,751.42,0,0,1,610.61,324.4l67.69-16.32a3,3,0,0,1,1.87,5.68l-66.24,28A1022.3,1022.3,0,0,0,302.85,546.49Z"/><path class="cls-3" d="M281.5,604.24l-3.7-4.73,5.36-4.19a13.2,13.2,0,0,0,2.28-18.53l-42.24-54a13.2,13.2,0,0,0-18.53-2.28l-5.35,4.19-3.7-4.73,5.36-4.19a19.19,19.19,0,0,1,27,3.31l42.24,54.06a19.21,19.21,0,0,1-3.32,26.95Z"/><rect class="cls-2" x="167.1" y="647.48" width="29.17" height="6" transform="translate(-473.21 485.41) rotate(-60.25)"/><path class="cls-2" d="M76.66,154.7,76,153l-.66,1.7A51.14,51.14,0,0,1,54,180a51.14,51.14,0,0,1,21.34,25.3L76,207l.66-1.7A51.14,51.14,0,0,1,98,180,51.14,51.14,0,0,1,76.66,154.7Z"/><path class="cls-2" d="M49.38,38.83a3.4,3.4,0,0,0-3-1.38,4.63,4.63,0,0,0-4.2,2l-6.6-4.92a11.23,11.23,0,0,1,4-4.26,12.72,12.72,0,0,1,7.14-1.86q6.36,0,9.9,3.78A13.73,13.73,0,0,1,60.18,42V66.49l3.6-.12a17.29,17.29,0,0,0,7-1.44,19.91,19.91,0,0,0,3.42-1.86,12.18,12.18,0,0,0,2.34-2.22,102.12,102.12,0,0,0,7.8-12q3.84-6.48,9.6-18.72h10.8Q94.26,49.69,91.62,54.37q-3.84,6.72-6.24,10.08a29.2,29.2,0,0,1-3.3,4.14q-1.5,1.5-2.46,2.34l21.84,31a6.34,6.34,0,0,0,1.68,1.74,3.8,3.8,0,0,0,1.92.42,2.47,2.47,0,0,0,2.16-1.44l7.44,5.28a11.46,11.46,0,0,1-4.44,4.08,11.23,11.23,0,0,1-5.16,1.44A13.34,13.34,0,0,1,99.12,112a11,11,0,0,1-4.38-3.66L71.22,75a31.76,31.76,0,0,1-4.8,1,44.92,44.92,0,0,1-6,.12v36.36H50.34V42A5.43,5.43,0,0,0,49.38,38.83Z"/><rect class="cls-2" x="73" y="244" width="6" height="367"/><path class="cls-2" d="M727,605h-6V87.54A37.58,37.58,0,0,0,683.46,50H148V44H683.46A43.59,43.59,0,0,1,727,87.54Z"/><path class="cls-1" d="M535.81,501,408,532V501H388a27.06,27.06,0,0,1-26.23-20.38L338,387.47,337.72,233H548.61L547,315l11,70Z"/><path class="cls-4" d="M337.71,311H369a25.43,25.43,0,0,1,21,11.14l10.55,15.51L384.7,395.72A9.72,9.72,0,0,0,394.08,408H408V532H396l-16-4-21-6-21-32Z"/><path class="cls-3" d="M472.64,326.82A22.43,22.43,0,0,0,454.08,317H416v-6h38.08a28.41,28.41,0,0,1,23.52,12.45Z"/><path class="cls-3" d="M389.09,326.82A22.42,22.42,0,0,0,370.53,317H333v-6h37.53a28.4,28.4,0,0,1,23.52,12.45Z"/><polygon class="cls-4" points="470 513.45 470 530.99 408 621.84 408 532 420 531 436 528 457 522 470 513.45"/><path class="cls-3" d="M423.63,456H395.8A10.84,10.84,0,0,1,385,445.16V445h47.61Z"/><polygon class="cls-1" points="473.13 359 440.63 359 431.97 346 465.55 346 473.13 359"/><polygon class="cls-1" points="382 361 360.58 361 352.01 346 378.79 342.79 382 348.15 382 361"/><path class="cls-3" d="M385.56,348h-36.3l-12.1-11H376a11.5,11.5,0,0,1,8.65,3.93l12,13.67Z"/><path class="cls-3" d="M379.1,367H365.3a10.83,10.83,0,0,1-9.7-6h29.55A6.05,6.05,0,0,1,379.1,367Z"/><path class="cls-3" d="M350,348h19a0,0,0,0,1,0,0v19a0,0,0,0,1,0,0H359a9,9,0,0,1-9-9V348A0,0,0,0,1,350,348Z"/><polygon class="cls-1" points="460 361 438.58 361 430.01 346 456.79 342.79 460 348.15 460 361"/><path class="cls-3" d="M462.65,348h-35.2l-12.1-11h38.79a11.5,11.5,0,0,1,8.65,3.93l12,13.67Z"/><path class="cls-3" d="M457.28,367H443.49a10.83,10.83,0,0,1-9.7-6h29.55A6.06,6.06,0,0,1,457.28,367Z"/><path class="cls-3" d="M428,348h19a0,0,0,0,1,0,0v19a0,0,0,0,1,0,0H437a9,9,0,0,1-9-9V348A0,0,0,0,1,428,348Z"/><path class="cls-4" d="M475.73,394.68a23.92,23.92,0,1,1-43.45-20Z"/><path class="cls-3" d="M408,412H394.3a13.95,13.95,0,0,1-13.38-17.85l10.44-35.77L379.65,345.7l4.41-4.07,14,15.17-11.39,39A7.95,7.95,0,0,0,394.3,406H408Z"/><polygon class="cls-3" points="427 411 416.83 411 407.36 399.16 412.05 395.42 419.72 405 427 405 427 411"/><rect class="cls-3" x="463.44" y="341" width="6" height="18.95" transform="matrix(0.73, -0.68, 0.68, 0.73, -114.02, 409.33)"/><path class="cls-3" d="M444,453a3,3,0,0,1-2-.78L431.84,443H385v-6h48a3,3,0,0,1,2,.78l6,5.44v-9l-16.62-16.62,4.24-4.24,17.5,17.5A3,3,0,0,1,447,433v17a3,3,0,0,1-1.79,2.74A2.87,2.87,0,0,1,444,453Z"/><rect class="cls-3" x="120.03" y="605" width="559.95" height="6" transform="translate(-184.17 173.94) rotate(-20.05)"/><circle class="cls-1" cx="400" cy="608" r="68"/><circle class="cls-3" cx="400" cy="608" r="57.12"/><path class="cls-1" d="M400.86,575l-.86-2.21-.86,2.21a66.53,66.53,0,0,1-27.8,33,66.53,66.53,0,0,1,27.8,33l.86,2.21.86-2.21a66.53,66.53,0,0,1,27.8-33A66.53,66.53,0,0,1,400.86,575Z"/><path class="cls-3" d="M514.85,408h-9.26a3,3,0,0,1-2.9-2.21l-4-14.56,5.79-1.57L507.88,402h7c3.35,0,5-1.56,6.53-2.94a10.65,10.65,0,0,1,2.23-1.72l2.78,5.32a9.29,9.29,0,0,0-.93.81A14.52,14.52,0,0,1,514.85,408Z"/><path class="cls-3" d="M393.13,532.86l-2.33-7.77a89.84,89.84,0,0,1-3.8-25.86V462h6v37.23a84,84,0,0,0,3.54,24.14l2.33,7.77Z"/><path class="cls-3" d="M377.32,529.34l-2.26-4.51A57.77,57.77,0,0,1,369,499.16V462h6v37.16a51.7,51.7,0,0,0,5.43,23l2.25,4.51Z"/><path class="cls-3" d="M356.32,523.34A50.56,50.56,0,0,1,351,500.82V462h6v38.82a44.65,44.65,0,0,0,4.68,19.84Z"/><path class="cls-3" d="M422.87,532.86l-5.74-1.72,2.33-7.77A84,84,0,0,0,423,499.23V462h6v37.23a89.84,89.84,0,0,1-3.8,25.86Z"/><path class="cls-3" d="M438.68,529.34l-5.36-2.68,2.25-4.51a51.7,51.7,0,0,0,5.43-23V462h6v37.16a57.77,57.77,0,0,1-6.06,25.67Z"/><path class="cls-3" d="M459.68,523.34l-5.36-2.68A44.65,44.65,0,0,0,459,500.82V462h6v38.82A50.56,50.56,0,0,1,459.68,523.34Z"/><rect class="cls-3" x="405" y="462" width="6" height="70"/><path class="cls-3" d="M375,450h-6V432a3,3,0,0,1,.88-2.12l16-16,4.24,4.24L375,433.24Z"/><path class="cls-1" d="M508.14,196.13l.05-2.41-1.67,1.74a67.67,67.67,0,0,1-39,20.18,67.76,67.76,0,0,1,13.31,41.82l-.05,2.41,1.67-1.74a67.73,67.73,0,0,1,39-20.18A67.76,67.76,0,0,1,508.14,196.13Z"/><path class="cls-3" d="M551.83,432.08l-32.74-34.15a94.45,94.45,0,0,1-24.18-50.58L488,300.44l5.94-.88,6.88,46.92a88.5,88.5,0,0,0,22.61,47.34l32.71,34.1Z"/><path class="cls-3" d="M564.76,429,537,397.85a94.34,94.34,0,0,1-24.11-50.5L506,300.44l5.94-.88,6.88,46.92a88.5,88.5,0,0,0,22.61,47.34L569.24,425Z"/><rect class="cls-3" x="531" y="299.5" width="6" height="98.99" transform="translate(-43.99 79.03) rotate(-8.13)"/><rect class="cls-3" x="551" y="299.34" width="6" height="123.32" transform="matrix(0.99, -0.15, 0.15, 0.99, -46.76, 84.73)"/><rect class="cls-3" x="527.5" y="398.61" width="6" height="78.77" transform="translate(-55.97 78.37) rotate(-8.03)"/><rect class="cls-3" x="543" y="418.79" width="6" height="43.42" transform="translate(-55.64 79.68) rotate(-7.94)"/><path class="cls-3" d="M332.69,191.54l24.89-37.9a143.52,143.52,0,0,1,104-63.87A87.33,87.33,0,0,1,552,143.07l27.83,67Z"/><path class="cls-3" d="M332.33,302l221.39-2,32.41-28.94c26.76-23.88,28.13-65.83,2.11-90.5a62.41,62.41,0,0,0-23.61-14,163.55,163.55,0,0,0-122.34,8.27L305,241.45Z"/><path class="cls-3" d="M332.33,300l-38.58-69a40.88,40.88,0,0,1,23.72-51.73,86.51,86.51,0,0,1,85.95,13.52l98.37,80Z"/><path class="cls-1" d="M315.66,244.12,313,238.77l124.49-63.12c41.47-20.13,97.58-25.26,136.49-12.5l-1.86,5.7c-37.56-12.31-91.82-7.31-132,12.17Z"/><rect class="cls-1" x="377.56" y="163.98" width="6" height="44.42" transform="translate(15.01 400.35) rotate(-56.44)"/><rect class="cls-1" x="312.65" y="278.34" width="277.47" height="6"/><path class="cls-1" d="M520.94,199.7l-.85-2.21-.86,2.21a66.63,66.63,0,0,1-27.8,33,66.63,66.63,0,0,1,27.8,33l.86,2.21.85-2.21a66.63,66.63,0,0,1,27.8-33A66.63,66.63,0,0,1,520.94,199.7Z"/><path class="cls-2" d="M455.17,1120l6.46,16.62,6.46-16.62a500.73,500.73,0,0,1,209-247.86,500.73,500.73,0,0,1-209-247.86l-6.46-16.62-6.46,16.62a501.36,501.36,0,0,1-29,61.68A500.72,500.72,0,0,1,246.13,872.1,500.73,500.73,0,0,1,455.17,1120Z"/><path class="cls-2" d="M594.48,682.39a20,20,0,0,1-15.78-7.68l-37.93-48.56A11.5,11.5,0,0,1,558.89,612l28.09,36-4.73,3.7-28.09-35.95a5.48,5.48,0,0,0-7.72-1,5.51,5.51,0,0,0-1,7.72L583.43,671a14,14,0,0,0,19.65,2.41l39.69-31a44,44,0,0,0,16.43-27.91l4.67-27.65,5.92,1-4.67,27.62a50,50,0,0,1-18.66,31.66l-39.68,31A19.92,19.92,0,0,1,594.48,682.39Z"/><path class="cls-2" d="M573,639.82l-20.46-26.19a11.5,11.5,0,1,1,18.13-14.16l28.46,36.43-4.73,3.69L566,603.16a5.5,5.5,0,0,0-8.67,6.77l20.46,26.19Z"/><path class="cls-2" d="M607.81,629.13,579.35,592.7a5.5,5.5,0,1,0-8.67,6.77l19.84,25.4-4.73,3.69L566,603.16A11.5,11.5,0,0,1,584.08,589l28.46,36.43Z"/><path class="cls-2" d="M601,620.46,579.35,592.7a11.5,11.5,0,1,1,18.12-14.16L625.93,615l-4.72,3.69-28.47-36.43a5.5,5.5,0,1,0-8.66,6.77l21.69,27.77Z"/><path class="cls-1" d="M546.71,685.74l-27.08-34.67-6.16,6.14A1028.79,1028.79,0,0,1,186.78,877l-66.23,28,67.68-16.31A749.22,749.22,0,0,0,546.71,685.74Z"/><path class="cls-2" d="M120.54,907.93a3,3,0,0,1-1.16-5.76l66.23-28A1022.19,1022.19,0,0,0,496.7,669.43l4.15,4.33a1027.93,1027.93,0,0,1-312.9,206l-32.42,13.69,32-7.71a745.41,745.41,0,0,0,357-202.06,3,3,0,1,1,4.28,4.21A751.47,751.47,0,0,1,188.94,891.53l-67.69,16.32A3.43,3.43,0,0,1,120.54,907.93Z"/><path class="cls-3" d="M566.78,704.27a19.33,19.33,0,0,1-15.17-7.38l-42.23-54.06a19.22,19.22,0,0,1,3.31-27l5.36-4.19,3.69,4.73-5.36,4.19a13.22,13.22,0,0,0-2.27,18.53l42.23,54.05a13.21,13.21,0,0,0,18.53,2.28l5.36-4.19,3.69,4.73-5.36,4.19A19,19,0,0,1,566.78,704.27Z"/><rect class="cls-2" x="603.28" y="562.45" width="29.17" height="6" transform="translate(-179.67 821.25) rotate(-60.25)"/><path class="cls-2" d="M722.89,1061.23l.66,1.7.66-1.7a51,51,0,0,1,21.34-25.3,51.09,51.09,0,0,1-21.34-25.3l-.66-1.7-.66,1.7a51.14,51.14,0,0,1-21.34,25.3A51.1,51.1,0,0,1,722.89,1061.23Z"/><path class="cls-2" d="M750.17,1177.1a3.4,3.4,0,0,0,3,1.38,4.63,4.63,0,0,0,4.2-2l6.6,4.92a11.23,11.23,0,0,1-4,4.26,12.72,12.72,0,0,1-7.14,1.86q-6.36,0-9.9-3.78a13.73,13.73,0,0,1-3.54-9.78v-24.48l-3.6.12a17.29,17.29,0,0,0-7,1.44,19.91,19.91,0,0,0-3.42,1.86,12.18,12.18,0,0,0-2.34,2.22,102.12,102.12,0,0,0-7.8,12q-3.84,6.48-9.6,18.72h-10.8q10.44-19.56,13.08-24.24,3.84-6.72,6.24-10.08a29.2,29.2,0,0,1,3.3-4.14q1.5-1.5,2.46-2.34l-21.84-31a6.34,6.34,0,0,0-1.68-1.74,3.8,3.8,0,0,0-1.92-.42,2.47,2.47,0,0,0-2.16,1.44l-7.44-5.28a11.46,11.46,0,0,1,4.44-4.08,11.23,11.23,0,0,1,5.16-1.44,13.34,13.34,0,0,1,5.94,1.38,11,11,0,0,1,4.38,3.66l23.52,33.36a31.76,31.76,0,0,1,4.8-1,44.92,44.92,0,0,1,6-.12v-36.36h10.08v70.44A5.43,5.43,0,0,0,750.17,1177.1Z"/><rect class="cls-2" x="721" y="605" width="6" height="367"/><path class="cls-2" d="M652,1172H116.54A43.59,43.59,0,0,1,73,1128.46V611h6v517.46A37.58,37.58,0,0,0,116.54,1166H652Z"/><path class="cls-1" d="M264.19,715,392,684v31h20a27.06,27.06,0,0,1,26.23,20.38L462,828.53,462.28,983H251.39L253,901l-11-70Z"/><path class="cls-4" d="M462.27,905H431.05a25.43,25.43,0,0,1-21-11.14l-10.55-15.51,15.84-58.07A9.72,9.72,0,0,0,405.92,808H392V684h12l16,4,21,6,21,32Z"/><path class="cls-3" d="M384,905H345.47A28.4,28.4,0,0,1,322,892.55l5-3.37A22.42,22.42,0,0,0,345.47,899H384Z"/><path class="cls-3" d="M467,905H429a28.41,28.41,0,0,1-23.52-12.45l5-3.37A22.4,22.4,0,0,0,429,899h38Z"/><polygon class="cls-4" points="330 702.48 330 684.94 392 594.09 392 683.93 380 684.93 364 687.93 343 693.93 330 702.48"/><path class="cls-3" d="M376.33,760h27.83A10.84,10.84,0,0,1,415,770.84V771H367.4Z"/><polygon class="cls-1" points="326.41 857 358.91 857 367.58 870 334 870 326.41 857"/><polygon class="cls-1" points="418 855 439.42 855 447.99 870 421.21 873.21 418 867.85 418 855"/><path class="cls-3" d="M414,868h36.3l12.1,11H423.6a11.48,11.48,0,0,1-8.65-3.93L403,861.4Z"/><path class="cls-3" d="M420.45,849h13.79a10.85,10.85,0,0,1,9.71,6H414.39A6.06,6.06,0,0,1,420.45,849Z"/><path class="cls-3" d="M431,849h19a0,0,0,0,1,0,0v19a0,0,0,0,1,0,0H440a9,9,0,0,1-9-9V849A0,0,0,0,1,431,849Z" transform="translate(881 1717) rotate(180)"/><polygon class="cls-1" points="340 855 361.42 855 369.99 870 343.21 873.21 340 867.85 340 855"/><path class="cls-3" d="M336.89,868h35.2l12.1,11H345.41a11.48,11.48,0,0,1-8.65-3.93l-12-13.67Z"/><path class="cls-3" d="M342.26,849h13.79a10.85,10.85,0,0,1,9.71,6H336.2A6.07,6.07,0,0,1,342.26,849Z"/><path class="cls-3" d="M353,849h19a0,0,0,0,1,0,0v19a0,0,0,0,1,0,0H362a9,9,0,0,1-9-9V849A0,0,0,0,1,353,849Z" transform="translate(725 1717) rotate(180)"/><path class="cls-4" d="M323.81,821.25a23.92,23.92,0,1,1,43.45,20Z"/><path class="cls-3" d="M415.48,874.37l-14-15.17,11.39-39A8,8,0,0,0,405.24,810H392v-6h13.24a14,14,0,0,1,13.39,17.85l-10.44,35.77,11.7,12.68Z"/><polygon class="cls-3" points="387.5 820.59 379.83 811 373 811 373 805 382.71 805 392.18 816.84 387.5 820.59"/><rect class="cls-3" x="330.11" y="855.98" width="6" height="18.95" transform="translate(-498.69 455.48) rotate(-42.71)"/><path class="cls-3" d="M371.38,802.62l-17.5-17.5A3,3,0,0,1,353,783V766a3,3,0,0,1,5-2.22L368.16,773H415v6H367a3,3,0,0,1-2-.78l-6-5.44v9l16.62,16.62Z"/><rect class="cls-3" x="119.57" y="604.93" width="559.95" height="6" transform="translate(-184.17 173.78) rotate(-20.05)"/><circle class="cls-1" cx="400" cy="608" r="68"/><circle class="cls-3" cx="399.55" cy="607.93" r="57.12"/><path class="cls-1" d="M398.69,640.89l.86,2.21.86-2.21a66.56,66.56,0,0,1,27.79-33,66.56,66.56,0,0,1-27.79-33l-.86-2.21-.86,2.21a66.63,66.63,0,0,1-27.8,33A66.63,66.63,0,0,1,398.69,640.89Z"/><path class="cls-3" d="M295,826.34,291.67,814h-7c-3.36,0-5.05,1.56-6.54,2.94a10.4,10.4,0,0,1-2.23,1.72l-2.77-5.32a12.29,12.29,0,0,0,.93-.81A14.52,14.52,0,0,1,284.7,808H294a3,3,0,0,1,2.89,2.21l4,14.56Z"/><path class="cls-3" d="M413,754h-6V716.7a84,84,0,0,0-3.54-24.14l-2.33-7.77,5.74-1.72,2.33,7.77A89.84,89.84,0,0,1,413,716.7Z"/><path class="cls-3" d="M431,754h-6V716.77a51.67,51.67,0,0,0-5.43-23l-2.25-4.51,5.36-2.68,2.26,4.51A57.77,57.77,0,0,1,431,716.77Z"/><path class="cls-3" d="M449,754h-6V715.11a44.65,44.65,0,0,0-4.68-19.84l5.36-2.68A50.56,50.56,0,0,1,449,715.11Z"/><path class="cls-3" d="M377,754h-6V716.7a90,90,0,0,1,3.8-25.87l2.33-7.76,5.74,1.72-2.33,7.77A84,84,0,0,0,377,716.7Z"/><path class="cls-3" d="M359,754h-6V716.77a57.77,57.77,0,0,1,6.06-25.67l2.26-4.51,5.36,2.68-2.25,4.51a51.67,51.67,0,0,0-5.43,23Z"/><path class="cls-3" d="M341,754h-6V715.11a50.56,50.56,0,0,1,5.32-22.52l5.36,2.68A44.65,44.65,0,0,0,341,715.11Z"/><rect class="cls-3" x="389" y="684" width="6" height="70"/><path class="cls-3" d="M414.12,802.05l-4.24-4.24L425,782.69V766h6v17.93a3,3,0,0,1-.88,2.12Z"/><path class="cls-1" d="M291.41,1019.8l-.05,2.41,1.67-1.74a67.67,67.67,0,0,1,39-20.18,67.77,67.77,0,0,1-13.32-41.82l.05-2.41-1.66,1.74a67.79,67.79,0,0,1-39,20.18A67.82,67.82,0,0,1,291.41,1019.8Z"/><path class="cls-3" d="M305.58,916.37l-6.88-46.92a88.44,88.44,0,0,0-22.62-47.34L243.38,788l4.33-4.16L280.45,818a94.37,94.37,0,0,1,24.18,50.58l6.88,46.91Z"/><path class="cls-3" d="M287.58,916.37l-6.88-46.92a88.44,88.44,0,0,0-22.62-47.34l-27.77-31.19,4.48-4,27.74,31.15a94.32,94.32,0,0,1,24.1,50.5l6.88,46.91Z"/><rect class="cls-3" x="262.55" y="817.43" width="6" height="98.99" transform="translate(-119.93 46.27) rotate(-8.13)"/><rect class="cls-3" x="242.55" y="793.27" width="6" height="123.32" transform="matrix(0.99, -0.15, 0.15, 0.99, -122.16, 45)"/><rect class="cls-3" x="266.05" y="738.54" width="6" height="78.77" transform="translate(-106 45.19) rotate(-8.03)"/><rect class="cls-3" x="250.55" y="753.72" width="6" height="43.42" transform="translate(-104.73 42.48) rotate(-7.94)"/><path class="cls-3" d="M466.85,1024.39,442,1062.29a143.54,143.54,0,0,1-104,63.87,87.34,87.34,0,0,1-90.43-53.3l-27.82-67Z"/><path class="cls-3" d="M467.21,914l-221.38,2-32.42,28.94c-26.75,23.88-28.13,65.83-2.11,90.5a62.37,62.37,0,0,0,23.62,14,163.56,163.56,0,0,0,122.34-8.27l137.3-66.62Z"/><path class="cls-3" d="M467.21,915.9l38.59,69a40.88,40.88,0,0,1-23.73,51.73,86.49,86.49,0,0,1-85.94-13.52l-98.37-80Z"/><path class="cls-1" d="M273.9,1059.74c-17.36,0-34-2.27-48.29-7l1.87-5.7c37.55,12.31,91.82,7.31,132-12.17l124.44-63.1,2.72,5.35-124.49,63.12C335.88,1053,303.79,1059.74,273.9,1059.74Z"/><rect class="cls-1" x="415.99" y="1007.53" width="6" height="44.42" transform="translate(-670.7 809.53) rotate(-56.43)"/><rect class="cls-1" x="209" y="932" width="278" height="6"/><path class="cls-1" d="M278.6,1016.23l.86,2.21.86-2.21a66.53,66.53,0,0,1,27.8-33,66.53,66.53,0,0,1-27.8-33l-.86-2.21-.86,2.21a66.53,66.53,0,0,1-27.8,33A66.53,66.53,0,0,1,278.6,1016.23Z"/></g></svg>