<svg xmlns="http://www.w3.org/2000/svg" viewBox="0 0 800 1274"><defs><style>.cls-1{fill:#f2f0eb;}.cls-2{fill:#d8491d;}.cls-3{fill:#27282b;}.cls-4{fill:#d39c53;}</style></defs><title>Kd</title><g id="Layer_2" data-name="Layer 2"><rect class="cls-1" width="800" height="1274"/></g><g id="Layer_1" data-name="Layer 1"><path class="cls-2" d="M344.38,125l-6.47-16.62L331.45,125a500.68,500.68,0,0,1-209,247.86,500.68,500.68,0,0,1,209,247.86l6.46,16.62,6.47-16.62a500.53,500.53,0,0,1,209-247.86A500.71,500.71,0,0,1,344.38,125Z"/><path class="cls-2" d="M135.68,658.06l-5.92-1,4.67-27.62a50,50,0,0,1,18.66-31.67l39.68-31a20,20,0,0,1,28.07,3.45l37.94,48.56a11.5,11.5,0,0,1-18.12,14.16l-28.09-36,4.73-3.7,28.08,36a5.5,5.5,0,0,0,8.67-6.77l-37.93-48.56a14,14,0,0,0-19.66-2.41l-39.68,31a44,44,0,0,0-16.43,27.91Z"/><path class="cls-2" d="M237.94,649.88a11.47,11.47,0,0,1-9.07-4.42L200.4,609l4.73-3.7,28.47,36.44a5.5,5.5,0,0,0,9.79-2.72,5.41,5.41,0,0,0-1.13-4L221.8,608.81l4.73-3.7L247,631.3a11.5,11.5,0,0,1-9.05,18.58Z"/><path class="cls-2" d="M224.55,660.34a11.48,11.48,0,0,1-9.08-4.41L187,619.49l4.73-3.69,28.46,36.43a5.5,5.5,0,0,0,7.72.95,5.51,5.51,0,0,0,1-7.72L209,620.06l4.73-3.69,19.85,25.4a11.49,11.49,0,0,1-9,18.57Z"/><path class="cls-2" d="M211.15,670.81a11.51,11.51,0,0,1-9.08-4.42L173.61,630l4.73-3.69L206.8,662.7a5.51,5.51,0,0,0,9.8-2.72,5.44,5.44,0,0,0-1.13-4.05l-21.69-27.77,4.73-3.69,21.69,27.76a11.49,11.49,0,0,1-9,18.58Z"/><path class="cls-1" d="M252.83,559.19l27.09,34.67,6.15-6.14A1028.94,1028.94,0,0,1,612.77,368L679,340l-67.69,16.31A749.19,749.19,0,0,0,252.83,559.19Z"/><path class="cls-2" d="M302.85,575.49l-4.15-4.33A1028.09,1028.09,0,0,1,611.6,365.21L644,351.52l-32,7.71A745.46,745.46,0,0,0,255,561.29l-4.28-4.21A751.42,751.42,0,0,1,610.61,353.4l67.69-16.32a3,3,0,0,1,1.87,5.68l-66.24,28A1022.3,1022.3,0,0,0,302.85,575.49Z"/><path class="cls-3" d="M281.5,633.24l-3.7-4.73,5.36-4.19a13.2,13.2,0,0,0,2.28-18.53l-42.24-54a13.2,13.2,0,0,0-18.53-2.28l-5.35,4.19-3.7-4.73,5.36-4.19a19.19,19.19,0,0,1,27,3.31l42.24,54.06a19.21,19.21,0,0,1-3.32,26.95Z"/><rect class="cls-2" x="167.1" y="676.48" width="29.17" height="6" transform="translate(-498.38 500.01) rotate(-60.25)"/><path class="cls-2" d="M76.66,183.7,76,182l-.66,1.7A51.14,51.14,0,0,1,54,209a51.14,51.14,0,0,1,21.34,25.3L76,236l.66-1.7A51.14,51.14,0,0,1,98,209,51.14,51.14,0,0,1,76.66,183.7Z"/><path class="cls-2" d="M49.38,67.83a3.4,3.4,0,0,0-3-1.38,4.63,4.63,0,0,0-4.2,2l-6.6-4.92a11.23,11.23,0,0,1,4-4.26,12.72,12.72,0,0,1,7.14-1.86q6.36,0,9.9,3.78A13.73,13.73,0,0,1,60.18,71V95.49l3.6-.12a17.29,17.29,0,0,0,7-1.44,19.91,19.91,0,0,0,3.42-1.86,12.18,12.18,0,0,0,2.34-2.22,102.12,102.12,0,0,0,7.8-12q3.84-6.48,9.6-18.72h10.8Q94.26,78.69,91.62,83.37q-3.84,6.72-6.24,10.08a29.2,29.2,0,0,1-3.3,4.14q-1.5,1.5-2.46,2.34l21.84,31a6.34,6.34,0,0,0,1.68,1.74,3.8,3.8,0,0,0,1.92.42,2.47,2.47,0,0,0,2.16-1.44l7.44,5.28a11.46,11.46,0,0,1-4.44,4.08,11.23,11.23,0,0,1-5.16,1.44A13.34,13.34,0,0,1,99.12,141a11,11,0,0,1-4.38-3.66L71.22,104a31.76,31.76,0,0,1-4.8,1,44.92,44.92,0,0,1-6,.12v36.36H50.34V71A5.43,5.43,0,0,0,49.38,67.83Z"/><rect class="cls-2" x="73" y="273" width="6" height="367"/><path class="cls-2" d="M727,634h-6V116.54A37.58,37.58,0,0,0,683.46,79H148V73H683.46A43.59,43.59,0,0,1,727,116.54Z"/><path class="cls-1" d="M535.81,530,408,561V530H388a27.06,27.06,0,0,1-26.23-20.38L338,416.47,337.72,262H548.61L547,344l11,70Z"/><path class="cls-4" d="M337.71,340H369a25.43,25.43,0,0,1,21,11.14l10.55,15.51L384.7,424.72A9.72,9.72,0,0,0,394.08,437H408V561H396l-16-4-21-6-21-32Z"/><path class="cls-3" d="M472.64,355.82A22.43,22.43,0,0,0,454.08,346H416v-6h38.08a28.41,28.41,0,0,1,23.52,12.45Z"/><path class="cls-3" d="M389.09,355.82A22.42,22.42,0,0,0,370.53,346H333v-6h37.53a28.4,28.4,0,0,1,23.52,12.45Z"/><polygon class="cls-4" points="470 542.45 470 559.99 408 650.84 408 561 420 560 436 557 457 551 470 542.45"/><path class="cls-3" d="M423.63,485H395.8A10.84,10.84,0,0,1,385,474.16V474h47.61Z"/><polygon class="cls-1" points="473.13 388 440.63 388 431.97 375 465.55 375 473.13 388"/><polygon class="cls-1" points="382 390 360.58 390 352.01 375 378.79 371.79 382 377.15 382 390"/><path class="cls-3" d="M385.56,377h-36.3l-12.1-11H376a11.5,11.5,0,0,1,8.65,3.93l12,13.67Z"/><path class="cls-3" d="M379.1,396H365.3a10.83,10.83,0,0,1-9.7-6h29.55A6.05,6.05,0,0,1,379.1,396Z"/><path class="cls-3" d="M350,377h19a0,0,0,0,1,0,0v19a0,0,0,0,1,0,0H359a9,9,0,0,1-9-9V377A0,0,0,0,1,350,377Z"/><polygon class="cls-1" points="460 390 438.58 390 430.01 375 456.79 371.79 460 377.15 460 390"/><path class="cls-3" d="M462.65,377h-35.2l-12.1-11h38.79a11.5,11.5,0,0,1,8.65,3.93l12,13.67Z"/><path class="cls-3" d="M457.28,396H443.49a10.83,10.83,0,0,1-9.7-6h29.55A6.06,6.06,0,0,1,457.28,396Z"/><path class="cls-3" d="M428,377h19a0,0,0,0,1,0,0v19a0,0,0,0,1,0,0H437a9,9,0,0,1-9-9V377A0,0,0,0,1,428,377Z"/><path class="cls-4" d="M475.73,423.68a23.92,23.92,0,1,1-43.45-20Z"/><path class="cls-3" d="M408,441H394.3a13.95,13.95,0,0,1-13.38-17.85l10.44-35.77L379.65,374.7l4.41-4.07,14,15.17-11.39,39A7.95,7.95,0,0,0,394.3,435H408Z"/><polygon class="cls-3" points="427 440 416.83 440 407.36 428.16 412.05 424.42 419.72 434 427 434 427 440"/><rect class="cls-3" x="463.44" y="370" width="6" height="18.95" transform="matrix(0.73, -0.68, 0.68, 0.73, -133.69, 417.02)"/><path class="cls-3" d="M444,482a3,3,0,0,1-2-.78L431.84,472H385v-6h48a3,3,0,0,1,2,.78l6,5.44v-9l-16.62-16.62,4.24-4.24,17.5,17.5A3,3,0,0,1,447,462v17a3,3,0,0,1-1.79,2.74A2.87,2.87,0,0,1,444,482Z"/><rect class="cls-3" x="120.03" y="634" width="559.95" height="6" transform="translate(-194.11 175.69) rotate(-20.05)"/><circle class="cls-1" cx="400" cy="637" r="68"/><circle class="cls-3" cx="400" cy="637" r="57.12"/><path class="cls-1" d="M400.86,604l-.86-2.21-.86,2.21a66.53,66.53,0,0,1-27.8,33,66.53,66.53,0,0,1,27.8,33l.86,2.21.86-2.21a66.53,66.53,0,0,1,27.8-33A66.53,66.53,0,0,1,400.86,604Z"/><path class="cls-3" d="M514.85,437h-9.26a3,3,0,0,1-2.9-2.21l-4-14.56,5.79-1.57L507.88,431h7c3.35,0,5-1.56,6.53-2.94a10.65,10.65,0,0,1,2.23-1.72l2.78,5.32a9.29,9.29,0,0,0-.93.81A14.52,14.52,0,0,1,514.85,437Z"/><path class="cls-3" d="M393.13,561.86l-2.33-7.77a89.84,89.84,0,0,1-3.8-25.86V491h6v37.23a84,84,0,0,0,3.54,24.14l2.33,7.77Z"/><path class="cls-3" d="M377.32,558.34l-2.26-4.51A57.77,57.77,0,0,1,369,528.16V491h6v37.16a51.7,51.7,0,0,0,5.43,23l2.25,4.51Z"/><path class="cls-3" d="M356.32,552.34A50.56,50.56,0,0,1,351,529.82V491h6v38.82a44.65,44.65,0,0,0,4.68,19.84Z"/><path class="cls-3" d="M422.87,561.86l-5.74-1.72,2.33-7.77A84,84,0,0,0,423,528.23V491h6v37.23a89.84,89.84,0,0,1-3.8,25.86Z"/><path class="cls-3" d="M438.68,558.34l-5.36-2.68,2.25-4.51a51.7,51.7,0,0,0,5.43-23V491h6v37.16a57.77,57.77,0,0,1-6.06,25.67Z"/><path class="cls-3" d="M459.68,552.34l-5.36-2.68A44.65,44.65,0,0,0,459,529.82V491h6v38.82A50.56,50.56,0,0,1,459.68,552.34Z"/><rect class="cls-3" x="405" y="491" width="6" height="70"/><path class="cls-3" d="M375,479h-6V461a3,3,0,0,1,.88-2.12l16-16,4.24,4.24L375,462.24Z"/><path class="cls-1" d="M508.14,225.13l.05-2.41-1.67,1.74a67.67,67.67,0,0,1-39,20.18,67.76,67.76,0,0,1,13.31,41.82l-.05,2.41,1.67-1.74a67.73,67.73,0,0,1,39-20.18A67.76,67.76,0,0,1,508.14,225.13Z"/><path class="cls-3" d="M551.83,461.08l-32.74-34.15a94.45,94.45,0,0,1-24.18-50.58L488,329.44l5.94-.88,6.88,46.92a88.5,88.5,0,0,0,22.61,47.34l32.71,34.1Z"/><path class="cls-3" d="M564.76,458,537,426.85a94.34,94.34,0,0,1-24.11-50.5L506,329.44l5.94-.88,6.88,46.92a88.5,88.5,0,0,0,22.61,47.34L569.24,454Z"/><rect class="cls-3" x="531" y="328.5" width="6" height="98.99" transform="translate(-48.09 79.32) rotate(-8.13)"/><rect class="cls-3" x="551" y="328.34" width="6" height="123.32" transform="matrix(0.99, -0.15, 0.15, 0.99, -50.99, 85.04)"/><rect class="cls-3" x="527.5" y="427.61" width="6" height="78.77" transform="translate(-60.02 78.66) rotate(-8.03)"/><rect class="cls-3" x="543" y="447.79" width="6" height="43.42" transform="translate(-59.64 79.96) rotate(-7.94)"/><path class="cls-3" d="M332.69,220.54l24.89-37.9a143.52,143.52,0,0,1,104-63.87A87.33,87.33,0,0,1,552,172.07l27.83,67Z"/><path class="cls-3" d="M332.33,331l221.39-2,32.41-28.94c26.76-23.88,28.13-65.83,2.11-90.5a62.41,62.41,0,0,0-23.61-14,163.55,163.55,0,0,0-122.34,8.27L305,270.45Z"/><path class="cls-3" d="M332.33,329l-38.58-69a40.88,40.88,0,0,1,23.72-51.73,86.51,86.51,0,0,1,85.95,13.52l98.37,80Z"/><path class="cls-1" d="M315.66,273.12,313,267.77l124.49-63.12c41.47-20.13,97.58-25.26,136.49-12.5l-1.86,5.7c-37.56-12.31-91.82-7.31-132,12.17Z"/><rect class="cls-1" x="377.56" y="192.98" width="6" height="44.42" transform="translate(-9.15 413.32) rotate(-56.44)"/><rect class="cls-1" x="312.65" y="307.34" width="277.47" height="6"/><path class="cls-1" d="M520.94,228.7l-.85-2.21-.86,2.21a66.63,66.63,0,0,1-27.8,33,66.63,66.63,0,0,1,27.8,33l.86,2.21.85-2.21a66.63,66.63,0,0,1,27.8-33A66.63,66.63,0,0,1,520.94,228.7Z"/><path class="cls-2" d="M455.17,1149l6.46,16.62,6.46-16.62a500.73,500.73,0,0,1,209-247.86,500.73,500.73,0,0,1-209-247.86l-6.46-16.62-6.46,16.62a501.36,501.36,0,0,1-29,61.68A500.72,500.72,0,0,1,246.13,901.1,500.73,500.73,0,0,1,455.17,1149Z"/><path class="cls-2" d="M594.48,711.39a20,20,0,0,1-15.78-7.68l-37.93-48.56A11.5,11.5,0,0,1,558.89,641l28.09,36-4.73,3.7-28.09-35.95a5.48,5.48,0,0,0-7.72-1,5.51,5.51,0,0,0-1,7.72L583.43,700a14,14,0,0,0,19.65,2.41l39.69-31a44,44,0,0,0,16.43-27.91l4.67-27.65,5.92,1-4.67,27.62a50,50,0,0,1-18.66,31.66l-39.68,31A19.92,19.92,0,0,1,594.48,711.39Z"/><path class="cls-2" d="M573,668.82l-20.46-26.19a11.5,11.5,0,1,1,18.13-14.16l28.46,36.43-4.73,3.69L566,632.16a5.5,5.5,0,0,0-8.67,6.77l20.46,26.19Z"/><path class="cls-2" d="M607.81,658.13,579.35,621.7a5.5,5.5,0,1,0-8.67,6.77l19.84,25.4-4.73,3.69L566,632.16A11.5,11.5,0,0,1,584.08,618l28.46,36.43Z"/><path class="cls-2" d="M601,649.46,579.35,621.7a11.5,11.5,0,1,1,18.12-14.16L625.93,644l-4.72,3.69-28.47-36.43a5.5,5.5,0,1,0-8.66,6.77l21.69,27.77Z"/><path class="cls-1" d="M546.71,714.74l-27.08-34.67-6.16,6.14A1028.79,1028.79,0,0,1,186.78,906l-66.23,28,67.68-16.31A749.22,749.22,0,0,0,546.71,714.74Z"/><path class="cls-2" d="M120.54,936.93a3,3,0,0,1-1.16-5.76l66.23-28A1022.19,1022.19,0,0,0,496.7,698.43l4.15,4.33a1027.93,1027.93,0,0,1-312.9,206l-32.42,13.69,32-7.71a745.41,745.41,0,0,0,357-202.06,3,3,0,1,1,4.28,4.21A751.47,751.47,0,0,1,188.94,920.53l-67.69,16.32A3.43,3.43,0,0,1,120.54,936.93Z"/><path class="cls-3" d="M566.78,733.27a19.33,19.33,0,0,1-15.17-7.38l-42.23-54.06a19.22,19.22,0,0,1,3.31-27l5.36-4.19,3.69,4.73-5.36,4.19a13.22,13.22,0,0,0-2.27,18.53l42.23,54.05a13.21,13.21,0,0,0,18.53,2.28l5.36-4.19,3.69,4.73-5.36,4.19A19,19,0,0,1,566.78,733.27Z"/><rect class="cls-2" x="603.28" y="591.45" width="29.17" height="6" transform="translate(-204.85 835.86) rotate(-60.25)"/><path class="cls-2" d="M722.89,1090.23l.66,1.7.66-1.7a51,51,0,0,1,21.34-25.3,51.09,51.09,0,0,1-21.34-25.3l-.66-1.7-.66,1.7a51.14,51.14,0,0,1-21.34,25.3A51.1,51.1,0,0,1,722.89,1090.23Z"/><path class="cls-2" d="M750.17,1206.1a3.4,3.4,0,0,0,3,1.38,4.63,4.63,0,0,0,4.2-2l6.6,4.92a11.23,11.23,0,0,1-4,4.26,12.72,12.72,0,0,1-7.14,1.86q-6.36,0-9.9-3.78a13.73,13.73,0,0,1-3.54-9.78v-24.48l-3.6.12a17.29,17.29,0,0,0-7,1.44,19.91,19.91,0,0,0-3.42,1.86,12.18,12.18,0,0,0-2.34,2.22,102.12,102.12,0,0,0-7.8,12q-3.84,6.48-9.6,18.72h-10.8q10.44-19.56,13.08-24.24,3.84-6.72,6.24-10.08a29.2,29.2,0,0,1,3.3-4.14q1.5-1.5,2.46-2.34l-21.84-31a6.34,6.34,0,0,0-1.68-1.74,3.8,3.8,0,0,0-1.92-.42,2.47,2.47,0,0,0-2.16,1.44l-7.44-5.28a11.46,11.46,0,0,1,4.44-4.08,11.23,11.23,0,0,1,5.16-1.44,13.34,13.34,0,0,1,5.94,1.38,11,11,0,0,1,4.38,3.66l23.52,33.36a31.76,31.76,0,0,1,4.8-1,44.92,44.92,0,0,1,6-.12v-36.36h10.08v70.44A5.43,5.43,0,0,0,750.17,1206.1Z"/><rect class="cls-2" x="721" y="634" width="6" height="367"/><path class="cls-2" d="M652,1201H116.54A43.59,43.59,0,0,1,73,1157.46V640h6v517.46A37.58,37.58,0,0,0,116.54,1195H652Z"/><path class="cls-1" d="M264.19,744,392,713v31h20a27.06,27.06,0,0,1,26.23,20.38L462,857.53l.28,154.47H251.39L253,930l-11-70Z"/><path class="cls-4" d="M462.27,934H431.05a25.43,25.43,0,0,1-21-11.14l-10.55-15.51,15.84-58.07A9.72,9.72,0,0,0,405.92,837H392V713h12l16,4,21,6,21,32Z"/><path class="cls-3" d="M384,934H345.47A28.4,28.4,0,0,1,322,921.55l5-3.37A22.42,22.42,0,0,0,345.47,928H384Z"/><path class="cls-3" d="M467,934H429a28.41,28.41,0,0,1-23.52-12.45l5-3.37A22.4,22.4,0,0,0,429,928h38Z"/><polygon class="cls-4" points="330 731.48 330 713.94 392 623.09 392 712.93 380 713.93 364 716.93 343 722.93 330 731.48"/><path class="cls-3" d="M376.33,789h27.83A10.84,10.84,0,0,1,415,799.84V800H367.4Z"/><polygon class="cls-1" points="326.41 886 358.91 886 367.58 899 334 899 326.41 886"/><polygon class="cls-1" points="418 884 439.42 884 447.99 899 421.21 902.21 418 896.85 418 884"/><path class="cls-3" d="M414,897h36.3l12.1,11H423.6a11.48,11.48,0,0,1-8.65-3.93L403,890.4Z"/><path class="cls-3" d="M420.45,878h13.79a10.85,10.85,0,0,1,9.71,6H414.39A6.06,6.06,0,0,1,420.45,878Z"/><path class="cls-3" d="M431,878h19a0,0,0,0,1,0,0v19a0,0,0,0,1,0,0H440a9,9,0,0,1-9-9V878A0,0,0,0,1,431,878Z" transform="translate(881 1775) rotate(180)"/><polygon class="cls-1" points="340 884 361.42 884 369.99 899 343.21 902.21 340 896.85 340 884"/><path class="cls-3" d="M336.89,897h35.2l12.1,11H345.41a11.48,11.48,0,0,1-8.65-3.93l-12-13.67Z"/><path class="cls-3" d="M342.26,878h13.79a10.85,10.85,0,0,1,9.71,6H336.2A6.07,6.07,0,0,1,342.26,878Z"/><path class="cls-3" d="M353,878h19a0,0,0,0,1,0,0v19a0,0,0,0,1,0,0H362a9,9,0,0,1-9-9V878A0,0,0,0,1,353,878Z" transform="translate(725 1775) rotate(180)"/><path class="cls-4" d="M323.81,850.25a23.92,23.92,0,1,1,43.45,20Z"/><path class="cls-3" d="M415.48,903.37l-14-15.17,11.39-39A8,8,0,0,0,405.24,839H392v-6h13.24a14,14,0,0,1,13.39,17.85l-10.44,35.77,11.7,12.68Z"/><polygon class="cls-3" points="387.5 849.59 379.83 840 373 840 373 834 382.71 834 392.18 845.84 387.5 849.59"/><rect class="cls-3" x="330.11" y="884.98" width="6" height="18.95" transform="translate(-518.36 463.17) rotate(-42.71)"/><path class="cls-3" d="M371.38,831.62l-17.5-17.5A3,3,0,0,1,353,812V795a3,3,0,0,1,5-2.22L368.16,802H415v6H367a3,3,0,0,1-2-.78l-6-5.44v9l16.62,16.62Z"/><rect class="cls-3" x="119.57" y="633.93" width="559.95" height="6" transform="translate(-194.11 175.53) rotate(-20.05)"/><circle class="cls-1" cx="400" cy="637" r="68"/><circle class="cls-3" cx="399.55" cy="636.93" r="57.12"/><path class="cls-1" d="M398.69,669.89l.86,2.21.86-2.21a66.56,66.56,0,0,1,27.79-33,66.56,66.56,0,0,1-27.79-33l-.86-2.21-.86,2.21a66.63,66.63,0,0,1-27.8,33A66.63,66.63,0,0,1,398.69,669.89Z"/><path class="cls-3" d="M295,855.34,291.67,843h-7c-3.36,0-5.05,1.56-6.54,2.94a10.4,10.4,0,0,1-2.23,1.72l-2.77-5.32a12.29,12.29,0,0,0,.93-.81A14.52,14.52,0,0,1,284.7,837H294a3,3,0,0,1,2.89,2.21l4,14.56Z"/><path class="cls-3" d="M413,783h-6V745.7a84,84,0,0,0-3.54-24.14l-2.33-7.77,5.74-1.72,2.33,7.77A89.84,89.84,0,0,1,413,745.7Z"/><path class="cls-3" d="M431,783h-6V745.77a51.67,51.67,0,0,0-5.43-23l-2.25-4.51,5.36-2.68,2.26,4.51A57.77,57.77,0,0,1,431,745.77Z"/><path class="cls-3" d="M449,783h-6V744.11a44.65,44.65,0,0,0-4.68-19.84l5.36-2.68A50.56,50.56,0,0,1,449,744.11Z"/><path class="cls-3" d="M377,783h-6V745.7a90,90,0,0,1,3.8-25.87l2.33-7.76,5.74,1.72-2.33,7.77A84,84,0,0,0,377,745.7Z"/><path class="cls-3" d="M359,783h-6V745.77a57.77,57.77,0,0,1,6.06-25.67l2.26-4.51,5.36,2.68-2.25,4.51a51.67,51.67,0,0,0-5.43,23Z"/><path class="cls-3" d="M341,783h-6V744.11a50.56,50.56,0,0,1,5.32-22.52l5.36,2.68A44.65,44.65,0,0,0,341,744.11Z"/><rect class="cls-3" x="389" y="713" width="6" height="70"/><path class="cls-3" d="M414.12,831.05l-4.24-4.24L425,811.69V795h6v17.93a3,3,0,0,1-.88,2.12Z"/><path class="cls-1" d="M291.41,1048.8l-.05,2.41,1.67-1.74a67.67,67.67,0,0,1,39-20.18,67.77,67.77,0,0,1-13.32-41.82l.05-2.41-1.66,1.74a67.79,67.79,0,0,1-39,20.18A67.82,67.82,0,0,1,291.41,1048.8Z"/><path class="cls-3" d="M305.58,945.37l-6.88-46.92a88.44,88.44,0,0,0-22.62-47.34L243.38,817l4.33-4.16L280.45,847a94.37,94.37,0,0,1,24.18,50.58l6.88,46.91Z"/><path class="cls-3" d="M287.58,945.37l-6.88-46.92a88.44,88.44,0,0,0-22.62-47.34l-27.77-31.19,4.48-4,27.74,31.15a94.32,94.32,0,0,1,24.1,50.5l6.88,46.91Z"/><rect class="cls-3" x="262.55" y="846.43" width="6" height="98.99" transform="translate(-124.03 46.56) rotate(-8.13)"/><rect class="cls-3" x="242.55" y="822.27" width="6" height="123.32" transform="matrix(0.99, -0.15, 0.15, 0.99, -126.39, 45.31)"/><rect class="cls-3" x="266.05" y="767.54" width="6" height="78.77" transform="translate(-110.05 45.48) rotate(-8.03)"/><rect class="cls-3" x="250.55" y="782.72" width="6" height="43.42" transform="translate(-108.74 42.76) rotate(-7.94)"/><path class="cls-3" d="M466.85,1053.39,442,1091.29a143.54,143.54,0,0,1-104,63.87,87.34,87.34,0,0,1-90.43-53.3l-27.82-67Z"/><path class="cls-3" d="M467.21,943l-221.38,2-32.42,28.94c-26.75,23.88-28.13,65.83-2.11,90.5a62.37,62.37,0,0,0,23.62,14,163.56,163.56,0,0,0,122.34-8.27l137.3-66.62Z"/><path class="cls-3" d="M467.21,944.9l38.59,69a40.88,40.88,0,0,1-23.73,51.73,86.49,86.49,0,0,1-85.94-13.52l-98.37-80Z"/><path class="cls-1" d="M273.9,1088.74c-17.36,0-34-2.27-48.29-7l1.87-5.7c37.55,12.31,91.82,7.31,132-12.17l124.44-63.1,2.72,5.35-124.49,63.12C335.88,1082,303.79,1088.74,273.9,1088.74Z"/><rect class="cls-1" x="415.99" y="1036.53" width="6" height="44.42" transform="translate(-694.87 822.5) rotate(-56.43)"/><rect class="cls-1" x="209" y="961" width="278" height="6"/><path class="cls-1" d="M278.6,1045.23l.86,2.21.86-2.21a66.53,66.53,0,0,1,27.8-33,66.53,66.53,0,0,1-27.8-33l-.86-2.21-.86,2.21a66.53,66.53,0,0,1-27.8,33A66.53,66.53,0,0,1,278.6,1045.23Z"/></g></svg>