<svg xmlns="http://www.w3.org/2000/svg" viewBox="0 0 800 1218"><defs><style>.cls-1{fill:#f2f0eb;}.cls-2{fill:#f4622f;}.cls-3{fill:#d39c53;}.cls-4{fill:#27282b;}</style></defs><title>Kh</title><g id="Layer_2" data-name="Layer 2"><rect class="cls-1" width="800" height="1218"/></g><g id="Layer_1" data-name="Layer 1"><path class="cls-2" d="M98,165.37a11.37,11.37,0,0,0-21.66-4.82,11.37,11.37,0,0,0-21.66,4.82c0,8.83,21.66,41.69,21.66,41.69S98,177,98,165.37Z"/><path class="cls-2" d="M49.38,39.83a3.4,3.4,0,0,0-3-1.38,4.63,4.63,0,0,0-4.2,2l-6.6-4.92a11.23,11.23,0,0,1,4-4.26,12.72,12.72,0,0,1,7.14-1.86q6.36,0,9.9,3.78A13.73,13.73,0,0,1,60.18,43V67.49l3.6-.12a17.29,17.29,0,0,0,7-1.44,19.91,19.91,0,0,0,3.42-1.86,12.18,12.18,0,0,0,2.34-2.22,102.12,102.12,0,0,0,7.8-12q3.84-6.48,9.6-18.72h10.8Q94.26,50.69,91.62,55.37q-3.84,6.72-6.24,10.08a29.2,29.2,0,0,1-3.3,4.14q-1.5,1.5-2.46,2.34l21.84,31a6.34,6.34,0,0,0,1.68,1.74,3.8,3.8,0,0,0,1.92.42,2.47,2.47,0,0,0,2.16-1.44l7.44,5.28a11.46,11.46,0,0,1-4.44,4.08,11.23,11.23,0,0,1-5.16,1.44A13.34,13.34,0,0,1,99.12,113a11,11,0,0,1-4.38-3.66L71.22,76a31.76,31.76,0,0,1-4.8,1,44.92,44.92,0,0,1-6,.12v36.36H50.34V43A5.43,5.43,0,0,0,49.38,39.83Z"/><rect class="cls-2" x="73" y="245" width="6" height="367"/><path class="cls-2" d="M727,606h-6V88.54A37.58,37.58,0,0,0,683.46,51H148V45H683.46A43.59,43.59,0,0,1,727,88.54Z"/><path class="cls-2" d="M551.09,182.19a103.13,103.13,0,0,0-196.55-43.74A103.12,103.12,0,0,0,158,182.19c0,80.08,196.54,378.34,196.54,378.34S551.09,287.36,551.09,182.19Z"/><path class="cls-1" d="M514.21,502H388a27.06,27.06,0,0,1-26.23-20.38L338,388.47,337.72,234H527Z"/><path class="cls-3" d="M337.71,312H369a25.43,25.43,0,0,1,21,11.14l10.55,15.51L384.7,396.72A9.72,9.72,0,0,0,394.08,409H408v99l-12,7-7-2-10,2-9-2-11,1-9-4-12,2-8-9,8-12Z"/><path class="cls-4" d="M472.64,327.82A22.43,22.43,0,0,0,454.08,318H416v-6h38.08a28.41,28.41,0,0,1,23.52,12.45Z"/><path class="cls-4" d="M389.09,327.82A22.42,22.42,0,0,0,370.53,318H333v-6h37.53a28.4,28.4,0,0,1,23.52,12.45Z"/><path class="cls-3" d="M470,514.45V532l-62,90.85V503.49A11.49,11.49,0,0,0,419.51,515a11.48,11.48,0,0,0,9-4.34,11.5,11.5,0,0,0,18,0,11.5,11.5,0,0,0,18,0A11.52,11.52,0,0,0,470,514.45Z"/><path class="cls-4" d="M423.63,457H395.8A10.84,10.84,0,0,1,385,446.16V446h47.61Z"/><polygon class="cls-1" points="473.13 360 440.63 360 431.97 347 465.55 347 473.13 360"/><polygon class="cls-1" points="382 362 360.58 362 352.01 347 378.79 343.79 382 349.15 382 362"/><path class="cls-4" d="M385.56,349h-36.3l-12.1-11H376a11.5,11.5,0,0,1,8.65,3.93l12,13.67Z"/><path class="cls-4" d="M379.1,368H365.3a10.83,10.83,0,0,1-9.7-6h29.55A6.05,6.05,0,0,1,379.1,368Z"/><path class="cls-4" d="M350,349h19a0,0,0,0,1,0,0v19a0,0,0,0,1,0,0H359a9,9,0,0,1-9-9V349A0,0,0,0,1,350,349Z"/><polygon class="cls-1" points="460 362 438.58 362 430.01 347 456.79 343.79 460 349.15 460 362"/><path class="cls-4" d="M462.65,349h-35.2l-12.1-11h38.79a11.5,11.5,0,0,1,8.65,3.93l12,13.67Z"/><path class="cls-4" d="M457.28,368H443.49a10.83,10.83,0,0,1-9.7-6h29.55A6.06,6.06,0,0,1,457.28,368Z"/><path class="cls-4" d="M428,349h19a0,0,0,0,1,0,0v19a0,0,0,0,1,0,0H437a9,9,0,0,1-9-9V349A0,0,0,0,1,428,349Z"/><path class="cls-3" d="M475.73,395.68a23.92,23.92,0,1,1-43.45-20Z"/><path class="cls-4" d="M408,413H394.3a13.95,13.95,0,0,1-13.38-17.85l10.44-35.77L379.65,346.7l4.41-4.07,14,15.17-11.39,39A7.95,7.95,0,0,0,394.3,407H408Z"/><polygon class="cls-4" points="427 412 416.83 412 407.36 400.16 412.05 396.42 419.72 406 427 406 427 412"/><rect class="cls-4" x="463.44" y="342" width="6" height="18.95" transform="matrix(0.73, -0.68, 0.68, 0.73, -114.7, 409.59)"/><path class="cls-4" d="M375,441h-6a22,22,0,0,1,22-22h8v6h-8A16,16,0,0,0,375,441Z"/><path class="cls-4" d="M443.85,444H385v-6h55.57a16,16,0,0,0-15.72-13H415v-6h9.85a22,22,0,0,1,22,22A3,3,0,0,1,443.85,444Z"/><path class="cls-4" d="M396.5,518a14.42,14.42,0,0,1-11.35-5.47l4.69-3.74A8.5,8.5,0,0,0,405,503.49V464h6v39.49A14.49,14.49,0,0,1,396.5,518Z"/><path class="cls-4" d="M492.5,518a14.49,14.49,0,0,1-14.5-14.5V473h6v30.49a8.5,8.5,0,0,0,17,0,7.5,7.5,0,0,0-7.49-7.49H490v-6h3.51A13.5,13.5,0,0,1,507,503.49,14.51,14.51,0,0,1,492.51,518Z"/><path class="cls-4" d="M378.5,518a14.42,14.42,0,0,1-11.35-5.47l4.69-3.74A8.5,8.5,0,0,0,387,503.49V464h6v39.49A14.49,14.49,0,0,1,378.5,518Z"/><path class="cls-4" d="M342.5,516a14.52,14.52,0,0,1-14.5-14.5A13.5,13.5,0,0,1,341.49,488H345v6h-3.51a7.5,7.5,0,0,0-7.49,7.49,8.5,8.5,0,1,0,17,0V464h6v37.49A14.49,14.49,0,0,1,342.5,516Z"/><path class="cls-4" d="M360.5,518a14.42,14.42,0,0,1-11.35-5.47l4.69-3.74A8.5,8.5,0,0,0,369,503.49V450h6v53.49A14.49,14.49,0,0,1,360.5,518Z"/><path class="cls-4" d="M437.47,518a14.4,14.4,0,0,1-11.32-5.47,14.58,14.58,0,0,1-3.15-9V464h6v39.49a8.51,8.51,0,0,0,8.48,8.5,8.32,8.32,0,0,0,3.77-.87,8.45,8.45,0,0,0,2.9-2.33l4.7,3.72a14.34,14.34,0,0,1-5,4A14,14,0,0,1,437.47,518Z"/><path class="cls-4" d="M419.49,518A14.48,14.48,0,0,1,405,503.49V464h6v39.49a8.48,8.48,0,0,0,2.49,6,8.52,8.52,0,0,0,9.76,1.61,8.45,8.45,0,0,0,2.9-2.33l4.7,3.72a14.34,14.34,0,0,1-5,4,14.19,14.19,0,0,1-6.39,1.49Z"/><path class="cls-4" d="M473.51,518a14.66,14.66,0,0,1-4.41-.68A14.49,14.49,0,0,1,459,503.49V464h6v39.49a8.52,8.52,0,0,0,5.91,8.1,8.59,8.59,0,0,0,6.34-.47,8.45,8.45,0,0,0,2.9-2.33l4.7,3.72a14.34,14.34,0,0,1-5,4A14.19,14.19,0,0,1,473.51,518Z"/><path class="cls-4" d="M455.47,518a14.4,14.4,0,0,1-11.32-5.47,14.58,14.58,0,0,1-3.15-9V450h6v53.49a8.51,8.51,0,0,0,8.48,8.5,8.79,8.79,0,0,0,3.77-.87,8.45,8.45,0,0,0,2.9-2.33l4.7,3.72a14.34,14.34,0,0,1-5,4,14.19,14.19,0,0,1-6.39,1.49Z"/><path class="cls-4" d="M548.34,338.35a77,77,0,0,1-74.46-57.64l5.81-1.5a71,71,0,0,0,86.42,50.86l1.5,5.81A76.66,76.66,0,0,1,548.34,338.35Z"/><path class="cls-4" d="M548.27,321.22a59.93,59.93,0,0,1-57.8-44.8l5.81-1.51a53.82,53.82,0,0,0,65.53,38.57l1.51,5.81A60,60,0,0,1,548.27,321.22Z"/><path class="cls-4" d="M548.34,304.07a42.71,42.71,0,0,1-41.28-31.95l5.81-1.5a36.66,36.66,0,0,0,44.64,26.27L559,302.7A42.35,42.35,0,0,1,548.34,304.07Z"/><path class="cls-4" d="M583,156.39,553.17,286.57H324.68L294.1,156.39H519.05a20.56,20.56,0,1,0,41.11,0Z"/><rect class="cls-1" x="315" y="281.29" width="265.72" height="6"/><polygon class="cls-1" points="439.14 218.09 404.89 198.68 371.77 218.09 337.41 198.62 300.59 217.31 297.88 211.96 337.57 191.82 371.72 211.17 404.84 191.76 439.09 211.17 472.14 191.8 507.56 210.08 539.52 191.81 579.22 211.96 576.5 217.31 539.69 198.63 507.71 216.9 472.33 198.64 439.14 218.09"/><circle class="cls-2" cx="337.49" cy="156.39" r="20.55"/><circle class="cls-2" cx="404.86" cy="156.39" r="20.55"/><circle class="cls-2" cx="472.23" cy="156.39" r="20.55"/><path class="cls-1" d="M438.55,265.9a36.72,36.72,0,0,1-36.69-36.68v-34h6v34a30.69,30.69,0,0,0,61.37,0v-34h6v34A36.72,36.72,0,0,1,438.55,265.9Z"/><path class="cls-1" d="M505.92,265.9a36.72,36.72,0,0,1-36.69-36.68v-34h6v34a30.69,30.69,0,0,0,61.38,0v-34h6v34A36.72,36.72,0,0,1,505.92,265.9Z"/><path class="cls-1" d="M371.17,265.9a36.72,36.72,0,0,1-36.68-36.68v-34h6v34a30.69,30.69,0,0,0,61.37,0v-34h6v34A36.72,36.72,0,0,1,371.17,265.9Z"/><path class="cls-1" d="M313.07,264.72l-1.51-5.8a30.69,30.69,0,0,0,22.93-29.7v-34h6v34A36.67,36.67,0,0,1,313.07,264.72Z"/><path class="cls-1" d="M564,264.72a36.67,36.67,0,0,1-27.41-35.5v-34h6v34a30.69,30.69,0,0,0,22.92,29.7Z"/><rect class="cls-1" x="367.6" y="212.35" width="6" height="69.66"/><rect class="cls-1" x="436.12" y="212.35" width="6" height="69.66"/><rect class="cls-1" x="504.63" y="212.35" width="6" height="69.66"/><rect class="cls-4" x="517" y="329" width="6" height="108"/><rect class="cls-4" x="535" y="332" width="6" height="105"/><rect class="cls-4" x="553" y="334" width="6" height="103"/><path class="cls-4" d="M567.5,463a14.49,14.49,0,0,1-14.5-14.5V418h6v30.49a8.5,8.5,0,0,0,17,0,3,3,0,0,1,6,0A14.51,14.51,0,0,1,567.51,463Z"/><path class="cls-4" d="M531.51,463a14.66,14.66,0,0,1-4.41-.68A14.49,14.49,0,0,1,517,448.49V409h6v39.49a8.52,8.52,0,0,0,5.91,8.1,8.59,8.59,0,0,0,6.34-.47,8.45,8.45,0,0,0,2.9-2.33l4.7,3.72a14.34,14.34,0,0,1-5,4A14.19,14.19,0,0,1,531.51,463Z"/><path class="cls-4" d="M549.51,463a14.66,14.66,0,0,1-4.41-.68A14.49,14.49,0,0,1,535,448.49V409h6v39.49a8.52,8.52,0,0,0,5.91,8.1,8.59,8.59,0,0,0,6.34-.47,8.45,8.45,0,0,0,2.9-2.33l4.7,3.72a14.34,14.34,0,0,1-5,4A14.19,14.19,0,0,1,549.51,463Z"/><path class="cls-2" d="M228.36,644.24l-18.9-20.68A50,50,0,0,1,196,589.36V539a20,20,0,0,1,20-20h65.44a7.69,7.69,0,0,1,7.68,7.68v7.64a7.69,7.69,0,0,1-7.68,7.68H232v-6h49.44a1.68,1.68,0,0,0,1.68-1.68v-7.64a1.68,1.68,0,0,0-1.68-1.68H216a14,14,0,0,0-14,14v50.36a44.06,44.06,0,0,0,11.87,30.13l18.92,20.7Z"/><path class="cls-2" d="M280.23,559H234v-6h46.23a5.5,5.5,0,0,0,0-11H247v-6h33.23a11.5,11.5,0,0,1,0,23Z"/><path class="cls-2" d="M280.23,576H234v-6h46.23a5.5,5.5,0,0,0,0-11H248v-6h32.23a11.5,11.5,0,0,1,0,23Z"/><path class="cls-2" d="M280.23,593H234v-6h46.23a5.5,5.5,0,0,0,0-11H245v-6h35.23a11.5,11.5,0,0,1,0,23Z"/><path class="cls-1" d="M261.78,271,249,253.85,236.22,271A46.31,46.31,0,0,0,227,298.7V487h44V298.7A46.31,46.31,0,0,0,261.78,271Z"/><path class="cls-2" d="M230,487h-6V299.25a49.69,49.69,0,0,1,9.87-29.61l12.73-17a3,3,0,0,1,5.4,1.79L252.49,438l-6,0L246,263.44l-7.35,9.8a43.61,43.61,0,0,0-8.67,26Z"/><path class="cls-2" d="M274,456h-6V299.19a43.61,43.61,0,0,0-8.67-26L252,263.37,251.51,438l-6,0L246,254.4a3,3,0,0,1,5.4-1.79l12.73,17A49.67,49.67,0,0,1,274,299.19Z"/><path class="cls-4" d="M303,510h-6v-6.8A13.21,13.21,0,0,0,283.8,490H215.2A13.21,13.21,0,0,0,202,503.2V510h-6v-6.8A19.22,19.22,0,0,1,215.2,484h68.6A19.22,19.22,0,0,1,303,503.2Z"/><rect class="cls-2" x="274.99" y="602.54" width="6" height="29.17" transform="translate(-212.96 151.2) rotate(-22.25)"/><path class="cls-2" d="M701.76,1052.25a11.37,11.37,0,0,0,21.66,4.82,11.37,11.37,0,0,0,21.66-4.82c0-8.82-21.66-41.69-21.66-41.69S701.76,1040.66,701.76,1052.25Z"/><path class="cls-2" d="M750.36,1164.8a3.42,3.42,0,0,0,3,1.38,4.66,4.66,0,0,0,4.2-2l6.6,4.92a11.37,11.37,0,0,1-4,4.26,12.8,12.8,0,0,1-7.14,1.86q-6.36,0-9.9-3.78a13.75,13.75,0,0,1-3.54-9.78v-24.48l-3.6.12a17,17,0,0,0-7,1.44,19.25,19.25,0,0,0-3.42,1.86,11.88,11.88,0,0,0-2.34,2.22,101.26,101.26,0,0,0-7.8,12q-3.84,6.48-9.6,18.72H695q10.44-19.57,13.08-24.24,3.84-6.73,6.24-10.08a28.09,28.09,0,0,1,3.3-4.14q1.5-1.51,2.46-2.34l-21.84-31a6.06,6.06,0,0,0-1.68-1.74,3.69,3.69,0,0,0-1.92-.42,2.47,2.47,0,0,0-2.16,1.44l-7.44-5.28a11.39,11.39,0,0,1,4.44-4.08,11.23,11.23,0,0,1,5.16-1.44,13.34,13.34,0,0,1,5.94,1.38,10.89,10.89,0,0,1,4.38,3.66l23.52,33.36a30.57,30.57,0,0,1,4.8-1,41.75,41.75,0,0,1,6-.12v-36.36H749.4v70.44A5.45,5.45,0,0,0,750.36,1164.8Z"/><rect class="cls-2" x="721" y="606" width="6" height="367"/><path class="cls-2" d="M652,1173H116.54A43.59,43.59,0,0,1,73,1129.46V612h6v517.46A37.58,37.58,0,0,0,116.54,1167H652Z"/><path class="cls-2" d="M248.65,1035.44a103.13,103.13,0,0,0,196.55,43.73,103.12,103.12,0,0,0,196.54-43.73c0-80.09-196.54-378.35-196.54-378.35S248.65,930.26,248.65,1035.44Z"/><path class="cls-1" d="M285.79,716H412a27.06,27.06,0,0,1,26.23,20.38L462,829.53,462.28,984H273Z"/><path class="cls-3" d="M462.27,906H431a25.45,25.45,0,0,1-21-11.14l-10.54-15.51,15.84-58.08A9.72,9.72,0,0,0,405.92,809H392V710l12-7,7,2,10-2,9,2,11-1,9,4,12-2,8,9-8,12Z"/><path class="cls-4" d="M384,906H345.66a28.41,28.41,0,0,1-23.52-12.45l5-3.37A22.43,22.43,0,0,0,345.66,900H384Z"/><path class="cls-4" d="M467,906H429.21a28.4,28.4,0,0,1-23.52-12.45l5-3.37A22.42,22.42,0,0,0,429.21,900H467Z"/><path class="cls-3" d="M330,703.17V685.63l62-90.85V714.13a11.49,11.49,0,0,0-11.51-11.5,11.48,11.48,0,0,0-9,4.34,11.5,11.5,0,0,0-18,0,11.5,11.5,0,0,0-18,0A11.52,11.52,0,0,0,330,703.17Z"/><path class="cls-4" d="M376.33,761h27.83A10.84,10.84,0,0,1,415,771.84V772H367.4Z"/><polygon class="cls-1" points="326.61 858 359.11 858 367.77 871 334.19 871 326.61 858"/><polygon class="cls-1" points="418 856 439.42 856 447.99 871 421.21 874.21 418 868.85 418 856"/><path class="cls-4" d="M414.18,869h36.3l12.1,11H423.79a11.5,11.5,0,0,1-8.65-3.93l-12-13.67Z"/><path class="cls-4" d="M420.64,850h13.8a10.83,10.83,0,0,1,9.7,6H414.59A6.05,6.05,0,0,1,420.64,850Z"/><path class="cls-4" d="M431,850h19a0,0,0,0,1,0,0v19a0,0,0,0,1,0,0H440a9,9,0,0,1-9-9V850A0,0,0,0,1,431,850Z" transform="translate(881 1719) rotate(180)"/><polygon class="cls-1" points="340 856 361.42 856 369.99 871 343.21 874.21 340 868.85 340 856"/><path class="cls-4" d="M337.09,869h35.2l12.1,11H345.6a11.5,11.5,0,0,1-8.65-3.93L325,862.4Z"/><path class="cls-4" d="M342.46,850h13.79a10.85,10.85,0,0,1,9.71,6H336.4A6.06,6.06,0,0,1,342.46,850Z"/><path class="cls-4" d="M353,850h19a0,0,0,0,1,0,0v19a0,0,0,0,1,0,0H362a9,9,0,0,1-9-9V850A0,0,0,0,1,353,850Z" transform="translate(725 1719) rotate(180)"/><path class="cls-3" d="M324,821.94a23.92,23.92,0,1,1,43.45,20Z"/><path class="cls-4" d="M415.68,875.37l-14-15.17,11.39-39A7.95,7.95,0,0,0,405.44,811H392v-6h13.44a13.95,13.95,0,0,1,13.38,17.85l-10.44,35.77,11.71,12.68Z"/><polygon class="cls-4" points="387.69 821.59 380.02 812 373 812 373 806 382.91 806 392.38 817.84 387.69 821.59"/><rect class="cls-4" x="330.3" y="856.67" width="6" height="18.95" transform="translate(-499.11 455.79) rotate(-42.71)"/><path class="cls-4" d="M408.74,799H401v-6h7.74a16,16,0,0,0,16-16h6A22,22,0,0,1,408.74,799Z"/><path class="cls-4" d="M385,799H374.89a22,22,0,0,1-22-22,3,3,0,0,1,3-3H415v6H359.17a16,16,0,0,0,15.72,13H385Z"/><path class="cls-4" d="M395,754h-6V714.13a14.5,14.5,0,0,1,25.85-9l-4.69,3.74A8.5,8.5,0,0,0,395,714.13Z"/><path class="cls-4" d="M322,745h-6V714.51a8.5,8.5,0,0,0-17,0,7.5,7.5,0,0,0,7.49,7.49H310v6h-3.51A13.5,13.5,0,0,1,293,714.51a14.5,14.5,0,1,1,29,0Z"/><path class="cls-4" d="M413,754h-6V714.13a14.5,14.5,0,0,1,25.85-9l-4.69,3.74A8.5,8.5,0,0,0,413,714.13Z"/><path class="cls-4" d="M449,754h-6V716.51a14.5,14.5,0,0,1,29,0A13.5,13.5,0,0,1,458.51,730H455v-6h3.51a7.5,7.5,0,0,0,7.49-7.49,8.5,8.5,0,1,0-17,0Z"/><path class="cls-4" d="M431,768h-6V714.13a14.5,14.5,0,0,1,25.85-9l-4.69,3.74A8.5,8.5,0,0,0,431,714.13Z"/><path class="cls-4" d="M377,754h-6V714.13a8.51,8.51,0,0,0-8.48-8.5,8.32,8.32,0,0,0-3.77.87,8.45,8.45,0,0,0-2.9,2.33l-4.7-3.72a14.34,14.34,0,0,1,5-4,14.83,14.83,0,0,1,6.43-1.49,14.4,14.4,0,0,1,11.32,5.47,14.58,14.58,0,0,1,3.15,9Z"/><path class="cls-4" d="M395,754h-6V714.13a8.48,8.48,0,0,0-8.49-8.5,8.31,8.31,0,0,0-3.76.87,8.45,8.45,0,0,0-2.9,2.33l-4.7-3.72a14.34,14.34,0,0,1,5-4,14.16,14.16,0,0,1,6.39-1.49A14.49,14.49,0,0,1,395,714.13Z"/><path class="cls-4" d="M341,754h-6V714.13a8.52,8.52,0,0,0-5.91-8.1,8.59,8.59,0,0,0-6.34.47,8.45,8.45,0,0,0-2.9,2.33l-4.7-3.72a14.34,14.34,0,0,1,5-4,14.16,14.16,0,0,1,6.39-1.49A14.49,14.49,0,0,1,341,714.13Z"/><path class="cls-4" d="M359,768h-6V714.13a8.51,8.51,0,0,0-8.48-8.5,8.24,8.24,0,0,0-3.77.87,8.45,8.45,0,0,0-2.9,2.33l-4.7-3.72a14.34,14.34,0,0,1,5-4,14.16,14.16,0,0,1,6.39-1.49,14.42,14.42,0,0,1,11.36,5.47,14.58,14.58,0,0,1,3.15,9Z"/><path class="cls-4" d="M329.05,938.41a70.89,70.89,0,0,0-86.42-50.86l-1.5-5.81a76.9,76.9,0,0,1,93.73,55.17Z"/><path class="cls-4" d="M312.46,942.71a53.82,53.82,0,0,0-65.53-38.57l-1.51-5.81a59.84,59.84,0,0,1,72.85,42.87Z"/><path class="cls-4" d="M295.87,947a36.66,36.66,0,0,0-44.64-26.27l-1.51-5.81a42.68,42.68,0,0,1,52,30.58Z"/><path class="cls-4" d="M216.94,1061l29.79-130H474.9l30.54,130H280.8a20.53,20.53,0,1,0-41.05,0Z"/><rect class="cls-1" x="219" y="930" width="266" height="6"/><polygon class="cls-1" points="394.9 1025.86 360.65 1006.45 327.6 1025.83 292.18 1007.54 260.22 1025.81 220.52 1005.66 223.24 1000.31 260.05 1019 292.03 1000.72 327.41 1018.98 360.6 999.53 394.85 1018.94 427.97 999.53 462.33 1019 499.15 1000.31 501.86 1005.66 462.17 1025.81 428.02 1006.45 394.9 1025.86"/><circle class="cls-2" cx="462.5" cy="1061.5" r="20.5"/><circle class="cls-2" cx="394.5" cy="1061.5" r="20.5"/><circle class="cls-2" cx="327.5" cy="1061.5" r="20.5"/><path class="cls-1" d="M398,1022h-6V988.4a30.5,30.5,0,0,0-61,0V1022h-6V988.4a36.5,36.5,0,0,1,73,0Z"/><path class="cls-1" d="M330,1022h-6V988.4a30.5,30.5,0,0,0-61,0V1022h-6V988.4a36.5,36.5,0,0,1,73,0Z"/><path class="cls-1" d="M465,1022h-6V988.4a30.5,30.5,0,0,0-61,0V1022h-6V988.4a36.5,36.5,0,0,1,73,0Z"/><path class="cls-1" d="M465,1022h-6V988.4a36.67,36.67,0,0,1,27.41-35.5l1.52,5.81A30.68,30.68,0,0,0,465,988.4Z"/><path class="cls-1" d="M263,1022h-6V988.4a30.68,30.68,0,0,0-22.93-29.69l1.52-5.81A36.67,36.67,0,0,1,263,988.4Z"/><rect class="cls-1" x="426" y="936" width="6" height="69"/><rect class="cls-1" x="358" y="936" width="6" height="69"/><rect class="cls-1" x="289" y="936" width="6" height="69"/><rect class="cls-4" x="286" y="781" width="6" height="108"/><rect class="cls-4" x="268" y="781" width="6" height="105"/><rect class="cls-4" x="250" y="781" width="6" height="103"/><path class="cls-4" d="M256,800h-6V769.13a8.5,8.5,0,0,0-8.5-8.5,8.51,8.51,0,0,0-8.5,8.5h-6a14.5,14.5,0,1,1,29,0Z"/><path class="cls-4" d="M292,809h-6V769.13a8.52,8.52,0,0,0-5.91-8.1,8.59,8.59,0,0,0-6.34.47,8.45,8.45,0,0,0-2.9,2.33l-4.7-3.72a14.34,14.34,0,0,1,5-4,14.16,14.16,0,0,1,6.39-1.49A14.49,14.49,0,0,1,292,769.13Z"/><path class="cls-4" d="M274,809h-6V769.13a8.52,8.52,0,0,0-5.91-8.1,8.59,8.59,0,0,0-6.34.47,8.45,8.45,0,0,0-2.9,2.33l-4.7-3.72a14.34,14.34,0,0,1,4.95-4,14.16,14.16,0,0,1,6.39-1.49A14.49,14.49,0,0,1,274,769.13Z"/><path class="cls-2" d="M584,699H518.68a7.69,7.69,0,0,1-7.68-7.68v-7.64a7.69,7.69,0,0,1,7.68-7.68H568v6H518.68a1.68,1.68,0,0,0-1.68,1.68v7.64a1.68,1.68,0,0,0,1.68,1.68H584a14,14,0,0,0,14-14V628.64a44.05,44.05,0,0,0-11.86-30.13l-18.89-20.7,4.44-4,18.86,20.69A50,50,0,0,1,604,628.64V679A20,20,0,0,1,584,699Z"/><path class="cls-2" d="M553,682H519.51a11.5,11.5,0,0,1,0-23H566v6H519.51a5.5,5.5,0,0,0,0,11H553Z"/><path class="cls-2" d="M552,665H519.51a11.5,11.5,0,0,1,0-23H566v6H519.51a5.5,5.5,0,0,0,0,11H552Z"/><path class="cls-2" d="M555,648H519.51a11.5,11.5,0,0,1,0-23H566v6H519.51a5.5,5.5,0,0,0,0,11H555Z"/><path class="cls-1" d="M538.22,947,551,964.15,563.78,947A46.31,46.31,0,0,0,573,919.3V731H529V919.3A46.31,46.31,0,0,0,538.22,947Z"/><path class="cls-2" d="M551,966.15a3.14,3.14,0,0,1-1-.15,3,3,0,0,1-2-2.84L547.51,780l6,0,.47,174.2,7.35-9.81a43.61,43.61,0,0,0,8.67-26V731h6V918.37A49.67,49.67,0,0,1,566.13,948L553.4,965A3,3,0,0,1,551,966.15Z"/><path class="cls-2" d="M551,966.22a3,3,0,0,1-2.4-1.2l-12.73-17A49.72,49.72,0,0,1,526,918.43V762h6V918.43a43.66,43.66,0,0,0,8.67,26l7.35,9.8L548.49,780l6,0L554,963.22a3,3,0,0,1-2,2.84A2.87,2.87,0,0,1,551,966.22Z"/><path class="cls-4" d="M584.8,734H516.2A19.22,19.22,0,0,1,497,714.8V708h6v6.8A13.21,13.21,0,0,0,516.2,728h68.6A13.21,13.21,0,0,0,598,714.8V708h6v6.8A19.22,19.22,0,0,1,584.8,734Z"/><rect class="cls-2" x="518.75" y="585.91" width="6" height="29.17" transform="translate(-188.52 242.25) rotate(-22.25)"/><rect class="cls-4" x="120.03" y="606" width="559.95" height="6" transform="translate(-184.51 174) rotate(-20.05)"/><circle class="cls-1" cx="400" cy="609" r="68"/><circle class="cls-4" cx="400" cy="609" r="57.12"/><path class="cls-1" d="M428.87,593.33A15.15,15.15,0,0,0,400,586.9a15.15,15.15,0,0,0-28.87,6.43c0,11.76,28.87,55.56,28.87,55.56S428.87,608.77,428.87,593.33Z"/><path class="cls-4" d="M514.85,409h-9.26a3,3,0,0,1-2.9-2.21l-4-14.56,5.79-1.57L507.88,403h7a10.06,10.06,0,0,0,4.69-1.14l2.77,5.32A16.25,16.25,0,0,1,514.85,409Z"/><path class="cls-4" d="M304,822.34,300.66,810h-7a10.06,10.06,0,0,0-4.69,1.14l-2.77-5.32a16.25,16.25,0,0,1,7.46-1.82H303a3,3,0,0,1,2.9,2.21l4,14.56Z"/></g></svg>