<svg xmlns="http://www.w3.org/2000/svg" viewBox="0 0 800 1267"><defs><style>.cls-1{fill:#f2f0eb;}.cls-2{fill:#3e95a3;}.cls-3{fill:#d39c53;}.cls-4{fill:#27282b;}</style></defs><title>Ks</title><g id="Layer_2" data-name="Layer 2"><rect class="cls-1" width="800" height="1267"/></g><g id="Layer_1" data-name="Layer 1"><polygon class="cls-2" points="591.34 348.9 377.88 416.93 164.43 348.9 377.89 100.5 591.34 348.9"/><circle class="cls-2" cx="258.29" cy="423.36" r="119.57"/><circle class="cls-2" cx="497.09" cy="422.49" r="119.57"/><path class="cls-2" d="M441,647.5H227.25A219.64,219.64,0,0,0,346.82,452V358.52H409V452a219.44,219.44,0,0,0,35.52,119.76Z"/><path class="cls-1" d="M554,565l-111-5H408l-20-31a27.06,27.06,0,0,1-26.23-20.38L338,415.47,337.72,261H561l-6,72,17.37,30.78a13.37,13.37,0,0,1-1.56,15.33l-11,12.68a17.88,17.88,0,0,0-.52,22.85l7.17,9A24.13,24.13,0,0,1,568,451.45L555.78,471Z"/><path class="cls-3" d="M337.71,339H369a25.43,25.43,0,0,1,21,11.14l10.55,15.51L384.7,423.72A9.72,9.72,0,0,0,394.08,436H408V560H345l-7-8Z"/><path class="cls-4" d="M472.64,354.82A22.43,22.43,0,0,0,454.08,345H416v-6h38.08a28.41,28.41,0,0,1,23.52,12.45Z"/><path class="cls-4" d="M389.09,354.82A22.42,22.42,0,0,0,370.53,345H333v-6h37.53a28.4,28.4,0,0,1,23.52,12.45Z"/><polygon class="cls-3" points="470 558.99 408 649.84 408 560 470 558.99"/><path class="cls-4" d="M423.63,484H395.8A10.84,10.84,0,0,1,385,473.16V473h47.61Z"/><polygon class="cls-1" points="473.13 387 440.63 387 431.97 374 465.55 374 473.13 387"/><polygon class="cls-1" points="382 389 360.58 389 352.01 374 378.79 370.79 382 376.15 382 389"/><path class="cls-4" d="M385.56,376h-36.3l-12.1-11H376a11.5,11.5,0,0,1,8.65,3.93l12,13.67Z"/><path class="cls-4" d="M379.1,395H365.3a10.83,10.83,0,0,1-9.7-6h29.55A6.05,6.05,0,0,1,379.1,395Z"/><path class="cls-4" d="M350,376h19a0,0,0,0,1,0,0v19a0,0,0,0,1,0,0H359a9,9,0,0,1-9-9V376A0,0,0,0,1,350,376Z"/><polygon class="cls-1" points="460 389 438.58 389 430.01 374 456.79 370.79 460 376.15 460 389"/><path class="cls-4" d="M462.65,376h-35.2l-12.1-11h38.79a11.5,11.5,0,0,1,8.65,3.93l12,13.67Z"/><path class="cls-4" d="M457.28,395H443.49a10.83,10.83,0,0,1-9.7-6h29.55A6.06,6.06,0,0,1,457.28,395Z"/><path class="cls-4" d="M428,376h19a0,0,0,0,1,0,0v19a0,0,0,0,1,0,0H437a9,9,0,0,1-9-9V376A0,0,0,0,1,428,376Z"/><path class="cls-3" d="M475.73,422.68a23.92,23.92,0,1,1-43.45-20Z"/><path class="cls-4" d="M408,440H394.3a13.94,13.94,0,0,1-13.38-17.84l10.44-35.78L379.65,373.7l4.41-4.07,14,15.17-11.39,39A7.95,7.95,0,0,0,394.3,434H408Z"/><polygon class="cls-4" points="427 439 416.83 439 407.36 427.16 412.05 423.42 419.72 433 427 433 427 439"/><rect class="cls-4" x="463.44" y="369" width="6" height="18.95" transform="translate(-133.02 416.74) rotate(-42.71)"/><rect class="cls-2" x="73" y="269" width="6" height="366"/><polygon class="cls-2" points="95.68 204.07 75 210.66 54.32 204.07 75 180 95.68 204.07"/><circle class="cls-2" cx="63.45" cy="211.2" r="11.59"/><circle class="cls-2" cx="86.55" cy="211.2" r="11.59"/><path class="cls-2" d="M89.6,233H60.4A21.27,21.27,0,0,0,72,214.06V205h6v9.06A21.27,21.27,0,0,0,89.6,233Z"/><path class="cls-2" d="M48.52,65.83a3.4,3.4,0,0,0-3-1.38,4.63,4.63,0,0,0-4.2,2l-6.6-4.92a11.23,11.23,0,0,1,4-4.26,12.72,12.72,0,0,1,7.14-1.86q6.36,0,9.9,3.78A13.73,13.73,0,0,1,59.32,69V93.49l3.6-.12a17.29,17.29,0,0,0,7-1.44,19.91,19.91,0,0,0,3.42-1.86,12.18,12.18,0,0,0,2.34-2.22,102.12,102.12,0,0,0,7.8-12q3.84-6.48,9.6-18.72h10.8Q93.4,76.69,90.76,81.37q-3.84,6.72-6.24,10.08a29.2,29.2,0,0,1-3.3,4.14q-1.5,1.5-2.46,2.34l21.84,31a6.34,6.34,0,0,0,1.68,1.74,3.8,3.8,0,0,0,1.92.42,2.47,2.47,0,0,0,2.16-1.44l7.44,5.28a11.46,11.46,0,0,1-4.44,4.08,11.23,11.23,0,0,1-5.16,1.44A13.34,13.34,0,0,1,98.26,139a11,11,0,0,1-4.38-3.66L70.36,102a31.76,31.76,0,0,1-4.8,1,44.92,44.92,0,0,1-6,.12v36.36H49.48V69A5.43,5.43,0,0,0,48.52,65.83Z"/><path class="cls-2" d="M727,630h-6V114.54A37.58,37.58,0,0,0,683.46,77H146V71H683.46A43.59,43.59,0,0,1,727,114.54Z"/><path class="cls-4" d="M447,546h-6V472.56A13.57,13.57,0,0,0,427.44,459H388.56A13.57,13.57,0,0,0,375,472.56V546h-6V472.56A19.59,19.59,0,0,1,388.56,453h38.88A19.59,19.59,0,0,1,447,472.56Z"/><path class="cls-4" d="M345,563a12,12,0,0,1-12-12h6a6,6,0,0,0,12,0V505h6v46A12,12,0,0,1,345,563Z"/><path class="cls-4" d="M471,563a12,12,0,0,1-12-12V505h6v46a6,6,0,0,0,12,0h6A12,12,0,0,1,471,563Z"/><path class="cls-4" d="M435,563a12,12,0,0,1-12-12V505h6v46a6,6,0,0,0,12,0h6A12,12,0,0,1,435,563Z"/><path class="cls-4" d="M381,563a12,12,0,0,1-12-12h6a6,6,0,0,0,12,0V490h6v61A12,12,0,0,1,381,563Z"/><rect class="cls-4" x="405" y="505" width="6" height="44"/><rect class="cls-4" x="423" y="490" width="6" height="59"/><rect class="cls-4" x="459" y="486" width="6" height="60"/><rect class="cls-4" x="351" y="486" width="6" height="60"/><polygon class="cls-4" points="472 182 448.66 188.98 427 181 448.66 154 472 182"/><circle class="cls-4" cx="436" cy="190" r="13"/><circle class="cls-4" cx="462" cy="190" r="13"/><path class="cls-4" d="M465.47,214H431.53l.12-.06A24.26,24.26,0,0,0,445,192.28V182h7v10.28a24.26,24.26,0,0,0,13.35,21.66Z"/><path class="cls-4" d="M550.76,256H346.57l-3.07-10.28A40.22,40.22,0,0,1,382,194H515.28a40.23,40.23,0,0,1,38.55,51.72Z"/><path class="cls-1" d="M339.22,224.12l-8.72-10.91-8.72,10.91A31,31,0,0,0,315,243.47V252h31v-8.53A31,31,0,0,0,339.22,224.12Z"/><path class="cls-1" d="M386.22,224.12l-8.72-10.91-8.72,10.91A31,31,0,0,0,362,243.47V252h31v-8.53A31,31,0,0,0,386.22,224.12Z"/><path class="cls-1" d="M434.22,224.12l-8.72-10.91-8.72,10.91A31,31,0,0,0,410,243.47V252h31v-8.53A31,31,0,0,0,434.22,224.12Z"/><path class="cls-1" d="M481.22,224.12l-8.72-10.91-8.72,10.91A31,31,0,0,0,457,243.47V252h31v-8.53A31,31,0,0,0,481.22,224.12Z"/><path class="cls-1" d="M528.22,224.12l-8.72-10.91-8.72,10.91A31,31,0,0,0,504,243.47V252h31v-8.53A31,31,0,0,0,528.22,224.12Z"/><path class="cls-1" d="M576.22,224.12l-8.72-10.91-8.72,10.91A31,31,0,0,0,552,243.47V252h31v-8.53A31,31,0,0,0,576.22,224.12Z"/><polygon class="cls-4" points="560.62 323 336.71 323 316.28 253.55 581.04 253.55 560.62 323"/><rect class="cls-1" x="316.28" y="271.09" width="264.98" height="6"/><rect class="cls-1" x="314" y="251.69" width="269.54" height="6"/><rect class="cls-1" x="418.35" y="188" width="60.88" height="6"/><polygon class="cls-4" points="255.59 576.61 240.18 581.03 187.54 399.16 202.95 394.74 255.59 576.61"/><circle class="cls-1" cx="192.71" cy="388.14" r="19.47"/><rect class="cls-4" x="182.88" y="402.76" width="29.78" height="6" transform="translate(-104.31 70.35) rotate(-16.02)"/><polygon class="cls-4" points="202.96 338.01 182.28 351.81 157.43 351.09 172.59 318.06 202.96 338.01"/><circle class="cls-4" cx="169.78" cy="356" r="13.17"/><circle class="cls-4" cx="195.1" cy="348.73" r="13.17"/><path class="cls-4" d="M205.25,371.44l-32,9.19A24.34,24.34,0,0,0,180,356.17l-2.87-10,6.6-1.9,2.87,10a24.37,24.37,0,0,0,18.69,17.17Z"/><rect class="cls-4" x="170.91" y="373.03" width="36.65" height="6" transform="translate(-96.44 66.84) rotate(-16.02)"/><rect class="cls-4" x="154.75" y="304.79" width="29.78" height="6" transform="translate(-78.36 58.78) rotate(-16.02)"/><rect class="cls-4" x="168.54" y="292.63" width="6" height="43.52" transform="translate(-80.1 59.55) rotate(-16.02)"/><path class="cls-1" d="M265.92,690.13,243.35,676.4a44.47,44.47,0,0,1-20-25.77l-9.65-33a29.12,29.12,0,0,1,19.78-36.11l43.23-12.63a8,8,0,1,1,4.5,15.39l11.44,6.09L295,614l8,11-14,8,11,34Z"/><path class="cls-2" d="M241.52,680.08a47.32,47.32,0,0,1-21.34-27.51l-9.65-33a32.1,32.1,0,0,1,21.82-39.82l43.23-12.63a11,11,0,1,1,6.18,21.15l-41.49,12.12-1.68-5.76,41.49-12.12a5,5,0,1,0-2.81-9.63L234,585.47a26.12,26.12,0,0,0-17.74,32.38l9.65,33a41.36,41.36,0,0,0,18.64,24Z"/><path class="cls-2" d="M245.86,615.42l-1.68-5.76,42.17-12.32a5,5,0,1,0-2.81-9.63l-30.08,8.79-1.68-5.76L281.86,582A11,11,0,1,1,288,603.1Z"/><path class="cls-2" d="M250.36,630.81l-1.68-5.76,42.17-12.32A5,5,0,1,0,288,603.1l-29,8.47-1.68-5.76,29-8.47a11,11,0,1,1,6.18,21.15Z"/><path class="cls-2" d="M254.85,646.2l-1.68-5.76,42.17-12.32a5,5,0,0,0-2.81-9.63l-32.28,9.43-1.68-5.76,32.28-9.43A11,11,0,0,1,297,633.88Z"/><path class="cls-4" d="M510,486a12,12,0,0,1-12-12c0-10.13,4.85-15.25,9.13-19.77,4-4.24,7.5-7.91,7.5-15.54s-3.48-11.29-7.5-15.55c-4.28-4.53-9.13-9.67-9.13-19.66s4.85-15.13,9.13-19.67c4-4.26,7.5-7.93,7.5-15.54s-3.48-11.29-7.5-15.55c-4.28-4.53-9.13-9.67-9.13-19.67s4.85-15.13,9.13-19.66c4-4.26,7.5-7.94,7.5-15.55h6c0,10-4.86,15.13-9.14,19.67-4,4.25-7.49,7.93-7.49,15.54s3.47,11.29,7.49,15.55c4.28,4.53,9.14,9.67,9.14,19.67s-4.86,15.13-9.14,19.66c-4,4.26-7.49,7.94-7.49,15.55s3.47,11.28,7.49,15.54c4.28,4.53,9.14,9.67,9.14,19.67s-4.86,15.15-9.14,19.67c-4,4.24-7.49,7.91-7.49,15.54a6,6,0,1,0,12,.1h6A12,12,0,0,1,510,486Z"/><path class="cls-4" d="M528,486a12,12,0,0,1-12-12c0-10.13,4.85-15.25,9.13-19.77,4-4.24,7.5-7.91,7.5-15.54s-3.48-11.29-7.5-15.55c-4.28-4.53-9.13-9.67-9.13-19.66s4.85-15.13,9.13-19.67c4-4.26,7.5-7.93,7.5-15.54s-3.48-11.29-7.5-15.55c-4.28-4.53-9.13-9.67-9.13-19.67s4.85-15.13,9.13-19.66c4-4.26,7.5-7.94,7.5-15.55h6c0,10-4.86,15.13-9.14,19.67-4,4.25-7.49,7.93-7.49,15.54s3.47,11.29,7.49,15.55c4.28,4.53,9.14,9.67,9.14,19.67s-4.86,15.13-9.14,19.66c-4,4.26-7.49,7.94-7.49,15.55s3.47,11.28,7.49,15.54c4.28,4.53,9.14,9.67,9.14,19.67s-4.86,15.15-9.14,19.67c-4,4.24-7.49,7.91-7.49,15.54a6,6,0,1,0,12,.1h6A12,12,0,0,1,528,486Z"/><path class="cls-4" d="M546,486a12,12,0,0,1-12-12c0-10.13,4.85-15.25,9.13-19.77,4-4.24,7.5-7.91,7.5-15.54s-3.48-11.29-7.5-15.55c-4.28-4.53-9.13-9.67-9.13-19.66s4.85-15.13,9.13-19.67c4-4.26,7.5-7.93,7.5-15.54s-3.48-11.29-7.5-15.55c-4.28-4.53-9.13-9.67-9.13-19.67s4.85-15.13,9.13-19.66c4-4.26,7.5-7.94,7.5-15.55h6c0,10-4.86,15.13-9.14,19.67-4,4.25-7.49,7.93-7.49,15.54s3.47,11.29,7.49,15.55c4.28,4.53,9.14,9.67,9.14,19.67s-4.86,15.13-9.14,19.66c-4,4.26-7.49,7.94-7.49,15.55s3.47,11.28,7.49,15.54c4.28,4.53,9.14,9.67,9.14,19.67s-4.86,15.15-9.14,19.67c-4,4.24-7.49,7.91-7.49,15.54a6,6,0,1,0,12,.1h6A12,12,0,0,1,546,486Z"/><path class="cls-4" d="M564,486a12,12,0,0,1-12-12c0-10.13,4.85-15.25,9.13-19.77,4-4.24,7.5-7.91,7.5-15.54s-3.48-11.29-7.5-15.55c-4.28-4.53-9.13-9.67-9.13-19.66s4.85-15.13,9.13-19.67c4-4.26,7.5-7.93,7.5-15.54s-3.48-11.29-7.5-15.55c-4.28-4.53-9.13-9.67-9.13-19.67a37.09,37.09,0,0,1,4.4-16.57l5.2,3a31.43,31.43,0,0,0-3.6,13.6c0,7.6,3.47,11.28,7.49,15.54,4.28,4.53,9.14,9.67,9.14,19.67s-4.86,15.13-9.14,19.66c-4,4.26-7.49,7.94-7.49,15.55s3.47,11.28,7.49,15.54c4.28,4.53,9.14,9.67,9.14,19.67s-4.86,15.15-9.14,19.67c-4,4.24-7.49,7.91-7.49,15.54a6,6,0,1,0,12,.1h6A12,12,0,0,1,564,486Z"/><polygon class="cls-2" points="208.54 920.63 422 852.6 635.45 920.63 422 1169.03 208.54 920.63"/><circle class="cls-2" cx="541.5" cy="846.5" r="119.5"/><circle class="cls-2" cx="302.5" cy="847.5" r="119.5"/><path class="cls-2" d="M359,622H572.3A219.48,219.48,0,0,0,453,817.28V911H391V817.53a219.8,219.8,0,0,0-35.45-119.77Z"/><path class="cls-1" d="M246,705l111,5h35l20,31a27.06,27.06,0,0,1,26.23,20.38L462,854.53l.28,154.47H239l6-72-17.37-30.78a13.37,13.37,0,0,1,1.56-15.33l11.05-12.68a17.88,17.88,0,0,0,.52-22.85l-7.17-9A24.13,24.13,0,0,1,232,818.55L244.22,799Z"/><path class="cls-3" d="M462.25,931h-31.2a25.43,25.43,0,0,1-21-11.14l-10.55-15.51,15.84-58.07A9.72,9.72,0,0,0,405.92,834H392V710h63l7,8Z"/><path class="cls-4" d="M384,931H345.8a28.4,28.4,0,0,1-23.51-12.45l5-3.37A22.41,22.41,0,0,0,345.8,925H384Z"/><path class="cls-4" d="M467,931H429.35a28.4,28.4,0,0,1-23.52-12.45l5-3.37A22.42,22.42,0,0,0,429.35,925H467Z"/><polygon class="cls-3" points="330 711.01 392 620.16 392 710 330 711.01"/><path class="cls-4" d="M376.33,786h27.83A10.84,10.84,0,0,1,415,796.84V797H367.4Z"/><polygon class="cls-1" points="326.75 883 359.25 883 367.92 896 334.33 896 326.75 883"/><polygon class="cls-1" points="418 881 439.42 881 447.99 896 421.21 899.21 418 893.85 418 881"/><path class="cls-4" d="M414.32,894h36.3l12.1,11H423.94a11.47,11.47,0,0,1-8.65-3.93l-12-13.67Z"/><path class="cls-4" d="M420.79,875h13.79a10.85,10.85,0,0,1,9.71,6H414.73A6.06,6.06,0,0,1,420.79,875Z"/><path class="cls-4" d="M431,875h19a0,0,0,0,1,0,0v19a0,0,0,0,1,0,0H440a9,9,0,0,1-9-9V875A0,0,0,0,1,431,875Z" transform="translate(881 1769) rotate(180)"/><polygon class="cls-1" points="340 881 361.42 881 369.99 896 343.21 899.21 340 893.85 340 881"/><path class="cls-4" d="M337.23,894h35.2l12.1,11H345.75a11.47,11.47,0,0,1-8.65-3.93l-12-13.67Z"/><path class="cls-4" d="M342.6,875h13.79a10.85,10.85,0,0,1,9.71,6H336.54A6.06,6.06,0,0,1,342.6,875Z"/><path class="cls-4" d="M353,875h19a0,0,0,0,1,0,0v19a0,0,0,0,1,0,0H362a9,9,0,0,1-9-9V875A0,0,0,0,1,353,875Z" transform="translate(725 1769) rotate(180)"/><path class="cls-3" d="M324.15,846.85a23.92,23.92,0,0,1,43.45,20Z"/><path class="cls-4" d="M415.82,900.37l-14-15.17,11.38-39A7.95,7.95,0,0,0,405.58,836H392v-6h13.58A13.94,13.94,0,0,1,419,847.84l-10.43,35.78,11.7,12.68Z"/><polygon class="cls-4" points="387.83 846.59 380.17 837 373 837 373 831 383.05 831 392.52 842.84 387.83 846.59"/><rect class="cls-4" x="330.45" y="881.58" width="6" height="18.95" transform="translate(-515.95 462.47) rotate(-42.71)"/><rect class="cls-2" x="721" y="630" width="6" height="371"/><polygon class="cls-2" points="704.2 1065.47 724.88 1058.87 745.57 1065.47 724.88 1089.53 704.2 1065.47"/><circle class="cls-2" cx="736.5" cy="1058.5" r="11.5"/><circle class="cls-2" cx="713.5" cy="1058.5" r="11.5"/><path class="cls-2" d="M710.45,1037h29.1A21.26,21.26,0,0,0,728,1055.91V1065h-6v-9.09A21.26,21.26,0,0,0,710.45,1037Z"/><path class="cls-2" d="M751.36,1203.71a3.4,3.4,0,0,0,3,1.38,4.63,4.63,0,0,0,4.2-2l6.6,4.92a11.23,11.23,0,0,1-4,4.26,12.72,12.72,0,0,1-7.14,1.86q-6.36,0-9.9-3.78a13.73,13.73,0,0,1-3.54-9.78v-24.48l-3.6.12a17.12,17.12,0,0,0-7,1.44,19.91,19.91,0,0,0-3.42,1.86,11.88,11.88,0,0,0-2.34,2.22,102.12,102.12,0,0,0-7.8,12q-3.84,6.48-9.6,18.72H696q10.44-19.56,13.08-24.24,3.84-6.72,6.24-10.08a29.2,29.2,0,0,1,3.3-4.14q1.5-1.5,2.46-2.34l-21.84-31a6.34,6.34,0,0,0-1.68-1.74,3.8,3.8,0,0,0-1.92-.42,2.47,2.47,0,0,0-2.16,1.44l-7.44-5.28a11.46,11.46,0,0,1,4.44-4.08,11.23,11.23,0,0,1,5.16-1.44,13.34,13.34,0,0,1,5.94,1.38,11,11,0,0,1,4.38,3.66l23.52,33.36a31.76,31.76,0,0,1,4.8-1,44.92,44.92,0,0,1,6-.12v-36.36H750.4v70.44A5.43,5.43,0,0,0,751.36,1203.71Z"/><path class="cls-2" d="M654,1199H116.54A43.59,43.59,0,0,1,73,1155.46V635h6v520.46A37.58,37.58,0,0,0,116.54,1193H654Z"/><path class="cls-4" d="M411.44,812H372.56A19.59,19.59,0,0,1,353,792.44V719h6v73.44A13.57,13.57,0,0,0,372.56,806h38.88A13.57,13.57,0,0,0,425,792.44V719h6v73.44A19.59,19.59,0,0,1,411.44,812Z"/><path class="cls-4" d="M449,760h-6V713.53a12,12,0,0,1,24,0h-6a6,6,0,0,0-12,0Z"/><path class="cls-4" d="M341,760h-6V713.53a6,6,0,0,0-12,0h-6a12,12,0,0,1,24,0Z"/><path class="cls-4" d="M377,760h-6V713.53a6,6,0,0,0-12,0h-6a12,12,0,0,1,24,0Z"/><path class="cls-4" d="M413,775h-6V713.53a12,12,0,0,1,24,0h-6a6,6,0,0,0-12,0Z"/><rect class="cls-4" x="389" y="716" width="6" height="44"/><rect class="cls-4" x="371" y="716" width="6" height="59"/><rect class="cls-4" x="335" y="719" width="6" height="60"/><rect class="cls-4" x="443" y="719" width="6" height="60"/><polygon class="cls-4" points="327.88 1087.53 351.22 1080.56 372.88 1088.53 351.22 1115.53 327.88 1087.53"/><circle class="cls-4" cx="364" cy="1080" r="13"/><circle class="cls-4" cx="338" cy="1080" r="13"/><path class="cls-4" d="M334.53,1056h33.94l-.12.06A24.26,24.26,0,0,0,355,1077.72V1088h-7v-10.28a24.26,24.26,0,0,0-13.35-21.66Z"/><path class="cls-4" d="M249.12,1014h204.2l3.06,10.28A40.22,40.22,0,0,1,417.84,1076H284.6a40.22,40.22,0,0,1-38.54-51.72Z"/><path class="cls-1" d="M460.78,1045.88l8.72,10.91,8.72-10.91a31,31,0,0,0,6.78-19.35V1018H454v8.53A31,31,0,0,0,460.78,1045.88Z"/><path class="cls-1" d="M413.78,1045.88l8.72,10.91,8.72-10.91a31,31,0,0,0,6.78-19.35V1018H407v8.53A31,31,0,0,0,413.78,1045.88Z"/><path class="cls-1" d="M365.78,1045.88l8.72,10.91,8.72-10.91a31,31,0,0,0,6.78-19.35V1018H359v8.53A31,31,0,0,0,365.78,1045.88Z"/><path class="cls-1" d="M318.78,1045.88l8.72,10.91,8.72-10.91a31,31,0,0,0,6.78-19.35V1018H312v8.53A31,31,0,0,0,318.78,1045.88Z"/><path class="cls-1" d="M271.78,1045.88l8.72,10.91,8.72-10.91a31,31,0,0,0,6.78-19.35V1018H265v8.53A31,31,0,0,0,271.78,1045.88Z"/><path class="cls-1" d="M223.78,1045.88l8.72,10.91,8.72-10.91a31,31,0,0,0,6.78-19.35V1018H217v8.53A31,31,0,0,0,223.78,1045.88Z"/><polygon class="cls-4" points="239.99 947 462.45 947 482.75 1016 219.69 1016 239.99 947"/><rect class="cls-1" x="219" y="992" width="265" height="6"/><rect class="cls-1" x="216" y="1012" width="270" height="6"/><rect class="cls-1" x="321" y="1076" width="61" height="6"/><polygon class="cls-4" points="544.29 692.92 559.71 688.5 612.35 870.37 596.93 874.8 544.29 692.92"/><circle class="cls-1" cx="607.5" cy="881.5" r="19.49"/><rect class="cls-4" x="587.22" y="860.78" width="29.78" height="6" transform="translate(-215.02 199.74) rotate(-16.02)"/><polygon class="cls-4" points="596.92 931.52 617.6 917.73 642.45 918.45 627.29 951.48 596.92 931.52"/><circle class="cls-4" cx="630" cy="914" r="13"/><circle class="cls-4" cx="605" cy="921" r="13"/><path class="cls-4" d="M594.63,898.1l32-9.2a24.36,24.36,0,0,0-6.74,24.47l2.88,10-6.61,1.9-2.87-10a24.33,24.33,0,0,0-18.69-17.16Z"/><rect class="cls-4" x="592.32" y="890.5" width="36.65" height="6" transform="translate(-222.89 203.25) rotate(-16.02)"/><rect class="cls-4" x="615.35" y="958.75" width="29.78" height="6" transform="translate(-240.97 211.31) rotate(-16.02)"/><rect class="cls-4" x="625.34" y="933.38" width="6" height="43.52" transform="translate(-239.18 210.49) rotate(-16.02)"/><path class="cls-1" d="M534,579.41l22.57,13.72a44.49,44.49,0,0,1,20,25.78l9.65,33a29.11,29.11,0,0,1-19.78,36.1l-43.23,12.63a8,8,0,0,1-4.5-15.39l-11.44-6.09-2.34-23.67-8-11,14-8-11-34Z"/><path class="cls-2" d="M521.22,702.9a11,11,0,0,1-3.1-21.59l41.5-12.13,1.68,5.76-41.5,12.13a5,5,0,1,0,2.82,9.63l43.23-12.63a26.11,26.11,0,0,0,17.74-32.39l-9.65-33a41.39,41.39,0,0,0-18.64-24l3.06-5.16A47.3,47.3,0,0,1,579.7,617l9.65,33a32.15,32.15,0,0,1-21.82,39.83L524.3,702.46A11,11,0,0,1,521.22,702.9Z"/><path class="cls-2" d="M514.92,688a11,11,0,0,1-3.07-21.6L554,654.12l1.68,5.76-42.17,12.31a5,5,0,1,0,2.81,9.63L546.42,673l1.69,5.76L518,687.58A11.09,11.09,0,0,1,514.92,688Z"/><path class="cls-2" d="M510.45,672.64a11,11,0,0,1-3.1-21.6l42.17-12.32,1.69,5.76L509,656.8a5,5,0,1,0,2.81,9.63l29-8.46,1.68,5.76-29,8.46A11,11,0,0,1,510.45,672.64Z"/><path class="cls-2" d="M506,657.25a11,11,0,0,1-3.09-21.6L545,623.33l1.68,5.76-42.17,12.32a5,5,0,1,0,2.81,9.63l32.28-9.42,1.68,5.76L509,656.8A11.06,11.06,0,0,1,506,657.25Z"/><path class="cls-4" d="M285.38,971.66h-6c0-10,4.85-15.13,9.13-19.66,4-4.26,7.49-7.94,7.49-15.55s-3.47-11.29-7.49-15.55c-4.28-4.53-9.13-9.67-9.13-19.66s4.85-15.14,9.13-19.67c4-4.26,7.49-7.93,7.49-15.54s-3.47-11.29-7.49-15.55c-4.28-4.53-9.13-9.67-9.13-19.66s4.85-15.15,9.13-19.67c4-4.25,7.49-7.91,7.49-15.55a6,6,0,1,0-11.95-.09h-6a12,12,0,1,1,23.95,0c0,10.12-4.85,15.24-9.13,19.76-4,4.24-7.49,7.91-7.49,15.55s3.47,11.28,7.49,15.54C297.15,850.89,302,856,302,866s-4.85,15.13-9.13,19.66c-4,4.26-7.49,7.94-7.49,15.55s3.47,11.28,7.49,15.54c4.28,4.54,9.13,9.67,9.13,19.67s-4.85,15.13-9.13,19.67C288.85,960.38,285.38,964.05,285.38,971.66Z"/><path class="cls-4" d="M267.38,971.66h-6c0-10,4.85-15.13,9.13-19.66,4-4.26,7.49-7.94,7.49-15.55s-3.47-11.29-7.49-15.55c-4.28-4.53-9.13-9.67-9.13-19.66s4.85-15.14,9.13-19.67c4-4.26,7.49-7.93,7.49-15.54s-3.47-11.29-7.49-15.55c-4.28-4.53-9.13-9.67-9.13-19.66s4.85-15.15,9.13-19.67c4-4.25,7.49-7.91,7.49-15.55a6,6,0,1,0-11.95-.09h-6a12,12,0,1,1,23.95,0c0,10.12-4.85,15.24-9.13,19.76-4,4.24-7.49,7.91-7.49,15.55s3.47,11.28,7.49,15.54C279.15,850.89,284,856,284,866s-4.85,15.13-9.13,19.66c-4,4.26-7.49,7.94-7.49,15.55s3.47,11.28,7.49,15.54c4.28,4.54,9.13,9.67,9.13,19.67s-4.85,15.13-9.13,19.67C270.85,960.38,267.38,964.05,267.38,971.66Z"/><path class="cls-4" d="M249.38,971.66h-6c0-10,4.85-15.13,9.13-19.66,4-4.26,7.49-7.94,7.49-15.55s-3.47-11.29-7.49-15.55c-4.28-4.53-9.13-9.67-9.13-19.66s4.85-15.14,9.13-19.67c4-4.26,7.49-7.93,7.49-15.54s-3.47-11.29-7.49-15.55c-4.28-4.53-9.13-9.67-9.13-19.66s4.85-15.15,9.13-19.67c4-4.25,7.49-7.91,7.49-15.55a6,6,0,1,0-11.95-.09h-6a12,12,0,1,1,23.95,0c0,10.12-4.85,15.24-9.13,19.76-4,4.24-7.49,7.91-7.49,15.55s3.47,11.28,7.49,15.54C261.15,850.89,266,856,266,866s-4.85,15.13-9.13,19.66c-4,4.26-7.49,7.94-7.49,15.55s3.47,11.28,7.49,15.54c4.28,4.54,9.13,9.67,9.13,19.67s-4.85,15.13-9.13,19.67C252.85,960.38,249.38,964.05,249.38,971.66Z"/><path class="cls-4" d="M243.6,953l-5.2-3a31.46,31.46,0,0,0,3.6-13.61c0-7.6-3.47-11.28-7.49-15.54-4.28-4.53-9.13-9.67-9.13-19.66s4.85-15.14,9.13-19.67c4-4.26,7.49-7.93,7.49-15.54s-3.47-11.29-7.49-15.55c-4.28-4.53-9.13-9.67-9.13-19.66s4.85-15.15,9.13-19.67c4-4.25,7.49-7.91,7.49-15.55a6,6,0,1,0-11.95-.09h-6a12,12,0,1,1,23.95,0c0,10.12-4.85,15.24-9.13,19.76-4,4.24-7.49,7.91-7.49,15.55s3.47,11.28,7.49,15.54C243.15,850.89,248,856,248,866s-4.85,15.13-9.13,19.66c-4,4.26-7.49,7.94-7.49,15.55s3.47,11.28,7.49,15.54c4.28,4.54,9.13,9.67,9.13,19.67A37.06,37.06,0,0,1,243.6,953Z"/><rect class="cls-4" x="120.03" y="632" width="559.95" height="6" transform="translate(-193.42 175.57) rotate(-20.05)"/><circle class="cls-1" cx="400" cy="635" r="68"/><circle class="cls-4" cx="400" cy="635" r="57.12"/><polygon class="cls-1" points="427.6 631.75 400 640.55 372.4 631.75 400 599.64 427.6 631.75"/><circle class="cls-1" cx="384.59" cy="641.27" r="15.46"/><circle class="cls-1" cx="415.41" cy="641.27" r="15.46"/><path class="cls-1" d="M419.48,670.36h-39A28.4,28.4,0,0,0,396,645.08V633h8v12.08a28.4,28.4,0,0,0,15.46,25.28Z"/></g></svg>