<svg xmlns="http://www.w3.org/2000/svg" viewBox="0 0 800 1274"><defs><style>.cls-1{fill:#f2f0eb;}.cls-2{fill:#3e95a3;}.cls-3{fill:#d39c53;}.cls-4{fill:#27282b;}</style></defs><title>Ks</title><g id="Layer_2" data-name="Layer 2"><rect class="cls-1" width="800" height="1274"/></g><g id="Layer_1" data-name="Layer 1"><polygon class="cls-2" points="591.34 352.9 377.88 420.93 164.43 352.9 377.89 104.5 591.34 352.9"/><circle class="cls-2" cx="258.29" cy="427.36" r="119.57"/><circle class="cls-2" cx="497.09" cy="426.49" r="119.57"/><path class="cls-2" d="M441,651.5H227.25A219.64,219.64,0,0,0,346.82,456V362.52H409V456a219.44,219.44,0,0,0,35.52,119.76Z"/><path class="cls-1" d="M554,569l-111-5H408l-20-31a27.06,27.06,0,0,1-26.23-20.38L338,419.47,337.72,265H561l-6,72,17.37,30.78a13.37,13.37,0,0,1-1.56,15.33l-11,12.68a17.88,17.88,0,0,0-.52,22.85l7.17,9A24.13,24.13,0,0,1,568,455.45L555.78,475Z"/><path class="cls-3" d="M337.71,343H369a25.43,25.43,0,0,1,21,11.14l10.55,15.51L384.7,427.72A9.72,9.72,0,0,0,394.08,440H408V564H345l-7-8Z"/><path class="cls-4" d="M472.64,358.82A22.43,22.43,0,0,0,454.08,349H416v-6h38.08a28.41,28.41,0,0,1,23.52,12.45Z"/><path class="cls-4" d="M389.09,358.82A22.42,22.42,0,0,0,370.53,349H333v-6h37.53a28.4,28.4,0,0,1,23.52,12.45Z"/><polygon class="cls-3" points="470 562.99 408 653.84 408 564 470 562.99"/><path class="cls-4" d="M423.63,488H395.8A10.84,10.84,0,0,1,385,477.16V477h47.61Z"/><polygon class="cls-1" points="473.13 391 440.63 391 431.97 378 465.55 378 473.13 391"/><polygon class="cls-1" points="382 393 360.58 393 352.01 378 378.79 374.79 382 380.15 382 393"/><path class="cls-4" d="M385.56,380h-36.3l-12.1-11H376a11.5,11.5,0,0,1,8.65,3.93l12,13.67Z"/><path class="cls-4" d="M379.1,399H365.3a10.83,10.83,0,0,1-9.7-6h29.55A6.05,6.05,0,0,1,379.1,399Z"/><path class="cls-4" d="M350,380h19a0,0,0,0,1,0,0v19a0,0,0,0,1,0,0H359a9,9,0,0,1-9-9V380A0,0,0,0,1,350,380Z"/><polygon class="cls-1" points="460 393 438.58 393 430.01 378 456.79 374.79 460 380.15 460 393"/><path class="cls-4" d="M462.65,380h-35.2l-12.1-11h38.79a11.5,11.5,0,0,1,8.65,3.93l12,13.67Z"/><path class="cls-4" d="M457.28,399H443.49a10.83,10.83,0,0,1-9.7-6h29.55A6.06,6.06,0,0,1,457.28,399Z"/><path class="cls-4" d="M428,380h19a0,0,0,0,1,0,0v19a0,0,0,0,1,0,0H437a9,9,0,0,1-9-9V380A0,0,0,0,1,428,380Z"/><path class="cls-3" d="M475.73,426.68a23.92,23.92,0,1,1-43.45-20Z"/><path class="cls-4" d="M408,444H394.3a13.94,13.94,0,0,1-13.38-17.84l10.44-35.78L379.65,377.7l4.41-4.07,14,15.17-11.39,39A7.95,7.95,0,0,0,394.3,438H408Z"/><polygon class="cls-4" points="427 443 416.83 443 407.36 431.16 412.05 427.42 419.72 437 427 437 427 443"/><rect class="cls-4" x="463.44" y="373" width="6" height="18.95" transform="translate(-135.73 417.8) rotate(-42.71)"/><rect class="cls-2" x="73" y="271" width="6" height="368"/><polygon class="cls-2" points="95.68 206.07 75 212.66 54.32 206.07 75 182 95.68 206.07"/><circle class="cls-2" cx="63.45" cy="213.2" r="11.59"/><circle class="cls-2" cx="86.55" cy="213.2" r="11.59"/><path class="cls-2" d="M89.6,235H60.4A21.27,21.27,0,0,0,72,216.06V207h6v9.06A21.27,21.27,0,0,0,89.6,235Z"/><path class="cls-2" d="M48.52,67.83a3.4,3.4,0,0,0-3-1.38,4.63,4.63,0,0,0-4.2,2l-6.6-4.92a11.23,11.23,0,0,1,4-4.26,12.72,12.72,0,0,1,7.14-1.86q6.36,0,9.9,3.78A13.73,13.73,0,0,1,59.32,71V95.49l3.6-.12a17.29,17.29,0,0,0,7-1.44,19.91,19.91,0,0,0,3.42-1.86,12.18,12.18,0,0,0,2.34-2.22,102.12,102.12,0,0,0,7.8-12q3.84-6.48,9.6-18.72h10.8Q93.4,78.69,90.76,83.37q-3.84,6.72-6.24,10.08a29.2,29.2,0,0,1-3.3,4.14q-1.5,1.5-2.46,2.34l21.84,31a6.34,6.34,0,0,0,1.68,1.74,3.8,3.8,0,0,0,1.92.42,2.47,2.47,0,0,0,2.16-1.44l7.44,5.28a11.46,11.46,0,0,1-4.44,4.08,11.23,11.23,0,0,1-5.16,1.44A13.34,13.34,0,0,1,98.26,141a11,11,0,0,1-4.38-3.66L70.36,104a31.76,31.76,0,0,1-4.8,1,44.92,44.92,0,0,1-6,.12v36.36H49.48V71A5.43,5.43,0,0,0,48.52,67.83Z"/><path class="cls-2" d="M727,634h-6V116.54A37.58,37.58,0,0,0,683.46,79H146V73H683.46A43.59,43.59,0,0,1,727,116.54Z"/><path class="cls-4" d="M447,550h-6V476.56A13.57,13.57,0,0,0,427.44,463H388.56A13.57,13.57,0,0,0,375,476.56V550h-6V476.56A19.59,19.59,0,0,1,388.56,457h38.88A19.59,19.59,0,0,1,447,476.56Z"/><path class="cls-4" d="M345,567a12,12,0,0,1-12-12h6a6,6,0,0,0,12,0V509h6v46A12,12,0,0,1,345,567Z"/><path class="cls-4" d="M471,567a12,12,0,0,1-12-12V509h6v46a6,6,0,0,0,12,0h6A12,12,0,0,1,471,567Z"/><path class="cls-4" d="M435,567a12,12,0,0,1-12-12V509h6v46a6,6,0,0,0,12,0h6A12,12,0,0,1,435,567Z"/><path class="cls-4" d="M381,567a12,12,0,0,1-12-12h6a6,6,0,0,0,12,0V494h6v61A12,12,0,0,1,381,567Z"/><rect class="cls-4" x="405" y="509" width="6" height="44"/><rect class="cls-4" x="423" y="494" width="6" height="59"/><rect class="cls-4" x="459" y="490" width="6" height="60"/><rect class="cls-4" x="351" y="490" width="6" height="60"/><polygon class="cls-4" points="472 186 448.66 192.98 427 185 448.66 158 472 186"/><circle class="cls-4" cx="436" cy="194" r="13"/><circle class="cls-4" cx="462" cy="194" r="13"/><path class="cls-4" d="M465.47,218H431.53l.12-.06A24.26,24.26,0,0,0,445,196.28V186h7v10.28a24.26,24.26,0,0,0,13.35,21.66Z"/><path class="cls-4" d="M550.76,260H346.57l-3.07-10.28A40.22,40.22,0,0,1,382,198H515.28a40.23,40.23,0,0,1,38.55,51.72Z"/><path class="cls-1" d="M339.22,228.12l-8.72-10.91-8.72,10.91A31,31,0,0,0,315,247.47V256h31v-8.53A31,31,0,0,0,339.22,228.12Z"/><path class="cls-1" d="M386.22,228.12l-8.72-10.91-8.72,10.91A31,31,0,0,0,362,247.47V256h31v-8.53A31,31,0,0,0,386.22,228.12Z"/><path class="cls-1" d="M434.22,228.12l-8.72-10.91-8.72,10.91A31,31,0,0,0,410,247.47V256h31v-8.53A31,31,0,0,0,434.22,228.12Z"/><path class="cls-1" d="M481.22,228.12l-8.72-10.91-8.72,10.91A31,31,0,0,0,457,247.47V256h31v-8.53A31,31,0,0,0,481.22,228.12Z"/><path class="cls-1" d="M528.22,228.12l-8.72-10.91-8.72,10.91A31,31,0,0,0,504,247.47V256h31v-8.53A31,31,0,0,0,528.22,228.12Z"/><path class="cls-1" d="M576.22,228.12l-8.72-10.91-8.72,10.91A31,31,0,0,0,552,247.47V256h31v-8.53A31,31,0,0,0,576.22,228.12Z"/><polygon class="cls-4" points="560.62 327 336.71 327 316.28 257.55 581.04 257.55 560.62 327"/><rect class="cls-1" x="316.28" y="275.09" width="264.98" height="6"/><rect class="cls-1" x="314" y="255.69" width="269.54" height="6"/><rect class="cls-1" x="418.35" y="192" width="60.88" height="6"/><polygon class="cls-4" points="255.59 580.61 240.18 585.03 187.54 403.16 202.95 398.74 255.59 580.61"/><circle class="cls-1" cx="192.71" cy="392.14" r="19.47"/><rect class="cls-4" x="182.88" y="406.76" width="29.78" height="6" transform="translate(-105.41 70.5) rotate(-16.02)"/><polygon class="cls-4" points="202.96 342.01 182.28 355.81 157.43 355.09 172.59 322.06 202.96 342.01"/><circle class="cls-4" cx="169.78" cy="360" r="13.17"/><circle class="cls-4" cx="195.1" cy="352.73" r="13.17"/><path class="cls-4" d="M205.25,375.44l-32,9.19A24.34,24.34,0,0,0,180,360.17l-2.87-10,6.6-1.9,2.87,10a24.37,24.37,0,0,0,18.69,17.17Z"/><rect class="cls-4" x="170.91" y="377.03" width="36.65" height="6" transform="translate(-97.54 66.99) rotate(-16.02)"/><rect class="cls-4" x="154.75" y="308.79" width="29.78" height="6" transform="translate(-79.47 58.93) rotate(-16.02)"/><rect class="cls-4" x="168.54" y="296.63" width="6" height="43.52" transform="translate(-81.2 59.7) rotate(-16.02)"/><path class="cls-1" d="M265.92,694.13,243.35,680.4a44.47,44.47,0,0,1-20-25.77l-9.65-33a29.12,29.12,0,0,1,19.78-36.11l43.23-12.63a8,8,0,1,1,4.5,15.39l11.44,6.09L295,618l8,11-14,8,11,34Z"/><path class="cls-2" d="M241.52,684.08a47.32,47.32,0,0,1-21.34-27.51l-9.65-33a32.1,32.1,0,0,1,21.82-39.82l43.23-12.63a11,11,0,1,1,6.18,21.15l-41.49,12.12-1.68-5.76,41.49-12.12a5,5,0,1,0-2.81-9.63L234,589.47a26.12,26.12,0,0,0-17.74,32.38l9.65,33a41.36,41.36,0,0,0,18.64,24Z"/><path class="cls-2" d="M245.86,619.42l-1.68-5.76,42.17-12.32a5,5,0,1,0-2.81-9.63l-30.08,8.79-1.68-5.76L281.86,586A11,11,0,1,1,288,607.1Z"/><path class="cls-2" d="M250.36,634.81l-1.68-5.76,42.17-12.32A5,5,0,1,0,288,607.1l-29,8.47-1.68-5.76,29-8.47a11,11,0,1,1,6.18,21.15Z"/><path class="cls-2" d="M254.85,650.2l-1.68-5.76,42.17-12.32a5,5,0,0,0-2.81-9.63l-32.28,9.43-1.68-5.76,32.28-9.43A11,11,0,0,1,297,637.88Z"/><path class="cls-4" d="M510,490a12,12,0,0,1-12-12c0-10.13,4.85-15.25,9.13-19.77,4-4.24,7.5-7.91,7.5-15.54s-3.48-11.29-7.5-15.55c-4.28-4.53-9.13-9.67-9.13-19.66s4.85-15.13,9.13-19.67c4-4.26,7.5-7.93,7.5-15.54s-3.48-11.29-7.5-15.55c-4.28-4.53-9.13-9.67-9.13-19.67s4.85-15.13,9.13-19.66c4-4.26,7.5-7.94,7.5-15.55h6c0,10-4.86,15.13-9.14,19.67-4,4.25-7.49,7.93-7.49,15.54s3.47,11.29,7.49,15.55c4.28,4.53,9.14,9.67,9.14,19.67s-4.86,15.13-9.14,19.66c-4,4.26-7.49,7.94-7.49,15.55s3.47,11.28,7.49,15.54c4.28,4.53,9.14,9.67,9.14,19.67s-4.86,15.15-9.14,19.67c-4,4.24-7.49,7.91-7.49,15.54a6,6,0,1,0,12,.1h6A12,12,0,0,1,510,490Z"/><path class="cls-4" d="M528,490a12,12,0,0,1-12-12c0-10.13,4.85-15.25,9.13-19.77,4-4.24,7.5-7.91,7.5-15.54s-3.48-11.29-7.5-15.55c-4.28-4.53-9.13-9.67-9.13-19.66s4.85-15.13,9.13-19.67c4-4.26,7.5-7.93,7.5-15.54s-3.48-11.29-7.5-15.55c-4.28-4.53-9.13-9.67-9.13-19.67s4.85-15.13,9.13-19.66c4-4.26,7.5-7.94,7.5-15.55h6c0,10-4.86,15.13-9.14,19.67-4,4.25-7.49,7.93-7.49,15.54s3.47,11.29,7.49,15.55c4.28,4.53,9.14,9.67,9.14,19.67s-4.86,15.13-9.14,19.66c-4,4.26-7.49,7.94-7.49,15.55s3.47,11.28,7.49,15.54c4.28,4.53,9.14,9.67,9.14,19.67s-4.86,15.15-9.14,19.67c-4,4.24-7.49,7.91-7.49,15.54a6,6,0,1,0,12,.1h6A12,12,0,0,1,528,490Z"/><path class="cls-4" d="M546,490a12,12,0,0,1-12-12c0-10.13,4.85-15.25,9.13-19.77,4-4.24,7.5-7.91,7.5-15.54s-3.48-11.29-7.5-15.55c-4.28-4.53-9.13-9.67-9.13-19.66s4.85-15.13,9.13-19.67c4-4.26,7.5-7.93,7.5-15.54s-3.48-11.29-7.5-15.55c-4.28-4.53-9.13-9.67-9.13-19.67s4.85-15.13,9.13-19.66c4-4.26,7.5-7.94,7.5-15.55h6c0,10-4.86,15.13-9.14,19.67-4,4.25-7.49,7.93-7.49,15.54s3.47,11.29,7.49,15.55c4.28,4.53,9.14,9.67,9.14,19.67s-4.86,15.13-9.14,19.66c-4,4.26-7.49,7.94-7.49,15.55s3.47,11.28,7.49,15.54c4.28,4.53,9.14,9.67,9.14,19.67s-4.86,15.15-9.14,19.67c-4,4.24-7.49,7.91-7.49,15.54a6,6,0,1,0,12,.1h6A12,12,0,0,1,546,490Z"/><path class="cls-4" d="M564,490a12,12,0,0,1-12-12c0-10.13,4.85-15.25,9.13-19.77,4-4.24,7.5-7.91,7.5-15.54s-3.48-11.29-7.5-15.55c-4.28-4.53-9.13-9.67-9.13-19.66s4.85-15.13,9.13-19.67c4-4.26,7.5-7.93,7.5-15.54s-3.48-11.29-7.5-15.55c-4.28-4.53-9.13-9.67-9.13-19.67a37.09,37.09,0,0,1,4.4-16.57l5.2,3a31.43,31.43,0,0,0-3.6,13.6c0,7.6,3.47,11.28,7.49,15.54,4.28,4.53,9.14,9.67,9.14,19.67s-4.86,15.13-9.14,19.66c-4,4.26-7.49,7.94-7.49,15.55s3.47,11.28,7.49,15.54c4.28,4.53,9.14,9.67,9.14,19.67s-4.86,15.15-9.14,19.67c-4,4.24-7.49,7.91-7.49,15.54a6,6,0,1,0,12,.1h6A12,12,0,0,1,564,490Z"/><polygon class="cls-2" points="208.54 924.63 422 856.6 635.45 924.63 422 1173.03 208.54 924.63"/><circle class="cls-2" cx="541.5" cy="850.5" r="119.5"/><circle class="cls-2" cx="302.5" cy="851.5" r="119.5"/><path class="cls-2" d="M359,626H572.3A219.48,219.48,0,0,0,453,821.28V915H391V821.53a219.8,219.8,0,0,0-35.45-119.77Z"/><path class="cls-1" d="M246,709l111,5h35l20,31a27.06,27.06,0,0,1,26.23,20.38L462,858.53l.28,154.47H239l6-72-17.37-30.78a13.37,13.37,0,0,1,1.56-15.33l11.05-12.68a17.88,17.88,0,0,0,.52-22.85l-7.17-9A24.13,24.13,0,0,1,232,822.55L244.22,803Z"/><path class="cls-3" d="M462.25,935h-31.2a25.43,25.43,0,0,1-21-11.14l-10.55-15.51,15.84-58.07A9.72,9.72,0,0,0,405.92,838H392V714h63l7,8Z"/><path class="cls-4" d="M384,935H345.8a28.4,28.4,0,0,1-23.51-12.45l5-3.37A22.41,22.41,0,0,0,345.8,929H384Z"/><path class="cls-4" d="M467,935H429.35a28.4,28.4,0,0,1-23.52-12.45l5-3.37A22.42,22.42,0,0,0,429.35,929H467Z"/><polygon class="cls-3" points="330 715.01 392 624.16 392 714 330 715.01"/><path class="cls-4" d="M376.33,790h27.83A10.84,10.84,0,0,1,415,800.84V801H367.4Z"/><polygon class="cls-1" points="326.75 887 359.25 887 367.92 900 334.33 900 326.75 887"/><polygon class="cls-1" points="418 885 439.42 885 447.99 900 421.21 903.21 418 897.85 418 885"/><path class="cls-4" d="M414.32,898h36.3l12.1,11H423.94a11.47,11.47,0,0,1-8.65-3.93l-12-13.67Z"/><path class="cls-4" d="M420.79,879h13.79a10.85,10.85,0,0,1,9.71,6H414.73A6.06,6.06,0,0,1,420.79,879Z"/><path class="cls-4" d="M431,879h19a0,0,0,0,1,0,0v19a0,0,0,0,1,0,0H440a9,9,0,0,1-9-9V879A0,0,0,0,1,431,879Z" transform="translate(881 1777) rotate(180)"/><polygon class="cls-1" points="340 885 361.42 885 369.99 900 343.21 903.21 340 897.85 340 885"/><path class="cls-4" d="M337.23,898h35.2l12.1,11H345.75a11.47,11.47,0,0,1-8.65-3.93l-12-13.67Z"/><path class="cls-4" d="M342.6,879h13.79a10.85,10.85,0,0,1,9.71,6H336.54A6.06,6.06,0,0,1,342.6,879Z"/><path class="cls-4" d="M353,879h19a0,0,0,0,1,0,0v19a0,0,0,0,1,0,0H362a9,9,0,0,1-9-9V879A0,0,0,0,1,353,879Z" transform="translate(725 1777) rotate(180)"/><path class="cls-3" d="M324.15,850.85a23.92,23.92,0,0,1,43.45,20Z"/><path class="cls-4" d="M415.82,904.37l-14-15.17,11.38-39A7.95,7.95,0,0,0,405.58,840H392v-6h13.58A13.94,13.94,0,0,1,419,851.84l-10.43,35.78,11.7,12.68Z"/><polygon class="cls-4" points="387.83 850.59 380.17 841 373 841 373 835 383.05 835 392.52 846.84 387.83 850.59"/><rect class="cls-4" x="330.45" y="885.58" width="6" height="18.95" transform="translate(-518.67 463.53) rotate(-42.71)"/><rect class="cls-2" x="721" y="634" width="6" height="369"/><polygon class="cls-2" points="704.2 1067.47 724.88 1060.87 745.57 1067.47 724.88 1091.53 704.2 1067.47"/><circle class="cls-2" cx="736.5" cy="1060.5" r="11.5"/><circle class="cls-2" cx="713.5" cy="1060.5" r="11.5"/><path class="cls-2" d="M710.45,1039h29.1A21.26,21.26,0,0,0,728,1057.91V1067h-6v-9.09A21.26,21.26,0,0,0,710.45,1039Z"/><path class="cls-2" d="M751.36,1205.71a3.4,3.4,0,0,0,3,1.38,4.63,4.63,0,0,0,4.2-2l6.6,4.92a11.23,11.23,0,0,1-4,4.26,12.72,12.72,0,0,1-7.14,1.86q-6.36,0-9.9-3.78a13.73,13.73,0,0,1-3.54-9.78v-24.48l-3.6.12a17.12,17.12,0,0,0-7,1.44,19.91,19.91,0,0,0-3.42,1.86,11.88,11.88,0,0,0-2.34,2.22,102.12,102.12,0,0,0-7.8,12q-3.84,6.48-9.6,18.72H696q10.44-19.56,13.08-24.24,3.84-6.72,6.24-10.08a29.2,29.2,0,0,1,3.3-4.14q1.5-1.5,2.46-2.34l-21.84-31a6.34,6.34,0,0,0-1.68-1.74,3.8,3.8,0,0,0-1.92-.42,2.47,2.47,0,0,0-2.16,1.44l-7.44-5.28a11.46,11.46,0,0,1,4.44-4.08,11.23,11.23,0,0,1,5.16-1.44,13.34,13.34,0,0,1,5.94,1.38,11,11,0,0,1,4.38,3.66l23.52,33.36a31.76,31.76,0,0,1,4.8-1,44.92,44.92,0,0,1,6-.12v-36.36H750.4v70.44A5.43,5.43,0,0,0,751.36,1205.71Z"/><path class="cls-2" d="M654,1201H116.54A43.59,43.59,0,0,1,73,1157.46V639h6v518.46A37.58,37.58,0,0,0,116.54,1195H654Z"/><path class="cls-4" d="M411.44,816H372.56A19.59,19.59,0,0,1,353,796.44V723h6v73.44A13.57,13.57,0,0,0,372.56,810h38.88A13.57,13.57,0,0,0,425,796.44V723h6v73.44A19.59,19.59,0,0,1,411.44,816Z"/><path class="cls-4" d="M449,764h-6V717.53a12,12,0,0,1,24,0h-6a6,6,0,0,0-12,0Z"/><path class="cls-4" d="M341,764h-6V717.53a6,6,0,0,0-12,0h-6a12,12,0,0,1,24,0Z"/><path class="cls-4" d="M377,764h-6V717.53a6,6,0,0,0-12,0h-6a12,12,0,0,1,24,0Z"/><path class="cls-4" d="M413,779h-6V717.53a12,12,0,0,1,24,0h-6a6,6,0,0,0-12,0Z"/><rect class="cls-4" x="389" y="720" width="6" height="44"/><rect class="cls-4" x="371" y="720" width="6" height="59"/><rect class="cls-4" x="335" y="723" width="6" height="60"/><rect class="cls-4" x="443" y="723" width="6" height="60"/><polygon class="cls-4" points="327.88 1091.53 351.22 1084.56 372.88 1092.53 351.22 1119.53 327.88 1091.53"/><circle class="cls-4" cx="364" cy="1084" r="13"/><circle class="cls-4" cx="338" cy="1084" r="13"/><path class="cls-4" d="M334.53,1060h33.94l-.12.06A24.26,24.26,0,0,0,355,1081.72V1092h-7v-10.28a24.26,24.26,0,0,0-13.35-21.66Z"/><path class="cls-4" d="M249.12,1018h204.2l3.06,10.28A40.22,40.22,0,0,1,417.84,1080H284.6a40.22,40.22,0,0,1-38.54-51.72Z"/><path class="cls-1" d="M460.78,1049.88l8.72,10.91,8.72-10.91a31,31,0,0,0,6.78-19.35V1022H454v8.53A31,31,0,0,0,460.78,1049.88Z"/><path class="cls-1" d="M413.78,1049.88l8.72,10.91,8.72-10.91a31,31,0,0,0,6.78-19.35V1022H407v8.53A31,31,0,0,0,413.78,1049.88Z"/><path class="cls-1" d="M365.78,1049.88l8.72,10.91,8.72-10.91a31,31,0,0,0,6.78-19.35V1022H359v8.53A31,31,0,0,0,365.78,1049.88Z"/><path class="cls-1" d="M318.78,1049.88l8.72,10.91,8.72-10.91a31,31,0,0,0,6.78-19.35V1022H312v8.53A31,31,0,0,0,318.78,1049.88Z"/><path class="cls-1" d="M271.78,1049.88l8.72,10.91,8.72-10.91a31,31,0,0,0,6.78-19.35V1022H265v8.53A31,31,0,0,0,271.78,1049.88Z"/><path class="cls-1" d="M223.78,1049.88l8.72,10.91,8.72-10.91a31,31,0,0,0,6.78-19.35V1022H217v8.53A31,31,0,0,0,223.78,1049.88Z"/><polygon class="cls-4" points="239.99 951 462.45 951 482.75 1020 219.69 1020 239.99 951"/><rect class="cls-1" x="219" y="996" width="265" height="6"/><rect class="cls-1" x="216" y="1016" width="270" height="6"/><rect class="cls-1" x="321" y="1080" width="61" height="6"/><polygon class="cls-4" points="544.29 696.92 559.71 692.5 612.35 874.37 596.93 878.8 544.29 696.92"/><circle class="cls-1" cx="607.5" cy="885.5" r="19.49"/><rect class="cls-4" x="587.22" y="864.78" width="29.78" height="6" transform="translate(-216.13 199.9) rotate(-16.02)"/><polygon class="cls-4" points="596.92 935.52 617.6 921.73 642.45 922.45 627.29 955.48 596.92 935.52"/><circle class="cls-4" cx="630" cy="918" r="13"/><circle class="cls-4" cx="605" cy="925" r="13"/><path class="cls-4" d="M594.63,902.1l32-9.2a24.36,24.36,0,0,0-6.74,24.47l2.88,10-6.61,1.9-2.87-10a24.33,24.33,0,0,0-18.69-17.16Z"/><rect class="cls-4" x="592.32" y="894.5" width="36.65" height="6" transform="translate(-224 203.41) rotate(-16.02)"/><rect class="cls-4" x="615.35" y="962.75" width="29.78" height="6" transform="translate(-242.07 211.47) rotate(-16.02)"/><rect class="cls-4" x="625.34" y="937.38" width="6" height="43.52" transform="translate(-240.29 210.64) rotate(-16.02)"/><path class="cls-1" d="M534,583.41l22.57,13.72a44.49,44.49,0,0,1,20,25.78l9.65,33a29.11,29.11,0,0,1-19.78,36.1l-43.23,12.63a8,8,0,0,1-4.5-15.39l-11.44-6.09-2.34-23.67-8-11,14-8-11-34Z"/><path class="cls-2" d="M521.22,706.9a11,11,0,0,1-3.1-21.59l41.5-12.13,1.68,5.76-41.5,12.13a5,5,0,1,0,2.82,9.63l43.23-12.63a26.11,26.11,0,0,0,17.74-32.39l-9.65-33a41.39,41.39,0,0,0-18.64-24l3.06-5.16A47.3,47.3,0,0,1,579.7,621l9.65,33a32.15,32.15,0,0,1-21.82,39.83L524.3,706.46A11,11,0,0,1,521.22,706.9Z"/><path class="cls-2" d="M514.92,692a11,11,0,0,1-3.07-21.6L554,658.12l1.68,5.76-42.17,12.31a5,5,0,1,0,2.81,9.63L546.42,677l1.69,5.76L518,691.58A11.09,11.09,0,0,1,514.92,692Z"/><path class="cls-2" d="M510.45,676.64a11,11,0,0,1-3.1-21.6l42.17-12.32,1.69,5.76L509,660.8a5,5,0,1,0,2.81,9.63l29-8.46,1.68,5.76-29,8.46A11,11,0,0,1,510.45,676.64Z"/><path class="cls-2" d="M506,661.25a11,11,0,0,1-3.09-21.6L545,627.33l1.68,5.76-42.17,12.32a5,5,0,1,0,2.81,9.63l32.28-9.42,1.68,5.76L509,660.8A11.06,11.06,0,0,1,506,661.25Z"/><path class="cls-4" d="M285.38,975.66h-6c0-10,4.85-15.13,9.13-19.66,4-4.26,7.49-7.94,7.49-15.55s-3.47-11.29-7.49-15.55c-4.28-4.53-9.13-9.67-9.13-19.66s4.85-15.14,9.13-19.67c4-4.26,7.49-7.93,7.49-15.54s-3.47-11.29-7.49-15.55c-4.28-4.53-9.13-9.67-9.13-19.66s4.85-15.15,9.13-19.67c4-4.25,7.49-7.91,7.49-15.55a6,6,0,1,0-11.95-.09h-6a12,12,0,1,1,23.95,0c0,10.12-4.85,15.24-9.13,19.76-4,4.24-7.49,7.91-7.49,15.55s3.47,11.28,7.49,15.54C297.15,854.89,302,860,302,870s-4.85,15.13-9.13,19.66c-4,4.26-7.49,7.94-7.49,15.55s3.47,11.28,7.49,15.54c4.28,4.54,9.13,9.67,9.13,19.67s-4.85,15.13-9.13,19.67C288.85,964.38,285.38,968.05,285.38,975.66Z"/><path class="cls-4" d="M267.38,975.66h-6c0-10,4.85-15.13,9.13-19.66,4-4.26,7.49-7.94,7.49-15.55s-3.47-11.29-7.49-15.55c-4.28-4.53-9.13-9.67-9.13-19.66s4.85-15.14,9.13-19.67c4-4.26,7.49-7.93,7.49-15.54s-3.47-11.29-7.49-15.55c-4.28-4.53-9.13-9.67-9.13-19.66s4.85-15.15,9.13-19.67c4-4.25,7.49-7.91,7.49-15.55a6,6,0,1,0-11.95-.09h-6a12,12,0,1,1,23.95,0c0,10.12-4.85,15.24-9.13,19.76-4,4.24-7.49,7.91-7.49,15.55s3.47,11.28,7.49,15.54C279.15,854.89,284,860,284,870s-4.85,15.13-9.13,19.66c-4,4.26-7.49,7.94-7.49,15.55s3.47,11.28,7.49,15.54c4.28,4.54,9.13,9.67,9.13,19.67s-4.85,15.13-9.13,19.67C270.85,964.38,267.38,968.05,267.38,975.66Z"/><path class="cls-4" d="M249.38,975.66h-6c0-10,4.85-15.13,9.13-19.66,4-4.26,7.49-7.94,7.49-15.55s-3.47-11.29-7.49-15.55c-4.28-4.53-9.13-9.67-9.13-19.66s4.85-15.14,9.13-19.67c4-4.26,7.49-7.93,7.49-15.54s-3.47-11.29-7.49-15.55c-4.28-4.53-9.13-9.67-9.13-19.66s4.85-15.15,9.13-19.67c4-4.25,7.49-7.91,7.49-15.55a6,6,0,1,0-11.95-.09h-6a12,12,0,1,1,23.95,0c0,10.12-4.85,15.24-9.13,19.76-4,4.24-7.49,7.91-7.49,15.55s3.47,11.28,7.49,15.54C261.15,854.89,266,860,266,870s-4.85,15.13-9.13,19.66c-4,4.26-7.49,7.94-7.49,15.55s3.47,11.28,7.49,15.54c4.28,4.54,9.13,9.67,9.13,19.67s-4.85,15.13-9.13,19.67C252.85,964.38,249.38,968.05,249.38,975.66Z"/><path class="cls-4" d="M243.6,957l-5.2-3a31.46,31.46,0,0,0,3.6-13.61c0-7.6-3.47-11.28-7.49-15.54-4.28-4.53-9.13-9.67-9.13-19.66s4.85-15.14,9.13-19.67c4-4.26,7.49-7.93,7.49-15.54s-3.47-11.29-7.49-15.55c-4.28-4.53-9.13-9.67-9.13-19.66s4.85-15.15,9.13-19.67c4-4.25,7.49-7.91,7.49-15.55a6,6,0,1,0-11.95-.09h-6a12,12,0,1,1,23.95,0c0,10.12-4.85,15.24-9.13,19.76-4,4.24-7.49,7.91-7.49,15.55s3.47,11.28,7.49,15.54C243.15,854.89,248,860,248,870s-4.85,15.13-9.13,19.66c-4,4.26-7.49,7.94-7.49,15.55s3.47,11.28,7.49,15.54c4.28,4.54,9.13,9.67,9.13,19.67A37.06,37.06,0,0,1,243.6,957Z"/><rect class="cls-4" x="120.03" y="636" width="559.95" height="6" transform="translate(-194.79 175.81) rotate(-20.05)"/><circle class="cls-1" cx="400" cy="639" r="68"/><circle class="cls-4" cx="400" cy="639" r="57.12"/><polygon class="cls-1" points="427.6 635.75 400 644.55 372.4 635.75 400 603.64 427.6 635.75"/><circle class="cls-1" cx="384.59" cy="645.27" r="15.46"/><circle class="cls-1" cx="415.41" cy="645.27" r="15.46"/><path class="cls-1" d="M419.48,674.36h-39A28.4,28.4,0,0,0,396,649.08V637h8v12.08a28.4,28.4,0,0,0,15.46,25.28Z"/></g></svg>