<svg xmlns="http://www.w3.org/2000/svg" viewBox="0 0 800 1218"><defs><style>.cls-1{fill:#f2f0eb;}.cls-2{fill:#3e95a3;}.cls-3{fill:#d39c53;}.cls-4{fill:#27282b;}</style></defs><title>Ks</title><g id="Layer_2" data-name="Layer 2"><rect class="cls-1" width="800" height="1218"/></g><g id="Layer_1" data-name="Layer 1"><polygon class="cls-2" points="591.34 322.9 377.88 390.93 164.43 322.9 377.89 74.5 591.34 322.9"/><circle class="cls-2" cx="258.29" cy="397.36" r="119.57"/><circle class="cls-2" cx="497.09" cy="396.49" r="119.57"/><path class="cls-2" d="M441,621.5H227.25A219.64,219.64,0,0,0,346.82,426V332.52H409V426a219.44,219.44,0,0,0,35.52,119.76Z"/><path class="cls-1" d="M554,539l-111-5H408l-20-31a27.06,27.06,0,0,1-26.23-20.38L338,389.47,337.72,235H561l-6,72,17.37,30.78a13.37,13.37,0,0,1-1.56,15.33l-11,12.68a17.88,17.88,0,0,0-.52,22.85l7.17,9A24.13,24.13,0,0,1,568,425.45L555.78,445Z"/><path class="cls-3" d="M337.71,313H369a25.43,25.43,0,0,1,21,11.14l10.55,15.51L384.7,397.72A9.72,9.72,0,0,0,394.08,410H408V534H345l-7-8Z"/><path class="cls-4" d="M472.64,328.82A22.43,22.43,0,0,0,454.08,319H416v-6h38.08a28.41,28.41,0,0,1,23.52,12.45Z"/><path class="cls-4" d="M389.09,328.82A22.42,22.42,0,0,0,370.53,319H333v-6h37.53a28.4,28.4,0,0,1,23.52,12.45Z"/><polygon class="cls-3" points="470 532.99 408 623.84 408 534 470 532.99"/><path class="cls-4" d="M423.63,458H395.8A10.84,10.84,0,0,1,385,447.16V447h47.61Z"/><polygon class="cls-1" points="473.13 361 440.63 361 431.97 348 465.55 348 473.13 361"/><polygon class="cls-1" points="382 363 360.58 363 352.01 348 378.79 344.79 382 350.15 382 363"/><path class="cls-4" d="M385.56,350h-36.3l-12.1-11H376a11.5,11.5,0,0,1,8.65,3.93l12,13.67Z"/><path class="cls-4" d="M379.1,369H365.3a10.83,10.83,0,0,1-9.7-6h29.55A6.05,6.05,0,0,1,379.1,369Z"/><path class="cls-4" d="M350,350h19a0,0,0,0,1,0,0v19a0,0,0,0,1,0,0H359a9,9,0,0,1-9-9V350A0,0,0,0,1,350,350Z"/><polygon class="cls-1" points="460 363 438.58 363 430.01 348 456.79 344.79 460 350.15 460 363"/><path class="cls-4" d="M462.65,350h-35.2l-12.1-11h38.79a11.5,11.5,0,0,1,8.65,3.93l12,13.67Z"/><path class="cls-4" d="M457.28,369H443.49a10.83,10.83,0,0,1-9.7-6h29.55A6.06,6.06,0,0,1,457.28,369Z"/><path class="cls-4" d="M428,350h19a0,0,0,0,1,0,0v19a0,0,0,0,1,0,0H437a9,9,0,0,1-9-9V350A0,0,0,0,1,428,350Z"/><path class="cls-3" d="M475.73,396.68a23.92,23.92,0,1,1-43.45-20Z"/><path class="cls-4" d="M408,414H394.3a13.94,13.94,0,0,1-13.38-17.84l10.44-35.78L379.65,347.7l4.41-4.07,14,15.17-11.39,39A7.95,7.95,0,0,0,394.3,408H408Z"/><polygon class="cls-4" points="427 413 416.83 413 407.36 401.16 412.05 397.42 419.72 407 427 407 427 413"/><rect class="cls-4" x="463.44" y="343" width="6" height="18.95" transform="translate(-115.38 409.85) rotate(-42.71)"/><rect class="cls-2" x="73" y="243" width="6" height="366"/><polygon class="cls-2" points="95.68 178.07 75 184.66 54.32 178.07 75 154 95.68 178.07"/><circle class="cls-2" cx="63.45" cy="185.2" r="11.59"/><circle class="cls-2" cx="86.55" cy="185.2" r="11.59"/><path class="cls-2" d="M89.6,207H60.4A21.27,21.27,0,0,0,72,188.06V179h6v9.06A21.27,21.27,0,0,0,89.6,207Z"/><path class="cls-2" d="M48.52,39.83a3.4,3.4,0,0,0-3-1.38,4.63,4.63,0,0,0-4.2,2l-6.6-4.92a11.23,11.23,0,0,1,4-4.26,12.72,12.72,0,0,1,7.14-1.86q6.36,0,9.9,3.78A13.73,13.73,0,0,1,59.32,43V67.49l3.6-.12a17.29,17.29,0,0,0,7-1.44,19.91,19.91,0,0,0,3.42-1.86,12.18,12.18,0,0,0,2.34-2.22,102.12,102.12,0,0,0,7.8-12q3.84-6.48,9.6-18.72h10.8Q93.4,50.69,90.76,55.37q-3.84,6.72-6.24,10.08a29.2,29.2,0,0,1-3.3,4.14q-1.5,1.5-2.46,2.34l21.84,31a6.34,6.34,0,0,0,1.68,1.74,3.8,3.8,0,0,0,1.92.42,2.47,2.47,0,0,0,2.16-1.44l7.44,5.28a11.46,11.46,0,0,1-4.44,4.08,11.23,11.23,0,0,1-5.16,1.44A13.34,13.34,0,0,1,98.26,113a11,11,0,0,1-4.38-3.66L70.36,76a31.76,31.76,0,0,1-4.8,1,44.92,44.92,0,0,1-6,.12v36.36H49.48V43A5.43,5.43,0,0,0,48.52,39.83Z"/><path class="cls-2" d="M727,604h-6V88.54A37.58,37.58,0,0,0,683.46,51H146V45H683.46A43.59,43.59,0,0,1,727,88.54Z"/><path class="cls-4" d="M447,520h-6V446.56A13.57,13.57,0,0,0,427.44,433H388.56A13.57,13.57,0,0,0,375,446.56V520h-6V446.56A19.59,19.59,0,0,1,388.56,427h38.88A19.59,19.59,0,0,1,447,446.56Z"/><path class="cls-4" d="M345,537a12,12,0,0,1-12-12h6a6,6,0,0,0,12,0V479h6v46A12,12,0,0,1,345,537Z"/><path class="cls-4" d="M471,537a12,12,0,0,1-12-12V479h6v46a6,6,0,0,0,12,0h6A12,12,0,0,1,471,537Z"/><path class="cls-4" d="M435,537a12,12,0,0,1-12-12V479h6v46a6,6,0,0,0,12,0h6A12,12,0,0,1,435,537Z"/><path class="cls-4" d="M381,537a12,12,0,0,1-12-12h6a6,6,0,0,0,12,0V464h6v61A12,12,0,0,1,381,537Z"/><rect class="cls-4" x="405" y="479" width="6" height="44"/><rect class="cls-4" x="423" y="464" width="6" height="59"/><rect class="cls-4" x="459" y="460" width="6" height="60"/><rect class="cls-4" x="351" y="460" width="6" height="60"/><polygon class="cls-4" points="472 156 448.66 162.98 427 155 448.66 128 472 156"/><circle class="cls-4" cx="436" cy="164" r="13"/><circle class="cls-4" cx="462" cy="164" r="13"/><path class="cls-4" d="M465.47,188H431.53l.12-.06A24.26,24.26,0,0,0,445,166.28V156h7v10.28a24.26,24.26,0,0,0,13.35,21.66Z"/><path class="cls-4" d="M550.76,230H346.57l-3.07-10.28A40.22,40.22,0,0,1,382,168H515.28a40.23,40.23,0,0,1,38.55,51.72Z"/><path class="cls-1" d="M339.22,198.12l-8.72-10.91-8.72,10.91A31,31,0,0,0,315,217.47V226h31v-8.53A31,31,0,0,0,339.22,198.12Z"/><path class="cls-1" d="M386.22,198.12l-8.72-10.91-8.72,10.91A31,31,0,0,0,362,217.47V226h31v-8.53A31,31,0,0,0,386.22,198.12Z"/><path class="cls-1" d="M434.22,198.12l-8.72-10.91-8.72,10.91A31,31,0,0,0,410,217.47V226h31v-8.53A31,31,0,0,0,434.22,198.12Z"/><path class="cls-1" d="M481.22,198.12l-8.72-10.91-8.72,10.91A31,31,0,0,0,457,217.47V226h31v-8.53A31,31,0,0,0,481.22,198.12Z"/><path class="cls-1" d="M528.22,198.12l-8.72-10.91-8.72,10.91A31,31,0,0,0,504,217.47V226h31v-8.53A31,31,0,0,0,528.22,198.12Z"/><path class="cls-1" d="M576.22,198.12l-8.72-10.91-8.72,10.91A31,31,0,0,0,552,217.47V226h31v-8.53A31,31,0,0,0,576.22,198.12Z"/><polygon class="cls-4" points="560.62 297 336.71 297 316.28 227.55 581.04 227.55 560.62 297"/><rect class="cls-1" x="316.28" y="245.09" width="264.98" height="6"/><rect class="cls-1" x="314" y="225.69" width="269.54" height="6"/><rect class="cls-1" x="418.35" y="162" width="60.88" height="6"/><polygon class="cls-4" points="255.59 550.61 240.18 555.03 187.54 373.16 202.95 368.74 255.59 550.61"/><circle class="cls-1" cx="192.71" cy="362.14" r="19.47"/><rect class="cls-4" x="182.88" y="376.76" width="29.78" height="6" transform="translate(-97.13 69.34) rotate(-16.02)"/><polygon class="cls-4" points="202.96 312.01 182.28 325.81 157.43 325.09 172.59 292.06 202.96 312.01"/><circle class="cls-4" cx="169.78" cy="330" r="13.17"/><circle class="cls-4" cx="195.1" cy="322.73" r="13.17"/><path class="cls-4" d="M205.25,345.44l-32,9.19A24.34,24.34,0,0,0,180,330.17l-2.87-10,6.6-1.9,2.87,10a24.37,24.37,0,0,0,18.69,17.17Z"/><rect class="cls-4" x="170.91" y="347.03" width="36.65" height="6" transform="translate(-89.26 65.83) rotate(-16.02)"/><rect class="cls-4" x="154.75" y="278.79" width="29.78" height="6" transform="translate(-71.19 57.77) rotate(-16.02)"/><rect class="cls-4" x="168.54" y="266.63" width="6" height="43.52" transform="translate(-72.92 58.54) rotate(-16.02)"/><path class="cls-1" d="M265.92,664.13,243.35,650.4a44.47,44.47,0,0,1-20-25.77l-9.65-33a29.12,29.12,0,0,1,19.78-36.11l43.23-12.63a8,8,0,1,1,4.5,15.39l11.44,6.09L295,588l8,11-14,8,11,34Z"/><path class="cls-2" d="M241.52,654.08a47.32,47.32,0,0,1-21.34-27.51l-9.65-33a32.1,32.1,0,0,1,21.82-39.82l43.23-12.63a11,11,0,1,1,6.18,21.15l-41.49,12.12-1.68-5.76,41.49-12.12a5,5,0,1,0-2.81-9.63L234,559.47a26.12,26.12,0,0,0-17.74,32.38l9.65,33a41.36,41.36,0,0,0,18.64,24Z"/><path class="cls-2" d="M245.86,589.42l-1.68-5.76,42.17-12.32a5,5,0,1,0-2.81-9.63l-30.08,8.79-1.68-5.76L281.86,556A11,11,0,1,1,288,577.1Z"/><path class="cls-2" d="M250.36,604.81l-1.68-5.76,42.17-12.32A5,5,0,1,0,288,577.1l-29,8.47-1.68-5.76,29-8.47a11,11,0,1,1,6.18,21.15Z"/><path class="cls-2" d="M254.85,620.2l-1.68-5.76,42.17-12.32a5,5,0,0,0-2.81-9.63l-32.28,9.43-1.68-5.76,32.28-9.43A11,11,0,0,1,297,607.88Z"/><path class="cls-4" d="M510,460a12,12,0,0,1-12-12c0-10.13,4.85-15.25,9.13-19.77,4-4.24,7.5-7.91,7.5-15.54s-3.48-11.29-7.5-15.55c-4.28-4.53-9.13-9.67-9.13-19.66s4.85-15.13,9.13-19.67c4-4.26,7.5-7.93,7.5-15.54s-3.48-11.29-7.5-15.55c-4.28-4.53-9.13-9.67-9.13-19.67s4.85-15.13,9.13-19.66c4-4.26,7.5-7.94,7.5-15.55h6c0,10-4.86,15.13-9.14,19.67-4,4.25-7.49,7.93-7.49,15.54s3.47,11.29,7.49,15.55c4.28,4.53,9.14,9.67,9.14,19.67s-4.86,15.13-9.14,19.66c-4,4.26-7.49,7.94-7.49,15.55s3.47,11.28,7.49,15.54c4.28,4.53,9.14,9.67,9.14,19.67s-4.86,15.15-9.14,19.67c-4,4.24-7.49,7.91-7.49,15.54a6,6,0,1,0,12,.1h6A12,12,0,0,1,510,460Z"/><path class="cls-4" d="M528,460a12,12,0,0,1-12-12c0-10.13,4.85-15.25,9.13-19.77,4-4.24,7.5-7.91,7.5-15.54s-3.48-11.29-7.5-15.55c-4.28-4.53-9.13-9.67-9.13-19.66s4.85-15.13,9.13-19.67c4-4.26,7.5-7.93,7.5-15.54s-3.48-11.29-7.5-15.55c-4.28-4.53-9.13-9.67-9.13-19.67s4.85-15.13,9.13-19.66c4-4.26,7.5-7.94,7.5-15.55h6c0,10-4.86,15.13-9.14,19.67-4,4.25-7.49,7.93-7.49,15.54s3.47,11.29,7.49,15.55c4.28,4.53,9.14,9.67,9.14,19.67s-4.86,15.13-9.14,19.66c-4,4.26-7.49,7.94-7.49,15.55s3.47,11.28,7.49,15.54c4.28,4.53,9.14,9.67,9.14,19.67s-4.86,15.15-9.14,19.67c-4,4.24-7.49,7.91-7.49,15.54a6,6,0,1,0,12,.1h6A12,12,0,0,1,528,460Z"/><path class="cls-4" d="M546,460a12,12,0,0,1-12-12c0-10.13,4.85-15.25,9.13-19.77,4-4.24,7.5-7.91,7.5-15.54s-3.48-11.29-7.5-15.55c-4.28-4.53-9.13-9.67-9.13-19.66s4.85-15.13,9.13-19.67c4-4.26,7.5-7.93,7.5-15.54s-3.48-11.29-7.5-15.55c-4.28-4.53-9.13-9.67-9.13-19.67s4.85-15.13,9.13-19.66c4-4.26,7.5-7.94,7.5-15.55h6c0,10-4.86,15.13-9.14,19.67-4,4.25-7.49,7.93-7.49,15.54s3.47,11.29,7.49,15.55c4.28,4.53,9.14,9.67,9.14,19.67s-4.86,15.13-9.14,19.66c-4,4.26-7.49,7.94-7.49,15.55s3.47,11.28,7.49,15.54c4.28,4.53,9.14,9.67,9.14,19.67s-4.86,15.15-9.14,19.67c-4,4.24-7.49,7.91-7.49,15.54a6,6,0,1,0,12,.1h6A12,12,0,0,1,546,460Z"/><path class="cls-4" d="M564,460a12,12,0,0,1-12-12c0-10.13,4.85-15.25,9.13-19.77,4-4.24,7.5-7.91,7.5-15.54s-3.48-11.29-7.5-15.55c-4.28-4.53-9.13-9.67-9.13-19.66s4.85-15.13,9.13-19.67c4-4.26,7.5-7.93,7.5-15.54s-3.48-11.29-7.5-15.55c-4.28-4.53-9.13-9.67-9.13-19.67a37.09,37.09,0,0,1,4.4-16.57l5.2,3a31.43,31.43,0,0,0-3.6,13.6c0,7.6,3.47,11.28,7.49,15.54,4.28,4.53,9.14,9.67,9.14,19.67s-4.86,15.13-9.14,19.66c-4,4.26-7.49,7.94-7.49,15.55s3.47,11.28,7.49,15.54c4.28,4.53,9.14,9.67,9.14,19.67s-4.86,15.15-9.14,19.67c-4,4.24-7.49,7.91-7.49,15.54a6,6,0,1,0,12,.1h6A12,12,0,0,1,564,460Z"/><polygon class="cls-2" points="208.54 894.63 422 826.6 635.45 894.63 422 1143.03 208.54 894.63"/><circle class="cls-2" cx="541.5" cy="820.5" r="119.5"/><circle class="cls-2" cx="302.5" cy="821.5" r="119.5"/><path class="cls-2" d="M359,596H572.3A219.48,219.48,0,0,0,453,791.28V885H391V791.53a219.8,219.8,0,0,0-35.45-119.77Z"/><path class="cls-1" d="M246,679l111,5h35l20,31a27.06,27.06,0,0,1,26.23,20.38L462,828.53,462.28,983H239l6-72-17.37-30.78a13.37,13.37,0,0,1,1.56-15.33l11.05-12.68a17.88,17.88,0,0,0,.52-22.85l-7.17-9A24.13,24.13,0,0,1,232,792.55L244.22,773Z"/><path class="cls-3" d="M462.25,905h-31.2a25.43,25.43,0,0,1-21-11.14l-10.55-15.51,15.84-58.07A9.72,9.72,0,0,0,405.92,808H392V684h63l7,8Z"/><path class="cls-4" d="M384,905H345.8a28.4,28.4,0,0,1-23.51-12.45l5-3.37A22.41,22.41,0,0,0,345.8,899H384Z"/><path class="cls-4" d="M467,905H429.35a28.4,28.4,0,0,1-23.52-12.45l5-3.37A22.42,22.42,0,0,0,429.35,899H467Z"/><polygon class="cls-3" points="330 685.01 392 594.16 392 684 330 685.01"/><path class="cls-4" d="M376.33,760h27.83A10.84,10.84,0,0,1,415,770.84V771H367.4Z"/><polygon class="cls-1" points="326.75 857 359.25 857 367.92 870 334.33 870 326.75 857"/><polygon class="cls-1" points="418 855 439.42 855 447.99 870 421.21 873.21 418 867.85 418 855"/><path class="cls-4" d="M414.32,868h36.3l12.1,11H423.94a11.47,11.47,0,0,1-8.65-3.93l-12-13.67Z"/><path class="cls-4" d="M420.79,849h13.79a10.85,10.85,0,0,1,9.71,6H414.73A6.06,6.06,0,0,1,420.79,849Z"/><path class="cls-4" d="M431,849h19a0,0,0,0,1,0,0v19a0,0,0,0,1,0,0H440a9,9,0,0,1-9-9V849A0,0,0,0,1,431,849Z" transform="translate(881 1717) rotate(180)"/><polygon class="cls-1" points="340 855 361.42 855 369.99 870 343.21 873.21 340 867.85 340 855"/><path class="cls-4" d="M337.23,868h35.2l12.1,11H345.75a11.47,11.47,0,0,1-8.65-3.93l-12-13.67Z"/><path class="cls-4" d="M342.6,849h13.79a10.85,10.85,0,0,1,9.71,6H336.54A6.06,6.06,0,0,1,342.6,849Z"/><path class="cls-4" d="M353,849h19a0,0,0,0,1,0,0v19a0,0,0,0,1,0,0H362a9,9,0,0,1-9-9V849A0,0,0,0,1,353,849Z" transform="translate(725 1717) rotate(180)"/><path class="cls-3" d="M324.15,820.85a23.92,23.92,0,0,1,43.45,20Z"/><path class="cls-4" d="M415.82,874.37l-14-15.17,11.38-39A7.95,7.95,0,0,0,405.58,810H392v-6h13.58A13.94,13.94,0,0,1,419,821.84l-10.43,35.78,11.7,12.68Z"/><polygon class="cls-4" points="387.83 820.59 380.17 811 373 811 373 805 383.05 805 392.52 816.84 387.83 820.59"/><rect class="cls-4" x="330.45" y="855.58" width="6" height="18.95" transform="translate(-498.32 455.57) rotate(-42.71)"/><rect class="cls-2" x="721" y="604" width="6" height="371"/><polygon class="cls-2" points="704.2 1039.47 724.88 1032.87 745.57 1039.47 724.88 1063.53 704.2 1039.47"/><circle class="cls-2" cx="736.5" cy="1032.5" r="11.5"/><circle class="cls-2" cx="713.5" cy="1032.5" r="11.5"/><path class="cls-2" d="M710.45,1011h29.1A21.26,21.26,0,0,0,728,1029.91V1039h-6v-9.09A21.26,21.26,0,0,0,710.45,1011Z"/><path class="cls-2" d="M751.36,1177.71a3.4,3.4,0,0,0,3,1.38,4.63,4.63,0,0,0,4.2-2l6.6,4.92a11.23,11.23,0,0,1-4,4.26,12.72,12.72,0,0,1-7.14,1.86q-6.36,0-9.9-3.78a13.73,13.73,0,0,1-3.54-9.78v-24.48l-3.6.12a17.12,17.12,0,0,0-7,1.44,19.91,19.91,0,0,0-3.42,1.86,11.88,11.88,0,0,0-2.34,2.22,102.12,102.12,0,0,0-7.8,12q-3.84,6.48-9.6,18.72H696q10.44-19.56,13.08-24.24,3.84-6.72,6.24-10.08a29.2,29.2,0,0,1,3.3-4.14q1.5-1.5,2.46-2.34l-21.84-31a6.34,6.34,0,0,0-1.68-1.74,3.8,3.8,0,0,0-1.92-.42,2.47,2.47,0,0,0-2.16,1.44l-7.44-5.28a11.46,11.46,0,0,1,4.44-4.08,11.23,11.23,0,0,1,5.16-1.44,13.34,13.34,0,0,1,5.94,1.38,11,11,0,0,1,4.38,3.66l23.52,33.36a31.76,31.76,0,0,1,4.8-1,44.92,44.92,0,0,1,6-.12v-36.36H750.4v70.44A5.43,5.43,0,0,0,751.36,1177.71Z"/><path class="cls-2" d="M654,1173H116.54A43.59,43.59,0,0,1,73,1129.46V609h6v520.46A37.58,37.58,0,0,0,116.54,1167H654Z"/><path class="cls-4" d="M411.44,786H372.56A19.59,19.59,0,0,1,353,766.44V693h6v73.44A13.57,13.57,0,0,0,372.56,780h38.88A13.57,13.57,0,0,0,425,766.44V693h6v73.44A19.59,19.59,0,0,1,411.44,786Z"/><path class="cls-4" d="M449,734h-6V687.53a12,12,0,0,1,24,0h-6a6,6,0,0,0-12,0Z"/><path class="cls-4" d="M341,734h-6V687.53a6,6,0,0,0-12,0h-6a12,12,0,0,1,24,0Z"/><path class="cls-4" d="M377,734h-6V687.53a6,6,0,0,0-12,0h-6a12,12,0,0,1,24,0Z"/><path class="cls-4" d="M413,749h-6V687.53a12,12,0,0,1,24,0h-6a6,6,0,0,0-12,0Z"/><rect class="cls-4" x="389" y="690" width="6" height="44"/><rect class="cls-4" x="371" y="690" width="6" height="59"/><rect class="cls-4" x="335" y="693" width="6" height="60"/><rect class="cls-4" x="443" y="693" width="6" height="60"/><polygon class="cls-4" points="327.88 1061.53 351.22 1054.56 372.88 1062.53 351.22 1089.53 327.88 1061.53"/><circle class="cls-4" cx="364" cy="1054" r="13"/><circle class="cls-4" cx="338" cy="1054" r="13"/><path class="cls-4" d="M334.53,1030h33.94l-.12.06A24.26,24.26,0,0,0,355,1051.72V1062h-7v-10.28a24.26,24.26,0,0,0-13.35-21.66Z"/><path class="cls-4" d="M249.12,988h204.2l3.06,10.28A40.22,40.22,0,0,1,417.84,1050H284.6a40.22,40.22,0,0,1-38.54-51.72Z"/><path class="cls-1" d="M460.78,1019.88l8.72,10.91,8.72-10.91a31,31,0,0,0,6.78-19.35V992H454v8.53A31,31,0,0,0,460.78,1019.88Z"/><path class="cls-1" d="M413.78,1019.88l8.72,10.91,8.72-10.91a31,31,0,0,0,6.78-19.35V992H407v8.53A31,31,0,0,0,413.78,1019.88Z"/><path class="cls-1" d="M365.78,1019.88l8.72,10.91,8.72-10.91a31,31,0,0,0,6.78-19.35V992H359v8.53A31,31,0,0,0,365.78,1019.88Z"/><path class="cls-1" d="M318.78,1019.88l8.72,10.91,8.72-10.91a31,31,0,0,0,6.78-19.35V992H312v8.53A31,31,0,0,0,318.78,1019.88Z"/><path class="cls-1" d="M271.78,1019.88l8.72,10.91,8.72-10.91a31,31,0,0,0,6.78-19.35V992H265v8.53A31,31,0,0,0,271.78,1019.88Z"/><path class="cls-1" d="M223.78,1019.88l8.72,10.91,8.72-10.91a31,31,0,0,0,6.78-19.35V992H217v8.53A31,31,0,0,0,223.78,1019.88Z"/><polygon class="cls-4" points="239.99 921 462.45 921 482.75 990 219.69 990 239.99 921"/><rect class="cls-1" x="219" y="966" width="265" height="6"/><rect class="cls-1" x="216" y="986" width="270" height="6"/><rect class="cls-1" x="321" y="1050" width="61" height="6"/><polygon class="cls-4" points="544.29 666.92 559.71 662.5 612.35 844.37 596.93 848.8 544.29 666.92"/><circle class="cls-1" cx="607.5" cy="855.5" r="19.49"/><rect class="cls-4" x="587.22" y="834.78" width="29.78" height="6" transform="translate(-207.85 198.73) rotate(-16.02)"/><polygon class="cls-4" points="596.92 905.52 617.6 891.73 642.45 892.45 627.29 925.48 596.92 905.52"/><circle class="cls-4" cx="630" cy="888" r="13"/><circle class="cls-4" cx="605" cy="895" r="13"/><path class="cls-4" d="M594.63,872.1l32-9.2a24.36,24.36,0,0,0-6.74,24.47l2.88,10-6.61,1.9-2.87-10a24.33,24.33,0,0,0-18.69-17.16Z"/><rect class="cls-4" x="592.32" y="864.5" width="36.65" height="6" transform="translate(-215.72 202.24) rotate(-16.02)"/><rect class="cls-4" x="615.35" y="932.75" width="29.78" height="6" transform="translate(-233.79 210.3) rotate(-16.02)"/><rect class="cls-4" x="625.34" y="907.38" width="6" height="43.52" transform="translate(-232.01 209.48) rotate(-16.02)"/><path class="cls-1" d="M534,553.41l22.57,13.72a44.49,44.49,0,0,1,20,25.78l9.65,33a29.11,29.11,0,0,1-19.78,36.1l-43.23,12.63a8,8,0,0,1-4.5-15.39l-11.44-6.09-2.34-23.67-8-11,14-8-11-34Z"/><path class="cls-2" d="M521.22,676.9a11,11,0,0,1-3.1-21.59l41.5-12.13,1.68,5.76-41.5,12.13a5,5,0,1,0,2.82,9.63l43.23-12.63a26.11,26.11,0,0,0,17.74-32.39l-9.65-33a41.39,41.39,0,0,0-18.64-24l3.06-5.16A47.3,47.3,0,0,1,579.7,591l9.65,33a32.15,32.15,0,0,1-21.82,39.83L524.3,676.46A11,11,0,0,1,521.22,676.9Z"/><path class="cls-2" d="M514.92,662a11,11,0,0,1-3.07-21.6L554,628.12l1.68,5.76-42.17,12.31a5,5,0,1,0,2.81,9.63L546.42,647l1.69,5.76L518,661.58A11.09,11.09,0,0,1,514.92,662Z"/><path class="cls-2" d="M510.45,646.64a11,11,0,0,1-3.1-21.6l42.17-12.32,1.69,5.76L509,630.8a5,5,0,1,0,2.81,9.63l29-8.46,1.68,5.76-29,8.46A11,11,0,0,1,510.45,646.64Z"/><path class="cls-2" d="M506,631.25a11,11,0,0,1-3.09-21.6L545,597.33l1.68,5.76-42.17,12.32a5,5,0,1,0,2.81,9.63l32.28-9.42,1.68,5.76L509,630.8A11.06,11.06,0,0,1,506,631.25Z"/><path class="cls-4" d="M285.38,945.66h-6c0-10,4.85-15.13,9.13-19.66,4-4.26,7.49-7.94,7.49-15.55s-3.47-11.29-7.49-15.55c-4.28-4.53-9.13-9.67-9.13-19.66s4.85-15.14,9.13-19.67c4-4.26,7.49-7.93,7.49-15.54s-3.47-11.29-7.49-15.55c-4.28-4.53-9.13-9.67-9.13-19.66s4.85-15.15,9.13-19.67c4-4.25,7.49-7.91,7.49-15.55a6,6,0,1,0-11.95-.09h-6a12,12,0,1,1,23.95,0c0,10.12-4.85,15.24-9.13,19.76-4,4.24-7.49,7.91-7.49,15.55s3.47,11.28,7.49,15.54C297.15,824.89,302,830,302,840s-4.85,15.13-9.13,19.66c-4,4.26-7.49,7.94-7.49,15.55s3.47,11.28,7.49,15.54c4.28,4.54,9.13,9.67,9.13,19.67s-4.85,15.13-9.13,19.67C288.85,934.38,285.38,938.05,285.38,945.66Z"/><path class="cls-4" d="M267.38,945.66h-6c0-10,4.85-15.13,9.13-19.66,4-4.26,7.49-7.94,7.49-15.55s-3.47-11.29-7.49-15.55c-4.28-4.53-9.13-9.67-9.13-19.66s4.85-15.14,9.13-19.67c4-4.26,7.49-7.93,7.49-15.54s-3.47-11.29-7.49-15.55c-4.28-4.53-9.13-9.67-9.13-19.66s4.85-15.15,9.13-19.67c4-4.25,7.49-7.91,7.49-15.55a6,6,0,1,0-11.95-.09h-6a12,12,0,1,1,23.95,0c0,10.12-4.85,15.24-9.13,19.76-4,4.24-7.49,7.91-7.49,15.55s3.47,11.28,7.49,15.54C279.15,824.89,284,830,284,840s-4.85,15.13-9.13,19.66c-4,4.26-7.49,7.94-7.49,15.55s3.47,11.28,7.49,15.54c4.28,4.54,9.13,9.67,9.13,19.67s-4.85,15.13-9.13,19.67C270.85,934.38,267.38,938.05,267.38,945.66Z"/><path class="cls-4" d="M249.38,945.66h-6c0-10,4.85-15.13,9.13-19.66,4-4.26,7.49-7.94,7.49-15.55s-3.47-11.29-7.49-15.55c-4.28-4.53-9.13-9.67-9.13-19.66s4.85-15.14,9.13-19.67c4-4.26,7.49-7.93,7.49-15.54s-3.47-11.29-7.49-15.55c-4.28-4.53-9.13-9.67-9.13-19.66s4.85-15.15,9.13-19.67c4-4.25,7.49-7.91,7.49-15.55a6,6,0,1,0-11.95-.09h-6a12,12,0,1,1,23.95,0c0,10.12-4.85,15.24-9.13,19.76-4,4.24-7.49,7.91-7.49,15.55s3.47,11.28,7.49,15.54C261.15,824.89,266,830,266,840s-4.85,15.13-9.13,19.66c-4,4.26-7.49,7.94-7.49,15.55s3.47,11.28,7.49,15.54c4.28,4.54,9.13,9.67,9.13,19.67s-4.85,15.13-9.13,19.67C252.85,934.38,249.38,938.05,249.38,945.66Z"/><path class="cls-4" d="M243.6,927l-5.2-3a31.46,31.46,0,0,0,3.6-13.61c0-7.6-3.47-11.28-7.49-15.54-4.28-4.53-9.13-9.67-9.13-19.66s4.85-15.14,9.13-19.67c4-4.26,7.49-7.93,7.49-15.54s-3.47-11.29-7.49-15.55c-4.28-4.53-9.13-9.67-9.13-19.66s4.85-15.15,9.13-19.67c4-4.25,7.49-7.91,7.49-15.55a6,6,0,1,0-11.95-.09h-6a12,12,0,1,1,23.95,0c0,10.12-4.85,15.24-9.13,19.76-4,4.24-7.49,7.91-7.49,15.55s3.47,11.28,7.49,15.54C243.15,824.89,248,830,248,840s-4.85,15.13-9.13,19.66c-4,4.26-7.49,7.94-7.49,15.55s3.47,11.28,7.49,15.54c4.28,4.54,9.13,9.67,9.13,19.67A37.06,37.06,0,0,1,243.6,927Z"/><rect class="cls-4" x="120.03" y="606" width="559.95" height="6" transform="translate(-184.51 174) rotate(-20.05)"/><circle class="cls-1" cx="400" cy="609" r="68"/><circle class="cls-4" cx="400" cy="609" r="57.12"/><polygon class="cls-1" points="427.6 605.75 400 614.55 372.4 605.75 400 573.64 427.6 605.75"/><circle class="cls-1" cx="384.59" cy="615.27" r="15.46"/><circle class="cls-1" cx="415.41" cy="615.27" r="15.46"/><path class="cls-1" d="M419.48,644.36h-39A28.4,28.4,0,0,0,396,619.08V607h8v12.08a28.4,28.4,0,0,0,15.46,25.28Z"/></g></svg>