<svg xmlns="http://www.w3.org/2000/svg" viewBox="0 0 800 1218"><defs><style>.cls-1{fill:#f2f0eb;}.cls-2{fill:#3e95a3;}.cls-3{fill:#d39c53;}.cls-4{fill:#27282b;}</style></defs><title>Qc</title><g id="Layer_2" data-name="Layer 2"><rect class="cls-1" width="800" height="1218"/></g><g id="Layer_1" data-name="Layer 1"><circle class="cls-2" cx="326" cy="199" r="122"/><circle class="cls-2" cx="221" cy="361" r="105"/><circle class="cls-2" cx="431" cy="361" r="105"/><path class="cls-2" d="M414.34,508.54c16.18,19.78,2.13,49.46-23.43,49.46H193.17l.21-.11A193.12,193.12,0,0,0,299,385.73V304h55v82.15C354,425.78,385.65,473.47,414.34,508.54Z"/><path class="cls-2" d="M58.21,113a35.36,35.36,0,0,1-20.7-15,46,46,0,0,1-7.26-25.68,46.11,46.11,0,0,1,5-21.66A37.83,37.83,0,0,1,49.45,35.45a39.47,39.47,0,0,1,20.88-5.52,39.73,39.73,0,0,1,21.06,5.58,38,38,0,0,1,14.22,15.3,46.21,46.21,0,0,1,5,21.6,45.32,45.32,0,0,1-5.1,21.6,37.87,37.87,0,0,1-14.28,15.06,40.17,40.17,0,0,1-20.94,5.46H67.81l-5.28,7.8,7.56,2.52a39.75,39.75,0,0,0,12.48,2.28,15,15,0,0,0,5.28-.9,29.59,29.59,0,0,0,6.36-3.78L98.53,130a35.32,35.32,0,0,1-8.22,4.86,20.76,20.76,0,0,1-7,1.14,46.73,46.73,0,0,1-7.68-.6,49.14,49.14,0,0,1-7.8-2l-10.56-3.48-5.16,7.44-7.2-5.64Zm28.38-11.64A28.24,28.24,0,0,0,97.15,89.39a39.42,39.42,0,0,0,3.66-17.22,38.6,38.6,0,0,0-3.72-17.1A28.65,28.65,0,0,0,86.53,43.13a29.47,29.47,0,0,0-16.08-4.32,29.75,29.75,0,0,0-16.14,4.32A28.06,28.06,0,0,0,43.75,55a38.75,38.75,0,0,0-3.66,17.16,39.44,39.44,0,0,0,3.6,17.16,28.32,28.32,0,0,0,10.44,11.94,29.39,29.39,0,0,0,16.2,4.38A30,30,0,0,0,86.59,101.33Z"/><rect class="cls-2" x="73" y="245" width="6" height="367"/><path class="cls-2" d="M727,606h-6V88.54A37.58,37.58,0,0,0,683.46,51H147V45H683.46A43.59,43.59,0,0,1,727,88.54Z"/><circle class="cls-2" cx="76.5" cy="167.5" r="13.5"/><circle class="cls-2" cx="64.5" cy="185.5" r="11.5"/><circle class="cls-2" cx="87.5" cy="185.5" r="11.5"/><path class="cls-2" d="M90.55,207H61.45A21.26,21.26,0,0,0,73,188.09V179h6v9.09A21.26,21.26,0,0,0,90.55,207Z"/><path class="cls-1" d="M516,501H386a27.06,27.06,0,0,1-26.23-20.38L336,387.47,335.72,233H556.57Z"/><path class="cls-3" d="M335.71,311H367a25.43,25.43,0,0,1,21,11.14l10.55,15.51L382.7,395.72A9.72,9.72,0,0,0,392.08,408H406v93H386.07a27.08,27.08,0,0,1-26.22-20.33L336,387.85Z"/><path class="cls-4" d="M471.07,326.82A22.42,22.42,0,0,0,452.51,317H414v-6h38.51A28.4,28.4,0,0,1,476,323.45Z"/><path class="cls-4" d="M387.52,326.82A22.4,22.4,0,0,0,369,317H331v-6h38a28.41,28.41,0,0,1,23.52,12.45Z"/><polygon class="cls-3" points="468 530.99 406 621.85 406 501 468 501 468 530.99"/><path class="cls-4" d="M421.67,456H393.84A10.84,10.84,0,0,1,383,445.16V445h47.6Z"/><path class="cls-4" d="M404.38,438H383.74a10.32,10.32,0,0,1,20.64,0Z"/><path class="cls-4" d="M425,438H404.38A10.32,10.32,0,0,1,425,438Z"/><polygon class="cls-4" points="420.01 429.15 438.19 438 420.5 438 420.01 429.15"/><polygon class="cls-4" points="398.85 428.86 417.56 438 399.86 438 398.85 428.86"/><polygon class="cls-1" points="471.57 359 439.07 359 430.4 346 463.98 346 471.57 359"/><polygon class="cls-1" points="380 361 358.58 361 350.01 346 376.79 342.79 380 348.15 380 361"/><path class="cls-4" d="M384,348H347.7l-12.1-11h38.78a11.48,11.48,0,0,1,8.65,3.93l12,13.67Z"/><path class="cls-4" d="M377.53,367H363.74a10.85,10.85,0,0,1-9.71-6h29.56A6.07,6.07,0,0,1,377.53,367Z"/><path class="cls-4" d="M348,348h19a0,0,0,0,1,0,0v19a0,0,0,0,1,0,0H357a9,9,0,0,1-9-9V348A0,0,0,0,1,348,348Z"/><polygon class="cls-1" points="458 361 436.58 361 428.01 346 454.79 342.79 458 348.15 458 361"/><path class="cls-4" d="M461.09,348h-35.2l-12.1-11h38.78a11.48,11.48,0,0,1,8.65,3.93l12,13.67Z"/><path class="cls-4" d="M455.72,367H441.93a10.85,10.85,0,0,1-9.71-6h29.56A6.07,6.07,0,0,1,455.72,367Z"/><path class="cls-4" d="M426,348h19a0,0,0,0,1,0,0v19a0,0,0,0,1,0,0H435a9,9,0,0,1-9-9V348A0,0,0,0,1,426,348Z"/><path class="cls-3" d="M474.17,394.24a23.92,23.92,0,0,1-43.45-20Z"/><path class="cls-4" d="M406,412H392.74a13.94,13.94,0,0,1-13.39-17.84l10.44-35.78-11.7-12.68,4.41-4.07,14,15.17-11.39,39A7.95,7.95,0,0,0,392.74,406H406Z"/><polygon class="cls-4" points="425 411 415.27 411 405.8 399.16 410.48 395.42 418.15 405 425 405 425 411"/><rect class="cls-4" x="380" y="435" width="59" height="6"/><rect class="cls-4" x="461.87" y="340.56" width="6" height="18.95" transform="translate(-114.13 408.16) rotate(-42.71)"/><path class="cls-4" d="M316.49,399,233.34,576.81,207.8,558.65l60.87-180.38a11.29,11.29,0,0,1,15.41-6.65L311,384A11.29,11.29,0,0,1,316.49,399Z"/><path class="cls-1" d="M292.34,385.5,236.69,573.72l-28-14.14L242,372.13a11.28,11.28,0,0,1,14.23-8.87l28.45,8.2A11.27,11.27,0,0,1,292.34,385.5Z"/><path class="cls-1" d="M237.21,610.79l33.47-46.39s6.86-.55,11.16-9.77l-9.27-4.33a18.42,18.42,0,0,0,24.49-8.89l-13-6.07a18.42,18.42,0,0,0,24.49-8.88l-79.1-37A33.45,33.45,0,0,0,185,505.62l-12.24,26.19A59.5,59.5,0,0,0,175,586.45l7.1,12.48Z"/><path class="cls-4" d="M210.93,563.49l-7.7,33.58a9.12,9.12,0,0,0,17,6.15L235.89,574Z"/><path class="cls-2" d="M280.36,555a21.35,21.35,0,0,1-9.06-2l-52.84-24.7,2.54-5.44,52.84,24.7a15.43,15.43,0,0,0,19-4.84l-53.69-25.1,2.54-5.44L301.05,540l-1.27,2.72a21.28,21.28,0,0,1-12.1,11.07A21.55,21.55,0,0,1,280.36,555Z"/><path class="cls-2" d="M265.12,568.25a21.28,21.28,0,0,1-9-2L210.66,545l2.54-5.44,45.43,21.23a15.44,15.44,0,0,0,19-4.84l-46-21.48,2.54-5.44,51.66,24.15-1.27,2.71A21.44,21.44,0,0,1,265.12,568.25Z"/><path class="cls-2" d="M249.93,581.49a21.3,21.3,0,0,1-9.06-2l-38-17.77,2.54-5.43,38,17.77a15.45,15.45,0,0,0,19-4.85l-41.53-19.41,2.55-5.43,47.22,22.07-1.28,2.72a21.48,21.48,0,0,1-19.41,12.36Z"/><path class="cls-2" d="M191.21,622.73l-18.89-34.85a62.6,62.6,0,0,1-2.27-57.34l12.24-26.19a36.43,36.43,0,0,1,48.45-17.58L312.56,525l-1.27,2.72a21.45,21.45,0,0,1-28.48,10.33l-56.55-26.43,2.54-5.44,56.55,26.44a15.47,15.47,0,0,0,19-4.85L228.2,492.2a30.47,30.47,0,0,0-40.48,14.69l-12.23,26.19A56.6,56.6,0,0,0,177.56,585l18.92,34.91Z"/><rect class="cls-2" x="244.06" y="589.75" width="6" height="21.06" transform="translate(-36.95 16.57) rotate(-3.58)"/><rect class="cls-2" x="202.56" y="442.88" width="98.2" height="6" transform="translate(-237.78 596.21) rotate(-77.63)"/><path class="cls-4" d="M579.56,471.35a36.43,36.43,0,0,1-36.15-33.81L537.6,355A120.78,120.78,0,0,0,477,258.55l-.25-.14-40.61-22.07a3,3,0,0,1,1.43-5.64l85.33-.08a3,3,0,0,1,2.73,1.74L613.19,421a.54.54,0,0,1,0,.11,36.34,36.34,0,0,1-24.77,49.13A37,37,0,0,1,579.56,471.35ZM449.36,236.69,480,253.33a126.74,126.74,0,0,1,63.61,101.28l5.82,82.51a30.34,30.34,0,1,0,58.32-13.66L521,236.63Z"/><path class="cls-4" d="M436.58,234.08l40.61,22.07.16.09.15.08a123.77,123.77,0,0,1,62.09,98.88l5.82,82.51a33.4,33.4,0,0,0,33.15,31,33.79,33.79,0,0,0,8.19-1,33.32,33.32,0,0,0,22.72-45.06L521.91,234Z"/><path class="cls-4" d="M579.56,489.73a54.48,54.48,0,0,1-54.1-50.54l-5.82-82.52a102.79,102.79,0,0,0-51.5-82.08l-40.58-22.06,2.86-5.27,40.65,22.09a108.82,108.82,0,0,1,54.56,86.9l5.81,82.51a48.34,48.34,0,1,0,92.89-21.85l-.12-.3L531.68,217.25l5.44-2.52,92.56,199.41a.61.61,0,0,1,.05.12l.15.36a54.34,54.34,0,0,1-37,73.46A55,55,0,0,1,579.56,489.73Z"/><path class="cls-4" d="M579.56,507.73a72.55,72.55,0,0,1-72.06-67.28l-5.81-82.51a84.87,84.87,0,0,0-42.34-67.64l-60.77-32.66,2.84-5.28,60.85,32.7a90.87,90.87,0,0,1,45.4,72.46L513.49,440a66.34,66.34,0,1,0,127.49-30l-.27-.66L548,209.67l5.44-2.52,92.72,199.77.06.12.29.72a72.43,72.43,0,0,1-67,100Z"/><path class="cls-4" d="M325.51,270.63,321.69,266a121.42,121.42,0,0,1,17.25-11.93l44.11-24,2.87,5.27-44.05,23.94A114.33,114.33,0,0,0,325.51,270.63Z"/><path class="cls-4" d="M331.51,291.68l-4.22-4.26a109.43,109.43,0,0,1,22.48-17.12l56-30.59,2.88,5.27L352.7,275.53A103.5,103.5,0,0,0,331.51,291.68Z"/><rect class="cls-4" x="322" y="223" width="253" height="35"/><path class="cls-4" d="M601,112.92,575,228H321.66l-5.72-25.29-3.74-16.55-.83-3.67-5.07-22.43-10.66-47.14c25.44,0,25.44,23.48,50.89,23.48s25.44-23.48,50.89-23.48,25.45,23.48,50.89,23.48,25.45-23.48,50.89-23.48,25.45,23.48,50.9,23.48S575.55,112.92,601,112.92Z"/><path class="cls-1" d="M550.1,163.39c-13.89,0-21.11-6.65-27.48-12.53-6.1-5.63-11.86-10.94-23.42-10.94s-17.31,5.31-23.41,10.94c-6.37,5.88-13.58,12.53-27.48,12.53s-21.11-6.65-27.48-12.53c-6.1-5.63-11.86-10.94-23.41-10.94s-17.31,5.31-23.41,10.94c-6.37,5.88-13.59,12.53-27.48,12.53s-21.11-6.65-27.48-12.53c-6.1-5.63-11.86-10.94-23.41-10.94v-6c13.89,0,21.11,6.66,27.48,12.53,6.1,5.63,11.86,10.94,23.41,10.94s17.31-5.31,23.41-10.94c6.37-5.87,13.58-12.53,27.48-12.53s21.11,6.66,27.48,12.53c6.1,5.63,11.86,10.94,23.41,10.94s17.31-5.31,23.41-10.94c6.37-5.87,13.59-12.53,27.48-12.53s21.12,6.66,27.49,12.53c6.1,5.63,11.86,10.94,23.41,10.94s17.32-5.31,23.42-10.94c6.36-5.87,13.58-12.53,27.48-12.53v6c-11.55,0-17.31,5.31-23.42,10.94C571.22,156.74,564,163.39,550.1,163.39Z"/><rect class="cls-1" x="345.99" y="160.81" width="6" height="67.46" transform="translate(-7.98 15.06) rotate(-2.44)"/><rect class="cls-1" x="446" y="161" width="6" height="67"/><rect class="cls-1" x="514.61" y="191.39" width="67.21" height="6" transform="translate(323.09 730.72) rotate(-86.75)"/><path class="cls-1" d="M372.73,207.35A28.48,28.48,0,0,1,346,188.45l5.66-2a22.42,22.42,0,0,0,22.52,14.85c11.31-.72,20.86-11.16,20.86-22.79h6c0,14.69-12.13,27.86-26.48,28.77C373.92,207.33,373.33,207.35,372.73,207.35Z"/><path class="cls-1" d="M423.27,207.35c-.67,0-1.35,0-2-.07C406.53,206.22,395,193.59,395,178.5h6c0,11.95,9.08,22,20.67,22.79a22.92,22.92,0,0,0,17.19-6.08A22,22,0,0,0,446,179h6A28.31,28.31,0,0,1,443,199.61,29,29,0,0,1,423.27,207.35Z"/><path class="cls-1" d="M323.49,207.35a28.24,28.24,0,0,1-14.12-3.77l3-5.2a22.33,22.33,0,0,0,33.22-16.14l5.94.85A28.44,28.44,0,0,1,323.49,207.35Z"/><path class="cls-1" d="M574,207.35a28.45,28.45,0,0,1-28-24.26l5.94-.85a22.35,22.35,0,0,0,33.23,16.15l3,5.19A28.27,28.27,0,0,1,574,207.35Z"/><path class="cls-1" d="M524.24,207.35c-.59,0-1.17,0-1.76-.06-14.35-.91-26.48-14.08-26.48-28.77h6c0,11.63,9.55,22.07,20.86,22.79A23.8,23.8,0,0,0,546.17,186l5.66,2A29.62,29.62,0,0,1,524.24,207.35Z"/><path class="cls-1" d="M473.68,207.35A27.14,27.14,0,0,1,455,200a28.79,28.79,0,0,1-9-21h6a22.76,22.76,0,0,0,7.1,16.65,21.31,21.31,0,0,0,16.23,5.64c11.59-.83,20.67-10.84,20.67-22.79h6c0,15.09-11.53,27.72-26.24,28.78C475.06,207.33,474.37,207.35,473.68,207.35Z"/><rect class="cls-1" x="307" y="227" width="281" height="6"/><circle class="cls-1" cx="398.5" cy="173.5" r="13.5"/><circle class="cls-1" cx="386.5" cy="191.5" r="11.5"/><circle class="cls-1" cx="409.5" cy="191.5" r="11.5"/><path class="cls-1" d="M412.55,213h-29.1A21.26,21.26,0,0,0,395,194.09V185h6v9.09A21.26,21.26,0,0,0,412.55,213Z"/><circle class="cls-1" cx="499.5" cy="173.5" r="13.5"/><circle class="cls-1" cx="487.5" cy="191.5" r="11.5"/><circle class="cls-1" cx="510.5" cy="191.5" r="11.5"/><path class="cls-1" d="M513.55,213h-29.1A21.26,21.26,0,0,0,496,194.09V185h6v9.09A21.26,21.26,0,0,0,513.55,213Z"/><circle class="cls-1" cx="588.5" cy="173.5" r="13.5"/><circle class="cls-1" cx="576.5" cy="191.5" r="11.5"/><path class="cls-1" d="M321,173.5a13.49,13.49,0,0,1-8.8,12.66l-.83-3.67-5.07-22.43q.6-.06,1.2-.06A13.49,13.49,0,0,1,321,173.5Z"/><path class="cls-1" d="M330,191.5A11.5,11.5,0,0,1,318.5,203a11.35,11.35,0,0,1-2.56-.29l-3.74-16.55-.83-3.67A11.37,11.37,0,0,1,318.5,180c.28,0,.55,0,.82,0A11.5,11.5,0,0,1,330,191.5Z"/><circle class="cls-2" cx="474" cy="1019" r="122"/><circle class="cls-2" cx="579" cy="857" r="105"/><circle class="cls-2" cx="369" cy="857" r="105"/><path class="cls-2" d="M385.66,709.46C369.48,689.68,383.53,660,409.09,660H606.83l-.21.11A193.12,193.12,0,0,0,501,832.27V914H446V831.85C446,792.22,414.35,744.53,385.66,709.46Z"/><path class="cls-2" d="M741.56,1105.29a35.35,35.35,0,0,1,20.7,15,49.05,49.05,0,0,1,2.22,47.34,37.8,37.8,0,0,1-14.16,15.17,42.36,42.36,0,0,1-41.94,0,38,38,0,0,1-14.22-15.3,46.24,46.24,0,0,1-5-21.6,45.26,45.26,0,0,1,5.1-21.6,37.67,37.67,0,0,1,14.28-15.06,40.08,40.08,0,0,1,20.94-5.47H732l5.28-7.79-7.56-2.52a39.8,39.8,0,0,0-12.48-2.28,14.93,14.93,0,0,0-5.28.9,29.47,29.47,0,0,0-6.36,3.77l-4.32-7.55a35.59,35.59,0,0,1,8.22-4.87,20.92,20.92,0,0,1,7-1.13,46.73,46.73,0,0,1,7.68.6,50.14,50.14,0,0,1,7.8,2l10.56,3.49,5.16-7.44,7.2,5.63Zm-28.38,11.64a28,28,0,0,0-10.56,11.94,39.2,39.2,0,0,0-3.66,17.21,38.54,38.54,0,0,0,3.72,17.11,28.71,28.71,0,0,0,10.56,11.94,29.47,29.47,0,0,0,16.08,4.32,29.78,29.78,0,0,0,16.14-4.32A28.19,28.19,0,0,0,756,1163.25a38.93,38.93,0,0,0,3.66-17.17,39.36,39.36,0,0,0-3.6-17.15A28.2,28.2,0,0,0,745.64,1117a29.31,29.31,0,0,0-16.2-4.38A29.92,29.92,0,0,0,713.18,1116.93Z"/><rect class="cls-2" x="721" y="606" width="6" height="367"/><path class="cls-2" d="M653,1173H116.54A43.59,43.59,0,0,1,73,1129.46V612h6v517.46A37.58,37.58,0,0,0,116.54,1167H653Z"/><circle class="cls-2" cx="723.5" cy="1050.5" r="13.5"/><circle class="cls-2" cx="735.5" cy="1032.5" r="11.5"/><circle class="cls-2" cx="712.5" cy="1032.5" r="11.5"/><path class="cls-2" d="M709.45,1011h29.1A21.26,21.26,0,0,0,727,1029.91V1039h-6v-9.09A21.26,21.26,0,0,0,709.45,1011Z"/><path class="cls-1" d="M284,717H414a27.06,27.06,0,0,1,26.23,20.38L464,830.53,464.28,985H243.43Z"/><path class="cls-3" d="M464.29,907H433.05a25.43,25.43,0,0,1-21-11.14l-10.55-15.51,15.84-58.07A9.72,9.72,0,0,0,407.92,810H394V717h19.93a27.08,27.08,0,0,1,26.22,20.33L464,830.15Z"/><path class="cls-4" d="M386,907H347.25a28.43,28.43,0,0,1-23.52-12.45l5-3.37A22.41,22.41,0,0,0,347.25,901H386Z"/><path class="cls-4" d="M469,907H430.8a28.4,28.4,0,0,1-23.52-12.45l5-3.37A22.42,22.42,0,0,0,430.8,901H469Z"/><polygon class="cls-3" points="332 687.01 394 596.15 394 717 332 717 332 687.01"/><path class="cls-4" d="M378.33,762h27.83A10.84,10.84,0,0,1,417,772.84V773H369.4Z"/><path class="cls-4" d="M395.39,780H416a10.32,10.32,0,0,1-20.64,0Z"/><path class="cls-4" d="M374.75,780h20.64a10.32,10.32,0,0,1-20.64,0Z"/><polygon class="cls-4" points="379.75 788.85 361.57 780 379.26 780 379.75 788.85"/><polygon class="cls-4" points="400.92 789.14 382.21 780 399.9 780 400.92 789.14"/><polygon class="cls-1" points="328.2 859 360.7 859 369.37 872 335.78 872 328.2 859"/><polygon class="cls-1" points="420 857 441.42 857 449.99 872 423.21 875.21 420 869.85 420 857"/><path class="cls-4" d="M415.77,870h36.3l12.1,11H425.39a11.5,11.5,0,0,1-8.66-3.93l-12-13.67Z"/><path class="cls-4" d="M422.24,851H436a10.85,10.85,0,0,1,9.71,6H416.18A6.06,6.06,0,0,1,422.24,851Z"/><path class="cls-4" d="M433,851h19a0,0,0,0,1,0,0v19a0,0,0,0,1,0,0H442a9,9,0,0,1-9-9V851A0,0,0,0,1,433,851Z" transform="translate(885 1721) rotate(180)"/><polygon class="cls-1" points="342 857 363.42 857 371.99 872 345.21 875.21 342 869.85 342 857"/><path class="cls-4" d="M338.68,870h35.2L386,881H347.2a11.47,11.47,0,0,1-8.65-3.93l-12-13.67Z"/><path class="cls-4" d="M344.05,851h13.79a10.85,10.85,0,0,1,9.71,6H338A6.06,6.06,0,0,1,344.05,851Z"/><path class="cls-4" d="M355,851h19a0,0,0,0,1,0,0v19a0,0,0,0,1,0,0H364a9,9,0,0,1-9-9V851A0,0,0,0,1,355,851Z" transform="translate(729 1721) rotate(180)"/><path class="cls-3" d="M325.6,824a23.92,23.92,0,0,1,43.45,20Z"/><path class="cls-4" d="M417.27,876.37l-14-15.17,11.38-39A7.95,7.95,0,0,0,407,812H394v-6h13a13.94,13.94,0,0,1,13.38,17.84L410,859.62l11.7,12.68Z"/><polygon class="cls-4" points="389.28 822.59 381.62 813 375 813 375 807 384.5 807 393.97 818.84 389.28 822.59"/><rect class="cls-4" x="361" y="777" width="59" height="6"/><rect class="cls-4" x="331.89" y="858.75" width="6" height="18.95" transform="translate(-500.08 457.4) rotate(-42.71)"/><path class="cls-4" d="M483.28,819.24l83.14-177.8L592,659.6,531.09,840a11.28,11.28,0,0,1-15.4,6.64l-26.9-12.36A11.27,11.27,0,0,1,483.28,819.24Z"/><path class="cls-1" d="M507.42,832.75l55.65-188.22,28,14.14L557.8,846.13A11.29,11.29,0,0,1,543.56,855l-28.44-8.21A11.28,11.28,0,0,1,507.42,832.75Z"/><path class="cls-1" d="M562.56,607.46l-33.47,46.39s-6.86.55-11.17,9.77l9.27,4.33a18.43,18.43,0,0,0-24.49,8.89l13,6.07a18.41,18.41,0,0,0-24.48,8.89l79.1,37a33.45,33.45,0,0,0,44.46-16.14L627,686.45a59.53,59.53,0,0,0-2.19-54.64l-7.11-12.49Z"/><path class="cls-4" d="M588.84,654.77l7.69-33.59a9.12,9.12,0,0,0-17-6.15l-15.69,29.22Z"/><path class="cls-2" d="M558.11,706.05l-59.39-27.76,1.27-2.72a21.41,21.41,0,0,1,28.47-10.33l52.85,24.7-2.54,5.43-52.85-24.7a15.43,15.43,0,0,0-19,4.85l53.69,25.09Z"/><path class="cls-2" d="M565.59,689.21l-51.66-24.14,1.27-2.72A21.46,21.46,0,0,1,543.68,652l45.43,21.24-2.54,5.43-45.43-21.23a15.45,15.45,0,0,0-19,4.85l46,21.48Z"/><path class="cls-2" d="M576.37,673.92l-47.22-22.08,1.27-2.71a21.42,21.42,0,0,1,28.48-10.34l38,17.77L594.37,662l-38-17.76a15.43,15.43,0,0,0-19,4.84l41.52,19.41Z"/><path class="cls-2" d="M584.44,734.93A36.39,36.39,0,0,1,569,731.49l-81.82-38.25,1.27-2.71A21.45,21.45,0,0,1,517,680.19l56.55,26.43L571,712.06l-56.56-26.43a15.44,15.44,0,0,0-19,4.84l76.12,35.58A30.43,30.43,0,0,0,612,711.36l12.24-26.18a56.62,56.62,0,0,0-2.08-51.89l-18.92-34.91,5.28-2.86,18.89,34.86a62.57,62.57,0,0,1,2.26,57.34L617.48,713.9a36.52,36.52,0,0,1-33,21Z"/><rect class="cls-2" x="549.7" y="607.44" width="6" height="21.06" transform="translate(-37.46 35.67) rotate(-3.58)"/><rect class="cls-2" x="499.01" y="769.37" width="98.2" height="6" transform="translate(-323.73 1142.34) rotate(-77.63)"/><path class="cls-4" d="M276.85,988a3,3,0,0,1-2.72-1.74L186.57,797.63l0-.12a36.34,36.34,0,0,1,24.77-49.12,36.2,36.2,0,0,1,45.06,32.69l5.82,82.51a120.72,120.72,0,0,0,60.59,96.48l.25.14,40.6,22.07a3,3,0,0,1-1.43,5.64l-85.33.08ZM192,795.16,278.76,982l71.64-.07-30.6-16.64A126.7,126.7,0,0,1,256.19,864l-5.82-82.52A30.34,30.34,0,1,0,192,795.16Z"/><path class="cls-4" d="M363.18,983.92l-40.61-22.07-.15-.09-.15-.08a123.72,123.72,0,0,1-62.09-98.88l-5.82-82.51a33.34,33.34,0,1,0-64.07,15.07L277.85,984Z"/><path class="cls-4" d="M262.65,1003.53,170.08,804.11A.61.61,0,0,0,170,804l-.15-.36a54.34,54.34,0,1,1,104.43-24.56l5.82,82.51a102.75,102.75,0,0,0,51.49,82.08l40.59,22.06L369.34,971,328.7,948.9A108.8,108.8,0,0,1,274.14,862l-5.82-82.51a48.33,48.33,0,1,0-92.89,21.85l.12.3L268.09,1001Z"/><path class="cls-4" d="M246.32,1011.1,153.59,811.33l-.05-.12-.3-.72a72.34,72.34,0,1,1,139-32.69l5.82,82.51A84.84,84.84,0,0,0,340.41,928l60.78,32.66-2.84,5.28-60.86-32.7a90.85,90.85,0,0,1-45.39-72.45l-5.82-82.52a66.34,66.34,0,1,0-127.49,30l.27.66,92.7,199.72Z"/><path class="cls-4" d="M416.72,988.15l-2.87-5.27,44-23.94a114.89,114.89,0,0,0,16.36-11.32l3.82,4.63a121,121,0,0,1-17.26,11.93Z"/><path class="cls-4" d="M394,978.54l-2.87-5.27,55.92-30.55a103,103,0,0,0,21.19-16.15l4.23,4.27A109.65,109.65,0,0,1,450,948Z"/><rect class="cls-4" x="225" y="960" width="253" height="35" transform="translate(703 1955) rotate(180)"/><path class="cls-4" d="M198.77,1105.08l26-115.08H478.11l5.72,25.29,3.74,16.55.83,3.67,5.07,22.43,10.66,47.14c-25.44,0-25.44-23.48-50.89-23.48s-25.44,23.48-50.89,23.48-25.45-23.48-50.89-23.48-25.45,23.48-50.89,23.48-25.45-23.48-50.9-23.48S224.22,1105.08,198.77,1105.08Z"/><path class="cls-1" d="M504.13,1084.33c-13.9,0-21.11-6.66-27.48-12.53-6.1-5.63-11.86-10.94-23.41-10.94s-17.31,5.31-23.41,10.94c-6.37,5.87-13.59,12.53-27.48,12.53s-21.12-6.66-27.48-12.53c-6.1-5.63-11.87-10.94-23.42-10.94s-17.31,5.31-23.41,10.94c-6.37,5.87-13.58,12.53-27.48,12.53s-21.11-6.66-27.48-12.53c-6.1-5.63-11.86-10.94-23.42-10.94s-17.31,5.31-23.41,10.94c-6.37,5.87-13.59,12.53-27.48,12.53v-6c11.55,0,17.31-5.31,23.41-10.94,6.37-5.87,13.59-12.53,27.48-12.53s21.12,6.66,27.49,12.53c6.1,5.63,11.86,10.94,23.41,10.94s17.31-5.31,23.41-10.94c6.37-5.87,13.59-12.53,27.48-12.53s21.12,6.66,27.48,12.53c6.1,5.63,11.87,10.94,23.42,10.94s17.31-5.31,23.41-10.94c6.37-5.87,13.58-12.53,27.48-12.53s21.11,6.66,27.48,12.53c6.1,5.63,11.86,10.94,23.41,10.94Z"/><rect class="cls-1" x="447.78" y="989.98" width="6" height="67.46" transform="translate(-43.25 20.16) rotate(-2.44)"/><rect class="cls-1" x="348" y="990" width="6" height="67"/><rect class="cls-1" x="217.94" y="1020.86" width="67.21" height="6" transform="translate(-784.92 1217.01) rotate(-86.75)"/><path class="cls-1" d="M404.77,1039.73h-6c0-14.69,12.12-27.86,26.48-28.77a28.45,28.45,0,0,1,28.55,18.84l-5.65,2A22.4,22.4,0,0,0,425.63,1017C414.32,1017.66,404.77,1028.1,404.77,1039.73Z"/><path class="cls-1" d="M404.77,1039.75h-6c0-12-9.08-22-20.67-22.79a22.84,22.84,0,0,0-17.19,6.08,21.93,21.93,0,0,0-7.14,16.21h-6a28.27,28.27,0,0,1,9.05-20.6,28.91,28.91,0,0,1,21.7-7.68C393.24,1012,404.77,1024.67,404.77,1039.75Z"/><path class="cls-1" d="M454.18,1036l-5.94-.86a28.33,28.33,0,0,1,42.16-20.49l-3,5.2A22.33,22.33,0,0,0,454.18,1036Z"/><path class="cls-1" d="M247.91,1036a22.33,22.33,0,0,0-33.22-16.15l-3-5.2a28.33,28.33,0,0,1,42.16,20.49Z"/><path class="cls-1" d="M303.77,1039.73h-6c0-11.63-9.56-22.07-20.86-22.78a23.79,23.79,0,0,0-23.32,15.3l-5.65-2A29.61,29.61,0,0,1,277.28,1011C291.64,1011.87,303.77,1025,303.77,1039.73Z"/><path class="cls-1" d="M303.77,1039.75h-6c0-15.08,11.52-27.72,26.24-28.78a27.27,27.27,0,0,1,20.74,7.24,28.76,28.76,0,0,1,9,21h-6a22.73,22.73,0,0,0-7.11-16.65,21.29,21.29,0,0,0-16.22-5.64C312.84,1017.79,303.77,1027.8,303.77,1039.75Z"/><rect class="cls-1" x="212" y="985" width="281" height="6"/><circle class="cls-1" cx="401.5" cy="1044.5" r="13.5"/><circle class="cls-1" cx="413.5" cy="1026.5" r="11.5"/><circle class="cls-1" cx="390.5" cy="1026.5" r="11.5"/><path class="cls-1" d="M387.45,1005h29.1A21.26,21.26,0,0,0,405,1023.91V1033h-6v-9.09A21.26,21.26,0,0,0,387.45,1005Z"/><circle class="cls-1" cx="300.5" cy="1044.5" r="13.5"/><circle class="cls-1" cx="312.5" cy="1026.5" r="11.5"/><circle class="cls-1" cx="289.5" cy="1026.5" r="11.5"/><path class="cls-1" d="M286.45,1005h29.1A21.26,21.26,0,0,0,304,1023.91V1033h-6v-9.09A21.26,21.26,0,0,0,286.45,1005Z"/><circle class="cls-1" cx="211.5" cy="1044.5" r="13.5"/><circle class="cls-1" cx="223.5" cy="1026.5" r="11.5"/><path class="cls-1" d="M478.77,1044.75a13.49,13.49,0,0,1,8.8-12.66l.83,3.67,5.07,22.43q-.6.06-1.2.06A13.49,13.49,0,0,1,478.77,1044.75Z"/><path class="cls-1" d="M469.77,1026.75a11.5,11.5,0,0,1,11.5-11.5,11.35,11.35,0,0,1,2.56.29l3.74,16.55.83,3.67a11.37,11.37,0,0,1-7.13,2.49c-.28,0-.55,0-.82,0A11.5,11.5,0,0,1,469.77,1026.75Z"/><rect class="cls-4" x="120.03" y="606" width="559.95" height="6" transform="translate(-184.51 174) rotate(-20.05)"/><circle class="cls-1" cx="400" cy="609" r="68"/><circle class="cls-4" cx="400" cy="609" r="57.12"/><circle class="cls-1" cx="400" cy="591.71" r="18.21"/><circle class="cls-1" cx="384.53" cy="615.37" r="15.47"/><circle class="cls-1" cx="415.47" cy="615.37" r="15.47"/><path class="cls-1" d="M419.41,644.5H379.68A28.56,28.56,0,0,0,395.45,619V607.18h8.19V619A28.57,28.57,0,0,0,419.4,644.5Z"/></g></svg>