<svg xmlns="http://www.w3.org/2000/svg" viewBox="0 0 800 1218"><defs><style>.cls-1{fill:#f2f0eb;}.cls-2{fill:#d39c53;}.cls-3{fill:#f4622f;}.cls-4{fill:#27282b;}</style></defs><title>Qd</title><g id="Layer_2" data-name="Layer 2"><rect class="cls-1" width="800" height="1218"/></g><g id="Layer_1" data-name="Layer 1"><polygon class="cls-2" points="471 528.99 409 619.85 409 499 471 499 471 528.99"/><polygon class="cls-2" points="329 687.01 391 596.15 391 717 329 717 329 687.01"/><path class="cls-3" d="M76.66,154.7,76,153l-.66,1.7A51.14,51.14,0,0,1,54,180a51.14,51.14,0,0,1,21.34,25.3L76,207l.66-1.7A51.14,51.14,0,0,1,98,180,51.14,51.14,0,0,1,76.66,154.7Z"/><path class="cls-3" d="M357,95.62,350.5,79,344,95.62A500.73,500.73,0,0,1,135,343.48,500.69,500.69,0,0,1,344,591.34L350.5,608,357,591.34A500.69,500.69,0,0,1,566,343.48,500.73,500.73,0,0,1,357,95.62Z"/><path class="cls-4" d="M482.75,147H444.22A105.25,105.25,0,0,0,339,252.25v67.5L588,316V252.25A105.25,105.25,0,0,0,482.75,147Z"/><path class="cls-1" d="M581.06,499H389a27.06,27.06,0,0,1-26.23-20.38L339,385.47,338.72,231H575.31Z"/><path class="cls-2" d="M338.71,309H370a25.43,25.43,0,0,1,21,11.14l10.55,15.51L385.7,393.72A9.72,9.72,0,0,0,395.08,406H409v93H389.07a27.08,27.08,0,0,1-26.22-20.33L339,385.85Z"/><path class="cls-4" d="M472.64,326.82A22.43,22.43,0,0,0,454.08,317H416v-6h38.08a28.41,28.41,0,0,1,23.52,12.45Z"/><path class="cls-4" d="M389.09,326.82A22.42,22.42,0,0,0,370.53,317H333v-6h37.53a28.4,28.4,0,0,1,23.52,12.45Z"/><polygon class="cls-1" points="473.13 359 440.63 359 431.97 346 465.55 346 473.13 359"/><polygon class="cls-1" points="382 361 360.58 361 352.01 346 378.79 342.79 382 348.15 382 361"/><path class="cls-4" d="M385.56,348h-36.3l-12.1-11H376a11.5,11.5,0,0,1,8.65,3.93l12,13.67Z"/><path class="cls-4" d="M379.1,367H365.3a10.83,10.83,0,0,1-9.7-6h29.55A6.05,6.05,0,0,1,379.1,367Z"/><path class="cls-4" d="M350,348h19a0,0,0,0,1,0,0v19a0,0,0,0,1,0,0H359a9,9,0,0,1-9-9V348A0,0,0,0,1,350,348Z"/><polygon class="cls-1" points="460 361 438.58 361 430.01 346 456.79 342.79 460 348.15 460 361"/><path class="cls-4" d="M462.65,348h-35.2l-12.1-11h38.79a11.5,11.5,0,0,1,8.65,3.93l12,13.67Z"/><path class="cls-4" d="M457.28,367H443.49a10.83,10.83,0,0,1-9.7-6h29.55A6.06,6.06,0,0,1,457.28,367Z"/><path class="cls-4" d="M428,348h19a0,0,0,0,1,0,0v19a0,0,0,0,1,0,0H437a9,9,0,0,1-9-9V348A0,0,0,0,1,428,348Z"/><path class="cls-2" d="M475.73,394.68a23.92,23.92,0,1,1-43.45-20Z"/><path class="cls-4" d="M408,412H394.3a13.95,13.95,0,0,1-13.38-17.85l10.44-35.77L379.65,345.7l4.41-4.07,14,15.17-11.39,39A7.95,7.95,0,0,0,394.3,406H408Z"/><polygon class="cls-4" points="427 411 416.83 411 407.36 399.16 412.05 395.42 419.72 405 427 405 427 411"/><rect class="cls-4" x="463.44" y="341" width="6" height="18.95" transform="matrix(0.73, -0.68, 0.68, 0.73, -114.02, 409.33)"/><path class="cls-4" d="M515.85,408h-9.26a3,3,0,0,1-2.9-2.21l-4-14.56,5.79-1.57L508.88,402h7a10.12,10.12,0,0,0,7.18-3l4.24,4.24A16,16,0,0,1,515.85,408Z"/><path class="cls-3" d="M58.21,112a35.36,35.36,0,0,1-20.7-15,46,46,0,0,1-7.26-25.68,46.11,46.11,0,0,1,5-21.66A37.83,37.83,0,0,1,49.45,34.45a39.47,39.47,0,0,1,20.88-5.52,39.73,39.73,0,0,1,21.06,5.58,38,38,0,0,1,14.22,15.3,46.21,46.21,0,0,1,5,21.6,45.32,45.32,0,0,1-5.1,21.6,37.87,37.87,0,0,1-14.28,15.06,40.17,40.17,0,0,1-20.94,5.46H67.81l-5.28,7.8,7.56,2.52a39.75,39.75,0,0,0,12.48,2.28,15,15,0,0,0,5.28-.9,29.59,29.59,0,0,0,6.36-3.78L98.53,129a35.32,35.32,0,0,1-8.22,4.86,20.76,20.76,0,0,1-7,1.14,46.73,46.73,0,0,1-7.68-.6,49.14,49.14,0,0,1-7.8-2l-10.56-3.48-5.16,7.44-7.2-5.64Zm28.38-11.64A28.24,28.24,0,0,0,97.15,88.39a39.42,39.42,0,0,0,3.66-17.22,38.6,38.6,0,0,0-3.72-17.1A28.65,28.65,0,0,0,86.53,42.13a29.47,29.47,0,0,0-16.08-4.32,29.75,29.75,0,0,0-16.14,4.32A28.06,28.06,0,0,0,43.75,54a38.75,38.75,0,0,0-3.66,17.16,39.44,39.44,0,0,0,3.6,17.16,28.32,28.32,0,0,0,10.44,11.94,29.39,29.39,0,0,0,16.2,4.38A30,30,0,0,0,86.59,100.33Z"/><rect class="cls-3" x="73" y="244" width="6" height="367"/><path class="cls-3" d="M727,605h-6V87.54A37.58,37.58,0,0,0,683.46,50H148V44H683.46A43.59,43.59,0,0,1,727,87.54Z"/><polygon class="cls-4" points="609.81 229 309.41 229 326.5 276 592.72 276 609.81 229"/><path class="cls-1" d="M471.54,231.57l-3.08-5.14a48.34,48.34,0,0,0,20.08-23.82l3.46-8.88,3.46,8.88a48.38,48.38,0,0,0,20.08,23.82l-3.08,5.14a54.4,54.4,0,0,1-20.46-22A54.4,54.4,0,0,1,471.54,231.57Z"/><path class="cls-1" d="M410.25,206.76l-.58-1.49-.58,1.49A44.9,44.9,0,0,1,390.33,229a44.9,44.9,0,0,1,18.76,22.24l.58,1.49.58-1.49A44.94,44.94,0,0,1,429,229,44.94,44.94,0,0,1,410.25,206.76Z"/><path class="cls-1" d="M445.68,231.67a90.72,90.72,0,0,1-36-40.69,90.85,90.85,0,0,1-36,40.69l-3.09-5.15a84.62,84.62,0,0,0,35.18-41.71l3.93-10.09,3.92,10.09a84.62,84.62,0,0,0,35.18,41.71Z"/><path class="cls-1" d="M323.88,231.57l-3.09-5.14a48.41,48.41,0,0,0,20.09-23.82l3.45-8.89,3.46,8.89a48.4,48.4,0,0,0,20.09,23.82l-3.09,5.14a54.4,54.4,0,0,1-20.46-22A54.38,54.38,0,0,1,323.88,231.57Z"/><path class="cls-4" d="M594,356h-4.47a100.62,100.62,0,0,1-92.65-61.16l-24.64-57.66,5.52-2.36,24.64,57.67A94.64,94.64,0,0,0,589.53,350H594Z"/><path class="cls-4" d="M594,338h-4.47a82.64,82.64,0,0,1-76.09-50.23l-18.63-43.59,5.51-2.36L519,285.41A76.67,76.67,0,0,0,589.53,332H594Z"/><path class="cls-4" d="M594,374h-4.47a118.61,118.61,0,0,1-109.2-72.08l-24.64-57.67,5.52-2.35,24.64,57.66A112.6,112.6,0,0,0,589.53,368H594Z"/><path class="cls-4" d="M594,320h-4.47A64.66,64.66,0,0,1,530,280.7l-15.61-36.52,5.52-2.36,15.61,36.52a58.67,58.67,0,0,0,54,35.66H594Z"/><path class="cls-4" d="M517.14,243l15.61,36.52A61.66,61.66,0,0,0,589.53,317H594V253Z"/><path class="cls-4" d="M594,392h-4.47a136.57,136.57,0,0,1-125.75-83l-31.72-74.22,5.52-2.35,31.72,74.21A130.56,130.56,0,0,0,589.53,386H594Z"/><path class="cls-4" d="M527.63,541.84,512,521.66a73.49,73.49,0,0,1-1.27-86.44L523,417.72V373h6v45.67a2.94,2.94,0,0,1-.55,1.72L515.6,438.67A67.48,67.48,0,0,0,516.73,518l15.64,20.14Z"/><path class="cls-4" d="M541,535.81l-11-14.15a73.49,73.49,0,0,1-1.27-86.44L541,417.72V381h6v37.67a2.94,2.94,0,0,1-.55,1.72L533.6,438.67A67.48,67.48,0,0,0,534.73,518l11,14.11Z"/><path class="cls-4" d="M553.53,529.71l-5.64-8.14a73.48,73.48,0,0,1-1.2-86.35L559,417.72V386h6v32.67a2.94,2.94,0,0,1-.55,1.72L551.6,438.67A67.48,67.48,0,0,0,552.73,518l.06.09,5.68,8.18Z"/><path class="cls-4" d="M566.9,522.78l-.87-1-.11-.13a73.47,73.47,0,0,1-1.23-86.39L577,417.72V390h6v28.67a2.94,2.94,0,0,1-.55,1.72L569.6,438.67A67.49,67.49,0,0,0,570.68,518l.82,1Z"/><path class="cls-4" d="M569.2,520.85l-.87-1A70.61,70.61,0,0,1,567.15,437L580,418.67V390h14l30,113Z"/><path class="cls-4" d="M569.2,523.85a3,3,0,0,1-2.3-1.07l-.87-1-.11-.13a73.47,73.47,0,0,1-1.23-86.39L577,417.72V390a3,3,0,0,1,2.79-3l14-1a3,3,0,0,1,3.11,2.23l30,114a3,3,0,0,1-2,3.61l-54.8,17.85A3,3,0,0,1,569.2,523.85ZM583,392.79v25.88a2.94,2.94,0,0,1-.55,1.72L569.6,438.67a67.49,67.49,0,0,0,.64,78.69L620.38,501,591.73,392.17Z"/><rect class="cls-1" x="305" y="226" width="312" height="6"/><rect class="cls-1" x="314" y="254" width="303" height="6"/><rect class="cls-1" x="319" y="273" width="283" height="6"/><path class="cls-1" d="M289.45,404.45a95.3,95.3,0,0,0-12.55,47.26v4a37.65,37.65,0,1,1-75.29,0v-4a95.07,95.07,0,0,0-5.17-30.94,94.11,94.11,0,0,0-7.38-16.32Z"/><rect class="cls-4" x="231.73" y="486.02" width="15.06" height="38.9"/><path class="cls-1" d="M263.47,611.81l11.08-53.49s5.77-3.16,5.93-12.87l-9.78-.16A17.59,17.59,0,0,0,288.58,528l-13.68-.23a17.59,17.59,0,0,0,17.88-17.3l-84.14-1.67a14.16,14.16,0,0,0-14.4,13.94l-.75,45.36a56.82,56.82,0,0,0,23.22,46.78L227.77,623Z"/><path class="cls-3" d="M271,548.29h-.35l-55.7-.92.1-6,55.7.92a14.63,14.63,0,0,0,14.48-11.36L228.8,530l.1-6,59.73,1a3,3,0,0,1,2.95,3A20.59,20.59,0,0,1,271,548.29Z"/><path class="cls-3" d="M262.89,565.75h-.35L214.66,565l.1-6,47.88.79a14.64,14.64,0,0,0,14.48-11.36l-48.28-.79.1-6,51.59.85a3,3,0,0,1,3,3A20.63,20.63,0,0,1,262.89,565.75Z"/><path class="cls-3" d="M254.78,583.21h-.34l-40.07-.66.1-6,40.07.66A14.6,14.6,0,0,0,269,565.85l-43.6-.72.1-6,46.91.77a3,3,0,0,1,2.95,3.05A20.62,20.62,0,0,1,254.78,583.21Z"/><path class="cls-3" d="M244.94,640.27l-30.06-23A59.91,59.91,0,0,1,190.49,568l.74-45.24a17.31,17.31,0,0,1,17.58-17l84,1.67a3,3,0,0,1,2.94,3.05,20.61,20.61,0,0,1-20.58,20.25h-.35l-59.61-1,.1-6,59.61,1a14.59,14.59,0,0,0,14.48-11.37l-80.73-1.6a11.3,11.3,0,0,0-11.47,11.11l-.74,45.24a53.91,53.91,0,0,0,22,44.31l30.11,23.06Z"/><rect class="cls-3" x="264.96" y="588.75" width="6" height="20.12" transform="translate(-247.51 193.02) rotate(-27.68)"/><path class="cls-4" d="M239.26,482v11.39a37.65,37.65,0,0,1-37.65-37.65v-4a95.07,95.07,0,0,0-5.17-30.94L211,430.18A61.58,61.58,0,0,1,239.26,482Z"/><path class="cls-4" d="M239.26,482v11.39a37.65,37.65,0,0,0,37.64-37.65v-4a95.07,95.07,0,0,1,5.17-30.94l-14.59,9.41A61.6,61.6,0,0,0,239.26,482Z"/><path class="cls-4" d="M423.63,456H395.8A10.84,10.84,0,0,1,385,445.16V445h47.61Z"/><path class="cls-4" d="M405.94,438H385.31a10.32,10.32,0,1,1,20.63,0Z"/><path class="cls-4" d="M426.58,438H405.94a10.32,10.32,0,0,1,20.64,0Z"/><polygon class="cls-4" points="421.58 429.15 439.76 438 422.07 438 421.58 429.15"/><polygon class="cls-4" points="400.42 428.86 419.12 438 401.43 438 400.42 428.86"/><path class="cls-3" d="M723.11,1061.6l.66,1.7.66-1.7a51,51,0,0,1,21.34-25.3A51.11,51.11,0,0,1,724.43,1011l-.66-1.69-.66,1.69a51.16,51.16,0,0,1-21.34,25.31A51.1,51.1,0,0,1,723.11,1061.6Z"/><path class="cls-3" d="M442.8,1120.68l6.47,16.62,6.46-16.62a500.68,500.68,0,0,1,209-247.86A500.68,500.68,0,0,1,455.73,625l-6.46-16.62L442.8,625a500.66,500.66,0,0,1-209,247.86A500.66,500.66,0,0,1,442.8,1120.68Z"/><path class="cls-4" d="M317.25,1069h38.5A105.25,105.25,0,0,0,461,963.75V896l-249,3.76v64A105.25,105.25,0,0,0,317.25,1069Z"/><path class="cls-1" d="M218.94,717H411a27.06,27.06,0,0,1,26.23,20.38L461,830.53,461.28,985H224.69Z"/><path class="cls-2" d="M461.29,907H430.05a25.43,25.43,0,0,1-21-11.14l-10.55-15.51,15.84-58.07A9.72,9.72,0,0,0,404.92,810H391V717h19.93a27.08,27.08,0,0,1,26.22,20.33L461,830.15Z"/><path class="cls-4" d="M384,905H345.69a28.4,28.4,0,0,1-23.52-12.45l5-3.37A22.42,22.42,0,0,0,345.69,899H384Z"/><path class="cls-4" d="M467,905H429.23a28.41,28.41,0,0,1-23.52-12.45l5-3.37A22.43,22.43,0,0,0,429.23,899H467Z"/><polygon class="cls-1" points="326.63 857 359.13 857 367.8 870 334.22 870 326.63 857"/><polygon class="cls-1" points="418 855 439.42 855 447.99 870 421.21 873.21 418 867.85 418 855"/><path class="cls-4" d="M414.2,868h36.3l12.1,11H423.82a11.47,11.47,0,0,1-8.65-3.93l-12-13.67Z"/><path class="cls-4" d="M420.67,849h13.79a10.85,10.85,0,0,1,9.71,6H414.61A6.06,6.06,0,0,1,420.67,849Z"/><path class="cls-4" d="M431,849h19a0,0,0,0,1,0,0v19a0,0,0,0,1,0,0H440a9,9,0,0,1-9-9V849A0,0,0,0,1,431,849Z" transform="translate(881 1717) rotate(180)"/><polygon class="cls-1" points="340 855 361.42 855 369.99 870 343.21 873.21 340 867.85 340 855"/><path class="cls-4" d="M337.11,868h35.2l12.1,11H345.63a11.48,11.48,0,0,1-8.65-3.93L325,861.4Z"/><path class="cls-4" d="M342.48,849h13.79a10.85,10.85,0,0,1,9.71,6H336.42A6.06,6.06,0,0,1,342.48,849Z"/><path class="cls-4" d="M353,849h19a0,0,0,0,1,0,0v19a0,0,0,0,1,0,0H362a9,9,0,0,1-9-9V849A0,0,0,0,1,353,849Z" transform="translate(725 1717) rotate(180)"/><path class="cls-2" d="M324,821.61a23.92,23.92,0,0,1,43.45,20Z"/><path class="cls-4" d="M415.7,874.37l-14-15.17,11.38-39A7.95,7.95,0,0,0,405.46,810H392v-6h13.46a13.93,13.93,0,0,1,13.38,17.85l-10.43,35.77,11.7,12.68Z"/><polygon class="cls-4" points="387.72 820.59 380.05 811 373 811 373 805 382.93 805 392.4 816.84 387.72 820.59"/><rect class="cls-4" x="330.33" y="856.34" width="6" height="18.95" transform="translate(-498.88 455.73) rotate(-42.71)"/><path class="cls-4" d="M294.25,826.34,290.89,814h-7a10.11,10.11,0,0,0-7.18,3l-4.24-4.24A16,16,0,0,1,283.92,808h9.26a3,3,0,0,1,2.89,2.21l4,14.56Z"/><path class="cls-3" d="M741.56,1104.33a35.39,35.39,0,0,1,20.7,15,49.05,49.05,0,0,1,2.22,47.34,37.83,37.83,0,0,1-14.16,15.18,42.39,42.39,0,0,1-41.94-.06,38,38,0,0,1-14.22-15.3,46.21,46.21,0,0,1-5-21.6,45.32,45.32,0,0,1,5.1-21.6,37.8,37.8,0,0,1,14.28-15.06,40.17,40.17,0,0,1,20.94-5.46H732l5.28-7.8-7.56-2.52a39.8,39.8,0,0,0-12.48-2.28,14.93,14.93,0,0,0-5.28.9,29.59,29.59,0,0,0-6.36,3.78l-4.32-7.56a35.12,35.12,0,0,1,8.22-4.86,20.68,20.68,0,0,1,7-1.14,46.73,46.73,0,0,1,7.68.6,49.14,49.14,0,0,1,7.8,2l10.56,3.48,5.16-7.44,7.2,5.64ZM713.18,1116a28.11,28.11,0,0,0-10.56,11.94,39.28,39.28,0,0,0-3.66,17.22,38.46,38.46,0,0,0,3.72,17.1,28.65,28.65,0,0,0,10.56,11.94,29.47,29.47,0,0,0,16.08,4.32,29.78,29.78,0,0,0,16.14-4.32A28.19,28.19,0,0,0,756,1162.29a38.89,38.89,0,0,0,3.66-17.16,39.44,39.44,0,0,0-3.6-17.16A28.32,28.32,0,0,0,745.64,1116a29.39,29.39,0,0,0-16.2-4.38A30,30,0,0,0,713.18,1116Z"/><rect class="cls-3" x="721" y="605" width="6" height="367"/><path class="cls-3" d="M652,1172H116.54A43.59,43.59,0,0,1,73,1128.46V611h6v517.46A37.58,37.58,0,0,0,116.54,1166H652Z"/><polygon class="cls-4" points="189.96 987 490.35 987 473.26 940 207.05 940 189.96 987"/><path class="cls-1" d="M307.77,1022.57l-3.46-8.88a48.31,48.31,0,0,0-20.09-23.82l3.09-5.15a54.56,54.56,0,0,1,20.46,22,54.46,54.46,0,0,1,20.45-22l3.09,5.15a48.31,48.31,0,0,0-20.09,23.82Z"/><path class="cls-1" d="M389.52,1009.53l.58,1.49.58-1.49a44.91,44.91,0,0,1,18.75-22.23,44.94,44.94,0,0,1-18.75-22.24l-.58-1.49-.58,1.49a44.94,44.94,0,0,1-18.75,22.24A44.91,44.91,0,0,1,389.52,1009.53Z"/><path class="cls-1" d="M390.1,1041.57l-3.92-10.08A84.71,84.71,0,0,0,351,989.77l3.09-5.14a90.78,90.78,0,0,1,36,40.68,90.66,90.66,0,0,1,36-40.68l3.08,5.14A84.74,84.74,0,0,0,394,1031.49Z"/><path class="cls-1" d="M455.43,1022.58l-3.45-8.89a48.31,48.31,0,0,0-20.09-23.82l3.09-5.15a54.46,54.46,0,0,1,20.45,22,54.49,54.49,0,0,1,20.46-22l3.09,5.15a48.31,48.31,0,0,0-20.09,23.82Z"/><path class="cls-4" d="M322,981.18l-24.65-57.67A94.62,94.62,0,0,0,210.24,866H206v-6h4.24a100.61,100.61,0,0,1,92.64,61.16l24.64,57.66Z"/><path class="cls-4" d="M299.44,974.18l-18.63-43.59A76.64,76.64,0,0,0,210.24,884H206v-6h4.24a82.65,82.65,0,0,1,76.09,50.23L305,971.82Z"/><path class="cls-4" d="M338.56,974.1l-24.64-57.66A112.61,112.61,0,0,0,210.24,848H206v-6h4.24a118.58,118.58,0,0,1,109.19,72.08l24.65,57.67Z"/><path class="cls-4" d="M279.87,974.18l-15.61-36.52a58.68,58.68,0,0,0-54-35.66H206v-6h4.24a64.68,64.68,0,0,1,59.54,39.3l15.6,36.52Z"/><path class="cls-4" d="M282.86,973l-15.61-36.52A61.74,61.74,0,0,0,210.47,899H206v64Z"/><path class="cls-4" d="M362.18,983.58l-31.71-74.21A130.58,130.58,0,0,0,210.24,830H206v-6h4.24A136.55,136.55,0,0,1,336,907l31.72,74.22Z"/><path class="cls-4" d="M277,843h-6V797.63a3,3,0,0,1,.55-1.73l12.85-18.27a67.48,67.48,0,0,0-1.13-79.35l-15.64-20.14,4.74-3.68L288,694.64a73.49,73.49,0,0,1,1.27,86.44L277,798.58Z"/><path class="cls-4" d="M259,835h-6V797.63a3,3,0,0,1,.55-1.73l12.85-18.27a67.48,67.48,0,0,0-1.13-79.35l-11-14.12,4.74-3.68,11,14.16a73.49,73.49,0,0,1,1.27,86.44L259,798.58Z"/><path class="cls-4" d="M241,830h-6V797.63a3,3,0,0,1,.55-1.73l12.85-18.27a67.48,67.48,0,0,0-1.13-79.35l-.06-.09L241.53,690l4.94-3.42,5.64,8.14a73.48,73.48,0,0,1,1.2,86.35L241,798.58Z"/><path class="cls-4" d="M223,826h-6V797.63a3,3,0,0,1,.55-1.73l12.85-18.27a67.5,67.5,0,0,0-1.08-79.29l-.82-1,4.6-3.85.87,1,.11.14a73.47,73.47,0,0,1,1.23,86.39L223,798.58Z"/><path class="cls-4" d="M230.8,695.15l.87,1a70.61,70.61,0,0,1,1.18,82.87L220,797.33V826H206L176,713Z"/><path class="cls-4" d="M206,830.3a3,3,0,0,1-2.9-2.24l-30-114a3,3,0,0,1,2-3.62l54.8-17.85a3,3,0,0,1,3.23.93l.87,1,.11.14a73.47,73.47,0,0,1,1.23,86.39L223,798.58V826.3a3,3,0,0,1-2.79,3l-14,1Zm-26.38-115,28.65,108.86,8.73-.63V797.63a3,3,0,0,1,.55-1.73l12.85-18.27a67.49,67.49,0,0,0-.64-78.69Z"/><rect class="cls-1" x="183" y="984" width="312" height="6"/><rect class="cls-1" x="183" y="956" width="303" height="6"/><rect class="cls-1" x="198" y="937" width="283" height="6"/><path class="cls-1" d="M510.5,812A95.6,95.6,0,0,0,523,764.74v-3.38c0-20.22,16.52-37.83,36.74-38.24A37.57,37.57,0,0,1,598,760.76v4a95.43,95.43,0,0,0,5.15,31A94.22,94.22,0,0,0,610.5,812Z"/><rect class="cls-4" x="553" y="691" width="15" height="39" transform="translate(1121 1421) rotate(180)"/><path class="cls-1" d="M536.3,604.48,525.21,658s-5.76,3.15-5.92,13h9.77a17.56,17.56,0,0,0-17.88,17h13.68A18.42,18.42,0,0,0,507,705.84l84.15,1.67A14.91,14.91,0,0,0,606,693.57V648.2a55.85,55.85,0,0,0-22.94-46.77L572,593.31Z"/><path class="cls-3" d="M571,692l-59.82-1a3,3,0,0,1-2.95-3,2.8,2.8,0,0,1,.2-1.05A20.31,20.31,0,0,1,529,668l56.09.92-.1,6L528.86,674a14.31,14.31,0,0,0-14.16,11.06l56.35.94Z"/><path class="cls-3" d="M570.82,675l-51.59-1a3,3,0,0,1-2.94-3,2.75,2.75,0,0,1,.2-1A20.29,20.29,0,0,1,537.07,651l48,.79-.1,6L537,657h-.25a14.3,14.3,0,0,0-13.92,11.07l48.13.93Z"/><path class="cls-3" d="M574.24,657l-46.91-1a3,3,0,0,1-2.93-3,2.75,2.75,0,0,1,.2-1A20.31,20.31,0,0,1,545.17,633l39.88.66-.1,6L545.07,639h-.24a14.32,14.32,0,0,0-13.92,11.07l43.46.93Z"/><path class="cls-3" d="M591.71,711h-.29l-84-1.66a3,3,0,0,1-2.94-3.05A20.58,20.58,0,0,1,525.38,686l59.67,1-.1,6-59.67-1a14.6,14.6,0,0,0-14.48,11.36l80.73,1.6A11.29,11.29,0,0,0,603,693.88l.75-45.25a53.94,53.94,0,0,0-22-44.31l-30.11-23.05,3.65-4.76,30.06,23a59.92,59.92,0,0,1,24.4,49.21L609,694a17.31,17.31,0,0,1-17.29,17Z"/><rect class="cls-3" x="528.81" y="607.43" width="6" height="20.12" transform="translate(-225.99 317.74) rotate(-27.68)"/><path class="cls-4" d="M560,734.11V722.62a38,38,0,0,1,38,38v4a95.78,95.78,0,0,0,5.22,31.23l-14.73-9.5A62.18,62.18,0,0,1,560,734.11Z"/><path class="cls-4" d="M561,734.11V722.62a38,38,0,0,0-38,38v4a95.78,95.78,0,0,1-5.22,31.23l14.73-9.5A62.18,62.18,0,0,0,561,734.11Z"/><path class="cls-4" d="M376.33,760h27.83A10.84,10.84,0,0,1,415,770.84V771H367.4Z"/><path class="cls-4" d="M393.82,778h20.64a10.32,10.32,0,1,1-20.64,0Z"/><path class="cls-4" d="M373.18,778h20.64a10.32,10.32,0,1,1-20.64,0Z"/><polygon class="cls-4" points="378.19 786.85 360 778 377.69 778 378.19 786.85"/><polygon class="cls-4" points="399.35 787.14 380.64 778 398.33 778 399.35 787.14"/><rect class="cls-4" x="382" y="435" width="59" height="6"/><rect class="cls-4" x="120.03" y="605" width="559.95" height="6" transform="translate(-184.17 173.94) rotate(-20.05)"/><circle class="cls-1" cx="400" cy="608" r="68"/><circle class="cls-4" cx="400" cy="608" r="57.12"/><path class="cls-1" d="M400.86,575l-.86-2.21-.86,2.21a66.53,66.53,0,0,1-27.8,33,66.53,66.53,0,0,1,27.8,33l.86,2.21.86-2.21a66.53,66.53,0,0,1,27.8-33A66.53,66.53,0,0,1,400.86,575Z"/></g></svg>