<svg xmlns="http://www.w3.org/2000/svg" viewBox="0 0 800 1274"><defs><style>.cls-1{fill:#f2f0eb;}.cls-2{fill:#d8491d;}.cls-3{fill:#27282b;}.cls-4{fill:#d39c53;}</style></defs><title>Qh</title><g id="Layer_2" data-name="Layer 2"><rect class="cls-1" width="800" height="1274"/></g><g id="Layer_1" data-name="Layer 1"><path class="cls-2" d="M250.26,1063.81a103.12,103.12,0,0,0,196.54,43.74,103.13,103.13,0,0,0,196.55-43.74c0-80.08-196.55-378.34-196.55-378.34S250.26,958.64,250.26,1063.81Z"/><path class="cls-1" d="M335.18,948h34.34a93.83,93.83,0,0,1,93.83,93.83V1102a0,0,0,0,1,0,0h-222a0,0,0,0,1,0,0v-60.17A93.83,93.83,0,0,1,335.18,948Z" transform="translate(704.69 2050) rotate(180)"/><path class="cls-1" d="M488.35,843a21,21,0,0,1,21-21h21v42h-21A21,21,0,0,1,488.35,843Z"/><path class="cls-1" d="M489.35,802h40v20h-20A20,20,0,0,1,489.35,802Z"/><path class="cls-1" d="M489.35,884h40V864h-20A20,20,0,0,0,489.35,884Z"/><path class="cls-1" d="M507.35,823h82a0,0,0,0,1,0,0v2.13A37.87,37.87,0,0,1,551.48,863h-6.26a37.87,37.87,0,0,1-37.87-37.87V823A0,0,0,0,1,507.35,823Z" transform="translate(-294.65 1391.35) rotate(-90)"/><path class="cls-2" d="M559.2,818a35.48,35.48,0,0,0-28.32-14H474.35v-6h56.53A41.44,41.44,0,0,1,564,814.29Z"/><path class="cls-3" d="M560.57,846.64v-6a23.8,23.8,0,0,0,23.78-23.77V753h6v63.87A29.81,29.81,0,0,1,560.57,846.64Z"/><path class="cls-3" d="M587.35,800h.26a38.74,38.74,0,0,1,38.74,38.74V862a0,0,0,0,1,0,0h-.26a38.74,38.74,0,0,1-38.74-38.74V800A0,0,0,0,1,587.35,800Z" transform="translate(1213.69 1662) rotate(180)"/><path class="cls-2" d="M556.1,763.74a3,3,0,0,1-2.46-1.29l-1.59-2.28A15.26,15.26,0,0,1,555.87,739l44.07-30.62,3.43,4.93-44.08,30.62a9.25,9.25,0,0,0-2.44,12.67L617,714.78A19.19,19.19,0,0,0,621.8,688l-19-27.31A36.58,36.58,0,0,0,573.16,645l-16.84-.15,0-6,16.84.15a42.59,42.59,0,0,1,34.54,18.26l19,27.32a25.21,25.21,0,0,1-6.32,35.09l-62.6,43.49A3,3,0,0,1,556.1,763.74Z"/><path class="cls-2" d="M550.28,749.78a3,3,0,0,1-2.47-1.29,18,18,0,0,1,4.52-25.07l39-27.13,3.42,4.93-39,27.13a12,12,0,0,0-4.42,14l39.11-27.17,3.42,4.93L552,749.25A3,3,0,0,1,550.28,749.78Z"/><path class="cls-2" d="M547.19,733.64a3,3,0,0,1-2.47-1.29,18,18,0,0,1,4.52-25.07L582.81,684l3.42,4.92-33.57,23.33a12,12,0,0,0-5,7.74,11.82,11.82,0,0,0,.56,6.3l33.39-23.2,3.42,4.93L548.9,733.11A3,3,0,0,1,547.19,733.64Z"/><path class="cls-2" d="M544.1,717.5a3,3,0,0,1-2.46-1.29,18,18,0,0,1,4.51-25.07l28.09-19.52,3.42,4.93-28.08,19.52a12,12,0,0,0-4.42,14l30.11-20.92,3.43,4.93L545.81,717A3,3,0,0,1,544.1,717.5Z"/><path class="cls-2" d="M529.16,715.49l-6.52-11.85a58.85,58.85,0,0,1-7.29-42.91l.59-37.78,6,.1-.59,38.07a4.12,4.12,0,0,1-.07.59,52.88,52.88,0,0,0,6.52,38.87.41.41,0,0,1,.07.11l6.55,11.91Z"/><path class="cls-1" d="M287.14,744H413.37a27.07,27.07,0,0,1,26.23,20.38l23.75,93.15.28,154.47H292.9Z"/><path class="cls-4" d="M463.63,934H432.39a25.42,25.42,0,0,1-21-11.14l-10.55-15.51,15.84-58.07A9.72,9.72,0,0,0,407.27,837H393.35V744h19.93a27.07,27.07,0,0,1,26.21,20.33l23.86,92.82Z"/><polygon class="cls-3" points="156 723.68 235.26 694.76 339.27 1014.65 254.9 1026.83 156 723.68"/><path class="cls-3" d="M385.35,934H347.27a28.4,28.4,0,0,1-23.52-12.45l5-3.37A22.42,22.42,0,0,0,347.27,928h38.08Z"/><path class="cls-3" d="M468.35,934H430.81a28.41,28.41,0,0,1-23.52-12.45l5-3.37A22.43,22.43,0,0,0,430.81,928h37.54Z"/><polygon class="cls-4" points="331.35 714.01 393.35 623.15 393.35 744 331.35 744 331.35 714.01"/><path class="cls-3" d="M377.71,789h27.83a10.84,10.84,0,0,1,10.84,10.84V800h-47.6Z"/><path class="cls-3" d="M395.4,807H416a10.32,10.32,0,1,1-20.64,0Z"/><path class="cls-3" d="M374.76,807H395.4a10.32,10.32,0,0,1-20.64,0Z"/><polygon class="cls-3" points="379.76 815.85 361.58 807 379.27 807 379.76 815.85"/><polygon class="cls-3" points="400.93 816.14 382.22 807 399.92 807 400.93 816.14"/><polygon class="cls-1" points="328.21 886 360.71 886 369.38 899 335.8 899 328.21 886"/><polygon class="cls-1" points="419.35 884 440.77 884 449.34 899 422.56 902.21 419.35 896.85 419.35 884"/><path class="cls-3" d="M415.78,897h36.3l12.1,11H425.4a11.47,11.47,0,0,1-8.65-3.93l-12-13.67Z"/><path class="cls-3" d="M422.25,878H436a10.85,10.85,0,0,1,9.71,6H416.19A6.06,6.06,0,0,1,422.25,878Z"/><path class="cls-3" d="M432.35,878h19a0,0,0,0,1,0,0v19a0,0,0,0,1,0,0h-10a9,9,0,0,1-9-9V878A0,0,0,0,1,432.35,878Z" transform="translate(883.69 1775) rotate(180)"/><polygon class="cls-1" points="341.35 884 362.77 884 371.34 899 344.56 902.21 341.35 896.85 341.35 884"/><path class="cls-3" d="M338.69,897h35.2L386,908H347.21a11.47,11.47,0,0,1-8.65-3.93l-12-13.67Z"/><path class="cls-3" d="M344.06,878h13.79a10.85,10.85,0,0,1,9.71,6H338A6.06,6.06,0,0,1,344.06,878Z"/><path class="cls-3" d="M354.35,878h19a0,0,0,0,1,0,0v19a0,0,0,0,1,0,0h-10a9,9,0,0,1-9-9V878A0,0,0,0,1,354.35,878Z" transform="translate(727.69 1775) rotate(180)"/><path class="cls-3" d="M387.23,1009.08a70.92,70.92,0,0,0-137-1.14l-5.78-1.61A76.92,76.92,0,0,1,393,1007.58Z"/><path class="cls-3" d="M370.64,1013.38a53.76,53.76,0,0,0-103.86-.88l-5.78-1.61a59.76,59.76,0,0,1,115.45,1Z"/><path class="cls-3" d="M277.32,1037.55a42.63,42.63,0,0,1,82.54-21.38l-5.81,1.51A36.63,36.63,0,1,0,283.13,1036Z"/><path class="cls-3" d="M396,1026.8h-6a77,77,0,0,1,95-74.78l-1.41,5.84A71,71,0,0,0,396,1026.8Z"/><path class="cls-3" d="M413.1,1026.8h-6a59.79,59.79,0,0,1,74.11-58l-1.44,5.83a53.77,53.77,0,0,0-66.67,52.2Z"/><path class="cls-3" d="M430.23,1026.8h-6a42.65,42.65,0,0,1,53.26-41.29l-1.5,5.81a36.65,36.65,0,0,0-45.76,35.48Z"/><polygon class="cls-3" points="224.54 1049 506.93 1049 489.84 1002 241.63 1002 224.54 1049"/><rect class="cls-3" x="224.35" y="1058" width="283" height="6"/><rect class="cls-1" x="233.35" y="999" width="268" height="6"/><path class="cls-4" d="M325.61,850.32a23.92,23.92,0,1,1,43.45,20Z"/><path class="cls-3" d="M417.28,903.37l-14-15.17,11.39-39A8,8,0,0,0,407,839H393.35v-6H407a13.93,13.93,0,0,1,13.38,17.85L410,886.62l11.7,12.68Z"/><polygon class="cls-3" points="389.3 849.59 381.63 840 374.35 840 374.35 834 384.51 834 393.98 845.84 389.3 849.59"/><rect class="cls-3" x="360.35" y="804" width="59" height="6"/><rect class="cls-3" x="331.91" y="885.05" width="6" height="18.95" transform="matrix(0.73, -0.68, 0.68, 0.73, -517.92, 464.4)"/><rect class="cls-1" x="259.91" y="707.71" width="6" height="251.67" transform="matrix(0.95, -0.31, 0.31, 0.95, -247.93, 124.35)"/><path class="cls-3" d="M393.35,1113.47V1031h90.42L472,1035a125.28,125.28,0,0,0-76.83,73.83Z"/><path class="cls-3" d="M393.35,1113.47V1031H302.92l11.81,4a125.28,125.28,0,0,1,76.83,73.83Z"/><path class="cls-1" d="M393.35,1086.61l-2.56-4.18a136.36,136.36,0,0,0-72.54-57.86l-11.8-4,1.92-5.68,11.81,4a142.37,142.37,0,0,1,73.17,56.38,142.29,142.29,0,0,1,73.17-56.38l11.8-4,1.93,5.68-11.81,4a136.3,136.3,0,0,0-72.53,57.86Z"/><circle class="cls-3" cx="393.85" cy="1111.5" r="10.5"/><path class="cls-1" d="M260,985.28a8.18,8.18,0,0,0,15.9-1.59,8.18,8.18,0,0,0,13.72-8.19c-2-6-24.22-23.62-24.22-23.62S257.37,977.35,260,985.28Z"/><path class="cls-1" d="M241.72,930a8.18,8.18,0,0,0,15.9-1.59,8.19,8.19,0,0,0,13.73-8.18c-2-6-24.22-23.63-24.22-23.63S239.11,922,241.72,930Z"/><path class="cls-1" d="M223.47,874.65a8.18,8.18,0,0,0,15.9-1.59,8.18,8.18,0,0,0,13.72-8.19c-2-6-24.22-23.62-24.22-23.62S220.85,866.72,223.47,874.65Z"/><path class="cls-1" d="M205.21,819.34a8.19,8.19,0,0,0,15.9-1.6,8.18,8.18,0,0,0,13.72-8.18c-2-6-24.22-23.62-24.22-23.62S202.59,811.41,205.21,819.34Z"/><path class="cls-1" d="M187,764a8.18,8.18,0,0,0,15.9-1.59,8.18,8.18,0,0,0,13.72-8.19c-2-6-24.22-23.62-24.22-23.62S184.34,756.09,187,764Z"/><path class="cls-3" d="M295.83,855.34,292.47,843h-7a10.11,10.11,0,0,0-7.18,3l-4.24-4.24A16,16,0,0,1,285.5,837h9.26a3,3,0,0,1,2.89,2.21l4,14.56Z"/><path class="cls-2" d="M551.09,210.19a103.13,103.13,0,0,0-196.55-43.74A103.12,103.12,0,0,0,158,210.19c0,80.08,196.54,378.34,196.54,378.34S551.09,315.36,551.09,210.19Z"/><path class="cls-1" d="M431.83,172h34.34A93.83,93.83,0,0,1,560,265.83V326a0,0,0,0,1,0,0H338a0,0,0,0,1,0,0V265.83A93.83,93.83,0,0,1,431.83,172Z"/><path class="cls-1" d="M313,431a21,21,0,0,1-21,21H271V410h21A21,21,0,0,1,313,431Z"/><path class="cls-1" d="M312,472H272V452h20A20,20,0,0,1,312,472Z"/><path class="cls-1" d="M312,390H272v20h20A20,20,0,0,0,312,390Z"/><path class="cls-1" d="M212,411h82a0,0,0,0,1,0,0v2.13A37.87,37.87,0,0,1,256.13,451h-6.26A37.87,37.87,0,0,1,212,413.13V411A0,0,0,0,1,212,411Z" transform="translate(684 178) rotate(90)"/><path class="cls-2" d="M327,476H270.46a41.47,41.47,0,0,1-33.07-16.29l4.76-3.66A35.46,35.46,0,0,0,270.46,470H327Z"/><path class="cls-3" d="M217,521h-6V457.13a29.81,29.81,0,0,1,29.78-29.77v6A23.8,23.8,0,0,0,217,457.13Z"/><path class="cls-3" d="M175,412h.26A38.74,38.74,0,0,1,214,450.74V474a0,0,0,0,1,0,0h-.26A38.74,38.74,0,0,1,175,435.26V412A0,0,0,0,1,175,412Z"/><path class="cls-2" d="M245,635.11,228.13,635a42.61,42.61,0,0,1-34.54-18.26l-19-27.32a25.25,25.25,0,0,1,6.32-35.09l62.6-43.49a3,3,0,0,1,2.25-.49,3,3,0,0,1,1.93,1.24l1.59,2.29a15.23,15.23,0,0,1-3.82,21.2L201.4,565.66,198,560.73l44.07-30.62a9.24,9.24,0,0,0,2.44-12.67l-60.13,41.78A19.24,19.24,0,0,0,179.54,586l19,27.31A36.58,36.58,0,0,0,228.19,629l16.84.15Z"/><path class="cls-2" d="M210,577.71l-3.42-4.93,39-27.13a12,12,0,0,0,4.41-14l-39.1,27.17-3.43-4.93,41.88-29.1a3,3,0,0,1,4.18.76A18,18,0,0,1,249,550.58Z"/><path class="cls-2" d="M218.54,590l-3.43-4.92,33.57-23.33a12,12,0,0,0,4.42-14L219.71,571,216.28,566l36.17-25.13a3,3,0,0,1,4.17.76,18,18,0,0,1-4.51,25.07Z"/><path class="cls-2" d="M227.11,602.38l-3.43-4.93,28.09-19.52a12,12,0,0,0,4.42-14l-30.12,20.92-3.42-4.93L255.53,557a3,3,0,0,1,4.18.76,18,18,0,0,1-4.52,25.07Z"/><path class="cls-2" d="M285.41,651.05l-6-.1.59-38.07a3.06,3.06,0,0,1,.07-.59,52.83,52.83,0,0,0-6.53-38.87l-.06-.11-6.55-11.91,5.25-2.89,6.52,11.85a58.85,58.85,0,0,1,7.3,42.91Z"/><path class="cls-1" d="M514.21,530H388a27.06,27.06,0,0,1-26.23-20.38L338,416.47,337.72,262H508.45Z"/><path class="cls-4" d="M337.71,340H369a25.43,25.43,0,0,1,21,11.14l10.55,15.51L384.7,424.72A9.72,9.72,0,0,0,394.08,437H408v93H388.07a27.08,27.08,0,0,1-26.22-20.33L338,416.85Z"/><polygon class="cls-3" points="645.35 550.32 566.09 579.24 462.08 259.35 546.45 247.17 645.35 550.32"/><path class="cls-3" d="M472.64,355.82A22.43,22.43,0,0,0,454.08,346H416v-6h38.08a28.41,28.41,0,0,1,23.52,12.45Z"/><path class="cls-3" d="M389.09,355.82A22.42,22.42,0,0,0,370.53,346H333v-6h37.53a28.4,28.4,0,0,1,23.52,12.45Z"/><polygon class="cls-4" points="470 559.99 408 650.85 408 530 470 530 470 559.99"/><path class="cls-3" d="M423.63,485H395.8A10.84,10.84,0,0,1,385,474.16V474h47.61Z"/><path class="cls-3" d="M405.94,467H385.31a10.32,10.32,0,1,1,20.63,0Z"/><path class="cls-3" d="M426.58,467H405.94a10.32,10.32,0,0,1,20.64,0Z"/><polygon class="cls-3" points="421.58 458.15 439.76 467 422.07 467 421.58 458.15"/><polygon class="cls-3" points="400.42 457.86 419.12 467 401.43 467 400.42 457.86"/><polygon class="cls-1" points="473.13 388 440.63 388 431.97 375 465.55 375 473.13 388"/><polygon class="cls-1" points="382 390 360.58 390 352.01 375 378.79 371.79 382 377.15 382 390"/><path class="cls-3" d="M385.56,377h-36.3l-12.1-11H376a11.5,11.5,0,0,1,8.65,3.93l12,13.67Z"/><path class="cls-3" d="M379.1,396H365.3a10.83,10.83,0,0,1-9.7-6h29.55A6.05,6.05,0,0,1,379.1,396Z"/><path class="cls-3" d="M350,377h19a0,0,0,0,1,0,0v19a0,0,0,0,1,0,0H359a9,9,0,0,1-9-9V377A0,0,0,0,1,350,377Z"/><polygon class="cls-1" points="460 390 438.58 390 430.01 375 456.79 371.79 460 377.15 460 390"/><path class="cls-3" d="M462.65,377h-35.2l-12.1-11h38.79a11.5,11.5,0,0,1,8.65,3.93l12,13.67Z"/><path class="cls-3" d="M457.28,396H443.49a10.83,10.83,0,0,1-9.7-6h29.55A6.06,6.06,0,0,1,457.28,396Z"/><path class="cls-3" d="M428,377h19a0,0,0,0,1,0,0v19a0,0,0,0,1,0,0H437a9,9,0,0,1-9-9V377A0,0,0,0,1,428,377Z"/><path class="cls-3" d="M482.77,324.05a77,77,0,0,1-74.46-57.63l5.81-1.5a70.91,70.91,0,0,0,137,1.14l5.79,1.61a77,77,0,0,1-74.12,56.38Z"/><path class="cls-3" d="M482.77,306.91a59.88,59.88,0,0,1-57.87-44.79l5.81-1.5a53.76,53.76,0,0,0,103.85.88l5.78,1.61a59.76,59.76,0,0,1-57.57,43.8Z"/><path class="cls-3" d="M482.76,289.78a42.71,42.71,0,0,1-41.27-31.95l5.81-1.51a36.68,36.68,0,0,0,35.46,27.45,36.29,36.29,0,0,0,9.18-1.17A36.67,36.67,0,0,0,518.22,238l5.81-1.51a42.66,42.66,0,0,1-41.27,53.33Z"/><path class="cls-3" d="M334.48,324.1a77.33,77.33,0,0,1-18-2.12l1.4-5.84a71,71,0,0,0,87.55-68.94h6A77,77,0,0,1,334.48,324.1Z"/><path class="cls-3" d="M334.48,307a60.15,60.15,0,0,1-14.35-1.74l1.45-5.83a53.77,53.77,0,0,0,66.67-52.2h6A59.83,59.83,0,0,1,334.48,307Z"/><path class="cls-3" d="M334.48,289.83a42.58,42.58,0,0,1-10.62-1.34l1.49-5.81a36.65,36.65,0,0,0,45.76-35.48h6A42.67,42.67,0,0,1,334.48,289.83Z"/><polygon class="cls-3" points="576.81 225 294.41 225 311.5 272 559.72 272 576.81 225"/><rect class="cls-3" x="294" y="210" width="283" height="6"/><rect class="cls-1" x="300" y="269" width="268" height="6"/><path class="cls-4" d="M475.73,423.68a23.92,23.92,0,1,1-43.45-20Z"/><path class="cls-3" d="M408,441H394.3a13.95,13.95,0,0,1-13.38-17.85l10.44-35.77L379.65,374.7l4.41-4.07,14,15.17-11.39,39A7.95,7.95,0,0,0,394.3,435H408Z"/><polygon class="cls-3" points="427 440 416.83 440 407.36 428.16 412.05 424.42 419.72 434 427 434 427 440"/><rect class="cls-3" x="382" y="464" width="59" height="6"/><rect class="cls-3" x="463.44" y="370" width="6" height="18.95" transform="matrix(0.73, -0.68, 0.68, 0.73, -133.69, 417.02)"/><rect class="cls-1" x="535.44" y="314.63" width="6" height="251.67" transform="matrix(0.95, -0.31, 0.31, 0.95, -110.9, 190.89)"/><path class="cls-3" d="M408,160.53V243H317.58l11.8-4a125.28,125.28,0,0,0,76.84-73.83Z"/><path class="cls-3" d="M408,160.53V243h90.42l-11.8-4a125.28,125.28,0,0,1-76.84-73.83Z"/><path class="cls-1" d="M493,259.1l-11.81-4A142.33,142.33,0,0,1,408,198.73a142.33,142.33,0,0,1-73.17,56.38l-11.81,4-1.92-5.68,11.81-4a136.37,136.37,0,0,0,72.53-57.86l2.56-4.18,2.56,4.18a136.34,136.34,0,0,0,72.53,57.86l11.81,4Z"/><circle class="cls-3" cx="407.5" cy="162.5" r="10.5"/><path class="cls-1" d="M541.36,288.72a8.18,8.18,0,0,0-15.9,1.59,8.19,8.19,0,0,0-13.72,8.19c2,6,24.22,23.62,24.22,23.62S544,296.65,541.36,288.72Z"/><path class="cls-1" d="M559.62,344a8.18,8.18,0,0,0-15.9,1.59A8.18,8.18,0,0,0,530,353.81c2,6,24.22,23.63,24.22,23.63S562.24,352,559.62,344Z"/><path class="cls-1" d="M577.88,399.35a8.18,8.18,0,0,0-15.9,1.59,8.18,8.18,0,0,0-13.72,8.19c2,6,24.22,23.62,24.22,23.62S580.49,407.28,577.88,399.35Z"/><path class="cls-1" d="M596.14,454.66a8.19,8.19,0,0,0-15.9,1.6,8.19,8.19,0,0,0-13.73,8.18c2,6,24.23,23.62,24.23,23.62S598.75,462.59,596.14,454.66Z"/><path class="cls-1" d="M614.39,510a8.18,8.18,0,0,0-15.9,1.59,8.18,8.18,0,0,0-13.72,8.19c2,6,24.22,23.62,24.22,23.62S617,517.91,614.39,510Z"/><path class="cls-3" d="M515.85,437h-9.26a3,3,0,0,1-2.9-2.21l-4-14.56,5.79-1.57L508.88,431h7a10.12,10.12,0,0,0,7.18-3l4.24,4.24A16,16,0,0,1,515.85,437Z"/><path class="cls-2" d="M98,193.37a11.37,11.37,0,0,0-21.66-4.82,11.37,11.37,0,0,0-21.66,4.82c0,8.83,21.66,41.69,21.66,41.69S98,205,98,193.37Z"/><path class="cls-2" d="M58.21,141a35.36,35.36,0,0,1-20.7-15,46,46,0,0,1-7.26-25.68,46.11,46.11,0,0,1,5-21.66A37.83,37.83,0,0,1,49.45,63.45a39.47,39.47,0,0,1,20.88-5.52,39.73,39.73,0,0,1,21.06,5.58,38,38,0,0,1,14.22,15.3,46.21,46.21,0,0,1,5,21.6,45.32,45.32,0,0,1-5.1,21.6,37.87,37.87,0,0,1-14.28,15.06,40.17,40.17,0,0,1-20.94,5.46H67.81l-5.28,7.8,7.56,2.52a39.75,39.75,0,0,0,12.48,2.28,15,15,0,0,0,5.28-.9,29.59,29.59,0,0,0,6.36-3.78L98.53,158a35.32,35.32,0,0,1-8.22,4.86,20.76,20.76,0,0,1-7,1.14,46.73,46.73,0,0,1-7.68-.6,49.14,49.14,0,0,1-7.8-2l-10.56-3.48-5.16,7.44-7.2-5.64Zm28.38-11.64a28.24,28.24,0,0,0,10.56-11.94,39.42,39.42,0,0,0,3.66-17.22,38.6,38.6,0,0,0-3.72-17.1A28.65,28.65,0,0,0,86.53,71.13a29.47,29.47,0,0,0-16.08-4.32,29.75,29.75,0,0,0-16.14,4.32A28.06,28.06,0,0,0,43.75,83a38.75,38.75,0,0,0-3.66,17.16,39.44,39.44,0,0,0,3.6,17.16,28.32,28.32,0,0,0,10.44,11.94,29.39,29.39,0,0,0,16.2,4.38A30,30,0,0,0,86.59,129.33Z"/><rect class="cls-2" x="73" y="273" width="6" height="367"/><path class="cls-2" d="M727,634h-6V116.54A37.58,37.58,0,0,0,683.46,79H148V73H683.46A43.59,43.59,0,0,1,727,116.54Z"/><path class="cls-2" d="M701.79,1081a11.37,11.37,0,0,0,21.66,4.82A11.36,11.36,0,0,0,745.1,1081c0-8.83-21.65-41.7-21.65-41.7S701.79,1069.45,701.79,1081Z"/><path class="cls-2" d="M741.56,1133.44a35.39,35.39,0,0,1,20.7,15,49.05,49.05,0,0,1,2.22,47.34A37.83,37.83,0,0,1,750.32,1211a42.39,42.39,0,0,1-41.94-.06,38,38,0,0,1-14.22-15.3,46.21,46.21,0,0,1-5-21.6,45.32,45.32,0,0,1,5.1-21.6,37.8,37.8,0,0,1,14.28-15.06,40.17,40.17,0,0,1,20.94-5.46H732l5.28-7.8-7.56-2.52a39.8,39.8,0,0,0-12.48-2.28,14.93,14.93,0,0,0-5.28.9,29.59,29.59,0,0,0-6.36,3.78l-4.32-7.56a35.12,35.12,0,0,1,8.22-4.86,20.68,20.68,0,0,1,7-1.14,46.73,46.73,0,0,1,7.68.6,49.14,49.14,0,0,1,7.8,2l10.56,3.48,5.16-7.44,7.2,5.64Zm-28.38,11.64A28.11,28.11,0,0,0,702.62,1157a39.28,39.28,0,0,0-3.66,17.22,38.46,38.46,0,0,0,3.72,17.1,28.65,28.65,0,0,0,10.56,11.94,29.47,29.47,0,0,0,16.08,4.32,29.78,29.78,0,0,0,16.14-4.32A28.19,28.19,0,0,0,756,1191.4a38.89,38.89,0,0,0,3.66-17.16,39.44,39.44,0,0,0-3.6-17.16,28.32,28.32,0,0,0-10.44-11.94,29.39,29.39,0,0,0-16.2-4.38A30,30,0,0,0,713.18,1145.08Z"/><rect class="cls-2" x="721" y="634" width="6" height="367"/><path class="cls-2" d="M652,1201H116.54A43.59,43.59,0,0,1,73,1157.46V640h6v517.46A37.58,37.58,0,0,0,116.54,1195H652Z"/><rect class="cls-3" x="120.03" y="634" width="559.95" height="6" transform="translate(-194.11 175.69) rotate(-20.05)"/><circle class="cls-1" cx="400" cy="637" r="68"/><circle class="cls-3" cx="400" cy="637" r="57.12"/><path class="cls-1" d="M428.87,621.33A15.15,15.15,0,0,0,400,614.9a15.15,15.15,0,0,0-28.87,6.43c0,11.76,28.87,55.56,28.87,55.56S428.87,636.77,428.87,621.33Z"/></g></svg>