<svg xmlns="http://www.w3.org/2000/svg" viewBox="0 0 800 1218"><defs><style>.cls-1{fill:#f2f0eb;}.cls-2{fill:#3e95a3;}.cls-3{fill:#d39c53;}.cls-4{fill:#27282b;}</style></defs><title>Qs</title><g id="Layer_2" data-name="Layer 2"><rect class="cls-1" width="800" height="1218"/></g><g id="Layer_1" data-name="Layer 1"><polygon class="cls-2" points="580.34 322.9 366.88 390.93 153.43 322.9 366.89 74.5 580.34 322.9"/><circle class="cls-2" cx="247.29" cy="397.36" r="119.57"/><circle class="cls-2" cx="486.09" cy="396.49" r="119.57"/><path class="cls-2" d="M430,621.5H216.25A219.64,219.64,0,0,0,335.82,426V332.52H398V426a219.44,219.44,0,0,0,35.52,119.76Z"/><path class="cls-1" d="M557,501l-89,30V501H386a27.06,27.06,0,0,1-26.23-20.38L336,387.47,335.72,233H556.57Z"/><path class="cls-3" d="M335.71,311H367a25.43,25.43,0,0,1,21,11.14l10.55,15.51L382.7,395.72A9.72,9.72,0,0,0,392.08,408H406v93H386.07a27.08,27.08,0,0,1-26.22-20.33L336,387.85Z"/><path class="cls-4" d="M471.07,326.82A22.42,22.42,0,0,0,452.51,317H414v-6h38.51A28.4,28.4,0,0,1,476,323.45Z"/><path class="cls-4" d="M387.52,326.82A22.4,22.4,0,0,0,369,317H331v-6h38a28.41,28.41,0,0,1,23.52,12.45Z"/><polygon class="cls-3" points="468 530.99 406 621.85 406 501 468 501 468 530.99"/><path class="cls-4" d="M421.67,456H393.84A10.84,10.84,0,0,1,383,445.16V445h47.6Z"/><path class="cls-4" d="M404.38,438H383.74a10.32,10.32,0,0,1,20.64,0Z"/><path class="cls-4" d="M425,438H404.38A10.32,10.32,0,0,1,425,438Z"/><polygon class="cls-4" points="420.01 429.15 438.19 438 420.5 438 420.01 429.15"/><polygon class="cls-4" points="398.85 428.86 417.56 438 399.86 438 398.85 428.86"/><polygon class="cls-1" points="471.57 359 439.07 359 430.4 346 463.98 346 471.57 359"/><polygon class="cls-1" points="380 361 358.58 361 350.01 346 376.79 342.79 380 348.15 380 361"/><path class="cls-4" d="M384,348H347.7l-12.1-11h38.78a11.48,11.48,0,0,1,8.65,3.93l12,13.67Z"/><path class="cls-4" d="M377.53,367H363.74a10.85,10.85,0,0,1-9.71-6h29.56A6.07,6.07,0,0,1,377.53,367Z"/><path class="cls-4" d="M348,348h19a0,0,0,0,1,0,0v19a0,0,0,0,1,0,0H357a9,9,0,0,1-9-9V348a0,0,0,0,1,0,0Z"/><polygon class="cls-1" points="458 361 436.58 361 428.01 346 454.79 342.79 458 348.15 458 361"/><path class="cls-4" d="M461.09,348h-35.2l-12.1-11h38.78a11.48,11.48,0,0,1,8.65,3.93l12,13.67Z"/><path class="cls-4" d="M455.72,367H441.93a10.85,10.85,0,0,1-9.71-6h29.56A6.07,6.07,0,0,1,455.72,367Z"/><path class="cls-4" d="M426,348h19a0,0,0,0,1,0,0v19a0,0,0,0,1,0,0H435a9,9,0,0,1-9-9V348a0,0,0,0,1,0,0Z"/><path class="cls-3" d="M474.17,394.24a23.92,23.92,0,0,1-43.45-20Z"/><path class="cls-4" d="M406,412H392.74a13.94,13.94,0,0,1-13.39-17.84l10.44-35.78-11.7-12.68,4.41-4.07,14,15.17-11.39,39A7.95,7.95,0,0,0,392.74,406H406Z"/><polygon class="cls-4" points="425 411 415.27 411 405.8 399.16 410.48 395.42 418.15 405 425 405 425 411"/><rect class="cls-4" x="380" y="435" width="59" height="6"/><rect class="cls-4" x="461.87" y="340.56" width="6" height="18.95" transform="translate(-114.13 408.16) rotate(-42.71)"/><path class="cls-1" d="M287.92,479.29a48.71,48.71,0,0,1-97.42,0c0-.34,0-.7,0-1a48.71,48.71,0,0,1,97.41,1Z"/><rect class="cls-1" x="223.17" y="394.94" width="32.08" height="47.52"/><rect class="cls-4" x="217.23" y="389" width="43.96" height="14.26"/><path class="cls-4" d="M190.5,479.29a48.71,48.71,0,0,0,97.42,0c0-.34,0-.7,0-1l-4-2.9a40.45,40.45,0,0,0-45.44-1.63,40.4,40.4,0,0,1-38,2.68S190.5,476.87,190.5,479.29Z"/><path class="cls-1" d="M256.74,559.33,243,506.46s3.77-5.39-.39-14.17l-8.83,4.19a17.59,17.59,0,0,0,8.37-23.43l-12.37,5.85a17.59,17.59,0,0,0,8.37-23.43L162,491.24a14.17,14.17,0,0,0-6.75,18.87l19.42,41a56.86,56.86,0,0,0,41.54,31.66l13.51,2.37Z"/><path class="cls-2" d="M184.7,523l-2.57-5.42,50.35-23.84a14.62,14.62,0,0,0,8-16.6l-51,24.16-2.56-5.42,56.7-26.86,1.29,2.71a20.6,20.6,0,0,1-9.8,27.43Z"/><path class="cls-2" d="M192.23,538.93l-2.57-5.42L232.94,513a14.59,14.59,0,0,0,7.95-16.59l-43.64,20.66-2.56-5.42L244,488.3l1.28,2.71a20.61,20.61,0,0,1-9.8,27.42Z"/><path class="cls-2" d="M199.76,554.83l-2.57-5.42,36.22-17.15a14.63,14.63,0,0,0,8-16.59L202,534.33l-2.57-5.42,45.11-21.37,1.28,2.72A20.59,20.59,0,0,1,236,537.68Z"/><path class="cls-2" d="M246.41,591.94l-30.84-6.22a59.9,59.9,0,0,1-43.65-33.32l-19.36-40.89a17.3,17.3,0,0,1,8.23-23l78.78-37,1.28,2.7a20.59,20.59,0,0,1-9.8,27.42l-53.88,25.52-2.57-5.42,53.89-25.52a14.61,14.61,0,0,0,7.94-16.6L163.34,493.9a11.3,11.3,0,0,0-5.36,15l19.36,40.89a53.94,53.94,0,0,0,39.35,30l30.9,6.24Z"/><rect class="cls-2" x="252" y="535.62" width="6" height="20.12" transform="translate(-336.28 430.9) rotate(-53.97)"/><path class="cls-1" d="M232.73,378,226,370.2a14.13,14.13,0,0,1,0-18.4,8.07,8.07,0,0,0-.39-10.95l-5.73-5.73,4.24-4.24,5.73,5.73a14.08,14.08,0,0,1,.68,19.12,8.1,8.1,0,0,0,0,10.54l6.74,7.77Z"/><path class="cls-1" d="M248.73,378,242,370.2a14.13,14.13,0,0,1,0-18.4,8.07,8.07,0,0,0-.39-10.95l-5.73-5.73,4.24-4.24,5.73,5.73a14.08,14.08,0,0,1,.68,19.12,8.1,8.1,0,0,0,0,10.54l6.74,7.77Z"/><path class="cls-4" d="M504.59,569.65c-3.7-4-7.65-9.09-7.65-18.1,0-10,4.85-15.13,9.13-19.67,4-4.26,7.49-7.93,7.49-15.55s-3.47-11.29-7.49-15.55c-4.28-4.53-9.13-9.67-9.13-19.66s4.85-15.14,9.13-19.67c4-4.26,7.49-7.94,7.49-15.55s-3.47-11.29-7.49-15.55c-4.28-4.53-9.13-9.67-9.13-19.67s4.85-15.15,9.13-19.67c4-4.24,7.49-7.91,7.49-15.54s-3.47-11.29-7.49-15.55c-4.28-4.53-9.13-9.67-9.13-19.66s4.85-15.14,9.13-19.67c4-4.26,7.49-7.93,7.49-15.54s-3.47-11.29-7.49-15.55c-4.28-4.53-9.13-9.67-9.13-19.67s4.85-15.13,9.13-19.66c4-4.26,7.49-7.94,7.49-15.55h6c0,10-4.85,15.13-9.13,19.67-4,4.25-7.49,7.93-7.49,15.54s3.47,11.29,7.49,15.55c4.28,4.53,9.13,9.67,9.13,19.67s-4.85,15.13-9.13,19.66c-4,4.26-7.49,7.94-7.49,15.55s3.47,11.28,7.49,15.54c4.28,4.53,9.13,9.67,9.13,19.67s-4.85,15.15-9.13,19.67c-4,4.24-7.49,7.9-7.49,15.54s3.47,11.29,7.49,15.55c4.28,4.53,9.13,9.67,9.13,19.67s-4.85,15.13-9.13,19.67c-4,4.26-7.49,7.93-7.49,15.55s3.47,11.29,7.49,15.55c4.28,4.53,9.13,9.67,9.13,19.66s-4.85,15.14-9.13,19.67c-4,4.26-7.49,7.94-7.49,15.55,0,6.86,2.87,10.55,6.07,14Z"/><path class="cls-4" d="M519.12,565.39a23.27,23.27,0,0,1-4.18-13.84c0-10,4.85-15.13,9.13-19.67,4-4.26,7.49-7.93,7.49-15.55s-3.47-11.29-7.49-15.55c-4.28-4.53-9.13-9.67-9.13-19.66s4.85-15.14,9.13-19.67c4-4.26,7.49-7.94,7.49-15.55s-3.47-11.29-7.49-15.55c-4.28-4.53-9.13-9.67-9.13-19.67s4.85-15.15,9.13-19.67c4-4.24,7.49-7.91,7.49-15.54s-3.47-11.29-7.49-15.55c-4.28-4.53-9.13-9.67-9.13-19.66s4.85-15.14,9.13-19.67c4-4.26,7.49-7.93,7.49-15.54s-3.47-11.29-7.49-15.55c-4.28-4.53-9.13-9.67-9.13-19.67s4.85-15.13,9.13-19.66c4-4.26,7.49-7.94,7.49-15.55h6c0,10-4.85,15.13-9.13,19.67-4,4.25-7.49,7.93-7.49,15.54s3.47,11.29,7.49,15.55c4.28,4.53,9.13,9.67,9.13,19.67s-4.85,15.13-9.13,19.66c-4,4.26-7.49,7.94-7.49,15.55s3.47,11.28,7.49,15.54c4.28,4.53,9.13,9.67,9.13,19.67s-4.85,15.15-9.13,19.67c-4,4.24-7.49,7.9-7.49,15.54s3.47,11.29,7.49,15.55c4.28,4.53,9.13,9.67,9.13,19.67s-4.85,15.13-9.13,19.67c-4,4.26-7.49,7.93-7.49,15.55s3.47,11.29,7.49,15.55c4.28,4.53,9.13,9.67,9.13,19.66s-4.85,15.14-9.13,19.67c-4,4.26-7.49,7.94-7.49,15.55A17.26,17.26,0,0,0,524.06,562Z"/><path class="cls-4" d="M534.84,561.32a24.12,24.12,0,0,1-1.9-9.77c0-10,4.85-15.13,9.13-19.67,4-4.26,7.49-7.93,7.49-15.55s-3.47-11.29-7.49-15.55c-4.28-4.53-9.13-9.67-9.13-19.66s4.85-15.14,9.13-19.67c4-4.26,7.49-7.94,7.49-15.55s-3.47-11.29-7.49-15.55c-4.28-4.53-9.13-9.67-9.13-19.67s4.85-15.13,9.13-19.67c4-4.25,7.49-7.93,7.49-15.54s-3.47-11.29-7.49-15.55c-4.28-4.53-9.13-9.67-9.13-19.66s4.85-15.14,9.13-19.67c4-4.26,7.49-7.93,7.49-15.54s-3.47-11.29-7.49-15.55c-4.28-4.53-9.13-9.67-9.13-19.67s4.85-15.13,9.13-19.66c4-4.26,7.49-7.94,7.49-15.55h6c0,10-4.85,15.13-9.13,19.67-4,4.25-7.49,7.93-7.49,15.54s3.47,11.29,7.49,15.55c4.28,4.53,9.13,9.67,9.13,19.67s-4.85,15.13-9.13,19.66c-4,4.26-7.49,7.94-7.49,15.55s3.47,11.28,7.49,15.54c4.28,4.53,9.13,9.67,9.13,19.67s-4.85,15.13-9.13,19.66c-4,4.26-7.49,7.94-7.49,15.55s3.47,11.29,7.49,15.55c4.28,4.53,9.13,9.67,9.13,19.67s-4.85,15.13-9.13,19.67c-4,4.26-7.49,7.93-7.49,15.55s3.47,11.29,7.49,15.55c4.28,4.53,9.13,9.67,9.13,19.66s-4.85,15.14-9.13,19.67c-4,4.26-7.49,7.94-7.49,15.55a18.28,18.28,0,0,0,1.41,7.39Z"/><path class="cls-4" d="M597,538l-59.68,21.47a21.55,21.55,0,0,1-1.38-7.92c0-17.61,16.62-17.61,16.62-35.22s-16.62-17.61-16.62-35.21,16.62-17.61,16.62-35.22-16.62-17.61-16.62-35.22,16.62-17.61,16.62-35.21-16.62-17.61-16.62-35.21,16.62-17.61,16.62-35.21-16.62-17.61-16.62-35.22S555,252.61,555,235Z"/><polygon class="cls-4" points="526.54 225.87 448.1 250.87 369.65 225.87 448.1 134.58 526.54 225.87"/><polygon class="cls-4" points="590.1 186.56 488.22 186.56 306.1 186.56 342.67 290.56 553.52 290.56 590.1 186.56"/><rect class="cls-4" x="333.1" y="265.56" width="229" height="26"/><rect class="cls-1" x="328.1" y="262.56" width="240" height="6"/><rect class="cls-1" x="300" y="184" width="301" height="6"/><polygon class="cls-1" points="393.28 237.01 372.6 243.61 351.91 237.01 372.6 212.95 393.28 237.01"/><circle class="cls-1" cx="361.05" cy="244.14" r="11.59"/><circle class="cls-1" cx="384.15" cy="244.14" r="11.59"/><path class="cls-1" d="M387.19,266H358A21.3,21.3,0,0,0,369.59,247V238h6V247A21.29,21.29,0,0,0,387.19,266Z"/><polygon class="cls-1" points="468.78 237.01 448.1 243.61 427.41 237.01 448.1 212.95 468.78 237.01"/><circle class="cls-1" cx="436.55" cy="244.14" r="11.59"/><circle class="cls-1" cx="459.65" cy="244.14" r="11.59"/><path class="cls-1" d="M462.69,266H433.5A21.3,21.3,0,0,0,445.09,247V238h6V247A21.29,21.29,0,0,0,462.69,266Z"/><polygon class="cls-1" points="544.28 237.01 523.6 243.61 502.91 237.01 523.6 212.95 544.28 237.01"/><circle class="cls-1" cx="512.05" cy="244.14" r="11.59"/><circle class="cls-1" cx="535.15" cy="244.14" r="11.59"/><path class="cls-1" d="M538.19,266H509A21.3,21.3,0,0,0,520.59,247V238h6V247A21.29,21.29,0,0,0,538.19,266Z"/><path class="cls-2" d="M58.21,113a35.36,35.36,0,0,1-20.7-15,46,46,0,0,1-7.26-25.68,46.11,46.11,0,0,1,5-21.66A37.83,37.83,0,0,1,49.45,35.45a39.47,39.47,0,0,1,20.88-5.52,39.73,39.73,0,0,1,21.06,5.58,38,38,0,0,1,14.22,15.3,46.21,46.21,0,0,1,5,21.6,45.32,45.32,0,0,1-5.1,21.6,37.87,37.87,0,0,1-14.28,15.06,40.17,40.17,0,0,1-20.94,5.46H67.81l-5.28,7.8,7.56,2.52a39.75,39.75,0,0,0,12.48,2.28,15,15,0,0,0,5.28-.9,29.59,29.59,0,0,0,6.36-3.78L98.53,130a35.32,35.32,0,0,1-8.22,4.86,20.76,20.76,0,0,1-7,1.14,46.73,46.73,0,0,1-7.68-.6,49.14,49.14,0,0,1-7.8-2l-10.56-3.48-5.16,7.44-7.2-5.64Zm28.38-11.64A28.24,28.24,0,0,0,97.15,89.39a39.42,39.42,0,0,0,3.66-17.22,38.6,38.6,0,0,0-3.72-17.1A28.65,28.65,0,0,0,86.53,43.13a29.47,29.47,0,0,0-16.08-4.32,29.75,29.75,0,0,0-16.14,4.32A28.06,28.06,0,0,0,43.75,55a38.75,38.75,0,0,0-3.66,17.16,39.44,39.44,0,0,0,3.6,17.16,28.32,28.32,0,0,0,10.44,11.94,29.39,29.39,0,0,0,16.2,4.38A30,30,0,0,0,86.59,101.33Z"/><rect class="cls-2" x="73" y="245" width="6" height="367"/><path class="cls-2" d="M727,610h-6V88.54A37.58,37.58,0,0,0,683.46,51H148V45H683.46A43.59,43.59,0,0,1,727,88.54Z"/><polygon class="cls-2" points="96.68 178.07 76 184.66 55.32 178.07 76 154 96.68 178.07"/><circle class="cls-2" cx="64.45" cy="185.2" r="11.59"/><circle class="cls-2" cx="87.55" cy="185.2" r="11.59"/><path class="cls-2" d="M90.6,207H61.4A21.27,21.27,0,0,0,73,188.06V179h6v9.06A21.27,21.27,0,0,0,90.6,207Z"/><polygon class="cls-2" points="219.43 899.35 432.88 831.32 646.33 899.35 432.88 1147.75 219.43 899.35"/><circle class="cls-2" cx="552.5" cy="824.5" r="119.5"/><circle class="cls-2" cx="313.5" cy="825.5" r="119.5"/><path class="cls-2" d="M370,601H583.3A219.48,219.48,0,0,0,464,796.28V890H402V796.53a219.8,219.8,0,0,0-35.45-119.77Z"/><path class="cls-1" d="M242.56,721,332,691v30h82a27.06,27.06,0,0,1,26.23,20.38L464,834.53,464.28,989H243Z"/><path class="cls-3" d="M464.29,911H433.05a25.43,25.43,0,0,1-21-11.14l-10.55-15.51,15.84-58.07A9.72,9.72,0,0,0,407.92,814H394V721h19.93a27.08,27.08,0,0,1,26.22,20.33L464,834.15Z"/><path class="cls-4" d="M386,911H347.25a28.43,28.43,0,0,1-23.52-12.45l5-3.37A22.41,22.41,0,0,0,347.25,905H386Z"/><path class="cls-4" d="M469,911H430.8a28.4,28.4,0,0,1-23.52-12.45l5-3.37A22.42,22.42,0,0,0,430.8,905H469Z"/><polygon class="cls-3" points="332 691.01 394 600.15 394 721 332 721 332 691.01"/><path class="cls-4" d="M378.33,766h27.83A10.84,10.84,0,0,1,417,776.84V777H369.4Z"/><path class="cls-4" d="M395.39,784H416a10.32,10.32,0,0,1-20.64,0Z"/><path class="cls-4" d="M374.75,784h20.64a10.32,10.32,0,0,1-20.64,0Z"/><polygon class="cls-4" points="379.75 792.85 361.57 784 379.26 784 379.75 792.85"/><polygon class="cls-4" points="400.92 793.14 382.21 784 399.9 784 400.92 793.14"/><polygon class="cls-1" points="328.2 863 360.7 863 369.37 876 335.78 876 328.2 863"/><polygon class="cls-1" points="420 861 441.42 861 449.99 876 423.21 879.21 420 873.85 420 861"/><path class="cls-4" d="M415.77,874h36.3l12.1,11H425.39a11.5,11.5,0,0,1-8.66-3.93l-12-13.67Z"/><path class="cls-4" d="M422.24,855H436a10.85,10.85,0,0,1,9.71,6H416.18A6.06,6.06,0,0,1,422.24,855Z"/><path class="cls-4" d="M433,855h19a0,0,0,0,1,0,0v19a0,0,0,0,1,0,0H442a9,9,0,0,1-9-9V855A0,0,0,0,1,433,855Z" transform="translate(885 1729) rotate(180)"/><polygon class="cls-1" points="342 861 363.42 861 371.99 876 345.21 879.21 342 873.85 342 861"/><path class="cls-4" d="M338.68,874h35.2L386,885H347.2a11.47,11.47,0,0,1-8.65-3.93l-12-13.67Z"/><path class="cls-4" d="M344.05,855h13.79a10.85,10.85,0,0,1,9.71,6H338A6.06,6.06,0,0,1,344.05,855Z"/><path class="cls-4" d="M355,855h19a0,0,0,0,1,0,0v19a0,0,0,0,1,0,0H364a9,9,0,0,1-9-9V855A0,0,0,0,1,355,855Z" transform="translate(729 1729) rotate(180)"/><path class="cls-3" d="M325.6,828a23.92,23.92,0,0,1,43.45,20Z"/><path class="cls-4" d="M417.27,880.37l-14-15.17,11.38-39A7.95,7.95,0,0,0,407,816H394v-6h13a13.94,13.94,0,0,1,13.38,17.84L410,863.62l11.7,12.68Z"/><polygon class="cls-4" points="389.28 826.59 381.62 817 375 817 375 811 384.5 811 393.97 822.84 389.28 826.59"/><rect class="cls-4" x="361" y="781" width="59" height="6"/><rect class="cls-4" x="331.89" y="862.75" width="6" height="18.95" transform="translate(-502.8 458.46) rotate(-42.71)"/><path class="cls-1" d="M511.85,743a48.71,48.71,0,0,1,97.42,0c0,.35,0,.7,0,1a48.71,48.71,0,0,1-97.4-1Z"/><rect class="cls-1" x="545" y="780" width="32" height="48" transform="translate(1122 1608) rotate(180)"/><rect class="cls-4" x="539" y="819" width="44" height="14" transform="translate(1122 1652) rotate(180)"/><path class="cls-4" d="M609.27,743a48.71,48.71,0,0,0-97.42,0c0,.35,0,.7,0,1l3.95,2.9a40.48,40.48,0,0,0,45.45,1.62,40.4,40.4,0,0,1,38-2.68S609.27,745.39,609.27,743Z"/><path class="cls-1" d="M543,662.92l13.74,52.87s-3.76,5.39.4,14.17l8.83-4.18a17.59,17.59,0,0,0-8.37,23.43L570,743.35a17.6,17.6,0,0,0-8.38,23.43L637.81,731a14.17,14.17,0,0,0,6.74-18.87l-19.42-41a56.87,56.87,0,0,0-41.53-31.66l-13.52-2.37Z"/><path class="cls-2" d="M556.2,753.2l-1.28-2.71a20.6,20.6,0,0,1,9.8-27.42l50.35-23.85,2.56,5.42-50.35,23.85a14.61,14.61,0,0,0-7.94,16.59l51-24.16,2.57,5.43Z"/><path class="cls-2" d="M555.74,734l-1.28-2.71a20.6,20.6,0,0,1,9.79-27.42l43.29-20.5,2.56,5.42-43.28,20.5a14.59,14.59,0,0,0-8,16.59l43.64-20.66,2.57,5.42Z"/><path class="cls-2" d="M555.28,714.71,554,712a20.59,20.59,0,0,1,9.8-27.43L600,667.42l2.57,5.42L566.36,690a14.6,14.6,0,0,0-8,16.6l39.41-18.67,2.57,5.43Z"/><path class="cls-2" d="M560.19,770.76l-1.28-2.7a20.59,20.59,0,0,1,9.8-27.42l53.88-25.52,2.57,5.42-53.88,25.52a14.6,14.6,0,0,0-7.95,16.6l73.09-34.31a11.31,11.31,0,0,0,5.37-15l-19.37-40.89a53.92,53.92,0,0,0-39.34-30l-30.91-6.24,1.19-5.88,30.83,6.22a59.9,59.9,0,0,1,43.65,33.32l19.37,40.89a17.32,17.32,0,0,1-8.23,23Z"/><rect class="cls-2" x="541.76" y="666.52" width="6" height="20.12" transform="translate(-322.83 719.09) rotate(-53.97)"/><path class="cls-1" d="M575.64,891.37l-5.73-5.73a14.09,14.09,0,0,1-.68-19.12,8.08,8.08,0,0,0,0-10.53l-6.73-7.77,4.53-3.93,6.74,7.77a14.12,14.12,0,0,1,0,18.39,8.07,8.07,0,0,0,.39,10.95l5.73,5.73Z"/><path class="cls-1" d="M559.64,891.37l-5.73-5.73a14.09,14.09,0,0,1-.68-19.12,8.08,8.08,0,0,0,0-10.53l-6.73-7.77,4.53-3.93,6.74,7.77a14.12,14.12,0,0,1,0,18.39,8.07,8.07,0,0,0,.39,10.95l5.73,5.73Z"/><path class="cls-4" d="M286.2,987.63h-6c0-10,4.86-15.13,9.14-19.66,4-4.26,7.49-7.94,7.49-15.55s-3.47-11.29-7.5-15.55c-4.27-4.53-9.13-9.67-9.13-19.66s4.86-15.14,9.14-19.67c4-4.26,7.49-7.93,7.49-15.54s-3.47-11.29-7.5-15.55c-4.27-4.53-9.13-9.67-9.13-19.67s4.86-15.15,9.14-19.67c4-4.24,7.49-7.9,7.49-15.54s-3.47-11.29-7.5-15.55c-4.27-4.53-9.13-9.67-9.13-19.67s4.86-15.13,9.13-19.66c4-4.26,7.5-7.94,7.5-15.55s-3.47-11.29-7.5-15.55c-4.28-4.54-9.13-9.67-9.13-19.67s4.85-15.14,9.13-19.67c4-4.26,7.5-7.94,7.5-15.55,0-6.86-2.87-10.55-6.07-14l4.41-4.06c3.71,4,7.66,9.08,7.66,18.09,0,10-4.85,15.14-9.13,19.67-4,4.26-7.5,7.94-7.5,15.55s3.48,11.29,7.5,15.55c4.28,4.53,9.13,9.67,9.13,19.67S298,756.27,293.7,760.8c-4,4.26-7.5,7.94-7.5,15.55s3.48,11.29,7.5,15.55c4.28,4.54,9.13,9.67,9.13,19.67s-4.85,15.15-9.14,19.67c-4,4.24-7.49,7.91-7.49,15.54s3.48,11.29,7.5,15.55c4.28,4.53,9.13,9.67,9.13,19.67s-4.85,15.13-9.13,19.66c-4,4.26-7.5,7.94-7.5,15.55s3.48,11.28,7.5,15.54c4.28,4.54,9.13,9.67,9.13,19.67s-4.85,15.13-9.13,19.67C289.68,976.34,286.2,980,286.2,987.63Z"/><path class="cls-4" d="M268.2,987.63h-6c0-10,4.86-15.13,9.14-19.66,4-4.26,7.49-7.94,7.49-15.55s-3.47-11.29-7.5-15.55c-4.27-4.53-9.13-9.67-9.13-19.66s4.86-15.14,9.14-19.67c4-4.26,7.49-7.93,7.49-15.54s-3.47-11.29-7.5-15.55c-4.27-4.53-9.13-9.67-9.13-19.67s4.86-15.15,9.14-19.67c4-4.24,7.49-7.9,7.49-15.54s-3.47-11.29-7.5-15.55c-4.27-4.53-9.13-9.67-9.13-19.67s4.86-15.13,9.13-19.66c4-4.26,7.5-7.94,7.5-15.55s-3.47-11.29-7.5-15.55c-4.28-4.54-9.13-9.67-9.13-19.67s4.85-15.14,9.13-19.67c4-4.26,7.5-7.94,7.5-15.55a17.28,17.28,0,0,0-3.12-10.43l4.94-3.41a23.29,23.29,0,0,1,4.18,13.84c0,10-4.85,15.14-9.13,19.67-4,4.26-7.5,7.94-7.5,15.55s3.48,11.29,7.5,15.55c4.28,4.53,9.13,9.67,9.13,19.67S280,756.27,275.7,760.8c-4,4.26-7.5,7.94-7.5,15.55s3.48,11.29,7.5,15.55c4.28,4.54,9.13,9.67,9.13,19.67s-4.85,15.15-9.14,19.67c-4,4.24-7.49,7.91-7.49,15.54s3.48,11.29,7.5,15.55c4.28,4.53,9.13,9.67,9.13,19.67s-4.85,15.13-9.13,19.66c-4,4.26-7.5,7.94-7.5,15.55s3.48,11.28,7.5,15.54c4.28,4.54,9.13,9.67,9.13,19.67s-4.85,15.13-9.13,19.67C271.68,976.34,268.2,980,268.2,987.63Z"/><path class="cls-4" d="M250.2,987.63h-6c0-10,4.86-15.13,9.14-19.66,4-4.26,7.49-7.94,7.49-15.55s-3.47-11.29-7.5-15.55c-4.27-4.53-9.13-9.67-9.13-19.66s4.86-15.14,9.14-19.67c4-4.26,7.49-7.93,7.49-15.54s-3.47-11.29-7.5-15.55c-4.27-4.53-9.13-9.67-9.13-19.67s4.86-15.13,9.13-19.66c4-4.26,7.5-7.94,7.5-15.55s-3.47-11.29-7.5-15.55c-4.27-4.53-9.13-9.67-9.13-19.67s4.86-15.13,9.13-19.66c4-4.26,7.5-7.94,7.5-15.55s-3.47-11.29-7.5-15.55c-4.28-4.54-9.13-9.67-9.13-19.67s4.85-15.14,9.13-19.67c4-4.26,7.5-7.94,7.5-15.55a18.19,18.19,0,0,0-1.41-7.38l5.5-2.39a24,24,0,0,1,1.91,9.77c0,10-4.85,15.14-9.13,19.67-4,4.26-7.5,7.94-7.5,15.55s3.48,11.29,7.5,15.55c4.28,4.53,9.13,9.67,9.13,19.67S262,756.27,257.7,760.8c-4,4.26-7.5,7.94-7.5,15.55s3.48,11.29,7.5,15.55c4.28,4.54,9.13,9.67,9.13,19.67s-4.85,15.14-9.13,19.67c-4,4.26-7.5,7.93-7.5,15.54s3.48,11.29,7.5,15.55c4.28,4.53,9.13,9.67,9.13,19.67s-4.85,15.13-9.13,19.66c-4,4.26-7.5,7.94-7.5,15.55s3.48,11.28,7.5,15.54c4.28,4.54,9.13,9.67,9.13,19.67s-4.85,15.13-9.13,19.67C253.68,976.34,250.2,980,250.2,987.63Z"/><path class="cls-4" d="M202.77,684.25l59.67-21.46a21.25,21.25,0,0,1,1.39,7.91c0,17.61-16.63,17.61-16.63,35.22s16.63,17.61,16.63,35.22-16.63,17.61-16.63,35.21,16.63,17.61,16.63,35.22-16.63,17.61-16.63,35.21,16.63,17.61,16.63,35.22-16.63,17.6-16.63,35.21,16.63,17.6,16.63,35.21-19.06,17.23-19.06,34.83Z"/><polygon class="cls-4" points="273.22 996.38 351.67 971.38 430.12 996.38 351.67 1087.67 273.22 996.38"/><polygon class="cls-4" points="209.67 1036 311.54 1036 493.67 1036 457.1 932 246.24 932 209.67 1036"/><rect class="cls-4" x="238" y="931" width="229" height="26" transform="translate(705 1888) rotate(180)"/><rect class="cls-1" x="232" y="954" width="240" height="6"/><rect class="cls-1" x="199" y="1032" width="301" height="6"/><polygon class="cls-1" points="406.49 985.24 427.17 978.65 447.85 985.24 427.17 1009.3 406.49 985.24"/><circle class="cls-1" cx="438.5" cy="978.5" r="11.5"/><circle class="cls-1" cx="415.5" cy="978.5" r="11.5"/><path class="cls-1" d="M412.45,956h29.1A21.26,21.26,0,0,0,430,974.91V984h-6v-9.09A21.26,21.26,0,0,0,412.45,956Z"/><polygon class="cls-1" points="330.99 985.24 351.67 978.65 372.35 985.24 351.67 1009.3 330.99 985.24"/><circle class="cls-1" cx="363.5" cy="978.5" r="11.5"/><circle class="cls-1" cx="340.5" cy="978.5" r="11.5"/><path class="cls-1" d="M337.45,956h29.1A21.26,21.26,0,0,0,355,974.91V984h-6v-9.09A21.26,21.26,0,0,0,337.45,956Z"/><polygon class="cls-1" points="255.49 985.24 276.17 978.65 296.85 985.24 276.17 1009.3 255.49 985.24"/><circle class="cls-1" cx="287.5" cy="978.5" r="11.5"/><circle class="cls-1" cx="264.5" cy="978.5" r="11.5"/><path class="cls-1" d="M261.45,956h29.1A21.26,21.26,0,0,0,279,974.91V984h-6v-9.09A21.26,21.26,0,0,0,261.45,956Z"/><path class="cls-2" d="M741.56,1109.29a35.35,35.35,0,0,1,20.7,15,49.05,49.05,0,0,1,2.22,47.34,37.8,37.8,0,0,1-14.16,15.17,42.36,42.36,0,0,1-41.94,0,38,38,0,0,1-14.22-15.3,46.24,46.24,0,0,1-5-21.6,45.26,45.26,0,0,1,5.1-21.6,37.67,37.67,0,0,1,14.28-15.06,40.08,40.08,0,0,1,20.94-5.47H732l5.28-7.79-7.56-2.52a39.8,39.8,0,0,0-12.48-2.28,14.93,14.93,0,0,0-5.28.9,29.47,29.47,0,0,0-6.36,3.77l-4.32-7.55a35.59,35.59,0,0,1,8.22-4.87,20.92,20.92,0,0,1,7-1.13,46.73,46.73,0,0,1,7.68.6,50.14,50.14,0,0,1,7.8,2l10.56,3.49,5.16-7.44,7.2,5.63Zm-28.38,11.64a28,28,0,0,0-10.56,11.94,39.2,39.2,0,0,0-3.66,17.21,38.54,38.54,0,0,0,3.72,17.11,28.71,28.71,0,0,0,10.56,11.94,29.47,29.47,0,0,0,16.08,4.32,29.78,29.78,0,0,0,16.14-4.32A28.19,28.19,0,0,0,756,1167.25a38.93,38.93,0,0,0,3.66-17.17,39.36,39.36,0,0,0-3.6-17.15A28.2,28.2,0,0,0,745.64,1121a29.31,29.31,0,0,0-16.2-4.38A29.92,29.92,0,0,0,713.18,1120.93Z"/><rect class="cls-2" x="721" y="610" width="6" height="367"/><path class="cls-2" d="M652,1177H116.54A43.59,43.59,0,0,1,73,1133.46V612h6v521.46A37.58,37.58,0,0,0,116.54,1171H652Z"/><polygon class="cls-2" points="703.08 1044.18 723.77 1037.59 744.45 1044.18 723.77 1068.25 703.08 1044.18"/><circle class="cls-2" cx="735.5" cy="1037.5" r="11.5"/><circle class="cls-2" cx="712.5" cy="1037.5" r="11.5"/><path class="cls-2" d="M709.45,1015h29.1A21.26,21.26,0,0,0,727,1033.91V1043h-6v-9.09A21.26,21.26,0,0,0,709.45,1015Z"/><rect class="cls-4" x="120.03" y="607" width="559.95" height="6" transform="translate(-184.85 174.06) rotate(-20.05)"/><circle class="cls-1" cx="400" cy="610" r="68"/><circle class="cls-4" cx="400" cy="610" r="57.12"/><polygon class="cls-1" points="427.6 606.75 400 615.55 372.4 606.75 400 574.64 427.6 606.75"/><circle class="cls-1" cx="384.59" cy="616.27" r="15.46"/><circle class="cls-1" cx="415.41" cy="616.27" r="15.46"/><path class="cls-1" d="M419.48,645.36h-39A28.4,28.4,0,0,0,396,620.08V608h8v12.08a28.4,28.4,0,0,0,15.46,25.28Z"/></g></svg>