<svg xmlns="http://www.w3.org/2000/svg" viewBox="0 0 800 1267"><defs><style>.cls-1{fill:#27282b;}.cls-2{fill:#3e95a3;}.cls-3{fill:#d39c53;}.cls-4{fill:#f2f0eb;}</style></defs><title>shirt</title><g id="Layer_1" data-name="Layer 1"><rect class="cls-1" width="800" height="1267"/><circle class="cls-2" cx="400" cy="633.5" r="207"/><path class="cls-3" d="M800,0H400V426.5c114.16,0,206.72,92.41,207,206.5H800Z"/><path class="cls-4" d="M400,426.5v.31C400,540.69,492.31,633,606.19,633h.8C606.72,518.91,514.16,426.5,400,426.5Z"/><path class="cls-3" d="M193,633.5c0-.17,0-.33,0-.5H0v634H400V840.5C285.68,840.5,193,747.82,193,633.5Z"/><path class="cls-4" d="M193.81,633H193c0,.17,0,.33,0,.5,0,114.32,92.68,207,207,207v-1.31C400,725.31,307.69,633,193.81,633Z"/></g></svg>