<svg xmlns="http://www.w3.org/2000/svg" viewBox="0 0 800 1267"><defs><style>.cls-1{fill:#f2f0eb;}.cls-2{fill:#3e95a3;}</style></defs><title>10c</title><g id="Layer_2" data-name="Layer 2"><rect class="cls-1" width="800" height="1267"/></g><g id="Layer_1" data-name="Layer 1"><path class="cls-2" d="M34.57,81a23.87,23.87,0,0,1-9.24,1.5L23.17,74a9.94,9.94,0,0,0,1.8.12,19.7,19.7,0,0,0,9.42-2.64,141.27,141.27,0,0,0,13-8.4q.84-.48,2.52-1.68h2.88v80.16H43V76.17A33.7,33.7,0,0,1,34.57,81Z"/><path class="cls-2" d="M79.63,136.89a35.49,35.49,0,0,1-11.4-14.82A50.64,50.64,0,0,1,68.29,83,35.51,35.51,0,0,1,79.75,68.19a28.64,28.64,0,0,1,17.58-5.58,28.18,28.18,0,0,1,17.52,5.64,36,36,0,0,1,11.4,14.94,49.86,49.86,0,0,1,4,19.74,48.57,48.57,0,0,1-4,19.56,34.7,34.7,0,0,1-11.46,14.58,28.88,28.88,0,0,1-17.46,5.46A28.62,28.62,0,0,1,79.63,136.89Zm30.36-7.8a26.84,26.84,0,0,0,7.8-11.52,43.82,43.82,0,0,0,2.58-15.12,42.41,42.41,0,0,0-2.7-15.24,26,26,0,0,0-7.92-11.28,20.41,20.41,0,0,0-25,.12,26.87,26.87,0,0,0-7.92,11.4,42.07,42.07,0,0,0-2.7,15.12,42.56,42.56,0,0,0,2.7,15.18,26.59,26.59,0,0,0,8,11.46,19.27,19.27,0,0,0,12.6,4.32A18.71,18.71,0,0,0,110,129.09Z"/><rect class="cls-2" x="73" y="274" width="6" height="363"/><path class="cls-2" d="M727,630h-6V116.54A37.58,37.58,0,0,0,683.46,79H151V73H683.46A43.59,43.59,0,0,1,727,116.54Z"/><circle class="cls-2" cx="75.07" cy="195.42" r="13.42"/><circle class="cls-2" cx="63.52" cy="213.2" r="11.59"/><circle class="cls-2" cx="86.62" cy="213.2" r="11.59"/><path class="cls-2" d="M89.66,235H60.47a21.29,21.29,0,0,0,11.59-18.94V207h6v9.06A21.28,21.28,0,0,0,89.66,235Z"/><path class="cls-2" d="M765.5,1186.38a23.87,23.87,0,0,1,9.24-1.5l2.16,8.52a9.94,9.94,0,0,0-1.8-.12,19.7,19.7,0,0,0-9.42,2.64,141.27,141.27,0,0,0-13,8.4q-.84.48-2.52,1.68h-2.88v-80.16h9.84v65.4A33.7,33.7,0,0,1,765.5,1186.38Z"/><path class="cls-2" d="M720.44,1130.52a35.49,35.49,0,0,1,11.4,14.82,50.64,50.64,0,0,1-.06,39.12,35.51,35.51,0,0,1-11.46,14.76,28.64,28.64,0,0,1-17.58,5.58,28.18,28.18,0,0,1-17.52-5.64,36,36,0,0,1-11.4-14.94,49.86,49.86,0,0,1-4-19.74,48.57,48.57,0,0,1,4-19.56,34.7,34.7,0,0,1,11.46-14.58,30.62,30.62,0,0,1,35.16.18Zm-30.36,7.8a26.84,26.84,0,0,0-7.8,11.52A43.82,43.82,0,0,0,679.7,1165a42.41,42.41,0,0,0,2.7,15.24,26,26,0,0,0,7.92,11.28,20.41,20.41,0,0,0,25-.12,26.87,26.87,0,0,0,7.92-11.4,42.07,42.07,0,0,0,2.7-15.12,42.56,42.56,0,0,0-2.7-15.18,26.59,26.59,0,0,0-8-11.46,19.27,19.27,0,0,0-12.6-4.32A18.71,18.71,0,0,0,690.08,1138.32Z"/><rect class="cls-2" x="721" y="630" width="6" height="363"/><path class="cls-2" d="M649,1194H116.54A43.59,43.59,0,0,1,73,1150.46V637h6v513.46A37.58,37.58,0,0,0,116.54,1188H649Z"/><circle class="cls-2" cx="724.5" cy="1071.5" r="13.5"/><circle class="cls-2" cx="736.5" cy="1054.5" r="11.5"/><circle class="cls-2" cx="713.5" cy="1054.5" r="11.5"/><path class="cls-2" d="M710.45,1032h29.1A21.26,21.26,0,0,0,728,1050.91V1060h-6v-9.09A21.26,21.26,0,0,0,710.45,1032Z"/><circle class="cls-2" cx="239.5" cy="209.54" r="40.46"/><circle class="cls-2" cx="203.53" cy="263.49" r="34.47"/><circle class="cls-2" cx="272.47" cy="263.49" r="34.47"/><path class="cls-2" d="M281.59,327.92H194.41A63.7,63.7,0,0,0,229,271.25V244h18v27.25a63.7,63.7,0,0,0,34.6,56.67Z"/><circle class="cls-2" cx="563.5" cy="209.54" r="40.46"/><circle class="cls-2" cx="527.53" cy="263.49" r="34.47"/><circle class="cls-2" cx="596.47" cy="263.49" r="34.47"/><path class="cls-2" d="M605.59,327.92H518.41A63.7,63.7,0,0,0,553,271.25V244h18v27.25a63.7,63.7,0,0,0,34.6,56.67Z"/><circle class="cls-2" cx="239.5" cy="470.54" r="40.46"/><circle class="cls-2" cx="203.53" cy="524.49" r="34.47"/><circle class="cls-2" cx="272.47" cy="524.49" r="34.47"/><path class="cls-2" d="M281.59,588.92H194.41A63.7,63.7,0,0,0,229,532.25V505h18v27.25a63.7,63.7,0,0,0,34.6,56.67Z"/><circle class="cls-2" cx="563.5" cy="470.54" r="40.46"/><circle class="cls-2" cx="527.53" cy="524.49" r="34.47"/><circle class="cls-2" cx="596.47" cy="524.49" r="34.47"/><path class="cls-2" d="M605.59,588.92H518.41A63.7,63.7,0,0,0,553,532.25V505h18v27.25a63.7,63.7,0,0,0,34.6,56.67Z"/><circle class="cls-2" cx="239.5" cy="726.54" r="40.46"/><circle class="cls-2" cx="203.53" cy="780.49" r="34.47"/><circle class="cls-2" cx="272.47" cy="780.49" r="34.47"/><path class="cls-2" d="M281.59,844.92H194.41A63.7,63.7,0,0,0,229,788.25V761h18v27.25a63.7,63.7,0,0,0,34.6,56.67Z"/><circle class="cls-2" cx="401.5" cy="854.54" r="40.46"/><circle class="cls-2" cx="365.53" cy="908.49" r="34.47"/><circle class="cls-2" cx="434.47" cy="908.49" r="34.47"/><path class="cls-2" d="M443.59,972.92H356.41A63.7,63.7,0,0,0,391,916.25V889h18v27.25a63.7,63.7,0,0,0,34.6,56.67Z"/><circle class="cls-2" cx="401.5" cy="342.54" r="40.46"/><circle class="cls-2" cx="365.53" cy="396.49" r="34.47"/><circle class="cls-2" cx="434.47" cy="396.49" r="34.47"/><path class="cls-2" d="M443.59,460.92H356.41A63.7,63.7,0,0,0,391,404.25V377h18v27.25a63.7,63.7,0,0,0,34.6,56.67Z"/><circle class="cls-2" cx="563.5" cy="726.54" r="40.46"/><circle class="cls-2" cx="527.53" cy="780.49" r="34.47"/><circle class="cls-2" cx="596.47" cy="780.49" r="34.47"/><path class="cls-2" d="M605.59,844.92H518.41A63.7,63.7,0,0,0,553,788.25V761h18v27.25a63.7,63.7,0,0,0,34.6,56.67Z"/><circle class="cls-2" cx="239.5" cy="982.54" r="40.46"/><circle class="cls-2" cx="203.53" cy="1036.49" r="34.47"/><circle class="cls-2" cx="272.47" cy="1036.49" r="34.47"/><path class="cls-2" d="M281.59,1100.92H194.41a63.7,63.7,0,0,0,34.6-56.67V1017h18v27.25a63.7,63.7,0,0,0,34.6,56.67Z"/><circle class="cls-2" cx="563.5" cy="982.54" r="40.46"/><circle class="cls-2" cx="527.53" cy="1036.49" r="34.47"/><circle class="cls-2" cx="596.47" cy="1036.49" r="34.47"/><path class="cls-2" d="M605.59,1100.92H518.41a63.7,63.7,0,0,0,34.6-56.67V1017h18v27.25a63.7,63.7,0,0,0,34.6,56.67Z"/></g></svg>