<svg xmlns="http://www.w3.org/2000/svg" viewBox="0 0 800 1274"><defs><style>.cls-1{fill:#f2f0eb;}.cls-2{fill:#d8491d;}</style></defs><title>10d</title><g id="Layer_2" data-name="Layer 2"><rect class="cls-1" width="800" height="1274"/></g><g id="Layer_1" data-name="Layer 1"><rect class="cls-2" x="73" y="273" width="6" height="367"/><path class="cls-2" d="M727,634h-6V116.54A37.58,37.58,0,0,0,683.46,79H148V73H683.46A43.59,43.59,0,0,1,727,116.54Z"/><path class="cls-2" d="M36,81a23.87,23.87,0,0,1-9.24,1.5L24.6,74a9.94,9.94,0,0,0,1.8.12,19.7,19.7,0,0,0,9.42-2.64,141.27,141.27,0,0,0,13-8.4q.84-.48,2.52-1.68h2.88v80.16H44.4V76.17A33.7,33.7,0,0,1,36,81Z"/><path class="cls-2" d="M81.06,136.89a35.49,35.49,0,0,1-11.4-14.82A50.64,50.64,0,0,1,69.72,83,35.51,35.51,0,0,1,81.18,68.19a28.64,28.64,0,0,1,17.58-5.58,28.18,28.18,0,0,1,17.52,5.64,36,36,0,0,1,11.4,14.94,49.86,49.86,0,0,1,4,19.74,48.57,48.57,0,0,1-4,19.56,34.7,34.7,0,0,1-11.46,14.58,28.88,28.88,0,0,1-17.46,5.46A28.62,28.62,0,0,1,81.06,136.89Zm30.36-7.8a26.84,26.84,0,0,0,7.8-11.52,43.82,43.82,0,0,0,2.58-15.12,42.41,42.41,0,0,0-2.7-15.24,26,26,0,0,0-7.92-11.28,20.41,20.41,0,0,0-25,.12,26.87,26.87,0,0,0-7.92,11.4,42.07,42.07,0,0,0-2.7,15.12,42.56,42.56,0,0,0,2.7,15.18,26.59,26.59,0,0,0,8,11.46,19.27,19.27,0,0,0,12.6,4.32A18.71,18.71,0,0,0,111.42,129.09Z"/><path class="cls-2" d="M76.5,240.57c0-11.13-17-32-26-32,9,0,26-21,26-32.1,0,11.13,17,32.06,26,32.06C93.49,208.5,76.5,229.44,76.5,240.57Z"/><rect class="cls-2" x="721" y="634" width="6" height="367"/><path class="cls-2" d="M652,1201H116.54A43.59,43.59,0,0,1,73,1157.46V640h6v517.46A37.58,37.58,0,0,0,116.54,1195H652Z"/><path class="cls-2" d="M764.24,1192.88a23.87,23.87,0,0,1,9.24-1.5l2.16,8.52a9.94,9.94,0,0,0-1.8-.12,19.7,19.7,0,0,0-9.42,2.64,141.27,141.27,0,0,0-13,8.4q-.84.48-2.52,1.68H746v-80.16h9.84v65.4A33.7,33.7,0,0,1,764.24,1192.88Z"/><path class="cls-2" d="M719.18,1137a35.49,35.49,0,0,1,11.4,14.82,50.64,50.64,0,0,1-.06,39.12,35.51,35.51,0,0,1-11.46,14.76,28.64,28.64,0,0,1-17.58,5.58,28.18,28.18,0,0,1-17.52-5.64,36,36,0,0,1-11.4-14.94,49.86,49.86,0,0,1-4-19.74,48.57,48.57,0,0,1,4-19.56A34.7,34.7,0,0,1,684,1136.84a30.62,30.62,0,0,1,35.16.18Zm-30.36,7.8a26.84,26.84,0,0,0-7.8,11.52,43.82,43.82,0,0,0-2.58,15.12,42.41,42.41,0,0,0,2.7,15.24,26,26,0,0,0,7.92,11.28,20.41,20.41,0,0,0,25-.12,26.87,26.87,0,0,0,7.92-11.4,42.07,42.07,0,0,0,2.7-15.12,42.56,42.56,0,0,0-2.7-15.18,26.59,26.59,0,0,0-8-11.46,19.27,19.27,0,0,0-12.6-4.32A18.71,18.71,0,0,0,688.82,1144.82Z"/><path class="cls-2" d="M723.74,1033.34c0,11.13,17,32,26,32-9,0-26,21-26,32.1,0-11.13-17-32.06-26-32.06C706.75,1065.41,723.74,1044.47,723.74,1033.34Z"/><path class="cls-2" d="M238,348c0-34.71-53-99.92-81.13-99.88C185,248.08,238,182.71,238,148c0,34.71,53,100,81.13,100C291,248,238,313.29,238,348Z"/><path class="cls-2" d="M400,478c0-34.71-53-99.92-81.13-99.88C347,378.08,400,312.71,400,278c0,34.71,53,100,81.13,100C453,378,400,443.29,400,478Z"/><path class="cls-2" d="M562,348c0-34.71-53-99.92-81.13-99.88C509,248.08,562,182.71,562,148c0,34.71,53,100,81.13,100C615,248,562,313.29,562,348Z"/><path class="cls-2" d="M238,608c0-34.71-53-99.92-81.13-99.88C185,508.08,238,442.71,238,408c0,34.71,53,100,81.13,100C291,508,238,573.29,238,608Z"/><path class="cls-2" d="M562,608c0-34.71-53-99.92-81.13-99.88C509,508.08,562,442.71,562,408c0,34.71,53,100,81.13,100C615,508,562,573.29,562,608Z"/><path class="cls-2" d="M238,868c0-34.71-53-99.92-81.13-99.88C185,768.08,238,702.71,238,668c0,34.71,53,100,81.13,100C291,768,238,833.29,238,868Z"/><path class="cls-2" d="M400,998c0-34.71-53-99.92-81.13-99.88C347,898.08,400,832.71,400,798c0,34.71,53,100,81.13,100C453,898,400,963.29,400,998Z"/><path class="cls-2" d="M562,868c0-34.71-53-99.92-81.13-99.88C509,768.08,562,702.71,562,668c0,34.71,53,100,81.13,100C615,768,562,833.29,562,868Z"/><path class="cls-2" d="M238,1128c0-34.71-53-99.92-81.13-99.88C185,1028.08,238,962.71,238,928c0,34.71,53,100,81.13,100C291,1028,238,1093.29,238,1128Z"/><path class="cls-2" d="M562,1128c0-34.71-53-99.92-81.13-99.88C509,1028.08,562,962.71,562,928c0,34.71,53,100,81.13,100C615,1028,562,1093.29,562,1128Z"/></g></svg>