<svg xmlns="http://www.w3.org/2000/svg" viewBox="0 0 800 1218"><defs><style>.cls-1{fill:#f2f0eb;}.cls-2{fill:#f4622f;}</style></defs><title>10d</title><g id="Layer_2" data-name="Layer 2"><rect class="cls-1" width="800" height="1218"/></g><g id="Layer_1" data-name="Layer 1"><rect class="cls-2" x="73" y="244" width="6" height="367"/><path class="cls-2" d="M727,605h-6V87.54A37.58,37.58,0,0,0,683.46,50H148V44H683.46A43.59,43.59,0,0,1,727,87.54Z"/><path class="cls-2" d="M36,52a23.87,23.87,0,0,1-9.24,1.5L24.6,45a9.94,9.94,0,0,0,1.8.12,19.7,19.7,0,0,0,9.42-2.64,141.27,141.27,0,0,0,13-8.4q.84-.48,2.52-1.68h2.88v80.16H44.4V47.17A33.7,33.7,0,0,1,36,52Z"/><path class="cls-2" d="M81.06,107.89a35.49,35.49,0,0,1-11.4-14.82A50.64,50.64,0,0,1,69.72,54,35.51,35.51,0,0,1,81.18,39.19a28.64,28.64,0,0,1,17.58-5.58,28.18,28.18,0,0,1,17.52,5.64,36,36,0,0,1,11.4,14.94,49.86,49.86,0,0,1,4,19.74,48.57,48.57,0,0,1-4,19.56,34.7,34.7,0,0,1-11.46,14.58,28.88,28.88,0,0,1-17.46,5.46A28.62,28.62,0,0,1,81.06,107.89Zm30.36-7.8a26.84,26.84,0,0,0,7.8-11.52,43.82,43.82,0,0,0,2.58-15.12,42.41,42.41,0,0,0-2.7-15.24,26,26,0,0,0-7.92-11.28,20.41,20.41,0,0,0-25,.12,26.87,26.87,0,0,0-7.92,11.4,42.07,42.07,0,0,0-2.7,15.12,42.56,42.56,0,0,0,2.7,15.18,26.59,26.59,0,0,0,8,11.46,19.27,19.27,0,0,0,12.6,4.32A18.71,18.71,0,0,0,111.42,100.09Z"/><path class="cls-2" d="M76.5,211.57c0-11.14-17-32-26-32,9,0,26-21,26-32.11,0,11.14,17,32.07,26,32.07C93.49,179.5,76.5,200.43,76.5,211.57Z"/><rect class="cls-2" x="721" y="605" width="6" height="367"/><path class="cls-2" d="M652,1172H116.54A43.59,43.59,0,0,1,73,1128.46V611h6v517.46A37.58,37.58,0,0,0,116.54,1166H652Z"/><path class="cls-2" d="M764.24,1163.88a23.87,23.87,0,0,1,9.24-1.5l2.16,8.52a9.94,9.94,0,0,0-1.8-.12,19.7,19.7,0,0,0-9.42,2.64,141.27,141.27,0,0,0-13,8.4q-.84.48-2.52,1.68H746v-80.16h9.84v65.4A33.7,33.7,0,0,1,764.24,1163.88Z"/><path class="cls-2" d="M719.18,1108a35.49,35.49,0,0,1,11.4,14.82,50.64,50.64,0,0,1-.06,39.12,35.51,35.51,0,0,1-11.46,14.76,28.64,28.64,0,0,1-17.58,5.58,28.18,28.18,0,0,1-17.52-5.64,36,36,0,0,1-11.4-14.94,49.86,49.86,0,0,1-4-19.74,48.57,48.57,0,0,1,4-19.56A34.7,34.7,0,0,1,684,1107.84a30.62,30.62,0,0,1,35.16.18Zm-30.36,7.8a26.84,26.84,0,0,0-7.8,11.52,43.82,43.82,0,0,0-2.58,15.12,42.41,42.41,0,0,0,2.7,15.24,26,26,0,0,0,7.92,11.28,20.41,20.41,0,0,0,25-.12,26.87,26.87,0,0,0,7.92-11.4,42.07,42.07,0,0,0,2.7-15.12,42.56,42.56,0,0,0-2.7-15.18,26.59,26.59,0,0,0-8-11.46,19.27,19.27,0,0,0-12.6-4.32A18.71,18.71,0,0,0,688.82,1115.82Z"/><path class="cls-2" d="M723.74,1004.34c0,11.13,17,32,26,32-9,0-26,21-26,32.1,0-11.13-17-32.06-26-32.06C706.75,1036.41,723.74,1015.47,723.74,1004.34Z"/><path class="cls-2" d="M238,319c0-34.71-53-99.92-81.13-99.88C185,219.08,238,153.71,238,119c0,34.71,53,100,81.13,100C291,219,238,284.29,238,319Z"/><path class="cls-2" d="M400,449c0-34.71-53-99.92-81.13-99.88C347,349.08,400,283.71,400,249c0,34.71,53,100,81.13,100C453,349,400,414.29,400,449Z"/><path class="cls-2" d="M562,319c0-34.71-53-99.92-81.13-99.88C509,219.08,562,153.71,562,119c0,34.71,53,100,81.13,100C615,219,562,284.29,562,319Z"/><path class="cls-2" d="M238,579c0-34.71-53-99.92-81.13-99.88C185,479.08,238,413.71,238,379c0,34.71,53,100,81.13,100C291,479,238,544.29,238,579Z"/><path class="cls-2" d="M562,579c0-34.71-53-99.92-81.13-99.88C509,479.08,562,413.71,562,379c0,34.71,53,100,81.13,100C615,479,562,544.29,562,579Z"/><path class="cls-2" d="M238,839c0-34.71-53-99.92-81.13-99.88C185,739.08,238,673.71,238,639c0,34.71,53,100,81.13,100C291,739,238,804.29,238,839Z"/><path class="cls-2" d="M400,969c0-34.71-53-99.92-81.13-99.88C347,869.08,400,803.71,400,769c0,34.71,53,100,81.13,100C453,869,400,934.29,400,969Z"/><path class="cls-2" d="M562,839c0-34.71-53-99.92-81.13-99.88C509,739.08,562,673.71,562,639c0,34.71,53,100,81.13,100C615,739,562,804.29,562,839Z"/><path class="cls-2" d="M238,1099c0-34.71-53-99.92-81.13-99.88C185,999.08,238,933.71,238,899c0,34.71,53,100,81.13,100C291,999,238,1064.29,238,1099Z"/><path class="cls-2" d="M562,1099c0-34.71-53-99.92-81.13-99.88C509,999.08,562,933.71,562,899c0,34.71,53,100,81.13,100C615,999,562,1064.29,562,1099Z"/></g></svg>