<svg xmlns="http://www.w3.org/2000/svg" viewBox="0 0 800 1218"><defs><style>.cls-1{fill:#f2f0eb;}.cls-2{fill:#f4622f;}</style></defs><title>10h</title><g id="Layer_2" data-name="Layer 2"><rect class="cls-1" width="800" height="1218"/></g><g id="Layer_1" data-name="Layer 1"><path class="cls-2" d="M98,165.37a11.37,11.37,0,0,0-21.66-4.82,11.37,11.37,0,0,0-21.66,4.82c0,8.83,21.66,41.69,21.66,41.69S98,177,98,165.37Z"/><rect class="cls-2" x="73" y="245" width="6" height="367"/><path class="cls-2" d="M727,606h-6V88.54A37.58,37.58,0,0,0,683.46,51H148V45H683.46A43.59,43.59,0,0,1,727,88.54Z"/><path class="cls-2" d="M35.82,53a23.87,23.87,0,0,1-9.24,1.5L24.42,46a9.94,9.94,0,0,0,1.8.12,19.7,19.7,0,0,0,9.42-2.64,141.27,141.27,0,0,0,13-8.4q.84-.48,2.52-1.68h2.88v80.16H44.22V48.17A33.7,33.7,0,0,1,35.82,53Z"/><path class="cls-2" d="M80.88,108.89a35.49,35.49,0,0,1-11.4-14.82A50.64,50.64,0,0,1,69.54,55,35.51,35.51,0,0,1,81,40.19a28.64,28.64,0,0,1,17.58-5.58,28.18,28.18,0,0,1,17.52,5.64,36,36,0,0,1,11.4,14.94,49.86,49.86,0,0,1,4,19.74,48.57,48.57,0,0,1-4,19.56A34.7,34.7,0,0,1,116,109.07a28.88,28.88,0,0,1-17.46,5.46A28.62,28.62,0,0,1,80.88,108.89Zm30.36-7.8A26.84,26.84,0,0,0,119,89.57a43.82,43.82,0,0,0,2.58-15.12,42.41,42.41,0,0,0-2.7-15.24A26,26,0,0,0,111,47.93a20.41,20.41,0,0,0-25,.12,26.87,26.87,0,0,0-7.92,11.4,42.07,42.07,0,0,0-2.7,15.12,42.56,42.56,0,0,0,2.7,15.18,26.59,26.59,0,0,0,8,11.46,19.27,19.27,0,0,0,12.6,4.32A18.71,18.71,0,0,0,111.24,101.09Z"/><path class="cls-2" d="M702.08,1052.16a11.37,11.37,0,0,0,21.66,4.82,11.37,11.37,0,0,0,21.66-4.82c0-8.83-21.66-41.69-21.66-41.69S702.08,1040.57,702.08,1052.16Z"/><rect class="cls-2" x="720.98" y="606" width="6" height="367"/><path class="cls-2" d="M652,1173H116.52A43.59,43.59,0,0,1,73,1129.46V612h6v517.46A37.58,37.58,0,0,0,116.52,1167H652Z"/><path class="cls-2" d="M764.24,1164.5a23.87,23.87,0,0,1,9.24-1.5l2.16,8.52a9.94,9.94,0,0,0-1.8-.12,19.7,19.7,0,0,0-9.42,2.64,141.27,141.27,0,0,0-13,8.4q-.84.48-2.52,1.68H746V1104h9.84v65.4A33.7,33.7,0,0,1,764.24,1164.5Z"/><path class="cls-2" d="M719.18,1108.64a35.49,35.49,0,0,1,11.4,14.82,50.64,50.64,0,0,1-.06,39.12,35.51,35.51,0,0,1-11.46,14.76,28.64,28.64,0,0,1-17.58,5.58,28.18,28.18,0,0,1-17.52-5.64,36,36,0,0,1-11.4-14.94,49.86,49.86,0,0,1-4-19.74,48.57,48.57,0,0,1,4-19.56A34.7,34.7,0,0,1,684,1108.46a30.62,30.62,0,0,1,35.16.18Zm-30.36,7.8A26.84,26.84,0,0,0,681,1128a43.82,43.82,0,0,0-2.58,15.12,42.41,42.41,0,0,0,2.7,15.24,26,26,0,0,0,7.92,11.28,20.41,20.41,0,0,0,25-.12,26.87,26.87,0,0,0,7.92-11.4,42.07,42.07,0,0,0,2.7-15.12,42.56,42.56,0,0,0-2.7-15.18,26.59,26.59,0,0,0-8-11.46,19.27,19.27,0,0,0-12.6-4.32A18.71,18.71,0,0,0,688.82,1116.44Z"/><path class="cls-2" d="M302.81,179.64A34,34,0,0,0,238,165.22a34,34,0,0,0-64.82,14.42c0,34.67,64.8,124.74,64.8,124.74S302.81,214.31,302.81,179.64Z"/><path class="cls-2" d="M464.81,307.64A34,34,0,0,0,400,293.22a34,34,0,0,0-64.82,14.42c0,34.67,64.8,124.74,64.8,124.74S464.81,342.31,464.81,307.64Z"/><path class="cls-2" d="M464.81,819.64A34,34,0,0,0,400,805.22a34,34,0,0,0-64.82,14.42c0,34.67,64.8,124.74,64.8,124.74S464.81,854.31,464.81,819.64Z"/><path class="cls-2" d="M626.81,179.64A34,34,0,0,0,562,165.22a34,34,0,0,0-64.82,14.42c0,34.67,64.8,124.74,64.8,124.74S626.81,214.31,626.81,179.64Z"/><path class="cls-2" d="M302.81,435.64A34,34,0,0,0,238,421.22a34,34,0,0,0-64.82,14.42c0,34.67,64.8,124.74,64.8,124.74S302.81,470.31,302.81,435.64Z"/><path class="cls-2" d="M626.81,435.64A34,34,0,0,0,562,421.22a34,34,0,0,0-64.82,14.42c0,34.67,64.8,124.74,64.8,124.74S626.81,470.31,626.81,435.64Z"/><path class="cls-2" d="M302.81,691.64A34,34,0,0,0,238,677.22a34,34,0,0,0-64.82,14.42c0,34.67,64.8,124.74,64.8,124.74S302.81,726.31,302.81,691.64Z"/><path class="cls-2" d="M626.81,691.64A34,34,0,0,0,562,677.22a34,34,0,0,0-64.82,14.42c0,34.67,64.8,124.74,64.8,124.74S626.81,726.31,626.81,691.64Z"/><path class="cls-2" d="M302.81,947.64A34,34,0,0,0,238,933.22a34,34,0,0,0-64.82,14.42c0,34.67,64.8,124.74,64.8,124.74S302.81,982.31,302.81,947.64Z"/><path class="cls-2" d="M626.81,947.64A34,34,0,0,0,562,933.22a34,34,0,0,0-64.82,14.42c0,34.67,64.8,124.74,64.8,124.74S626.81,982.31,626.81,947.64Z"/></g></svg>