<svg xmlns="http://www.w3.org/2000/svg" viewBox="0 0 800 1218"><defs><style>.cls-1{fill:#f2f0eb;}.cls-2{fill:#3e95a3;}</style></defs><title>10s</title><g id="Layer_2" data-name="Layer 2"><rect class="cls-1" width="800" height="1218"/></g><g id="Layer_1" data-name="Layer 1"><polygon class="cls-2" points="95.75 178.07 75.07 184.66 54.39 178.07 75.07 154 95.75 178.07"/><circle class="cls-2" cx="63.52" cy="185.2" r="11.59"/><circle class="cls-2" cx="86.62" cy="185.2" r="11.59"/><path class="cls-2" d="M89.66,207H60.47a21.27,21.27,0,0,0,11.59-18.94V179h6v9.06A21.28,21.28,0,0,0,89.66,207Z"/><polygon class="cls-2" points="300.05 215.21 238 234.98 175.95 215.21 238 143 300.05 215.21"/><circle class="cls-2" cx="203.35" cy="236.59" r="34.76"/><circle class="cls-2" cx="272.65" cy="236.59" r="34.76"/><path class="cls-2" d="M281.79,302H194.21A63.84,63.84,0,0,0,229,245.17V218H247v27.17A63.84,63.84,0,0,0,281.79,302Z"/><polygon class="cls-2" points="624.04 215.21 562 234.98 499.95 215.21 562 143 624.04 215.21"/><circle class="cls-2" cx="527.35" cy="236.59" r="34.76"/><circle class="cls-2" cx="596.65" cy="236.59" r="34.76"/><path class="cls-2" d="M605.79,302H518.21A63.84,63.84,0,0,0,553,245.17V218H571v27.17A63.84,63.84,0,0,0,605.79,302Z"/><polygon class="cls-2" points="300.05 477.2 238 496.98 175.95 477.2 238 405 300.05 477.2"/><circle class="cls-2" cx="203.35" cy="498.59" r="34.76"/><circle class="cls-2" cx="272.65" cy="498.59" r="34.76"/><path class="cls-2" d="M281.79,564H194.21A63.84,63.84,0,0,0,229,507.17V480H247v27.17A63.84,63.84,0,0,0,281.79,564Z"/><polygon class="cls-2" points="624.04 477.2 562 496.98 499.95 477.2 562 405 624.04 477.2"/><circle class="cls-2" cx="527.35" cy="498.59" r="34.76"/><circle class="cls-2" cx="596.65" cy="498.59" r="34.76"/><path class="cls-2" d="M605.79,564H518.21A63.84,63.84,0,0,0,553,507.17V480H571v27.17A63.84,63.84,0,0,0,605.79,564Z"/><polygon class="cls-2" points="462.05 346.2 400 365.98 337.95 346.2 400 274 462.05 346.2"/><circle class="cls-2" cx="365.35" cy="367.59" r="34.76"/><circle class="cls-2" cx="434.65" cy="367.59" r="34.76"/><path class="cls-2" d="M443.79,433H356.21A63.84,63.84,0,0,0,391,376.17V349H409v27.17A63.84,63.84,0,0,0,443.79,433Z"/><polygon class="cls-2" points="462.05 861.21 400 880.98 337.95 861.21 400 789 462.05 861.21"/><circle class="cls-2" cx="365.35" cy="882.59" r="34.76"/><circle class="cls-2" cx="434.65" cy="882.59" r="34.76"/><path class="cls-2" d="M443.79,948H356.21A63.84,63.84,0,0,0,391,891.17V864H409v27.17A63.84,63.84,0,0,0,443.79,948Z"/><polygon class="cls-2" points="300.05 733.21 238 752.98 175.95 733.21 238 661 300.05 733.21"/><circle class="cls-2" cx="203.35" cy="754.59" r="34.76"/><circle class="cls-2" cx="272.65" cy="754.59" r="34.76"/><path class="cls-2" d="M281.79,820H194.21A63.84,63.84,0,0,0,229,763.17V736H247v27.17A63.84,63.84,0,0,0,281.79,820Z"/><polygon class="cls-2" points="624.04 733.21 562 752.98 499.95 733.21 562 661 624.04 733.21"/><circle class="cls-2" cx="527.35" cy="754.59" r="34.76"/><circle class="cls-2" cx="596.65" cy="754.59" r="34.76"/><path class="cls-2" d="M605.79,820H518.21A63.84,63.84,0,0,0,553,763.17V736H571v27.17A63.84,63.84,0,0,0,605.79,820Z"/><polygon class="cls-2" points="300.05 989.21 238 1008.98 175.95 989.21 238 917 300.05 989.21"/><circle class="cls-2" cx="203.35" cy="1010.59" r="34.76"/><circle class="cls-2" cx="272.65" cy="1010.59" r="34.76"/><path class="cls-2" d="M281.79,1076H194.21A63.84,63.84,0,0,0,229,1019.17V992H247v27.17A63.84,63.84,0,0,0,281.79,1076Z"/><polygon class="cls-2" points="624.04 989.21 562 1008.98 499.95 989.21 562 917 624.04 989.21"/><circle class="cls-2" cx="527.35" cy="1010.59" r="34.76"/><circle class="cls-2" cx="596.65" cy="1010.59" r="34.76"/><path class="cls-2" d="M605.79,1076H518.21A63.84,63.84,0,0,0,553,1019.17V992H571v27.17A63.84,63.84,0,0,0,605.79,1076Z"/><polygon class="cls-2" points="704.08 1044.18 724.76 1037.59 745.45 1044.18 724.76 1068.25 704.08 1044.18"/><circle class="cls-2" cx="736.5" cy="1037.5" r="11.5"/><circle class="cls-2" cx="713.5" cy="1037.5" r="11.5"/><path class="cls-2" d="M710.45,1015h29.09A21.27,21.27,0,0,0,728,1033.91V1043h-6v-9.09A21.26,21.26,0,0,0,710.45,1015Z"/><path class="cls-2" d="M34.57,55a23.87,23.87,0,0,1-9.24,1.5L23.17,48a9.94,9.94,0,0,0,1.8.12,19.7,19.7,0,0,0,9.42-2.64,141.27,141.27,0,0,0,13-8.4q.84-.48,2.52-1.68h2.88v80.16H43V50.17A33.7,33.7,0,0,1,34.57,55Z"/><path class="cls-2" d="M79.63,110.89a35.49,35.49,0,0,1-11.4-14.82A50.64,50.64,0,0,1,68.29,57,35.51,35.51,0,0,1,79.75,42.19a28.64,28.64,0,0,1,17.58-5.58,28.18,28.18,0,0,1,17.52,5.64,36,36,0,0,1,11.4,14.94,49.86,49.86,0,0,1,4,19.74,48.57,48.57,0,0,1-4,19.56,34.7,34.7,0,0,1-11.46,14.58,28.88,28.88,0,0,1-17.46,5.46A28.62,28.62,0,0,1,79.63,110.89Zm30.36-7.8a26.84,26.84,0,0,0,7.8-11.52,43.82,43.82,0,0,0,2.58-15.12,42.41,42.41,0,0,0-2.7-15.24,26,26,0,0,0-7.92-11.28,20.41,20.41,0,0,0-25,.12,26.87,26.87,0,0,0-7.92,11.4,42.07,42.07,0,0,0-2.7,15.12,42.56,42.56,0,0,0,2.7,15.18,26.59,26.59,0,0,0,8,11.46,19.27,19.27,0,0,0,12.6,4.32A18.71,18.71,0,0,0,110,103.09Z"/><rect class="cls-2" x="73" y="248" width="6" height="363"/><path class="cls-2" d="M727,604h-6V90.54A37.58,37.58,0,0,0,683.46,53H151V47H683.46A43.59,43.59,0,0,1,727,90.54Z"/><path class="cls-2" d="M765.5,1160.38a23.87,23.87,0,0,1,9.24-1.5l2.16,8.52a9.94,9.94,0,0,0-1.8-.12,19.7,19.7,0,0,0-9.42,2.64,141.27,141.27,0,0,0-13,8.4q-.84.48-2.52,1.68h-2.88v-80.16h9.84v65.4A33.7,33.7,0,0,1,765.5,1160.38Z"/><path class="cls-2" d="M720.44,1104.52a35.49,35.49,0,0,1,11.4,14.82,50.64,50.64,0,0,1-.06,39.12,35.51,35.51,0,0,1-11.46,14.76,28.64,28.64,0,0,1-17.58,5.58,28.18,28.18,0,0,1-17.52-5.64,36,36,0,0,1-11.4-14.94,49.86,49.86,0,0,1-4-19.74,48.57,48.57,0,0,1,4-19.56,34.7,34.7,0,0,1,11.46-14.58,30.62,30.62,0,0,1,35.16.18Zm-30.36,7.8a26.84,26.84,0,0,0-7.8,11.52A43.82,43.82,0,0,0,679.7,1139a42.41,42.41,0,0,0,2.7,15.24,26,26,0,0,0,7.92,11.28,20.41,20.41,0,0,0,25-.12,26.87,26.87,0,0,0,7.92-11.4,42.07,42.07,0,0,0,2.7-15.12,42.56,42.56,0,0,0-2.7-15.18,26.59,26.59,0,0,0-8-11.46,19.27,19.27,0,0,0-12.6-4.32A18.71,18.71,0,0,0,690.08,1112.32Z"/><rect class="cls-2" x="721" y="604" width="6" height="363"/><path class="cls-2" d="M649,1168H116.54A43.59,43.59,0,0,1,73,1124.46V611h6v513.46A37.58,37.58,0,0,0,116.54,1162H649Z"/></g></svg>