<svg xmlns="http://www.w3.org/2000/svg" viewBox="0 0 800 1274"><defs><style>.cls-1{fill:#f2f0eb;}.cls-2{fill:#3e95a3;}</style></defs><title>2s</title><g id="Layer_2" data-name="Layer 2"><rect class="cls-1" width="800" height="1274"/></g><g id="Layer_1" data-name="Layer 1"><polygon class="cls-2" points="95.75 204.07 75.07 210.66 54.39 204.07 75.07 180 95.75 204.07"/><circle class="cls-2" cx="63.52" cy="211.2" r="11.59"/><circle class="cls-2" cx="86.62" cy="211.2" r="11.59"/><path class="cls-2" d="M89.66,233H60.47a21.27,21.27,0,0,0,11.59-18.94V205h6v9.06A21.28,21.28,0,0,0,89.66,233Z"/><polygon class="cls-2" points="461.05 241.21 399 260.98 336.95 241.21 399 169 461.05 241.21"/><circle class="cls-2" cx="364.35" cy="262.59" r="34.76"/><circle class="cls-2" cx="433.65" cy="262.59" r="34.76"/><path class="cls-2" d="M442.79,328H355.21A63.84,63.84,0,0,0,390,271.17V244H408v27.17A63.84,63.84,0,0,0,442.79,328Z"/><polygon class="cls-2" points="461.05 1022.21 399 1041.98 336.95 1022.21 399 950 461.05 1022.21"/><circle class="cls-2" cx="364.35" cy="1043.59" r="34.76"/><circle class="cls-2" cx="433.65" cy="1043.59" r="34.76"/><path class="cls-2" d="M442.79,1109H355.21A63.84,63.84,0,0,0,390,1052.17V1025H408v27.17A63.84,63.84,0,0,0,442.79,1109Z"/><polygon class="cls-2" points="704.08 1077.18 724.76 1070.59 745.45 1077.18 724.76 1101.25 704.08 1077.18"/><circle class="cls-2" cx="736.5" cy="1070.5" r="11.5"/><circle class="cls-2" cx="713.5" cy="1070.5" r="11.5"/><path class="cls-2" d="M710.45,1048h29.09A21.27,21.27,0,0,0,728,1066.91V1076h-6v-9.09A21.26,21.26,0,0,0,710.45,1048Z"/><path class="cls-2" d="M54.07,123q4.92-7.08,16.08-15.48l3.24-2.4q5.16-3.72,8.28-6.48A27,27,0,0,0,87,92.25a15.33,15.33,0,0,0,2.16-8,12.1,12.1,0,0,0-3.78-9.36q-3.78-3.48-10.26-3.48a17.63,17.63,0,0,0-11.7,4,18.54,18.54,0,0,0-6.18,10.8l-8.28-4.32q3.12-9.48,9.78-14.4t16.5-4.92q11.16,0,17.46,5.94T99,84.33a25,25,0,0,1-2.52,11.52,28.6,28.6,0,0,1-6.42,8.4q-3.9,3.48-10.62,8.4-5,3.72-8,6.12a59.47,59.47,0,0,0-7.26,6.84,22.52,22.52,0,0,0-4,6.84h42.72v9.12H49.15v-3.12A26.56,26.56,0,0,1,54.07,123Z"/><rect class="cls-2" x="73" y="274" width="6" height="367"/><path class="cls-2" d="M727,634h-6V116.54A37.58,37.58,0,0,0,683.46,79H151V73H683.46A43.59,43.59,0,0,1,727,116.54Z"/><path class="cls-2" d="M746,1151.44q-4.92,7.08-16.08,15.48l-3.24,2.4q-5.16,3.72-8.28,6.48a27,27,0,0,0-5.28,6.36,15.33,15.33,0,0,0-2.16,8,12.1,12.1,0,0,0,3.78,9.36Q718.52,1203,725,1203a17.63,17.63,0,0,0,11.7-4,18.54,18.54,0,0,0,6.18-10.8l8.28,4.32q-3.12,9.48-9.78,14.4t-16.5,4.92q-11.16,0-17.46-5.94t-6.3-15.9a25,25,0,0,1,2.52-11.52,28.6,28.6,0,0,1,6.42-8.4q3.9-3.48,10.62-8.4,5-3.72,8-6.12a59.47,59.47,0,0,0,7.26-6.84,22.52,22.52,0,0,0,4-6.84H697.28v-9.12h53.64V1136A26.56,26.56,0,0,1,746,1151.44Z"/><rect class="cls-2" x="721" y="634" width="6" height="366"/><path class="cls-2" d="M649,1201H116.54A43.59,43.59,0,0,1,73,1157.46V641h6v516.46A37.58,37.58,0,0,0,116.54,1195H649Z"/></g></svg>