<svg xmlns="http://www.w3.org/2000/svg" viewBox="0 0 800 1274"><defs><style>.cls-1{fill:#f2f0eb;}.cls-2{fill:#d8491d;}</style></defs><title>6d</title><g id="Layer_2" data-name="Layer 2"><rect class="cls-1" width="800" height="1274"/></g><g id="Layer_1" data-name="Layer 1"><rect class="cls-2" x="73" y="273" width="6" height="367"/><path class="cls-2" d="M727,634h-6V116.54A37.58,37.58,0,0,0,683.46,79H148V73H683.46A43.59,43.59,0,0,1,727,116.54Z"/><path class="cls-2" d="M68.58,139.41a28.27,28.27,0,0,1-10.44-11.7,38.54,38.54,0,0,1-3.72-17.34,44.5,44.5,0,0,1,5.58-22,49,49,0,0,1,16-17,43.32,43.32,0,0,1,13-6,48.08,48.08,0,0,1,14.34-1.68v8.88A37.23,37.23,0,0,0,91.86,74a41.26,41.26,0,0,0-11,4.86,36.49,36.49,0,0,0-9.54,9.06,35,35,0,0,0-5.82,11.82,21.2,21.2,0,0,1,8.22-8,21.59,21.59,0,0,1,10.86-3.24,27.16,27.16,0,0,1,13.92,3.78,28.19,28.19,0,0,1,10.26,10.2,26.63,26.63,0,0,1,3.78,13.74,26.22,26.22,0,0,1-3.84,13.8,27.74,27.74,0,0,1-10.38,10,30.06,30.06,0,0,1-29.7-.54ZM93.42,132a19.14,19.14,0,0,0,6.72-6.78,18,18,0,0,0,0-18.36,19.14,19.14,0,0,0-6.72-6.78,17.2,17.2,0,0,0-9-2.52,18.48,18.48,0,0,0-9.48,2.52,18.84,18.84,0,0,0-6.84,6.78,18.16,18.16,0,0,0-2.52,9.42,17.2,17.2,0,0,0,2.52,9A19,19,0,0,0,74.94,132a18,18,0,0,0,9.24,2.52A17.62,17.62,0,0,0,93.42,132Z"/><path class="cls-2" d="M76.5,240.57c0-11.14-17-32-26-32,9,0,26-21,26-32.11,0,11.14,17,32.07,26,32.07C93.48,208.5,76.5,229.43,76.5,240.57Z"/><rect class="cls-2" x="721" y="634" width="6" height="367"/><path class="cls-2" d="M652,1201H116.54A43.59,43.59,0,0,1,73,1157.46V640h6v517.46A37.58,37.58,0,0,0,116.54,1195H652Z"/><path class="cls-2" d="M731.66,1134.5a28.27,28.27,0,0,1,10.44,11.7,38.54,38.54,0,0,1,3.72,17.34,44.5,44.5,0,0,1-5.58,22,49,49,0,0,1-16,17,43.32,43.32,0,0,1-13,6,48.08,48.08,0,0,1-14.34,1.68v-8.88a37.23,37.23,0,0,0,11.52-1.38,41.26,41.26,0,0,0,11-4.86A36.49,36.49,0,0,0,729,1186a35,35,0,0,0,5.82-11.82,21.2,21.2,0,0,1-8.22,8,21.59,21.59,0,0,1-10.86,3.24,27.16,27.16,0,0,1-13.92-3.78,28.19,28.19,0,0,1-10.26-10.2,26.63,26.63,0,0,1-3.78-13.74,26.22,26.22,0,0,1,3.84-13.8A27.74,27.74,0,0,1,702,1134a30.06,30.06,0,0,1,29.7.54Zm-24.84,7.44a19.14,19.14,0,0,0-6.72,6.78,18,18,0,0,0,0,18.36,19.14,19.14,0,0,0,6.72,6.78,17.2,17.2,0,0,0,9,2.52,18.48,18.48,0,0,0,9.48-2.52,18.84,18.84,0,0,0,6.84-6.78,18.16,18.16,0,0,0,2.52-9.42,17.2,17.2,0,0,0-2.52-9,19,19,0,0,0-6.84-6.72,18,18,0,0,0-9.24-2.52A17.62,17.62,0,0,0,706.82,1141.94Z"/><path class="cls-2" d="M723.74,1033.34c0,11.13,17,32,26,32-9,0-26,21-26,32.1,0-11.13-17-32.06-26-32.06C706.75,1065.41,723.74,1044.47,723.74,1033.34Z"/><path class="cls-2" d="M238,348c0-34.71-53-99.92-81.13-99.88C185,248.08,238,182.71,238,148c0,34.71,53,100,81.13,100C291,248,238,313.29,238,348Z"/><path class="cls-2" d="M562,348c0-34.71-53-99.92-81.13-99.88C509,248.08,562,182.71,562,148c0,34.71,53,100,81.13,100C615,248,562,313.29,562,348Z"/><path class="cls-2" d="M238,738c0-34.71-53-99.92-81.13-99.88C185,638.08,238,572.71,238,538c0,34.71,53,100,81.13,100C291,638,238,703.29,238,738Z"/><path class="cls-2" d="M562,738c0-34.71-53-99.92-81.13-99.88C509,638.08,562,572.71,562,538c0,34.71,53,100,81.13,100C615,638,562,703.29,562,738Z"/><path class="cls-2" d="M238,1128c0-34.71-53-99.92-81.13-99.88C185,1028.08,238,962.71,238,928c0,34.71,53,100,81.13,100C291,1028,238,1093.29,238,1128Z"/><path class="cls-2" d="M562,1128c0-34.71-53-99.92-81.13-99.88C509,1028.08,562,962.71,562,928c0,34.71,53,100,81.13,100C615,1028,562,1093.29,562,1128Z"/></g></svg>