<svg xmlns="http://www.w3.org/2000/svg" viewBox="0 0 800 1274"><defs><style>.cls-1{fill:#f2f0eb;}.cls-2{fill:#d8491d;}</style></defs><title>9h</title><g id="Layer_2" data-name="Layer 2"><rect class="cls-1" width="800" height="1274"/></g><g id="Layer_1" data-name="Layer 1"><path class="cls-2" d="M98,193.37a11.37,11.37,0,0,0-21.66-4.82,11.37,11.37,0,0,0-21.66,4.82c0,8.83,21.66,41.69,21.66,41.69S98,205,98,193.37Z"/><rect class="cls-2" x="73" y="273" width="6" height="367"/><path class="cls-2" d="M727,634h-6V116.54A37.58,37.58,0,0,0,683.46,79H148V73H683.46A43.59,43.59,0,0,1,727,116.54Z"/><path class="cls-2" d="M93.72,66.93a28.27,28.27,0,0,1,10.44,11.7A38.54,38.54,0,0,1,107.88,96a44.5,44.5,0,0,1-5.58,22,49,49,0,0,1-16,17,43.32,43.32,0,0,1-13,6,48.08,48.08,0,0,1-14.34,1.68v-8.88a37.23,37.23,0,0,0,11.52-1.38,41.26,41.26,0,0,0,11-4.86A36.49,36.49,0,0,0,91,118.47a35,35,0,0,0,5.82-11.82,21.2,21.2,0,0,1-8.22,8,21.59,21.59,0,0,1-10.86,3.24,27.16,27.16,0,0,1-13.92-3.78A28.19,28.19,0,0,1,53.58,104,26.63,26.63,0,0,1,49.8,90.21a26.22,26.22,0,0,1,3.84-13.8A27.74,27.74,0,0,1,64,66.39a30.06,30.06,0,0,1,29.7.54ZM68.88,74.37a19.14,19.14,0,0,0-6.72,6.78,18,18,0,0,0,0,18.36,19.14,19.14,0,0,0,6.72,6.78,17.2,17.2,0,0,0,9,2.52,18.48,18.48,0,0,0,9.48-2.52,18.84,18.84,0,0,0,6.84-6.78,18.16,18.16,0,0,0,2.52-9.42,17.2,17.2,0,0,0-2.52-9,19,19,0,0,0-6.84-6.72,18,18,0,0,0-9.24-2.52A17.62,17.62,0,0,0,68.88,74.37Z"/><path class="cls-2" d="M702.08,1080.16a11.37,11.37,0,0,0,21.66,4.82,11.37,11.37,0,0,0,21.66-4.82c0-8.83-21.66-41.69-21.66-41.69S702.08,1068.57,702.08,1080.16Z"/><rect class="cls-2" x="720.98" y="634" width="6" height="367"/><path class="cls-2" d="M652,1201H116.52A43.59,43.59,0,0,1,73,1157.46V640h6v517.46A37.58,37.58,0,0,0,116.52,1195H652Z"/><path class="cls-2" d="M706.34,1206.6a28.27,28.27,0,0,1-10.44-11.7,38.54,38.54,0,0,1-3.72-17.34,44.5,44.5,0,0,1,5.58-22,49,49,0,0,1,16-17,43.32,43.32,0,0,1,13-6,48.08,48.08,0,0,1,14.34-1.68v8.88a37.23,37.23,0,0,0-11.52,1.38,41.26,41.26,0,0,0-11,4.86,36.49,36.49,0,0,0-9.54,9.06,35,35,0,0,0-5.82,11.82,21.2,21.2,0,0,1,8.22-8,21.59,21.59,0,0,1,10.86-3.24,27.16,27.16,0,0,1,13.92,3.78,28.19,28.19,0,0,1,10.26,10.2,26.63,26.63,0,0,1,3.78,13.74,26.22,26.22,0,0,1-3.84,13.8,27.74,27.74,0,0,1-10.38,10,30.06,30.06,0,0,1-29.7-.54Zm24.84-7.44a19.14,19.14,0,0,0,6.72-6.78,18,18,0,0,0,0-18.36,19.14,19.14,0,0,0-6.72-6.78,17.2,17.2,0,0,0-9-2.52,18.48,18.48,0,0,0-9.48,2.52,18.84,18.84,0,0,0-6.84,6.78,18.16,18.16,0,0,0-2.52,9.42,17.2,17.2,0,0,0,2.52,9,19,19,0,0,0,6.84,6.72,18,18,0,0,0,9.24,2.52A17.62,17.62,0,0,0,731.18,1199.16Z"/><path class="cls-2" d="M302.81,207.64A34,34,0,0,0,238,193.22a34,34,0,0,0-64.82,14.42c0,34.67,64.8,124.74,64.8,124.74S302.81,242.31,302.81,207.64Z"/><path class="cls-2" d="M464.8,591.64A34,34,0,0,0,400,577.22a34,34,0,0,0-64.81,14.42c0,34.67,64.8,124.74,64.8,124.74S464.8,626.31,464.8,591.64Z"/><path class="cls-2" d="M626.81,207.64A34,34,0,0,0,562,193.22a34,34,0,0,0-64.82,14.42c0,34.67,64.8,124.74,64.8,124.74S626.81,242.31,626.81,207.64Z"/><path class="cls-2" d="M302.81,463.64A34,34,0,0,0,238,449.22a34,34,0,0,0-64.82,14.42c0,34.67,64.8,124.74,64.8,124.74S302.81,498.31,302.81,463.64Z"/><path class="cls-2" d="M626.81,463.64A34,34,0,0,0,562,449.22a34,34,0,0,0-64.82,14.42c0,34.67,64.8,124.74,64.8,124.74S626.81,498.31,626.81,463.64Z"/><path class="cls-2" d="M302.81,719.64A34,34,0,0,0,238,705.22a34,34,0,0,0-64.82,14.42c0,34.67,64.8,124.74,64.8,124.74S302.81,754.31,302.81,719.64Z"/><path class="cls-2" d="M626.81,719.64A34,34,0,0,0,562,705.22a34,34,0,0,0-64.82,14.42c0,34.67,64.8,124.74,64.8,124.74S626.81,754.31,626.81,719.64Z"/><path class="cls-2" d="M302.81,975.64A34,34,0,0,0,238,961.22a34,34,0,0,0-64.82,14.42c0,34.67,64.8,124.74,64.8,124.74S302.81,1010.31,302.81,975.64Z"/><path class="cls-2" d="M626.81,975.64A34,34,0,0,0,562,961.22a34,34,0,0,0-64.82,14.42c0,34.67,64.8,124.74,64.8,124.74S626.81,1010.31,626.81,975.64Z"/></g></svg>