<svg xmlns="http://www.w3.org/2000/svg" viewBox="0 0 800 1274"><defs><style>.cls-1{fill:#f2f0eb;}.cls-2{fill:#3e95a3;}.cls-3{fill:#d39c53;}.cls-4{fill:#27282b;}</style></defs><title>Ac</title><g id="Layer_2" data-name="Layer 2"><rect class="cls-1" width="800" height="1274"/></g><g id="Layer_1" data-name="Layer 1"><circle class="cls-2" cx="399.41" cy="483.7" r="154"/><circle class="cls-2" cx="268.52" cy="683.9" r="130.9"/><circle class="cls-2" cx="530.7" cy="686.48" r="130.9"/><path class="cls-2" d="M563.56,930.29h-336a241.64,241.64,0,0,0,133.35-216V614.6h69.29v99.67a241.64,241.64,0,0,0,133.35,216Z"/><path class="cls-3" d="M227.57,930.7H399.41V330.11A154.05,154.05,0,0,0,261.94,553.57a130.9,130.9,0,1,0,87.95,233.27A241.64,241.64,0,0,1,227.57,930.7Z"/><circle class="cls-1" cx="399.41" cy="629.7" r="133"/><rect class="cls-2" x="76.41" y="633.7" width="45" height="6"/><rect class="cls-2" x="678.41" y="633.7" width="45" height="6"/><rect class="cls-2" x="396.41" y="72.7" width="6" height="231"/><rect class="cls-2" x="396.41" y="955.7" width="6" height="246"/><circle class="cls-2" cx="399.41" cy="186.7" r="14"/><circle class="cls-2" cx="399.41" cy="1080.7" r="14"/><circle class="cls-4" cx="399.35" cy="582.45" r="49.74"/><circle class="cls-4" cx="357.07" cy="647.11" r="42.28"/><circle class="cls-2" cx="441.76" cy="647.95" r="42.28"/><path class="cls-4" d="M452.37,726.7H343.84a78,78,0,0,0,43.08-69.77v-32.2H409.3v32.2a78,78,0,0,0,43.07,69.77Z"/><path class="cls-4" d="M484,648a42.27,42.27,0,0,0-40.72-42.24,49.74,49.74,0,0,0-43.91-73v194h53a78.05,78.05,0,0,1-40.1-48.47A42.27,42.27,0,0,0,484,648Z"/><path class="cls-2" d="M37.15,140.19a10.58,10.58,0,0,1-3.72-6.06l7.08-3.84a5,5,0,0,0,1.26,2.46,2.88,2.88,0,0,0,2.1.9,2.69,2.69,0,0,0,2-.9,9,9,0,0,0,1.56-2.58l30-71.28h4.08l35.16,82.68H106.27l-11-26.52H64l-8.52,20.4a10.69,10.69,0,0,1-4.44,5.16,12,12,0,0,1-6.36,1.92A11.62,11.62,0,0,1,37.15,140.19Zm54-34L79.63,75.69l-.24-1.8-.12,1.8L67.63,106.17Z"/><rect class="cls-2" x="73" y="274" width="6" height="366"/><path class="cls-2" d="M727,633h-6V116.54A37.58,37.58,0,0,0,683.46,79H151V73H683.46A43.59,43.59,0,0,1,727,116.54Z"/><circle class="cls-2" cx="75.07" cy="195.42" r="13.42"/><circle class="cls-2" cx="63.52" cy="213.2" r="11.59"/><circle class="cls-2" cx="86.62" cy="213.2" r="11.59"/><path class="cls-2" d="M89.66,235H60.47a21.29,21.29,0,0,0,11.59-18.94V207h6v9.06A21.28,21.28,0,0,0,89.66,235Z"/><path class="cls-2" d="M762.68,1134.22a10.58,10.58,0,0,1,3.72,6.06l-7.08,3.84a5,5,0,0,0-1.26-2.46,2.88,2.88,0,0,0-2.1-.9,2.69,2.69,0,0,0-2,.9,9,9,0,0,0-1.56,2.58l-30,71.28h-4.08l-35.16-82.68h10.44l11,26.52h31.2l8.52-20.4a10.69,10.69,0,0,1,4.44-5.16,12,12,0,0,1,6.36-1.92A11.62,11.62,0,0,1,762.68,1134.22Zm-54,34,11.52,30.48.24,1.8.12-1.8,11.64-30.48Z"/><rect class="cls-2" x="721" y="633" width="6" height="367"/><path class="cls-2" d="M649,1201H116.54A43.59,43.59,0,0,1,73,1157.46V640h6v517.46A37.58,37.58,0,0,0,116.54,1195H649Z"/><circle class="cls-2" cx="724.5" cy="1078.5" r="13.5"/><circle class="cls-2" cx="736.5" cy="1061.5" r="11.5"/><circle class="cls-2" cx="713.5" cy="1061.5" r="11.5"/><path class="cls-2" d="M710.45,1039h29.1A21.26,21.26,0,0,0,728,1057.91V1067h-6v-9.09A21.26,21.26,0,0,0,710.45,1039Z"/></g></svg>