<svg xmlns="http://www.w3.org/2000/svg" viewBox="0 0 800 1274"><defs><style>.cls-1{fill:#f2f0eb;}.cls-2{fill:#d8491d;}.cls-3{fill:#d39c53;}.cls-4{fill:#27282b;}</style></defs><title>Jh</title><g id="Layer_2" data-name="Layer 2"><rect class="cls-1" width="800" height="1274"/></g><g id="Layer_1" data-name="Layer 1"><path class="cls-2" d="M98,193.37a11.37,11.37,0,0,0-21.66-4.82,11.37,11.37,0,0,0-21.66,4.82c0,8.83,21.66,41.69,21.66,41.69S98,205,98,193.37Z"/><rect class="cls-2" x="73" y="273" width="6" height="367"/><path class="cls-2" d="M727,634h-6V116.54A37.58,37.58,0,0,0,683.46,79H148V73H683.46A43.59,43.59,0,0,1,727,116.54Z"/><path class="cls-2" d="M551.09,210.19a103.13,103.13,0,0,0-196.55-43.74A103.12,103.12,0,0,0,158,210.19c0,80.08,196.54,378.34,196.54,378.34S551.09,315.36,551.09,210.19Z"/><path class="cls-1" d="M514.21,530H388a27.06,27.06,0,0,1-26.23-20.38L338,416.47,337.72,262H527Z"/><path class="cls-3" d="M337.71,340H369a25.43,25.43,0,0,1,21,11.14l10.55,15.51L384.7,424.72A9.72,9.72,0,0,0,394.08,437H408v93H388.07a27.08,27.08,0,0,1-26.22-20.33L338,416.85Z"/><path class="cls-4" d="M472.64,355.82A22.43,22.43,0,0,0,454.08,346H416v-6h38.08a28.41,28.41,0,0,1,23.52,12.45Z"/><path class="cls-4" d="M389.09,355.82A22.42,22.42,0,0,0,370.53,346H333v-6h37.53a28.4,28.4,0,0,1,23.52,12.45Z"/><polygon class="cls-3" points="470 559.99 408 650.85 408 530 470 530 470 559.99"/><path class="cls-4" d="M423.63,485H395.8A10.84,10.84,0,0,1,385,474.16V474h47.61Z"/><path class="cls-4" d="M405.94,467H385.31a10.32,10.32,0,1,1,20.63,0Z"/><path class="cls-4" d="M426.58,467H405.94a10.32,10.32,0,0,1,20.64,0Z"/><polygon class="cls-4" points="421.58 458.15 439.76 467 422.07 467 421.58 458.15"/><polygon class="cls-4" points="400.42 457.86 419.12 467 401.43 467 400.42 457.86"/><polygon class="cls-1" points="473.13 388 440.63 388 431.97 375 465.55 375 473.13 388"/><polygon class="cls-1" points="382 390 360.58 390 352.01 375 378.79 371.79 382 377.15 382 390"/><path class="cls-4" d="M385.56,377h-36.3l-12.1-11H376a11.5,11.5,0,0,1,8.65,3.93l12,13.67Z"/><path class="cls-4" d="M379.1,396H365.3a10.83,10.83,0,0,1-9.7-6h29.55A6.05,6.05,0,0,1,379.1,396Z"/><path class="cls-4" d="M350,377h19a0,0,0,0,1,0,0v19a0,0,0,0,1,0,0H359a9,9,0,0,1-9-9V377A0,0,0,0,1,350,377Z"/><polygon class="cls-1" points="460 390 438.58 390 430.01 375 456.79 371.79 460 377.15 460 390"/><path class="cls-4" d="M462.65,377h-35.2l-12.1-11h38.79a11.5,11.5,0,0,1,8.65,3.93l12,13.67Z"/><path class="cls-4" d="M457.28,396H443.49a10.83,10.83,0,0,1-9.7-6h29.55A6.06,6.06,0,0,1,457.28,396Z"/><path class="cls-4" d="M428,377h19a0,0,0,0,1,0,0v19a0,0,0,0,1,0,0H437a9,9,0,0,1-9-9V377A0,0,0,0,1,428,377Z"/><path class="cls-3" d="M475.73,423.68a23.92,23.92,0,1,1-43.45-20Z"/><path class="cls-4" d="M408,441H394.3a13.95,13.95,0,0,1-13.38-17.85l10.44-35.77L379.65,374.7l4.41-4.07,14,15.17-11.39,39A7.95,7.95,0,0,0,394.3,435H408Z"/><polygon class="cls-4" points="427 440 416.83 440 407.36 428.16 412.05 424.42 419.72 434 427 434 427 440"/><rect class="cls-4" x="382" y="464" width="59" height="6"/><rect class="cls-4" x="463.44" y="370" width="6" height="18.95" transform="matrix(0.73, -0.68, 0.68, 0.73, -133.69, 417.02)"/><path class="cls-4" d="M321,280l-32.17-35.39a27,27,0,0,1,1.44-37.81l8.37-7.91a67.85,67.85,0,0,1,61.7-16.8L408,193l55.86-24.52A120.79,120.79,0,0,1,588.14,185l10.38,8.35a30.83,30.83,0,0,1,4.34,43.79L567,280Z"/><rect class="cls-4" x="320.73" y="279.67" width="245.95" height="36.33"/><rect class="cls-1" x="315" y="278.98" width="259" height="6"/><rect class="cls-1" x="278" y="216" width="339" height="6"/><path class="cls-1" d="M357.07,239a9,9,0,0,0-17.1-3.81,9,9,0,0,0-17.1,3.81c0,7,17.1,32.91,17.1,32.91S357.07,248.13,357.07,239Z"/><path class="cls-1" d="M425,239a9,9,0,0,0-17.1-3.81,9,9,0,0,0-17.1,3.81c0,7,17.1,32.91,17.1,32.91S425,248.13,425,239Z"/><path class="cls-1" d="M493,239a9,9,0,0,0-17.1-3.81,9,9,0,0,0-17.1,3.81c0,7,17.1,32.91,17.1,32.91S493,248.13,493,239Z"/><path class="cls-1" d="M560.9,239a9,9,0,0,0-17.1-3.81A9,9,0,0,0,526.7,239c0,7,17.1,32.91,17.1,32.91S560.9,248.13,560.9,239Z"/><rect class="cls-4" x="528" y="352" width="6" height="111"/><rect class="cls-4" x="546" y="306" width="6" height="157"/><rect class="cls-4" x="564" y="306" width="6" height="151"/><path class="cls-4" d="M517.85,437h-9.26a3,3,0,0,1-2.9-2.21l-4-14.56,5.79-1.57L510.88,431h7A10.16,10.16,0,0,0,528,420.85V412h6v8.85A16.16,16.16,0,0,1,517.85,437Z"/><rect class="cls-4" x="514.59" y="401.79" width="19.85" height="6" transform="translate(-114.01 581.61) rotate(-53.14)"/><path class="cls-4" d="M497.78,376.1a18.24,18.24,0,0,1-18.21-18.22A16.9,16.9,0,0,1,496.45,341H501v6h-4.55a10.89,10.89,0,0,0-10.88,10.88,12.22,12.22,0,1,0,24.43,0V340.05a24.47,24.47,0,0,0-9.22-19.19l-9.5-7.6,3.75-4.68,9.5,7.6A30.41,30.41,0,0,1,516,340.05v17.83a18.21,18.21,0,0,1-18.22,18.22Z"/><path class="cls-4" d="M582.21,508.1A18.21,18.21,0,0,1,564,489.88V457h6v32.88a12.22,12.22,0,1,0,24.43,0A10.89,10.89,0,0,0,583.55,479H579v-6h4.55a16.9,16.9,0,0,1,16.88,16.88,18.24,18.24,0,0,1-18.2,18.22Z"/><path class="cls-4" d="M515.78,375.67a18.2,18.2,0,0,1-9.76-2.83l3.22-5.06A12.22,12.22,0,0,0,528,357.46V338.28a36.25,36.25,0,0,0-6.1-20.16l-4-6,5-3.33,4,6A42.2,42.2,0,0,1,534,338.28v19.18a18.21,18.21,0,0,1-18.22,18.21Z"/><path class="cls-4" d="M546.22,507.59A18.21,18.21,0,0,1,528,489.37V453h6v36.37a12.22,12.22,0,0,0,18.76,10.32l3.22,5.07a18.19,18.19,0,0,1-9.75,2.83Z"/><path class="cls-4" d="M564.22,507.59A18.21,18.21,0,0,1,546,489.37V453h6v36.37a12.22,12.22,0,0,0,18.76,10.32l3.22,5.07a18.19,18.19,0,0,1-9.75,2.83Z"/><rect class="cls-4" x="178.84" y="353.78" width="6" height="184.2" transform="translate(-195.21 146.37) rotate(-29.35)"/><rect class="cls-4" x="283.46" y="595.04" width="6" height="71.77" transform="translate(-274.77 224.54) rotate(-29.67)"/><path class="cls-4" d="M128.21,417.65l-2.93-5.24a23.43,23.43,0,0,0,11.82-23.75l-3-22a3,3,0,0,1,4.87-2.73L156.15,378a23.42,23.42,0,0,0,26.43,2.31l2.93,5.24a29.38,29.38,0,0,1-33.16-2.91l-11.29-9.24,2,14.46A29.38,29.38,0,0,1,128.21,417.65Z"/><path class="cls-2" d="M270,637.12,256.61,637a58.47,58.47,0,0,1-47.41-25.06l-15.34-22.08a34.13,34.13,0,0,1,8.55-47.48L269.12,496a3,3,0,0,1,2.24-.49,3,3,0,0,1,1.93,1.24,20.15,20.15,0,0,1-5,28L220.55,558,217.13,553l47.69-33.13a14.15,14.15,0,0,0,5-17l-64,44.45a28.1,28.1,0,0,0-7.05,39.12l15.34,22.08A52.44,52.44,0,0,0,256.66,631l13.37.12Z"/><path class="cls-2" d="M230.33,572l-3.42-4.93,44.56-31a14.12,14.12,0,0,0,5-17L231.4,550.41,228,545.49l47.79-33.21a3,3,0,0,1,4.17.76,20.13,20.13,0,0,1-5.05,28Z"/><path class="cls-2" d="M240.11,586.09l-3.42-4.92L275,554.55a14.17,14.17,0,0,0,5-17L241.44,564.3,238,559.37l41.27-28.67a3,3,0,0,1,2.24-.49,3,3,0,0,1,1.93,1.24,20.16,20.16,0,0,1-5,28Z"/><path class="cls-2" d="M249.89,600.17l-3.43-4.93L278.52,573a14.18,14.18,0,0,0,5-17l-34.8,24.18-3.42-4.93,37.52-26.07a3,3,0,0,1,4.18.75,20.17,20.17,0,0,1-5.05,28Z"/><path class="cls-2" d="M315.63,639l-6-.24,1.09-26.35a3,3,0,0,1,.07-.51,60.75,60.75,0,0,0-7.5-44.66.75.75,0,0,1-.07-.12l-7.47-13.59,5.25-2.89,7.45,13.53a66.71,66.71,0,0,1,8.25,48.75Z"/><path class="cls-2" d="M701.78,1080.15a11.37,11.37,0,0,0,21.66,4.82,11.37,11.37,0,0,0,21.66-4.82c0-8.83-21.66-41.69-21.66-41.69S701.78,1068.56,701.78,1080.15Z"/><rect class="cls-2" x="721" y="634" width="6" height="367"/><path class="cls-2" d="M652,1201H116.54A43.59,43.59,0,0,1,73,1157.46V640h6v517.46A37.58,37.58,0,0,0,116.54,1195H652Z"/><path class="cls-2" d="M248.67,1063.33a103.12,103.12,0,0,0,196.54,43.74,103.13,103.13,0,0,0,196.55-43.74C641.76,983.25,445.21,685,445.21,685S248.67,958.16,248.67,1063.33Z"/><path class="cls-1" d="M285.79,744H412a27.06,27.06,0,0,1,26.23,20.38L462,857.53l.28,154.47H273Z"/><path class="cls-3" d="M462.29,934H431.05a25.43,25.43,0,0,1-21-11.14l-10.55-15.51,15.84-58.07A9.72,9.72,0,0,0,405.92,837H392V744h19.93a27.08,27.08,0,0,1,26.22,20.33L462,857.15Z"/><path class="cls-4" d="M384,934H345.68a28.4,28.4,0,0,1-23.52-12.45l5-3.37A22.43,22.43,0,0,0,345.68,928H384Z"/><path class="cls-4" d="M467,934H429.23a28.4,28.4,0,0,1-23.52-12.45l5-3.37A22.42,22.42,0,0,0,429.23,928H467Z"/><polygon class="cls-3" points="330 714.01 392 623.15 392 744 330 744 330 714.01"/><path class="cls-4" d="M376.33,789h27.83A10.84,10.84,0,0,1,415,799.84V800H367.4Z"/><path class="cls-4" d="M393.82,807h20.63a10.32,10.32,0,1,1-20.63,0Z"/><path class="cls-4" d="M373.18,807h20.64a10.32,10.32,0,1,1-20.64,0Z"/><polygon class="cls-4" points="378.18 815.85 360 807 377.69 807 378.18 815.85"/><polygon class="cls-4" points="399.35 816.14 380.64 807 398.33 807 399.35 816.14"/><polygon class="cls-1" points="326.63 886 359.13 886 367.79 899 334.21 899 326.63 886"/><polygon class="cls-1" points="418 884 439.42 884 447.99 899 421.21 902.21 418 896.85 418 884"/><path class="cls-4" d="M414.2,897h36.3l12.1,11H423.81a11.5,11.5,0,0,1-8.65-3.93l-12-13.67Z"/><path class="cls-4" d="M420.66,878h13.8a10.83,10.83,0,0,1,9.7,6H414.61A6.05,6.05,0,0,1,420.66,878Z"/><path class="cls-4" d="M431,878h19a0,0,0,0,1,0,0v19a0,0,0,0,1,0,0H440a9,9,0,0,1-9-9V878A0,0,0,0,1,431,878Z" transform="translate(881 1775) rotate(180)"/><polygon class="cls-1" points="340 884 361.42 884 369.99 899 343.21 902.21 340 896.85 340 884"/><path class="cls-4" d="M337.11,897h35.2l12.1,11H345.62a11.5,11.5,0,0,1-8.65-3.93L325,890.4Z"/><path class="cls-4" d="M342.48,878h13.79a10.83,10.83,0,0,1,9.7,6H336.42A6.06,6.06,0,0,1,342.48,878Z"/><path class="cls-4" d="M353,878h19a0,0,0,0,1,0,0v19a0,0,0,0,1,0,0H362a9,9,0,0,1-9-9V878A0,0,0,0,1,353,878Z" transform="translate(725 1775) rotate(180)"/><path class="cls-3" d="M324,849.84a23.92,23.92,0,0,1,43.45,20Z"/><path class="cls-4" d="M415.7,903.37l-14-15.17,11.39-39A7.95,7.95,0,0,0,405.46,839H392v-6h13.46a13.95,13.95,0,0,1,13.38,17.85L408.4,886.62l11.71,12.68Z"/><polygon class="cls-4" points="387.71 849.59 380.04 840 373 840 373 834 382.93 834 392.4 845.84 387.71 849.59"/><rect class="cls-4" x="359" y="804" width="59" height="6"/><rect class="cls-4" x="330.32" y="884.57" width="6" height="18.95" transform="matrix(0.73, -0.68, 0.68, 0.73, -518.02, 463.19)"/><path class="cls-2" d="M740.3,1134.83a20.07,20.07,0,0,1,7.44,9.06,27.19,27.19,0,0,1,2,11.46l-9.36-.72q.36-6.48-3.24-10.38t-10.8-3.9q-7.68,0-10.86,4.44a18.06,18.06,0,0,0-3.18,10.8v47.76a13.5,13.5,0,0,1,4.92-.84q4.44,0,11,2.64a16.61,16.61,0,0,0,5.4,1.32q3.24,0,10-2.76l4.08,8a86.78,86.78,0,0,1-8.76,3.3,19.41,19.41,0,0,1-5.28.78,15.28,15.28,0,0,1-4.5-.72q-2.34-.72-6.42-2.28a14.87,14.87,0,0,0-5.76-1.2,8.36,8.36,0,0,0-3.42,1,7,7,0,0,0-2.82,2.1h-8.28v-59.52a27.86,27.86,0,0,1,2.52-11.82,20.15,20.15,0,0,1,8-8.82q5.46-3.36,13.74-3.36T740.3,1134.83Z"/><path class="cls-4" d="M478.76,994l32.17,35.39a27,27,0,0,1-1.44,37.81l-8.37,7.91a67.85,67.85,0,0,1-61.7,16.8L391.76,1081l-55.86,24.52A120.79,120.79,0,0,1,211.62,1089l-10.39-8.35a30.83,30.83,0,0,1-4.33-43.79L232.76,994Z"/><rect class="cls-4" x="233" y="958" width="246" height="36" transform="translate(712 1952) rotate(180)"/><rect class="cls-1" x="212" y="989" width="274" height="6"/><rect class="cls-1" x="183" y="1052" width="340" height="6"/><path class="cls-1" d="M442.69,1034.54a9,9,0,0,0,17.1,3.81,9,9,0,0,0,17.1-3.81c0-7-17.1-32.91-17.1-32.91S442.69,1025.39,442.69,1034.54Z"/><path class="cls-1" d="M374.74,1034.54a9,9,0,0,0,17.1,3.81,9,9,0,0,0,17.1-3.81c0-7-17.1-32.91-17.1-32.91S374.74,1025.39,374.74,1034.54Z"/><path class="cls-1" d="M306.8,1034.54a9,9,0,0,0,17.1,3.81,9,9,0,0,0,17.1-3.81c0-7-17.1-32.91-17.1-32.91S306.8,1025.39,306.8,1034.54Z"/><path class="cls-1" d="M238.86,1034.54a9,9,0,0,0,17.1,3.81,9,9,0,0,0,17.1-3.81c0-7-17.1-32.91-17.1-32.91S238.86,1025.39,238.86,1034.54Z"/><rect class="cls-4" x="269" y="811" width="6" height="111"/><rect class="cls-4" x="251" y="811" width="6" height="175"/><rect class="cls-4" x="233" y="817" width="6" height="160"/><path class="cls-4" d="M275,862h-6v-8.85A16.16,16.16,0,0,1,285.15,837h9.26a3,3,0,0,1,2.9,2.21l4,14.56-5.79,1.57L292.12,843h-7A10.16,10.16,0,0,0,275,853.15Z"/><rect class="cls-4" x="268.33" y="865.73" width="19.85" height="6" transform="translate(-583.72 570.2) rotate(-53.14)"/><path class="cls-4" d="M308,965.42l-9.5-7.6A30.41,30.41,0,0,1,287,934V916.12a18.22,18.22,0,1,1,36.43,0A16.9,16.9,0,0,1,306.55,933H302v-6h4.55a10.89,10.89,0,0,0,10.88-10.88,12.22,12.22,0,1,0-24.43,0V934a24.47,24.47,0,0,0,9.22,19.19l9.5,7.6Z"/><path class="cls-4" d="M239,817h-6V784.12a12.22,12.22,0,1,0-24.43,0A10.89,10.89,0,0,0,219.45,795H224v6h-4.55a16.9,16.9,0,0,1-16.88-16.88,18.22,18.22,0,1,1,36.43,0Z"/><path class="cls-4" d="M280.09,964.69l-8-12A18.2,18.2,0,0,1,269,942.54V906.73a8.88,8.88,0,0,1,8.89-8.89h9.34a18.19,18.19,0,0,1,9.75,2.83l-3.22,5.06a12.16,12.16,0,0,0-6.54-1.89h-9.33a2.9,2.9,0,0,0-2.89,2.89v35.81a12.22,12.22,0,0,0,2.05,6.78l8,12Z"/><path class="cls-4" d="M275,821h-6V784.15a12.22,12.22,0,0,0-18.76-10.32L247,768.76a18.22,18.22,0,0,1,28,15.39Z"/><path class="cls-4" d="M257,821h-6V784.15a12.22,12.22,0,0,0-18.76-10.32L229,768.76a18.22,18.22,0,0,1,28,15.39Z"/><rect class="cls-4" x="614.92" y="735.54" width="6" height="184.2" transform="translate(-326.36 409.14) rotate(-29.35)"/><rect class="cls-4" x="510.3" y="606.7" width="6" height="71.77" transform="translate(-250.79 338.36) rotate(-29.67)"/><path class="cls-4" d="M662.72,910.29a3,3,0,0,1-1.9-.68l-17.21-14.08a23.42,23.42,0,0,0-26.43-2.31L614.25,888a29.38,29.38,0,0,1,33.16,2.91l11.29,9.24-2-14.46a29.38,29.38,0,0,1,14.83-29.8l2.93,5.23a23.44,23.44,0,0,0-11.82,23.75l3,22a3,3,0,0,1-1.51,3A3,3,0,0,1,662.72,910.29Z"/><path class="cls-2" d="M528.93,778.5a3.17,3.17,0,0,1-.53,0,3,3,0,0,1-1.93-1.24l-1.81-2.61a16.94,16.94,0,0,1,4.25-23.6l50.3-35,3.42,4.93-50.3,34.94a11,11,0,0,0-2.75,15.26l.1.14,69-47.92a22.35,22.35,0,0,0,5.6-31.1L582.6,661.13a42.15,42.15,0,0,0-34.2-18.08L530,642.88l.06-6,18.43.17a48.17,48.17,0,0,1,39.07,20.66l21.66,31.17a28.36,28.36,0,0,1-7.11,39.45L530.64,778A3,3,0,0,1,528.93,778.5Z"/><path class="cls-2" d="M522.29,761.77a3,3,0,0,1-2.47-1.29,20.13,20.13,0,0,1,5-28l44.56-31,3.42,4.93-44.56,31a14.15,14.15,0,0,0-5,17l45.07-31.31,3.42,4.92L524,761.24A3,3,0,0,1,522.29,761.77Z"/><path class="cls-2" d="M518.76,743.35a3.08,3.08,0,0,1-.53,0,3,3,0,0,1-1.94-1.24,20.17,20.17,0,0,1,5.05-28l38.31-26.61,3.42,4.92L524.77,719a14.17,14.17,0,0,0-5,17l38.55-26.78,3.42,4.93-41.27,28.67A3,3,0,0,1,518.76,743.35Z"/><path class="cls-2" d="M515.24,724.94a3.29,3.29,0,0,1-.54-.05,3,3,0,0,1-1.93-1.24,20.17,20.17,0,0,1,5.05-28l32-22.27,3.43,4.93-32.06,22.27a14.18,14.18,0,0,0-5,17l34.8-24.18,3.42,4.93L517,724.4A3,3,0,0,1,515.24,724.94Z"/><path class="cls-2" d="M498.75,722.86l-7.45-13.53a66.66,66.66,0,0,1-8.25-48.75l1.08-26.09,6,.25L489,661.09a3,3,0,0,1-.07.51,60.75,60.75,0,0,0,7.5,44.66.75.75,0,0,1,.07.12L504,720Z"/><rect class="cls-4" x="139.03" y="634" width="559.95" height="6" transform="translate(-192.96 182.21) rotate(-20.05)"/><circle class="cls-1" cx="419" cy="637" r="68"/><circle class="cls-4" cx="419" cy="637" r="57.12"/><path class="cls-1" d="M447.87,621.33A15.15,15.15,0,0,0,419,614.9a15.15,15.15,0,0,0-28.87,6.43c0,11.76,28.87,55.56,28.87,55.56S447.87,636.77,447.87,621.33Z"/><path class="cls-2" d="M62.24,138.17a20.07,20.07,0,0,1-7.44-9.06,27.19,27.19,0,0,1-2-11.46l9.36.72q-.36,6.48,3.24,10.38t10.8,3.9q7.68,0,10.86-4.44a18.06,18.06,0,0,0,3.18-10.8V69.65a13.5,13.5,0,0,1-4.92.84q-4.44,0-11-2.64a16.61,16.61,0,0,0-5.4-1.32q-3.24,0-10,2.76l-4.08-8A86.78,86.78,0,0,1,63.62,58a19.41,19.41,0,0,1,5.28-.78,15.28,15.28,0,0,1,4.5.72q2.34.72,6.42,2.28a14.87,14.87,0,0,0,5.76,1.2,8.36,8.36,0,0,0,3.42-1,7,7,0,0,0,2.82-2.1h8.28v59.52a27.86,27.86,0,0,1-2.52,11.82,20.15,20.15,0,0,1-8,8.82q-5.46,3.36-13.74,3.36T62.24,138.17Z"/></g></svg>