<svg xmlns="http://www.w3.org/2000/svg" viewBox="0 0 800 1274"><defs><style>.cls-1{fill:#f2f0eb;}.cls-2{fill:#3e95a3;}.cls-3{fill:#27282b;}.cls-4{fill:#d39c53;}</style></defs><title>Js</title><g id="Layer_2" data-name="Layer 2"><rect class="cls-1" width="800" height="1274"/></g><g id="Layer_1" data-name="Layer 1"><polygon class="cls-2" points="223.51 925.35 436.96 857.32 650.42 925.35 436.96 1173.75 223.51 925.35"/><circle class="cls-2" cx="556.5" cy="850.5" r="119.5"/><circle class="cls-2" cx="317.5" cy="851.5" r="119.5"/><path class="cls-2" d="M374,627H587.3A219.48,219.48,0,0,0,468,822.28V916H406V822.53a219.8,219.8,0,0,0-35.45-119.77Z"/><path class="cls-2" d="M740.39,1135.57a20.07,20.07,0,0,1,7.44,9.06,27.19,27.19,0,0,1,2,11.46l-9.36-.72q.36-6.48-3.24-10.38t-10.8-3.9q-7.68,0-10.86,4.44a18.06,18.06,0,0,0-3.18,10.8v47.76a13.5,13.5,0,0,1,4.92-.84q4.44,0,11,2.64a16.61,16.61,0,0,0,5.4,1.32q3.24,0,10-2.76l4.08,8a86.78,86.78,0,0,1-8.76,3.3,19.41,19.41,0,0,1-5.28.78,15.28,15.28,0,0,1-4.5-.72q-2.34-.72-6.42-2.28a14.87,14.87,0,0,0-5.76-1.2,8.36,8.36,0,0,0-3.42,1,7,7,0,0,0-2.82,2.1h-8.28V1156a27.86,27.86,0,0,1,2.52-11.82,20.15,20.15,0,0,1,8-8.82q5.46-3.36,13.74-3.36T740.39,1135.57Z"/><path class="cls-2" d="M653,1201H115.54A43.59,43.59,0,0,1,72,1157.46V640h6v517.46A37.58,37.58,0,0,0,115.54,1195H653Z"/><rect class="cls-2" x="539.5" y="815" width="368" height="6" transform="translate(-96.38 1539.37) rotate(-89.85)"/><polygon class="cls-2" points="703.17 1068.18 723.85 1061.59 744.53 1068.18 723.85 1092.25 703.17 1068.18"/><circle class="cls-2" cx="735.5" cy="1061.5" r="11.5"/><circle class="cls-2" cx="712.5" cy="1061.5" r="11.5"/><path class="cls-2" d="M709.45,1039h29.1A21.26,21.26,0,0,0,727,1057.91V1067h-6v-9.09A21.26,21.26,0,0,0,709.45,1039Z"/><polygon class="cls-3" points="153.87 872.95 529.62 649.75 545 675.72 169.25 898.92 153.87 872.95"/><path class="cls-3" d="M164.42,838.11A31.28,31.28,0,0,1,165.51,868l11.33,10.84,52.9-31.33L225.84,833A31.3,31.3,0,0,1,210,774.72l.16-.09-8.42-31.4-102.92,61,23.5,22.49A31.29,31.29,0,0,1,164.42,838.11Z"/><polygon class="cls-3" points="122.27 882.12 140.4 898.26 145.84 921.9 110.91 915.72 122.27 882.12"/><circle class="cls-3" cx="147" cy="909" r="13"/><circle class="cls-3" cx="134" cy="887" r="13"/><path class="cls-3" d="M153.57,871.49l16.63,28.08a23.78,23.78,0,0,0-24.82-.35l-8.71,5.16-3.43-5.79,8.71-5.16a23.81,23.81,0,0,0,11.62-21.94Z"/><rect class="cls-3" x="158.56" y="863.02" width="6" height="45.83" transform="translate(-428.91 205.99) rotate(-30.64)"/><rect class="cls-1" x="94.48" y="782.93" width="127.44" height="6" transform="translate(-378.36 190.27) rotate(-30.63)"/><path class="cls-1" d="M649,635.91l-10.41,27.58a49.62,49.62,0,0,1-24.15,27.22l-34.25,17.38a32.49,32.49,0,0,1-43.67-14.26L513.81,649a8.94,8.94,0,1,1,16-8.1l2.67-12.61,34.5-19.16,47.9-7.89L650,621.92Z"/><path class="cls-2" d="M566.85,714.7a35.49,35.49,0,0,1-31.7-19.42l-22.74-44.81a11.95,11.95,0,0,1,21.3-10.82l21.83,43-5.35,2.71-21.83-43a5.94,5.94,0,1,0-10.6,5.38l22.74,44.82a29.54,29.54,0,0,0,39.64,12.95l34.24-17.39a46.47,46.47,0,0,0,22.7-25.57L647.5,635l5.61,2.12L642.7,664.65a52.41,52.41,0,0,1-25.6,28.83l-34.25,17.39A35.29,35.29,0,0,1,566.85,714.7Z"/><path class="cls-2" d="M565.57,676.15l-22.19-43.72a6,6,0,0,0-3.46-3,5.95,5.95,0,0,0-7.14,8.35L548.6,669l-5.35,2.71-15.82-31.18a11.94,11.94,0,0,1,14.36-16.76,11.84,11.84,0,0,1,6.94,6l22.19,43.71Z"/><path class="cls-2" d="M581.52,668.05l-22.19-43.71a5.94,5.94,0,1,0-10.6,5.38l15.25,30-5.35,2.71-15.25-30a11.94,11.94,0,0,1,21.3-10.81l22.19,43.72Z"/><path class="cls-2" d="M597.47,660l-22.18-43.72a5.95,5.95,0,1,0-10.61,5.38l17,33.46-5.35,2.72-17-33.46a11.95,11.95,0,0,1,21.31-10.82l22.18,43.72Z"/><rect class="cls-2" x="589.61" y="606.47" width="31.2" height="6" transform="translate(-225.51 391.22) rotate(-30.48)"/><rect class="cls-1" x="257" y="601" width="118" height="146" transform="translate(632 1348) rotate(180)"/><path class="cls-1" d="M255,731.22,419,747a27.08,27.08,0,0,1,26.25,20.38L469,860.53l.28,154.47H244.59L214,856.22l1.47-11.3A39.86,39.86,0,0,1,255,810.22S255,731.22,255,731.22Z"/><path class="cls-4" d="M469.29,937H438.05a25.43,25.43,0,0,1-21-11.14l-10.55-15.51,15.84-58.07A9.72,9.72,0,0,0,412.92,840H399V747h19.93a27.08,27.08,0,0,1,26.22,20.33L469,860.15Z"/><path class="cls-3" d="M391,937H352.6a28.4,28.4,0,0,1-23.52-12.45l5-3.37A22.42,22.42,0,0,0,352.6,931H391Z"/><path class="cls-3" d="M474,937H436.14a28.43,28.43,0,0,1-23.52-12.45l5-3.37A22.45,22.45,0,0,0,436.14,931H474Z"/><polygon class="cls-4" points="337 717.01 399 626.15 399 747 337 747 337 717.01"/><path class="cls-3" d="M383.33,792h27.83A10.84,10.84,0,0,1,422,802.84V803H374.4Z"/><path class="cls-3" d="M400.73,810h20.64a10.32,10.32,0,1,1-20.64,0Z"/><path class="cls-3" d="M380.09,810h20.64a10.32,10.32,0,1,1-20.64,0Z"/><polygon class="cls-3" points="385.1 818.85 366.92 810 384.61 810 385.1 818.85"/><polygon class="cls-3" points="406.26 819.14 387.56 810 405.25 810 406.26 819.14"/><polygon class="cls-1" points="333.54 889 366.04 889 374.71 902 341.13 902 333.54 889"/><polygon class="cls-1" points="425 887 446.42 887 454.99 902 428.21 905.21 425 899.85 425 887"/><path class="cls-3" d="M421.11,900h36.3l12.1,11H430.73a11.48,11.48,0,0,1-8.65-3.93l-12-13.67Z"/><path class="cls-3" d="M427.58,881h13.79a10.85,10.85,0,0,1,9.71,6H421.52A6.07,6.07,0,0,1,427.58,881Z"/><path class="cls-3" d="M438,881h19a0,0,0,0,1,0,0v19a0,0,0,0,1,0,0H447a9,9,0,0,1-9-9V881A0,0,0,0,1,438,881Z" transform="translate(895 1781) rotate(180)"/><polygon class="cls-1" points="347 887 368.42 887 376.99 902 350.21 905.21 347 899.85 347 887"/><path class="cls-3" d="M344,900h35.2l12.1,11H352.54a11.48,11.48,0,0,1-8.65-3.93l-12-13.67Z"/><path class="cls-3" d="M349.39,881h13.79a10.85,10.85,0,0,1,9.71,6H343.33A6.07,6.07,0,0,1,349.39,881Z"/><path class="cls-3" d="M360,881h19a0,0,0,0,1,0,0v19a0,0,0,0,1,0,0H369a9,9,0,0,1-9-9V881A0,0,0,0,1,360,881Z" transform="translate(739 1781) rotate(180)"/><path class="cls-4" d="M330.94,853.35a23.92,23.92,0,0,1,43.45,20Z"/><path class="cls-3" d="M422.62,906.37l-14-15.17,11.39-39A7.95,7.95,0,0,0,412.37,842H399v-6h13.37a13.94,13.94,0,0,1,13.39,17.84l-10.44,35.78L427,902.3Z"/><polygon class="cls-3" points="394.63 852.59 386.96 843 380 843 380 837 389.85 837 399.31 848.84 394.63 852.59"/><rect class="cls-3" x="366" y="807" width="59" height="6"/><rect class="cls-3" x="337.24" y="888.08" width="6" height="18.95" transform="translate(-518.58 468.83) rotate(-42.71)"/><rect class="cls-3" x="118.88" y="636.25" width="559.95" height="6" transform="translate(-194.95 175.44) rotate(-20.05)"/><circle class="cls-1" cx="399" cy="639" r="68"/><circle class="cls-3" cx="398.85" cy="639.25" r="57.12"/><polygon class="cls-1" points="371.25 642.5 398.85 633.7 426.45 642.5 398.85 674.61 371.25 642.5"/><circle class="cls-1" cx="414.5" cy="632.5" r="15.5"/><circle class="cls-1" cx="383.5" cy="632.5" r="15.5"/><path class="cls-1" d="M379.61,604h38.78A28.18,28.18,0,0,0,403,629.11V641h-8V629.11A28.18,28.18,0,0,0,379.61,604Z"/><path class="cls-3" d="M290.1,989.78,265.48,860.1l0-.17c-1.49-11.27,4.32-30.64,18-44.34l7.45-7.46,4.25,4.25-7.46,7.45c-11.86,11.86-17.61,29.24-16.33,39.24L296,988.66Z"/><path class="cls-3" d="M272.1,989.78,247.48,860.1l0-.17c-1.49-11.27,4.32-30.64,18-44.34l7.45-7.46,4.25,4.25-7.46,7.45c-11.86,11.86-17.61,29.24-16.33,39.24L278,988.66Z"/><path class="cls-3" d="M254.1,989.78,229.48,860.1l0-.17c-1.49-11.27,4.32-30.64,18-44.34l7.45-7.46,4.25,4.25-7.46,7.45c-11.86,11.86-17.61,29.24-16.33,39.24L260,988.66Z"/><path class="cls-3" d="M236.1,989.78,211.48,860.1l0-.17c-1.49-11.27,4.32-30.64,18-44.34l7.45-7.46,4.25,4.25-7.46,7.45c-11.86,11.86-17.61,29.24-16.33,39.24L242,988.66Z"/><path class="cls-3" d="M291.34,858.34,288,846h-7a10.15,10.15,0,0,0-10.15,10.15h-6a16.24,16.24,0,0,1,6.56-13A16.06,16.06,0,0,1,281,840h9.26a3,3,0,0,1,2.9,2.21l4,14.56Z"/><rect class="cls-3" x="267.65" y="867.89" width="15.85" height="6" transform="translate(-587.99 573.14) rotate(-53.42)"/><path class="cls-3" d="M452.16,994.37l24.68,112.93-93.61,11.51a134.18,134.18,0,0,1-90.69-21.46l-115.7-77,57.39-70.56Z"/><polygon class="cls-3" points="491.19 984.15 473.3 1018.2 216.48 957.12 219.34 933.74 491.19 984.15"/><rect class="cls-1" x="341.04" y="852.53" width="6" height="272.9" transform="translate(-698.85 1082.96) rotate(-75.97)"/><rect class="cls-1" x="335.35" y="868.06" width="6" height="275.24" transform="translate(-719.4 1089.62) rotate(-75.94)"/><path class="cls-3" d="M280.85,1008.25s-52.05,75.6-145,105.35C159.4,1059.07,213.93,1012,280.85,1008.25Z"/><path class="cls-1" d="M130.48,1118.46l2.62-6a186.31,186.31,0,0,1,57.16-72.92c27-20.61,58.24-32.44,90.42-34.23l6.11-.34-3.47,5c-.54.78-13.49,19.43-38.08,42-22.7,20.84-59.94,48.94-108.48,64.47Zm144-106.7c-63,6.28-111.1,51.56-133,96.79C214.49,1083,261.19,1028.75,274.48,1011.76Z"/><path class="cls-1" d="M280.85,1008.25s-52.05,75.6-145,105.35Z"/><rect class="cls-1" x="275.87" y="999.97" width="25.86" height="6" transform="translate(-479.03 296.01) rotate(-31.3)"/><path class="cls-1" d="M452,1112.86a53.62,53.62,0,0,1-45-24.37l-2.55-3.88-17.31,3.6A54.12,54.12,0,0,1,336,1071.48l-6.3-7-13,2.16a53.73,53.73,0,0,1-48.81-16.93l-11.31-12.44,4.44-4,11.31,12.43a47.79,47.79,0,0,0,43.39,15.06L332,1058l8.5,9.45a48.13,48.13,0,0,0,45.44,14.87l21.32-4.44,4.79,7.3a47.7,47.7,0,0,0,45.82,21.31l18.64-2.23.72,6-18.64,2.24A55.89,55.89,0,0,1,452,1112.86Z"/><path class="cls-1" d="M198.17,1029.75c-8.86,0-17.53-2.1-23.5-8.44l4.37-4.11c14.38,15.28,51.6-.75,52-.92l2.4,5.5C232.32,1022.26,214.91,1029.75,198.17,1029.75Z"/><circle class="cls-1" cx="430" cy="1019" r="8"/><circle class="cls-1" cx="388" cy="1009" r="8"/><circle class="cls-1" cx="346" cy="999" r="8"/><circle class="cls-1" cx="304" cy="989" r="8"/><circle class="cls-1" cx="262" cy="979" r="8"/><polygon class="cls-2" points="575.34 352.9 361.88 420.93 148.43 352.9 361.89 104.5 575.34 352.9"/><circle class="cls-2" cx="242.29" cy="427.36" r="119.57"/><circle class="cls-2" cx="481.09" cy="426.49" r="119.57"/><path class="cls-2" d="M425,651.5H211.25A219.64,219.64,0,0,0,330.82,456V362.52H393V456a219.44,219.44,0,0,0,35.52,119.76Z"/><path class="cls-2" d="M58.47,138.69A20,20,0,0,1,51,129.63a26.88,26.88,0,0,1-2-11.46l9.36.72q-.36,6.48,3.24,10.38t10.8,3.9q7.67,0,10.86-4.44a18.13,18.13,0,0,0,3.18-10.8V70.17a13.5,13.5,0,0,1-4.92.84,31,31,0,0,1-11-2.64,16.72,16.72,0,0,0-5.4-1.32c-2.16,0-5.49.92-10,2.76l-4.08-8a85,85,0,0,1,8.76-3.3,19.35,19.35,0,0,1,5.28-.78,15.28,15.28,0,0,1,4.5.72q2.34.72,6.42,2.28a14.87,14.87,0,0,0,5.76,1.2,8.4,8.4,0,0,0,3.42-1,7.11,7.11,0,0,0,2.82-2.1h8.28v59.52a27.86,27.86,0,0,1-2.52,11.82,20.21,20.21,0,0,1-8,8.82c-3.65,2.24-8.22,3.36-13.74,3.36S62,141.09,58.47,138.69Z"/><path class="cls-2" d="M727,634h-6V116.54A37.58,37.58,0,0,0,683.46,79H146V73H683.46A43.59,43.59,0,0,1,727,116.54Z"/><rect class="cls-2" x="-108.5" y="453" width="368" height="6" transform="translate(-380.7 530.31) rotate(-89.85)"/><polygon class="cls-2" points="95.68 206.07 75 212.66 54.32 206.07 75 182 95.68 206.07"/><circle class="cls-2" cx="63.45" cy="213.2" r="11.59"/><circle class="cls-2" cx="86.55" cy="213.2" r="11.59"/><path class="cls-2" d="M89.6,235H60.4A21.27,21.27,0,0,0,72,216.06V207h6v9.06A21.27,21.27,0,0,0,89.6,235Z"/><polygon class="cls-3" points="644.99 405.31 269.23 628.5 253.85 602.53 629.6 379.34 644.99 405.31"/><path class="cls-3" d="M634.43,440.14a31.28,31.28,0,0,1-1.09-29.88L622,399.42l-52.9,31.34L573,445.3a31.3,31.3,0,0,1,15.82,58.23l-.17.09,8.42,31.4L700,474.07l-23.5-22.49A31.31,31.31,0,0,1,634.43,440.14Z"/><polygon class="cls-3" points="676.58 396.13 658.45 380 653.01 356.35 687.95 362.53 676.58 396.13"/><circle class="cls-3" cx="651.36" cy="369.19" r="12.95"/><circle class="cls-3" cx="664.52" cy="391.41" r="12.95"/><path class="cls-3" d="M645.28,406.76l-16.63-28.08a23.78,23.78,0,0,0,24.82.36l8.71-5.16,3.43,5.79-8.71,5.16a23.79,23.79,0,0,0-11.62,21.93Z"/><rect class="cls-3" x="634.29" y="369.4" width="6" height="45.83" transform="translate(-110.97 379.53) rotate(-30.64)"/><rect class="cls-1" x="576.93" y="489.32" width="127.44" height="6" transform="translate(-161.45 395.11) rotate(-30.63)"/><path class="cls-1" d="M149.82,642.35l10.41-27.58a49.64,49.64,0,0,1,24.15-27.23l34.25-17.38a32.48,32.48,0,0,1,43.67,14.27L285,629.24a8.94,8.94,0,1,1-16,8.1L266.42,650l-34.5,19.17L184,677l-35.17-20.66Z"/><path class="cls-2" d="M275.81,645.14a12,12,0,0,1-10.67-6.54l-21.83-43,5.35-2.71,21.83,43a5.94,5.94,0,1,0,10.6-5.38l-22.74-44.82a29.52,29.52,0,0,0-39.64-12.94l-34.24,17.38a46.5,46.5,0,0,0-22.7,25.57L151.35,643.3l-5.61-2.11,10.41-27.58a52.39,52.39,0,0,1,25.6-28.84L216,567.39A35.52,35.52,0,0,1,263.7,583l22.74,44.82a12,12,0,0,1-10.63,17.35Z"/><path class="cls-2" d="M260.79,655.07a12,12,0,0,1-10.67-6.53l-22.19-43.72,5.35-2.71,22.19,43.71a5.94,5.94,0,1,0,10.6-5.38l-15.82-31.18,5.35-2.72,15.82,31.18a12,12,0,0,1-5.24,16.06A11.84,11.84,0,0,1,260.79,655.07Z"/><path class="cls-2" d="M244.84,663.17a12,12,0,0,1-10.67-6.54L212,612.92l5.35-2.72,22.19,43.72a5.94,5.94,0,0,0,10.6-5.38l-15.24-30,5.34-2.72,15.25,30a11.94,11.94,0,0,1-10.63,17.35Z"/><path class="cls-2" d="M228.88,671.27a12,12,0,0,1-10.67-6.54L196,621l5.35-2.71L223.56,662a5.95,5.95,0,1,0,10.61-5.38l-17-33.46,5.35-2.71,17,33.46a12,12,0,0,1-10.64,17.35Z"/><rect class="cls-2" x="178.04" y="665.79" width="31.2" height="6" transform="translate(-312.48 190.65) rotate(-30.48)"/><polygon class="cls-1" points="424 629 542 587 542 531 424 531 424 629"/><path class="cls-1" d="M544,547,380.15,531.22a27.08,27.08,0,0,1-26.23-20.39l-23.75-93.15-.28-154.46H554.4L585,422l-1.47,11.29A39.86,39.86,0,0,1,544,468Z"/><path class="cls-4" d="M329.89,341.22h31.24a25.43,25.43,0,0,1,21,11.13l10.55,15.51-15.84,58.08a9.73,9.73,0,0,0,9.38,12.28h13.92v93H380.24A27.06,27.06,0,0,1,354,510.88l-23.86-92.81Z"/><path class="cls-3" d="M464.81,357a22.42,22.42,0,0,0-18.56-9.82H408.17v-6h38.08a28.42,28.42,0,0,1,23.52,12.44Z"/><path class="cls-3" d="M381.27,357a22.45,22.45,0,0,0-18.56-9.82H325.17v-6h37.54a28.44,28.44,0,0,1,23.52,12.44Z"/><polygon class="cls-4" points="462.17 561.21 400.17 652.06 400.17 531.22 462.17 531.22 462.17 561.21"/><path class="cls-3" d="M415.81,486.22H388a10.84,10.84,0,0,1-10.84-10.85v-.15h47.6Z"/><path class="cls-3" d="M398.12,468.22H377.48a10.32,10.32,0,0,1,20.64,0Z"/><path class="cls-3" d="M418.76,468.22H398.12a10.32,10.32,0,1,1,20.64,0Z"/><polygon class="cls-3" points="413.75 459.37 431.94 468.22 414.24 468.22 413.75 459.37"/><polygon class="cls-3" points="392.59 459.07 411.3 468.22 393.61 468.22 392.59 459.07"/><polygon class="cls-1" points="465.31 389.22 432.81 389.22 424.14 376.22 457.72 376.22 465.31 389.22"/><polygon class="cls-1" points="374.17 391.22 352.75 391.22 344.18 376.22 370.96 373.01 374.17 378.36 374.17 391.22"/><path class="cls-3" d="M377.74,378.22h-36.3l-12.1-11h38.78a11.49,11.49,0,0,1,8.65,3.92l12,13.68Z"/><path class="cls-3" d="M371.27,397.22H357.48a10.87,10.87,0,0,1-9.71-6h29.56A6.06,6.06,0,0,1,371.27,397.22Z"/><path class="cls-3" d="M342.17,378.22h19a0,0,0,0,1,0,0v19a0,0,0,0,1,0,0h-10a9,9,0,0,1-9-9v-10A0,0,0,0,1,342.17,378.22Z"/><polygon class="cls-1" points="452.17 391.22 430.75 391.22 422.18 376.22 448.96 373.01 452.17 378.36 452.17 391.22"/><path class="cls-3" d="M454.83,378.22h-35.2l-12.1-11h38.78a11.51,11.51,0,0,1,8.65,3.92l12,13.68Z"/><path class="cls-3" d="M449.46,397.22H435.67a10.87,10.87,0,0,1-9.71-6h29.56A6.07,6.07,0,0,1,449.46,397.22Z"/><path class="cls-3" d="M420.17,378.22h19a0,0,0,0,1,0,0v19a0,0,0,0,1,0,0h-10a9,9,0,0,1-9-9v-10A0,0,0,0,1,420.17,378.22Z"/><path class="cls-4" d="M467.91,424.9a23.92,23.92,0,1,1-43.45-20Z"/><path class="cls-3" d="M400.17,442.22H386.48a13.95,13.95,0,0,1-13.39-17.85l10.44-35.78-11.7-12.68,4.41-4.07,14,15.18-11.39,39a8,8,0,0,0,7.63,10.17h13.69Z"/><polygon class="cls-3" points="419.17 441.22 409.01 441.22 399.54 429.38 404.22 425.63 411.89 435.22 419.17 435.22 419.17 441.22"/><rect class="cls-3" x="374.17" y="465.22" width="59" height="6"/><rect class="cls-3" x="455.61" y="371.22" width="6" height="18.95" transform="translate(-136.6 412) rotate(-42.71)"/><rect class="cls-3" x="120.03" y="636" width="559.95" height="6" transform="translate(-194.79 175.81) rotate(-20.05)"/><circle class="cls-1" cx="400" cy="639" r="68"/><circle class="cls-3" cx="400" cy="639" r="57.12"/><polygon class="cls-1" points="427.6 635.75 400 644.55 372.4 635.75 400 603.64 427.6 635.75"/><circle class="cls-1" cx="384.59" cy="645.27" r="15.46"/><circle class="cls-1" cx="415.41" cy="645.27" r="15.46"/><path class="cls-1" d="M419.48,674.36h-39A28.4,28.4,0,0,0,396,649.08V637h8v12.08a28.4,28.4,0,0,0,15.46,25.28Z"/><path class="cls-3" d="M507.92,470.12l-4.25-4.24,7.46-7.46c11.86-11.86,17.61-29.23,16.33-39.23l-24.6-129.6,5.89-1.12,24.62,129.69,0,.16c1.49,11.27-4.32,30.64-18,44.34Z"/><path class="cls-3" d="M525.92,470.12l-4.25-4.24,7.46-7.46c11.86-11.86,17.61-29.23,16.33-39.23l-24.6-129.6,5.89-1.12,24.62,129.69,0,.16c1.49,11.27-4.32,30.64-18,44.34Z"/><path class="cls-3" d="M543.92,470.12l-4.25-4.24,7.46-7.46c11.86-11.86,17.61-29.23,16.33-39.23l-24.6-129.6,5.89-1.12,24.62,129.69,0,.16c1.49,11.27-4.32,30.64-18,44.34Z"/><path class="cls-3" d="M561.92,470.12l-4.25-4.24,7.46-7.46c11.86-11.86,17.61-29.23,16.33-39.23l-24.6-129.6,5.89-1.12,24.62,129.69,0,.16c1.49,11.27-4.32,30.64-18,44.34Z"/><path class="cls-3" d="M517.85,438h-9.26a3,3,0,0,1-2.9-2.21l-4-14.56,5.79-1.57L510.88,432h7A10.15,10.15,0,0,0,528,421.85h6a16.24,16.24,0,0,1-6.56,13A16.06,16.06,0,0,1,517.85,438Z"/><rect class="cls-3" x="515.35" y="404.36" width="15.85" height="6" transform="translate(-115.7 584.77) rotate(-53.42)"/><path class="cls-3" d="M346.69,296.88,322,184l93.61-11.51a134.18,134.18,0,0,1,90.69,21.46l115.71,77-57.4,70.57Z"/><polygon class="cls-3" points="307.67 307.11 325.55 273.06 582.37 334.13 579.51 357.51 307.67 307.11"/><rect class="cls-1" x="451.81" y="165.83" width="6" height="272.9" transform="translate(51.28 670.22) rotate(-75.97)"/><rect class="cls-1" x="457.5" y="147.95" width="6" height="275.24" transform="translate(71.63 662.92) rotate(-75.94)"/><path class="cls-3" d="M518,283s52-75.6,145-105.34C639.45,232.19,584.92,279.28,518,283Z"/><path class="cls-1" d="M512.06,286.33l3.47-5c.54-.78,13.49-19.44,38.09-42,22.69-20.84,59.93-48.94,108.47-64.47l6.28-2-2.62,6.06a186.38,186.38,0,0,1-57.16,72.92c-27,20.6-58.24,32.44-90.42,34.23ZM657.39,182.7c-73,25.61-119.73,79.8-133,96.8C587.38,273.22,635.47,227.93,657.39,182.7Z"/><path class="cls-1" d="M518,283s52-75.6,145-105.34Z"/><rect class="cls-1" x="497.12" y="285.28" width="25.86" height="6" transform="translate(-75.53 306.93) rotate(-31.3)"/><path class="cls-1" d="M537.78,258l-11.31-12.44a47.78,47.78,0,0,0-43.39-15.05l-16.21,2.7-8.5-9.44a48.15,48.15,0,0,0-45.44-14.88l-21.32,4.44-4.79-7.3A47.69,47.69,0,0,0,341,184.74L322.36,187l-.72-6,18.64-2.23a53.66,53.66,0,0,1,51.56,24l2.55,3.89L411.7,203a54.14,54.14,0,0,1,51.13,16.73l6.3,7,13-2.16a53.76,53.76,0,0,1,48.81,16.93L542.22,254Z"/><path class="cls-1" d="M567.83,275l-2.4-5.5c1.69-.74,41.5-17.86,58.75.47l-4.36,4.12C605.46,258.8,568.21,274.81,567.83,275Z"/><circle class="cls-1" cx="369" cy="272" r="8"/><circle class="cls-1" cx="411" cy="282" r="8"/><circle class="cls-1" cx="453" cy="292" r="8"/><circle class="cls-1" cx="495" cy="302" r="8"/><circle class="cls-1" cx="537" cy="312" r="8"/></g></svg>