<svg xmlns="http://www.w3.org/2000/svg" viewBox="0 0 800 1274"><defs><style>.cls-1{fill:#27282b;}.cls-2{fill:#3e95a3;}.cls-3{fill:#d39c53;}.cls-4{fill:#f2f0eb;}</style></defs><title>shirt</title><g id="Layer_1" data-name="Layer 1"><rect class="cls-1" width="800" height="1274"/><ellipse class="cls-2" cx="400" cy="638" rx="207" ry="207.49"/><path class="cls-3" d="M800,0H400V430.51c114.16,0,206.72,92.63,207,207H800Z"/><path class="cls-4" d="M400,430.51v.31C400,545,492.31,637.5,606.19,637.5h.8C606.72,523.14,514.16,430.51,400,430.51Z"/><path class="cls-3" d="M193,638c0-.17,0-.33,0-.5H0V1274H400V845.49C285.68,845.49,193,752.59,193,638Z"/><path class="cls-4" d="M193.81,637.5H193c0,.17,0,.33,0,.5,0,114.59,92.68,207.49,207,207.49v-1.31C400,730,307.69,637.5,193.81,637.5Z"/></g></svg>