<svg xmlns="http://www.w3.org/2000/svg" viewBox="0 0 800 1274"><defs><style>.cls-1{fill:#f2f0eb;}.cls-2{fill:#d8491d;}</style></defs><title>10h</title><g id="Layer_2" data-name="Layer 2"><rect class="cls-1" width="800" height="1274"/></g><g id="Layer_1" data-name="Layer 1"><path class="cls-2" d="M98,193.37a11.37,11.37,0,0,0-21.66-4.82,11.37,11.37,0,0,0-21.66,4.82c0,8.83,21.66,41.69,21.66,41.69S98,205,98,193.37Z"/><rect class="cls-2" x="73" y="273" width="6" height="367"/><path class="cls-2" d="M727,634h-6V116.54A37.58,37.58,0,0,0,683.46,79H148V73H683.46A43.59,43.59,0,0,1,727,116.54Z"/><path class="cls-2" d="M35.82,81a23.87,23.87,0,0,1-9.24,1.5L24.42,74a9.94,9.94,0,0,0,1.8.12,19.7,19.7,0,0,0,9.42-2.64,141.27,141.27,0,0,0,13-8.4q.84-.48,2.52-1.68h2.88v80.16H44.22V76.17A33.7,33.7,0,0,1,35.82,81Z"/><path class="cls-2" d="M80.88,136.89a35.49,35.49,0,0,1-11.4-14.82A50.64,50.64,0,0,1,69.54,83,35.51,35.51,0,0,1,81,68.19a28.64,28.64,0,0,1,17.58-5.58,28.18,28.18,0,0,1,17.52,5.64,36,36,0,0,1,11.4,14.94,49.86,49.86,0,0,1,4,19.74,48.57,48.57,0,0,1-4,19.56A34.7,34.7,0,0,1,116,137.07a28.88,28.88,0,0,1-17.46,5.46A28.62,28.62,0,0,1,80.88,136.89Zm30.36-7.8a26.84,26.84,0,0,0,7.8-11.52,43.82,43.82,0,0,0,2.58-15.12,42.41,42.41,0,0,0-2.7-15.24A26,26,0,0,0,111,75.93a20.41,20.41,0,0,0-25,.12,26.87,26.87,0,0,0-7.92,11.4,42.07,42.07,0,0,0-2.7,15.12,42.56,42.56,0,0,0,2.7,15.18,26.59,26.59,0,0,0,8,11.46,19.27,19.27,0,0,0,12.6,4.32A18.71,18.71,0,0,0,111.24,129.09Z"/><path class="cls-2" d="M702.08,1080.16a11.37,11.37,0,0,0,21.66,4.82,11.37,11.37,0,0,0,21.66-4.82c0-8.83-21.66-41.69-21.66-41.69S702.08,1068.57,702.08,1080.16Z"/><rect class="cls-2" x="720.98" y="634" width="6" height="367"/><path class="cls-2" d="M652,1201H116.52A43.59,43.59,0,0,1,73,1157.46V640h6v517.46A37.58,37.58,0,0,0,116.52,1195H652Z"/><path class="cls-2" d="M764.24,1192.5a23.87,23.87,0,0,1,9.24-1.5l2.16,8.52a9.94,9.94,0,0,0-1.8-.12,19.7,19.7,0,0,0-9.42,2.64,141.27,141.27,0,0,0-13,8.4q-.84.48-2.52,1.68H746V1132h9.84v65.4A33.7,33.7,0,0,1,764.24,1192.5Z"/><path class="cls-2" d="M719.18,1136.64a35.49,35.49,0,0,1,11.4,14.82,50.64,50.64,0,0,1-.06,39.12,35.51,35.51,0,0,1-11.46,14.76,28.64,28.64,0,0,1-17.58,5.58,28.18,28.18,0,0,1-17.52-5.64,36,36,0,0,1-11.4-14.94,49.86,49.86,0,0,1-4-19.74,48.57,48.57,0,0,1,4-19.56A34.7,34.7,0,0,1,684,1136.46a30.62,30.62,0,0,1,35.16.18Zm-30.36,7.8A26.84,26.84,0,0,0,681,1156a43.82,43.82,0,0,0-2.58,15.12,42.41,42.41,0,0,0,2.7,15.24,26,26,0,0,0,7.92,11.28,20.41,20.41,0,0,0,25-.12,26.87,26.87,0,0,0,7.92-11.4,42.07,42.07,0,0,0,2.7-15.12,42.56,42.56,0,0,0-2.7-15.18,26.59,26.59,0,0,0-8-11.46,19.27,19.27,0,0,0-12.6-4.32A18.71,18.71,0,0,0,688.82,1144.44Z"/><path class="cls-2" d="M302.81,207.64A34,34,0,0,0,238,193.22a34,34,0,0,0-64.82,14.42c0,34.67,64.8,124.74,64.8,124.74S302.81,242.31,302.81,207.64Z"/><path class="cls-2" d="M464.81,335.64A34,34,0,0,0,400,321.22a34,34,0,0,0-64.82,14.42c0,34.67,64.8,124.74,64.8,124.74S464.81,370.31,464.81,335.64Z"/><path class="cls-2" d="M464.81,847.64A34,34,0,0,0,400,833.22a34,34,0,0,0-64.82,14.42c0,34.67,64.8,124.74,64.8,124.74S464.81,882.31,464.81,847.64Z"/><path class="cls-2" d="M626.81,207.64A34,34,0,0,0,562,193.22a34,34,0,0,0-64.82,14.42c0,34.67,64.8,124.74,64.8,124.74S626.81,242.31,626.81,207.64Z"/><path class="cls-2" d="M302.81,463.64A34,34,0,0,0,238,449.22a34,34,0,0,0-64.82,14.42c0,34.67,64.8,124.74,64.8,124.74S302.81,498.31,302.81,463.64Z"/><path class="cls-2" d="M626.81,463.64A34,34,0,0,0,562,449.22a34,34,0,0,0-64.82,14.42c0,34.67,64.8,124.74,64.8,124.74S626.81,498.31,626.81,463.64Z"/><path class="cls-2" d="M302.81,719.64A34,34,0,0,0,238,705.22a34,34,0,0,0-64.82,14.42c0,34.67,64.8,124.74,64.8,124.74S302.81,754.31,302.81,719.64Z"/><path class="cls-2" d="M626.81,719.64A34,34,0,0,0,562,705.22a34,34,0,0,0-64.82,14.42c0,34.67,64.8,124.74,64.8,124.74S626.81,754.31,626.81,719.64Z"/><path class="cls-2" d="M302.81,975.64A34,34,0,0,0,238,961.22a34,34,0,0,0-64.82,14.42c0,34.67,64.8,124.74,64.8,124.74S302.81,1010.31,302.81,975.64Z"/><path class="cls-2" d="M626.81,975.64A34,34,0,0,0,562,961.22a34,34,0,0,0-64.82,14.42c0,34.67,64.8,124.74,64.8,124.74S626.81,1010.31,626.81,975.64Z"/></g></svg>