<svg xmlns="http://www.w3.org/2000/svg" viewBox="0 0 800 1274"><defs><style>.cls-1{fill:#f2f0eb;}.cls-2{fill:#3e95a3;}</style></defs><title>10s</title><g id="Layer_2" data-name="Layer 2"><rect class="cls-1" width="800" height="1274"/></g><g id="Layer_1" data-name="Layer 1"><polygon class="cls-2" points="95.75 204.07 75.07 210.66 54.39 204.07 75.07 180 95.75 204.07"/><circle class="cls-2" cx="63.52" cy="211.2" r="11.59"/><circle class="cls-2" cx="86.62" cy="211.2" r="11.59"/><path class="cls-2" d="M89.66,233H60.47a21.27,21.27,0,0,0,11.59-18.94V205h6v9.06A21.28,21.28,0,0,0,89.66,233Z"/><polygon class="cls-2" points="300.05 241.21 238 260.98 175.95 241.21 238 169 300.05 241.21"/><circle class="cls-2" cx="203.35" cy="262.59" r="34.76"/><circle class="cls-2" cx="272.65" cy="262.59" r="34.76"/><path class="cls-2" d="M281.79,328H194.21A63.84,63.84,0,0,0,229,271.17V244H247v27.17A63.84,63.84,0,0,0,281.79,328Z"/><polygon class="cls-2" points="624.04 241.21 562 260.98 499.95 241.21 562 169 624.04 241.21"/><circle class="cls-2" cx="527.35" cy="262.59" r="34.76"/><circle class="cls-2" cx="596.65" cy="262.59" r="34.76"/><path class="cls-2" d="M605.79,328H518.21A63.84,63.84,0,0,0,553,271.17V244H571v27.17A63.84,63.84,0,0,0,605.79,328Z"/><polygon class="cls-2" points="300.05 507.2 238 526.98 175.95 507.2 238 435 300.05 507.2"/><circle class="cls-2" cx="203.35" cy="528.59" r="34.76"/><circle class="cls-2" cx="272.65" cy="528.59" r="34.76"/><path class="cls-2" d="M281.79,594H194.21A63.84,63.84,0,0,0,229,537.17V510H247v27.17A63.84,63.84,0,0,0,281.79,594Z"/><polygon class="cls-2" points="624.04 507.2 562 526.98 499.95 507.2 562 435 624.04 507.2"/><circle class="cls-2" cx="527.35" cy="528.59" r="34.76"/><circle class="cls-2" cx="596.65" cy="528.59" r="34.76"/><path class="cls-2" d="M605.79,594H518.21A63.84,63.84,0,0,0,553,537.17V510H571v27.17A63.84,63.84,0,0,0,605.79,594Z"/><polygon class="cls-2" points="462.05 376.2 400 395.98 337.95 376.2 400 304 462.05 376.2"/><circle class="cls-2" cx="365.35" cy="397.59" r="34.76"/><circle class="cls-2" cx="434.65" cy="397.59" r="34.76"/><path class="cls-2" d="M443.79,463H356.21A63.84,63.84,0,0,0,391,406.17V379H409v27.17A63.84,63.84,0,0,0,443.79,463Z"/><polygon class="cls-2" points="462.05 891.21 400 910.98 337.95 891.21 400 819 462.05 891.21"/><circle class="cls-2" cx="365.35" cy="912.59" r="34.76"/><circle class="cls-2" cx="434.65" cy="912.59" r="34.76"/><path class="cls-2" d="M443.79,978H356.21A63.84,63.84,0,0,0,391,921.17V894H409v27.17A63.84,63.84,0,0,0,443.79,978Z"/><polygon class="cls-2" points="300.05 763.21 238 782.98 175.95 763.21 238 691 300.05 763.21"/><circle class="cls-2" cx="203.35" cy="784.59" r="34.76"/><circle class="cls-2" cx="272.65" cy="784.59" r="34.76"/><path class="cls-2" d="M281.79,850H194.21A63.84,63.84,0,0,0,229,793.17V766H247v27.17A63.84,63.84,0,0,0,281.79,850Z"/><polygon class="cls-2" points="624.04 763.21 562 782.98 499.95 763.21 562 691 624.04 763.21"/><circle class="cls-2" cx="527.35" cy="784.59" r="34.76"/><circle class="cls-2" cx="596.65" cy="784.59" r="34.76"/><path class="cls-2" d="M605.79,850H518.21A63.84,63.84,0,0,0,553,793.17V766H571v27.17A63.84,63.84,0,0,0,605.79,850Z"/><polygon class="cls-2" points="300.05 1022.21 238 1041.98 175.95 1022.21 238 950 300.05 1022.21"/><circle class="cls-2" cx="203.35" cy="1043.59" r="34.76"/><circle class="cls-2" cx="272.65" cy="1043.59" r="34.76"/><path class="cls-2" d="M281.79,1109H194.21A63.84,63.84,0,0,0,229,1052.17V1025H247v27.17A63.84,63.84,0,0,0,281.79,1109Z"/><polygon class="cls-2" points="624.04 1022.21 562 1041.98 499.95 1022.21 562 950 624.04 1022.21"/><circle class="cls-2" cx="527.35" cy="1043.59" r="34.76"/><circle class="cls-2" cx="596.65" cy="1043.59" r="34.76"/><path class="cls-2" d="M605.79,1109H518.21A63.84,63.84,0,0,0,553,1052.17V1025H571v27.17A63.84,63.84,0,0,0,605.79,1109Z"/><polygon class="cls-2" points="704.08 1077.18 724.76 1070.59 745.45 1077.18 724.76 1101.25 704.08 1077.18"/><circle class="cls-2" cx="736.5" cy="1070.5" r="11.5"/><circle class="cls-2" cx="713.5" cy="1070.5" r="11.5"/><path class="cls-2" d="M710.45,1048h29.09A21.27,21.27,0,0,0,728,1066.91V1076h-6v-9.09A21.26,21.26,0,0,0,710.45,1048Z"/><path class="cls-2" d="M34.57,81a23.87,23.87,0,0,1-9.24,1.5L23.17,74a9.94,9.94,0,0,0,1.8.12,19.7,19.7,0,0,0,9.42-2.64,141.27,141.27,0,0,0,13-8.4q.84-.48,2.52-1.68h2.88v80.16H43V76.17A33.7,33.7,0,0,1,34.57,81Z"/><path class="cls-2" d="M79.63,136.89a35.49,35.49,0,0,1-11.4-14.82A50.64,50.64,0,0,1,68.29,83,35.51,35.51,0,0,1,79.75,68.19a28.64,28.64,0,0,1,17.58-5.58,28.18,28.18,0,0,1,17.52,5.64,36,36,0,0,1,11.4,14.94,49.86,49.86,0,0,1,4,19.74,48.57,48.57,0,0,1-4,19.56,34.7,34.7,0,0,1-11.46,14.58,28.88,28.88,0,0,1-17.46,5.46A28.62,28.62,0,0,1,79.63,136.89Zm30.36-7.8a26.84,26.84,0,0,0,7.8-11.52,43.82,43.82,0,0,0,2.58-15.12,42.41,42.41,0,0,0-2.7-15.24,26,26,0,0,0-7.92-11.28,20.41,20.41,0,0,0-25,.12,26.87,26.87,0,0,0-7.92,11.4,42.07,42.07,0,0,0-2.7,15.12,42.56,42.56,0,0,0,2.7,15.18,26.59,26.59,0,0,0,8,11.46,19.27,19.27,0,0,0,12.6,4.32A18.71,18.71,0,0,0,110,129.09Z"/><rect class="cls-2" x="73" y="274" width="6" height="367"/><path class="cls-2" d="M727,634h-6V116.54A37.58,37.58,0,0,0,683.46,79H151V73H683.46A43.59,43.59,0,0,1,727,116.54Z"/><path class="cls-2" d="M765.5,1193.38a23.87,23.87,0,0,1,9.24-1.5l2.16,8.52a9.94,9.94,0,0,0-1.8-.12,19.7,19.7,0,0,0-9.42,2.64,141.27,141.27,0,0,0-13,8.4q-.84.48-2.52,1.68h-2.88v-80.16h9.84v65.4A33.7,33.7,0,0,1,765.5,1193.38Z"/><path class="cls-2" d="M720.44,1137.52a35.49,35.49,0,0,1,11.4,14.82,50.64,50.64,0,0,1-.06,39.12,35.51,35.51,0,0,1-11.46,14.76,28.64,28.64,0,0,1-17.58,5.58,28.18,28.18,0,0,1-17.52-5.64,36,36,0,0,1-11.4-14.94,49.86,49.86,0,0,1-4-19.74,48.57,48.57,0,0,1,4-19.56,34.7,34.7,0,0,1,11.46-14.58,30.62,30.62,0,0,1,35.16.18Zm-30.36,7.8a26.84,26.84,0,0,0-7.8,11.52A43.82,43.82,0,0,0,679.7,1172a42.41,42.41,0,0,0,2.7,15.24,26,26,0,0,0,7.92,11.28,20.41,20.41,0,0,0,25-.12,26.87,26.87,0,0,0,7.92-11.4,42.07,42.07,0,0,0,2.7-15.12,42.56,42.56,0,0,0-2.7-15.18,26.59,26.59,0,0,0-8-11.46,19.27,19.27,0,0,0-12.6-4.32A18.71,18.71,0,0,0,690.08,1145.32Z"/><rect class="cls-2" x="721" y="634" width="6" height="366"/><path class="cls-2" d="M649,1201H116.54A43.59,43.59,0,0,1,73,1157.46V641h6v516.46A37.58,37.58,0,0,0,116.54,1195H649Z"/></g></svg>