<svg id="Layer_1" data-name="Layer 1" xmlns="http://www.w3.org/2000/svg" xmlns:xlink="http://www.w3.org/1999/xlink" viewBox="0 0 15 14"><defs><style>.cls-1,.cls-3{fill:none;}.cls-2{clip-path:url(#clip-path);}.cls-3{stroke:#ff4a1a;stroke-miterlimit:10;stroke-width:2px;}</style><clipPath id="clip-path"><rect class="cls-1" x="-1699" y="-489" width="1000.05" height="1600"/></clipPath></defs><g class="cls-2"><line class="cls-3" x1="-1429.41" y1="-984.67" x2="1.95" y2="446.69"/><line class="cls-3" x1="-1422.19" y1="-991.9" x2="9.17" y2="439.46"/><line class="cls-3" x1="-1414.96" y1="-999.12" x2="16.4" y2="432.24"/><line class="cls-3" x1="-1407.74" y1="-1006.35" x2="23.62" y2="425.01"/><line class="cls-3" x1="-1400.51" y1="-1013.57" x2="30.85" y2="417.79"/><line class="cls-3" x1="-1393.29" y1="-1020.8" x2="38.08" y2="410.56"/><line class="cls-3" x1="-1386.06" y1="-1028.03" x2="45.3" y2="403.33"/><line class="cls-3" x1="-1378.83" y1="-1035.25" x2="52.53" y2="396.11"/><line class="cls-3" x1="-1371.61" y1="-1042.48" x2="59.75" y2="388.88"/><line class="cls-3" x1="-1364.38" y1="-1049.7" x2="66.98" y2="381.66"/><line class="cls-3" x1="-1357.16" y1="-1056.93" x2="74.2" y2="374.43"/><line class="cls-3" x1="-1349.93" y1="-1064.16" x2="81.43" y2="367.21"/><line class="cls-3" x1="-1342.7" y1="-1071.38" x2="88.66" y2="359.98"/><line class="cls-3" x1="-1335.48" y1="-1078.61" x2="95.88" y2="352.75"/><line class="cls-3" x1="-1328.25" y1="-1085.83" x2="103.11" y2="345.53"/><line class="cls-3" x1="-1321.03" y1="-1093.06" x2="110.33" y2="338.3"/><line class="cls-3" x1="-1313.8" y1="-1100.28" x2="117.56" y2="331.08"/><line class="cls-3" x1="-1306.58" y1="-1107.51" x2="124.78" y2="323.85"/><line class="cls-3" x1="-1299.35" y1="-1114.74" x2="132.01" y2="316.63"/></g><path d="M2.5,4A4.39,4.39,0,0,0,1,4.28,4.48,4.48,0,0,1,4,8.5a4.48,4.48,0,0,1-3,4.22A4.39,4.39,0,0,0,2.5,13a4.5,4.5,0,0,0,0-9Z"/><path d="M8,4.25a2.18,2.18,0,0,0-.26-1A1.32,1.32,0,0,0,6.6,2.5a1.31,1.31,0,0,0,.91-.39A2,2,0,0,0,8,.75,2,2,0,0,0,8.4,2a1.27,1.27,0,0,0,1,.5,1.32,1.32,0,0,0-1.14.7A2.18,2.18,0,0,0,8,4.25Z"/><path d="M11.4,8.8A3.26,3.26,0,0,0,10.9,7,2.07,2.07,0,0,0,9.16,6a2,2,0,0,0,1.56-.75,3.18,3.18,0,0,0,.68-2,3.19,3.19,0,0,0,.64,2,2,2,0,0,0,1.6.8,2,2,0,0,0-1.53.71A3.18,3.18,0,0,0,11.4,8.8Z"/></svg>