<svg id="Layer_1" data-name="Layer 1" xmlns="http://www.w3.org/2000/svg" xmlns:xlink="http://www.w3.org/1999/xlink" viewBox="0 0 9 12"><defs><style>.cls-1,.cls-3{fill:none;}.cls-2{clip-path:url(#clip-path);}.cls-3{stroke:#ff4a1a;stroke-miterlimit:10;stroke-width:2px;}</style><clipPath id="clip-path"><rect class="cls-1" x="-1660" y="-524" width="1000.05" height="1600"/></clipPath></defs><g class="cls-2"><line class="cls-3" x1="-1426.54" y1="-983.54" x2="4.82" y2="447.82"/><line class="cls-3" x1="-1419.32" y1="-990.77" x2="12.04" y2="440.59"/><line class="cls-3" x1="-1412.09" y1="-997.99" x2="19.27" y2="433.37"/><line class="cls-3" x1="-1404.87" y1="-1005.22" x2="26.5" y2="426.14"/><line class="cls-3" x1="-1397.64" y1="-1012.45" x2="33.72" y2="418.91"/><line class="cls-3" x1="-1390.41" y1="-1019.67" x2="40.95" y2="411.69"/><line class="cls-3" x1="-1383.19" y1="-1026.9" x2="48.17" y2="404.46"/><line class="cls-3" x1="-1375.96" y1="-1034.12" x2="55.4" y2="397.24"/><line class="cls-3" x1="-1368.74" y1="-1041.35" x2="62.62" y2="390.01"/><line class="cls-3" x1="-1361.51" y1="-1048.57" x2="69.85" y2="382.79"/><line class="cls-3" x1="-1354.29" y1="-1055.8" x2="77.08" y2="375.56"/><line class="cls-3" x1="-1347.06" y1="-1063.03" x2="84.3" y2="368.33"/><line class="cls-3" x1="-1339.83" y1="-1070.25" x2="91.53" y2="361.11"/><line class="cls-3" x1="-1332.61" y1="-1077.48" x2="98.75" y2="353.88"/><line class="cls-3" x1="-1325.38" y1="-1084.7" x2="105.98" y2="346.66"/><line class="cls-3" x1="-1318.16" y1="-1091.93" x2="113.2" y2="339.43"/><line class="cls-3" x1="-1310.93" y1="-1099.16" x2="120.43" y2="332.21"/><line class="cls-3" x1="-1303.7" y1="-1106.38" x2="127.66" y2="324.98"/><line class="cls-3" x1="-1296.48" y1="-1113.61" x2="134.88" y2="317.75"/><line class="cls-3" x1="-1289.25" y1="-1120.83" x2="142.11" y2="310.53"/><line class="cls-3" x1="-1282.03" y1="-1128.06" x2="149.33" y2="303.3"/><line class="cls-3" x1="-1274.8" y1="-1135.28" x2="156.56" y2="296.08"/><line class="cls-3" x1="-1267.58" y1="-1142.51" x2="163.78" y2="288.85"/><line class="cls-3" x1="-1260.35" y1="-1149.74" x2="171.01" y2="281.63"/></g><path d="M4,10.44a3.15,3.15,0,0,1-2-.63,2.26,2.26,0,0,1-.78-1.89,2.55,2.55,0,0,1,.45-1.54A2.73,2.73,0,0,1,3,5.45a6.77,6.77,0,0,1,2.12-.34l1.84-.05V4.71a1.87,1.87,0,0,0-.57-1.58,2.62,2.62,0,0,0-1.56-.42,5.17,5.17,0,0,0-1.31.17,5.58,5.58,0,0,0-1.18.5l-.5-1.09a9.26,9.26,0,0,1,1.35-.53,6.36,6.36,0,0,1,1.72-.22,3.75,3.75,0,0,1,2.49.73,2.78,2.78,0,0,1,.87,2.26v5.75H7.07L6.91,9.09H6.85a3.93,3.93,0,0,1-.78.75,3.32,3.32,0,0,1-.93.44A3.74,3.74,0,0,1,4,10.44Zm.24-1.17A3.26,3.26,0,0,0,5.57,9a2.17,2.17,0,0,0,1-.8,2.27,2.27,0,0,0,.37-1.35V6.08l-1.53,0a5.73,5.73,0,0,0-1.65.25A1.83,1.83,0,0,0,2.82,7a1.51,1.51,0,0,0-.28.91A1.21,1.21,0,0,0,3,8.94,2.08,2.08,0,0,0,4.24,9.27Z"/></svg>