<svg id="Layer_1" data-name="Layer 1" xmlns="http://www.w3.org/2000/svg" xmlns:xlink="http://www.w3.org/1999/xlink" viewBox="0 0 11 12"><defs><style>.cls-1,.cls-3{fill:none;}.cls-2{clip-path:url(#clip-path);}.cls-3{stroke:#ff4a1a;stroke-miterlimit:10;stroke-width:2px;}</style><clipPath id="clip-path"><rect class="cls-1" x="-1699" y="-524" width="1000.05" height="1600"/></clipPath></defs><g class="cls-2"><line class="cls-3" x1="-1429.41" y1="-1019.67" x2="1.95" y2="411.69"/><line class="cls-3" x1="-1422.19" y1="-1026.9" x2="9.17" y2="404.46"/><line class="cls-3" x1="-1414.96" y1="-1034.12" x2="16.4" y2="397.24"/><line class="cls-3" x1="-1407.74" y1="-1041.35" x2="23.62" y2="390.01"/><line class="cls-3" x1="-1400.51" y1="-1048.57" x2="30.85" y2="382.79"/><line class="cls-3" x1="-1393.29" y1="-1055.8" x2="38.08" y2="375.56"/><line class="cls-3" x1="-1386.06" y1="-1063.03" x2="45.3" y2="368.33"/><line class="cls-3" x1="-1378.83" y1="-1070.25" x2="52.53" y2="361.11"/><line class="cls-3" x1="-1371.61" y1="-1077.48" x2="59.75" y2="353.88"/><line class="cls-3" x1="-1364.38" y1="-1084.7" x2="66.98" y2="346.66"/><line class="cls-3" x1="-1357.16" y1="-1091.93" x2="74.2" y2="339.43"/><line class="cls-3" x1="-1349.93" y1="-1099.16" x2="81.43" y2="332.21"/><line class="cls-3" x1="-1342.7" y1="-1106.38" x2="88.66" y2="324.98"/><line class="cls-3" x1="-1335.48" y1="-1113.61" x2="95.88" y2="317.75"/><line class="cls-3" x1="-1328.25" y1="-1120.83" x2="103.11" y2="310.53"/><line class="cls-3" x1="-1321.03" y1="-1128.06" x2="110.33" y2="303.3"/><line class="cls-3" x1="-1313.8" y1="-1135.28" x2="117.56" y2="296.08"/><line class="cls-3" x1="-1306.58" y1="-1142.51" x2="124.78" y2="288.85"/><line class="cls-3" x1="-1299.35" y1="-1149.74" x2="132.01" y2="281.63"/></g><path d="M4.08,10.44a3.1,3.1,0,0,1-1.45-.33,2.69,2.69,0,0,1-1-.84,1.83,1.83,0,0,1-.36-1.06,1.55,1.55,0,0,1,.45-1.15A3.82,3.82,0,0,1,3.2,6.28l3.12-1v-1A1.52,1.52,0,0,0,6,3.25a2.07,2.07,0,0,0-.82-.66A2.52,2.52,0,0,0,4,2.34a.89.89,0,0,0-.7.22,1.56,1.56,0,0,0-.22.85l0,.86a2.07,2.07,0,0,1-1.25,0,.75.75,0,0,1-.52-.71,1.08,1.08,0,0,1,.3-.7,3.58,3.58,0,0,1,.79-.66A5.4,5.4,0,0,1,3.47,1.6,5.45,5.45,0,0,1,4.6,1.29,3.58,3.58,0,0,1,7,2.09,2.74,2.74,0,0,1,8,4.19l0,3.44c0,.26,0,.51,0,.76A2.48,2.48,0,0,0,8,8.94l1.31.25v.64l-1,.36-.53.18a1.51,1.51,0,0,1-.41.07.82.82,0,0,1-.83-.72l-.22-.8h.31a5.69,5.69,0,0,1-1.31,1.14A2.44,2.44,0,0,1,4.08,10.44Zm.56-1.21A1.9,1.9,0,0,0,5.52,9a3,3,0,0,0,.8-.67V6.2L4,6.81a1.28,1.28,0,0,0-.71.39,1.06,1.06,0,0,0-.21.68,1.23,1.23,0,0,0,.46.93A1.56,1.56,0,0,0,4.64,9.23Z"/></svg>