<svg id="Layer_1" data-name="Layer 1" xmlns="http://www.w3.org/2000/svg" xmlns:xlink="http://www.w3.org/1999/xlink" viewBox="0 0 13 15"><defs><style>.cls-1,.cls-3{fill:none;}.cls-2{clip-path:url(#clip-path);}.cls-3{stroke:#ff4a1a;stroke-miterlimit:10;stroke-width:2px;}</style><clipPath id="clip-path"><rect class="cls-1" x="-1660" y="-489" width="1000.05" height="1600"/></clipPath></defs><g class="cls-2"><line class="cls-3" x1="-1426.54" y1="-948.54" x2="4.82" y2="482.82"/><line class="cls-3" x1="-1419.32" y1="-955.77" x2="12.04" y2="475.59"/><line class="cls-3" x1="-1412.09" y1="-962.99" x2="19.27" y2="468.37"/><line class="cls-3" x1="-1404.87" y1="-970.22" x2="26.5" y2="461.14"/><line class="cls-3" x1="-1397.64" y1="-977.45" x2="33.72" y2="453.91"/><line class="cls-3" x1="-1390.41" y1="-984.67" x2="40.95" y2="446.69"/><line class="cls-3" x1="-1383.19" y1="-991.9" x2="48.17" y2="439.46"/><line class="cls-3" x1="-1375.96" y1="-999.12" x2="55.4" y2="432.24"/><line class="cls-3" x1="-1368.74" y1="-1006.35" x2="62.62" y2="425.01"/><line class="cls-3" x1="-1361.51" y1="-1013.57" x2="69.85" y2="417.79"/><line class="cls-3" x1="-1354.29" y1="-1020.8" x2="77.08" y2="410.56"/><line class="cls-3" x1="-1347.06" y1="-1028.03" x2="84.3" y2="403.33"/><line class="cls-3" x1="-1339.83" y1="-1035.25" x2="91.53" y2="396.11"/><line class="cls-3" x1="-1332.61" y1="-1042.48" x2="98.75" y2="388.88"/><line class="cls-3" x1="-1325.38" y1="-1049.7" x2="105.98" y2="381.66"/><line class="cls-3" x1="-1318.16" y1="-1056.93" x2="113.2" y2="374.43"/><line class="cls-3" x1="-1310.93" y1="-1064.16" x2="120.43" y2="367.21"/><line class="cls-3" x1="-1303.7" y1="-1071.38" x2="127.66" y2="359.98"/><line class="cls-3" x1="-1296.48" y1="-1078.61" x2="134.88" y2="352.75"/><line class="cls-3" x1="-1289.25" y1="-1085.83" x2="142.11" y2="345.53"/><line class="cls-3" x1="-1282.03" y1="-1093.06" x2="149.33" y2="338.3"/><line class="cls-3" x1="-1274.8" y1="-1100.28" x2="156.56" y2="331.08"/><line class="cls-3" x1="-1267.58" y1="-1107.51" x2="163.78" y2="323.85"/><line class="cls-3" x1="-1260.35" y1="-1114.74" x2="171.01" y2="316.63"/></g><circle cx="6.5" cy="7.5" r="2.5"/><rect x="6" y="1" width="1" height="2"/><rect x="1.24" y="3.75" width="1" height="2" transform="translate(-3.25 3.88) rotate(-59.99)"/><rect x="0.74" y="9.75" width="2" height="1" transform="translate(-4.89 2.24) rotate(-29.99)"/><rect x="6" y="12" width="1" height="2"/><rect x="10.76" y="9.25" width="1" height="2" transform="translate(-3.25 14.88) rotate(-59.99)"/><rect x="10.26" y="4.25" width="2" height="1" transform="translate(-0.87 6.27) rotate(-29.99)"/></svg>